<?xml version="1.0" encoding="UTF-8"?>
<svg xmlns="http://www.w3.org/2000/svg" xmlns:xlink="http://www.w3.org/1999/xlink" width="100pt" height="50pt" viewBox="0 0 100 50" version="1.1">
<g id="surface2">
<rect x="0" y="0" width="100" height="50" style="fill:rgb(100%,100%,100%);fill-opacity:1;stroke:none;"/>
<path style=" stroke:none;fill-rule:nonzero;fill:rgb(0%,0%,0%);fill-opacity:1;" d="M 58.03125 22.0625 C 57.175781 22.90625 56.414062 23.496094 55.75 23.828125 C 55.082031 24.160156 54.332031 24.328125 53.5 24.328125 C 52.300781 24.328125 51.300781 23.949219 50.5 23.1875 C 49.695312 22.429688 49.296875 21.476562 49.296875 20.328125 C 49.296875 18.996094 49.816406 17.914062 50.859375 17.078125 C 51.523438 16.546875 52.304688 16.179688 53.203125 15.96875 C 54.097656 15.75 55.332031 15.640625 56.90625 15.640625 L 57.4375 15.640625 L 57.4375 13.875 C 57.4375 11.648438 56.59375 10.53125 54.90625 10.53125 C 54.113281 10.53125 53.414062 10.777344 52.8125 11.265625 C 52.445312 11.558594 52.21875 12.164062 52.125 13.078125 L 52.109375 13.328125 L 50.375 13.328125 L 50.375 10.734375 C 52.175781 9.945312 53.84375 9.546875 55.375 9.546875 C 56.71875 9.546875 57.8125 9.859375 58.65625 10.484375 C 59.175781 10.882812 59.53125 11.3125 59.71875 11.78125 C 59.90625 12.242188 60 12.90625 60 13.78125 L 60 20.078125 C 60 21.203125 60.097656 22 60.296875 22.46875 C 60.492188 22.929688 60.835938 23.15625 61.328125 23.15625 C 61.492188 23.15625 61.722656 23.117188 62.015625 23.03125 L 62.09375 24 C 61.476562 24.21875 60.921875 24.328125 60.421875 24.328125 C 59.160156 24.328125 58.363281 23.574219 58.03125 22.0625 Z M 57.4375 21.765625 L 57.4375 16.453125 L 56.84375 16.453125 C 55.332031 16.453125 54.148438 16.765625 53.296875 17.390625 C 52.453125 18.007812 52.03125 18.867188 52.03125 19.96875 C 52.03125 20.78125 52.289062 21.460938 52.8125 22 C 53.332031 22.53125 53.988281 22.796875 54.78125 22.796875 C 55.539062 22.796875 56.425781 22.453125 57.4375 21.765625 Z M 72.511719 22.0625 C 71.65625 22.90625 70.894531 23.496094 70.230469 23.828125 C 69.5625 24.160156 68.8125 24.328125 67.980469 24.328125 C 66.78125 24.328125 65.78125 23.949219 64.980469 23.1875 C 64.175781 22.429688 63.777344 21.476562 63.777344 20.328125 C 63.777344 18.996094 64.296875 17.914062 65.339844 17.078125 C 66.003906 16.546875 66.785156 16.179688 67.683594 15.96875 C 68.578125 15.75 69.8125 15.640625 71.386719 15.640625 L 71.917969 15.640625 L 71.917969 13.875 C 71.917969 11.648438 71.074219 10.53125 69.386719 10.53125 C 68.59375 10.53125 67.894531 10.777344 67.292969 11.265625 C 66.925781 11.558594 66.699219 12.164062 66.605469 13.078125 L 66.589844 13.328125 L 64.855469 13.328125 L 64.855469 10.734375 C 66.65625 9.945312 68.324219 9.546875 69.855469 9.546875 C 71.199219 9.546875 72.292969 9.859375 73.136719 10.484375 C 73.65625 10.882812 74.011719 11.3125 74.199219 11.78125 C 74.386719 12.242188 74.480469 12.90625 74.480469 13.78125 L 74.480469 20.078125 C 74.480469 21.203125 74.578125 22 74.777344 22.46875 C 74.972656 22.929688 75.316406 23.15625 75.808594 23.15625 C 75.972656 23.15625 76.203125 23.117188 76.496094 23.03125 L 76.574219 24 C 75.957031 24.21875 75.402344 24.328125 74.902344 24.328125 C 73.640625 24.328125 72.84375 23.574219 72.511719 22.0625 Z M 71.917969 21.765625 L 71.917969 16.453125 L 71.324219 16.453125 C 69.8125 16.453125 68.628906 16.765625 67.777344 17.390625 C 66.933594 18.007812 66.511719 18.867188 66.511719 19.96875 C 66.511719 20.78125 66.769531 21.460938 67.292969 22 C 67.8125 22.53125 68.46875 22.796875 69.261719 22.796875 C 70.019531 22.796875 70.90625 22.453125 71.917969 21.765625 Z M 86.996094 22.0625 C 86.140625 22.90625 85.378906 23.496094 84.714844 23.828125 C 84.046875 24.160156 83.296875 24.328125 82.464844 24.328125 C 81.265625 24.328125 80.265625 23.949219 79.464844 23.1875 C 78.660156 22.429688 78.261719 21.476562 78.261719 20.328125 C 78.261719 18.996094 78.78125 17.914062 79.824219 17.078125 C 80.488281 16.546875 81.269531 16.179688 82.167969 15.96875 C 83.0625 15.75 84.296875 15.640625 85.871094 15.640625 L 86.402344 15.640625 L 86.402344 13.875 C 86.402344 11.648438 85.558594 10.53125 83.871094 10.53125 C 83.078125 10.53125 82.378906 10.777344 81.777344 11.265625 C 81.410156 11.558594 81.183594 12.164062 81.089844 13.078125 L 81.074219 13.328125 L 79.339844 13.328125 L 79.339844 10.734375 C 81.140625 9.945312 82.808594 9.546875 84.339844 9.546875 C 85.683594 9.546875 86.777344 9.859375 87.621094 10.484375 C 88.140625 10.882812 88.496094 11.3125 88.683594 11.78125 C 88.871094 12.242188 88.964844 12.90625 88.964844 13.78125 L 88.964844 20.078125 C 88.964844 21.203125 89.0625 22 89.261719 22.46875 C 89.457031 22.929688 89.800781 23.15625 90.292969 23.15625 C 90.457031 23.15625 90.6875 23.117188 90.980469 23.03125 L 91.058594 24 C 90.441406 24.21875 89.886719 24.328125 89.386719 24.328125 C 88.125 24.328125 87.328125 23.574219 86.996094 22.0625 Z M 86.402344 21.765625 L 86.402344 16.453125 L 85.808594 16.453125 C 84.296875 16.453125 83.113281 16.765625 82.261719 17.390625 C 81.417969 18.007812 80.996094 18.867188 80.996094 19.96875 C 80.996094 20.78125 81.253906 21.460938 81.777344 22 C 82.296875 22.53125 82.953125 22.796875 83.746094 22.796875 C 84.503906 22.796875 85.390625 22.453125 86.402344 21.765625 Z M 86.402344 21.765625 "/>
<path style=" stroke:none;fill-rule:nonzero;fill:rgb(0%,0%,0%);fill-opacity:1;" d="M 13.078125 24.15625 L 13.078125 6.8125 L 13 5.515625 C 12.96875 5.027344 12.882812 4.714844 12.75 4.578125 C 12.613281 4.445312 12.296875 4.359375 11.796875 4.328125 L 10.921875 4.25 L 10.671875 4.25 L 10.671875 3.4375 L 15.65625 3.4375 L 15.65625 12.515625 C 16.925781 10.539062 18.582031 9.546875 20.625 9.546875 C 22.21875 9.546875 23.488281 10.179688 24.4375 11.4375 C 25.382812 12.699219 25.859375 14.390625 25.859375 16.515625 C 25.859375 18.871094 25.316406 20.761719 24.234375 22.1875 C 23.148438 23.617188 21.707031 24.328125 19.90625 24.328125 C 18.25 24.328125 16.832031 23.683594 15.65625 22.390625 L 15.5 22.390625 L 15.171875 24.15625 Z M 15.65625 21.375 C 17.007812 22.386719 18.3125 22.890625 19.5625 22.890625 C 20.71875 22.890625 21.597656 22.40625 22.203125 21.4375 C 22.816406 20.460938 23.125 19.054688 23.125 17.21875 C 23.125 15.199219 22.835938 13.695312 22.265625 12.703125 C 21.691406 11.703125 20.828125 11.203125 19.671875 11.203125 C 18.960938 11.203125 18.242188 11.402344 17.515625 11.796875 C 16.796875 12.195312 16.175781 12.730469 15.65625 13.40625 Z M 38.945312 21.34375 C 37.683594 23.335938 36.03125 24.328125 33.992188 24.328125 C 32.386719 24.328125 31.109375 23.699219 30.164062 22.4375 C 29.226562 21.167969 28.757812 19.46875 28.757812 17.34375 C 28.757812 14.980469 29.296875 13.089844 30.382812 11.671875 C 31.464844 10.257812 32.902344 9.546875 34.695312 9.546875 C 36.351562 9.546875 37.765625 10.1875 38.945312 11.46875 L 38.945312 9.859375 L 41.523438 9.859375 L 41.523438 25.765625 C 41.523438 26.472656 41.578125 27.097656 41.695312 27.640625 C 41.746094 27.867188 41.839844 28.019531 41.976562 28.09375 C 42.121094 28.175781 42.402344 28.234375 42.820312 28.265625 L 43.695312 28.328125 L 43.929688 28.34375 L 43.929688 29.140625 L 36.539062 29.140625 L 36.539062 28.34375 L 36.789062 28.328125 L 37.664062 28.265625 C 38.078125 28.234375 38.355469 28.175781 38.492188 28.09375 C 38.625 28.019531 38.71875 27.867188 38.773438 27.640625 C 38.886719 27.109375 38.945312 26.484375 38.945312 25.765625 Z M 38.945312 12.46875 C 37.609375 11.480469 36.308594 10.984375 35.039062 10.984375 C 33.882812 10.984375 32.996094 11.46875 32.382812 12.4375 C 31.777344 13.40625 31.476562 14.808594 31.476562 16.640625 C 31.476562 18.652344 31.761719 20.15625 32.335938 21.15625 C 32.90625 22.15625 33.773438 22.65625 34.929688 22.65625 C 35.648438 22.65625 36.371094 22.460938 37.101562 22.0625 C 37.839844 21.65625 38.453125 21.117188 38.945312 20.4375 Z M 38.945312 12.46875 "/>
</g>
</svg>
