<?xml version="1.0" encoding="UTF-8"?>
<svg xmlns="http://www.w3.org/2000/svg" xmlns:xlink="http://www.w3.org/1999/xlink" width="100" height="50" viewBox="0 0 100 50">
<defs>
<filter id="filter-remove-color-and-invert-alpha" x="0%" y="0%" width="100%" height="100%">
<feColorMatrix color-interpolation-filters="sRGB" values="0 0 0 0 1 0 0 0 0 1 0 0 0 0 1 0 0 0 -1 1"/>
</filter>
<filter id="filter-0" x="0%" y="0%" width="100%" height="100%">
<feImage xlink:href="#compositing-group-1" result="source" x="0" y="0" width="120" height="60"/>
<feImage xlink:href="#compositing-group-2" result="destination" x="0" y="0" width="120" height="60"/>
<feComposite in="source" in2="destination" operator="arithmetic" k1="0" k2="1" k3="1" k4="0" color-interpolation-filters="sRGB"/>
</filter>
<g id="compositing-group-0" transform="translate(10, 5)">
<rect x="-10" y="-5" width="120" height="60" fill="rgb(0%, 0%, 0%)" fill-opacity="0"/>
<rect x="-10" y="-5" width="120" height="60" fill="rgb(100%, 100%, 100%)" fill-opacity="1"/>
</g>
<mask id="mask-0">
<use xlink:href="#compositing-group-0"/>
</mask>
<mask id="mask-1">
<use xlink:href="#compositing-group-0" filter="url(#filter-remove-color-and-invert-alpha)"/>
</mask>
<g id="compositing-group-1" mask="url(#mask-0)">
<g transform="translate(10, 5)">
<rect x="-10" y="-5" width="120" height="60" fill="rgb(100%, 100%, 100%)" fill-opacity="1"/>
</g>
</g>
<g id="compositing-group-2" mask="url(#mask-1)">
<g transform="translate(10, 5)">
</g>
</g>
</defs>
<g filter="url(#filter-0)" transform="translate(-10, -5)">
<rect x="0" y="0" width="120" height="60" fill="rgb(0%, 0%, 0%)" fill-opacity="1"/>
</g>
<path fill-rule="nonzero" fill="rgb(0%, 0%, 0%)" fill-opacity="1" d="M 59.65625 22.203125 C 58.789062 23.058594 58.019531 23.65625 57.34375 24 C 56.664062 24.332031 55.90625 24.5 55.0625 24.5 C 53.851562 24.5 52.84375 24.117188 52.03125 23.34375 C 51.21875 22.574219 50.8125 21.609375 50.8125 20.453125 C 50.8125 19.101562 51.34375 18 52.40625 17.15625 C 53.070312 16.625 53.859375 16.25 54.765625 16.03125 C 55.671875 15.8125 56.921875 15.703125 58.515625 15.703125 L 59.0625 15.703125 L 59.0625 13.921875 C 59.0625 11.671875 58.203125 10.546875 56.484375 10.546875 C 55.679688 10.546875 54.972656 10.792969 54.359375 11.28125 C 54.003906 11.574219 53.773438 12.183594 53.671875 13.109375 L 53.671875 13.359375 L 51.90625 13.359375 L 51.90625 10.734375 C 53.726562 9.933594 55.414062 9.53125 56.96875 9.53125 C 58.320312 9.53125 59.425781 9.851562 60.28125 10.484375 C 60.8125 10.890625 61.171875 11.328125 61.359375 11.796875 C 61.554688 12.265625 61.65625 12.945312 61.65625 13.828125 L 61.65625 20.203125 C 61.65625 21.351562 61.753906 22.15625 61.953125 22.625 C 62.148438 23.085938 62.492188 23.3125 62.984375 23.3125 C 63.148438 23.3125 63.382812 23.277344 63.6875 23.203125 L 63.765625 24.171875 C 63.140625 24.390625 62.578125 24.5 62.078125 24.5 C 60.804688 24.5 60 23.734375 59.65625 22.203125 Z M 59.0625 21.921875 L 59.0625 16.53125 L 58.453125 16.53125 C 56.921875 16.53125 55.722656 16.84375 54.859375 17.46875 C 54.003906 18.09375 53.578125 18.964844 53.578125 20.078125 C 53.578125 20.914062 53.84375 21.601562 54.375 22.140625 C 54.90625 22.683594 55.570312 22.953125 56.375 22.953125 C 57.132812 22.953125 58.03125 22.609375 59.0625 21.921875 Z M 74.3125 22.203125 C 73.445312 23.058594 72.675781 23.65625 72 24 C 71.320312 24.332031 70.5625 24.5 69.71875 24.5 C 68.507812 24.5 67.5 24.117188 66.6875 23.34375 C 65.875 22.574219 65.46875 21.609375 65.46875 20.453125 C 65.46875 19.101562 66 18 67.0625 17.15625 C 67.726562 16.625 68.515625 16.25 69.421875 16.03125 C 70.328125 15.8125 71.578125 15.703125 73.171875 15.703125 L 73.71875 15.703125 L 73.71875 13.921875 C 73.71875 11.671875 72.859375 10.546875 71.140625 10.546875 C 70.335938 10.546875 69.628906 10.792969 69.015625 11.28125 C 68.660156 11.574219 68.429688 12.183594 68.328125 13.109375 L 68.328125 13.359375 L 66.5625 13.359375 L 66.5625 10.734375 C 68.382812 9.933594 70.070312 9.53125 71.625 9.53125 C 72.976562 9.53125 74.082031 9.851562 74.9375 10.484375 C 75.46875 10.890625 75.828125 11.328125 76.015625 11.796875 C 76.210938 12.265625 76.3125 12.945312 76.3125 13.828125 L 76.3125 20.203125 C 76.3125 21.351562 76.410156 22.15625 76.609375 22.625 C 76.804688 23.085938 77.148438 23.3125 77.640625 23.3125 C 77.804688 23.3125 78.039062 23.277344 78.34375 23.203125 L 78.421875 24.171875 C 77.796875 24.390625 77.234375 24.5 76.734375 24.5 C 75.460938 24.5 74.65625 23.734375 74.3125 22.203125 Z M 73.71875 21.921875 L 73.71875 16.53125 L 73.109375 16.53125 C 71.578125 16.53125 70.378906 16.84375 69.515625 17.46875 C 68.660156 18.09375 68.234375 18.964844 68.234375 20.078125 C 68.234375 20.914062 68.5 21.601562 69.03125 22.140625 C 69.5625 22.683594 70.226562 22.953125 71.03125 22.953125 C 71.789062 22.953125 72.6875 22.609375 73.71875 21.921875 Z M 88.96875 22.203125 C 88.101562 23.058594 87.332031 23.65625 86.65625 24 C 85.976562 24.332031 85.21875 24.5 84.375 24.5 C 83.164062 24.5 82.15625 24.117188 81.34375 23.34375 C 80.53125 22.574219 80.125 21.609375 80.125 20.453125 C 80.125 19.101562 80.65625 18 81.71875 17.15625 C 82.382812 16.625 83.171875 16.25 84.078125 16.03125 C 84.984375 15.8125 86.234375 15.703125 87.828125 15.703125 L 88.375 15.703125 L 88.375 13.921875 C 88.375 11.671875 87.515625 10.546875 85.796875 10.546875 C 84.992188 10.546875 84.285156 10.792969 83.671875 11.28125 C 83.316406 11.574219 83.085938 12.183594 82.984375 13.109375 L 82.984375 13.359375 L 81.21875 13.359375 L 81.21875 10.734375 C 83.039062 9.933594 84.726562 9.53125 86.28125 9.53125 C 87.632812 9.53125 88.738281 9.851562 89.59375 10.484375 C 90.125 10.890625 90.484375 11.328125 90.671875 11.796875 C 90.867188 12.265625 90.96875 12.945312 90.96875 13.828125 L 90.96875 20.203125 C 90.96875 21.351562 91.066406 22.15625 91.265625 22.625 C 91.460938 23.085938 91.804688 23.3125 92.296875 23.3125 C 92.460938 23.3125 92.695312 23.277344 93 23.203125 L 93.078125 24.171875 C 92.453125 24.390625 91.890625 24.5 91.390625 24.5 C 90.117188 24.5 89.3125 23.734375 88.96875 22.203125 Z M 88.375 21.921875 L 88.375 16.53125 L 87.765625 16.53125 C 86.234375 16.53125 85.035156 16.84375 84.171875 17.46875 C 83.316406 18.09375 82.890625 18.964844 82.890625 20.078125 C 82.890625 20.914062 83.15625 21.601562 83.6875 22.140625 C 84.21875 22.683594 84.882812 22.953125 85.6875 22.953125 C 86.445312 22.953125 87.34375 22.609375 88.375 21.921875 Z M 88.375 21.921875 "/>
</svg>
