<?xml version="1.0" encoding="UTF-8"?>
<svg xmlns="http://www.w3.org/2000/svg" xmlns:xlink="http://www.w3.org/1999/xlink" width="100pt" height="50pt" viewBox="0 0 100 50" version="1.1">
<g id="surface2">
<rect x="0" y="0" width="100" height="50" style="fill:rgb(100%,100%,100%);fill-opacity:1;stroke:none;"/>
<path style=" stroke:none;fill-rule:nonzero;fill:rgb(0%,0%,0%);fill-opacity:1;" d="M 59.65625 22.53125 C 58.789062 23.386719 58.019531 23.984375 57.34375 24.328125 C 56.664062 24.660156 55.90625 24.828125 55.0625 24.828125 C 53.851562 24.828125 52.84375 24.445312 52.03125 23.671875 C 51.21875 22.902344 50.8125 21.9375 50.8125 20.78125 C 50.8125 19.429688 51.34375 18.328125 52.40625 17.484375 C 53.070312 16.953125 53.859375 16.578125 54.765625 16.359375 C 55.671875 16.140625 56.921875 16.03125 58.515625 16.03125 L 59.0625 16.03125 L 59.0625 14.25 C 59.0625 12 58.203125 10.875 56.484375 10.875 C 55.679688 10.875 54.972656 11.121094 54.359375 11.609375 C 54.003906 11.902344 53.773438 12.511719 53.671875 13.4375 L 53.671875 13.6875 L 51.90625 13.6875 L 51.90625 11.0625 C 53.726562 10.261719 55.414062 9.859375 56.96875 9.859375 C 58.320312 9.859375 59.425781 10.179688 60.28125 10.8125 C 60.8125 11.21875 61.171875 11.65625 61.359375 12.125 C 61.554688 12.59375 61.65625 13.273438 61.65625 14.15625 L 61.65625 20.53125 C 61.65625 21.679688 61.753906 22.484375 61.953125 22.953125 C 62.148438 23.414062 62.492188 23.640625 62.984375 23.640625 C 63.148438 23.640625 63.382812 23.605469 63.6875 23.53125 L 63.765625 24.5 C 63.140625 24.71875 62.578125 24.828125 62.078125 24.828125 C 60.804688 24.828125 60 24.0625 59.65625 22.53125 Z M 59.0625 22.25 L 59.0625 16.859375 L 58.453125 16.859375 C 56.921875 16.859375 55.722656 17.171875 54.859375 17.796875 C 54.003906 18.421875 53.578125 19.292969 53.578125 20.40625 C 53.578125 21.242188 53.84375 21.929688 54.375 22.46875 C 54.90625 23.011719 55.570312 23.28125 56.375 23.28125 C 57.132812 23.28125 58.03125 22.9375 59.0625 22.25 Z M 74.3125 22.53125 C 73.445312 23.386719 72.675781 23.984375 72 24.328125 C 71.320312 24.660156 70.5625 24.828125 69.71875 24.828125 C 68.507812 24.828125 67.5 24.445312 66.6875 23.671875 C 65.875 22.902344 65.46875 21.9375 65.46875 20.78125 C 65.46875 19.429688 66 18.328125 67.0625 17.484375 C 67.726562 16.953125 68.515625 16.578125 69.421875 16.359375 C 70.328125 16.140625 71.578125 16.03125 73.171875 16.03125 L 73.71875 16.03125 L 73.71875 14.25 C 73.71875 12 72.859375 10.875 71.140625 10.875 C 70.335938 10.875 69.628906 11.121094 69.015625 11.609375 C 68.660156 11.902344 68.429688 12.511719 68.328125 13.4375 L 68.328125 13.6875 L 66.5625 13.6875 L 66.5625 11.0625 C 68.382812 10.261719 70.070312 9.859375 71.625 9.859375 C 72.976562 9.859375 74.082031 10.179688 74.9375 10.8125 C 75.46875 11.21875 75.828125 11.65625 76.015625 12.125 C 76.210938 12.59375 76.3125 13.273438 76.3125 14.15625 L 76.3125 20.53125 C 76.3125 21.679688 76.410156 22.484375 76.609375 22.953125 C 76.804688 23.414062 77.148438 23.640625 77.640625 23.640625 C 77.804688 23.640625 78.039062 23.605469 78.34375 23.53125 L 78.421875 24.5 C 77.796875 24.71875 77.234375 24.828125 76.734375 24.828125 C 75.460938 24.828125 74.65625 24.0625 74.3125 22.53125 Z M 73.71875 22.25 L 73.71875 16.859375 L 73.109375 16.859375 C 71.578125 16.859375 70.378906 17.171875 69.515625 17.796875 C 68.660156 18.421875 68.234375 19.292969 68.234375 20.40625 C 68.234375 21.242188 68.5 21.929688 69.03125 22.46875 C 69.5625 23.011719 70.226562 23.28125 71.03125 23.28125 C 71.789062 23.28125 72.6875 22.9375 73.71875 22.25 Z M 88.96875 22.53125 C 88.101562 23.386719 87.332031 23.984375 86.65625 24.328125 C 85.976562 24.660156 85.21875 24.828125 84.375 24.828125 C 83.164062 24.828125 82.15625 24.445312 81.34375 23.671875 C 80.53125 22.902344 80.125 21.9375 80.125 20.78125 C 80.125 19.429688 80.65625 18.328125 81.71875 17.484375 C 82.382812 16.953125 83.171875 16.578125 84.078125 16.359375 C 84.984375 16.140625 86.234375 16.03125 87.828125 16.03125 L 88.375 16.03125 L 88.375 14.25 C 88.375 12 87.515625 10.875 85.796875 10.875 C 84.992188 10.875 84.285156 11.121094 83.671875 11.609375 C 83.316406 11.902344 83.085938 12.511719 82.984375 13.4375 L 82.984375 13.6875 L 81.21875 13.6875 L 81.21875 11.0625 C 83.039062 10.261719 84.726562 9.859375 86.28125 9.859375 C 87.632812 9.859375 88.738281 10.179688 89.59375 10.8125 C 90.125 11.21875 90.484375 11.65625 90.671875 12.125 C 90.867188 12.59375 90.96875 13.273438 90.96875 14.15625 L 90.96875 20.53125 C 90.96875 21.679688 91.066406 22.484375 91.265625 22.953125 C 91.460938 23.414062 91.804688 23.640625 92.296875 23.640625 C 92.460938 23.640625 92.695312 23.605469 93 23.53125 L 93.078125 24.5 C 92.453125 24.71875 91.890625 24.828125 91.390625 24.828125 C 90.117188 24.828125 89.3125 24.0625 88.96875 22.53125 Z M 88.375 22.25 L 88.375 16.859375 L 87.765625 16.859375 C 86.234375 16.859375 85.035156 17.171875 84.171875 17.796875 C 83.316406 18.421875 82.890625 19.292969 82.890625 20.40625 C 82.890625 21.242188 83.15625 21.929688 83.6875 22.46875 C 84.21875 23.011719 84.882812 23.28125 85.6875 23.28125 C 86.445312 23.28125 87.34375 22.9375 88.375 22.25 Z M 88.375 22.25 "/>
<path style=" stroke:none;fill-rule:nonzero;fill:rgb(0%,0%,0%);fill-opacity:1;" d="M 12.410156 24.65625 L 12.410156 7.09375 L 12.332031 5.796875 C 12.300781 5.296875 12.210938 4.980469 12.066406 4.84375 C 11.929688 4.699219 11.605469 4.609375 11.097656 4.578125 L 10.222656 4.515625 L 9.972656 4.5 L 9.972656 3.6875 L 15.003906 3.6875 L 15.003906 12.875 C 16.292969 10.867188 17.976562 9.859375 20.050781 9.859375 C 21.664062 9.859375 22.949219 10.5 23.910156 11.78125 C 24.867188 13.054688 25.347656 14.765625 25.347656 16.921875 C 25.347656 19.308594 24.792969 21.226562 23.691406 22.671875 C 22.597656 24.109375 21.136719 24.828125 19.316406 24.828125 C 17.636719 24.828125 16.199219 24.179688 15.003906 22.875 L 14.847656 22.875 L 14.519531 24.65625 Z M 15.003906 21.84375 C 16.386719 22.867188 17.710938 23.375 18.972656 23.375 C 20.136719 23.375 21.027344 22.882812 21.644531 21.890625 C 22.269531 20.902344 22.582031 19.480469 22.582031 17.625 C 22.582031 15.59375 22.289062 14.074219 21.707031 13.0625 C 21.121094 12.054688 20.246094 11.546875 19.082031 11.546875 C 18.363281 11.546875 17.636719 11.75 16.910156 12.15625 C 16.179688 12.554688 15.542969 13.09375 15.003906 13.78125 Z M 38.582031 21.8125 C 37.308594 23.824219 35.636719 24.828125 33.566406 24.828125 C 31.949219 24.828125 30.664062 24.195312 29.707031 22.921875 C 28.746094 21.640625 28.269531 19.921875 28.269531 17.765625 C 28.269531 15.371094 28.816406 13.453125 29.910156 12.015625 C 31.011719 10.578125 32.472656 9.859375 34.285156 9.859375 C 35.960938 9.859375 37.394531 10.511719 38.582031 11.8125 L 38.582031 10.1875 L 41.191406 10.1875 L 41.191406 26.296875 C 41.191406 27.003906 41.246094 27.632812 41.363281 28.1875 C 41.414062 28.414062 41.507812 28.566406 41.644531 28.640625 C 41.789062 28.722656 42.074219 28.78125 42.503906 28.8125 L 43.378906 28.875 L 43.628906 28.890625 L 43.628906 29.703125 L 36.144531 29.703125 L 36.144531 28.890625 L 36.394531 28.875 L 37.300781 28.8125 C 37.707031 28.78125 37.976562 28.722656 38.113281 28.640625 C 38.257812 28.566406 38.355469 28.414062 38.410156 28.1875 C 38.523438 27.644531 38.582031 27.015625 38.582031 26.296875 Z M 38.582031 12.828125 C 37.226562 11.820312 35.910156 11.3125 34.628906 11.3125 C 33.460938 11.3125 32.566406 11.808594 31.941406 12.796875 C 31.324219 13.777344 31.019531 15.195312 31.019531 17.046875 C 31.019531 19.089844 31.304688 20.617188 31.878906 21.625 C 32.460938 22.636719 33.339844 23.140625 34.519531 23.140625 C 35.246094 23.140625 35.980469 22.9375 36.722656 22.53125 C 37.460938 22.125 38.082031 21.585938 38.582031 20.90625 Z M 38.582031 12.828125 "/>
</g>
</svg>
