<?xml version="1.0" encoding="UTF-8"?>
<svg xmlns="http://www.w3.org/2000/svg" xmlns:xlink="http://www.w3.org/1999/xlink" width="150pt" height="150pt" viewBox="0 0 150 150" version="1.1">
<g id="surface2">
<rect x="0" y="0" width="150" height="150" style="fill:rgb(100%,100%,100%);fill-opacity:1;stroke:none;"/>
<path style=" stroke:none;fill-rule:evenodd;fill:rgb(100%,0%,0%);fill-opacity:1;" d="M 63.148438 67.699219 L 93.148438 67.699219 L 93.148438 67 L 63.148438 67 Z M 63.148438 67.699219 "/>
<path style=" stroke:none;fill-rule:evenodd;fill:rgb(0%,100%,0%);fill-opacity:1;" d="M 63.148438 67 L 93.148438 67 L 93.148438 59.871094 L 63.148438 59.871094 Z M 63.148438 67 "/>
<path style=" stroke:none;fill-rule:evenodd;fill:rgb(0%,0%,100%);fill-opacity:1;" d="M 63.148438 59.871094 L 93.148438 59.871094 L 93.148438 55.761719 L 63.148438 55.761719 Z M 63.148438 59.871094 "/>
<path style=" stroke:none;fill-rule:evenodd;fill:rgb(100%,0%,100%);fill-opacity:1;" d="M 63.148438 55.761719 L 93.148438 55.761719 L 93.148438 42.539062 L 63.148438 42.539062 Z M 63.148438 55.761719 "/>
<path style=" stroke:none;fill-rule:evenodd;fill:rgb(100%,0%,0%);fill-opacity:1;" d="M 70.132812 120.929688 L 100.132812 120.929688 L 100.132812 103.929688 L 70.132812 103.929688 Z M 70.132812 120.929688 "/>
<path style=" stroke:none;fill-rule:evenodd;fill:rgb(0%,100%,0%);fill-opacity:1;" d="M 70.132812 103.929688 L 100.132812 103.929688 L 100.132812 92 L 70.132812 92 Z M 70.132812 103.929688 "/>
<path style=" stroke:none;fill-rule:evenodd;fill:rgb(0%,0%,100%);fill-opacity:1;" d="M 70.132812 92 L 100.132812 92 L 100.132812 79.492188 L 70.132812 79.492188 Z M 70.132812 92 "/>
<path style=" stroke:none;fill-rule:evenodd;fill:rgb(100%,0%,100%);fill-opacity:1;" d="M 70.132812 79.492188 L 100.132812 79.492188 L 100.132812 71.070312 L 70.132812 71.070312 Z M 70.132812 79.492188 "/>
<path style=" stroke:none;fill-rule:evenodd;fill:rgb(100%,0%,0%);fill-opacity:1;" d="M 6.128906 91.476562 L 36.128906 91.476562 L 36.128906 77.535156 L 6.128906 77.535156 Z M 6.128906 91.476562 "/>
<path style=" stroke:none;fill-rule:evenodd;fill:rgb(0%,100%,0%);fill-opacity:1;" d="M 6.128906 77.535156 L 36.128906 77.535156 L 36.128906 75.367188 L 6.128906 75.367188 Z M 6.128906 77.535156 "/>
<path style=" stroke:none;fill-rule:evenodd;fill:rgb(0%,0%,100%);fill-opacity:1;" d="M 6.128906 75.367188 L 36.128906 75.367188 L 36.128906 58.9375 L 6.128906 58.9375 Z M 6.128906 75.367188 "/>
<path style=" stroke:none;fill-rule:evenodd;fill:rgb(100%,0%,100%);fill-opacity:1;" d="M 6.128906 58.9375 L 36.128906 58.9375 L 36.128906 56.757812 L 6.128906 56.757812 Z M 6.128906 58.9375 "/>
</g>
</svg>
