<?xml version="1.0" encoding="UTF-8"?>
<svg xmlns="http://www.w3.org/2000/svg" xmlns:xlink="http://www.w3.org/1999/xlink" width="100" height="130" viewBox="0 0 100 130">
<defs>
<filter id="filter-remove-color-and-invert-alpha" x="0%" y="0%" width="100%" height="100%">
<feColorMatrix color-interpolation-filters="sRGB" values="0 0 0 0 1 0 0 0 0 1 0 0 0 0 1 0 0 0 -1 1"/>
</filter>
<filter id="filter-0" x="0%" y="0%" width="100%" height="100%">
<feImage xlink:href="#compositing-group-1" result="source" x="0" y="0" width="120" height="156"/>
<feImage xlink:href="#compositing-group-2" result="destination" x="0" y="0" width="120" height="156"/>
<feComposite in="source" in2="destination" operator="arithmetic" k1="0" k2="1" k3="1" k4="0" color-interpolation-filters="sRGB"/>
</filter>
<g id="compositing-group-0" transform="translate(10, 13)">
<rect x="-10" y="-13" width="120" height="156" fill="rgb(0%, 0%, 0%)" fill-opacity="0"/>
<rect x="-10" y="-13" width="120" height="156" fill="rgb(100%, 100%, 100%)" fill-opacity="1"/>
</g>
<mask id="mask-0">
<use xlink:href="#compositing-group-0"/>
</mask>
<mask id="mask-1">
<use xlink:href="#compositing-group-0" filter="url(#filter-remove-color-and-invert-alpha)"/>
</mask>
<g id="compositing-group-1" mask="url(#mask-0)">
<g transform="translate(10, 13)">
<rect x="-10" y="-13" width="120" height="156" fill="rgb(100%, 100%, 100%)" fill-opacity="1"/>
</g>
</g>
<g id="compositing-group-2" mask="url(#mask-1)">
<g transform="translate(10, 13)">
</g>
</g>
</defs>
<g filter="url(#filter-0)" transform="translate(-10, -13)">
<rect x="0" y="0" width="120" height="156" fill="rgb(0%, 0%, 0%)" fill-opacity="1"/>
</g>
<path fill-rule="evenodd" fill="rgb(49.803922%, 78.823529%, 49.803922%)" fill-opacity="1" d="M 23.570312 99.855469 L 33.570312 99.855469 L 33.082031 102.953125 L 31.65625 105.742188 L 29.4375 107.953125 L 26.644531 109.375 L 23.550781 109.855469 L 20.457031 109.359375 L 17.667969 107.929688 L 15.460938 105.707031 L 14.050781 102.910156 L 13.570312 99.8125 L 14.074219 96.722656 L 15.511719 93.9375 L 17.738281 91.734375 L 20.539062 90.328125 L 23.636719 89.855469 L 26.726562 90.367188 L 29.507812 91.8125 L 31.707031 94.042969 L 33.105469 96.84375 L 33.570312 99.855469 Z M 23.570312 99.855469 "/>
<path fill-rule="evenodd" fill="rgb(49.803922%, 78.823529%, 49.803922%)" fill-opacity="1" d="M 23.570312 76.285156 L 33.570312 76.285156 L 33.082031 79.378906 L 31.65625 82.171875 L 29.4375 84.382812 L 26.644531 85.800781 L 23.550781 86.285156 L 20.457031 85.789062 L 17.667969 84.359375 L 15.460938 82.136719 L 14.050781 79.339844 L 13.570312 76.285156 Z M 23.570312 76.285156 "/>
<path fill-rule="evenodd" fill="rgb(99.215686%, 75.294118%, 52.54902%)" fill-opacity="1" d="M 23.570312 76.285156 L 13.570312 76.285156 L 14.0625 73.191406 L 15.488281 70.402344 L 17.703125 68.1875 L 20.496094 66.769531 L 23.59375 66.285156 L 26.6875 66.785156 L 29.472656 68.214844 L 31.683594 70.4375 L 33.09375 73.234375 L 33.570312 76.285156 Z M 23.570312 76.285156 "/>
<path fill-rule="evenodd" fill="rgb(49.803922%, 78.823529%, 49.803922%)" fill-opacity="1" d="M 23.570312 52.714844 L 33.570312 52.714844 L 33.082031 55.808594 L 31.65625 58.597656 L 29.4375 60.8125 L 26.644531 62.230469 L 23.550781 62.714844 L 20.457031 62.214844 L 18.570312 61.375 Z M 23.570312 52.714844 "/>
<path fill-rule="evenodd" fill="rgb(74.509804%, 68.235294%, 83.137255%)" fill-opacity="1" d="M 23.570312 52.714844 L 18.570312 61.375 L 16.136719 59.402344 L 14.433594 56.773438 L 13.625 53.746094 L 13.792969 50.617188 L 14.921875 47.695312 L 16.898438 45.265625 L 18.570312 44.054688 Z M 23.570312 52.714844 "/>
<path fill-rule="evenodd" fill="rgb(99.215686%, 75.294118%, 52.54902%)" fill-opacity="1" d="M 23.570312 52.714844 L 18.570312 44.054688 L 21.496094 42.933594 L 24.625 42.769531 L 27.652344 43.585938 L 30.277344 45.292969 L 32.242188 47.734375 L 33.359375 50.660156 L 33.570312 52.714844 Z M 23.570312 52.714844 "/>
<path fill-rule="evenodd" fill="rgb(49.803922%, 78.823529%, 49.803922%)" fill-opacity="1" d="M 23.570312 29.144531 L 33.570312 29.144531 L 33.082031 32.238281 L 31.65625 35.027344 L 29.4375 37.242188 L 26.644531 38.660156 L 23.570312 39.144531 Z M 23.570312 29.144531 "/>
<path fill-rule="evenodd" fill="rgb(74.509804%, 68.235294%, 83.137255%)" fill-opacity="1" d="M 23.570312 29.144531 L 23.570312 39.144531 L 20.476562 38.652344 L 17.6875 37.226562 L 15.472656 35.011719 L 14.054688 32.214844 L 13.570312 29.144531 Z M 23.570312 29.144531 "/>
<path fill-rule="evenodd" fill="rgb(99.215686%, 75.294118%, 52.54902%)" fill-opacity="1" d="M 23.570312 29.144531 L 13.570312 29.144531 L 14.0625 26.046875 L 15.488281 23.257812 L 17.703125 21.046875 L 20.496094 19.625 L 23.570312 19.144531 Z M 23.570312 29.144531 "/>
<path fill-rule="evenodd" fill="rgb(100%, 100%, 60%)" fill-opacity="1" d="M 23.570312 29.144531 L 23.570312 19.144531 L 26.664062 19.632812 L 29.457031 21.058594 L 31.667969 23.277344 L 33.085938 26.070312 L 33.570312 29.144531 Z M 23.570312 29.144531 "/>
<path fill-rule="evenodd" fill="rgb(74.509804%, 68.235294%, 83.137255%)" fill-opacity="1" d="M 47.144531 99.855469 L 57.144531 99.855469 L 56.652344 102.953125 L 55.226562 105.742188 L 53.011719 107.953125 L 50.214844 109.375 L 47.121094 109.855469 L 44.027344 109.359375 L 41.242188 107.929688 L 39.03125 105.707031 L 37.621094 102.910156 L 37.144531 99.855469 Z M 47.144531 99.855469 "/>
<path fill-rule="evenodd" fill="rgb(100%, 100%, 60%)" fill-opacity="1" d="M 47.144531 99.855469 L 37.144531 99.855469 L 37.632812 96.761719 L 39.058594 93.972656 L 41.277344 91.757812 L 44.070312 90.339844 L 47.164062 89.855469 L 50.257812 90.355469 L 53.046875 91.785156 L 55.253906 94.007812 L 56.664062 96.804688 L 57.144531 99.855469 Z M 47.144531 99.855469 "/>
<path fill-rule="evenodd" fill="rgb(74.509804%, 68.235294%, 83.137255%)" fill-opacity="1" d="M 47.144531 76.285156 L 57.144531 76.285156 L 56.652344 79.378906 L 55.226562 82.171875 L 53.011719 84.382812 L 50.214844 85.800781 L 47.121094 86.285156 L 44.027344 85.789062 L 42.144531 84.945312 Z M 47.144531 76.285156 "/>
<path fill-rule="evenodd" fill="rgb(99.215686%, 75.294118%, 52.54902%)" fill-opacity="1" d="M 47.144531 76.285156 L 42.144531 84.945312 L 39.707031 82.972656 L 38.003906 80.34375 L 37.195312 77.316406 L 37.363281 74.191406 L 38.492188 71.265625 L 40.472656 68.835938 L 42.144531 67.625 Z M 47.144531 76.285156 "/>
<path fill-rule="evenodd" fill="rgb(100%, 100%, 60%)" fill-opacity="1" d="M 47.144531 76.285156 L 42.144531 67.625 L 45.066406 66.503906 L 48.195312 66.339844 L 51.222656 67.15625 L 53.847656 68.867188 L 55.8125 71.304688 L 56.929688 74.230469 L 57.144531 76.285156 Z M 47.144531 76.285156 "/>
<path fill-rule="evenodd" fill="rgb(74.509804%, 68.235294%, 83.137255%)" fill-opacity="1" d="M 47.144531 52.714844 L 57.144531 52.714844 L 56.652344 55.808594 L 55.226562 58.597656 L 53.011719 60.8125 L 50.214844 62.230469 L 47.121094 62.714844 L 44.027344 62.214844 L 41.242188 60.785156 L 39.03125 58.5625 L 37.621094 55.765625 L 37.144531 52.671875 L 37.648438 49.578125 L 39.082031 46.792969 L 41.3125 44.589844 L 44.109375 43.183594 L 47.207031 42.714844 L 50.300781 43.226562 L 53.082031 44.667969 L 55.277344 46.898438 L 56.679688 49.703125 L 57.144531 52.714844 Z M 47.144531 52.714844 "/>
<path fill-rule="evenodd" fill="rgb(49.803922%, 78.823529%, 49.803922%)" fill-opacity="1" d="M 47.144531 29.144531 L 57.144531 29.144531 L 56.652344 32.238281 L 55.226562 35.027344 L 53.011719 37.242188 L 50.214844 38.660156 L 47.121094 39.144531 L 44.027344 38.644531 L 42.144531 37.804688 Z M 47.144531 29.144531 "/>
<path fill-rule="evenodd" fill="rgb(74.509804%, 68.235294%, 83.137255%)" fill-opacity="1" d="M 47.144531 29.144531 L 42.144531 37.804688 L 39.707031 35.832031 L 38.003906 33.203125 L 37.195312 30.175781 L 37.363281 27.046875 L 38.492188 24.125 L 40.472656 21.695312 L 42.144531 20.484375 Z M 47.144531 29.144531 "/>
<path fill-rule="evenodd" fill="rgb(99.215686%, 75.294118%, 52.54902%)" fill-opacity="1" d="M 47.144531 29.144531 L 42.144531 20.484375 L 45.066406 19.359375 L 48.195312 19.199219 L 51.222656 20.011719 L 53.847656 21.722656 L 55.8125 24.160156 L 56.929688 27.089844 L 57.144531 29.144531 Z M 47.144531 29.144531 "/>
<path fill-rule="evenodd" fill="rgb(49.803922%, 78.823529%, 49.803922%)" fill-opacity="1" d="M 70.714844 76.285156 L 80.714844 76.285156 L 80.222656 79.378906 L 78.800781 82.171875 L 76.582031 84.382812 L 73.789062 85.800781 L 70.691406 86.285156 L 67.597656 85.789062 L 64.8125 84.359375 L 62.605469 82.136719 L 61.191406 79.339844 L 60.714844 76.285156 Z M 70.714844 76.285156 "/>
<path fill-rule="evenodd" fill="rgb(74.509804%, 68.235294%, 83.137255%)" fill-opacity="1" d="M 70.714844 76.285156 L 60.714844 76.285156 L 61.203125 73.191406 L 62.628906 70.402344 L 64.847656 68.1875 L 67.640625 66.769531 L 70.734375 66.285156 L 73.828125 66.785156 L 76.617188 68.214844 L 78.824219 70.4375 L 80.238281 73.234375 L 80.714844 76.285156 Z M 70.714844 76.285156 "/>
<path fill-rule="evenodd" fill="rgb(74.509804%, 68.235294%, 83.137255%)" fill-opacity="1" d="M 70.714844 52.714844 L 80.714844 52.714844 L 80.222656 55.808594 L 78.800781 58.597656 L 76.582031 60.8125 L 73.789062 62.230469 L 70.691406 62.714844 L 67.597656 62.214844 L 65.714844 61.375 Z M 70.714844 52.714844 "/>
<path fill-rule="evenodd" fill="rgb(99.215686%, 75.294118%, 52.54902%)" fill-opacity="1" d="M 70.714844 52.714844 L 65.714844 61.375 L 63.28125 59.402344 L 61.574219 56.773438 L 60.769531 53.746094 L 60.9375 50.617188 L 62.066406 47.695312 L 64.042969 45.265625 L 65.714844 44.054688 Z M 70.714844 52.714844 "/>
<path fill-rule="evenodd" fill="rgb(100%, 100%, 60%)" fill-opacity="1" d="M 70.714844 52.714844 L 65.714844 44.054688 L 68.640625 42.933594 L 71.769531 42.769531 L 74.792969 43.585938 L 77.417969 45.292969 L 79.386719 47.734375 L 80.5 50.660156 L 80.714844 52.714844 Z M 70.714844 52.714844 "/>
<path fill-rule="evenodd" fill="rgb(49.803922%, 78.823529%, 49.803922%)" fill-opacity="1" d="M 70.714844 29.144531 L 80.714844 29.144531 L 80.222656 32.238281 L 78.800781 35.027344 L 76.582031 37.242188 L 73.789062 38.660156 L 70.691406 39.144531 L 67.597656 38.644531 L 64.8125 37.214844 L 62.605469 34.992188 L 61.191406 32.195312 L 60.714844 29.144531 Z M 70.714844 29.144531 "/>
<path fill-rule="evenodd" fill="rgb(100%, 100%, 60%)" fill-opacity="1" d="M 70.714844 29.144531 L 60.714844 29.144531 L 61.203125 26.046875 L 62.628906 23.257812 L 64.847656 21.046875 L 67.640625 19.625 L 70.734375 19.144531 L 73.828125 19.640625 L 76.617188 21.070312 L 78.824219 23.292969 L 80.238281 26.089844 L 80.714844 29.144531 Z M 70.714844 29.144531 "/>
</svg>
