<?xml version="1.0" encoding="UTF-8"?>
<svg xmlns="http://www.w3.org/2000/svg" xmlns:xlink="http://www.w3.org/1999/xlink" width="80" height="60" viewBox="0 0 80 60">
<defs>
<filter id="filter-remove-color-and-invert-alpha" x="0%" y="0%" width="100%" height="100%">
<feColorMatrix color-interpolation-filters="sRGB" values="0 0 0 0 1 0 0 0 0 1 0 0 0 0 1 0 0 0 -1 1"/>
</filter>
<filter id="filter-0" x="0%" y="0%" width="100%" height="100%">
<feImage xlink:href="#compositing-group-1" result="source" x="0" y="0" width="96" height="72"/>
<feImage xlink:href="#compositing-group-2" result="destination" x="0" y="0" width="96" height="72"/>
<feComposite in="source" in2="destination" operator="arithmetic" k1="0" k2="1" k3="1" k4="0" color-interpolation-filters="sRGB"/>
</filter>
<g id="compositing-group-0" transform="translate(8, 6)">
<rect x="-8" y="-6" width="96" height="72" fill="rgb(0%, 0%, 0%)" fill-opacity="0"/>
<rect x="-8" y="-6" width="96" height="72" fill="rgb(100%, 100%, 100%)" fill-opacity="1"/>
</g>
<mask id="mask-0">
<use xlink:href="#compositing-group-0"/>
</mask>
<mask id="mask-1">
<use xlink:href="#compositing-group-0" filter="url(#filter-remove-color-and-invert-alpha)"/>
</mask>
<g id="compositing-group-1" mask="url(#mask-0)">
<g transform="translate(8, 6)">
<rect x="-8" y="-6" width="96" height="72" fill="rgb(100%, 100%, 100%)" fill-opacity="1"/>
</g>
</g>
<g id="compositing-group-2" mask="url(#mask-1)">
<g transform="translate(8, 6)">
</g>
</g>
</defs>
<g filter="url(#filter-0)" transform="translate(-8, -6)">
<rect x="0" y="0" width="96" height="72" fill="rgb(0%, 0%, 0%)" fill-opacity="1"/>
</g>
<path fill-rule="evenodd" fill="rgb(0%, 0%, 0%)" fill-opacity="1" d="M 9.933594 53 L 9.457031 54.878906 L 8.140625 56.300781 L 6.304688 56.921875 L 4.394531 56.589844 L 2.875 55.390625 L 2.113281 53.609375 L 2.292969 51.679688 L 3.375 50.070312 L 5.089844 49.171875 L 7.027344 49.203125 L 8.714844 50.15625 L 9.746094 51.796875 Z M 9.933594 53 "/>
<path fill-rule="evenodd" fill="rgb(0%, 0%, 0%)" fill-opacity="1" d="M 196.5 -49 L 196 -39.617188 L 194.511719 -30.335938 L 192.042969 -21.269531 L 188.628906 -12.515625 L 184.304688 -4.171875 L 179.121094 3.667969 L 173.136719 10.914062 L 166.414062 17.480469 L 159.035156 23.300781 L 151.082031 28.304688 L 142.640625 32.4375 L 133.8125 35.652344 L 124.691406 37.910156 L 115.378906 39.191406 L 105.988281 39.476562 L 96.617188 38.765625 L 87.375 37.0625 L 78.363281 34.390625 L 69.691406 30.777344 L 61.445312 26.265625 L 53.726562 20.90625 L 46.621094 14.757812 L 40.207031 7.886719 L 34.554688 0.378906 L 29.734375 -7.6875 L 25.796875 -16.21875 L 22.78125 -25.121094 L 20.730469 -34.292969 L 19.664062 -43.628906 L 19.589844 -53.023438 L 20.515625 -62.375 L 22.429688 -71.578125 L 25.304688 -80.523438 L 29.113281 -89.117188 L 33.8125 -97.253906 L 39.347656 -104.847656 L 45.65625 -111.8125 L 52.667969 -118.070312 L 60.304688 -123.546875 L 68.476562 -128.183594 L 77.097656 -131.929688 L 86.066406 -134.738281 L 95.28125 -136.582031 L 104.636719 -137.4375 L 114.035156 -137.292969 L 123.363281 -136.15625 L 132.519531 -134.035156 L 141.398438 -130.957031 L 149.898438 -126.953125 L 157.929688 -122.070312 L 165.394531 -116.363281 L 172.214844 -109.898438 L 178.3125 -102.746094 L 183.613281 -94.988281 L 188.0625 -86.710938 L 191.609375 -78.007812 L 194.214844 -68.980469 L 195.847656 -59.722656 Z M 196.5 -49 "/>
</svg>
