<?xml version="1.0" encoding="UTF-8"?>
<svg xmlns="http://www.w3.org/2000/svg" xmlns:xlink="http://www.w3.org/1999/xlink" width="500pt" height="500pt" viewBox="0 0 500 500" version="1.1">
<g id="surface2">
<rect x="0" y="0" width="500" height="500" style="fill:rgb(100%,100%,100%);fill-opacity:1;stroke:none;"/>
<path style="fill:none;stroke-width:1;stroke-linecap:round;stroke-linejoin:round;stroke:rgb(0%,0%,100%);stroke-opacity:1;stroke-miterlimit:10;" d="M 203.078125 201.226562 L 174.027344 171.324219 L 34.765625 186.703125 L 5.714844 291.792969 L 81.753906 324.257812 L 216.746094 279.832031 L 209.058594 214.898438 "/>
<path style=" stroke:none;fill-rule:nonzero;fill:rgb(0%,0%,0%);fill-opacity:1;" d="M 176.394531 165.6875 L 172.253906 177.171875 L 171.660156 176.953125 L 175.800781 165.46875 Z M 176.394531 165.6875 "/>
<path style=" stroke:none;fill-rule:nonzero;fill:rgb(0%,0%,0%);fill-opacity:1;" d="M 31.042969 181.84375 L 38.964844 191.140625 L 38.480469 191.5625 L 30.558594 182.265625 Z M 31.042969 181.84375 "/>
<path style=" stroke:none;fill-rule:nonzero;fill:rgb(0%,0%,0%);fill-opacity:1;" d="M 11.359375 289.441406 L 0.359375 294.722656 L 0.078125 294.144531 L 11.078125 288.863281 Z M 11.359375 289.441406 "/>
<path style=" stroke:none;fill-rule:nonzero;fill:rgb(0%,0%,0%);fill-opacity:1;" d="M 82.328125 318.171875 L 81.8125 330.359375 L 81.171875 330.328125 L 81.6875 318.140625 Z M 82.328125 318.171875 "/>
<path style=" stroke:none;fill-rule:nonzero;fill:rgb(0%,0%,0%);fill-opacity:1;" d="M 211.765625 276.277344 L 222.0625 282.839844 L 221.71875 283.386719 L 211.421875 276.824219 Z M 211.765625 276.277344 "/>
<path style=" stroke:none;fill-rule:nonzero;fill:rgb(0%,0%,100%);fill-opacity:1;" d="M 215.484375 219.960938 L 214.40625 220.085938 L 208.65625 211.304688 L 208.625 211.320312 L 205.078125 221.195312 L 204 221.320312 L 208.390625 209.164062 Z M 215.484375 219.960938 "/>
<path style=" stroke:none;fill-rule:nonzero;fill:rgb(0%,0%,100%);fill-opacity:1;" d="M 203.203125 193.058594 L 207.109375 205.371094 L 194.90625 201.121094 L 195.6875 200.371094 L 205.578125 203.839844 L 205.59375 203.808594 L 202.4375 193.808594 Z M 203.203125 193.058594 "/>
<path style="fill:none;stroke-width:1;stroke-linecap:round;stroke-linejoin:round;stroke:rgb(0%,0%,0%);stroke-opacity:1;stroke-miterlimit:10;" d="M 203.078125 201.226562 L 174.027344 171.324219 L 34.765625 186.703125 L 5.714844 291.792969 L 81.753906 324.257812 L 216.746094 279.832031 L 209.058594 214.898438 "/>
<path style="fill:none;stroke-width:1;stroke-linecap:round;stroke-linejoin:round;stroke:rgb(100%,0%,0%);stroke-opacity:1;stroke-miterlimit:10;" d="M 203.078125 201.226562 L 34.765625 186.703125 L 5.714844 291.792969 L 216.746094 279.832031 L 209.058594 214.898438 "/>
<path style="fill:none;stroke-width:1;stroke-linecap:round;stroke-linejoin:round;stroke:rgb(0%,100%,0%);stroke-opacity:1;stroke-miterlimit:10;" d="M 203.078125 201.226562 L 34.765625 186.703125 L 5.714844 291.792969 L 81.753906 324.257812 L 216.746094 279.832031 L 209.058594 214.898438 "/>
<path style="fill:none;stroke-width:1;stroke-linecap:round;stroke-linejoin:round;stroke:rgb(0%,0%,100%);stroke-opacity:1;stroke-miterlimit:10;" d="M 287.660156 226.003906 L 324.398438 246.507812 L 341.484375 268.722656 L 361.136719 290.9375 L 386.769531 296.0625 L 405.5625 312.296875 L 409.835938 315.714844 L 470.496094 327.675781 L 474.769531 296.917969 L 491.855469 271.285156 "/>
<path style=" stroke:none;fill-rule:nonzero;fill:rgb(0%,0%,0%);fill-opacity:1;" d="M 328.625 242.097656 L 320.65625 251.332031 L 320.171875 250.910156 L 328.140625 241.675781 Z M 328.625 242.097656 "/>
<path style=" stroke:none;fill-rule:nonzero;fill:rgb(0%,0%,0%);fill-opacity:1;" d="M 346.40625 265.09375 L 337 272.859375 L 336.578125 272.359375 L 345.984375 264.59375 Z M 346.40625 265.09375 "/>
<path style=" stroke:none;fill-rule:nonzero;fill:rgb(0%,0%,0%);fill-opacity:1;" d="M 364.457031 285.808594 L 358.378906 296.386719 L 357.816406 296.058594 L 363.894531 285.480469 Z M 364.457031 285.808594 "/>
<path style=" stroke:none;fill-rule:nonzero;fill:rgb(0%,0%,0%);fill-opacity:1;" d="M 389.734375 290.730469 L 384.375 301.683594 L 383.796875 301.402344 L 389.15625 290.449219 Z M 389.734375 290.730469 "/>
<path style=" stroke:none;fill-rule:nonzero;fill:rgb(0%,0%,0%);fill-opacity:1;" d="M 409.714844 307.800781 L 401.902344 317.191406 L 401.417969 316.785156 L 409.230469 307.394531 Z M 409.714844 307.800781 "/>
<path style=" stroke:none;fill-rule:nonzero;fill:rgb(0%,0%,0%);fill-opacity:1;" d="M 412.699219 310.300781 L 407.558594 321.378906 L 406.980469 321.113281 L 412.121094 310.035156 Z M 412.699219 310.300781 "/>
<path style=" stroke:none;fill-rule:nonzero;fill:rgb(0%,0%,0%);fill-opacity:1;" d="M 467.226562 322.527344 L 474.304688 332.464844 L 473.773438 332.824219 L 466.695312 322.886719 Z M 467.226562 322.527344 "/>
<path style=" stroke:none;fill-rule:nonzero;fill:rgb(0%,0%,0%);fill-opacity:1;" d="M 469.183594 294.449219 L 480.589844 298.792969 L 480.355469 299.386719 L 468.949219 295.042969 Z M 469.183594 294.449219 "/>
<path style=" stroke:none;fill-rule:nonzero;fill:rgb(0%,0%,100%);fill-opacity:1;" d="M 493.457031 279.296875 L 492.566406 278.703125 L 493.863281 268.28125 L 493.832031 268.265625 L 484.738281 273.484375 L 483.832031 272.890625 L 495.066406 266.484375 Z M 493.457031 279.296875 "/>
<path style=" stroke:none;fill-rule:nonzero;fill:rgb(0%,0%,100%);fill-opacity:1;" d="M 289.898438 233.863281 L 282.601562 223.191406 L 295.539062 223.769531 L 295.007812 224.707031 L 284.523438 224.222656 L 284.507812 224.253906 L 290.429688 232.925781 Z M 289.898438 233.863281 "/>
<path style="fill:none;stroke-width:1;stroke-linecap:round;stroke-linejoin:round;stroke:rgb(0%,0%,0%);stroke-opacity:1;stroke-miterlimit:10;" d="M 287.660156 226.003906 L 409.835938 315.714844 L 470.496094 327.675781 L 491.855469 271.285156 "/>
<path style="fill:none;stroke-width:1;stroke-linecap:round;stroke-linejoin:round;stroke:rgb(100%,0%,0%);stroke-opacity:1;stroke-miterlimit:10;" d="M 287.660156 226.003906 L 409.835938 315.714844 L 491.855469 271.285156 "/>
<path style="fill:none;stroke-width:1;stroke-linecap:round;stroke-linejoin:round;stroke:rgb(0%,100%,0%);stroke-opacity:1;stroke-miterlimit:10;" d="M 287.660156 226.003906 L 341.484375 268.722656 L 386.769531 296.0625 L 470.496094 327.675781 L 491.855469 271.285156 "/>
<path style="fill:none;stroke-width:1;stroke-linecap:round;stroke-linejoin:round;stroke:rgb(0%,0%,100%);stroke-opacity:1;stroke-miterlimit:10;" d="M 51.746094 285.4375 L 159.148438 207.910156 L 183.375 222.449219 "/>
<path style=" stroke:none;fill-rule:nonzero;fill:rgb(0%,0%,0%);fill-opacity:1;" d="M 159.210938 201.800781 L 159.726562 213.988281 L 159.085938 214.019531 L 158.570312 201.832031 Z M 159.210938 201.800781 "/>
<path style=" stroke:none;fill-rule:nonzero;fill:rgb(0%,0%,100%);fill-opacity:1;" d="M 175.441406 224.4375 L 175.988281 223.515625 L 186.472656 224.328125 L 186.488281 224.296875 L 180.832031 215.453125 L 181.394531 214.515625 L 188.332031 225.421875 Z M 175.441406 224.4375 "/>
<path style=" stroke:none;fill-rule:nonzero;fill:rgb(0%,0%,100%);fill-opacity:1;" d="M 59.820312 286.746094 L 47.054688 288.824219 L 53.054688 277.371094 L 53.679688 278.246094 L 48.804688 287.527344 L 48.820312 287.558594 L 59.195312 285.871094 Z M 59.820312 286.746094 "/>
<path style="fill:none;stroke-width:1;stroke-linecap:round;stroke-linejoin:round;stroke:rgb(0%,0%,0%);stroke-opacity:1;stroke-miterlimit:10;" d="M 51.746094 285.4375 L 159.148438 207.910156 L 183.375 222.449219 "/>
<path style="fill:none;stroke-width:1;stroke-linecap:round;stroke-linejoin:round;stroke:rgb(100%,0%,0%);stroke-opacity:1;stroke-miterlimit:10;" d="M 51.746094 285.4375 L 183.375 222.449219 "/>
<path style="fill:none;stroke-width:1;stroke-linecap:round;stroke-linejoin:round;stroke:rgb(0%,100%,0%);stroke-opacity:1;stroke-miterlimit:10;" d="M 51.746094 285.4375 L 159.148438 207.910156 L 183.375 222.449219 "/>
<path style="fill-rule:nonzero;fill:rgb(0%,0%,0%);fill-opacity:1;stroke-width:1;stroke-linecap:round;stroke-linejoin:round;stroke:rgb(100%,0%,0%);stroke-opacity:1;stroke-miterlimit:10;" d="M 251.285156 249.5 C 251.285156 252.832031 246.285156 252.832031 246.285156 249.5 C 246.285156 246.167969 251.285156 246.167969 251.285156 249.5 "/>
</g>
</svg>
