<?xml version="1.0" encoding="UTF-8"?>
<svg xmlns="http://www.w3.org/2000/svg" xmlns:xlink="http://www.w3.org/1999/xlink" width="200pt" height="100pt" viewBox="0 0 200 100" version="1.1">
<g id="surface2">
<rect x="0" y="0" width="200" height="100" style="fill:rgb(100%,100%,100%);fill-opacity:1;stroke:none;"/>
<path style="fill:none;stroke-width:1;stroke-linecap:round;stroke-linejoin:round;stroke:rgb(0%,0%,100%);stroke-opacity:1;stroke-miterlimit:10;" d="M 0.5 74.25 L 201 70.910156 "/>
<path style="fill:none;stroke-width:1;stroke-linecap:round;stroke-linejoin:round;stroke:rgb(0%,0%,100%);stroke-opacity:1;stroke-miterlimit:10;" d="M 0.5 59.398438 L 202 56.042969 "/>
<path style="fill:none;stroke-width:4;stroke-linecap:round;stroke-linejoin:round;stroke:rgb(100%,100%,100%);stroke-opacity:1;stroke-miterlimit:10;" d="M 4.563168 -0.00208304 L 4.565251 -1.064696 C 4.316653 -0.682067 4.010901 -0.38634 3.644025 -0.173674 C 3.285091 0.0313108 2.912356 0.126675 2.529597 0.120296 C 2.037347 0.119905 1.657062 -0.034891 1.381058 -0.352034 C 1.105055 -0.669178 0.963929 -1.109091 0.965491 -1.671643 L 0.962627 -4.312682 L 0.939713 -4.813134 C 0.919534 -5.00881 0.88256 -5.134443 0.82098 -5.190165 C 0.767341 -5.253567 0.642879 -5.286896 0.447594 -5.290151 L 0.0887898 -5.327385 L -0.00468685 -5.34457 L 0.000520761 -5.657027 L 1.985141 -5.655204 L 1.983839 -1.826569 C 1.983839 -1.357754 2.052449 -1.020626 2.185894 -0.823063 C 2.327281 -0.63318 2.571778 -0.535342 2.915481 -0.529614 C 3.153729 -0.525643 3.432401 -0.603041 3.747657 -0.765779 C 4.063042 -0.936328 4.336182 -1.150556 4.57098 -1.408398 L 4.556919 -4.315286 L 4.534006 -4.815737 C 4.525739 -5.022935 4.492735 -5.152409 4.431155 -5.208131 C 4.36951 -5.259947 4.237172 -5.2895 4.041887 -5.292755 L 3.683082 -5.329989 L 3.589606 -5.347174 L 3.594813 -5.659631 L 5.595056 -5.657548 L 5.601305 -1.344345 L 5.623959 -0.82827 C 5.62845 -0.628949 5.665424 -0.503316 5.727069 -0.4515 C 5.788649 -0.395778 5.917147 -0.370196 6.116338 -0.366876 L 6.475142 -0.329642 L 6.568879 -0.328079 L 6.563411 -0.000000000560526 Z M 8.933199 -4.590053 C 9.177827 -4.968841 9.479608 -5.260728 9.838542 -5.465712 C 10.205419 -5.678378 10.582189 -5.781489 10.968854 -5.775044 C 11.457198 -5.774719 11.841389 -5.619858 12.117393 -5.302714 C 12.393396 -4.985571 12.530617 -4.545723 12.53296 -3.983106 L 12.535824 -1.342066 L 12.5741 -0.825732 C 12.578592 -0.62641 12.607754 -0.500907 12.661588 -0.449221 C 12.723168 -0.3935 12.851666 -0.367918 13.050857 -0.364598 L 13.409661 -0.327363 L 13.503398 -0.325801 L 13.49793 0.00227833 L 10.544434 -0.000065096 L 10.549902 -0.328145 L 10.643639 -0.326582 L 10.988122 -0.367722 C 11.183538 -0.372279 11.309041 -0.401442 11.364633 -0.45521 C 11.416253 -0.505138 11.449582 -0.6296 11.464619 -0.828596 L 11.504457 -1.343629 L 11.498989 -3.82844 C 11.495213 -4.305131 11.434415 -4.642129 11.312557 -4.831686 C 11.190829 -5.029054 10.96586 -5.126567 10.645462 -5.124093 C 10.176581 -5.120187 9.601336 -4.828952 8.927471 -4.24635 L 8.941532 -1.339462 C 8.936845 -1.058251 8.952207 -0.807961 8.991525 -0.588525 C 9.021338 -0.502079 9.059484 -0.446748 9.113643 -0.414591 C 9.175744 -0.390115 9.288749 -0.372605 9.456564 -0.361994 L 9.799746 -0.32502 L 9.909106 -0.323197 L 9.903638 0.00488213 L 6.934519 0.00227833 L 6.939987 -0.325801 L 7.049347 -0.323978 L 7.39383 -0.365119 C 7.589245 -0.369675 7.714749 -0.398838 7.77034 -0.452606 C 7.821961 -0.502534 7.855289 -0.626996 7.870326 -0.825992 L 7.910164 -1.341025 L 7.897145 -4.310404 L 7.874232 -4.810855 C 7.86577 -5.006336 7.832701 -5.131904 7.771121 -5.187626 C 7.709671 -5.251159 7.577463 -5.288523 7.382373 -5.303495 L 7.038931 -5.324846 L 6.929832 -5.342292 L 6.935039 -5.654749 L 8.935283 -5.652665 Z M 18.392368 -0.185716 C 17.845829 0.023955 17.31283 0.124462 16.793371 0.115804 C 15.968941 0.121598 15.29755 -0.14744 14.775422 -0.699187 C 14.261236 -1.258614 14.007625 -1.981691 14.01459 -2.868417 C 14.017454 -3.743491 14.263579 -4.446518 14.753029 -4.981405 C 15.250226 -5.512255 15.907101 -5.77869 16.719683 -5.776867 C 17.145536 -5.777583 17.70288 -5.697972 18.387681 -5.530287 L 18.396273 -4.17058 L 17.755737 -4.181255 L 17.726054 -4.275513 C 17.732954 -4.689518 17.675084 -4.967865 17.55238 -5.106648 C 17.356834 -5.328687 17.077316 -5.434922 16.713955 -5.433165 C 16.214024 -5.441497 15.819613 -5.21757 15.530786 -4.765289 C 15.241894 -4.309102 15.094974 -3.698184 15.093867 -2.928565 C 15.08866 -2.147293 15.261878 -1.523226 15.609681 -1.060335 C 15.953709 -0.60532 16.430466 -0.378593 17.036046 -0.380221 C 17.543918 -0.37957 17.994636 -0.465821 18.384296 -0.639039 Z M 21.108852 -8.231409 L 21.119007 -1.339658 C 21.11432 -1.058447 21.129683 -0.808156 21.169 -0.58872 C 21.198814 -0.502274 21.236959 -0.446943 21.291119 -0.414786 C 21.353219 -0.39031 21.466225 -0.3728 21.63404 -0.362189 L 21.977221 -0.325215 L 22.086581 -0.323393 L 22.081113 0.00468685 L 19.111994 0.00208304 L 19.117462 -0.325996 L 19.226822 -0.324174 L 19.571305 -0.365314 C 19.766721 -0.369871 19.892224 -0.399033 19.947816 -0.452802 C 19.999436 -0.50273 20.032765 -0.627192 20.047802 -0.826187 L 20.08764 -1.34122 L 20.086078 -6.873264 L 20.047802 -7.389599 C 20.039339 -7.585079 20.006271 -7.710648 19.944691 -7.766369 C 19.891053 -7.829772 19.766656 -7.867006 19.571566 -7.881978 L 19.228124 -7.903329 L 19.118764 -7.905152 L 19.108609 -8.233492 Z M 24.460861 -5.651754 L 24.46711 -1.338551 C 24.462423 -1.05734 24.477785 -0.807049 24.517103 -0.587614 C 24.546916 -0.501167 24.585062 -0.445837 24.639221 -0.41368 C 24.701322 -0.389204 24.814327 -0.371693 24.982142 -0.361083 L 25.325324 -0.324109 L 25.434684 -0.322286 L 25.429216 0.00579346 L 22.460097 0.00318966 L 22.465565 -0.32489 L 22.574925 -0.323067 L 22.919408 -0.364207 C 23.114824 -0.368764 23.240327 -0.397927 23.295918 -0.451695 C 23.347539 -0.501623 23.380867 -0.626085 23.395904 -0.825081 L 23.435743 -1.340113 L 23.422724 -4.309493 L 23.39981 -4.809944 C 23.391348 -5.005425 23.358279 -5.130993 23.296699 -5.186715 C 23.23525 -5.250247 23.103041 -5.287612 22.907951 -5.302584 L 22.564509 -5.323935 L 22.45541 -5.341381 L 22.460618 -5.653837 Z M 23.431056 -6.684684 L 23.432618 -7.716051 L 24.463985 -7.714489 L 24.462423 -6.683121 Z M 27.733193 -0.635589 L 27.742046 0.708495 C 27.737229 0.997518 27.756497 1.247874 27.807662 1.459693 C 27.825628 1.553756 27.859868 1.609021 27.914157 1.633367 C 27.976128 1.665654 28.089068 1.68707 28.256818 1.701587 L 28.599999 1.738561 L 28.709359 1.740383 L 28.703891 2.068463 L 25.734772 2.065859 L 25.74024 1.737779 L 25.8496 1.739602 L 26.194084 1.698462 C 26.389564 1.69 26.515133 1.656931 26.570854 1.595351 C 26.634257 1.541713 26.667585 1.417251 26.67084 1.221966 L 26.710678 0.706933 L 26.700524 -4.309558 L 26.67761 -4.810009 C 26.669148 -5.00549 26.636079 -5.131058 26.574499 -5.18678 C 26.51305 -5.250313 26.380841 -5.287677 26.185751 -5.302649 L 25.842309 -5.324 L 25.73321 -5.341446 L 25.738418 -5.653902 L 27.738661 -5.651819 L 27.736578 -4.589206 C 28.249853 -5.381544 28.912781 -5.776802 29.725364 -5.774979 C 30.358219 -5.772245 30.865831 -5.521564 31.244163 -5.015189 C 31.618721 -4.51669 31.810751 -3.849335 31.820125 -3.005312 C 31.812118 -2.056095 31.592357 -1.294026 31.156936 -0.719171 C 30.729456 -0.151997 30.158312 0.127586 29.439466 0.127326 C 28.77146 0.124006 28.201357 -0.127717 27.733193 -0.635589 Z M 27.739963 -1.041782 C 28.284028 -0.634222 28.808109 -0.434054 29.308234 -0.437439 C 29.765332 -0.437635 30.11242 -0.635003 30.349496 -1.029545 C 30.594319 -1.42005 30.717023 -1.98449 30.72158 -2.726705 C 30.723207 -3.52757 30.608184 -4.127226 30.376576 -4.529579 C 30.152713 -4.927896 29.812201 -5.125004 29.355103 -5.124809 C 29.062175 -5.129691 28.767815 -5.048648 28.476058 -4.889425 C 28.192048 -4.726167 27.942278 -4.507642 27.730589 -4.229881 Z M 34.57788 -0.634808 L 34.586733 0.709276 C 34.581916 0.998299 34.601184 1.248655 34.652349 1.460474 C 34.670315 1.554537 34.704555 1.609802 34.758845 1.634148 C 34.820815 1.666435 34.933755 1.687852 35.101505 1.702368 L 35.444687 1.739342 L 35.554047 1.741164 L 35.548579 2.069244 L 32.57946 2.06664 L 32.584928 1.738561 L 32.694288 1.740383 L 33.038771 1.699243 C 33.234252 1.690781 33.35982 1.657712 33.415542 1.596132 C 33.478944 1.542494 33.512273 1.418032 33.515528 1.222747 L 33.555366 0.707714 L 33.545211 -4.308777 L 33.522298 -4.809228 C 33.513835 -5.004709 33.480767 -5.130277 33.419187 -5.185999 C 33.357737 -5.249531 33.225529 -5.286896 33.030439 -5.301868 L 32.686997 -5.323219 L 32.577897 -5.340665 L 32.583105 -5.653121 L 34.583348 -5.651038 L 34.581265 -4.588425 C 35.09454 -5.380763 35.757469 -5.776021 36.570051 -5.774198 C 37.202906 -5.771464 37.710518 -5.520783 38.088851 -5.014408 C 38.463408 -4.515909 38.655439 -3.848554 38.664813 -3.004531 C 38.656806 -2.055314 38.437045 -1.293245 38.001623 -0.71839 C 37.574144 -0.151216 37.002999 0.128368 36.284154 0.128107 C 35.616147 0.124787 35.046044 -0.126935 34.57788 -0.634808 Z M 34.58465 -1.041001 C 35.128715 -0.633441 35.652796 -0.433273 36.152922 -0.436658 C 36.61002 -0.436853 36.957107 -0.634222 37.194183 -1.028763 C 37.439006 -1.419269 37.561711 -1.983709 37.566267 -2.725924 C 37.567895 -3.526789 37.452871 -4.126445 37.221263 -4.528798 C 36.997401 -4.927115 36.656888 -5.124223 36.19979 -5.124028 C 35.906862 -5.12891 35.612502 -5.047867 35.320746 -4.888644 C 35.036736 -4.725385 34.786966 -4.506861 34.575276 -4.2291 Z M 44.357837 -0.241308 C 43.697317 0.00943879 43.09369 0.128302 42.554702 0.119319 C 41.730272 0.125113 41.058946 -0.147831 40.537013 -0.711294 C 40.015016 -1.270852 39.753659 -1.997965 39.760819 -2.896408 C 39.763163 -3.740236 39.993404 -4.427901 40.451609 -4.963308 C 40.917755 -5.506397 41.516109 -5.777713 42.246672 -5.777258 C 42.922489 -5.773808 43.438303 -5.54643 43.798019 -5.095061 C 44.165481 -4.639655 44.350026 -3.991959 44.359399 -3.147935 L 44.357577 -3.038575 L 40.90415 -3.049251 C 40.899073 -2.275791 41.006545 -1.691887 41.21869 -1.293766 C 41.552497 -0.69437 42.055357 -0.392979 42.735146 -0.39337 C 43.368001 -0.390636 43.909266 -0.518352 44.351067 -0.772744 Z M 40.909618 -3.37733 L 43.253563 -3.369519 L 43.257469 -3.603861 C 43.264239 -4.010055 43.245752 -4.307279 43.209819 -4.495404 C 43.170111 -4.691406 43.098897 -4.872305 42.999953 -5.030226 C 42.793862 -5.322763 42.522805 -5.467926 42.178973 -5.465842 C 41.792308 -5.472287 41.480502 -5.282144 41.247592 -4.90316 C 41.022428 -4.52014 40.908446 -4.01025 40.909618 -3.37733 Z M 49.553795 -0.00234343 L 49.555878 -1.064956 C 49.050349 -0.268582 48.387486 0.122769 47.567092 0.120817 C 46.930331 0.118017 46.42272 -0.132664 46.048292 -0.638974 C 45.669959 -1.145349 45.478059 -1.820515 45.472591 -2.664474 C 45.476627 -3.60985 45.692417 -4.368078 46.119897 -4.935252 C 46.555123 -5.49839 47.134144 -5.781749 47.85299 -5.781489 C 48.51709 -5.778234 49.087193 -5.526511 49.559263 -5.018574 L 49.559003 -6.878211 C 49.552103 -7.167429 49.529059 -7.425661 49.493647 -7.645032 C 49.47158 -7.727442 49.433499 -7.786679 49.371529 -7.818966 C 49.31737 -7.851123 49.20827 -7.868569 49.04423 -7.871303 L 48.701049 -7.908277 L 48.591689 -7.910099 L 48.581534 -8.238439 L 50.581777 -8.236356 L 50.591932 -1.344605 C 50.587245 -1.063394 50.606513 -0.813038 50.657548 -0.593407 C 50.687362 -0.506961 50.725507 -0.45163 50.779667 -0.419473 C 50.82992 -0.387381 50.939019 -0.369936 51.106965 -0.367137 L 51.465769 -0.329902 L 51.559506 -0.32834 L 51.554038 -0.000260385 Z M 49.552493 -4.61238 C 49.015979 -5.004188 48.491833 -5.20045 47.983961 -5.201101 C 47.523088 -5.208782 47.17216 -5.015384 46.927337 -4.624879 C 46.690456 -4.242054 46.571722 -3.681455 46.571136 -2.943081 C 46.565538 -2.138375 46.676656 -1.538784 46.900518 -1.140467 C 47.132126 -0.738114 47.476479 -0.537035 47.937353 -0.529354 C 48.226505 -0.532348 48.524902 -0.621138 48.832541 -0.795723 C 49.13621 -0.966467 49.374133 -1.177376 49.546244 -1.424542 Z M 57.176369 -8.23193 L 57.186524 -1.340178 C 57.181837 -1.058968 57.1972 -0.808677 57.236517 -0.589241 C 57.266331 -0.502795 57.304476 -0.447464 57.358636 -0.415307 C 57.420736 -0.390831 57.533742 -0.373321 57.701557 -0.36271 L 58.044738 -0.325736 L 58.154098 -0.323913 L 58.14863 0.00416608 L 55.179511 0.00156228 L 55.184979 -0.326517 L 55.294339 -0.324694 L 55.638822 -0.365835 C 55.834238 -0.370391 55.959741 -0.399554 56.015333 -0.453322 C 56.066953 -0.50325 56.100282 -0.627712 56.115319 -0.826708 L 56.155157 -1.341741 L 56.153595 -6.873785 L 56.115319 -7.39012 C 56.106856 -7.5856 56.073788 -7.711169 56.012208 -7.76689 C 55.95857 -7.830293 55.834173 -7.867527 55.639083 -7.882499 L 55.295641 -7.90385 L 55.186281 -7.905673 L 55.176126 -8.234013 Z M 60.524472 -5.65234 L 60.530721 -1.339137 C 60.526034 -1.057926 60.541397 -0.807635 60.580714 -0.5882 C 60.610528 -0.501753 60.648674 -0.446422 60.702833 -0.414265 C 60.764933 -0.38979 60.877939 -0.372279 61.045754 -0.361669 L 61.388935 -0.324694 L 61.498295 -0.322872 L 61.492827 0.0052076 L 58.523708 0.0026038 L 58.529176 -0.325476 L 58.638536 -0.323653 L 58.983019 -0.364793 C 59.178435 -0.36935 59.303938 -0.398512 59.35953 -0.452281 C 59.41115 -0.502209 59.444479 -0.626671 59.459516 -0.825667 L 59.499354 -1.340699 L 59.486335 -4.310079 L 59.463421 -4.81053 C 59.454959 -5.006011 59.421891 -5.131579 59.360311 -5.1873 C 59.298861 -5.250833 59.166653 -5.288198 58.971563 -5.30317 L 58.628121 -5.324521 L 58.519021 -5.341966 L 58.524229 -5.654423 Z M 59.494667 -6.685269 L 59.496229 -7.716637 L 60.527597 -7.715074 L 60.526034 -6.683707 Z M 63.800189 -4.589792 C 64.044816 -4.968581 64.346597 -5.260467 64.705532 -5.465452 C 65.072408 -5.678118 65.449179 -5.781228 65.835844 -5.774784 C 66.324187 -5.774458 66.708379 -5.619597 66.984382 -5.302454 C 67.260385 -4.98531 67.397606 -4.545462 67.399949 -3.982845 L 67.402814 -1.341806 L 67.44109 -0.825471 C 67.445581 -0.62615 67.474744 -0.500647 67.528577 -0.448961 C 67.590157 -0.39324 67.718655 -0.367657 67.917846 -0.364337 L 68.276651 -0.327103 L 68.370388 -0.325541 L 68.36492 0.0025387 L 65.411424 0.00019528 L 65.416892 -0.327884 L 65.510628 -0.326322 L 65.855112 -0.367462 C 66.050527 -0.372019 66.176031 -0.401181 66.231622 -0.45495 C 66.283243 -0.504878 66.316571 -0.62934 66.331608 -0.828335 L 66.371446 -1.343368 L 66.365978 -3.828179 C 66.362203 -4.304871 66.301404 -4.641868 66.179546 -4.831425 C 66.057818 -5.028794 65.832849 -5.126306 65.512451 -5.123833 C 65.043571 -5.119927 64.468325 -4.828691 63.794461 -4.24609 L 63.808521 -1.339202 C 63.803834 -1.057991 63.819197 -0.8077 63.858514 -0.588265 C 63.888328 -0.501818 63.926474 -0.446487 63.980633 -0.41433 C 64.042733 -0.389855 64.155739 -0.372344 64.323554 -0.361734 L 64.666735 -0.32476 L 64.776095 -0.322937 L 64.770627 0.00514251 L 61.801508 0.0025387 L 61.806976 -0.325541 L 61.916336 -0.323718 L 62.260819 -0.364858 C 62.456235 -0.369415 62.581738 -0.398577 62.63733 -0.452346 C 62.68895 -0.502274 62.722279 -0.626736 62.737316 -0.825732 L 62.777154 -1.340764 L 62.764135 -4.310144 L 62.741221 -4.810595 C 62.732759 -5.006076 62.699691 -5.131644 62.638111 -5.187366 C 62.576661 -5.250898 62.444453 -5.288263 62.249363 -5.303235 L 61.905921 -5.324586 L 61.796821 -5.342032 L 61.802029 -5.654488 L 63.802272 -5.652405 Z M 73.475212 -0.244367 C 72.814692 0.00637932 72.211065 0.125243 71.672077 0.11626 C 70.847648 0.122053 70.176322 -0.150891 69.654389 -0.714354 C 69.132391 -1.273912 68.871034 -2.001024 68.878195 -2.899467 C 68.880538 -3.743295 69.11078 -4.43096 69.568984 -4.966368 C 70.03513 -5.509456 70.633485 -5.780773 71.364047 -5.780317 C 72.039865 -5.776867 72.555679 -5.54949 72.915394 -5.09812 C 73.282856 -4.642715 73.467401 -3.995018 73.476775 -3.150995 L 73.474952 -3.041635 L 70.021525 -3.05231 C 70.016448 -2.27885 70.12392 -1.694947 70.336065 -1.296825 C 70.669873 -0.697429 71.172733 -0.396039 71.852521 -0.396429 C 72.485376 -0.393695 73.026642 -0.521412 73.468443 -0.775804 Z M 70.026993 -3.38039 L 72.370939 -3.372579 L 72.374844 -3.606921 C 72.381614 -4.013115 72.363127 -4.310339 72.327195 -4.498464 C 72.287487 -4.694465 72.216273 -4.875365 72.117328 -5.033285 C 71.911237 -5.325823 71.640181 -5.470985 71.296348 -5.468902 C 70.909683 -5.475346 70.597878 -5.285204 70.364967 -4.90622 C 70.139803 -4.5232 70.025822 -4.01331 70.026993 -3.38039 Z M 70.026993 -3.38039 " transform="matrix(0.999861,-0.0166644,0.0166644,0.999861,112,62)"/>
<path style=" stroke:none;fill-rule:nonzero;fill:rgb(0%,0%,0%);fill-opacity:1;" d="M 116.5625 61.921875 L 116.546875 60.859375 C 116.304688 61.246094 116.003906 61.546875 115.640625 61.765625 C 115.285156 61.976562 114.914062 62.078125 114.53125 62.078125 C 114.039062 62.085938 113.65625 61.9375 113.375 61.625 C 113.09375 61.3125 112.945312 60.875 112.9375 60.3125 L 112.890625 57.671875 L 112.859375 57.171875 C 112.835938 56.976562 112.796875 56.851562 112.734375 56.796875 C 112.679688 56.734375 112.554688 56.703125 112.359375 56.703125 L 112 56.671875 L 111.90625 56.65625 L 111.90625 56.34375 L 113.890625 56.3125 L 113.953125 60.140625 C 113.960938 60.609375 114.035156 60.945312 114.171875 61.140625 C 114.316406 61.328125 114.5625 61.421875 114.90625 61.421875 C 115.144531 61.421875 115.421875 61.339844 115.734375 61.171875 C 116.046875 60.996094 116.316406 60.777344 116.546875 60.515625 L 116.484375 57.609375 L 116.453125 57.109375 C 116.441406 56.902344 116.40625 56.773438 116.34375 56.71875 C 116.28125 56.667969 116.148438 56.640625 115.953125 56.640625 L 115.59375 56.609375 L 115.5 56.59375 L 115.5 56.28125 L 117.5 56.25 L 117.578125 60.5625 L 117.609375 61.078125 C 117.617188 61.277344 117.65625 61.402344 117.71875 61.453125 C 117.78125 61.507812 117.910156 61.53125 118.109375 61.53125 L 118.46875 61.5625 L 118.5625 61.5625 L 118.5625 61.890625 Z M 120.855469 57.261719 C 121.09375 56.878906 121.390625 56.582031 121.746094 56.371094 C 122.109375 56.152344 122.484375 56.042969 122.871094 56.042969 C 123.359375 56.035156 123.746094 56.183594 124.027344 56.496094 C 124.308594 56.808594 124.453125 57.246094 124.464844 57.808594 L 124.511719 60.449219 L 124.558594 60.964844 C 124.566406 61.164062 124.597656 61.289062 124.652344 61.339844 C 124.714844 61.394531 124.84375 61.417969 125.042969 61.417969 L 125.402344 61.449219 L 125.496094 61.449219 L 125.496094 61.777344 L 122.542969 61.824219 L 122.542969 61.496094 L 122.636719 61.496094 L 122.980469 61.449219 C 123.175781 61.441406 123.300781 61.410156 123.355469 61.355469 C 123.40625 61.304688 123.4375 61.179688 123.449219 60.980469 L 123.480469 60.464844 L 123.433594 57.980469 C 123.421875 57.503906 123.355469 57.167969 123.230469 56.980469 C 123.105469 56.785156 122.878906 56.691406 122.558594 56.699219 C 122.089844 56.710938 121.519531 57.011719 120.855469 57.605469 L 120.917969 60.511719 C 120.917969 60.792969 120.9375 61.042969 120.980469 61.261719 C 121.011719 61.347656 121.050781 61.402344 121.105469 61.433594 C 121.167969 61.457031 121.28125 61.472656 121.449219 61.480469 L 121.792969 61.511719 L 121.902344 61.511719 L 121.902344 61.839844 L 118.933594 61.886719 L 118.933594 61.558594 L 119.042969 61.558594 L 119.386719 61.511719 C 119.582031 61.503906 119.707031 61.472656 119.761719 61.417969 C 119.8125 61.367188 119.84375 61.242188 119.855469 61.042969 L 119.886719 60.527344 L 119.824219 57.558594 L 119.792969 57.058594 C 119.78125 56.863281 119.746094 56.738281 119.683594 56.683594 C 119.621094 56.621094 119.488281 56.585938 119.292969 56.574219 L 118.949219 56.558594 L 118.839844 56.542969 L 118.839844 56.230469 L 120.839844 56.199219 Z M 130.386719 61.507812 C 129.84375 61.726562 129.3125 61.835938 128.792969 61.835938 C 127.96875 61.855469 127.292969 61.597656 126.761719 61.054688 C 126.238281 60.503906 125.972656 59.785156 125.964844 58.898438 C 125.953125 58.023438 126.1875 57.316406 126.667969 56.773438 C 127.15625 56.234375 127.808594 55.957031 128.621094 55.945312 C 129.046875 55.9375 129.605469 56.007812 130.292969 56.164062 L 130.324219 57.523438 L 129.683594 57.523438 L 129.652344 57.429688 C 129.652344 57.015625 129.589844 56.738281 129.464844 56.601562 C 129.265625 56.382812 128.984375 56.28125 128.621094 56.289062 C 128.121094 56.289062 127.730469 56.519531 127.449219 56.976562 C 127.167969 57.4375 127.03125 58.050781 127.042969 58.820312 C 127.050781 59.601562 127.234375 60.222656 127.589844 60.679688 C 127.941406 61.128906 128.421875 61.347656 129.027344 61.335938 C 129.535156 61.328125 129.984375 61.234375 130.371094 61.054688 Z M 132.96875 53.417969 L 133.09375 60.308594 C 133.09375 60.589844 133.113281 60.839844 133.15625 61.058594 C 133.1875 61.144531 133.226562 61.199219 133.28125 61.230469 C 133.34375 61.253906 133.457031 61.269531 133.625 61.277344 L 133.96875 61.308594 L 134.078125 61.308594 L 134.078125 61.636719 L 131.109375 61.683594 L 131.109375 61.355469 L 131.21875 61.355469 L 131.5625 61.308594 C 131.757812 61.300781 131.882812 61.269531 131.9375 61.214844 C 131.988281 61.164062 132.019531 61.039062 132.03125 60.839844 L 132.0625 60.324219 L 131.96875 54.792969 L 131.921875 54.277344 C 131.910156 54.082031 131.875 53.957031 131.8125 53.902344 C 131.757812 53.839844 131.632812 53.804688 131.4375 53.792969 L 131.09375 53.777344 L 130.984375 53.777344 L 130.96875 53.449219 Z M 136.363281 55.941406 L 136.441406 60.253906 C 136.441406 60.535156 136.460938 60.785156 136.503906 61.003906 C 136.535156 61.089844 136.574219 61.144531 136.628906 61.175781 C 136.691406 61.199219 136.804688 61.214844 136.972656 61.222656 L 137.316406 61.253906 L 137.425781 61.253906 L 137.425781 61.582031 L 134.457031 61.628906 L 134.457031 61.300781 L 134.566406 61.300781 L 134.910156 61.253906 C 135.105469 61.246094 135.230469 61.214844 135.285156 61.160156 C 135.335938 61.109375 135.367188 60.984375 135.378906 60.785156 L 135.410156 60.269531 L 135.347656 57.300781 L 135.316406 56.800781 C 135.304688 56.605469 135.269531 56.480469 135.207031 56.425781 C 135.144531 56.363281 135.011719 56.328125 134.816406 56.316406 L 134.472656 56.300781 L 134.363281 56.285156 L 134.363281 55.972656 Z M 135.316406 54.925781 L 135.300781 53.894531 L 136.332031 53.878906 L 136.347656 54.910156 Z M 139.71875 60.902344 L 139.75 62.246094 C 139.75 62.535156 139.773438 62.785156 139.828125 62.996094 C 139.847656 63.089844 139.882812 63.144531 139.9375 63.167969 C 140 63.199219 140.113281 63.21875 140.28125 63.230469 L 140.625 63.261719 L 140.734375 63.261719 L 140.734375 63.589844 L 137.765625 63.636719 L 137.765625 63.308594 L 137.875 63.308594 L 138.21875 63.261719 C 138.414062 63.25 138.539062 63.214844 138.59375 63.152344 C 138.65625 63.097656 138.6875 62.972656 138.6875 62.777344 L 138.71875 62.261719 L 138.625 57.246094 L 138.59375 56.746094 C 138.582031 56.550781 138.546875 56.425781 138.484375 56.371094 C 138.421875 56.308594 138.289062 56.273438 138.09375 56.261719 L 137.75 56.246094 L 137.640625 56.230469 L 137.640625 55.917969 L 139.640625 55.886719 L 139.65625 56.949219 C 140.15625 56.148438 140.8125 55.742188 141.625 55.730469 C 142.257812 55.722656 142.769531 55.964844 143.15625 56.464844 C 143.539062 56.957031 143.742188 57.621094 143.765625 58.464844 C 143.773438 59.414062 143.566406 60.179688 143.140625 60.761719 C 142.722656 61.335938 142.15625 61.625 141.4375 61.636719 C 140.769531 61.644531 140.195312 61.402344 139.71875 60.902344 Z M 139.71875 60.496094 C 140.269531 60.894531 140.796875 61.085938 141.296875 61.074219 C 141.753906 61.066406 142.097656 60.863281 142.328125 60.464844 C 142.566406 60.070312 142.679688 59.503906 142.671875 58.761719 C 142.660156 57.960938 142.535156 57.363281 142.296875 56.964844 C 142.066406 56.570312 141.722656 56.378906 141.265625 56.386719 C 140.972656 56.386719 140.679688 56.472656 140.390625 56.636719 C 140.109375 56.804688 139.863281 57.027344 139.65625 57.308594 Z M 146.5625 60.789062 L 146.59375 62.132812 C 146.59375 62.421875 146.617188 62.671875 146.671875 62.882812 C 146.691406 62.976562 146.726562 63.03125 146.78125 63.054688 C 146.84375 63.085938 146.957031 63.105469 147.125 63.117188 L 147.46875 63.148438 L 147.578125 63.148438 L 147.578125 63.476562 L 144.609375 63.523438 L 144.609375 63.195312 L 144.71875 63.195312 L 145.0625 63.148438 C 145.257812 63.136719 145.382812 63.101562 145.4375 63.039062 C 145.5 62.984375 145.53125 62.859375 145.53125 62.664062 L 145.5625 62.148438 L 145.46875 57.132812 L 145.4375 56.632812 C 145.425781 56.4375 145.390625 56.3125 145.328125 56.257812 C 145.265625 56.195312 145.132812 56.160156 144.9375 56.148438 L 144.59375 56.132812 L 144.484375 56.117188 L 144.484375 55.804688 L 146.484375 55.773438 L 146.5 56.835938 C 147 56.035156 147.65625 55.628906 148.46875 55.617188 C 149.101562 55.609375 149.613281 55.851562 150 56.351562 C 150.382812 56.84375 150.585938 57.507812 150.609375 58.351562 C 150.617188 59.300781 150.410156 60.066406 149.984375 60.648438 C 149.566406 61.222656 149 61.511719 148.28125 61.523438 C 147.613281 61.53125 147.039062 61.289062 146.5625 60.789062 Z M 146.5625 60.382812 C 147.113281 60.78125 147.640625 60.972656 148.140625 60.960938 C 148.597656 60.953125 148.941406 60.75 149.171875 60.351562 C 149.410156 59.957031 149.523438 59.390625 149.515625 58.648438 C 149.503906 57.847656 149.378906 57.25 149.140625 56.851562 C 148.910156 56.457031 148.566406 56.265625 148.109375 56.273438 C 147.816406 56.273438 147.523438 56.359375 147.234375 56.523438 C 146.953125 56.691406 146.707031 56.914062 146.5 57.195312 Z M 156.347656 61.019531 C 155.691406 61.28125 155.089844 61.410156 154.550781 61.410156 C 153.726562 61.429688 153.050781 61.167969 152.519531 60.613281 C 151.988281 60.0625 151.714844 59.339844 151.707031 58.441406 C 151.695312 57.597656 151.914062 56.90625 152.363281 56.363281 C 152.820312 55.8125 153.414062 55.53125 154.144531 55.519531 C 154.820312 55.511719 155.339844 55.730469 155.707031 56.175781 C 156.082031 56.625 156.277344 57.269531 156.300781 58.113281 L 156.300781 58.222656 L 152.847656 58.269531 C 152.855469 59.042969 152.972656 59.625 153.191406 60.019531 C 153.535156 60.613281 154.042969 60.90625 154.722656 60.894531 C 155.355469 60.886719 155.894531 60.75 156.332031 60.488281 Z M 152.847656 57.941406 L 155.191406 57.910156 L 155.191406 57.675781 C 155.191406 57.269531 155.167969 56.972656 155.128906 56.785156 C 155.085938 56.589844 155.011719 56.410156 154.910156 56.253906 C 154.699219 55.964844 154.425781 55.824219 154.082031 55.832031 C 153.695312 55.832031 153.386719 56.027344 153.160156 56.410156 C 152.941406 56.796875 152.835938 57.308594 152.847656 57.941406 Z M 161.546875 61.171875 L 161.53125 60.109375 C 161.039062 60.914062 160.382812 61.316406 159.5625 61.328125 C 158.925781 61.335938 158.414062 61.09375 158.03125 60.59375 C 157.644531 60.09375 157.441406 59.421875 157.421875 58.578125 C 157.410156 57.632812 157.613281 56.871094 158.03125 56.296875 C 158.457031 55.726562 159.03125 55.433594 159.75 55.421875 C 160.414062 55.414062 160.988281 55.65625 161.46875 56.15625 L 161.4375 54.296875 C 161.425781 54.007812 161.398438 53.75 161.359375 53.53125 C 161.335938 53.449219 161.296875 53.390625 161.234375 53.359375 C 161.179688 53.328125 161.070312 53.3125 160.90625 53.3125 L 160.5625 53.28125 L 160.453125 53.28125 L 160.4375 52.953125 L 162.4375 52.921875 L 162.5625 59.8125 C 162.5625 60.09375 162.585938 60.34375 162.640625 60.5625 C 162.671875 60.648438 162.710938 60.703125 162.765625 60.734375 C 162.816406 60.765625 162.925781 60.78125 163.09375 60.78125 L 163.453125 60.8125 L 163.546875 60.8125 L 163.546875 61.140625 Z M 161.46875 56.5625 C 160.925781 56.179688 160.398438 55.992188 159.890625 56 C 159.429688 56 159.082031 56.199219 158.84375 56.59375 C 158.613281 56.980469 158.503906 57.542969 158.515625 58.28125 C 158.523438 59.085938 158.644531 59.683594 158.875 60.078125 C 159.113281 60.476562 159.460938 60.671875 159.921875 60.671875 C 160.210938 60.664062 160.507812 60.570312 160.8125 60.390625 C 161.113281 60.214844 161.347656 60 161.515625 59.75 Z M 169.03125 52.816406 L 169.15625 59.707031 C 169.15625 59.988281 169.175781 60.238281 169.21875 60.457031 C 169.25 60.542969 169.289062 60.597656 169.34375 60.628906 C 169.40625 60.652344 169.519531 60.667969 169.6875 60.675781 L 170.03125 60.707031 L 170.140625 60.707031 L 170.140625 61.035156 L 167.171875 61.082031 L 167.171875 60.753906 L 167.28125 60.753906 L 167.625 60.707031 C 167.820312 60.699219 167.945312 60.667969 168 60.613281 C 168.050781 60.5625 168.082031 60.4375 168.09375 60.238281 L 168.125 59.722656 L 168.03125 54.191406 L 167.984375 53.675781 C 167.972656 53.480469 167.9375 53.355469 167.875 53.300781 C 167.820312 53.238281 167.695312 53.203125 167.5 53.191406 L 167.15625 53.175781 L 167.046875 53.175781 L 167.03125 52.847656 Z M 172.421875 55.339844 L 172.5 59.652344 C 172.5 59.933594 172.519531 60.183594 172.5625 60.402344 C 172.59375 60.488281 172.632812 60.542969 172.6875 60.574219 C 172.75 60.597656 172.863281 60.613281 173.03125 60.621094 L 173.375 60.652344 L 173.484375 60.652344 L 173.484375 60.980469 L 170.515625 61.027344 L 170.515625 60.699219 L 170.625 60.699219 L 170.96875 60.652344 C 171.164062 60.644531 171.289062 60.613281 171.34375 60.558594 C 171.394531 60.507812 171.425781 60.382812 171.4375 60.183594 L 171.46875 59.667969 L 171.40625 56.699219 L 171.375 56.199219 C 171.363281 56.003906 171.328125 55.878906 171.265625 55.824219 C 171.203125 55.761719 171.070312 55.726562 170.875 55.714844 L 170.53125 55.699219 L 170.421875 55.683594 L 170.421875 55.371094 Z M 171.375 54.324219 L 171.359375 53.292969 L 172.390625 53.277344 L 172.40625 54.308594 Z M 175.714844 56.347656 C 175.953125 55.964844 176.25 55.667969 176.605469 55.457031 C 176.96875 55.238281 177.34375 55.128906 177.730469 55.128906 C 178.21875 55.121094 178.605469 55.269531 178.886719 55.582031 C 179.167969 55.894531 179.3125 56.332031 179.324219 56.894531 L 179.371094 59.535156 L 179.417969 60.050781 C 179.425781 60.25 179.457031 60.375 179.511719 60.425781 C 179.574219 60.480469 179.703125 60.503906 179.902344 60.503906 L 180.261719 60.535156 L 180.355469 60.535156 L 180.355469 60.863281 L 177.402344 60.910156 L 177.402344 60.582031 L 177.496094 60.582031 L 177.839844 60.535156 C 178.035156 60.527344 178.160156 60.496094 178.214844 60.441406 C 178.265625 60.390625 178.296875 60.265625 178.308594 60.066406 L 178.339844 59.550781 L 178.292969 57.066406 C 178.28125 56.589844 178.214844 56.253906 178.089844 56.066406 C 177.964844 55.871094 177.738281 55.777344 177.417969 55.785156 C 176.949219 55.796875 176.378906 56.097656 175.714844 56.691406 L 175.777344 59.597656 C 175.777344 59.878906 175.796875 60.128906 175.839844 60.347656 C 175.871094 60.433594 175.910156 60.488281 175.964844 60.519531 C 176.027344 60.542969 176.140625 60.558594 176.308594 60.566406 L 176.652344 60.597656 L 176.761719 60.597656 L 176.761719 60.925781 L 173.792969 60.972656 L 173.792969 60.644531 L 173.902344 60.644531 L 174.246094 60.597656 C 174.441406 60.589844 174.566406 60.558594 174.621094 60.503906 C 174.671875 60.453125 174.703125 60.328125 174.714844 60.128906 L 174.746094 59.613281 L 174.683594 56.644531 L 174.652344 56.144531 C 174.640625 55.949219 174.605469 55.824219 174.542969 55.769531 C 174.480469 55.707031 174.347656 55.671875 174.152344 55.660156 L 173.808594 55.644531 L 173.699219 55.628906 L 173.699219 55.316406 L 175.699219 55.285156 Z M 185.460938 60.53125 C 184.804688 60.792969 184.203125 60.921875 183.664062 60.921875 C 182.839844 60.941406 182.164062 60.679688 181.632812 60.125 C 181.101562 59.574219 180.828125 58.851562 180.820312 57.953125 C 180.808594 57.109375 181.027344 56.417969 181.476562 55.875 C 181.933594 55.324219 182.527344 55.042969 183.257812 55.03125 C 183.933594 55.023438 184.453125 55.242188 184.820312 55.6875 C 185.195312 56.136719 185.390625 56.78125 185.414062 57.625 L 185.414062 57.734375 L 181.960938 57.78125 C 181.96875 58.554688 182.085938 59.136719 182.304688 59.53125 C 182.648438 60.125 183.15625 60.417969 183.835938 60.40625 C 184.46875 60.398438 185.007812 60.261719 185.445312 60 Z M 181.960938 57.453125 L 184.304688 57.421875 L 184.304688 57.1875 C 184.304688 56.78125 184.28125 56.484375 184.242188 56.296875 C 184.199219 56.101562 184.125 55.921875 184.023438 55.765625 C 183.8125 55.476562 183.539062 55.335938 183.195312 55.34375 C 182.808594 55.34375 182.5 55.539062 182.273438 55.921875 C 182.054688 56.308594 181.949219 56.820312 181.960938 57.453125 Z M 181.960938 57.453125 "/>
<path style="fill:none;stroke-width:4;stroke-linecap:round;stroke-linejoin:round;stroke:rgb(100%,100%,100%);stroke-opacity:1;stroke-miterlimit:10;" d="M 4.894372 -0.184089 C 4.347834 0.0255824 3.814835 0.126089 3.295376 0.117432 C 2.470946 0.123225 1.799555 -0.145813 1.277427 -0.697559 C 0.76324 -1.256987 0.50963 -1.980064 0.516595 -2.866789 C 0.519459 -3.741863 0.765584 -4.444891 1.255034 -4.979777 C 1.752231 -5.510628 2.409106 -5.777062 3.221688 -5.77524 C 3.64754 -5.775956 4.204885 -5.696344 4.889686 -5.528659 L 4.898278 -4.168952 L 4.257742 -4.179628 L 4.228059 -4.273886 C 4.234959 -4.687891 4.177089 -4.966237 4.054385 -5.10502 C 3.858839 -5.32706 3.579321 -5.433295 3.21596 -5.431537 C 2.716029 -5.43987 2.321618 -5.215942 2.032791 -4.763661 C 1.743898 -4.307475 1.596979 -3.696557 1.595872 -2.926937 C 1.590665 -2.145666 1.763883 -1.521599 2.111686 -1.058707 C 2.455714 -0.603692 2.93247 -0.376966 3.53805 -0.378593 C 4.045922 -0.377942 4.496641 -0.464193 4.886301 -0.637411 Z M 7.614763 -8.229716 L 7.624918 -1.337965 C 7.620231 -1.056754 7.635593 -0.806464 7.674911 -0.587028 C 7.704724 -0.500582 7.74287 -0.445251 7.797029 -0.413094 C 7.85913 -0.388618 7.972135 -0.371107 8.13995 -0.360497 L 8.483132 -0.323523 L 8.592492 -0.3217 L 8.587024 0.00637932 L 5.617905 0.00377552 L 5.623373 -0.324304 L 5.732732 -0.322481 L 6.077216 -0.363621 C 6.272631 -0.368178 6.398135 -0.397341 6.453726 -0.451109 C 6.505347 -0.501037 6.538675 -0.625499 6.553712 -0.824495 L 6.59355 -1.339528 L 6.591988 -6.871572 L 6.553712 -7.387906 C 6.54525 -7.583387 6.512182 -7.708955 6.450602 -7.764677 C 6.396963 -7.82808 6.272566 -7.865314 6.077476 -7.880286 L 5.734034 -7.901637 L 5.624675 -7.90346 L 5.61452 -8.231799 Z M 10.962866 -5.650127 L 10.969115 -1.336924 C 10.964428 -1.055713 10.97979 -0.805422 11.019108 -0.585986 C 11.048921 -0.49954 11.087067 -0.444209 11.141226 -0.412052 C 11.203327 -0.387576 11.316332 -0.370066 11.484147 -0.359455 L 11.827329 -0.322481 L 11.936689 -0.320659 L 11.931221 0.00742084 L 8.962102 0.00481704 L 8.96757 -0.323262 L 9.07693 -0.32144 L 9.421413 -0.36258 C 9.616828 -0.367137 9.742332 -0.396299 9.797923 -0.450068 C 9.849544 -0.499996 9.882872 -0.624458 9.897909 -0.823453 L 9.937747 -1.338486 L 9.924728 -4.307865 L 9.901815 -4.808317 C 9.893353 -5.003797 9.860284 -5.129366 9.798704 -5.185087 C 9.737254 -5.24862 9.605046 -5.285985 9.409956 -5.300957 L 9.066514 -5.322308 L 8.957415 -5.339753 L 8.962622 -5.65221 Z M 9.933061 -6.683056 L 9.934623 -7.714423 L 10.96599 -7.712861 L 10.964428 -6.681494 Z M 14.235198 -0.633961 L 14.24405 0.710123 C 14.239233 0.999145 14.258502 1.249501 14.309666 1.46132 C 14.327633 1.555383 14.361873 1.610649 14.416162 1.634994 C 14.478133 1.667281 14.591073 1.688698 14.758823 1.703214 L 15.102004 1.740188 L 15.211364 1.742011 L 15.205896 2.07009 L 12.236777 2.067486 L 12.242245 1.739407 L 12.351605 1.74123 L 12.696088 1.700089 C 12.891569 1.691627 13.017138 1.658559 13.072859 1.596979 C 13.136262 1.54334 13.16959 1.418878 13.172845 1.223593 L 13.212683 0.70856 L 13.202528 -4.30793 L 13.179615 -4.808382 C 13.171153 -5.003862 13.138084 -5.129431 13.076504 -5.185152 C 13.015054 -5.248685 12.882846 -5.28605 12.687756 -5.301022 L 12.344314 -5.322373 L 12.235215 -5.339818 L 12.240422 -5.652275 L 14.240665 -5.650192 L 14.238582 -4.587579 C 14.751858 -5.379917 15.414786 -5.775175 16.227369 -5.773352 C 16.860224 -5.770618 17.367835 -5.519937 17.746168 -5.013562 C 18.120726 -4.515063 18.312756 -3.847708 18.32213 -3.003684 C 18.314123 -2.054467 18.094362 -1.292399 17.658941 -0.717544 C 17.231461 -0.15037 16.660316 0.129214 15.941471 0.128953 C 15.273465 0.125634 14.703362 -0.126089 14.235198 -0.633961 Z M 14.241967 -1.040155 C 14.786032 -0.632594 15.310113 -0.432427 15.810239 -0.435812 C 16.267337 -0.436007 16.614424 -0.633376 16.851501 -1.027917 C 17.096324 -1.418423 17.219028 -1.982863 17.223585 -2.725077 C 17.225212 -3.525943 17.110189 -4.125599 16.87858 -4.527952 C 16.654718 -4.926269 16.314206 -5.123377 15.857108 -5.123182 C 15.56418 -5.128064 15.269819 -5.04702 14.978063 -4.887798 C 14.694053 -4.724539 14.444283 -4.506015 14.232594 -4.228254 Z M 21.083856 -0.637021 L 21.092709 0.707063 C 21.087892 0.996086 21.10716 1.246441 21.158325 1.458261 C 21.176291 1.552323 21.210531 1.607589 21.26482 1.631935 C 21.326791 1.664222 21.439731 1.685638 21.607481 1.700155 L 21.950662 1.737129 L 22.060022 1.738951 L 22.054554 2.067031 L 19.085435 2.064427 L 19.090903 1.736347 L 19.200263 1.73817 L 19.544747 1.69703 C 19.740227 1.688568 19.865796 1.655499 19.921517 1.593919 C 19.98492 1.540281 20.018249 1.415819 20.021503 1.220534 L 20.061342 0.705501 L 20.051187 -4.31099 L 20.028273 -4.811441 C 20.019811 -5.006922 19.986742 -5.13249 19.925162 -5.188212 C 19.863713 -5.251745 19.731504 -5.289109 19.536414 -5.304081 L 19.192973 -5.325432 L 19.083873 -5.342878 L 19.089081 -5.655334 L 21.089324 -5.653251 L 21.087241 -4.590638 C 21.600516 -5.382976 22.263445 -5.778234 23.076027 -5.776411 C 23.708882 -5.773677 24.216494 -5.522996 24.594826 -5.016621 C 24.969384 -4.518123 25.161414 -3.850767 25.170788 -3.006744 C 25.162781 -2.057527 24.94302 -1.295458 24.507599 -0.720603 C 24.080119 -0.153429 23.508975 0.126154 22.790129 0.125894 C 22.122123 0.122574 21.55202 -0.129149 21.083856 -0.637021 Z M 21.090626 -1.043214 C 21.634691 -0.635654 22.158772 -0.435486 22.658897 -0.438871 C 23.115995 -0.439067 23.463083 -0.636435 23.700159 -1.030977 C 23.944982 -1.421482 24.067686 -1.985922 24.072243 -2.728137 C 24.07387 -3.529002 23.958847 -4.128658 23.727239 -4.531011 C 23.503376 -4.929328 23.162864 -5.126436 22.705766 -5.126241 C 22.412838 -5.131123 22.118478 -5.05008 21.826721 -4.890857 C 21.542711 -4.727599 21.292941 -4.509074 21.081252 -4.231313 Z M 30.859907 -0.243586 C 30.199387 0.00716046 29.59576 0.126024 29.056772 0.117041 C 28.232342 0.122835 27.561016 -0.150109 27.039083 -0.713573 C 26.517086 -1.27313 26.255729 -2.000243 26.262889 -2.898686 C 26.265233 -3.742514 26.495474 -4.430179 26.953679 -4.965586 C 27.419825 -5.508675 28.018179 -5.779992 28.748742 -5.779536 C 29.424559 -5.776086 29.940373 -5.548709 30.300089 -5.097339 C 30.667551 -4.641933 30.852095 -3.994237 30.861469 -3.150214 L 30.859647 -3.040854 L 27.40622 -3.051529 C 27.401142 -2.278069 27.508615 -1.694166 27.72076 -1.296044 C 28.054567 -0.696648 28.557427 -0.395258 29.237216 -0.395648 C 29.87007 -0.392914 30.411336 -0.520631 30.853137 -0.775023 Z M 27.411688 -3.379609 L 29.755633 -3.371797 L 29.759539 -3.60614 C 29.766309 -4.012333 29.747822 -4.309558 29.711889 -4.497683 C 29.672181 -4.693684 29.600967 -4.874583 29.502023 -5.032504 C 29.295931 -5.325042 29.024875 -5.470204 28.681043 -5.468121 C 28.294378 -5.474565 27.982572 -5.284422 27.749662 -4.905439 C 27.524498 -4.522419 27.410516 -4.012529 27.411688 -3.379609 Z M 36.0558 -0.000716049 L 36.057883 -1.063329 C 35.552354 -0.266955 34.889491 0.124397 34.069097 0.122444 C 33.432336 0.119645 32.924724 -0.131036 32.550297 -0.637346 C 32.171964 -1.143721 31.980064 -1.818888 31.974596 -2.662846 C 31.978632 -3.608223 32.194422 -4.366451 32.621902 -4.933625 C 33.057128 -5.496763 33.636149 -5.780122 34.354994 -5.779861 C 35.019095 -5.776607 35.589198 -5.524884 36.061268 -5.016946 L 36.061007 -6.876584 C 36.054107 -7.165802 36.031064 -7.424034 35.995652 -7.643405 C 35.973585 -7.725815 35.935504 -7.785052 35.873534 -7.817339 C 35.819374 -7.849496 35.710275 -7.866941 35.546235 -7.869675 L 35.203054 -7.906649 L 35.093694 -7.908472 L 35.083539 -8.236812 L 37.083782 -8.234729 L 37.093937 -1.342978 C 37.08925 -1.061767 37.108518 -0.811411 37.159553 -0.59178 C 37.189366 -0.505333 37.227512 -0.450003 37.281671 -0.417846 C 37.331925 -0.385754 37.441024 -0.368308 37.60897 -0.365509 L 37.967774 -0.328275 L 38.061511 -0.326712 L 38.056043 0.00136699 Z M 36.054498 -4.610753 C 35.517984 -5.00256 34.993838 -5.198822 34.485966 -5.199473 C 34.025092 -5.207154 33.674165 -5.013757 33.429342 -4.623251 C 33.192461 -4.240427 33.073727 -3.679827 33.073141 -2.941453 C 33.067543 -2.136748 33.17866 -1.537156 33.402523 -1.138839 C 33.634131 -0.736486 33.978484 -0.535407 34.439358 -0.527726 C 34.72851 -0.530721 35.026906 -0.61951 35.334546 -0.794095 C 35.638215 -0.96484 35.876137 -1.175748 36.048249 -1.422914 Z M 43.678374 -8.230302 L 43.688529 -1.338551 C 43.683842 -1.05734 43.699205 -0.807049 43.738522 -0.587614 C 43.768336 -0.501167 43.806481 -0.445837 43.86064 -0.41368 C 43.922741 -0.389204 44.035746 -0.371693 44.203562 -0.361083 L 44.546743 -0.324109 L 44.656103 -0.322286 L 44.650635 0.00579346 L 41.681516 0.00318966 L 41.686984 -0.32489 L 41.796344 -0.323067 L 42.140827 -0.364207 C 42.336243 -0.368764 42.461746 -0.397927 42.517337 -0.451695 C 42.568958 -0.501623 42.602287 -0.626085 42.617324 -0.825081 L 42.657162 -1.340113 L 42.655599 -6.872158 L 42.617324 -7.388492 C 42.608861 -7.583973 42.575793 -7.709541 42.514213 -7.765263 C 42.460574 -7.828665 42.336178 -7.8659 42.141088 -7.880872 L 41.797646 -7.902223 L 41.688286 -7.904046 L 41.678131 -8.232385 Z M 47.026477 -5.650713 L 47.032726 -1.33751 C 47.028039 -1.056299 47.043402 -0.806008 47.082719 -0.586572 C 47.112533 -0.500126 47.150678 -0.444795 47.204837 -0.412638 C 47.266938 -0.388162 47.379943 -0.370652 47.547759 -0.360041 L 47.89094 -0.323067 L 48.0003 -0.321244 L 47.994832 0.00683498 L 45.025713 0.00423118 L 45.031181 -0.323848 L 45.140541 -0.322026 L 45.485024 -0.363166 C 45.68044 -0.367722 45.805943 -0.396885 45.861534 -0.450654 C 45.913155 -0.500582 45.946484 -0.625043 45.961521 -0.824039 L 46.001359 -1.339072 L 45.98834 -4.308451 L 45.965426 -4.808902 C 45.956964 -5.004383 45.923896 -5.129952 45.862316 -5.185673 C 45.800866 -5.249206 45.668658 -5.28657 45.473567 -5.301542 L 45.130126 -5.322894 L 45.021026 -5.340339 L 45.026234 -5.652796 Z M 45.996672 -6.683642 L 45.998234 -7.715009 L 47.029601 -7.713447 L 47.028039 -6.68208 Z M 50.302194 -4.588165 C 50.546821 -4.966953 50.848602 -5.25884 51.207537 -5.463825 C 51.574413 -5.67649 51.951183 -5.779601 52.337849 -5.773157 C 52.826192 -5.772831 53.210384 -5.61797 53.486387 -5.300826 C 53.76239 -4.983683 53.899611 -4.543835 53.901954 -3.981218 L 53.904818 -1.340178 L 53.943094 -0.823844 C 53.947586 -0.624523 53.976749 -0.499019 54.030582 -0.447334 C 54.092162 -0.391612 54.22066 -0.36603 54.419851 -0.36271 L 54.778655 -0.325476 L 54.872392 -0.323913 L 54.866924 0.00416608 L 51.913428 0.00182266 L 51.918896 -0.326257 L 52.012633 -0.324694 L 52.357117 -0.365835 C 52.552532 -0.370391 52.678036 -0.399554 52.733627 -0.453322 C 52.785247 -0.50325 52.818576 -0.627712 52.833613 -0.826708 L 52.873451 -1.341741 L 52.867983 -3.826552 C 52.864208 -4.303244 52.803409 -4.640241 52.681551 -4.829798 C 52.559823 -5.027166 52.334854 -5.124679 52.014456 -5.122205 C 51.545576 -5.1183 50.97033 -4.827064 50.296465 -4.244463 L 50.310526 -1.337575 C 50.305839 -1.056364 50.321202 -0.806073 50.360519 -0.586637 C 50.390333 -0.500191 50.428478 -0.44486 50.482637 -0.412703 C 50.544738 -0.388227 50.657743 -0.370717 50.825559 -0.360106 L 51.16874 -0.323132 L 51.2781 -0.32131 L 51.272632 0.00676989 L 48.303513 0.00416608 L 48.308981 -0.323913 L 48.418341 -0.322091 L 48.762824 -0.363231 C 48.95824 -0.367787 49.083743 -0.39695 49.139334 -0.450719 C 49.190955 -0.500647 49.224284 -0.625109 49.239321 -0.824104 L 49.279159 -1.339137 L 49.26614 -4.308516 L 49.243226 -4.808968 C 49.234764 -5.004448 49.201696 -5.130017 49.140116 -5.185738 C 49.078666 -5.249271 48.946458 -5.286636 48.751367 -5.301607 L 48.407926 -5.322959 L 48.298826 -5.340404 L 48.304034 -5.652861 L 50.304277 -5.650778 Z M 59.981123 -0.242675 C 59.320603 0.00807179 58.716976 0.126935 58.177988 0.117952 C 57.353558 0.123746 56.682232 -0.149198 56.160299 -0.712661 C 55.638302 -1.272219 55.376945 -1.999332 55.384105 -2.897775 C 55.386449 -3.741603 55.61669 -4.429268 56.074895 -4.964675 C 56.541041 -5.507764 57.139395 -5.77908 57.869958 -5.778625 C 58.545775 -5.775175 59.061589 -5.547797 59.421305 -5.096428 C 59.788767 -4.641022 59.973312 -3.993326 59.982685 -3.149302 L 59.980863 -3.039942 L 56.527436 -3.050618 C 56.522359 -2.277158 56.629831 -1.693254 56.841976 -1.295133 C 57.175783 -0.695737 57.678643 -0.394346 58.358432 -0.394737 C 58.991287 -0.392003 59.532552 -0.519719 59.974353 -0.774111 Z M 56.532904 -3.378697 L 58.876849 -3.370886 L 58.880755 -3.605228 C 58.887525 -4.011422 58.869038 -4.308646 58.833105 -4.496771 C 58.793397 -4.692773 58.722183 -4.873672 58.623239 -5.031593 C 58.417147 -5.32413 58.146091 -5.469293 57.802259 -5.467209 C 57.415594 -5.473654 57.103788 -5.283511 56.870878 -4.904527 C 56.645714 -4.521507 56.531732 -4.011617 56.532904 -3.378697 Z M 56.532904 -3.378697 " transform="matrix(0.999861,-0.0166644,0.0166644,0.999861,70,77)"/>
<path style=" stroke:none;fill-rule:nonzero;fill:rgb(0%,0%,0%);fill-opacity:1;" d="M 74.890625 76.734375 C 74.347656 76.953125 73.816406 77.0625 73.296875 77.0625 C 72.472656 77.082031 71.796875 76.824219 71.265625 76.28125 C 70.742188 75.730469 70.476562 75.011719 70.46875 74.125 C 70.457031 73.25 70.691406 72.542969 71.171875 72 C 71.660156 71.460938 72.3125 71.183594 73.125 71.171875 C 73.550781 71.164062 74.109375 71.234375 74.796875 71.390625 L 74.828125 72.75 L 74.1875 72.75 L 74.15625 72.65625 C 74.15625 72.242188 74.09375 71.964844 73.96875 71.828125 C 73.769531 71.609375 73.488281 71.507812 73.125 71.515625 C 72.625 71.515625 72.234375 71.746094 71.953125 72.203125 C 71.671875 72.664062 71.535156 73.277344 71.546875 74.046875 C 71.554688 74.828125 71.738281 75.449219 72.09375 75.90625 C 72.445312 76.355469 72.925781 76.574219 73.53125 76.5625 C 74.039062 76.554688 74.488281 76.460938 74.875 76.28125 Z M 77.476562 68.644531 L 77.601562 75.535156 C 77.601562 75.816406 77.621094 76.066406 77.664062 76.285156 C 77.695312 76.371094 77.734375 76.425781 77.789062 76.457031 C 77.851562 76.480469 77.964844 76.496094 78.132812 76.503906 L 78.476562 76.535156 L 78.585938 76.535156 L 78.585938 76.863281 L 75.617188 76.910156 L 75.617188 76.582031 L 75.726562 76.582031 L 76.070312 76.535156 C 76.265625 76.527344 76.390625 76.496094 76.445312 76.441406 C 76.496094 76.390625 76.527344 76.265625 76.539062 76.066406 L 76.570312 75.550781 L 76.476562 70.019531 L 76.429688 69.503906 C 76.417969 69.308594 76.382812 69.183594 76.320312 69.128906 C 76.265625 69.066406 76.140625 69.03125 75.945312 69.019531 L 75.601562 69.003906 L 75.492188 69.003906 L 75.476562 68.675781 Z M 80.867188 71.167969 L 80.945312 75.480469 C 80.945312 75.761719 80.964844 76.011719 81.007812 76.230469 C 81.039062 76.316406 81.078125 76.371094 81.132812 76.402344 C 81.195312 76.425781 81.308594 76.441406 81.476562 76.449219 L 81.820312 76.480469 L 81.929688 76.480469 L 81.929688 76.808594 L 78.960938 76.855469 L 78.960938 76.527344 L 79.070312 76.527344 L 79.414062 76.480469 C 79.609375 76.472656 79.734375 76.441406 79.789062 76.386719 C 79.839844 76.335938 79.871094 76.210938 79.882812 76.011719 L 79.914062 75.496094 L 79.851562 72.527344 L 79.820312 72.027344 C 79.808594 71.832031 79.773438 71.707031 79.710938 71.652344 C 79.648438 71.589844 79.515625 71.554688 79.320312 71.542969 L 78.976562 71.527344 L 78.867188 71.511719 L 78.867188 71.199219 Z M 79.820312 70.152344 L 79.804688 69.121094 L 80.835938 69.105469 L 80.851562 70.136719 Z M 84.222656 76.128906 L 84.253906 77.472656 C 84.253906 77.761719 84.277344 78.011719 84.332031 78.222656 C 84.351562 78.316406 84.386719 78.371094 84.441406 78.394531 C 84.503906 78.425781 84.617188 78.445312 84.785156 78.457031 L 85.128906 78.488281 L 85.238281 78.488281 L 85.238281 78.816406 L 82.269531 78.863281 L 82.269531 78.535156 L 82.378906 78.535156 L 82.722656 78.488281 C 82.917969 78.476562 83.042969 78.441406 83.097656 78.378906 C 83.160156 78.324219 83.191406 78.199219 83.191406 78.003906 L 83.222656 77.488281 L 83.128906 72.472656 L 83.097656 71.972656 C 83.085938 71.777344 83.050781 71.652344 82.988281 71.597656 C 82.925781 71.535156 82.792969 71.5 82.597656 71.488281 L 82.253906 71.472656 L 82.144531 71.457031 L 82.144531 71.144531 L 84.144531 71.113281 L 84.160156 72.175781 C 84.660156 71.375 85.316406 70.96875 86.128906 70.957031 C 86.761719 70.949219 87.273438 71.191406 87.660156 71.691406 C 88.042969 72.183594 88.246094 72.847656 88.269531 73.691406 C 88.277344 74.640625 88.070312 75.40625 87.644531 75.988281 C 87.226562 76.5625 86.660156 76.851562 85.941406 76.863281 C 85.273438 76.871094 84.699219 76.628906 84.222656 76.128906 Z M 84.222656 75.722656 C 84.773438 76.121094 85.300781 76.3125 85.800781 76.300781 C 86.257812 76.292969 86.601562 76.089844 86.832031 75.691406 C 87.070312 75.296875 87.183594 74.730469 87.175781 73.988281 C 87.164062 73.1875 87.039062 72.589844 86.800781 72.191406 C 86.570312 71.796875 86.226562 71.605469 85.769531 71.613281 C 85.476562 71.613281 85.183594 71.699219 84.894531 71.863281 C 84.613281 72.03125 84.367188 72.253906 84.160156 72.535156 Z M 91.070312 76.011719 L 91.101562 77.355469 C 91.101562 77.644531 91.125 77.894531 91.179688 78.105469 C 91.199219 78.199219 91.234375 78.253906 91.289062 78.277344 C 91.351562 78.308594 91.464844 78.328125 91.632812 78.339844 L 91.976562 78.371094 L 92.085938 78.371094 L 92.085938 78.699219 L 89.117188 78.746094 L 89.117188 78.417969 L 89.226562 78.417969 L 89.570312 78.371094 C 89.765625 78.359375 89.890625 78.324219 89.945312 78.261719 C 90.007812 78.207031 90.039062 78.082031 90.039062 77.886719 L 90.070312 77.371094 L 89.976562 72.355469 L 89.945312 71.855469 C 89.933594 71.660156 89.898438 71.535156 89.835938 71.480469 C 89.773438 71.417969 89.640625 71.382812 89.445312 71.371094 L 89.101562 71.355469 L 88.992188 71.339844 L 88.992188 71.027344 L 90.992188 70.996094 L 91.007812 72.058594 C 91.507812 71.257812 92.164062 70.851562 92.976562 70.839844 C 93.609375 70.832031 94.121094 71.074219 94.507812 71.574219 C 94.890625 72.066406 95.09375 72.730469 95.117188 73.574219 C 95.125 74.523438 94.917969 75.289062 94.492188 75.871094 C 94.074219 76.445312 93.507812 76.734375 92.789062 76.746094 C 92.121094 76.753906 91.546875 76.511719 91.070312 76.011719 Z M 91.070312 75.605469 C 91.621094 76.003906 92.148438 76.195312 92.648438 76.183594 C 93.105469 76.175781 93.449219 75.972656 93.679688 75.574219 C 93.917969 75.179688 94.03125 74.613281 94.023438 73.871094 C 94.011719 73.070312 93.886719 72.472656 93.648438 72.074219 C 93.417969 71.679688 93.074219 71.488281 92.617188 71.496094 C 92.324219 71.496094 92.03125 71.582031 91.742188 71.746094 C 91.460938 71.914062 91.214844 72.136719 91.007812 72.417969 Z M 100.851562 76.242188 C 100.195312 76.503906 99.59375 76.632812 99.054688 76.632812 C 98.230469 76.652344 97.554688 76.390625 97.023438 75.835938 C 96.492188 75.285156 96.21875 74.5625 96.210938 73.664062 C 96.199219 72.820312 96.417969 72.128906 96.867188 71.585938 C 97.324219 71.035156 97.917969 70.753906 98.648438 70.742188 C 99.324219 70.734375 99.84375 70.953125 100.210938 71.398438 C 100.585938 71.847656 100.78125 72.492188 100.804688 73.335938 L 100.804688 73.445312 L 97.351562 73.492188 C 97.359375 74.265625 97.476562 74.847656 97.695312 75.242188 C 98.039062 75.835938 98.546875 76.128906 99.226562 76.117188 C 99.859375 76.109375 100.398438 75.972656 100.835938 75.710938 Z M 97.351562 73.164062 L 99.695312 73.132812 L 99.695312 72.898438 C 99.695312 72.492188 99.671875 72.195312 99.632812 72.007812 C 99.589844 71.8125 99.515625 71.632812 99.414062 71.476562 C 99.203125 71.1875 98.929688 71.046875 98.585938 71.054688 C 98.199219 71.054688 97.890625 71.25 97.664062 71.632812 C 97.445312 72.019531 97.339844 72.53125 97.351562 73.164062 Z M 106.050781 76.398438 L 106.035156 75.335938 C 105.542969 76.140625 104.886719 76.542969 104.066406 76.554688 C 103.429688 76.5625 102.917969 76.320312 102.535156 75.820312 C 102.148438 75.320312 101.945312 74.648438 101.925781 73.804688 C 101.914062 72.859375 102.117188 72.097656 102.535156 71.523438 C 102.960938 70.953125 103.535156 70.660156 104.253906 70.648438 C 104.917969 70.640625 105.492188 70.882812 105.972656 71.382812 L 105.941406 69.523438 C 105.929688 69.234375 105.902344 68.976562 105.863281 68.757812 C 105.839844 68.675781 105.800781 68.617188 105.738281 68.585938 C 105.683594 68.554688 105.574219 68.539062 105.410156 68.539062 L 105.066406 68.507812 L 104.957031 68.507812 L 104.941406 68.179688 L 106.941406 68.148438 L 107.066406 75.039062 C 107.066406 75.320312 107.089844 75.570312 107.144531 75.789062 C 107.175781 75.875 107.214844 75.929688 107.269531 75.960938 C 107.320312 75.992188 107.429688 76.007812 107.597656 76.007812 L 107.957031 76.039062 L 108.050781 76.039062 L 108.050781 76.367188 Z M 105.972656 71.789062 C 105.429688 71.40625 104.902344 71.21875 104.394531 71.226562 C 103.933594 71.226562 103.585938 71.425781 103.347656 71.820312 C 103.117188 72.207031 103.007812 72.769531 103.019531 73.507812 C 103.027344 74.3125 103.148438 74.910156 103.378906 75.304688 C 103.617188 75.703125 103.964844 75.898438 104.425781 75.898438 C 104.714844 75.890625 105.011719 75.796875 105.316406 75.617188 C 105.617188 75.441406 105.851562 75.226562 106.019531 74.976562 Z M 113.535156 68.042969 L 113.660156 74.933594 C 113.660156 75.214844 113.679688 75.464844 113.722656 75.683594 C 113.753906 75.769531 113.792969 75.824219 113.847656 75.855469 C 113.910156 75.878906 114.023438 75.894531 114.191406 75.902344 L 114.535156 75.933594 L 114.644531 75.933594 L 114.644531 76.261719 L 111.675781 76.308594 L 111.675781 75.980469 L 111.785156 75.980469 L 112.128906 75.933594 C 112.324219 75.925781 112.449219 75.894531 112.503906 75.839844 C 112.554688 75.789062 112.585938 75.664062 112.597656 75.464844 L 112.628906 74.949219 L 112.535156 69.417969 L 112.488281 68.902344 C 112.476562 68.707031 112.441406 68.582031 112.378906 68.527344 C 112.324219 68.464844 112.199219 68.429688 112.003906 68.417969 L 111.660156 68.402344 L 111.550781 68.402344 L 111.535156 68.074219 Z M 116.925781 70.566406 L 117.003906 74.878906 C 117.003906 75.160156 117.023438 75.410156 117.066406 75.628906 C 117.097656 75.714844 117.136719 75.769531 117.191406 75.800781 C 117.253906 75.824219 117.367188 75.839844 117.535156 75.847656 L 117.878906 75.878906 L 117.988281 75.878906 L 117.988281 76.207031 L 115.019531 76.253906 L 115.019531 75.925781 L 115.128906 75.925781 L 115.472656 75.878906 C 115.667969 75.871094 115.792969 75.839844 115.847656 75.785156 C 115.898438 75.734375 115.929688 75.609375 115.941406 75.410156 L 115.972656 74.894531 L 115.910156 71.925781 L 115.878906 71.425781 C 115.867188 71.230469 115.832031 71.105469 115.769531 71.050781 C 115.707031 70.988281 115.574219 70.953125 115.378906 70.941406 L 115.035156 70.925781 L 114.925781 70.910156 L 114.925781 70.597656 Z M 115.878906 69.550781 L 115.863281 68.519531 L 116.894531 68.503906 L 116.910156 69.535156 Z M 120.21875 71.574219 C 120.457031 71.191406 120.753906 70.894531 121.109375 70.683594 C 121.472656 70.464844 121.847656 70.355469 122.234375 70.355469 C 122.722656 70.347656 123.109375 70.496094 123.390625 70.808594 C 123.671875 71.121094 123.816406 71.558594 123.828125 72.121094 L 123.875 74.761719 L 123.921875 75.277344 C 123.929688 75.476562 123.960938 75.601562 124.015625 75.652344 C 124.078125 75.707031 124.207031 75.730469 124.40625 75.730469 L 124.765625 75.761719 L 124.859375 75.761719 L 124.859375 76.089844 L 121.90625 76.136719 L 121.90625 75.808594 L 122 75.808594 L 122.34375 75.761719 C 122.539062 75.753906 122.664062 75.722656 122.71875 75.667969 C 122.769531 75.617188 122.800781 75.492188 122.8125 75.292969 L 122.84375 74.777344 L 122.796875 72.292969 C 122.785156 71.816406 122.71875 71.480469 122.59375 71.292969 C 122.46875 71.097656 122.242188 71.003906 121.921875 71.011719 C 121.453125 71.023438 120.882812 71.324219 120.21875 71.917969 L 120.28125 74.824219 C 120.28125 75.105469 120.300781 75.355469 120.34375 75.574219 C 120.375 75.660156 120.414062 75.714844 120.46875 75.746094 C 120.53125 75.769531 120.644531 75.785156 120.8125 75.792969 L 121.15625 75.824219 L 121.265625 75.824219 L 121.265625 76.152344 L 118.296875 76.199219 L 118.296875 75.871094 L 118.40625 75.871094 L 118.75 75.824219 C 118.945312 75.816406 119.070312 75.785156 119.125 75.730469 C 119.175781 75.679688 119.207031 75.554688 119.21875 75.355469 L 119.25 74.839844 L 119.1875 71.871094 L 119.15625 71.371094 C 119.144531 71.175781 119.109375 71.050781 119.046875 70.996094 C 118.984375 70.933594 118.851562 70.898438 118.65625 70.886719 L 118.3125 70.871094 L 118.203125 70.855469 L 118.203125 70.542969 L 120.203125 70.511719 Z M 129.96875 75.757812 C 129.3125 76.019531 128.710938 76.148438 128.171875 76.148438 C 127.347656 76.167969 126.671875 75.90625 126.140625 75.351562 C 125.609375 74.800781 125.335938 74.078125 125.328125 73.179688 C 125.316406 72.335938 125.535156 71.644531 125.984375 71.101562 C 126.441406 70.550781 127.035156 70.269531 127.765625 70.257812 C 128.441406 70.25 128.960938 70.46875 129.328125 70.914062 C 129.703125 71.363281 129.898438 72.007812 129.921875 72.851562 L 129.921875 72.960938 L 126.46875 73.007812 C 126.476562 73.78125 126.59375 74.363281 126.8125 74.757812 C 127.15625 75.351562 127.664062 75.644531 128.34375 75.632812 C 128.976562 75.625 129.515625 75.488281 129.953125 75.226562 Z M 126.46875 72.679688 L 128.8125 72.648438 L 128.8125 72.414062 C 128.8125 72.007812 128.789062 71.710938 128.75 71.523438 C 128.707031 71.328125 128.632812 71.148438 128.53125 70.992188 C 128.320312 70.703125 128.046875 70.5625 127.703125 70.570312 C 127.316406 70.570312 127.007812 70.765625 126.78125 71.148438 C 126.5625 71.535156 126.457031 72.046875 126.46875 72.679688 Z M 126.46875 72.679688 "/>
</g>
</svg>
