<?xml version="1.0" encoding="UTF-8"?>
<svg xmlns="http://www.w3.org/2000/svg" xmlns:xlink="http://www.w3.org/1999/xlink" width="400pt" height="300pt" viewBox="0 0 400 300" version="1.1">
<g id="surface2">
<rect x="0" y="0" width="400" height="300" style="fill:rgb(100%,100%,100%);fill-opacity:1;stroke:none;"/>
<path style=" stroke:none;fill-rule:evenodd;fill:rgb(0%,100%,0%);fill-opacity:1;" d="M 267.402344 304 L 283.714844 304 L 379.304688 138.4375 L 132.597656 -4 L 116.285156 -4 L 20.695312 161.5625 Z M 267.402344 304 "/>
<path style=" stroke:none;fill-rule:evenodd;fill:rgb(0%,0%,0%);fill-opacity:1;" d="M 250.769531 63.6875 L 250.769531 62.125 L 252.332031 62.125 L 252.332031 63.6875 Z M 269.066406 63.8125 L 263.238281 55.9375 L 263.238281 62.046875 C 263.238281 62.390625 263.269531 62.695312 263.332031 62.953125 C 263.351562 63.070312 263.394531 63.148438 263.457031 63.1875 C 263.527344 63.21875 263.664062 63.242188 263.863281 63.25 L 264.300781 63.28125 L 264.410156 63.296875 L 264.410156 63.6875 L 261.472656 63.6875 L 261.472656 63.296875 L 261.582031 63.28125 L 262.019531 63.25 C 262.214844 63.242188 262.347656 63.21875 262.410156 63.1875 C 262.480469 63.148438 262.527344 63.070312 262.550781 62.953125 C 262.613281 62.695312 262.644531 62.390625 262.644531 62.046875 L 262.644531 55.9375 C 262.644531 55.59375 262.613281 55.289062 262.550781 55.015625 C 262.527344 54.902344 262.480469 54.828125 262.410156 54.796875 C 262.347656 54.765625 262.214844 54.742188 262.019531 54.71875 L 261.582031 54.6875 L 261.457031 54.6875 L 261.457031 54.296875 L 263.582031 54.296875 L 268.941406 61.59375 L 268.941406 55.9375 L 268.894531 55.3125 C 268.882812 55.074219 268.839844 54.921875 268.769531 54.859375 C 268.707031 54.789062 268.550781 54.742188 268.300781 54.71875 L 267.878906 54.6875 L 267.753906 54.6875 L 267.753906 54.296875 L 270.691406 54.296875 L 270.691406 54.6875 L 270.566406 54.6875 L 270.128906 54.71875 C 269.886719 54.742188 269.730469 54.789062 269.660156 54.859375 C 269.597656 54.921875 269.558594 55.074219 269.550781 55.3125 L 269.519531 55.9375 L 269.519531 63.8125 Z M 274.832031 63.84375 C 273.832031 63.84375 273.039062 63.523438 272.457031 62.875 C 271.871094 62.21875 271.582031 61.339844 271.582031 60.234375 C 271.582031 59.132812 271.871094 58.257812 272.457031 57.609375 C 273.050781 56.964844 273.855469 56.640625 274.878906 56.640625 C 275.886719 56.640625 276.683594 56.964844 277.269531 57.609375 C 277.863281 58.257812 278.160156 59.132812 278.160156 60.234375 C 278.160156 61.359375 277.863281 62.246094 277.269531 62.890625 C 276.683594 63.527344 275.871094 63.84375 274.832031 63.84375 Z M 274.847656 63.453125 C 275.429688 63.453125 275.902344 63.152344 276.269531 62.546875 C 276.644531 61.945312 276.832031 61.171875 276.832031 60.234375 C 276.832031 59.320312 276.644531 58.558594 276.269531 57.953125 C 275.894531 57.339844 275.429688 57.03125 274.878906 57.03125 C 274.316406 57.03125 273.847656 57.339844 273.472656 57.953125 C 273.105469 58.558594 272.925781 59.320312 272.925781 60.234375 C 272.925781 61.152344 273.105469 61.917969 273.472656 62.53125 C 273.835938 63.148438 274.292969 63.453125 274.847656 63.453125 Z M 283.363281 63.65625 C 283.039062 63.78125 282.738281 63.84375 282.457031 63.84375 C 281.808594 63.84375 281.300781 63.679688 280.925781 63.34375 C 280.695312 63.148438 280.539062 62.921875 280.457031 62.671875 C 280.382812 62.414062 280.347656 62.03125 280.347656 61.53125 L 280.347656 57.3125 L 279.332031 57.3125 L 279.332031 56.796875 L 280.347656 56.796875 L 280.347656 55.546875 L 281.597656 55.234375 L 281.597656 56.796875 L 283.519531 56.796875 L 283.519531 57.3125 L 281.597656 57.3125 L 281.597656 61.703125 C 281.597656 62.308594 281.652344 62.703125 281.769531 62.890625 C 281.945312 63.195312 282.238281 63.34375 282.644531 63.34375 C 282.839844 63.34375 283.082031 63.277344 283.363281 63.140625 Z M 290.597656 59.5625 L 290.597656 62.046875 L 290.644531 62.671875 C 290.644531 62.933594 290.683594 63.09375 290.769531 63.15625 C 290.851562 63.21875 291.097656 63.261719 291.503906 63.28125 L 291.628906 63.296875 L 291.628906 63.6875 L 288.097656 63.6875 L 288.097656 63.296875 L 288.222656 63.28125 L 288.644531 63.25 C 288.894531 63.242188 289.050781 63.203125 289.113281 63.140625 C 289.183594 63.070312 289.226562 62.914062 289.238281 62.671875 L 289.285156 62.046875 L 289.285156 55.9375 L 289.238281 55.3125 C 289.226562 55.074219 289.183594 54.921875 289.113281 54.859375 C 289.050781 54.789062 288.894531 54.742188 288.644531 54.71875 L 288.222656 54.6875 L 288.097656 54.6875 L 288.097656 54.296875 L 290.363281 54.296875 L 290.988281 54.28125 L 292.019531 54.25 C 292.964844 54.25 293.683594 54.453125 294.175781 54.859375 C 294.675781 55.257812 294.925781 55.84375 294.925781 56.625 C 294.925781 57.261719 294.757812 57.808594 294.425781 58.265625 C 294.089844 58.714844 293.613281 59.046875 292.988281 59.265625 L 294.832031 62.03125 L 295.410156 62.84375 C 295.542969 63.023438 295.652344 63.136719 295.738281 63.1875 C 295.820312 63.242188 295.941406 63.265625 296.097656 63.265625 C 296.160156 63.265625 296.304688 63.273438 296.535156 63.28125 L 296.660156 63.296875 L 296.660156 63.6875 L 294.269531 63.6875 L 291.691406 59.5625 Z M 290.613281 59.125 L 291.082031 59.125 C 291.632812 59.125 292.070312 59.0625 292.394531 58.9375 C 292.714844 58.804688 292.976562 58.578125 293.175781 58.265625 C 293.433594 57.882812 293.566406 57.382812 293.566406 56.765625 C 293.566406 56.140625 293.445312 55.65625 293.207031 55.3125 C 293.050781 55.09375 292.847656 54.945312 292.597656 54.859375 C 292.347656 54.765625 291.988281 54.71875 291.519531 54.71875 L 290.613281 54.71875 Z M 300.535156 63.84375 C 299.535156 63.84375 298.742188 63.523438 298.160156 62.875 C 297.574219 62.21875 297.285156 61.339844 297.285156 60.234375 C 297.285156 59.132812 297.574219 58.257812 298.160156 57.609375 C 298.753906 56.964844 299.558594 56.640625 300.582031 56.640625 C 301.589844 56.640625 302.386719 56.964844 302.972656 57.609375 C 303.566406 58.257812 303.863281 59.132812 303.863281 60.234375 C 303.863281 61.359375 303.566406 62.246094 302.972656 62.890625 C 302.386719 63.527344 301.574219 63.84375 300.535156 63.84375 Z M 300.550781 63.453125 C 301.132812 63.453125 301.605469 63.152344 301.972656 62.546875 C 302.347656 61.945312 302.535156 61.171875 302.535156 60.234375 C 302.535156 59.320312 302.347656 58.558594 301.972656 57.953125 C 301.597656 57.339844 301.132812 57.03125 300.582031 57.03125 C 300.019531 57.03125 299.550781 57.339844 299.175781 57.953125 C 298.808594 58.558594 298.628906 59.320312 298.628906 60.234375 C 298.628906 61.152344 298.808594 61.917969 299.175781 62.53125 C 299.539062 63.148438 299.996094 63.453125 300.550781 63.453125 Z M 309.066406 63.65625 C 308.742188 63.78125 308.441406 63.84375 308.160156 63.84375 C 307.511719 63.84375 307.003906 63.679688 306.628906 63.34375 C 306.398438 63.148438 306.242188 62.921875 306.160156 62.671875 C 306.085938 62.414062 306.050781 62.03125 306.050781 61.53125 L 306.050781 57.3125 L 305.035156 57.3125 L 305.035156 56.796875 L 306.050781 56.796875 L 306.050781 55.546875 L 307.300781 55.234375 L 307.300781 56.796875 L 309.222656 56.796875 L 309.222656 57.3125 L 307.300781 57.3125 L 307.300781 61.703125 C 307.300781 62.308594 307.355469 62.703125 307.472656 62.890625 C 307.648438 63.195312 307.941406 63.34375 308.347656 63.34375 C 308.542969 63.34375 308.785156 63.277344 309.066406 63.140625 Z M 314.472656 62.734375 C 314.054688 63.152344 313.679688 63.445312 313.347656 63.609375 C 313.023438 63.765625 312.660156 63.84375 312.253906 63.84375 C 311.667969 63.84375 311.183594 63.664062 310.800781 63.296875 C 310.414062 62.921875 310.222656 62.453125 310.222656 61.890625 C 310.222656 61.246094 310.472656 60.71875 310.972656 60.3125 C 311.292969 60.054688 311.675781 59.871094 312.113281 59.765625 C 312.550781 59.664062 313.152344 59.609375 313.925781 59.609375 L 314.191406 59.609375 L 314.191406 58.75 C 314.191406 57.667969 313.773438 57.125 312.941406 57.125 C 312.554688 57.125 312.214844 57.246094 311.925781 57.484375 C 311.746094 57.621094 311.636719 57.914062 311.597656 58.359375 L 311.582031 58.484375 L 310.738281 58.484375 L 310.738281 57.21875 C 311.613281 56.835938 312.425781 56.640625 313.175781 56.640625 C 313.832031 56.640625 314.363281 56.792969 314.769531 57.09375 C 315.027344 57.292969 315.207031 57.507812 315.300781 57.734375 C 315.394531 57.953125 315.441406 58.277344 315.441406 58.703125 L 315.441406 61.78125 C 315.441406 62.335938 315.488281 62.726562 315.582031 62.953125 C 315.675781 63.171875 315.839844 63.28125 316.082031 63.28125 C 316.152344 63.28125 316.261719 63.261719 316.410156 63.21875 L 316.457031 63.6875 C 316.152344 63.789062 315.882812 63.84375 315.644531 63.84375 C 315.027344 63.84375 314.636719 63.476562 314.472656 62.734375 Z M 314.191406 62.609375 L 314.191406 60 L 313.894531 60 C 313.152344 60 312.574219 60.152344 312.160156 60.453125 C 311.753906 60.757812 311.550781 61.179688 311.550781 61.71875 C 311.550781 62.117188 311.675781 62.449219 311.925781 62.71875 C 312.183594 62.980469 312.507812 63.109375 312.894531 63.109375 C 313.257812 63.109375 313.691406 62.945312 314.191406 62.609375 Z M 321.222656 63.65625 C 320.898438 63.78125 320.597656 63.84375 320.316406 63.84375 C 319.667969 63.84375 319.160156 63.679688 318.785156 63.34375 C 318.554688 63.148438 318.398438 62.921875 318.316406 62.671875 C 318.242188 62.414062 318.207031 62.03125 318.207031 61.53125 L 318.207031 57.3125 L 317.191406 57.3125 L 317.191406 56.796875 L 318.207031 56.796875 L 318.207031 55.546875 L 319.457031 55.234375 L 319.457031 56.796875 L 321.378906 56.796875 L 321.378906 57.3125 L 319.457031 57.3125 L 319.457031 61.703125 C 319.457031 62.308594 319.511719 62.703125 319.628906 62.890625 C 319.804688 63.195312 320.097656 63.34375 320.503906 63.34375 C 320.699219 63.34375 320.941406 63.277344 321.222656 63.140625 Z M 327.957031 63.375 C 327.164062 63.6875 326.441406 63.84375 325.785156 63.84375 C 324.773438 63.84375 323.949219 63.507812 323.316406 62.828125 C 322.679688 62.140625 322.363281 61.257812 322.363281 60.171875 C 322.363281 59.132812 322.644531 58.28125 323.207031 57.625 C 323.777344 56.96875 324.507812 56.640625 325.394531 56.640625 C 326.226562 56.640625 326.863281 56.917969 327.300781 57.46875 C 327.738281 58.023438 327.957031 58.8125 327.957031 59.84375 L 327.957031 59.96875 L 323.753906 59.96875 C 323.753906 60.917969 323.882812 61.625 324.144531 62.09375 C 324.550781 62.84375 325.160156 63.21875 325.972656 63.21875 C 326.753906 63.21875 327.414062 63.058594 327.957031 62.734375 Z M 323.769531 59.578125 L 326.628906 59.578125 L 326.644531 59.296875 C 326.644531 58.796875 326.617188 58.429688 326.566406 58.1875 C 326.523438 57.949219 326.441406 57.742188 326.316406 57.5625 C 326.066406 57.210938 325.730469 57.03125 325.316406 57.03125 C 324.847656 57.03125 324.472656 57.261719 324.191406 57.71875 C 323.910156 58.179688 323.769531 58.796875 323.769531 59.578125 Z M 334.300781 63.6875 L 334.300781 62.390625 C 333.683594 63.359375 332.878906 63.84375 331.878906 63.84375 C 331.105469 63.84375 330.488281 63.539062 330.019531 62.921875 C 329.558594 62.308594 329.332031 61.480469 329.332031 60.4375 C 329.332031 59.292969 329.597656 58.375 330.128906 57.6875 C 330.660156 56.992188 331.363281 56.640625 332.238281 56.640625 C 333.039062 56.640625 333.726562 56.953125 334.300781 57.578125 L 334.300781 55.3125 C 334.300781 54.960938 334.273438 54.652344 334.222656 54.390625 C 334.191406 54.277344 334.136719 54.203125 334.066406 54.171875 C 334.003906 54.132812 333.871094 54.105469 333.675781 54.09375 L 333.253906 54.0625 L 333.128906 54.0625 L 333.128906 53.671875 L 335.566406 53.671875 L 335.566406 62.046875 C 335.566406 62.390625 335.589844 62.695312 335.644531 62.953125 C 335.664062 63.070312 335.707031 63.148438 335.769531 63.1875 C 335.839844 63.21875 335.980469 63.242188 336.191406 63.25 L 336.613281 63.28125 L 336.738281 63.296875 L 336.738281 63.6875 Z M 334.300781 58.0625 C 333.652344 57.585938 333.019531 57.34375 332.394531 57.34375 C 331.832031 57.34375 331.398438 57.585938 331.097656 58.0625 C 330.804688 58.53125 330.660156 59.210938 330.660156 60.09375 C 330.660156 61.085938 330.800781 61.824219 331.082031 62.3125 C 331.363281 62.792969 331.785156 63.03125 332.347656 63.03125 C 332.691406 63.03125 333.050781 62.933594 333.425781 62.734375 C 333.800781 62.527344 334.089844 62.265625 334.300781 61.953125 Z M 344.128906 63.8125 L 342.113281 55.96875 L 341.894531 55.140625 C 341.851562 54.945312 341.800781 54.824219 341.738281 54.78125 C 341.683594 54.730469 341.585938 54.703125 341.441406 54.703125 L 341.066406 54.6875 L 340.925781 54.6875 L 340.925781 54.296875 L 344.285156 54.296875 L 344.285156 54.6875 L 343.832031 54.6875 C 343.589844 54.6875 343.429688 54.714844 343.347656 54.765625 C 343.261719 54.808594 343.222656 54.898438 343.222656 55.03125 C 343.222656 55.179688 343.285156 55.492188 343.410156 55.96875 L 344.800781 61.4375 L 346.957031 54.40625 L 347.410156 54.40625 L 349.566406 61.640625 L 351.191406 55.984375 L 351.332031 55.515625 C 351.425781 55.171875 351.472656 54.96875 351.472656 54.90625 C 351.472656 54.761719 351.285156 54.6875 350.910156 54.6875 L 350.363281 54.6875 L 350.363281 54.296875 L 352.941406 54.296875 L 352.941406 54.6875 L 352.832031 54.6875 L 352.457031 54.703125 C 352.289062 54.714844 352.175781 54.746094 352.113281 54.796875 C 352.058594 54.839844 352.007812 54.945312 351.957031 55.109375 L 351.675781 55.96875 L 349.378906 63.8125 L 348.957031 63.8125 L 346.738281 56.578125 L 344.566406 63.8125 Z M 355.597656 56.796875 L 355.597656 62.046875 C 355.597656 62.390625 355.628906 62.695312 355.691406 62.953125 C 355.710938 63.070312 355.753906 63.148438 355.816406 63.1875 C 355.886719 63.21875 356.023438 63.242188 356.222656 63.25 L 356.660156 63.28125 L 356.785156 63.296875 L 356.785156 63.6875 L 353.175781 63.6875 L 353.175781 63.296875 L 353.300781 63.28125 L 353.722656 63.25 C 353.972656 63.242188 354.128906 63.203125 354.191406 63.140625 C 354.253906 63.070312 354.292969 62.914062 354.316406 62.671875 L 354.347656 62.046875 L 354.347656 58.4375 L 354.316406 57.8125 C 354.292969 57.574219 354.253906 57.421875 354.191406 57.359375 C 354.128906 57.289062 353.972656 57.242188 353.722656 57.21875 L 353.300781 57.1875 L 353.175781 57.1875 L 353.175781 56.796875 Z M 354.347656 55.546875 L 354.347656 54.296875 L 355.597656 54.296875 L 355.597656 55.546875 Z M 361.519531 63.65625 C 361.195312 63.78125 360.894531 63.84375 360.613281 63.84375 C 359.964844 63.84375 359.457031 63.679688 359.082031 63.34375 C 358.851562 63.148438 358.695312 62.921875 358.613281 62.671875 C 358.539062 62.414062 358.503906 62.03125 358.503906 61.53125 L 358.503906 57.3125 L 357.488281 57.3125 L 357.488281 56.796875 L 358.503906 56.796875 L 358.503906 55.546875 L 359.753906 55.234375 L 359.753906 56.796875 L 361.675781 56.796875 L 361.675781 57.3125 L 359.753906 57.3125 L 359.753906 61.703125 C 359.753906 62.308594 359.808594 62.703125 359.925781 62.890625 C 360.101562 63.195312 360.394531 63.34375 360.800781 63.34375 C 360.996094 63.34375 361.238281 63.277344 361.519531 63.140625 Z M 364.691406 58.09375 C 364.992188 57.636719 365.363281 57.28125 365.800781 57.03125 C 366.246094 56.773438 366.707031 56.640625 367.175781 56.640625 C 367.769531 56.640625 368.230469 56.839844 368.566406 57.234375 C 368.910156 57.621094 369.082031 58.152344 369.082031 58.828125 L 369.082031 62.046875 L 369.128906 62.671875 C 369.136719 62.914062 369.175781 63.070312 369.238281 63.140625 C 369.308594 63.203125 369.464844 63.242188 369.707031 63.25 L 370.144531 63.28125 L 370.253906 63.296875 L 370.253906 63.6875 L 366.660156 63.6875 L 366.660156 63.296875 L 366.769531 63.28125 L 367.207031 63.25 C 367.445312 63.242188 367.597656 63.203125 367.660156 63.140625 C 367.730469 63.070312 367.773438 62.914062 367.785156 62.671875 L 367.832031 62.046875 L 367.832031 59.03125 C 367.832031 58.4375 367.753906 58.027344 367.597656 57.796875 C 367.441406 57.570312 367.164062 57.453125 366.769531 57.453125 C 366.207031 57.453125 365.511719 57.804688 364.691406 58.5 L 364.691406 62.046875 C 364.691406 62.390625 364.722656 62.695312 364.785156 62.953125 C 364.804688 63.070312 364.847656 63.148438 364.910156 63.1875 C 364.980469 63.21875 365.117188 63.242188 365.316406 63.25 L 365.753906 63.28125 L 365.878906 63.296875 L 365.878906 63.6875 L 362.269531 63.6875 L 362.269531 63.296875 L 362.394531 63.28125 L 362.816406 63.25 C 363.066406 63.242188 363.222656 63.203125 363.285156 63.140625 C 363.347656 63.070312 363.386719 62.914062 363.410156 62.671875 L 363.441406 62.046875 L 363.441406 55.3125 L 363.410156 54.6875 C 363.386719 54.4375 363.347656 54.28125 363.285156 54.21875 C 363.222656 54.15625 363.066406 54.117188 362.816406 54.09375 L 362.394531 54.0625 L 362.269531 54.0625 L 362.269531 53.671875 L 364.691406 53.671875 Z M 374.472656 54.6875 L 374.472656 54.296875 L 377.175781 54.296875 L 379.988281 61.125 L 382.753906 54.296875 L 385.113281 54.296875 L 385.113281 54.6875 L 384.988281 54.6875 L 384.566406 54.71875 C 384.316406 54.742188 384.160156 54.789062 384.097656 54.859375 C 384.035156 54.921875 383.992188 55.074219 383.972656 55.3125 L 383.941406 55.9375 L 383.941406 62.046875 L 383.972656 62.671875 C 383.992188 62.914062 384.035156 63.070312 384.097656 63.140625 C 384.160156 63.203125 384.316406 63.242188 384.566406 63.25 L 384.988281 63.28125 L 385.113281 63.296875 L 385.113281 63.6875 L 381.535156 63.6875 L 381.535156 63.296875 L 381.644531 63.28125 L 382.082031 63.25 C 382.320312 63.242188 382.472656 63.203125 382.535156 63.140625 C 382.605469 63.070312 382.648438 62.914062 382.660156 62.671875 L 382.691406 62.046875 L 382.691406 55.59375 L 379.738281 62.9375 L 379.269531 62.9375 L 376.347656 55.484375 L 376.347656 62.046875 L 376.394531 62.671875 C 376.402344 62.914062 376.441406 63.070312 376.503906 63.140625 C 376.574219 63.203125 376.730469 63.242188 376.972656 63.25 L 377.410156 63.28125 L 377.519531 63.296875 L 377.519531 63.6875 L 374.472656 63.6875 L 374.472656 63.296875 L 374.597656 63.28125 L 375.019531 63.25 C 375.269531 63.242188 375.425781 63.203125 375.488281 63.140625 C 375.558594 63.070312 375.601562 62.914062 375.613281 62.671875 L 375.660156 62.046875 L 375.660156 55.9375 L 375.613281 55.3125 C 375.601562 55.074219 375.558594 54.921875 375.488281 54.859375 C 375.425781 54.789062 375.269531 54.742188 375.019531 54.71875 L 374.597656 54.6875 Z M 390.285156 62.734375 C 389.867188 63.152344 389.492188 63.445312 389.160156 63.609375 C 388.835938 63.765625 388.472656 63.84375 388.066406 63.84375 C 387.480469 63.84375 386.996094 63.664062 386.613281 63.296875 C 386.226562 62.921875 386.035156 62.453125 386.035156 61.890625 C 386.035156 61.246094 386.285156 60.71875 386.785156 60.3125 C 387.105469 60.054688 387.488281 59.871094 387.925781 59.765625 C 388.363281 59.664062 388.964844 59.609375 389.738281 59.609375 L 390.003906 59.609375 L 390.003906 58.75 C 390.003906 57.667969 389.585938 57.125 388.753906 57.125 C 388.367188 57.125 388.027344 57.246094 387.738281 57.484375 C 387.558594 57.621094 387.449219 57.914062 387.410156 58.359375 L 387.394531 58.484375 L 386.550781 58.484375 L 386.550781 57.21875 C 387.425781 56.835938 388.238281 56.640625 388.988281 56.640625 C 389.644531 56.640625 390.175781 56.792969 390.582031 57.09375 C 390.839844 57.292969 391.019531 57.507812 391.113281 57.734375 C 391.207031 57.953125 391.253906 58.277344 391.253906 58.703125 L 391.253906 61.78125 C 391.253906 62.335938 391.300781 62.726562 391.394531 62.953125 C 391.488281 63.171875 391.652344 63.28125 391.894531 63.28125 C 391.964844 63.28125 392.074219 63.261719 392.222656 63.21875 L 392.269531 63.6875 C 391.964844 63.789062 391.695312 63.84375 391.457031 63.84375 C 390.839844 63.84375 390.449219 63.476562 390.285156 62.734375 Z M 390.003906 62.609375 L 390.003906 60 L 389.707031 60 C 388.964844 60 388.386719 60.152344 387.972656 60.453125 C 387.566406 60.757812 387.363281 61.179688 387.363281 61.71875 C 387.363281 62.117188 387.488281 62.449219 387.738281 62.71875 C 387.996094 62.980469 388.320312 63.109375 388.707031 63.109375 C 389.070312 63.109375 389.503906 62.945312 390.003906 62.609375 Z M 395.113281 62.90625 L 395.113281 64.546875 C 395.113281 64.898438 395.144531 65.207031 395.207031 65.46875 C 395.226562 65.570312 395.269531 65.644531 395.332031 65.6875 C 395.402344 65.726562 395.539062 65.753906 395.738281 65.765625 L 396.175781 65.796875 L 396.300781 65.796875 L 396.300781 66.1875 L 392.691406 66.1875 L 392.691406 65.796875 L 392.816406 65.796875 L 393.238281 65.765625 C 393.488281 65.742188 393.644531 65.703125 393.707031 65.640625 C 393.769531 65.578125 393.808594 65.421875 393.832031 65.171875 L 393.863281 64.546875 L 393.863281 58.4375 L 393.832031 57.8125 C 393.808594 57.574219 393.769531 57.421875 393.707031 57.359375 C 393.644531 57.289062 393.488281 57.242188 393.238281 57.21875 L 392.816406 57.1875 L 392.691406 57.1875 L 392.691406 56.796875 L 395.113281 56.796875 L 395.113281 58.09375 C 395.738281 57.125 396.542969 56.640625 397.535156 56.640625 C 398.316406 56.640625 398.933594 56.949219 399.394531 57.5625 C 399.863281 58.179688 400.097656 59 400.097656 60.03125 C 400.097656 61.1875 399.832031 62.117188 399.300781 62.8125 C 398.769531 63.5 398.066406 63.84375 397.191406 63.84375 C 396.378906 63.84375 395.683594 63.53125 395.113281 62.90625 Z M 395.113281 62.40625 C 395.777344 62.898438 396.417969 63.140625 397.035156 63.140625 C 397.597656 63.140625 398.023438 62.90625 398.316406 62.4375 C 398.605469 61.960938 398.753906 61.273438 398.753906 60.375 C 398.753906 59.398438 398.613281 58.667969 398.332031 58.1875 C 398.058594 57.699219 397.644531 57.453125 397.082031 57.453125 C 396.726562 57.453125 396.371094 57.554688 396.019531 57.75 C 395.675781 57.9375 395.371094 58.199219 395.113281 58.53125 Z M 395.113281 62.40625 "/>
<path style=" stroke:none;fill-rule:evenodd;fill:rgb(0%,0%,0%);fill-opacity:1;" d="M 250.769531 63.6875 L 250.769531 62.125 L 252.332031 62.125 L 252.332031 63.6875 Z M 263.957031 59.5625 L 263.957031 62.046875 L 264.003906 62.671875 C 264.003906 62.933594 264.042969 63.09375 264.128906 63.15625 C 264.210938 63.21875 264.457031 63.261719 264.863281 63.28125 L 264.988281 63.296875 L 264.988281 63.6875 L 261.457031 63.6875 L 261.457031 63.296875 L 261.582031 63.28125 L 262.003906 63.25 C 262.253906 63.242188 262.410156 63.203125 262.472656 63.140625 C 262.542969 63.070312 262.585938 62.914062 262.597656 62.671875 L 262.644531 62.046875 L 262.644531 55.9375 L 262.597656 55.3125 C 262.585938 55.074219 262.542969 54.921875 262.472656 54.859375 C 262.410156 54.789062 262.253906 54.742188 262.003906 54.71875 L 261.582031 54.6875 L 261.457031 54.6875 L 261.457031 54.296875 L 263.722656 54.296875 L 264.347656 54.28125 L 265.378906 54.25 C 266.324219 54.25 267.042969 54.453125 267.535156 54.859375 C 268.035156 55.257812 268.285156 55.84375 268.285156 56.625 C 268.285156 57.261719 268.117188 57.808594 267.785156 58.265625 C 267.449219 58.714844 266.972656 59.046875 266.347656 59.265625 L 268.191406 62.03125 L 268.769531 62.84375 C 268.902344 63.023438 269.011719 63.136719 269.097656 63.1875 C 269.179688 63.242188 269.300781 63.265625 269.457031 63.265625 C 269.519531 63.265625 269.664062 63.273438 269.894531 63.28125 L 270.019531 63.296875 L 270.019531 63.6875 L 267.628906 63.6875 L 265.050781 59.5625 Z M 263.972656 59.125 L 264.441406 59.125 C 264.992188 59.125 265.429688 59.0625 265.753906 58.9375 C 266.074219 58.804688 266.335938 58.578125 266.535156 58.265625 C 266.792969 57.882812 266.925781 57.382812 266.925781 56.765625 C 266.925781 56.140625 266.804688 55.65625 266.566406 55.3125 C 266.410156 55.09375 266.207031 54.945312 265.957031 54.859375 C 265.707031 54.765625 265.347656 54.71875 264.878906 54.71875 L 263.972656 54.71875 Z M 273.894531 63.84375 C 272.894531 63.84375 272.101562 63.523438 271.519531 62.875 C 270.933594 62.21875 270.644531 61.339844 270.644531 60.234375 C 270.644531 59.132812 270.933594 58.257812 271.519531 57.609375 C 272.113281 56.964844 272.917969 56.640625 273.941406 56.640625 C 274.949219 56.640625 275.746094 56.964844 276.332031 57.609375 C 276.925781 58.257812 277.222656 59.132812 277.222656 60.234375 C 277.222656 61.359375 276.925781 62.246094 276.332031 62.890625 C 275.746094 63.527344 274.933594 63.84375 273.894531 63.84375 Z M 273.910156 63.453125 C 274.492188 63.453125 274.964844 63.152344 275.332031 62.546875 C 275.707031 61.945312 275.894531 61.171875 275.894531 60.234375 C 275.894531 59.320312 275.707031 58.558594 275.332031 57.953125 C 274.957031 57.339844 274.492188 57.03125 273.941406 57.03125 C 273.378906 57.03125 272.910156 57.339844 272.535156 57.953125 C 272.167969 58.558594 271.988281 59.320312 271.988281 60.234375 C 271.988281 61.152344 272.167969 61.917969 272.535156 62.53125 C 272.898438 63.148438 273.355469 63.453125 273.910156 63.453125 Z M 282.425781 63.65625 C 282.101562 63.78125 281.800781 63.84375 281.519531 63.84375 C 280.871094 63.84375 280.363281 63.679688 279.988281 63.34375 C 279.757812 63.148438 279.601562 62.921875 279.519531 62.671875 C 279.445312 62.414062 279.410156 62.03125 279.410156 61.53125 L 279.410156 57.3125 L 278.394531 57.3125 L 278.394531 56.796875 L 279.410156 56.796875 L 279.410156 55.546875 L 280.660156 55.234375 L 280.660156 56.796875 L 282.582031 56.796875 L 282.582031 57.3125 L 280.660156 57.3125 L 280.660156 61.703125 C 280.660156 62.308594 280.714844 62.703125 280.832031 62.890625 C 281.007812 63.195312 281.300781 63.34375 281.707031 63.34375 C 281.902344 63.34375 282.144531 63.277344 282.425781 63.140625 Z M 287.832031 62.734375 C 287.414062 63.152344 287.039062 63.445312 286.707031 63.609375 C 286.382812 63.765625 286.019531 63.84375 285.613281 63.84375 C 285.027344 63.84375 284.542969 63.664062 284.160156 63.296875 C 283.773438 62.921875 283.582031 62.453125 283.582031 61.890625 C 283.582031 61.246094 283.832031 60.71875 284.332031 60.3125 C 284.652344 60.054688 285.035156 59.871094 285.472656 59.765625 C 285.910156 59.664062 286.511719 59.609375 287.285156 59.609375 L 287.550781 59.609375 L 287.550781 58.75 C 287.550781 57.667969 287.132812 57.125 286.300781 57.125 C 285.914062 57.125 285.574219 57.246094 285.285156 57.484375 C 285.105469 57.621094 284.996094 57.914062 284.957031 58.359375 L 284.941406 58.484375 L 284.097656 58.484375 L 284.097656 57.21875 C 284.972656 56.835938 285.785156 56.640625 286.535156 56.640625 C 287.191406 56.640625 287.722656 56.792969 288.128906 57.09375 C 288.386719 57.292969 288.566406 57.507812 288.660156 57.734375 C 288.753906 57.953125 288.800781 58.277344 288.800781 58.703125 L 288.800781 61.78125 C 288.800781 62.335938 288.847656 62.726562 288.941406 62.953125 C 289.035156 63.171875 289.199219 63.28125 289.441406 63.28125 C 289.511719 63.28125 289.621094 63.261719 289.769531 63.21875 L 289.816406 63.6875 C 289.511719 63.789062 289.242188 63.84375 289.003906 63.84375 C 288.386719 63.84375 287.996094 63.476562 287.832031 62.734375 Z M 287.550781 62.609375 L 287.550781 60 L 287.253906 60 C 286.511719 60 285.933594 60.152344 285.519531 60.453125 C 285.113281 60.757812 284.910156 61.179688 284.910156 61.71875 C 284.910156 62.117188 285.035156 62.449219 285.285156 62.71875 C 285.542969 62.980469 285.867188 63.109375 286.253906 63.109375 C 286.617188 63.109375 287.050781 62.945312 287.550781 62.609375 Z M 294.582031 63.65625 C 294.257812 63.78125 293.957031 63.84375 293.675781 63.84375 C 293.027344 63.84375 292.519531 63.679688 292.144531 63.34375 C 291.914062 63.148438 291.757812 62.921875 291.675781 62.671875 C 291.601562 62.414062 291.566406 62.03125 291.566406 61.53125 L 291.566406 57.3125 L 290.550781 57.3125 L 290.550781 56.796875 L 291.566406 56.796875 L 291.566406 55.546875 L 292.816406 55.234375 L 292.816406 56.796875 L 294.738281 56.796875 L 294.738281 57.3125 L 292.816406 57.3125 L 292.816406 61.703125 C 292.816406 62.308594 292.871094 62.703125 292.988281 62.890625 C 293.164062 63.195312 293.457031 63.34375 293.863281 63.34375 C 294.058594 63.34375 294.300781 63.277344 294.582031 63.140625 Z M 301.316406 63.375 C 300.523438 63.6875 299.800781 63.84375 299.144531 63.84375 C 298.132812 63.84375 297.308594 63.507812 296.675781 62.828125 C 296.039062 62.140625 295.722656 61.257812 295.722656 60.171875 C 295.722656 59.132812 296.003906 58.28125 296.566406 57.625 C 297.136719 56.96875 297.867188 56.640625 298.753906 56.640625 C 299.585938 56.640625 300.222656 56.917969 300.660156 57.46875 C 301.097656 58.023438 301.316406 58.8125 301.316406 59.84375 L 301.316406 59.96875 L 297.113281 59.96875 C 297.113281 60.917969 297.242188 61.625 297.503906 62.09375 C 297.910156 62.84375 298.519531 63.21875 299.332031 63.21875 C 300.113281 63.21875 300.773438 63.058594 301.316406 62.734375 Z M 297.128906 59.578125 L 299.988281 59.578125 L 300.003906 59.296875 C 300.003906 58.796875 299.976562 58.429688 299.925781 58.1875 C 299.882812 57.949219 299.800781 57.742188 299.675781 57.5625 C 299.425781 57.210938 299.089844 57.03125 298.675781 57.03125 C 298.207031 57.03125 297.832031 57.261719 297.550781 57.71875 C 297.269531 58.179688 297.128906 58.796875 297.128906 59.578125 Z M 307.660156 63.6875 L 307.660156 62.390625 C 307.042969 63.359375 306.238281 63.84375 305.238281 63.84375 C 304.464844 63.84375 303.847656 63.539062 303.378906 62.921875 C 302.917969 62.308594 302.691406 61.480469 302.691406 60.4375 C 302.691406 59.292969 302.957031 58.375 303.488281 57.6875 C 304.019531 56.992188 304.722656 56.640625 305.597656 56.640625 C 306.398438 56.640625 307.085938 56.953125 307.660156 57.578125 L 307.660156 55.3125 C 307.660156 54.960938 307.632812 54.652344 307.582031 54.390625 C 307.550781 54.277344 307.496094 54.203125 307.425781 54.171875 C 307.363281 54.132812 307.230469 54.105469 307.035156 54.09375 L 306.613281 54.0625 L 306.488281 54.0625 L 306.488281 53.671875 L 308.925781 53.671875 L 308.925781 62.046875 C 308.925781 62.390625 308.949219 62.695312 309.003906 62.953125 C 309.023438 63.070312 309.066406 63.148438 309.128906 63.1875 C 309.199219 63.21875 309.339844 63.242188 309.550781 63.25 L 309.972656 63.28125 L 310.097656 63.296875 L 310.097656 63.6875 Z M 307.660156 58.0625 C 307.011719 57.585938 306.378906 57.34375 305.753906 57.34375 C 305.191406 57.34375 304.757812 57.585938 304.457031 58.0625 C 304.164062 58.53125 304.019531 59.210938 304.019531 60.09375 C 304.019531 61.085938 304.160156 61.824219 304.441406 62.3125 C 304.722656 62.792969 305.144531 63.03125 305.707031 63.03125 C 306.050781 63.03125 306.410156 62.933594 306.785156 62.734375 C 307.160156 62.527344 307.449219 62.265625 307.660156 61.953125 Z M 317.488281 63.8125 L 315.472656 55.96875 L 315.253906 55.140625 C 315.210938 54.945312 315.160156 54.824219 315.097656 54.78125 C 315.042969 54.730469 314.945312 54.703125 314.800781 54.703125 L 314.425781 54.6875 L 314.285156 54.6875 L 314.285156 54.296875 L 317.644531 54.296875 L 317.644531 54.6875 L 317.191406 54.6875 C 316.949219 54.6875 316.789062 54.714844 316.707031 54.765625 C 316.621094 54.808594 316.582031 54.898438 316.582031 55.03125 C 316.582031 55.179688 316.644531 55.492188 316.769531 55.96875 L 318.160156 61.4375 L 320.316406 54.40625 L 320.769531 54.40625 L 322.925781 61.640625 L 324.550781 55.984375 L 324.691406 55.515625 C 324.785156 55.171875 324.832031 54.96875 324.832031 54.90625 C 324.832031 54.761719 324.644531 54.6875 324.269531 54.6875 L 323.722656 54.6875 L 323.722656 54.296875 L 326.300781 54.296875 L 326.300781 54.6875 L 326.191406 54.6875 L 325.816406 54.703125 C 325.648438 54.714844 325.535156 54.746094 325.472656 54.796875 C 325.417969 54.839844 325.367188 54.945312 325.316406 55.109375 L 325.035156 55.96875 L 322.738281 63.8125 L 322.316406 63.8125 L 320.097656 56.578125 L 317.925781 63.8125 Z M 328.957031 56.796875 L 328.957031 62.046875 C 328.957031 62.390625 328.988281 62.695312 329.050781 62.953125 C 329.070312 63.070312 329.113281 63.148438 329.175781 63.1875 C 329.246094 63.21875 329.382812 63.242188 329.582031 63.25 L 330.019531 63.28125 L 330.144531 63.296875 L 330.144531 63.6875 L 326.535156 63.6875 L 326.535156 63.296875 L 326.660156 63.28125 L 327.082031 63.25 C 327.332031 63.242188 327.488281 63.203125 327.550781 63.140625 C 327.613281 63.070312 327.652344 62.914062 327.675781 62.671875 L 327.707031 62.046875 L 327.707031 58.4375 L 327.675781 57.8125 C 327.652344 57.574219 327.613281 57.421875 327.550781 57.359375 C 327.488281 57.289062 327.332031 57.242188 327.082031 57.21875 L 326.660156 57.1875 L 326.535156 57.1875 L 326.535156 56.796875 Z M 327.707031 55.546875 L 327.707031 54.296875 L 328.957031 54.296875 L 328.957031 55.546875 Z M 334.878906 63.65625 C 334.554688 63.78125 334.253906 63.84375 333.972656 63.84375 C 333.324219 63.84375 332.816406 63.679688 332.441406 63.34375 C 332.210938 63.148438 332.054688 62.921875 331.972656 62.671875 C 331.898438 62.414062 331.863281 62.03125 331.863281 61.53125 L 331.863281 57.3125 L 330.847656 57.3125 L 330.847656 56.796875 L 331.863281 56.796875 L 331.863281 55.546875 L 333.113281 55.234375 L 333.113281 56.796875 L 335.035156 56.796875 L 335.035156 57.3125 L 333.113281 57.3125 L 333.113281 61.703125 C 333.113281 62.308594 333.167969 62.703125 333.285156 62.890625 C 333.460938 63.195312 333.753906 63.34375 334.160156 63.34375 C 334.355469 63.34375 334.597656 63.277344 334.878906 63.140625 Z M 338.050781 58.09375 C 338.351562 57.636719 338.722656 57.28125 339.160156 57.03125 C 339.605469 56.773438 340.066406 56.640625 340.535156 56.640625 C 341.128906 56.640625 341.589844 56.839844 341.925781 57.234375 C 342.269531 57.621094 342.441406 58.152344 342.441406 58.828125 L 342.441406 62.046875 L 342.488281 62.671875 C 342.496094 62.914062 342.535156 63.070312 342.597656 63.140625 C 342.667969 63.203125 342.824219 63.242188 343.066406 63.25 L 343.503906 63.28125 L 343.613281 63.296875 L 343.613281 63.6875 L 340.019531 63.6875 L 340.019531 63.296875 L 340.128906 63.28125 L 340.566406 63.25 C 340.804688 63.242188 340.957031 63.203125 341.019531 63.140625 C 341.089844 63.070312 341.132812 62.914062 341.144531 62.671875 L 341.191406 62.046875 L 341.191406 59.03125 C 341.191406 58.4375 341.113281 58.027344 340.957031 57.796875 C 340.800781 57.570312 340.523438 57.453125 340.128906 57.453125 C 339.566406 57.453125 338.871094 57.804688 338.050781 58.5 L 338.050781 62.046875 C 338.050781 62.390625 338.082031 62.695312 338.144531 62.953125 C 338.164062 63.070312 338.207031 63.148438 338.269531 63.1875 C 338.339844 63.21875 338.476562 63.242188 338.675781 63.25 L 339.113281 63.28125 L 339.238281 63.296875 L 339.238281 63.6875 L 335.628906 63.6875 L 335.628906 63.296875 L 335.753906 63.28125 L 336.175781 63.25 C 336.425781 63.242188 336.582031 63.203125 336.644531 63.140625 C 336.707031 63.070312 336.746094 62.914062 336.769531 62.671875 L 336.800781 62.046875 L 336.800781 55.3125 L 336.769531 54.6875 C 336.746094 54.4375 336.707031 54.28125 336.644531 54.21875 C 336.582031 54.15625 336.425781 54.117188 336.175781 54.09375 L 335.753906 54.0625 L 335.628906 54.0625 L 335.628906 53.671875 L 338.050781 53.671875 Z M 347.832031 54.6875 L 347.832031 54.296875 L 350.535156 54.296875 L 353.347656 61.125 L 356.113281 54.296875 L 358.472656 54.296875 L 358.472656 54.6875 L 358.347656 54.6875 L 357.925781 54.71875 C 357.675781 54.742188 357.519531 54.789062 357.457031 54.859375 C 357.394531 54.921875 357.351562 55.074219 357.332031 55.3125 L 357.300781 55.9375 L 357.300781 62.046875 L 357.332031 62.671875 C 357.351562 62.914062 357.394531 63.070312 357.457031 63.140625 C 357.519531 63.203125 357.675781 63.242188 357.925781 63.25 L 358.347656 63.28125 L 358.472656 63.296875 L 358.472656 63.6875 L 354.894531 63.6875 L 354.894531 63.296875 L 355.003906 63.28125 L 355.441406 63.25 C 355.679688 63.242188 355.832031 63.203125 355.894531 63.140625 C 355.964844 63.070312 356.007812 62.914062 356.019531 62.671875 L 356.050781 62.046875 L 356.050781 55.59375 L 353.097656 62.9375 L 352.628906 62.9375 L 349.707031 55.484375 L 349.707031 62.046875 L 349.753906 62.671875 C 349.761719 62.914062 349.800781 63.070312 349.863281 63.140625 C 349.933594 63.203125 350.089844 63.242188 350.332031 63.25 L 350.769531 63.28125 L 350.878906 63.296875 L 350.878906 63.6875 L 347.832031 63.6875 L 347.832031 63.296875 L 347.957031 63.28125 L 348.378906 63.25 C 348.628906 63.242188 348.785156 63.203125 348.847656 63.140625 C 348.917969 63.070312 348.960938 62.914062 348.972656 62.671875 L 349.019531 62.046875 L 349.019531 55.9375 L 348.972656 55.3125 C 348.960938 55.074219 348.917969 54.921875 348.847656 54.859375 C 348.785156 54.789062 348.628906 54.742188 348.378906 54.71875 L 347.957031 54.6875 Z M 363.644531 62.734375 C 363.226562 63.152344 362.851562 63.445312 362.519531 63.609375 C 362.195312 63.765625 361.832031 63.84375 361.425781 63.84375 C 360.839844 63.84375 360.355469 63.664062 359.972656 63.296875 C 359.585938 62.921875 359.394531 62.453125 359.394531 61.890625 C 359.394531 61.246094 359.644531 60.71875 360.144531 60.3125 C 360.464844 60.054688 360.847656 59.871094 361.285156 59.765625 C 361.722656 59.664062 362.324219 59.609375 363.097656 59.609375 L 363.363281 59.609375 L 363.363281 58.75 C 363.363281 57.667969 362.945312 57.125 362.113281 57.125 C 361.726562 57.125 361.386719 57.246094 361.097656 57.484375 C 360.917969 57.621094 360.808594 57.914062 360.769531 58.359375 L 360.753906 58.484375 L 359.910156 58.484375 L 359.910156 57.21875 C 360.785156 56.835938 361.597656 56.640625 362.347656 56.640625 C 363.003906 56.640625 363.535156 56.792969 363.941406 57.09375 C 364.199219 57.292969 364.378906 57.507812 364.472656 57.734375 C 364.566406 57.953125 364.613281 58.277344 364.613281 58.703125 L 364.613281 61.78125 C 364.613281 62.335938 364.660156 62.726562 364.753906 62.953125 C 364.847656 63.171875 365.011719 63.28125 365.253906 63.28125 C 365.324219 63.28125 365.433594 63.261719 365.582031 63.21875 L 365.628906 63.6875 C 365.324219 63.789062 365.054688 63.84375 364.816406 63.84375 C 364.199219 63.84375 363.808594 63.476562 363.644531 62.734375 Z M 363.363281 62.609375 L 363.363281 60 L 363.066406 60 C 362.324219 60 361.746094 60.152344 361.332031 60.453125 C 360.925781 60.757812 360.722656 61.179688 360.722656 61.71875 C 360.722656 62.117188 360.847656 62.449219 361.097656 62.71875 C 361.355469 62.980469 361.679688 63.109375 362.066406 63.109375 C 362.429688 63.109375 362.863281 62.945312 363.363281 62.609375 Z M 368.472656 62.90625 L 368.472656 64.546875 C 368.472656 64.898438 368.503906 65.207031 368.566406 65.46875 C 368.585938 65.570312 368.628906 65.644531 368.691406 65.6875 C 368.761719 65.726562 368.898438 65.753906 369.097656 65.765625 L 369.535156 65.796875 L 369.660156 65.796875 L 369.660156 66.1875 L 366.050781 66.1875 L 366.050781 65.796875 L 366.175781 65.796875 L 366.597656 65.765625 C 366.847656 65.742188 367.003906 65.703125 367.066406 65.640625 C 367.128906 65.578125 367.167969 65.421875 367.191406 65.171875 L 367.222656 64.546875 L 367.222656 58.4375 L 367.191406 57.8125 C 367.167969 57.574219 367.128906 57.421875 367.066406 57.359375 C 367.003906 57.289062 366.847656 57.242188 366.597656 57.21875 L 366.175781 57.1875 L 366.050781 57.1875 L 366.050781 56.796875 L 368.472656 56.796875 L 368.472656 58.09375 C 369.097656 57.125 369.902344 56.640625 370.894531 56.640625 C 371.675781 56.640625 372.292969 56.949219 372.753906 57.5625 C 373.222656 58.179688 373.457031 59 373.457031 60.03125 C 373.457031 61.1875 373.191406 62.117188 372.660156 62.8125 C 372.128906 63.5 371.425781 63.84375 370.550781 63.84375 C 369.738281 63.84375 369.042969 63.53125 368.472656 62.90625 Z M 368.472656 62.40625 C 369.136719 62.898438 369.777344 63.140625 370.394531 63.140625 C 370.957031 63.140625 371.382812 62.90625 371.675781 62.4375 C 371.964844 61.960938 372.113281 61.273438 372.113281 60.375 C 372.113281 59.398438 371.972656 58.667969 371.691406 58.1875 C 371.417969 57.699219 371.003906 57.453125 370.441406 57.453125 C 370.085938 57.453125 369.730469 57.554688 369.378906 57.75 C 369.035156 57.9375 368.730469 58.199219 368.472656 58.53125 Z M 368.472656 62.40625 "/>
<path style="fill:none;stroke-width:1;stroke-linecap:round;stroke-linejoin:round;stroke:rgb(100%,0%,0%);stroke-opacity:1;stroke-miterlimit:10;" d="M 70.527344 75.25 L 206.675781 38.769531 "/>
<path style=" stroke:none;fill-rule:evenodd;fill:rgb(100%,0%,0%);fill-opacity:1;" d="M 100.546875 60.25 L 101.3125 63.078125 C 101.394531 63.402344 101.503906 63.6875 101.640625 63.9375 C 101.703125 64.042969 101.78125 64.101562 101.875 64.109375 C 101.96875 64.121094 102.113281 64.101562 102.3125 64.046875 C 102.320312 64.046875 102.484375 64.015625 102.796875 63.953125 L 102.921875 63.9375 L 103.015625 64.3125 L 99.296875 65.3125 L 99.203125 64.9375 L 99.3125 64.890625 L 99.71875 64.75 C 99.945312 64.667969 100.085938 64.585938 100.140625 64.5 C 100.191406 64.417969 100.191406 64.261719 100.140625 64.03125 L 100.03125 63.421875 L 98.453125 57.515625 L 98.234375 56.921875 C 98.164062 56.695312 98.085938 56.554688 98 56.5 C 97.917969 56.449219 97.75 56.453125 97.5 56.515625 L 97.09375 56.59375 L 96.96875 56.625 L 96.859375 56.234375 L 103 54.59375 L 103.4375 56.1875 L 102.75 56.359375 L 102.71875 56.234375 L 102.546875 55.734375 C 102.492188 55.546875 102.429688 55.433594 102.359375 55.390625 C 102.296875 55.351562 102.164062 55.351562 101.96875 55.390625 L 101.34375 55.546875 L 99.4375 56.0625 L 100.421875 59.75 L 102.078125 59.296875 L 102.46875 59.203125 C 102.65625 59.152344 102.765625 59.101562 102.796875 59.046875 C 102.828125 58.996094 102.828125 58.890625 102.796875 58.734375 C 102.773438 58.671875 102.753906 58.578125 102.734375 58.453125 L 102.703125 58.34375 L 103.203125 58.21875 L 103.75 60.21875 L 103.25 60.34375 L 103.21875 60.21875 C 103.082031 59.886719 102.984375 59.714844 102.921875 59.703125 C 102.753906 59.683594 102.515625 59.714844 102.203125 59.796875 Z M 106.707031 56.1875 L 108.066406 61.265625 C 108.148438 61.589844 108.257812 61.871094 108.394531 62.109375 C 108.445312 62.214844 108.503906 62.277344 108.566406 62.296875 C 108.636719 62.320312 108.777344 62.308594 108.988281 62.265625 L 109.410156 62.171875 L 109.550781 62.15625 L 109.644531 62.53125 L 106.144531 63.46875 L 106.050781 63.09375 L 106.160156 63.046875 L 106.566406 62.90625 C 106.792969 62.835938 106.929688 62.757812 106.972656 62.671875 C 107.023438 62.589844 107.027344 62.429688 106.988281 62.1875 L 106.863281 61.59375 L 105.925781 58.09375 L 105.738281 57.5 C 105.65625 57.28125 105.574219 57.148438 105.488281 57.09375 C 105.40625 57.042969 105.246094 57.039062 105.003906 57.078125 L 104.582031 57.15625 L 104.457031 57.1875 L 104.363281 56.8125 Z M 105.175781 55.3125 L 104.847656 54.09375 L 106.050781 53.765625 L 106.378906 54.984375 Z M 109.824219 62.480469 L 109.730469 62.105469 L 109.808594 62.074219 C 110.027344 62.003906 110.21875 61.800781 110.386719 61.464844 L 110.855469 60.542969 L 111.808594 58.496094 L 109.902344 57.042969 L 109.105469 56.464844 C 108.886719 56.308594 108.730469 56.222656 108.636719 56.199219 C 108.535156 56.167969 108.394531 56.164062 108.214844 56.183594 L 108.089844 56.214844 L 107.996094 55.839844 L 111.011719 55.027344 L 111.105469 55.402344 L 110.980469 55.449219 L 110.746094 55.527344 C 110.472656 55.601562 110.355469 55.699219 110.386719 55.824219 C 110.40625 55.886719 110.71875 56.164062 111.324219 56.652344 L 112.621094 57.699219 L 113.214844 56.183594 C 113.296875 55.988281 113.371094 55.746094 113.433594 55.464844 C 113.503906 55.183594 113.53125 55.019531 113.511719 54.964844 C 113.480469 54.839844 113.359375 54.808594 113.152344 54.871094 L 112.917969 54.917969 L 112.761719 54.964844 L 112.667969 54.589844 L 114.808594 54.027344 L 114.902344 54.402344 L 114.777344 54.433594 C 114.621094 54.496094 114.496094 54.574219 114.402344 54.667969 C 114.316406 54.753906 114.238281 54.902344 114.167969 55.121094 C 114.042969 55.433594 113.917969 55.726562 113.792969 55.996094 L 112.949219 57.933594 L 114.902344 59.433594 C 115.359375 59.789062 115.707031 60.023438 115.949219 60.136719 C 116.199219 60.253906 116.410156 60.289062 116.589844 60.246094 L 116.714844 60.246094 L 116.808594 60.621094 L 113.777344 61.433594 L 113.683594 61.058594 L 113.792969 61.027344 L 114.058594 60.933594 C 114.359375 60.851562 114.5 60.761719 114.480469 60.667969 C 114.46875 60.648438 114.433594 60.613281 114.371094 60.558594 C 114.328125 60.527344 114.265625 60.472656 114.183594 60.386719 C 113.953125 60.179688 113.730469 59.992188 113.511719 59.824219 L 112.105469 58.761719 L 111.433594 60.386719 L 111.199219 60.886719 L 111.027344 61.433594 C 110.996094 61.488281 110.984375 61.535156 110.996094 61.574219 C 111.027344 61.691406 111.191406 61.707031 111.496094 61.621094 L 111.746094 61.574219 L 111.886719 61.527344 L 111.980469 61.902344 Z M 122.714844 58.714844 C 122.035156 59.226562 121.378906 59.566406 120.746094 59.730469 C 119.765625 59.992188 118.878906 59.878906 118.089844 59.386719 C 117.308594 58.886719 116.777344 58.117188 116.496094 57.074219 C 116.226562 56.066406 116.277344 55.167969 116.652344 54.386719 C 117.027344 53.597656 117.640625 53.085938 118.496094 52.855469 C 119.296875 52.648438 119.980469 52.757812 120.542969 53.183594 C 121.113281 53.601562 121.53125 54.304688 121.792969 55.292969 L 121.824219 55.417969 L 117.777344 56.511719 C 118.027344 57.429688 118.339844 58.074219 118.714844 58.449219 C 119.285156 59.074219 119.96875 59.285156 120.761719 59.074219 C 121.511719 58.867188 122.105469 58.539062 122.542969 58.089844 Z M 117.699219 56.121094 L 120.449219 55.386719 L 120.386719 55.121094 C 120.261719 54.632812 120.144531 54.277344 120.042969 54.058594 C 119.9375 53.839844 119.800781 53.660156 119.636719 53.511719 C 119.300781 53.242188 118.933594 53.164062 118.527344 53.277344 C 118.078125 53.394531 117.777344 53.710938 117.621094 54.230469 C 117.472656 54.742188 117.5 55.371094 117.699219 56.121094 Z M 128.933594 57.367188 L 128.605469 56.117188 C 128.261719 57.210938 127.605469 57.890625 126.636719 58.148438 C 125.886719 58.347656 125.203125 58.210938 124.589844 57.742188 C 123.984375 57.265625 123.546875 56.519531 123.277344 55.507812 C 122.988281 54.40625 123.007812 53.453125 123.339844 52.648438 C 123.671875 51.835938 124.261719 51.316406 125.105469 51.085938 C 125.886719 50.878906 126.636719 51.003906 127.355469 51.460938 L 126.761719 49.273438 C 126.667969 48.929688 126.5625 48.640625 126.449219 48.398438 C 126.386719 48.304688 126.3125 48.25 126.230469 48.226562 C 126.15625 48.207031 126.027344 48.21875 125.839844 48.257812 L 125.433594 48.335938 L 125.308594 48.367188 L 125.199219 47.992188 L 127.558594 47.367188 L 129.730469 55.460938 C 129.8125 55.785156 129.917969 56.070312 130.042969 56.320312 C 130.09375 56.414062 130.152344 56.472656 130.214844 56.492188 C 130.285156 56.515625 130.433594 56.503906 130.652344 56.460938 L 131.058594 56.382812 L 131.183594 56.367188 L 131.277344 56.742188 Z M 127.480469 51.929688 C 126.730469 51.640625 126.050781 51.578125 125.449219 51.742188 C 124.90625 51.890625 124.550781 52.226562 124.386719 52.757812 C 124.21875 53.289062 124.25 53.984375 124.480469 54.835938 C 124.738281 55.796875 125.066406 56.472656 125.464844 56.867188 C 125.859375 57.253906 126.328125 57.375 126.871094 57.226562 C 127.203125 57.144531 127.519531 56.957031 127.824219 56.664062 C 128.136719 56.375 128.355469 56.050781 128.480469 55.695312 Z M 139.125 54.8125 C 138.15625 55.074219 137.300781 54.964844 136.5625 54.484375 C 135.832031 54.007812 135.328125 53.234375 135.046875 52.171875 C 134.757812 51.101562 134.8125 50.171875 135.21875 49.390625 C 135.613281 48.609375 136.300781 48.089844 137.28125 47.828125 C 138.257812 47.570312 139.113281 47.679688 139.84375 48.15625 C 140.582031 48.625 141.097656 49.398438 141.390625 50.46875 C 141.679688 51.554688 141.625 52.480469 141.21875 53.25 C 140.820312 54.023438 140.125 54.542969 139.125 54.8125 Z M 139.03125 54.4375 C 139.59375 54.28125 139.972656 53.867188 140.171875 53.1875 C 140.367188 52.5 140.347656 51.710938 140.109375 50.8125 C 139.867188 49.929688 139.488281 49.242188 138.96875 48.75 C 138.457031 48.25 137.929688 48.074219 137.390625 48.21875 C 136.847656 48.367188 136.476562 48.78125 136.28125 49.46875 C 136.082031 50.148438 136.101562 50.929688 136.34375 51.8125 C 136.582031 52.699219 136.953125 53.390625 137.453125 53.890625 C 137.960938 54.390625 138.488281 54.574219 139.03125 54.4375 Z M 144 47.535156 C 144.175781 47.015625 144.441406 46.574219 144.796875 46.207031 C 145.160156 45.84375 145.570312 45.605469 146.03125 45.488281 C 146.601562 45.332031 147.101562 45.402344 147.53125 45.691406 C 147.96875 45.984375 148.273438 46.457031 148.453125 47.113281 L 149.28125 50.222656 L 149.484375 50.816406 C 149.546875 51.035156 149.617188 51.171875 149.703125 51.222656 C 149.785156 51.277344 149.945312 51.277344 150.1875 51.222656 L 150.609375 51.144531 L 150.734375 51.128906 L 150.828125 51.503906 L 147.359375 52.425781 L 147.265625 52.050781 L 147.359375 52.019531 L 147.78125 51.863281 C 148 51.792969 148.128906 51.714844 148.171875 51.628906 C 148.222656 51.546875 148.222656 51.390625 148.171875 51.160156 L 148.0625 50.550781 L 147.28125 47.628906 C 147.125 47.058594 146.941406 46.683594 146.734375 46.503906 C 146.523438 46.328125 146.234375 46.292969 145.859375 46.394531 C 145.316406 46.542969 144.734375 47.050781 144.109375 47.925781 L 145.03125 51.363281 C 145.113281 51.6875 145.222656 51.96875 145.359375 52.207031 C 145.410156 52.3125 145.46875 52.375 145.53125 52.394531 C 145.601562 52.417969 145.742188 52.40625 145.953125 52.363281 L 146.375 52.269531 L 146.515625 52.253906 L 146.609375 52.628906 L 143.109375 53.566406 L 143.015625 53.191406 L 143.125 53.144531 L 143.53125 53.003906 C 143.757812 52.933594 143.894531 52.855469 143.9375 52.769531 C 143.988281 52.6875 143.992188 52.527344 143.953125 52.285156 L 143.828125 51.691406 L 142.890625 48.191406 L 142.703125 47.597656 C 142.621094 47.378906 142.539062 47.246094 142.453125 47.191406 C 142.371094 47.140625 142.210938 47.136719 141.96875 47.175781 L 141.546875 47.253906 L 141.421875 47.285156 L 141.328125 46.910156 L 143.671875 46.285156 Z M 154.617188 40.117188 L 156.789062 48.210938 C 156.871094 48.535156 156.980469 48.816406 157.117188 49.054688 C 157.167969 49.160156 157.226562 49.222656 157.289062 49.242188 C 157.359375 49.265625 157.5 49.253906 157.710938 49.210938 L 158.132812 49.117188 L 158.273438 49.101562 L 158.367188 49.476562 L 154.867188 50.414062 L 154.773438 50.039062 L 154.882812 49.992188 L 155.289062 49.851562 C 155.515625 49.78125 155.652344 49.703125 155.695312 49.617188 C 155.746094 49.535156 155.75 49.375 155.710938 49.132812 L 155.585938 48.539062 L 153.835938 42.023438 L 153.648438 41.429688 C 153.566406 41.191406 153.488281 41.050781 153.414062 41.007812 C 153.332031 40.96875 153.164062 40.96875 152.914062 41.007812 L 152.507812 41.085938 L 152.382812 41.117188 L 152.273438 40.742188 Z M 159.367188 42.078125 L 160.726562 47.15625 C 160.808594 47.480469 160.917969 47.761719 161.054688 48 C 161.105469 48.105469 161.164062 48.167969 161.226562 48.1875 C 161.296875 48.210938 161.4375 48.199219 161.648438 48.15625 L 162.070312 48.0625 L 162.210938 48.046875 L 162.304688 48.421875 L 158.804688 49.359375 L 158.710938 48.984375 L 158.820312 48.9375 L 159.226562 48.796875 C 159.453125 48.726562 159.589844 48.648438 159.632812 48.5625 C 159.683594 48.480469 159.6875 48.320312 159.648438 48.078125 L 159.523438 47.484375 L 158.585938 43.984375 L 158.398438 43.390625 C 158.316406 43.171875 158.234375 43.039062 158.148438 42.984375 C 158.066406 42.933594 157.90625 42.929688 157.664062 42.96875 L 157.242188 43.046875 L 157.117188 43.078125 L 157.023438 42.703125 Z M 157.835938 41.203125 L 157.507812 39.984375 L 158.710938 39.65625 L 159.039062 40.875 Z M 163.558594 42.292969 C 163.734375 41.773438 164 41.332031 164.355469 40.964844 C 164.71875 40.601562 165.128906 40.363281 165.589844 40.246094 C 166.160156 40.089844 166.660156 40.160156 167.089844 40.449219 C 167.527344 40.742188 167.832031 41.214844 168.011719 41.871094 L 168.839844 44.980469 L 169.042969 45.574219 C 169.105469 45.792969 169.175781 45.929688 169.261719 45.980469 C 169.34375 46.035156 169.503906 46.035156 169.746094 45.980469 L 170.167969 45.902344 L 170.292969 45.886719 L 170.386719 46.261719 L 166.917969 47.183594 L 166.824219 46.808594 L 166.917969 46.777344 L 167.339844 46.621094 C 167.558594 46.550781 167.6875 46.472656 167.730469 46.386719 C 167.78125 46.304688 167.78125 46.148438 167.730469 45.917969 L 167.621094 45.308594 L 166.839844 42.386719 C 166.683594 41.816406 166.5 41.441406 166.292969 41.261719 C 166.082031 41.085938 165.792969 41.050781 165.417969 41.152344 C 164.875 41.300781 164.292969 41.808594 163.667969 42.683594 L 164.589844 46.121094 C 164.671875 46.445312 164.78125 46.726562 164.917969 46.964844 C 164.96875 47.070312 165.027344 47.132812 165.089844 47.152344 C 165.160156 47.175781 165.300781 47.164062 165.511719 47.121094 L 165.933594 47.027344 L 166.074219 47.011719 L 166.167969 47.386719 L 162.667969 48.324219 L 162.574219 47.949219 L 162.683594 47.902344 L 163.089844 47.761719 C 163.316406 47.691406 163.453125 47.613281 163.496094 47.527344 C 163.546875 47.445312 163.550781 47.285156 163.511719 47.042969 L 163.386719 46.449219 L 162.449219 42.949219 L 162.261719 42.355469 C 162.179688 42.136719 162.097656 42.003906 162.011719 41.949219 C 161.929688 41.898438 161.769531 41.894531 161.527344 41.933594 L 161.105469 42.011719 L 160.980469 42.042969 L 160.886719 41.667969 L 163.230469 41.042969 Z M 176.308594 44.355469 C 175.628906 44.867188 174.972656 45.207031 174.339844 45.371094 C 173.359375 45.632812 172.472656 45.519531 171.683594 45.027344 C 170.902344 44.527344 170.371094 43.757812 170.089844 42.714844 C 169.820312 41.707031 169.871094 40.808594 170.246094 40.027344 C 170.621094 39.238281 171.234375 38.726562 172.089844 38.496094 C 172.890625 38.289062 173.574219 38.398438 174.136719 38.824219 C 174.707031 39.242188 175.125 39.945312 175.386719 40.933594 L 175.417969 41.058594 L 171.371094 42.152344 C 171.621094 43.070312 171.933594 43.714844 172.308594 44.089844 C 172.878906 44.714844 173.5625 44.925781 174.355469 44.714844 C 175.105469 44.507812 175.699219 44.179688 176.136719 43.730469 Z M 171.292969 41.761719 L 174.042969 41.027344 L 173.980469 40.761719 C 173.855469 40.273438 173.738281 39.917969 173.636719 39.699219 C 173.53125 39.480469 173.394531 39.300781 173.230469 39.152344 C 172.894531 38.882812 172.527344 38.804688 172.121094 38.917969 C 171.671875 39.035156 171.371094 39.351562 171.214844 39.871094 C 171.066406 40.382812 171.09375 41.011719 171.292969 41.761719 Z M 171.292969 41.761719 "/>
<path style=" stroke:none;fill-rule:evenodd;fill:rgb(0%,0%,0%);fill-opacity:1;" d="M 371.816406 145.496094 C 371.304688 145.214844 370.925781 144.933594 370.675781 144.652344 C 370.433594 144.378906 370.261719 144.046875 370.160156 143.652344 C 370.011719 143.089844 370.070312 142.574219 370.332031 142.105469 C 370.589844 141.636719 370.992188 141.328125 371.535156 141.183594 C 372.160156 141.019531 372.730469 141.121094 373.253906 141.496094 C 373.585938 141.746094 373.855469 142.0625 374.066406 142.449219 C 374.285156 142.84375 374.492188 143.417969 374.691406 144.167969 L 374.753906 144.417969 L 375.582031 144.199219 C 376.632812 143.917969 377.054688 143.375 376.847656 142.574219 C 376.742188 142.199219 376.535156 141.902344 376.222656 141.683594 C 376.042969 141.546875 375.730469 141.519531 375.285156 141.605469 L 375.175781 141.621094 L 374.957031 140.792969 L 376.175781 140.464844 C 376.777344 141.214844 377.179688 141.949219 377.378906 142.667969 C 377.542969 143.300781 377.535156 143.859375 377.347656 144.339844 C 377.210938 144.640625 377.050781 144.863281 376.863281 145.011719 C 376.675781 145.15625 376.371094 145.28125 375.957031 145.386719 L 372.988281 146.183594 C 372.457031 146.328125 372.089844 146.472656 371.894531 146.621094 C 371.707031 146.777344 371.644531 146.96875 371.707031 147.199219 C 371.714844 147.269531 371.761719 147.371094 371.847656 147.496094 L 371.410156 147.667969 C 371.222656 147.40625 371.097656 147.160156 371.035156 146.933594 C 370.878906 146.339844 371.136719 145.859375 371.816406 145.496094 Z M 371.863281 145.199219 L 374.378906 144.527344 L 374.300781 144.246094 C 374.113281 143.527344 373.820312 143.003906 373.425781 142.683594 C 373.027344 142.371094 372.570312 142.28125 372.050781 142.417969 C 371.664062 142.519531 371.371094 142.730469 371.175781 143.042969 C 370.988281 143.355469 370.945312 143.699219 371.050781 144.074219 C 371.144531 144.425781 371.414062 144.800781 371.863281 145.199219 Z M 377.550781 148.960938 C 378.070312 149.136719 378.511719 149.402344 378.878906 149.757812 C 379.242188 150.121094 379.480469 150.53125 379.597656 150.992188 C 379.753906 151.5625 379.683594 152.0625 379.394531 152.492188 C 379.101562 152.929688 378.628906 153.234375 377.972656 153.414062 L 374.863281 154.242188 L 374.269531 154.445312 C 374.050781 154.507812 373.914062 154.578125 373.863281 154.664062 C 373.808594 154.746094 373.808594 154.90625 373.863281 155.148438 L 373.941406 155.570312 L 373.957031 155.695312 L 373.582031 155.789062 L 372.660156 152.320312 L 373.035156 152.226562 L 373.066406 152.320312 L 373.222656 152.742188 C 373.292969 152.960938 373.371094 153.089844 373.457031 153.132812 C 373.539062 153.183594 373.695312 153.183594 373.925781 153.132812 L 374.535156 153.023438 L 377.457031 152.242188 C 378.027344 152.085938 378.402344 151.902344 378.582031 151.695312 C 378.757812 151.484375 378.792969 151.195312 378.691406 150.820312 C 378.542969 150.277344 378.035156 149.695312 377.160156 149.070312 L 373.722656 149.992188 C 373.398438 150.074219 373.117188 150.183594 372.878906 150.320312 C 372.773438 150.371094 372.710938 150.429688 372.691406 150.492188 C 372.667969 150.5625 372.679688 150.703125 372.722656 150.914062 L 372.816406 151.335938 L 372.832031 151.476562 L 372.457031 151.570312 L 371.519531 148.070312 L 371.894531 147.976562 L 371.941406 148.085938 L 372.082031 148.492188 C 372.152344 148.71875 372.230469 148.855469 372.316406 148.898438 C 372.398438 148.949219 372.558594 148.953125 372.800781 148.914062 L 373.394531 148.789062 L 376.894531 147.851562 L 377.488281 147.664062 C 377.707031 147.582031 377.839844 147.5 377.894531 147.414062 C 377.945312 147.332031 377.949219 147.171875 377.910156 146.929688 L 377.832031 146.507812 L 377.800781 146.382812 L 378.175781 146.289062 L 378.800781 148.632812 Z M 374.304688 157.460938 C 374.398438 156.9375 374.625 156.632812 374.992188 156.539062 C 375.230469 156.476562 375.460938 156.5 375.679688 156.617188 C 375.898438 156.742188 376.179688 156.992188 376.523438 157.367188 C 376.585938 156.886719 376.773438 156.476562 377.085938 156.132812 C 377.398438 155.796875 377.792969 155.566406 378.273438 155.429688 C 378.980469 155.242188 379.609375 155.320312 380.164062 155.664062 C 380.714844 156.007812 381.09375 156.558594 381.304688 157.320312 C 381.429688 157.789062 381.449219 158.242188 381.367188 158.679688 L 382.195312 160.960938 L 381.351562 160.835938 L 381.195312 159.179688 C 380.828125 159.835938 380.308594 160.25 379.632812 160.429688 C 378.945312 160.617188 378.3125 160.539062 377.742188 160.195312 C 377.179688 159.859375 376.796875 159.335938 376.601562 158.617188 C 376.527344 158.34375 376.496094 158.042969 376.507812 157.710938 C 376.203125 157.480469 375.917969 157.402344 375.648438 157.476562 C 375.355469 157.558594 375.277344 157.859375 375.414062 158.382812 L 375.695312 159.429688 C 375.976562 160.492188 376.054688 161.214844 375.929688 161.601562 C 375.792969 162.070312 375.449219 162.375 374.898438 162.523438 C 374.261719 162.6875 373.679688 162.53125 373.148438 162.054688 C 372.609375 161.585938 372.207031 160.871094 371.945312 159.914062 C 371.695312 158.996094 371.628906 158.226562 371.742188 157.601562 C 371.847656 156.976562 372.117188 156.605469 372.554688 156.492188 C 373.109375 156.335938 373.6875 156.65625 374.304688 157.460938 Z M 378.679688 156.632812 C 377.304688 156.996094 376.730469 157.605469 376.960938 158.460938 C 377.074219 158.886719 377.328125 159.164062 377.726562 159.289062 C 378.132812 159.421875 378.664062 159.402344 379.320312 159.226562 C 379.945312 159.058594 380.390625 158.820312 380.664062 158.507812 C 380.933594 158.203125 381.015625 157.84375 380.914062 157.429688 C 380.796875 157.011719 380.546875 156.734375 380.164062 156.601562 C 379.777344 156.464844 379.28125 156.476562 378.679688 156.632812 Z M 374.289062 157.789062 C 373.914062 157.570312 373.503906 157.515625 373.054688 157.632812 C 372.671875 157.734375 372.414062 157.984375 372.289062 158.382812 C 372.15625 158.789062 372.164062 159.277344 372.320312 159.851562 C 372.476562 160.453125 372.734375 160.898438 373.085938 161.179688 C 373.441406 161.460938 373.839844 161.542969 374.289062 161.429688 C 374.621094 161.335938 374.828125 161.171875 374.914062 160.945312 C 375.007812 160.726562 374.984375 160.375 374.851562 159.898438 Z M 385.863281 162.925781 L 377.769531 165.097656 C 377.445312 165.179688 377.164062 165.289062 376.925781 165.425781 C 376.820312 165.476562 376.757812 165.535156 376.738281 165.597656 C 376.714844 165.667969 376.726562 165.808594 376.769531 166.019531 L 376.863281 166.441406 L 376.878906 166.582031 L 376.503906 166.675781 L 375.566406 163.175781 L 375.941406 163.082031 L 375.988281 163.191406 L 376.128906 163.597656 C 376.199219 163.824219 376.277344 163.960938 376.363281 164.003906 C 376.445312 164.054688 376.605469 164.058594 376.847656 164.019531 L 377.441406 163.894531 L 383.957031 162.144531 L 384.550781 161.957031 C 384.789062 161.875 384.929688 161.796875 384.972656 161.722656 C 385.011719 161.640625 385.011719 161.472656 384.972656 161.222656 L 384.894531 160.816406 L 384.863281 160.691406 L 385.238281 160.582031 Z M 378.46875 172.820312 C 377.957031 172.140625 377.617188 171.484375 377.453125 170.851562 C 377.191406 169.871094 377.304688 168.984375 377.796875 168.195312 C 378.296875 167.414062 379.066406 166.882812 380.109375 166.601562 C 381.117188 166.332031 382.015625 166.382812 382.796875 166.757812 C 383.585938 167.132812 384.097656 167.746094 384.328125 168.601562 C 384.535156 169.402344 384.425781 170.085938 384 170.648438 C 383.582031 171.21875 382.878906 171.636719 381.890625 171.898438 L 381.765625 171.929688 L 380.671875 167.882812 C 379.753906 168.132812 379.109375 168.445312 378.734375 168.820312 C 378.109375 169.390625 377.898438 170.074219 378.109375 170.867188 C 378.316406 171.617188 378.644531 172.210938 379.09375 172.648438 Z M 381.0625 167.804688 L 381.796875 170.554688 L 382.0625 170.492188 C 382.550781 170.367188 382.90625 170.25 383.125 170.148438 C 383.34375 170.042969 383.523438 169.90625 383.671875 169.742188 C 383.941406 169.40625 384.019531 169.039062 383.90625 168.632812 C 383.789062 168.183594 383.472656 167.882812 382.953125 167.726562 C 382.441406 167.578125 381.8125 167.605469 381.0625 167.804688 Z M 379.59375 178.242188 L 382.921875 177.351562 L 382.03125 174.023438 L 382.640625 173.851562 L 383.53125 177.179688 L 386.859375 176.304688 L 387.03125 176.914062 L 383.703125 177.789062 L 384.59375 181.117188 L 383.984375 181.289062 L 383.09375 177.960938 L 379.765625 178.851562 Z M 386.550781 184.792969 L 383.285156 185.667969 C 382.960938 185.75 382.679688 185.859375 382.441406 185.996094 C 382.335938 186.046875 382.273438 186.105469 382.253906 186.167969 C 382.230469 186.238281 382.242188 186.378906 382.285156 186.589844 L 382.378906 187.011719 L 382.425781 187.292969 L 382.050781 187.386719 L 381.082031 183.746094 L 381.457031 183.652344 L 381.503906 183.761719 L 381.644531 184.167969 C 381.714844 184.394531 381.792969 184.53125 381.878906 184.574219 C 381.960938 184.625 382.121094 184.628906 382.363281 184.589844 L 382.957031 184.464844 L 386.457031 183.527344 L 387.050781 183.339844 C 387.269531 183.257812 387.402344 183.175781 387.457031 183.089844 C 387.507812 183.007812 387.511719 182.847656 387.472656 182.605469 L 387.394531 182.183594 L 387.363281 182.058594 L 387.738281 181.964844 L 388.363281 184.308594 L 387.113281 184.636719 C 388.195312 184.9375 388.855469 185.535156 389.097656 186.433594 C 389.128906 186.558594 389.136719 186.703125 389.128906 186.871094 L 387.316406 187.355469 L 387.144531 186.683594 L 387.238281 186.636719 L 387.691406 186.449219 C 387.816406 186.394531 387.894531 186.339844 387.925781 186.277344 C 387.957031 186.222656 387.957031 186.140625 387.925781 186.027344 C 387.839844 185.734375 387.679688 185.484375 387.441406 185.277344 C 387.210938 185.066406 386.914062 184.90625 386.550781 184.792969 Z M 383.339844 192.851562 C 383.078125 191.882812 383.1875 191.027344 383.667969 190.289062 C 384.144531 189.558594 384.917969 189.054688 385.980469 188.773438 C 387.050781 188.484375 387.980469 188.539062 388.761719 188.945312 C 389.542969 189.339844 390.0625 190.027344 390.324219 191.007812 C 390.582031 191.984375 390.472656 192.839844 389.996094 193.570312 C 389.527344 194.308594 388.753906 194.824219 387.683594 195.117188 C 386.597656 195.40625 385.671875 195.351562 384.902344 194.945312 C 384.128906 194.546875 383.609375 193.851562 383.339844 192.851562 Z M 383.714844 192.757812 C 383.871094 193.320312 384.285156 193.699219 384.964844 193.898438 C 385.652344 194.09375 386.441406 194.074219 387.339844 193.835938 C 388.222656 193.59375 388.910156 193.214844 389.402344 192.695312 C 389.902344 192.183594 390.078125 191.65625 389.933594 191.117188 C 389.785156 190.574219 389.371094 190.203125 388.683594 190.007812 C 388.003906 189.808594 387.222656 189.828125 386.339844 190.070312 C 385.453125 190.308594 384.761719 190.679688 384.261719 191.179688 C 383.761719 191.6875 383.578125 192.214844 383.714844 192.757812 Z M 385.742188 201.019531 C 385.53125 200.746094 385.390625 200.476562 385.320312 200.207031 C 385.152344 199.582031 385.179688 199.039062 385.398438 198.582031 C 385.542969 198.308594 385.726562 198.105469 385.945312 197.972656 C 386.171875 197.835938 386.527344 197.699219 387.007812 197.566406 L 391.085938 196.472656 L 390.820312 195.488281 L 391.320312 195.363281 L 391.585938 196.347656 L 392.789062 196.019531 L 393.429688 197.144531 L 391.914062 197.550781 L 392.398438 199.410156 L 391.898438 199.535156 L 391.414062 197.675781 L 387.179688 198.816406 C 386.59375 198.972656 386.21875 199.128906 386.054688 199.285156 C 385.8125 199.535156 385.746094 199.855469 385.851562 200.253906 C 385.902344 200.441406 386.03125 200.652344 386.242188 200.894531 Z M 385.742188 201.019531 "/>
<path style=" stroke:none;fill-rule:evenodd;fill:rgb(0%,0%,0%);fill-opacity:1;" d="M 23.460938 167.6875 L 23.460938 170.171875 L 23.507812 170.796875 C 23.507812 171.058594 23.546875 171.21875 23.632812 171.28125 C 23.714844 171.34375 23.960938 171.386719 24.367188 171.40625 L 24.492188 171.421875 L 24.492188 171.8125 L 20.960938 171.8125 L 20.960938 171.421875 L 21.085938 171.40625 L 21.507812 171.375 C 21.757812 171.367188 21.914062 171.328125 21.976562 171.265625 C 22.046875 171.195312 22.089844 171.039062 22.101562 170.796875 L 22.148438 170.171875 L 22.148438 164.0625 L 22.101562 163.4375 C 22.089844 163.199219 22.046875 163.046875 21.976562 162.984375 C 21.914062 162.914062 21.757812 162.867188 21.507812 162.84375 L 21.085938 162.8125 L 20.960938 162.8125 L 20.960938 162.421875 L 23.226562 162.421875 L 23.851562 162.40625 L 24.882812 162.375 C 25.828125 162.375 26.546875 162.578125 27.039062 162.984375 C 27.539062 163.382812 27.789062 163.96875 27.789062 164.75 C 27.789062 165.386719 27.621094 165.933594 27.289062 166.390625 C 26.953125 166.839844 26.476562 167.171875 25.851562 167.390625 L 27.695312 170.15625 L 28.273438 170.96875 C 28.40625 171.148438 28.515625 171.261719 28.601562 171.3125 C 28.683594 171.367188 28.804688 171.390625 28.960938 171.390625 C 29.023438 171.390625 29.167969 171.398438 29.398438 171.40625 L 29.523438 171.421875 L 29.523438 171.8125 L 27.132812 171.8125 L 24.554688 167.6875 Z M 23.476562 167.25 L 23.945312 167.25 C 24.496094 167.25 24.933594 167.1875 25.257812 167.0625 C 25.578125 166.929688 25.839844 166.703125 26.039062 166.390625 C 26.296875 166.007812 26.429688 165.507812 26.429688 164.890625 C 26.429688 164.265625 26.308594 163.78125 26.070312 163.4375 C 25.914062 163.21875 25.710938 163.070312 25.460938 162.984375 C 25.210938 162.890625 24.851562 162.84375 24.382812 162.84375 L 23.476562 162.84375 Z M 33.398438 171.96875 C 32.398438 171.96875 31.605469 171.648438 31.023438 171 C 30.4375 170.34375 30.148438 169.464844 30.148438 168.359375 C 30.148438 167.257812 30.4375 166.382812 31.023438 165.734375 C 31.617188 165.089844 32.421875 164.765625 33.445312 164.765625 C 34.453125 164.765625 35.25 165.089844 35.835938 165.734375 C 36.429688 166.382812 36.726562 167.257812 36.726562 168.359375 C 36.726562 169.484375 36.429688 170.371094 35.835938 171.015625 C 35.25 171.652344 34.4375 171.96875 33.398438 171.96875 Z M 33.414062 171.578125 C 33.996094 171.578125 34.46875 171.277344 34.835938 170.671875 C 35.210938 170.070312 35.398438 169.296875 35.398438 168.359375 C 35.398438 167.445312 35.210938 166.683594 34.835938 166.078125 C 34.460938 165.464844 33.996094 165.15625 33.445312 165.15625 C 32.882812 165.15625 32.414062 165.464844 32.039062 166.078125 C 31.671875 166.683594 31.492188 167.445312 31.492188 168.359375 C 31.492188 169.277344 31.671875 170.042969 32.039062 170.65625 C 32.402344 171.273438 32.859375 171.578125 33.414062 171.578125 Z M 41.929688 171.78125 C 41.605469 171.90625 41.304688 171.96875 41.023438 171.96875 C 40.375 171.96875 39.867188 171.804688 39.492188 171.46875 C 39.261719 171.273438 39.105469 171.046875 39.023438 170.796875 C 38.949219 170.539062 38.914062 170.15625 38.914062 169.65625 L 38.914062 165.4375 L 37.898438 165.4375 L 37.898438 164.921875 L 38.914062 164.921875 L 38.914062 163.671875 L 40.164062 163.359375 L 40.164062 164.921875 L 42.085938 164.921875 L 42.085938 165.4375 L 40.164062 165.4375 L 40.164062 169.828125 C 40.164062 170.433594 40.21875 170.828125 40.335938 171.015625 C 40.511719 171.320312 40.804688 171.46875 41.210938 171.46875 C 41.40625 171.46875 41.648438 171.402344 41.929688 171.265625 Z M 43.382812 168.359375 L 43.382812 167.578125 L 49.023438 167.578125 L 49.023438 168.359375 Z M 58.257812 171.3125 C 57.402344 171.804688 56.40625 172.046875 55.273438 172.046875 C 53.835938 172.046875 52.699219 171.605469 51.867188 170.71875 C 51.042969 169.835938 50.632812 168.625 50.632812 167.09375 C 50.632812 165.367188 51.132812 164.054688 52.132812 163.15625 C 52.871094 162.511719 53.890625 162.1875 55.195312 162.1875 C 55.921875 162.1875 56.808594 162.324219 57.851562 162.59375 L 58.085938 162.65625 L 58.085938 164.453125 L 57.304688 164.453125 L 57.304688 164.328125 C 57.292969 164.195312 57.289062 164.070312 57.289062 163.953125 C 57.289062 163.601562 57.199219 163.34375 57.023438 163.1875 C 56.824219 163.023438 56.542969 162.886719 56.179688 162.78125 C 55.824219 162.667969 55.480469 162.609375 55.148438 162.609375 C 54.1875 162.609375 53.421875 163.015625 52.851562 163.828125 C 52.289062 164.640625 52.007812 165.726562 52.007812 167.078125 C 52.007812 168.445312 52.339844 169.511719 53.007812 170.28125 C 53.671875 171.042969 54.601562 171.421875 55.789062 171.421875 C 56.558594 171.421875 57.382812 171.183594 58.257812 170.703125 Z M 63.898438 170.859375 C 63.480469 171.277344 63.105469 171.570312 62.773438 171.734375 C 62.449219 171.890625 62.085938 171.96875 61.679688 171.96875 C 61.09375 171.96875 60.609375 171.789062 60.226562 171.421875 C 59.839844 171.046875 59.648438 170.578125 59.648438 170.015625 C 59.648438 169.371094 59.898438 168.84375 60.398438 168.4375 C 60.71875 168.179688 61.101562 167.996094 61.539062 167.890625 C 61.976562 167.789062 62.578125 167.734375 63.351562 167.734375 L 63.617188 167.734375 L 63.617188 166.875 C 63.617188 165.792969 63.199219 165.25 62.367188 165.25 C 61.980469 165.25 61.640625 165.371094 61.351562 165.609375 C 61.171875 165.746094 61.0625 166.039062 61.023438 166.484375 L 61.007812 166.609375 L 60.164062 166.609375 L 60.164062 165.34375 C 61.039062 164.960938 61.851562 164.765625 62.601562 164.765625 C 63.257812 164.765625 63.789062 164.917969 64.195312 165.21875 C 64.453125 165.417969 64.632812 165.632812 64.726562 165.859375 C 64.820312 166.078125 64.867188 166.402344 64.867188 166.828125 L 64.867188 169.90625 C 64.867188 170.460938 64.914062 170.851562 65.007812 171.078125 C 65.101562 171.296875 65.265625 171.40625 65.507812 171.40625 C 65.578125 171.40625 65.6875 171.386719 65.835938 171.34375 L 65.882812 171.8125 C 65.578125 171.914062 65.308594 171.96875 65.070312 171.96875 C 64.453125 171.96875 64.0625 171.601562 63.898438 170.859375 Z M 63.617188 170.734375 L 63.617188 168.125 L 63.320312 168.125 C 62.578125 168.125 62 168.277344 61.585938 168.578125 C 61.179688 168.882812 60.976562 169.304688 60.976562 169.84375 C 60.976562 170.242188 61.101562 170.574219 61.351562 170.84375 C 61.609375 171.105469 61.933594 171.234375 62.320312 171.234375 C 62.683594 171.234375 63.117188 171.070312 63.617188 170.734375 Z M 72.023438 171.578125 C 71.367188 171.835938 70.71875 171.96875 70.085938 171.96875 C 69.074219 171.96875 68.257812 171.636719 67.632812 170.96875 C 67.007812 170.292969 66.695312 169.414062 66.695312 168.328125 C 66.695312 167.257812 66.996094 166.398438 67.601562 165.75 C 68.203125 165.09375 69 164.765625 69.992188 164.765625 C 70.511719 164.765625 71.1875 164.871094 72.023438 165.078125 L 72.023438 166.71875 L 71.242188 166.71875 L 71.242188 166.609375 C 71.242188 166.109375 71.164062 165.765625 71.007812 165.578125 C 70.765625 165.320312 70.429688 165.1875 69.992188 165.1875 C 69.386719 165.1875 68.902344 165.464844 68.539062 166.015625 C 68.183594 166.558594 68.007812 167.304688 68.007812 168.25 C 68.007812 169.210938 68.214844 169.964844 68.632812 170.515625 C 69.058594 171.070312 69.636719 171.34375 70.367188 171.34375 C 70.992188 171.34375 71.542969 171.242188 72.023438 171.03125 Z M 75.335938 166.21875 C 75.636719 165.761719 76.007812 165.40625 76.445312 165.15625 C 76.890625 164.898438 77.351562 164.765625 77.820312 164.765625 C 78.414062 164.765625 78.875 164.964844 79.210938 165.359375 C 79.554688 165.746094 79.726562 166.277344 79.726562 166.953125 L 79.726562 170.171875 L 79.773438 170.796875 C 79.78125 171.039062 79.820312 171.195312 79.882812 171.265625 C 79.953125 171.328125 80.109375 171.367188 80.351562 171.375 L 80.789062 171.40625 L 80.898438 171.421875 L 80.898438 171.8125 L 77.304688 171.8125 L 77.304688 171.421875 L 77.414062 171.40625 L 77.851562 171.375 C 78.089844 171.367188 78.242188 171.328125 78.304688 171.265625 C 78.375 171.195312 78.417969 171.039062 78.429688 170.796875 L 78.476562 170.171875 L 78.476562 167.15625 C 78.476562 166.5625 78.398438 166.152344 78.242188 165.921875 C 78.085938 165.695312 77.808594 165.578125 77.414062 165.578125 C 76.851562 165.578125 76.15625 165.929688 75.335938 166.625 L 75.335938 170.171875 C 75.335938 170.515625 75.367188 170.820312 75.429688 171.078125 C 75.449219 171.195312 75.492188 171.273438 75.554688 171.3125 C 75.625 171.34375 75.761719 171.367188 75.960938 171.375 L 76.398438 171.40625 L 76.523438 171.421875 L 76.523438 171.8125 L 72.914062 171.8125 L 72.914062 171.421875 L 73.039062 171.40625 L 73.460938 171.375 C 73.710938 171.367188 73.867188 171.328125 73.929688 171.265625 C 73.992188 171.195312 74.03125 171.039062 74.054688 170.796875 L 74.085938 170.171875 L 74.085938 163.4375 L 74.054688 162.8125 C 74.03125 162.5625 73.992188 162.40625 73.929688 162.34375 C 73.867188 162.28125 73.710938 162.242188 73.460938 162.21875 L 73.039062 162.1875 L 72.914062 162.1875 L 72.914062 161.796875 L 75.335938 161.796875 Z M 87.117188 171.5 C 86.324219 171.8125 85.601562 171.96875 84.945312 171.96875 C 83.933594 171.96875 83.109375 171.632812 82.476562 170.953125 C 81.839844 170.265625 81.523438 169.382812 81.523438 168.296875 C 81.523438 167.257812 81.804688 166.40625 82.367188 165.75 C 82.9375 165.09375 83.667969 164.765625 84.554688 164.765625 C 85.386719 164.765625 86.023438 165.042969 86.460938 165.59375 C 86.898438 166.148438 87.117188 166.9375 87.117188 167.96875 L 87.117188 168.09375 L 82.914062 168.09375 C 82.914062 169.042969 83.042969 169.75 83.304688 170.21875 C 83.710938 170.96875 84.320312 171.34375 85.132812 171.34375 C 85.914062 171.34375 86.574219 171.183594 87.117188 170.859375 Z M 82.929688 167.703125 L 85.789062 167.703125 L 85.804688 167.421875 C 85.804688 166.921875 85.777344 166.554688 85.726562 166.3125 C 85.683594 166.074219 85.601562 165.867188 85.476562 165.6875 C 85.226562 165.335938 84.890625 165.15625 84.476562 165.15625 C 84.007812 165.15625 83.632812 165.386719 83.351562 165.84375 C 83.070312 166.304688 82.929688 166.921875 82.929688 167.703125 Z M 93.460938 171.8125 L 93.460938 170.515625 C 92.84375 171.484375 92.039062 171.96875 91.039062 171.96875 C 90.265625 171.96875 89.648438 171.664062 89.179688 171.046875 C 88.71875 170.433594 88.492188 169.605469 88.492188 168.5625 C 88.492188 167.417969 88.757812 166.5 89.289062 165.8125 C 89.820312 165.117188 90.523438 164.765625 91.398438 164.765625 C 92.199219 164.765625 92.886719 165.078125 93.460938 165.703125 L 93.460938 163.4375 C 93.460938 163.085938 93.433594 162.777344 93.382812 162.515625 C 93.351562 162.402344 93.296875 162.328125 93.226562 162.296875 C 93.164062 162.257812 93.03125 162.230469 92.835938 162.21875 L 92.414062 162.1875 L 92.289062 162.1875 L 92.289062 161.796875 L 94.726562 161.796875 L 94.726562 170.171875 C 94.726562 170.515625 94.75 170.820312 94.804688 171.078125 C 94.824219 171.195312 94.867188 171.273438 94.929688 171.3125 C 95 171.34375 95.140625 171.367188 95.351562 171.375 L 95.773438 171.40625 L 95.898438 171.421875 L 95.898438 171.8125 Z M 93.460938 166.1875 C 92.8125 165.710938 92.179688 165.46875 91.554688 165.46875 C 90.992188 165.46875 90.558594 165.710938 90.257812 166.1875 C 89.964844 166.65625 89.820312 167.335938 89.820312 168.21875 C 89.820312 169.210938 89.960938 169.949219 90.242188 170.4375 C 90.523438 170.917969 90.945312 171.15625 91.507812 171.15625 C 91.851562 171.15625 92.210938 171.058594 92.585938 170.859375 C 92.960938 170.652344 93.25 170.390625 93.460938 170.078125 Z M 93.460938 166.1875 "/>
<path style=" stroke:none;fill-rule:evenodd;fill:rgb(0%,0%,0%);fill-opacity:1;" d="M 177.765625 152.414062 L 177.765625 154.695312 L 177.8125 155.320312 C 177.820312 155.5625 177.859375 155.71875 177.921875 155.789062 C 177.992188 155.851562 178.148438 155.890625 178.390625 155.898438 L 178.828125 155.929688 L 179.09375 155.945312 L 179.09375 156.335938 L 175.265625 156.335938 L 175.265625 155.945312 L 175.390625 155.929688 L 175.8125 155.898438 C 176.0625 155.890625 176.21875 155.851562 176.28125 155.789062 C 176.351562 155.71875 176.394531 155.5625 176.40625 155.320312 L 176.453125 154.695312 L 176.453125 148.585938 L 176.40625 147.960938 C 176.394531 147.722656 176.351562 147.570312 176.28125 147.507812 C 176.21875 147.4375 176.0625 147.390625 175.8125 147.367188 L 175.390625 147.335938 L 175.265625 147.335938 L 175.265625 146.945312 L 178.0625 146.945312 L 179 146.914062 L 179.4375 146.898438 C 180.300781 146.898438 180.972656 147.117188 181.453125 147.554688 C 181.929688 147.984375 182.171875 148.59375 182.171875 149.382812 C 182.171875 151.40625 180.835938 152.414062 178.171875 152.414062 Z M 177.765625 151.992188 L 178.25 151.992188 C 179.0625 151.992188 179.679688 151.773438 180.109375 151.335938 C 180.546875 150.890625 180.765625 150.242188 180.765625 149.398438 C 180.765625 148.671875 180.601562 148.148438 180.28125 147.835938 C 179.96875 147.523438 179.4375 147.367188 178.6875 147.367188 L 177.765625 147.367188 Z M 186.328125 156.492188 C 185.328125 156.492188 184.535156 156.171875 183.953125 155.523438 C 183.367188 154.867188 183.078125 153.988281 183.078125 152.882812 C 183.078125 151.78125 183.367188 150.90625 183.953125 150.257812 C 184.546875 149.613281 185.351562 149.289062 186.375 149.289062 C 187.382812 149.289062 188.179688 149.613281 188.765625 150.257812 C 189.359375 150.90625 189.65625 151.78125 189.65625 152.882812 C 189.65625 154.007812 189.359375 154.894531 188.765625 155.539062 C 188.179688 156.175781 187.367188 156.492188 186.328125 156.492188 Z M 186.34375 156.101562 C 186.925781 156.101562 187.398438 155.800781 187.765625 155.195312 C 188.140625 154.59375 188.328125 153.820312 188.328125 152.882812 C 188.328125 151.96875 188.140625 151.207031 187.765625 150.601562 C 187.390625 149.988281 186.925781 149.679688 186.375 149.679688 C 185.8125 149.679688 185.34375 149.988281 184.96875 150.601562 C 184.601562 151.207031 184.421875 151.96875 184.421875 152.882812 C 184.421875 153.800781 184.601562 154.566406 184.96875 155.179688 C 185.332031 155.796875 185.789062 156.101562 186.34375 156.101562 Z M 192.9375 146.320312 L 192.9375 154.695312 C 192.9375 155.039062 192.96875 155.34375 193.03125 155.601562 C 193.050781 155.71875 193.09375 155.796875 193.15625 155.835938 C 193.226562 155.867188 193.363281 155.890625 193.5625 155.898438 L 194 155.929688 L 194.125 155.945312 L 194.125 156.335938 L 190.515625 156.335938 L 190.515625 155.945312 L 190.640625 155.929688 L 191.0625 155.898438 C 191.3125 155.890625 191.46875 155.851562 191.53125 155.789062 C 191.59375 155.71875 191.632812 155.5625 191.65625 155.320312 L 191.6875 154.695312 L 191.6875 147.960938 L 191.65625 147.335938 C 191.632812 147.085938 191.59375 146.929688 191.53125 146.867188 C 191.46875 146.804688 191.3125 146.765625 191.0625 146.742188 L 190.640625 146.710938 L 190.515625 146.710938 L 190.515625 146.320312 Z M 195.40625 158.835938 L 197.671875 156.335938 L 195.5 151.117188 C 195.269531 150.554688 195.097656 150.207031 194.984375 150.070312 C 194.878906 149.9375 194.710938 149.859375 194.484375 149.835938 L 194.359375 149.835938 L 194.359375 149.445312 L 197.515625 149.445312 L 197.515625 149.835938 L 196.96875 149.835938 C 196.664062 149.835938 196.515625 149.914062 196.515625 150.070312 C 196.515625 150.113281 196.53125 150.175781 196.5625 150.257812 C 196.582031 150.300781 196.632812 150.441406 196.71875 150.679688 C 196.757812 150.816406 196.8125 150.960938 196.875 151.117188 L 198.421875 154.804688 L 200.0625 151.085938 L 200.21875 150.710938 L 200.390625 150.257812 C 200.410156 150.207031 200.421875 150.148438 200.421875 150.085938 C 200.421875 149.921875 200.265625 149.835938 199.953125 149.835938 L 199.484375 149.835938 L 199.484375 149.445312 L 201.53125 149.445312 L 201.53125 149.835938 L 201.40625 149.835938 C 201.25 149.859375 201.125 149.921875 201.03125 150.023438 C 200.9375 150.117188 200.835938 150.296875 200.734375 150.554688 C 200.703125 150.640625 200.617188 150.820312 200.484375 151.101562 L 197 158.835938 Z M 203.328125 156.070312 C 202.847656 155.851562 202.609375 155.550781 202.609375 155.164062 C 202.609375 154.925781 202.695312 154.71875 202.875 154.539062 C 203.050781 154.351562 203.363281 154.144531 203.8125 153.914062 C 203.375 153.726562 203.03125 153.441406 202.78125 153.054688 C 202.53125 152.660156 202.40625 152.210938 202.40625 151.710938 C 202.40625 150.984375 202.640625 150.398438 203.109375 149.960938 C 203.585938 149.515625 204.222656 149.289062 205.015625 149.289062 C 205.492188 149.289062 205.929688 149.378906 206.328125 149.554688 L 208.75 149.367188 L 208.421875 150.132812 L 206.765625 149.867188 C 207.304688 150.390625 207.578125 151 207.578125 151.695312 C 207.578125 152.40625 207.335938 152.992188 206.859375 153.460938 C 206.390625 153.921875 205.785156 154.148438 205.046875 154.148438 C 204.765625 154.148438 204.46875 154.101562 204.15625 154.007812 C 203.851562 154.25 203.703125 154.507812 203.703125 154.789062 C 203.703125 155.09375 203.96875 155.242188 204.5 155.242188 L 205.59375 155.242188 C 206.6875 155.242188 207.410156 155.351562 207.765625 155.570312 C 208.171875 155.820312 208.375 156.234375 208.375 156.804688 C 208.375 157.460938 208.070312 157.984375 207.46875 158.382812 C 206.875 158.789062 206.082031 158.992188 205.09375 158.992188 C 204.144531 158.992188 203.378906 158.855469 202.796875 158.585938 C 202.222656 158.324219 201.9375 157.96875 201.9375 157.523438 C 201.9375 156.949219 202.398438 156.464844 203.328125 156.070312 Z M 203.671875 151.632812 C 203.671875 153.050781 204.113281 153.757812 205 153.757812 C 205.4375 153.757812 205.765625 153.582031 205.984375 153.226562 C 206.210938 152.875 206.328125 152.359375 206.328125 151.679688 C 206.328125 151.035156 206.210938 150.539062 205.984375 150.195312 C 205.765625 149.851562 205.441406 149.679688 205.015625 149.679688 C 204.578125 149.679688 204.242188 149.851562 204.015625 150.195312 C 203.785156 150.53125 203.671875 151.007812 203.671875 151.632812 Z M 203.65625 156.179688 C 203.34375 156.480469 203.1875 156.859375 203.1875 157.320312 C 203.1875 157.714844 203.359375 158.027344 203.703125 158.257812 C 204.054688 158.496094 204.53125 158.617188 205.125 158.617188 C 205.75 158.617188 206.242188 158.480469 206.609375 158.210938 C 206.972656 157.9375 207.15625 157.574219 207.15625 157.117188 C 207.15625 156.773438 207.054688 156.527344 206.859375 156.382812 C 206.671875 156.25 206.328125 156.179688 205.828125 156.179688 Z M 212.828125 156.492188 C 211.828125 156.492188 211.035156 156.171875 210.453125 155.523438 C 209.867188 154.867188 209.578125 153.988281 209.578125 152.882812 C 209.578125 151.78125 209.867188 150.90625 210.453125 150.257812 C 211.046875 149.613281 211.851562 149.289062 212.875 149.289062 C 213.882812 149.289062 214.679688 149.613281 215.265625 150.257812 C 215.859375 150.90625 216.15625 151.78125 216.15625 152.882812 C 216.15625 154.007812 215.859375 154.894531 215.265625 155.539062 C 214.679688 156.175781 213.867188 156.492188 212.828125 156.492188 Z M 212.84375 156.101562 C 213.425781 156.101562 213.898438 155.800781 214.265625 155.195312 C 214.640625 154.59375 214.828125 153.820312 214.828125 152.882812 C 214.828125 151.96875 214.640625 151.207031 214.265625 150.601562 C 213.890625 149.988281 213.425781 149.679688 212.875 149.679688 C 212.3125 149.679688 211.84375 149.988281 211.46875 150.601562 C 211.101562 151.207031 210.921875 151.96875 210.921875 152.882812 C 210.921875 153.800781 211.101562 154.566406 211.46875 155.179688 C 211.832031 155.796875 212.289062 156.101562 212.84375 156.101562 Z M 219.4375 150.742188 C 219.738281 150.285156 220.109375 149.929688 220.546875 149.679688 C 220.992188 149.421875 221.453125 149.289062 221.921875 149.289062 C 222.515625 149.289062 222.976562 149.488281 223.3125 149.882812 C 223.65625 150.269531 223.828125 150.800781 223.828125 151.476562 L 223.828125 154.695312 L 223.875 155.320312 C 223.882812 155.5625 223.921875 155.71875 223.984375 155.789062 C 224.054688 155.851562 224.210938 155.890625 224.453125 155.898438 L 224.890625 155.929688 L 225 155.945312 L 225 156.335938 L 221.40625 156.335938 L 221.40625 155.945312 L 221.515625 155.929688 L 221.953125 155.898438 C 222.191406 155.890625 222.34375 155.851562 222.40625 155.789062 C 222.476562 155.71875 222.519531 155.5625 222.53125 155.320312 L 222.578125 154.695312 L 222.578125 151.679688 C 222.578125 151.085938 222.5 150.675781 222.34375 150.445312 C 222.1875 150.21875 221.910156 150.101562 221.515625 150.101562 C 220.953125 150.101562 220.257812 150.453125 219.4375 151.148438 L 219.4375 154.695312 C 219.4375 155.039062 219.46875 155.34375 219.53125 155.601562 C 219.550781 155.71875 219.59375 155.796875 219.65625 155.835938 C 219.726562 155.867188 219.863281 155.890625 220.0625 155.898438 L 220.5 155.929688 L 220.625 155.945312 L 220.625 156.335938 L 217.015625 156.335938 L 217.015625 155.945312 L 217.140625 155.929688 L 217.5625 155.898438 C 217.8125 155.890625 217.96875 155.851562 218.03125 155.789062 C 218.09375 155.71875 218.132812 155.5625 218.15625 155.320312 L 218.1875 154.695312 L 218.1875 151.085938 L 218.15625 150.460938 C 218.132812 150.222656 218.09375 150.070312 218.03125 150.007812 C 217.96875 149.9375 217.8125 149.890625 217.5625 149.867188 L 217.140625 149.835938 L 217.015625 149.835938 L 217.015625 149.445312 L 219.4375 149.445312 Z M 219.4375 150.742188 "/>
</g>
</svg>
