<?xml version="1.0" encoding="UTF-8"?>
<svg xmlns="http://www.w3.org/2000/svg" xmlns:xlink="http://www.w3.org/1999/xlink" width="400" height="400" viewBox="0 0 400 400">
<defs>
<filter id="filter-remove-color-and-invert-alpha" x="0%" y="0%" width="100%" height="100%">
<feColorMatrix color-interpolation-filters="sRGB" values="0 0 0 0 1 0 0 0 0 1 0 0 0 0 1 0 0 0 -1 1"/>
</filter>
<filter id="filter-0" x="0%" y="0%" width="100%" height="100%">
<feImage xlink:href="#compositing-group-1" result="source" x="0" y="0" width="480" height="480"/>
<feImage xlink:href="#compositing-group-2" result="destination" x="0" y="0" width="480" height="480"/>
<feComposite in="source" in2="destination" operator="arithmetic" k1="0" k2="1" k3="1" k4="0" color-interpolation-filters="sRGB"/>
</filter>
<g id="compositing-group-0" transform="translate(40, 40)">
<rect x="-40" y="-40" width="480" height="480" fill="rgb(0%, 0%, 0%)" fill-opacity="0"/>
<rect x="-40" y="-40" width="480" height="480" fill="rgb(100%, 100%, 100%)" fill-opacity="1"/>
</g>
<mask id="mask-0">
<use xlink:href="#compositing-group-0"/>
</mask>
<mask id="mask-1">
<use xlink:href="#compositing-group-0" filter="url(#filter-remove-color-and-invert-alpha)"/>
</mask>
<g id="compositing-group-1" mask="url(#mask-0)">
<g transform="translate(40, 40)">
<rect x="-40" y="-40" width="480" height="480" fill="rgb(100%, 100%, 100%)" fill-opacity="1"/>
</g>
</g>
<g id="compositing-group-2" mask="url(#mask-1)">
<g transform="translate(40, 40)">
</g>
</g>
</defs>
<g filter="url(#filter-0)" transform="translate(-40, -40)">
<rect x="0" y="0" width="480" height="480" fill="rgb(0%, 0%, 0%)" fill-opacity="1"/>
</g>
<path fill-rule="evenodd" fill="rgb(78.431373%, 78.431373%, 78.431373%)" fill-opacity="1" d="M 49.875 349.125 L 49.875 49.875 L 349.125 49.875 L 349.125 349.125 Z M 49.875 349.125 "/>
<path fill-rule="evenodd" fill="rgb(0%, 0%, 0%)" fill-opacity="1" d="M 148.703125 203.179688 L 148.703125 208.695312 L 147.15625 208.695312 L 147.15625 194.351562 L 148.703125 194.351562 L 148.703125 195.929688 C 149.023438 195.316406 149.429688 194.859375 149.921875 194.554688 C 150.421875 194.253906 151.015625 194.101562 151.703125 194.101562 C 152.835938 194.101562 153.757812 194.601562 154.46875 195.601562 C 155.175781 196.601562 155.53125 197.921875 155.53125 199.554688 C 155.53125 201.191406 155.175781 202.507812 154.46875 203.507812 C 153.757812 204.507812 152.835938 205.007812 151.703125 205.007812 C 151.015625 205.007812 150.421875 204.859375 149.921875 204.570312 C 149.429688 204.269531 149.023438 203.804688 148.703125 203.179688 Z M 153.9375 199.554688 C 153.9375 198.304688 153.703125 197.320312 153.234375 196.601562 C 152.773438 195.882812 152.140625 195.523438 151.328125 195.523438 C 150.503906 195.523438 149.859375 195.882812 149.390625 196.601562 C 148.929688 197.320312 148.703125 198.304688 148.703125 199.554688 C 148.703125 200.816406 148.929688 201.804688 149.390625 202.523438 C 149.859375 203.234375 150.503906 203.585938 151.328125 203.585938 C 152.140625 203.585938 152.773438 203.234375 153.234375 202.523438 C 153.703125 201.804688 153.9375 200.816406 153.9375 199.554688 Z M 161.703125 195.554688 C 160.878906 195.554688 160.226562 195.914062 159.75 196.632812 C 159.269531 197.34375 159.03125 198.316406 159.03125 199.554688 C 159.03125 200.796875 159.265625 201.773438 159.734375 202.492188 C 160.210938 203.210938 160.867188 203.570312 161.703125 203.570312 C 162.523438 203.570312 163.171875 203.210938 163.640625 202.492188 C 164.117188 201.773438 164.359375 200.796875 164.359375 199.554688 C 164.359375 198.328125 164.117188 197.351562 163.640625 196.632812 C 163.171875 195.914062 162.523438 195.554688 161.703125 195.554688 Z M 161.703125 194.101562 C 163.035156 194.101562 164.082031 194.585938 164.84375 195.554688 C 165.613281 196.515625 166 197.847656 166 199.554688 C 166 201.253906 165.613281 202.585938 164.84375 203.554688 C 164.082031 204.523438 163.035156 205.007812 161.703125 205.007812 C 160.359375 205.007812 159.304688 204.523438 158.546875 203.554688 C 157.796875 202.585938 157.421875 201.253906 157.421875 199.554688 C 157.421875 197.847656 157.796875 196.515625 158.546875 195.554688 C 159.304688 194.585938 160.359375 194.101562 161.703125 194.101562 Z M 168.53125 190.304688 L 170.0625 190.304688 L 170.0625 204.742188 L 168.53125 204.742188 Z M 177.171875 205.710938 C 176.742188 206.949219 176.320312 207.757812 175.90625 208.132812 C 175.5 208.507812 174.945312 208.695312 174.25 208.695312 L 173.03125 208.695312 L 173.03125 207.273438 L 173.921875 207.273438 C 174.347656 207.273438 174.675781 207.15625 174.90625 206.929688 C 175.144531 206.710938 175.40625 206.183594 175.6875 205.351562 L 175.96875 204.570312 L 172.1875 194.351562 L 173.8125 194.351562 L 176.734375 202.476562 L 179.65625 194.351562 L 181.28125 194.351562 Z M 189.546875 199.429688 C 189.546875 198.191406 189.316406 197.234375 188.859375 196.554688 C 188.398438 195.867188 187.753906 195.523438 186.921875 195.523438 C 186.097656 195.523438 185.457031 195.867188 185 196.554688 C 184.539062 197.234375 184.3125 198.191406 184.3125 199.429688 C 184.3125 200.660156 184.539062 201.617188 185 202.304688 C 185.457031 202.984375 186.097656 203.320312 186.921875 203.320312 C 187.753906 203.320312 188.398438 202.984375 188.859375 202.304688 C 189.316406 201.617188 189.546875 200.660156 189.546875 199.429688 Z M 191.09375 203.445312 C 191.09375 205.214844 190.738281 206.53125 190.03125 207.398438 C 189.320312 208.261719 188.234375 208.695312 186.765625 208.695312 C 186.234375 208.695312 185.726562 208.648438 185.25 208.554688 C 184.769531 208.46875 184.300781 208.335938 183.84375 208.148438 L 183.84375 206.492188 C 184.300781 206.761719 184.75 206.960938 185.1875 207.085938 C 185.625 207.21875 186.070312 207.289062 186.53125 207.289062 C 187.539062 207.289062 188.296875 206.992188 188.796875 206.398438 C 189.296875 205.8125 189.546875 204.933594 189.546875 203.757812 L 189.546875 202.914062 C 189.234375 203.53125 188.828125 203.988281 188.328125 204.289062 C 187.835938 204.59375 187.242188 204.742188 186.546875 204.742188 C 185.398438 204.742188 184.476562 204.257812 183.78125 203.289062 C 183.082031 202.320312 182.734375 201.035156 182.734375 199.429688 C 182.734375 197.816406 183.082031 196.523438 183.78125 195.554688 C 184.476562 194.585938 185.398438 194.101562 186.546875 194.101562 C 187.242188 194.101562 187.835938 194.253906 188.328125 194.554688 C 188.828125 194.859375 189.234375 195.316406 189.546875 195.929688 L 189.546875 194.351562 L 191.09375 194.351562 Z M 197.875 195.554688 C 197.050781 195.554688 196.398438 195.914062 195.921875 196.632812 C 195.441406 197.34375 195.203125 198.316406 195.203125 199.554688 C 195.203125 200.796875 195.4375 201.773438 195.90625 202.492188 C 196.382812 203.210938 197.039062 203.570312 197.875 203.570312 C 198.695312 203.570312 199.34375 203.210938 199.8125 202.492188 C 200.289062 201.773438 200.53125 200.796875 200.53125 199.554688 C 200.53125 198.328125 200.289062 197.351562 199.8125 196.632812 C 199.34375 195.914062 198.695312 195.554688 197.875 195.554688 Z M 197.875 194.101562 C 199.207031 194.101562 200.253906 194.585938 201.015625 195.554688 C 201.785156 196.515625 202.171875 197.847656 202.171875 199.554688 C 202.171875 201.253906 201.785156 202.585938 201.015625 203.554688 C 200.253906 204.523438 199.207031 205.007812 197.875 205.007812 C 196.53125 205.007812 195.476562 204.523438 194.71875 203.554688 C 193.96875 202.585938 193.59375 201.253906 193.59375 199.554688 C 193.59375 197.847656 193.96875 196.515625 194.71875 195.554688 C 195.476562 194.585938 196.53125 194.101562 197.875 194.101562 Z M 212.484375 198.476562 L 212.484375 204.742188 L 210.9375 204.742188 L 210.9375 198.523438 C 210.9375 197.546875 210.765625 196.8125 210.421875 196.320312 C 210.078125 195.832031 209.5625 195.585938 208.875 195.585938 C 208.039062 195.585938 207.382812 195.882812 206.90625 196.476562 C 206.425781 197.0625 206.1875 197.859375 206.1875 198.867188 L 206.1875 204.742188 L 204.640625 204.742188 L 204.640625 194.351562 L 206.1875 194.351562 L 206.1875 195.960938 C 206.550781 195.335938 206.984375 194.875 207.484375 194.570312 C 207.984375 194.257812 208.5625 194.101562 209.21875 194.101562 C 210.289062 194.101562 211.101562 194.472656 211.65625 195.210938 C 212.207031 195.953125 212.484375 197.039062 212.484375 198.476562 Z M 222.5 191.398438 L 222.5 194.351562 L 225.65625 194.351562 L 225.65625 195.679688 L 222.5 195.679688 L 222.5 201.320312 C 222.5 202.164062 222.597656 202.710938 222.796875 202.960938 C 223.003906 203.203125 223.429688 203.320312 224.078125 203.320312 L 225.65625 203.320312 L 225.65625 204.742188 L 224.078125 204.742188 C 222.890625 204.742188 222.070312 204.5 221.625 204.007812 C 221.175781 203.519531 220.953125 202.625 220.953125 201.320312 L 220.953125 195.679688 L 219.828125 195.679688 L 219.828125 194.351562 L 220.953125 194.351562 L 220.953125 191.398438 Z M 235.671875 199.117188 L 235.671875 199.960938 L 228.609375 199.960938 C 228.671875 201.128906 228.988281 202.023438 229.5625 202.648438 C 230.132812 203.265625 230.925781 203.570312 231.9375 203.570312 C 232.53125 203.570312 233.101562 203.492188 233.65625 203.335938 C 234.21875 203.171875 234.769531 202.925781 235.3125 202.601562 L 235.3125 204.210938 C 234.757812 204.472656 234.191406 204.671875 233.609375 204.804688 C 233.035156 204.9375 232.453125 205.007812 231.859375 205.007812 C 230.359375 205.007812 229.175781 204.53125 228.3125 203.570312 C 227.445312 202.601562 227.015625 201.296875 227.015625 199.648438 C 227.015625 197.953125 227.425781 196.601562 228.25 195.601562 C 229.070312 194.601562 230.1875 194.101562 231.59375 194.101562 C 232.84375 194.101562 233.832031 194.554688 234.5625 195.460938 C 235.300781 196.359375 235.671875 197.578125 235.671875 199.117188 Z M 234.140625 198.617188 C 234.117188 197.679688 233.878906 196.9375 233.421875 196.382812 C 232.972656 195.832031 232.367188 195.554688 231.609375 195.554688 C 230.753906 195.554688 230.066406 195.828125 229.546875 196.367188 C 229.023438 196.898438 228.726562 197.65625 228.65625 198.632812 Z M 245.96875 194.351562 L 242.578125 199.414062 L 246.140625 204.742188 L 244.328125 204.742188 L 241.609375 200.664062 L 238.875 204.742188 L 237.0625 204.742188 L 240.703125 199.304688 L 237.375 194.351562 L 239.1875 194.351562 L 241.671875 198.054688 L 244.15625 194.351562 Z M 249.828125 191.398438 L 249.828125 194.351562 L 252.984375 194.351562 L 252.984375 195.679688 L 249.828125 195.679688 L 249.828125 201.320312 C 249.828125 202.164062 249.925781 202.710938 250.125 202.960938 C 250.332031 203.203125 250.757812 203.320312 251.40625 203.320312 L 252.984375 203.320312 L 252.984375 204.742188 L 251.40625 204.742188 C 250.21875 204.742188 249.398438 204.5 248.953125 204.007812 C 248.503906 203.519531 248.28125 202.625 248.28125 201.320312 L 248.28125 195.679688 L 247.15625 195.679688 L 247.15625 194.351562 L 248.28125 194.351562 L 248.28125 191.398438 Z M 249.828125 191.398438 "/>
<path fill="none" stroke-width="1" stroke-linecap="round" stroke-linejoin="round" stroke="rgb(0%, 100%, 0%)" stroke-opacity="1" stroke-miterlimit="10" d="M 49.875 349.125 L 349.125 49.875 "/>
<path fill-rule="evenodd" fill="rgb(0%, 100%, 0%)" fill-opacity="1" d="M 199.953125 191.671875 C 199.078125 192.546875 198.585938 193.265625 198.46875 193.828125 C 198.34375 194.382812 198.554688 194.929688 199.09375 195.46875 C 199.519531 195.898438 199.988281 196.109375 200.5 196.109375 C 201.007812 196.109375 201.476562 195.898438 201.90625 195.46875 C 202.507812 194.867188 202.753906 194.140625 202.640625 193.296875 C 202.523438 192.453125 202.078125 191.640625 201.296875 190.859375 L 201.03125 190.59375 Z M 201.625 189 L 205.8125 193.1875 L 204.71875 194.28125 L 203.609375 193.171875 C 203.804688 193.871094 203.828125 194.507812 203.671875 195.078125 C 203.515625 195.652344 203.164062 196.210938 202.625 196.75 C 201.945312 197.429688 201.195312 197.757812 200.375 197.734375 C 199.5625 197.703125 198.804688 197.335938 198.09375 196.625 C 197.273438 195.804688 196.898438 194.933594 196.96875 194.015625 C 197.042969 193.101562 197.574219 192.148438 198.5625 191.15625 L 200.078125 189.640625 L 199.96875 189.53125 C 199.40625 188.96875 198.8125 188.699219 198.1875 188.71875 C 197.5625 188.742188 196.949219 189.054688 196.34375 189.65625 C 195.96875 190.03125 195.652344 190.449219 195.390625 190.90625 C 195.132812 191.367188 194.933594 191.859375 194.796875 192.390625 L 193.6875 191.28125 C 193.917969 190.71875 194.179688 190.210938 194.46875 189.75 C 194.75 189.28125 195.070312 188.871094 195.421875 188.515625 C 196.382812 187.558594 197.375 187.121094 198.40625 187.203125 C 199.4375 187.289062 200.507812 187.886719 201.625 189 Z M 205.042969 188.175781 L 200.589844 183.722656 L 201.667969 182.644531 L 206.058594 187.035156 C 206.757812 187.734375 207.402344 188.136719 207.996094 188.238281 C 208.589844 188.34375 209.128906 188.152344 209.621094 187.660156 C 210.214844 187.066406 210.46875 186.394531 210.386719 185.644531 C 210.3125 184.886719 209.917969 184.144531 209.199219 183.425781 L 205.042969 179.269531 L 206.121094 178.191406 L 213.464844 185.535156 L 212.386719 186.613281 L 211.261719 185.488281 C 211.425781 186.199219 211.449219 186.832031 211.324219 187.394531 C 211.199219 187.957031 210.902344 188.472656 210.433594 188.941406 C 209.671875 189.703125 208.832031 190.019531 207.917969 189.894531 C 207.011719 189.761719 206.054688 189.1875 205.042969 188.175781 Z M 203.121094 180.816406 Z M 207.351562 172.773438 L 209.445312 174.867188 L 211.679688 172.632812 L 212.617188 173.570312 L 210.382812 175.804688 L 214.367188 179.789062 C 214.960938 180.382812 215.417969 180.695312 215.742188 180.726562 C 216.0625 180.757812 216.453125 180.546875 216.914062 180.085938 L 218.023438 178.976562 L 219.023438 179.976562 L 217.914062 181.085938 C 217.070312 181.929688 216.3125 182.34375 215.648438 182.320312 C 214.992188 182.289062 214.203125 181.8125 213.273438 180.882812 L 209.289062 176.898438 L 208.492188 177.695312 L 207.554688 176.757812 L 208.351562 175.960938 L 206.257812 173.867188 Z M 216.511719 169.488281 C 215.929688 170.074219 215.722656 170.785156 215.886719 171.628906 C 216.054688 172.472656 216.574219 173.332031 217.449219 174.207031 C 218.324219 175.082031 219.183594 175.609375 220.027344 175.785156 C 220.871094 175.964844 221.589844 175.753906 222.183594 175.160156 C 222.765625 174.578125 222.96875 173.863281 222.792969 173.019531 C 222.613281 172.175781 222.089844 171.316406 221.214844 170.441406 C 220.347656 169.578125 219.496094 169.058594 218.652344 168.878906 C 217.808594 168.703125 217.097656 168.90625 216.511719 169.488281 Z M 215.480469 168.457031 C 216.417969 167.519531 217.503906 167.125 218.730469 167.269531 C 219.949219 167.40625 221.160156 168.078125 222.371094 169.285156 C 223.578125 170.496094 224.25 171.714844 224.386719 172.941406 C 224.53125 174.160156 224.136719 175.238281 223.199219 176.175781 C 222.25 177.125 221.167969 177.527344 219.949219 177.378906 C 218.730469 177.234375 217.519531 176.558594 216.308594 175.347656 C 215.101562 174.140625 214.425781 172.925781 214.277344 171.707031 C 214.132812 170.488281 214.535156 169.40625 215.480469 168.457031 Z M 215.480469 168.457031 "/>
<path fill="none" stroke-width="1" stroke-linecap="round" stroke-linejoin="round" stroke="rgb(100%, 0%, 0%)" stroke-opacity="1" stroke-miterlimit="10" d="M 69.824219 329.175781 L 69.824219 69.824219 L 329.175781 69.824219 L 329.175781 329.175781 L 69.824219 329.175781 "/>
<path fill-rule="evenodd" fill="rgb(100%, 0%, 0%)" fill-opacity="1" d="M 84.261719 205.84375 L 82.839844 205.84375 L 82.839844 204.375 C 82.839844 203.820312 82.714844 203.4375 82.464844 203.21875 C 82.222656 203.007812 81.78125 202.90625 81.136719 202.90625 L 80.214844 202.90625 L 80.214844 205.4375 L 78.886719 205.4375 L 78.886719 202.90625 L 69.824219 202.90625 L 69.824219 201.359375 L 78.886719 201.359375 L 78.886719 199.890625 L 80.214844 199.890625 L 80.214844 201.359375 L 80.933594 201.359375 C 82.089844 201.359375 82.933594 201.597656 83.464844 202.078125 C 83.996094 202.566406 84.261719 203.335938 84.261719 204.390625 Z M 79.011719 210.75 C 79.011719 209.925781 78.652344 209.273438 77.933594 208.796875 C 77.222656 208.316406 76.25 208.078125 75.011719 208.078125 C 73.769531 208.078125 72.792969 208.3125 72.074219 208.78125 C 71.355469 209.257812 70.996094 209.914062 70.996094 210.75 C 70.996094 211.570312 71.355469 212.21875 72.074219 212.6875 C 72.792969 213.164062 73.769531 213.40625 75.011719 213.40625 C 76.238281 213.40625 77.214844 213.164062 77.933594 212.6875 C 78.652344 212.21875 79.011719 211.570312 79.011719 210.75 Z M 80.464844 210.75 C 80.464844 212.082031 79.980469 213.128906 79.011719 213.890625 C 78.050781 214.660156 76.71875 215.046875 75.011719 215.046875 C 73.3125 215.046875 71.980469 214.660156 71.011719 213.890625 C 70.042969 213.128906 69.558594 212.082031 69.558594 210.75 C 69.558594 209.40625 70.042969 208.351562 71.011719 207.59375 C 71.980469 206.84375 73.3125 206.46875 75.011719 206.46875 C 76.71875 206.46875 78.050781 206.84375 79.011719 207.59375 C 79.980469 208.351562 80.464844 209.40625 80.464844 210.75 Z M 84.261719 217.578125 L 84.261719 219.109375 L 69.824219 219.109375 L 69.824219 217.578125 Z M 84.261719 222.328125 L 84.261719 223.859375 L 69.824219 223.859375 L 69.824219 222.328125 Z M 79.011719 230.703125 C 79.011719 229.878906 78.652344 229.226562 77.933594 228.75 C 77.222656 228.269531 76.25 228.03125 75.011719 228.03125 C 73.769531 228.03125 72.792969 228.265625 72.074219 228.734375 C 71.355469 229.210938 70.996094 229.867188 70.996094 230.703125 C 70.996094 231.523438 71.355469 232.171875 72.074219 232.640625 C 72.792969 233.117188 73.769531 233.359375 75.011719 233.359375 C 76.238281 233.359375 77.214844 233.117188 77.933594 232.640625 C 78.652344 232.171875 79.011719 231.523438 79.011719 230.703125 Z M 80.464844 230.703125 C 80.464844 232.035156 79.980469 233.082031 79.011719 233.84375 C 78.050781 234.613281 76.71875 235 75.011719 235 C 73.3125 235 71.980469 234.613281 71.011719 233.84375 C 70.042969 233.082031 69.558594 232.035156 69.558594 230.703125 C 69.558594 229.359375 70.042969 228.304688 71.011719 227.546875 C 71.980469 226.796875 73.3125 226.421875 75.011719 226.421875 C 76.71875 226.421875 78.050781 226.796875 79.011719 227.546875 C 79.980469 228.304688 80.464844 229.359375 80.464844 230.703125 Z M 80.214844 236.640625 L 80.214844 238.171875 L 72.105469 240.09375 L 80.214844 242.015625 L 80.214844 243.8125 L 72.105469 245.734375 L 80.214844 247.65625 L 80.214844 249.1875 L 69.824219 246.734375 L 69.824219 244.9375 L 78.339844 242.921875 L 69.824219 240.890625 L 69.824219 239.078125 Z M 84.246094 260.640625 C 82.816406 259.890625 81.40625 259.332031 80.011719 258.96875 C 78.625 258.601562 77.21875 258.421875 75.792969 258.421875 C 74.363281 258.421875 72.949219 258.601562 71.542969 258.96875 C 70.144531 259.332031 68.742188 259.890625 67.324219 260.640625 L 67.324219 259.296875 C 68.773438 258.453125 70.199219 257.820312 71.605469 257.40625 C 73.011719 257 74.40625 256.796875 75.792969 256.796875 C 77.167969 256.796875 78.550781 257 79.949219 257.40625 C 81.355469 257.820312 82.785156 258.453125 84.246094 259.296875 Z M 76.089844 271.390625 L 69.824219 271.390625 L 69.824219 269.84375 L 76.042969 269.84375 C 77.019531 269.84375 77.753906 269.671875 78.246094 269.328125 C 78.734375 268.984375 78.980469 268.46875 78.980469 267.78125 C 78.980469 266.945312 78.683594 266.289062 78.089844 265.8125 C 77.503906 265.332031 76.707031 265.09375 75.699219 265.09375 L 69.824219 265.09375 L 69.824219 263.546875 L 80.214844 263.546875 L 80.214844 265.09375 L 78.605469 265.09375 C 79.230469 265.457031 79.691406 265.890625 79.996094 266.390625 C 80.308594 266.890625 80.464844 267.46875 80.464844 268.125 C 80.464844 269.195312 80.09375 270.007812 79.355469 270.5625 C 78.613281 271.113281 77.527344 271.390625 76.089844 271.390625 Z M 79.011719 278.078125 C 79.011719 277.253906 78.652344 276.601562 77.933594 276.125 C 77.222656 275.644531 76.25 275.40625 75.011719 275.40625 C 73.769531 275.40625 72.792969 275.640625 72.074219 276.109375 C 71.355469 276.585938 70.996094 277.242188 70.996094 278.078125 C 70.996094 278.898438 71.355469 279.546875 72.074219 280.015625 C 72.792969 280.492188 73.769531 280.734375 75.011719 280.734375 C 76.238281 280.734375 77.214844 280.492188 77.933594 280.015625 C 78.652344 279.546875 79.011719 278.898438 79.011719 278.078125 Z M 80.464844 278.078125 C 80.464844 279.410156 79.980469 280.457031 79.011719 281.21875 C 78.050781 281.988281 76.71875 282.375 75.011719 282.375 C 73.3125 282.375 71.980469 281.988281 71.011719 281.21875 C 70.042969 280.457031 69.558594 279.410156 69.558594 278.078125 C 69.558594 276.734375 70.042969 275.679688 71.011719 274.921875 C 71.980469 274.171875 73.3125 273.796875 75.011719 273.796875 C 76.71875 273.796875 78.050781 274.171875 79.011719 274.921875 C 79.980469 275.679688 80.464844 276.734375 80.464844 278.078125 Z M 83.167969 286.4375 L 80.214844 286.4375 L 80.214844 289.59375 L 78.886719 289.59375 L 78.886719 286.4375 L 73.246094 286.4375 C 72.402344 286.4375 71.855469 286.535156 71.605469 286.734375 C 71.363281 286.941406 71.246094 287.367188 71.246094 288.015625 L 71.246094 289.59375 L 69.824219 289.59375 L 69.824219 288.015625 C 69.824219 286.828125 70.066406 286.007812 70.558594 285.5625 C 71.046875 285.113281 71.941406 284.890625 73.246094 284.890625 L 78.886719 284.890625 L 78.886719 283.765625 L 80.214844 283.765625 L 80.214844 284.890625 L 83.167969 284.890625 Z M 79.902344 303 L 78.292969 303 C 78.542969 302.5625 78.730469 302.109375 78.855469 301.640625 C 78.980469 301.171875 79.042969 300.6875 79.042969 300.1875 C 79.042969 299.425781 78.910156 298.851562 78.652344 298.46875 C 78.390625 298.09375 78 297.90625 77.480469 297.90625 C 77.082031 297.90625 76.769531 298.039062 76.542969 298.3125 C 76.324219 298.582031 76.109375 299.128906 75.902344 299.953125 L 75.777344 300.484375 C 75.515625 301.578125 75.144531 302.351562 74.667969 302.8125 C 74.199219 303.269531 73.535156 303.5 72.683594 303.5 C 71.722656 303.5 70.964844 303.15625 70.402344 302.46875 C 69.839844 301.78125 69.558594 300.835938 69.558594 299.640625 C 69.558594 299.128906 69.617188 298.601562 69.730469 298.0625 C 69.832031 297.519531 69.988281 296.945312 70.199219 296.34375 L 71.964844 296.34375 C 71.640625 296.914062 71.394531 297.476562 71.230469 298.03125 C 71.0625 298.582031 70.980469 299.125 70.980469 299.65625 C 70.980469 300.382812 71.113281 300.941406 71.386719 301.328125 C 71.667969 301.722656 72.058594 301.921875 72.558594 301.921875 C 73.027344 301.921875 73.378906 301.78125 73.621094 301.5 C 73.871094 301.21875 74.109375 300.597656 74.339844 299.640625 L 74.480469 299.109375 C 74.699219 298.160156 75.035156 297.472656 75.496094 297.046875 C 75.964844 296.628906 76.597656 296.421875 77.402344 296.421875 C 78.378906 296.421875 79.136719 296.726562 79.667969 297.34375 C 80.199219 297.96875 80.464844 298.851562 80.464844 300 C 80.464844 300.570312 80.417969 301.109375 80.324219 301.609375 C 80.230469 302.109375 80.089844 302.570312 79.902344 303 Z M 73.917969 305.78125 L 80.214844 305.78125 L 80.214844 307.3125 L 73.996094 307.3125 C 73.003906 307.3125 72.265625 307.484375 71.777344 307.828125 C 71.285156 308.179688 71.042969 308.703125 71.042969 309.390625 C 71.042969 310.222656 71.332031 310.878906 71.917969 311.359375 C 72.511719 311.835938 73.3125 312.078125 74.324219 312.078125 L 80.214844 312.078125 L 80.214844 313.609375 L 69.824219 313.609375 L 69.824219 312.078125 L 71.417969 312.078125 C 70.792969 311.703125 70.324219 311.269531 70.011719 310.78125 C 69.710938 310.289062 69.558594 309.71875 69.558594 309.0625 C 69.558594 307.988281 69.925781 307.171875 70.667969 306.609375 C 71.40625 306.054688 72.488281 305.78125 73.917969 305.78125 Z M 80.464844 309.640625 Z M 71.386719 318.265625 L 65.871094 318.265625 L 65.871094 316.71875 L 80.214844 316.71875 L 80.214844 318.265625 L 78.636719 318.265625 C 79.25 318.585938 79.707031 318.992188 80.011719 319.484375 C 80.3125 319.984375 80.464844 320.578125 80.464844 321.265625 C 80.464844 322.398438 79.964844 323.320312 78.964844 324.03125 C 77.964844 324.738281 76.644531 325.09375 75.011719 325.09375 C 73.375 325.09375 72.058594 324.738281 71.058594 324.03125 C 70.058594 323.320312 69.558594 322.398438 69.558594 321.265625 C 69.558594 320.578125 69.707031 319.984375 69.996094 319.484375 C 70.296875 318.992188 70.761719 318.585938 71.386719 318.265625 Z M 75.011719 323.5 C 76.261719 323.5 77.246094 323.265625 77.964844 322.796875 C 78.683594 322.335938 79.042969 321.703125 79.042969 320.890625 C 79.042969 320.066406 78.683594 319.421875 77.964844 318.953125 C 77.246094 318.492188 76.261719 318.265625 75.011719 318.265625 C 73.75 318.265625 72.761719 318.492188 72.042969 318.953125 C 71.332031 319.421875 70.980469 320.066406 70.980469 320.890625 C 70.980469 321.703125 71.332031 322.335938 72.042969 322.796875 C 72.761719 323.265625 73.75 323.5 75.011719 323.5 Z M 71.386719 329.125 L 65.871094 329.125 L 65.871094 327.578125 L 80.214844 327.578125 L 80.214844 329.125 L 78.636719 329.125 C 79.25 329.445312 79.707031 329.851562 80.011719 330.34375 C 80.3125 330.84375 80.464844 331.4375 80.464844 332.125 C 80.464844 333.257812 79.964844 334.179688 78.964844 334.890625 C 77.964844 335.597656 76.644531 335.953125 75.011719 335.953125 C 73.375 335.953125 72.058594 335.597656 71.058594 334.890625 C 70.058594 334.179688 69.558594 333.257812 69.558594 332.125 C 69.558594 331.4375 69.707031 330.84375 69.996094 330.34375 C 70.296875 329.851562 70.761719 329.445312 71.386719 329.125 Z M 75.011719 334.359375 C 76.261719 334.359375 77.246094 334.125 77.964844 333.65625 C 78.683594 333.195312 79.042969 332.5625 79.042969 331.75 C 79.042969 330.925781 78.683594 330.28125 77.964844 329.8125 C 77.246094 329.351562 76.261719 329.125 75.011719 329.125 C 73.75 329.125 72.761719 329.351562 72.042969 329.8125 C 71.332031 330.28125 70.980469 330.925781 70.980469 331.75 C 70.980469 332.5625 71.332031 333.195312 72.042969 333.65625 C 72.761719 334.125 73.75 334.359375 75.011719 334.359375 Z M 79.011719 342.125 C 79.011719 341.300781 78.652344 340.648438 77.933594 340.171875 C 77.222656 339.691406 76.25 339.453125 75.011719 339.453125 C 73.769531 339.453125 72.792969 339.6875 72.074219 340.15625 C 71.355469 340.632812 70.996094 341.289062 70.996094 342.125 C 70.996094 342.945312 71.355469 343.59375 72.074219 344.0625 C 72.792969 344.539062 73.769531 344.78125 75.011719 344.78125 C 76.238281 344.78125 77.214844 344.539062 77.933594 344.0625 C 78.652344 343.59375 79.011719 342.945312 79.011719 342.125 Z M 80.464844 342.125 C 80.464844 343.457031 79.980469 344.503906 79.011719 345.265625 C 78.050781 346.035156 76.71875 346.421875 75.011719 346.421875 C 73.3125 346.421875 71.980469 346.035156 71.011719 345.265625 C 70.042969 344.503906 69.558594 343.457031 69.558594 342.125 C 69.558594 340.78125 70.042969 339.726562 71.011719 338.96875 C 71.980469 338.21875 73.3125 337.84375 75.011719 337.84375 C 76.71875 337.84375 78.050781 338.21875 79.011719 338.96875 C 79.980469 339.726562 80.464844 340.78125 80.464844 342.125 Z M 78.621094 354.375 C 78.734375 354.195312 78.816406 354.003906 78.871094 353.796875 C 78.921875 353.597656 78.949219 353.378906 78.949219 353.140625 C 78.949219 352.265625 78.628906 351.59375 77.996094 351.125 C 77.371094 350.664062 76.46875 350.4375 75.292969 350.4375 L 69.824219 350.4375 L 69.824219 348.890625 L 80.214844 348.890625 L 80.214844 350.4375 L 78.605469 350.4375 C 79.230469 350.757812 79.691406 351.179688 79.996094 351.703125 C 80.308594 352.222656 80.464844 352.851562 80.464844 353.59375 C 80.464844 353.695312 80.453125 353.8125 80.433594 353.9375 C 80.421875 354.070312 80.402344 354.210938 80.371094 354.359375 Z M 83.167969 357.5 L 80.214844 357.5 L 80.214844 360.65625 L 78.886719 360.65625 L 78.886719 357.5 L 73.246094 357.5 C 72.402344 357.5 71.855469 357.597656 71.605469 357.796875 C 71.363281 358.003906 71.246094 358.429688 71.246094 359.078125 L 71.246094 360.65625 L 69.824219 360.65625 L 69.824219 359.078125 C 69.824219 357.890625 70.066406 357.070312 70.558594 356.625 C 71.046875 356.175781 71.941406 355.953125 73.246094 355.953125 L 78.886719 355.953125 L 78.886719 354.828125 L 80.214844 354.828125 L 80.214844 355.953125 L 83.167969 355.953125 Z M 75.449219 370.671875 L 74.605469 370.671875 L 74.605469 363.609375 C 73.4375 363.671875 72.542969 363.988281 71.917969 364.5625 C 71.300781 365.132812 70.996094 365.925781 70.996094 366.9375 C 70.996094 367.53125 71.074219 368.101562 71.230469 368.65625 C 71.394531 369.21875 71.640625 369.769531 71.964844 370.3125 L 70.355469 370.3125 C 70.09375 369.757812 69.894531 369.191406 69.761719 368.609375 C 69.628906 368.035156 69.558594 367.453125 69.558594 366.859375 C 69.558594 365.359375 70.035156 364.175781 70.996094 363.3125 C 71.964844 362.445312 73.269531 362.015625 74.917969 362.015625 C 76.613281 362.015625 77.964844 362.425781 78.964844 363.25 C 79.964844 364.070312 80.464844 365.1875 80.464844 366.59375 C 80.464844 367.84375 80.011719 368.832031 79.105469 369.5625 C 78.207031 370.300781 76.988281 370.671875 75.449219 370.671875 Z M 75.949219 369.140625 C 76.886719 369.117188 77.628906 368.878906 78.183594 368.421875 C 78.734375 367.972656 79.011719 367.367188 79.011719 366.609375 C 79.011719 365.753906 78.738281 365.066406 78.199219 364.546875 C 77.667969 364.023438 76.910156 363.726562 75.933594 363.65625 Z M 78.636719 379.34375 L 84.261719 379.34375 L 84.261719 380.890625 L 69.824219 380.890625 L 69.824219 379.34375 L 71.386719 379.34375 C 70.761719 379.019531 70.296875 378.613281 69.996094 378.125 C 69.707031 377.632812 69.558594 377.039062 69.558594 376.34375 C 69.558594 375.21875 70.058594 374.300781 71.058594 373.59375 C 72.058594 372.882812 73.375 372.53125 75.011719 372.53125 C 76.644531 372.53125 77.964844 372.882812 78.964844 373.59375 C 79.964844 374.300781 80.464844 375.21875 80.464844 376.34375 C 80.464844 377.039062 80.3125 377.632812 80.011719 378.125 C 79.707031 378.613281 79.25 379.019531 78.636719 379.34375 Z M 75.011719 374.109375 C 73.75 374.109375 72.761719 374.335938 72.042969 374.796875 C 71.332031 375.265625 70.980469 375.90625 70.980469 376.71875 C 70.980469 377.53125 71.332031 378.171875 72.042969 378.640625 C 72.761719 379.109375 73.75 379.34375 75.011719 379.34375 C 76.261719 379.34375 77.246094 379.109375 77.964844 378.640625 C 78.683594 378.171875 79.042969 377.53125 79.042969 376.71875 C 79.042969 375.90625 78.683594 375.265625 77.964844 374.796875 C 77.246094 374.335938 76.261719 374.109375 75.011719 374.109375 Z M 84.246094 383.8125 L 84.246094 385.140625 C 82.785156 385.984375 81.355469 386.609375 79.949219 387.015625 C 78.550781 387.429688 77.167969 387.640625 75.792969 387.640625 C 74.40625 387.640625 73.011719 387.429688 71.605469 387.015625 C 70.199219 386.609375 68.773438 385.984375 67.324219 385.140625 L 67.324219 383.8125 C 68.742188 384.550781 70.144531 385.101562 71.542969 385.46875 C 72.949219 385.832031 74.363281 386.015625 75.792969 386.015625 C 77.21875 386.015625 78.625 385.832031 80.011719 385.46875 C 81.40625 385.101562 82.816406 384.550781 84.246094 383.8125 Z M 84.246094 383.8125 "/>
<path fill="none" stroke-width="1" stroke-linecap="round" stroke-linejoin="round" stroke="rgb(0%, 0%, 100%)" stroke-opacity="1" stroke-miterlimit="10" d="M 199.5 299.25 L 399 99.75 "/>
<path fill-rule="evenodd" fill="rgb(0%, 0%, 100%)" fill-opacity="1" d="M 308.640625 193.234375 L 308.640625 199.5 L 307.09375 199.5 L 307.09375 193.28125 C 307.09375 192.304688 306.921875 191.570312 306.578125 191.078125 C 306.234375 190.589844 305.71875 190.34375 305.03125 190.34375 C 304.195312 190.34375 303.539062 190.640625 303.0625 191.234375 C 302.582031 191.820312 302.34375 192.617188 302.34375 193.625 L 302.34375 199.5 L 300.796875 199.5 L 300.796875 189.109375 L 302.34375 189.109375 L 302.34375 190.71875 C 302.707031 190.09375 303.140625 189.632812 303.640625 189.328125 C 304.140625 189.015625 304.71875 188.859375 305.375 188.859375 C 306.445312 188.859375 307.257812 189.230469 307.8125 189.96875 C 308.363281 190.710938 308.640625 191.796875 308.640625 193.234375 Z M 315.328125 190.3125 C 314.503906 190.3125 313.851562 190.671875 313.375 191.390625 C 312.894531 192.101562 312.65625 193.074219 312.65625 194.3125 C 312.65625 195.554688 312.890625 196.53125 313.359375 197.25 C 313.835938 197.96875 314.492188 198.328125 315.328125 198.328125 C 316.148438 198.328125 316.796875 197.96875 317.265625 197.25 C 317.742188 196.53125 317.984375 195.554688 317.984375 194.3125 C 317.984375 193.085938 317.742188 192.109375 317.265625 191.390625 C 316.796875 190.671875 316.148438 190.3125 315.328125 190.3125 Z M 315.328125 188.859375 C 316.660156 188.859375 317.707031 189.34375 318.46875 190.3125 C 319.238281 191.273438 319.625 192.605469 319.625 194.3125 C 319.625 196.011719 319.238281 197.34375 318.46875 198.3125 C 317.707031 199.28125 316.660156 199.765625 315.328125 199.765625 C 313.984375 199.765625 312.929688 199.28125 312.171875 198.3125 C 311.421875 197.34375 311.046875 196.011719 311.046875 194.3125 C 311.046875 192.605469 311.421875 191.273438 312.171875 190.3125 C 312.929688 189.34375 313.984375 188.859375 315.328125 188.859375 Z M 329.9375 193.234375 L 329.9375 199.5 L 328.390625 199.5 L 328.390625 193.28125 C 328.390625 192.304688 328.21875 191.570312 327.875 191.078125 C 327.53125 190.589844 327.015625 190.34375 326.328125 190.34375 C 325.492188 190.34375 324.835938 190.640625 324.359375 191.234375 C 323.878906 191.820312 323.640625 192.617188 323.640625 193.625 L 323.640625 199.5 L 322.09375 199.5 L 322.09375 189.109375 L 323.640625 189.109375 L 323.640625 190.71875 C 324.003906 190.09375 324.4375 189.632812 324.9375 189.328125 C 325.4375 189.015625 326.015625 188.859375 326.671875 188.859375 C 327.742188 188.859375 328.554688 189.230469 329.109375 189.96875 C 329.660156 190.710938 329.9375 191.796875 329.9375 193.234375 Z M 341 193.875 L 341 194.71875 L 333.9375 194.71875 C 334 195.886719 334.316406 196.78125 334.890625 197.40625 C 335.460938 198.023438 336.253906 198.328125 337.265625 198.328125 C 337.859375 198.328125 338.429688 198.25 338.984375 198.09375 C 339.546875 197.929688 340.097656 197.683594 340.640625 197.359375 L 340.640625 198.96875 C 340.085938 199.230469 339.519531 199.429688 338.9375 199.5625 C 338.363281 199.695312 337.78125 199.765625 337.1875 199.765625 C 335.6875 199.765625 334.503906 199.289062 333.640625 198.328125 C 332.773438 197.359375 332.34375 196.054688 332.34375 194.40625 C 332.34375 192.710938 332.753906 191.359375 333.578125 190.359375 C 334.398438 189.359375 335.515625 188.859375 336.921875 188.859375 C 338.171875 188.859375 339.160156 189.3125 339.890625 190.21875 C 340.628906 191.117188 341 192.335938 341 193.875 Z M 339.46875 193.375 C 339.445312 192.4375 339.207031 191.695312 338.75 191.140625 C 338.300781 190.589844 337.695312 190.3125 336.9375 190.3125 C 336.082031 190.3125 335.394531 190.585938 334.875 191.125 C 334.351562 191.65625 334.054688 192.414062 333.984375 193.390625 Z M 339.46875 193.375 "/>
</svg>
