<?xml version="1.0" encoding="UTF-8"?>
<svg xmlns="http://www.w3.org/2000/svg" xmlns:xlink="http://www.w3.org/1999/xlink" width="300pt" height="100pt" viewBox="0 0 300 100" version="1.1">
<g id="surface2">
<rect x="0" y="0" width="300" height="100" style="fill:rgb(100%,100%,100%);fill-opacity:1;stroke:none;"/>
<path style=" stroke:none;fill-rule:nonzero;fill:rgb(100%,0%,0%);fill-opacity:1;" d="M 77.75 74.25 C 77.75 77.582031 72.75 77.582031 72.75 74.25 C 72.75 70.917969 77.75 70.917969 77.75 74.25 "/>
<path style="fill:none;stroke-width:1;stroke-linecap:round;stroke-linejoin:round;stroke:rgb(100%,0%,0%);stroke-opacity:1;stroke-miterlimit:10;" d="M 100 49.5 L 124.75 24.75 L 248.5 24.75 "/>
<path style=" stroke:none;fill-rule:nonzero;fill:rgb(0%,0%,0%);fill-opacity:1;" d="M 103.125 39.644531 L 108.59375 45.113281 C 108.820312 45.34375 109.046875 45.527344 109.265625 45.660156 C 109.359375 45.714844 109.429688 45.734375 109.484375 45.722656 C 109.546875 45.703125 109.648438 45.628906 109.796875 45.503906 L 110.109375 45.222656 L 110.203125 45.160156 L 110.453125 45.410156 L 108.09375 47.769531 L 107.84375 47.519531 L 107.90625 47.425781 L 108.171875 47.128906 C 108.316406 46.964844 108.390625 46.832031 108.390625 46.738281 C 108.390625 46.644531 108.316406 46.527344 108.171875 46.378906 L 107.78125 45.925781 L 103.390625 41.535156 L 102.953125 41.160156 C 102.789062 40.996094 102.664062 40.917969 102.578125 40.925781 C 102.484375 40.925781 102.355469 41 102.1875 41.144531 L 101.890625 41.410156 L 101.8125 41.488281 L 101.546875 41.222656 Z M 113.164062 41.449219 C 113.164062 41.992188 113.105469 42.425781 112.992188 42.746094 C 112.886719 43.058594 112.703125 43.347656 112.445312 43.605469 C 112.070312 43.980469 111.632812 44.179688 111.132812 44.199219 C 110.640625 44.210938 110.21875 44.035156 109.851562 43.667969 C 109.425781 43.242188 109.25 42.730469 109.320312 42.136719 C 109.351562 41.773438 109.484375 41.414062 109.710938 41.058594 C 109.929688 40.695312 110.289062 40.261719 110.789062 39.761719 L 110.945312 39.605469 L 110.382812 39.042969 C 109.675781 38.335938 109.054688 38.246094 108.523438 38.777344 C 108.273438 39.027344 108.125 39.324219 108.070312 39.667969 C 108.0625 39.886719 108.179688 40.152344 108.429688 40.464844 L 108.507812 40.542969 L 107.945312 41.105469 L 107.132812 40.292969 C 107.457031 39.472656 107.863281 38.816406 108.351562 38.324219 C 108.78125 37.898438 109.226562 37.648438 109.695312 37.574219 C 109.988281 37.535156 110.238281 37.554688 110.445312 37.636719 C 110.652344 37.722656 110.898438 37.902344 111.179688 38.183594 L 113.179688 40.183594 C 113.542969 40.550781 113.828125 40.773438 114.039062 40.855469 C 114.246094 40.941406 114.429688 40.902344 114.585938 40.746094 C 114.625 40.707031 114.683594 40.617188 114.757812 40.480469 L 115.085938 40.777344 C 114.949219 41.039062 114.804688 41.246094 114.648438 41.402344 C 114.242188 41.808594 113.746094 41.824219 113.164062 41.449219 Z M 112.898438 41.558594 L 111.195312 39.855469 L 111.007812 40.042969 C 110.53125 40.523438 110.253906 40.996094 110.179688 41.464844 C 110.109375 41.933594 110.25 42.347656 110.601562 42.699219 C 110.859375 42.960938 111.15625 43.089844 111.492188 43.089844 C 111.824219 43.089844 112.117188 42.964844 112.367188 42.714844 C 112.605469 42.476562 112.78125 42.089844 112.898438 41.558594 Z M 115.925781 40.0625 L 110.394531 34.53125 L 109.972656 34.140625 C 109.796875 33.984375 109.667969 33.90625 109.582031 33.90625 C 109.5 33.90625 109.371094 33.984375 109.191406 34.140625 L 108.910156 34.390625 L 108.832031 34.46875 L 108.566406 34.203125 L 110.144531 32.625 L 113.035156 35.515625 C 112.816406 34.484375 113.03125 33.648438 113.675781 33 C 114.1875 32.492188 114.792969 32.28125 115.488281 32.375 C 116.183594 32.46875 116.871094 32.855469 117.550781 33.53125 C 118.300781 34.28125 118.726562 35.058594 118.832031 35.859375 C 118.933594 36.664062 118.707031 37.34375 118.144531 37.90625 C 117.613281 38.4375 116.957031 38.6875 116.175781 38.65625 L 116.113281 38.71875 L 116.597656 39.390625 Z M 115.863281 38.34375 C 116.601562 38.230469 117.175781 37.96875 117.582031 37.5625 C 117.945312 37.199219 118.070312 36.765625 117.957031 36.265625 C 117.839844 35.765625 117.492188 35.226562 116.910156 34.640625 C 116.273438 34.007812 115.707031 33.621094 115.207031 33.484375 C 114.699219 33.339844 114.261719 33.449219 113.894531 33.8125 C 113.667969 34.042969 113.503906 34.339844 113.410156 34.703125 C 113.308594 35.058594 113.277344 35.421875 113.316406 35.796875 Z M 124.261719 31.195312 C 123.9375 31.914062 123.5625 32.488281 123.136719 32.914062 C 122.46875 33.582031 121.707031 33.90625 120.855469 33.882812 C 120.011719 33.851562 119.230469 33.476562 118.511719 32.757812 C 117.835938 32.082031 117.472656 31.34375 117.417969 30.539062 C 117.367188 29.738281 117.628906 29.050781 118.199219 28.476562 C 118.742188 27.9375 119.335938 27.703125 119.980469 27.773438 C 120.625 27.847656 121.28125 28.21875 121.949219 28.882812 L 122.027344 28.960938 L 119.277344 31.710938 C 119.902344 32.335938 120.453125 32.722656 120.933594 32.867188 C 121.683594 33.078125 122.324219 32.914062 122.855469 32.382812 C 123.363281 31.875 123.691406 31.335938 123.839844 30.773438 Z M 119.042969 31.445312 L 120.902344 29.585938 L 120.730469 29.382812 C 120.40625 29.0625 120.152344 28.835938 119.964844 28.710938 C 119.777344 28.585938 119.585938 28.507812 119.386719 28.476562 C 119.003906 28.40625 118.675781 28.503906 118.402344 28.773438 C 118.089844 29.085938 117.992188 29.484375 118.105469 29.960938 C 118.222656 30.441406 118.535156 30.9375 119.042969 31.445312 Z M 120.085938 22.683594 L 125.554688 28.152344 C 125.78125 28.382812 126.007812 28.566406 126.226562 28.699219 C 126.320312 28.753906 126.390625 28.773438 126.445312 28.761719 C 126.507812 28.742188 126.609375 28.667969 126.757812 28.542969 L 127.070312 28.261719 L 127.164062 28.199219 L 127.414062 28.449219 L 125.054688 30.808594 L 124.804688 30.558594 L 124.867188 30.464844 L 125.132812 30.167969 C 125.277344 30.003906 125.351562 29.871094 125.351562 29.777344 C 125.351562 29.683594 125.277344 29.566406 125.132812 29.417969 L 124.742188 28.964844 L 120.351562 24.574219 L 119.914062 24.199219 C 119.75 24.035156 119.625 23.957031 119.539062 23.964844 C 119.445312 23.964844 119.316406 24.039062 119.148438 24.183594 L 118.851562 24.449219 L 118.773438 24.527344 L 118.507812 24.261719 Z M 130.523438 21.53125 L 130.523438 20.71875 L 137.367188 20.71875 L 137.367188 21.53125 Z M 138.101562 29.15625 C 137.609375 29.300781 136.960938 29.421875 136.148438 29.515625 C 135.34375 29.617188 134.617188 29.671875 133.960938 29.671875 C 132.574219 29.671875 131.476562 29.441406 130.664062 28.984375 C 129.851562 28.527344 129.445312 27.917969 129.445312 27.15625 C 129.445312 26.386719 130.015625 25.4375 131.164062 24.3125 L 131.835938 24.84375 C 130.867188 25.792969 130.382812 26.539062 130.382812 27.078125 C 130.382812 27.609375 130.699219 28.039062 131.335938 28.359375 C 131.96875 28.671875 132.84375 28.828125 133.960938 28.828125 C 134.585938 28.828125 135.277344 28.78125 136.039062 28.6875 C 136.796875 28.585938 137.421875 28.460938 137.914062 28.3125 Z M 140.632812 21.796875 L 143.445312 21.796875 L 143.445312 19.765625 L 144.320312 19.765625 L 144.320312 23.53125 C 145.234375 22.699219 145.980469 22.105469 146.554688 21.75 C 147.136719 21.386719 147.621094 21.203125 148.007812 21.203125 C 148.464844 21.203125 148.792969 21.375 148.992188 21.71875 C 149.199219 22.0625 149.304688 22.664062 149.304688 23.515625 C 149.304688 23.996094 149.257812 24.578125 149.164062 25.265625 C 149.070312 25.984375 149.023438 26.5625 149.023438 27 C 149.023438 27.59375 149.074219 27.992188 149.179688 28.1875 C 149.28125 28.375 149.421875 28.46875 149.601562 28.46875 C 149.984375 28.46875 150.511719 28.105469 151.179688 27.375 L 151.664062 28 C 151.296875 28.417969 150.902344 28.757812 150.476562 29.015625 C 150.058594 29.265625 149.695312 29.390625 149.382812 29.390625 C 148.921875 29.390625 148.59375 29.21875 148.398438 28.875 C 148.199219 28.523438 148.101562 27.921875 148.101562 27.078125 C 148.101562 26.609375 148.148438 26.027344 148.242188 25.328125 C 148.335938 24.609375 148.382812 24.03125 148.382812 23.59375 C 148.382812 23 148.328125 22.605469 148.226562 22.40625 C 148.132812 22.210938 147.992188 22.109375 147.804688 22.109375 C 147.335938 22.109375 146.171875 22.96875 144.320312 24.6875 L 144.320312 30.03125 L 143.445312 30.03125 L 143.445312 25.53125 L 141.054688 27.890625 L 140.476562 27.296875 L 143.445312 24.359375 L 143.445312 22.59375 L 140.632812 22.59375 Z M 155.273438 22.390625 C 155.167969 23.308594 155.027344 24.257812 154.851562 25.234375 L 154.867188 25.25 C 155.398438 24.835938 156.039062 24.496094 156.789062 24.234375 C 157.539062 23.976562 158.242188 23.84375 158.898438 23.84375 C 161.136719 23.84375 162.257812 24.734375 162.257812 26.515625 C 162.257812 27.570312 161.820312 28.371094 160.945312 28.921875 C 160.078125 29.472656 158.789062 29.75 157.070312 29.75 C 156.289062 29.75 155.464844 29.703125 154.601562 29.609375 L 154.648438 28.796875 C 155.648438 28.902344 156.453125 28.953125 157.070312 28.953125 C 158.445312 28.953125 159.480469 28.75 160.179688 28.34375 C 160.886719 27.929688 161.242188 27.320312 161.242188 26.515625 C 161.242188 25.257812 160.421875 24.625 158.789062 24.625 C 158.164062 24.625 157.453125 24.789062 156.664062 25.109375 C 155.882812 25.421875 155.195312 25.824219 154.601562 26.3125 L 153.773438 26.09375 C 154.023438 24.699219 154.226562 23.433594 154.382812 22.296875 Z M 155.289062 20.28125 C 157.140625 20.523438 158.933594 20.640625 160.664062 20.640625 L 160.664062 21.4375 C 158.859375 21.4375 157.039062 21.320312 155.195312 21.078125 Z M 175.023438 22.671875 L 172.898438 22.671875 L 172.898438 26.59375 C 173.480469 27 174.1875 27.621094 175.023438 28.453125 L 174.414062 29.0625 C 173.789062 28.429688 173.28125 27.953125 172.898438 27.640625 C 172.835938 29.109375 172.042969 29.84375 170.523438 29.84375 C 169.699219 29.84375 169.0625 29.65625 168.617188 29.28125 C 168.167969 28.90625 167.945312 28.386719 167.945312 27.71875 C 167.945312 27.09375 168.167969 26.617188 168.617188 26.28125 C 169.0625 25.9375 169.699219 25.765625 170.523438 25.765625 C 171.03125 25.765625 171.53125 25.871094 172.023438 26.078125 L 172.023438 22.671875 L 168.257812 22.671875 L 168.257812 21.875 L 172.023438 21.875 L 172.023438 19.875 L 172.898438 19.875 L 172.898438 21.875 L 175.023438 21.875 Z M 166.507812 20.171875 C 166.121094 21.664062 165.929688 23.257812 165.929688 24.953125 C 165.929688 26.652344 166.121094 28.246094 166.507812 29.734375 L 165.648438 29.84375 C 165.242188 28.335938 165.039062 26.703125 165.039062 24.953125 C 165.039062 23.203125 165.242188 21.574219 165.648438 20.0625 Z M 172.023438 27.015625 C 171.511719 26.726562 171 26.578125 170.492188 26.578125 C 169.375 26.578125 168.820312 26.960938 168.820312 27.71875 C 168.820312 28.148438 168.960938 28.476562 169.242188 28.703125 C 169.53125 28.921875 169.949219 29.03125 170.492188 29.03125 C 171.03125 29.03125 171.421875 28.90625 171.664062 28.65625 C 171.902344 28.40625 172.023438 28 172.023438 27.4375 Z M 176.507812 27.8125 L 177.117188 27.296875 C 177.949219 28.109375 178.757812 28.976562 179.539062 29.890625 L 178.914062 30.359375 C 178.277344 29.597656 177.476562 28.75 176.507812 27.8125 Z M 196.289062 21.203125 L 197.132812 20.90625 C 197.671875 21.917969 198.085938 23.078125 198.367188 24.390625 C 198.65625 25.695312 198.804688 27.042969 198.804688 28.4375 L 197.882812 28.4375 C 197.882812 27.125 197.742188 25.835938 197.460938 24.5625 C 197.1875 23.292969 196.796875 22.171875 196.289062 21.203125 Z M 190.710938 21.09375 C 190.367188 22.335938 190.195312 23.664062 190.195312 25.078125 C 190.195312 26.121094 190.375 26.996094 190.742188 27.703125 C 191.117188 28.414062 191.492188 28.765625 191.867188 28.765625 C 192.125 28.765625 192.453125 28.507812 192.851562 27.984375 C 193.257812 27.464844 193.640625 26.730469 194.007812 25.78125 L 194.835938 26.109375 C 194.4375 27.226562 193.953125 28.101562 193.382812 28.734375 C 192.808594 29.359375 192.28125 29.671875 191.804688 29.671875 C 191.179688 29.671875 190.601562 29.226562 190.070312 28.328125 C 189.546875 27.433594 189.289062 26.351562 189.289062 25.078125 C 189.289062 23.570312 189.464844 22.199219 189.820312 20.96875 Z M 205.632812 28.96875 C 204.890625 29.25 204.21875 29.390625 203.617188 29.390625 C 202.679688 29.390625 201.917969 29.078125 201.335938 28.453125 C 200.75 27.828125 200.460938 27.011719 200.460938 26 C 200.460938 25.042969 200.71875 24.261719 201.242188 23.65625 C 201.773438 23.054688 202.445312 22.75 203.257812 22.75 C 204.027344 22.75 204.617188 23.007812 205.023438 23.515625 C 205.429688 24.027344 205.632812 24.757812 205.632812 25.703125 L 205.632812 25.8125 L 201.742188 25.8125 C 201.742188 26.6875 201.859375 27.34375 202.101562 27.78125 C 202.476562 28.46875 203.042969 28.8125 203.804688 28.8125 C 204.511719 28.8125 205.121094 28.667969 205.632812 28.375 Z M 201.757812 25.453125 L 204.398438 25.453125 L 204.414062 25.1875 C 204.414062 24.730469 204.390625 24.390625 204.351562 24.171875 C 204.308594 23.953125 204.226562 23.761719 204.101562 23.59375 C 203.882812 23.273438 203.578125 23.109375 203.195312 23.109375 C 202.757812 23.109375 202.40625 23.324219 202.148438 23.75 C 201.886719 24.167969 201.757812 24.734375 201.757812 25.453125 Z M 208.695312 24.078125 C 208.964844 23.664062 209.304688 23.339844 209.710938 23.109375 C 210.125 22.871094 210.554688 22.75 210.992188 22.75 C 211.542969 22.75 211.96875 22.933594 212.273438 23.296875 C 212.585938 23.652344 212.742188 24.140625 212.742188 24.765625 L 212.742188 27.734375 L 212.789062 28.3125 C 212.796875 28.53125 212.835938 28.671875 212.898438 28.734375 C 212.960938 28.796875 213.101562 28.835938 213.320312 28.84375 L 213.726562 28.875 L 213.835938 28.890625 L 213.835938 29.25 L 210.507812 29.25 L 210.507812 28.890625 L 210.617188 28.875 L 211.007812 28.84375 C 211.234375 28.835938 211.382812 28.796875 211.445312 28.734375 C 211.507812 28.671875 211.542969 28.53125 211.554688 28.3125 L 211.585938 27.734375 L 211.585938 24.953125 C 211.585938 24.402344 211.511719 24.023438 211.367188 23.8125 C 211.230469 23.59375 210.980469 23.484375 210.617188 23.484375 C 210.09375 23.484375 209.453125 23.8125 208.695312 24.46875 L 208.695312 27.734375 C 208.695312 28.058594 208.71875 28.339844 208.773438 28.578125 C 208.804688 28.683594 208.84375 28.75 208.898438 28.78125 C 208.960938 28.8125 209.085938 28.835938 209.273438 28.84375 L 209.679688 28.875 L 209.789062 28.890625 L 209.789062 29.25 L 206.460938 29.25 L 206.460938 28.890625 L 206.570312 28.875 L 206.960938 28.84375 C 207.1875 28.835938 207.335938 28.796875 207.398438 28.734375 C 207.460938 28.671875 207.496094 28.53125 207.507812 28.3125 L 207.539062 27.734375 L 207.539062 24.40625 L 207.507812 23.828125 C 207.496094 23.609375 207.460938 23.46875 207.398438 23.40625 C 207.335938 23.34375 207.1875 23.304688 206.960938 23.28125 L 206.570312 23.25 L 206.460938 23.25 L 206.460938 22.890625 L 208.695312 22.890625 Z M 215.492188 29 C 215.054688 28.804688 214.835938 28.527344 214.835938 28.171875 C 214.835938 27.953125 214.914062 27.761719 215.070312 27.59375 C 215.234375 27.417969 215.527344 27.226562 215.945312 27.015625 C 215.539062 26.839844 215.21875 26.574219 214.992188 26.21875 C 214.761719 25.855469 214.648438 25.445312 214.648438 24.984375 C 214.648438 24.308594 214.867188 23.765625 215.304688 23.359375 C 215.742188 22.953125 216.324219 22.75 217.054688 22.75 C 217.492188 22.75 217.890625 22.828125 218.257812 22.984375 L 220.492188 22.8125 L 220.195312 23.515625 L 218.664062 23.265625 C 219.164062 23.757812 219.414062 24.324219 219.414062 24.96875 C 219.414062 25.625 219.195312 26.167969 218.757812 26.59375 C 218.320312 27.023438 217.761719 27.234375 217.085938 27.234375 C 216.824219 27.234375 216.546875 27.195312 216.257812 27.109375 C 215.984375 27.320312 215.851562 27.554688 215.851562 27.8125 C 215.851562 28.09375 216.09375 28.234375 216.585938 28.234375 L 217.585938 28.234375 C 218.59375 28.234375 219.265625 28.339844 219.601562 28.546875 C 219.964844 28.777344 220.148438 29.15625 220.148438 29.6875 C 220.148438 30.289062 219.871094 30.773438 219.320312 31.140625 C 218.765625 31.515625 218.039062 31.703125 217.132812 31.703125 C 216.246094 31.703125 215.539062 31.578125 215.007812 31.328125 C 214.476562 31.085938 214.210938 30.757812 214.210938 30.34375 C 214.210938 29.820312 214.636719 29.375 215.492188 29 Z M 215.804688 24.90625 C 215.804688 26.210938 216.214844 26.859375 217.039062 26.859375 C 217.433594 26.859375 217.734375 26.699219 217.945312 26.375 C 218.164062 26.054688 218.273438 25.578125 218.273438 24.953125 C 218.273438 24.359375 218.164062 23.90625 217.945312 23.59375 C 217.734375 23.273438 217.4375 23.109375 217.054688 23.109375 C 216.648438 23.109375 216.335938 23.265625 216.117188 23.578125 C 215.90625 23.890625 215.804688 24.335938 215.804688 24.90625 Z M 215.804688 29.109375 C 215.511719 29.390625 215.367188 29.738281 215.367188 30.15625 C 215.367188 30.519531 215.527344 30.8125 215.851562 31.03125 C 216.171875 31.25 216.609375 31.359375 217.164062 31.359375 C 217.726562 31.359375 218.171875 31.234375 218.507812 30.984375 C 218.851562 30.734375 219.023438 30.394531 219.023438 29.96875 C 219.023438 29.644531 218.933594 29.421875 218.757812 29.296875 C 218.578125 29.171875 218.261719 29.109375 217.804688 29.109375 Z M 223.132812 20 L 223.132812 27.734375 C 223.132812 28.058594 223.15625 28.339844 223.210938 28.578125 C 223.242188 28.683594 223.28125 28.75 223.335938 28.78125 C 223.398438 28.8125 223.523438 28.835938 223.710938 28.84375 L 224.117188 28.875 L 224.226562 28.890625 L 224.226562 29.25 L 220.898438 29.25 L 220.898438 28.890625 L 221.007812 28.875 L 221.398438 28.84375 C 221.625 28.835938 221.773438 28.796875 221.835938 28.734375 C 221.898438 28.671875 221.933594 28.53125 221.945312 28.3125 L 221.976562 27.734375 L 221.976562 21.515625 L 221.945312 20.9375 C 221.933594 20.710938 221.898438 20.570312 221.835938 20.515625 C 221.773438 20.453125 221.625 20.414062 221.398438 20.390625 L 221.007812 20.359375 L 220.898438 20.359375 L 220.898438 20 Z M 226.898438 22.890625 L 226.898438 27.734375 C 226.898438 28.058594 226.921875 28.339844 226.976562 28.578125 C 227.007812 28.683594 227.046875 28.75 227.101562 28.78125 C 227.164062 28.8125 227.289062 28.835938 227.476562 28.84375 L 227.882812 28.875 L 227.992188 28.890625 L 227.992188 29.25 L 224.664062 29.25 L 224.664062 28.890625 L 224.773438 28.875 L 225.164062 28.84375 C 225.390625 28.835938 225.539062 28.796875 225.601562 28.734375 C 225.664062 28.671875 225.699219 28.53125 225.710938 28.3125 L 225.742188 27.734375 L 225.742188 24.40625 L 225.710938 23.828125 C 225.699219 23.609375 225.664062 23.46875 225.601562 23.40625 C 225.539062 23.34375 225.390625 23.304688 225.164062 23.28125 L 224.773438 23.25 L 224.664062 23.25 L 224.664062 22.890625 Z M 225.742188 21.734375 L 225.742188 20.578125 L 226.898438 20.578125 L 226.898438 21.734375 Z M 228.945312 28.921875 L 228.945312 27.296875 L 229.601562 27.296875 L 229.617188 27.421875 L 229.664062 28.03125 C 229.683594 28.34375 229.824219 28.578125 230.085938 28.734375 C 230.429688 28.933594 230.804688 29.03125 231.210938 29.03125 C 231.5625 29.03125 231.851562 28.929688 232.070312 28.71875 C 232.296875 28.5 232.414062 28.226562 232.414062 27.890625 C 232.414062 27.601562 232.335938 27.367188 232.179688 27.1875 C 232.03125 27.011719 231.765625 26.851562 231.382812 26.703125 L 230.789062 26.46875 C 230.152344 26.230469 229.6875 25.960938 229.398438 25.65625 C 229.117188 25.34375 228.976562 24.96875 228.976562 24.53125 C 228.976562 24.011719 229.183594 23.585938 229.601562 23.25 C 230.015625 22.917969 230.542969 22.75 231.179688 22.75 C 231.792969 22.75 232.433594 22.871094 233.101562 23.109375 L 233.101562 24.625 L 232.445312 24.625 L 232.445312 24.515625 L 232.398438 23.984375 C 232.375 23.757812 232.339844 23.601562 232.289062 23.515625 C 232.234375 23.433594 232.125 23.351562 231.960938 23.265625 C 231.730469 23.164062 231.496094 23.109375 231.257812 23.109375 C 230.914062 23.109375 230.625 23.21875 230.398438 23.4375 C 230.179688 23.648438 230.070312 23.917969 230.070312 24.25 C 230.070312 24.523438 230.15625 24.742188 230.335938 24.90625 C 230.523438 25.074219 230.886719 25.273438 231.429688 25.5 L 231.976562 25.71875 C 232.558594 25.960938 232.964844 26.210938 233.195312 26.46875 C 233.433594 26.730469 233.554688 27.0625 233.554688 27.46875 C 233.554688 28.03125 233.328125 28.496094 232.882812 28.859375 C 232.433594 29.214844 231.851562 29.390625 231.132812 29.390625 C 230.359375 29.390625 229.632812 29.234375 228.945312 28.921875 Z M 236.632812 24.078125 C 236.902344 23.664062 237.242188 23.339844 237.648438 23.109375 C 238.0625 22.871094 238.492188 22.75 238.929688 22.75 C 239.480469 22.75 239.90625 22.933594 240.210938 23.296875 C 240.523438 23.652344 240.679688 24.140625 240.679688 24.765625 L 240.679688 27.734375 L 240.726562 28.3125 C 240.734375 28.53125 240.773438 28.671875 240.835938 28.734375 C 240.898438 28.796875 241.039062 28.835938 241.257812 28.84375 L 241.664062 28.875 L 241.773438 28.890625 L 241.773438 29.25 L 238.445312 29.25 L 238.445312 28.890625 L 238.554688 28.875 L 238.945312 28.84375 C 239.171875 28.835938 239.320312 28.796875 239.382812 28.734375 C 239.445312 28.671875 239.480469 28.53125 239.492188 28.3125 L 239.523438 27.734375 L 239.523438 24.953125 C 239.523438 24.402344 239.449219 24.023438 239.304688 23.8125 C 239.167969 23.59375 238.917969 23.484375 238.554688 23.484375 C 238.03125 23.484375 237.390625 23.8125 236.632812 24.46875 L 236.632812 27.734375 C 236.632812 28.058594 236.65625 28.339844 236.710938 28.578125 C 236.742188 28.683594 236.78125 28.75 236.835938 28.78125 C 236.898438 28.8125 237.023438 28.835938 237.210938 28.84375 L 237.617188 28.875 L 237.726562 28.890625 L 237.726562 29.25 L 234.398438 29.25 L 234.398438 28.890625 L 234.507812 28.875 L 234.898438 28.84375 C 235.125 28.835938 235.273438 28.796875 235.335938 28.734375 C 235.398438 28.671875 235.433594 28.53125 235.445312 28.3125 L 235.476562 27.734375 L 235.476562 21.515625 L 235.445312 20.9375 C 235.433594 20.710938 235.398438 20.570312 235.335938 20.515625 C 235.273438 20.453125 235.125 20.414062 234.898438 20.390625 L 234.507812 20.359375 L 234.398438 20.359375 L 234.398438 20 L 236.632812 20 Z M 236.632812 24.078125 "/>
<path style=" stroke:none;fill-rule:evenodd;fill:rgb(0%,100%,0%);fill-opacity:1;" d="M 78.25 65.546875 L 78.25 79.703125 L 261.546875 79.703125 L 261.546875 65.546875 Z M 78.25 65.546875 "/>
<path style=" stroke:none;fill-rule:evenodd;fill:rgb(0%,0%,0%);fill-opacity:1;" d="M 81.703125 67 L 81.703125 74.734375 C 81.703125 75.058594 81.726562 75.339844 81.78125 75.578125 C 81.8125 75.683594 81.851562 75.75 81.90625 75.78125 C 81.96875 75.8125 82.09375 75.835938 82.28125 75.84375 L 82.6875 75.875 L 82.796875 75.890625 L 82.796875 76.25 L 79.46875 76.25 L 79.46875 75.890625 L 79.578125 75.875 L 79.96875 75.84375 C 80.195312 75.835938 80.34375 75.796875 80.40625 75.734375 C 80.46875 75.671875 80.503906 75.53125 80.515625 75.3125 L 80.546875 74.734375 L 80.546875 68.515625 L 80.515625 67.9375 C 80.503906 67.710938 80.46875 67.570312 80.40625 67.515625 C 80.34375 67.453125 80.195312 67.414062 79.96875 67.390625 L 79.578125 67.359375 L 79.46875 67.359375 L 79.46875 67 Z M 87.53125 75.375 C 87.144531 75.75 86.800781 76.015625 86.5 76.171875 C 86.195312 76.316406 85.859375 76.390625 85.484375 76.390625 C 84.953125 76.390625 84.503906 76.226562 84.140625 75.890625 C 83.785156 75.546875 83.609375 75.117188 83.609375 74.59375 C 83.609375 73.992188 83.84375 73.5 84.3125 73.125 C 84.601562 72.898438 84.953125 72.734375 85.359375 72.640625 C 85.765625 72.539062 86.320312 72.484375 87.03125 72.484375 L 87.265625 72.484375 L 87.265625 71.703125 C 87.265625 70.695312 86.882812 70.1875 86.125 70.1875 C 85.769531 70.1875 85.453125 70.296875 85.171875 70.515625 C 85.015625 70.652344 84.914062 70.921875 84.875 71.328125 L 84.875 71.4375 L 84.078125 71.4375 L 84.078125 70.28125 C 84.890625 69.929688 85.640625 69.75 86.328125 69.75 C 86.929688 69.75 87.425781 69.890625 87.8125 70.171875 C 88.039062 70.351562 88.195312 70.542969 88.28125 70.75 C 88.375 70.960938 88.421875 71.261719 88.421875 71.65625 L 88.421875 74.484375 C 88.421875 74.996094 88.460938 75.355469 88.546875 75.5625 C 88.640625 75.773438 88.796875 75.875 89.015625 75.875 C 89.085938 75.875 89.191406 75.855469 89.328125 75.8125 L 89.359375 76.25 C 89.078125 76.34375 88.828125 76.390625 88.609375 76.390625 C 88.035156 76.390625 87.675781 76.054688 87.53125 75.375 Z M 87.265625 75.25 L 87.265625 72.84375 L 87 72.84375 C 86.3125 72.84375 85.773438 72.984375 85.390625 73.265625 C 85.015625 73.546875 84.828125 73.9375 84.828125 74.4375 C 84.828125 74.804688 84.941406 75.105469 85.171875 75.34375 C 85.410156 75.585938 85.707031 75.703125 86.0625 75.703125 C 86.40625 75.703125 86.804688 75.554688 87.265625 75.25 Z M 90.46875 76.328125 L 90.46875 68.515625 L 90.4375 67.9375 C 90.414062 67.710938 90.375 67.570312 90.3125 67.515625 C 90.257812 67.453125 90.117188 67.414062 89.890625 67.390625 L 89.5 67.359375 L 89.390625 67.359375 L 89.390625 67 L 91.625 67 L 91.625 71.078125 C 92.195312 70.195312 92.941406 69.75 93.859375 69.75 C 94.578125 69.75 95.148438 70.03125 95.578125 70.59375 C 96.003906 71.15625 96.21875 71.917969 96.21875 72.875 C 96.21875 73.9375 95.972656 74.792969 95.484375 75.4375 C 94.992188 76.074219 94.347656 76.390625 93.546875 76.390625 C 92.796875 76.390625 92.15625 76.105469 91.625 75.53125 L 91.546875 75.53125 L 91.40625 76.328125 Z M 91.625 75.078125 C 92.238281 75.527344 92.828125 75.75 93.390625 75.75 C 93.910156 75.75 94.304688 75.53125 94.578125 75.09375 C 94.847656 74.65625 94.984375 74.027344 94.984375 73.203125 C 94.984375 72.296875 94.851562 71.621094 94.59375 71.171875 C 94.34375 70.714844 93.957031 70.484375 93.4375 70.484375 C 93.113281 70.484375 92.789062 70.578125 92.46875 70.765625 C 92.144531 70.945312 91.863281 71.183594 91.625 71.484375 Z M 102.625 75.96875 C 101.882812 76.25 101.210938 76.390625 100.609375 76.390625 C 99.671875 76.390625 98.910156 76.078125 98.328125 75.453125 C 97.742188 74.828125 97.453125 74.011719 97.453125 73 C 97.453125 72.042969 97.710938 71.261719 98.234375 70.65625 C 98.765625 70.054688 99.4375 69.75 100.25 69.75 C 101.019531 69.75 101.609375 70.007812 102.015625 70.515625 C 102.421875 71.027344 102.625 71.757812 102.625 72.703125 L 102.625 72.8125 L 98.734375 72.8125 C 98.734375 73.6875 98.851562 74.34375 99.09375 74.78125 C 99.46875 75.46875 100.035156 75.8125 100.796875 75.8125 C 101.503906 75.8125 102.113281 75.667969 102.625 75.375 Z M 98.75 72.453125 L 101.390625 72.453125 L 101.40625 72.1875 C 101.40625 71.730469 101.382812 71.390625 101.34375 71.171875 C 101.300781 70.953125 101.21875 70.761719 101.09375 70.59375 C 100.875 70.273438 100.570312 70.109375 100.1875 70.109375 C 99.75 70.109375 99.398438 70.324219 99.140625 70.75 C 98.878906 71.167969 98.75 71.734375 98.75 72.453125 Z M 105.6875 67 L 105.6875 74.734375 C 105.6875 75.058594 105.710938 75.339844 105.765625 75.578125 C 105.796875 75.683594 105.835938 75.75 105.890625 75.78125 C 105.953125 75.8125 106.078125 75.835938 106.265625 75.84375 L 106.671875 75.875 L 106.78125 75.890625 L 106.78125 76.25 L 103.453125 76.25 L 103.453125 75.890625 L 103.5625 75.875 L 103.953125 75.84375 C 104.179688 75.835938 104.328125 75.796875 104.390625 75.734375 C 104.453125 75.671875 104.488281 75.53125 104.5 75.3125 L 104.53125 74.734375 L 104.53125 68.515625 L 104.5 67.9375 C 104.488281 67.710938 104.453125 67.570312 104.390625 67.515625 C 104.328125 67.453125 104.179688 67.414062 103.953125 67.390625 L 103.5625 67.359375 L 103.453125 67.359375 L 103.453125 67 Z M 113.296875 68.53125 L 113.296875 67.71875 L 120.140625 67.71875 L 120.140625 68.53125 Z M 120.875 76.15625 C 120.382812 76.300781 119.734375 76.421875 118.921875 76.515625 C 118.117188 76.617188 117.390625 76.671875 116.734375 76.671875 C 115.347656 76.671875 114.25 76.441406 113.4375 75.984375 C 112.625 75.527344 112.21875 74.917969 112.21875 74.15625 C 112.21875 73.386719 112.789062 72.4375 113.9375 71.3125 L 114.609375 71.84375 C 113.640625 72.792969 113.15625 73.539062 113.15625 74.078125 C 113.15625 74.609375 113.472656 75.039062 114.109375 75.359375 C 114.742188 75.671875 115.617188 75.828125 116.734375 75.828125 C 117.359375 75.828125 118.050781 75.78125 118.8125 75.6875 C 119.570312 75.585938 120.195312 75.460938 120.6875 75.3125 Z M 123.40625 68.796875 L 126.21875 68.796875 L 126.21875 66.765625 L 127.09375 66.765625 L 127.09375 70.53125 C 128.007812 69.699219 128.753906 69.105469 129.328125 68.75 C 129.910156 68.386719 130.394531 68.203125 130.78125 68.203125 C 131.238281 68.203125 131.566406 68.375 131.765625 68.71875 C 131.972656 69.0625 132.078125 69.664062 132.078125 70.515625 C 132.078125 70.996094 132.03125 71.578125 131.9375 72.265625 C 131.84375 72.984375 131.796875 73.5625 131.796875 74 C 131.796875 74.59375 131.847656 74.992188 131.953125 75.1875 C 132.054688 75.375 132.195312 75.46875 132.375 75.46875 C 132.757812 75.46875 133.285156 75.105469 133.953125 74.375 L 134.4375 75 C 134.070312 75.417969 133.675781 75.757812 133.25 76.015625 C 132.832031 76.265625 132.46875 76.390625 132.15625 76.390625 C 131.695312 76.390625 131.367188 76.21875 131.171875 75.875 C 130.972656 75.523438 130.875 74.921875 130.875 74.078125 C 130.875 73.609375 130.921875 73.027344 131.015625 72.328125 C 131.109375 71.609375 131.15625 71.03125 131.15625 70.59375 C 131.15625 70 131.101562 69.605469 131 69.40625 C 130.90625 69.210938 130.765625 69.109375 130.578125 69.109375 C 130.109375 69.109375 128.945312 69.96875 127.09375 71.6875 L 127.09375 77.03125 L 126.21875 77.03125 L 126.21875 72.53125 L 123.828125 74.890625 L 123.25 74.296875 L 126.21875 71.359375 L 126.21875 69.59375 L 123.40625 69.59375 Z M 138.046875 69.390625 C 137.941406 70.308594 137.800781 71.257812 137.625 72.234375 L 137.640625 72.25 C 138.171875 71.835938 138.8125 71.496094 139.5625 71.234375 C 140.3125 70.976562 141.015625 70.84375 141.671875 70.84375 C 143.910156 70.84375 145.03125 71.734375 145.03125 73.515625 C 145.03125 74.570312 144.59375 75.371094 143.71875 75.921875 C 142.851562 76.472656 141.5625 76.75 139.84375 76.75 C 139.0625 76.75 138.238281 76.703125 137.375 76.609375 L 137.421875 75.796875 C 138.421875 75.902344 139.226562 75.953125 139.84375 75.953125 C 141.21875 75.953125 142.253906 75.75 142.953125 75.34375 C 143.660156 74.929688 144.015625 74.320312 144.015625 73.515625 C 144.015625 72.257812 143.195312 71.625 141.5625 71.625 C 140.9375 71.625 140.226562 71.789062 139.4375 72.109375 C 138.65625 72.421875 137.96875 72.824219 137.375 73.3125 L 136.546875 73.09375 C 136.796875 71.699219 137 70.433594 137.15625 69.296875 Z M 138.0625 67.28125 C 139.914062 67.523438 141.707031 67.640625 143.4375 67.640625 L 143.4375 68.4375 C 141.632812 68.4375 139.8125 68.320312 137.96875 68.078125 Z M 157.796875 69.671875 L 155.671875 69.671875 L 155.671875 73.59375 C 156.253906 74 156.960938 74.621094 157.796875 75.453125 L 157.1875 76.0625 C 156.5625 75.429688 156.054688 74.953125 155.671875 74.640625 C 155.609375 76.109375 154.816406 76.84375 153.296875 76.84375 C 152.472656 76.84375 151.835938 76.65625 151.390625 76.28125 C 150.941406 75.90625 150.71875 75.386719 150.71875 74.71875 C 150.71875 74.09375 150.941406 73.617188 151.390625 73.28125 C 151.835938 72.9375 152.472656 72.765625 153.296875 72.765625 C 153.804688 72.765625 154.304688 72.871094 154.796875 73.078125 L 154.796875 69.671875 L 151.03125 69.671875 L 151.03125 68.875 L 154.796875 68.875 L 154.796875 66.875 L 155.671875 66.875 L 155.671875 68.875 L 157.796875 68.875 Z M 149.28125 67.171875 C 148.894531 68.664062 148.703125 70.257812 148.703125 71.953125 C 148.703125 73.652344 148.894531 75.246094 149.28125 76.734375 L 148.421875 76.84375 C 148.015625 75.335938 147.8125 73.703125 147.8125 71.953125 C 147.8125 70.203125 148.015625 68.574219 148.421875 67.0625 Z M 154.796875 74.015625 C 154.285156 73.726562 153.773438 73.578125 153.265625 73.578125 C 152.148438 73.578125 151.59375 73.960938 151.59375 74.71875 C 151.59375 75.148438 151.734375 75.476562 152.015625 75.703125 C 152.304688 75.921875 152.722656 76.03125 153.265625 76.03125 C 153.804688 76.03125 154.195312 75.90625 154.4375 75.65625 C 154.675781 75.40625 154.796875 75 154.796875 74.4375 Z M 159.28125 74.8125 L 159.890625 74.296875 C 160.722656 75.109375 161.53125 75.976562 162.3125 76.890625 L 161.6875 77.359375 C 161.050781 76.597656 160.25 75.75 159.28125 74.8125 Z M 179.0625 68.203125 L 179.90625 67.90625 C 180.445312 68.917969 180.859375 70.078125 181.140625 71.390625 C 181.429688 72.695312 181.578125 74.042969 181.578125 75.4375 L 180.65625 75.4375 C 180.65625 74.125 180.515625 72.835938 180.234375 71.5625 C 179.960938 70.292969 179.570312 69.171875 179.0625 68.203125 Z M 173.484375 68.09375 C 173.140625 69.335938 172.96875 70.664062 172.96875 72.078125 C 172.96875 73.121094 173.148438 73.996094 173.515625 74.703125 C 173.890625 75.414062 174.265625 75.765625 174.640625 75.765625 C 174.898438 75.765625 175.226562 75.507812 175.625 74.984375 C 176.03125 74.464844 176.414062 73.730469 176.78125 72.78125 L 177.609375 73.109375 C 177.210938 74.226562 176.726562 75.101562 176.15625 75.734375 C 175.582031 76.359375 175.054688 76.671875 174.578125 76.671875 C 173.953125 76.671875 173.375 76.226562 172.84375 75.328125 C 172.320312 74.433594 172.0625 73.351562 172.0625 72.078125 C 172.0625 70.570312 172.238281 69.199219 172.59375 67.96875 Z M 191.359375 67.375 C 189.816406 68.605469 188.304688 69.710938 186.828125 70.6875 C 186.359375 71 186.054688 71.214844 185.921875 71.328125 C 185.796875 71.445312 185.734375 71.574219 185.734375 71.71875 C 185.734375 71.84375 185.789062 71.964844 185.90625 72.078125 C 186.019531 72.183594 186.285156 72.375 186.703125 72.65625 C 188.367188 73.792969 190.046875 75.09375 191.734375 76.5625 L 191.078125 77.203125 C 189.390625 75.757812 187.75 74.480469 186.15625 73.375 C 185.519531 72.9375 185.117188 72.632812 184.953125 72.453125 C 184.785156 72.265625 184.703125 72.023438 184.703125 71.71875 C 184.703125 71.398438 184.785156 71.148438 184.953125 70.96875 C 185.128906 70.78125 185.5625 70.460938 186.25 70 C 187.75 69.011719 189.253906 67.914062 190.765625 66.703125 Z M 195.71875 68.984375 C 198.070312 68.359375 199.847656 68.046875 201.046875 68.046875 C 204.066406 68.046875 205.578125 69.308594 205.578125 71.828125 C 205.578125 73.320312 204.929688 74.453125 203.640625 75.234375 C 202.359375 76.007812 200.457031 76.390625 197.9375 76.390625 L 197.875 75.515625 C 202.351562 75.515625 204.59375 74.320312 204.59375 71.921875 C 204.59375 70.914062 204.296875 70.167969 203.703125 69.6875 C 203.117188 69.199219 202.210938 68.953125 200.984375 68.953125 C 199.898438 68.953125 198.210938 69.257812 195.921875 69.859375 Z M 207.8125 69.875 L 207.8125 69.078125 L 210.15625 69.078125 C 210.382812 68.089844 210.554688 67.246094 210.671875 66.546875 L 211.546875 66.640625 C 211.429688 67.339844 211.269531 68.152344 211.0625 69.078125 L 212.140625 69.078125 C 212.503906 69.078125 212.78125 69.078125 212.96875 69.078125 C 213.164062 69.078125 213.375 69.101562 213.59375 69.140625 C 213.820312 69.183594 213.984375 69.21875 214.078125 69.25 C 214.171875 69.28125 214.269531 69.367188 214.375 69.5 C 214.488281 69.636719 214.554688 69.757812 214.578125 69.859375 C 214.609375 69.964844 214.640625 70.152344 214.671875 70.421875 C 214.710938 70.683594 214.734375 70.929688 214.734375 71.15625 C 214.734375 71.386719 214.734375 71.71875 214.734375 72.15625 C 214.734375 73.636719 214.554688 74.761719 214.203125 75.53125 C 213.847656 76.289062 213.398438 76.671875 212.859375 76.671875 C 212.179688 76.671875 211.367188 76.453125 210.421875 76.015625 L 210.71875 75.21875 C 211.613281 75.605469 212.269531 75.796875 212.6875 75.796875 C 212.976562 75.796875 213.238281 75.476562 213.46875 74.828125 C 213.695312 74.183594 213.8125 73.25 213.8125 72.03125 C 213.8125 71.773438 213.8125 71.578125 213.8125 71.453125 C 213.8125 71.328125 213.804688 71.179688 213.796875 71 C 213.785156 70.8125 213.773438 70.6875 213.765625 70.625 C 213.765625 70.554688 213.742188 70.464844 213.703125 70.359375 C 213.671875 70.246094 213.644531 70.179688 213.625 70.15625 C 213.613281 70.125 213.566406 70.085938 213.484375 70.03125 C 213.398438 69.96875 213.335938 69.9375 213.296875 69.9375 C 213.253906 69.929688 213.164062 69.917969 213.03125 69.90625 C 212.90625 69.886719 212.796875 69.875 212.703125 69.875 C 212.617188 69.875 212.484375 69.875 212.296875 69.875 L 210.875 69.875 C 210.28125 72.28125 209.488281 74.574219 208.5 76.75 L 207.671875 76.4375 C 208.609375 74.367188 209.375 72.179688 209.96875 69.875 Z M 215.265625 68.296875 L 216.09375 68 C 216.988281 70.042969 217.695312 72.074219 218.21875 74.09375 L 217.359375 74.3125 C 217.128906 73.417969 216.816406 72.40625 216.421875 71.28125 C 216.035156 70.15625 215.648438 69.164062 215.265625 68.296875 Z M 224.40625 75.96875 C 223.664062 76.25 222.992188 76.390625 222.390625 76.390625 C 221.453125 76.390625 220.691406 76.078125 220.109375 75.453125 C 219.523438 74.828125 219.234375 74.011719 219.234375 73 C 219.234375 72.042969 219.492188 71.261719 220.015625 70.65625 C 220.546875 70.054688 221.21875 69.75 222.03125 69.75 C 222.800781 69.75 223.390625 70.007812 223.796875 70.515625 C 224.203125 71.027344 224.40625 71.757812 224.40625 72.703125 L 224.40625 72.8125 L 220.515625 72.8125 C 220.515625 73.6875 220.632812 74.34375 220.875 74.78125 C 221.25 75.46875 221.816406 75.8125 222.578125 75.8125 C 223.285156 75.8125 223.894531 75.667969 224.40625 75.375 Z M 220.53125 72.453125 L 223.171875 72.453125 L 223.1875 72.1875 C 223.1875 71.730469 223.164062 71.390625 223.125 71.171875 C 223.082031 70.953125 223 70.761719 222.875 70.59375 C 222.65625 70.273438 222.351562 70.109375 221.96875 70.109375 C 221.53125 70.109375 221.179688 70.324219 220.921875 70.75 C 220.660156 71.167969 220.53125 71.734375 220.53125 72.453125 Z M 227.46875 71.078125 C 227.738281 70.664062 228.078125 70.339844 228.484375 70.109375 C 228.898438 69.871094 229.328125 69.75 229.765625 69.75 C 230.316406 69.75 230.742188 69.933594 231.046875 70.296875 C 231.359375 70.652344 231.515625 71.140625 231.515625 71.765625 L 231.515625 74.734375 L 231.5625 75.3125 C 231.570312 75.53125 231.609375 75.671875 231.671875 75.734375 C 231.734375 75.796875 231.875 75.835938 232.09375 75.84375 L 232.5 75.875 L 232.609375 75.890625 L 232.609375 76.25 L 229.28125 76.25 L 229.28125 75.890625 L 229.390625 75.875 L 229.78125 75.84375 C 230.007812 75.835938 230.15625 75.796875 230.21875 75.734375 C 230.28125 75.671875 230.316406 75.53125 230.328125 75.3125 L 230.359375 74.734375 L 230.359375 71.953125 C 230.359375 71.402344 230.285156 71.023438 230.140625 70.8125 C 230.003906 70.59375 229.753906 70.484375 229.390625 70.484375 C 228.867188 70.484375 228.226562 70.8125 227.46875 71.46875 L 227.46875 74.734375 C 227.46875 75.058594 227.492188 75.339844 227.546875 75.578125 C 227.578125 75.683594 227.617188 75.75 227.671875 75.78125 C 227.734375 75.8125 227.859375 75.835938 228.046875 75.84375 L 228.453125 75.875 L 228.5625 75.890625 L 228.5625 76.25 L 225.234375 76.25 L 225.234375 75.890625 L 225.34375 75.875 L 225.734375 75.84375 C 225.960938 75.835938 226.109375 75.796875 226.171875 75.734375 C 226.234375 75.671875 226.269531 75.53125 226.28125 75.3125 L 226.3125 74.734375 L 226.3125 71.40625 L 226.28125 70.828125 C 226.269531 70.609375 226.234375 70.46875 226.171875 70.40625 C 226.109375 70.34375 225.960938 70.304688 225.734375 70.28125 L 225.34375 70.25 L 225.234375 70.25 L 225.234375 69.890625 L 227.46875 69.890625 Z M 234.265625 76 C 233.828125 75.804688 233.609375 75.527344 233.609375 75.171875 C 233.609375 74.953125 233.6875 74.761719 233.84375 74.59375 C 234.007812 74.417969 234.300781 74.226562 234.71875 74.015625 C 234.3125 73.839844 233.992188 73.574219 233.765625 73.21875 C 233.535156 72.855469 233.421875 72.445312 233.421875 71.984375 C 233.421875 71.308594 233.640625 70.765625 234.078125 70.359375 C 234.515625 69.953125 235.097656 69.75 235.828125 69.75 C 236.265625 69.75 236.664062 69.828125 237.03125 69.984375 L 239.265625 69.8125 L 238.96875 70.515625 L 237.4375 70.265625 C 237.9375 70.757812 238.1875 71.324219 238.1875 71.96875 C 238.1875 72.625 237.96875 73.167969 237.53125 73.59375 C 237.09375 74.023438 236.535156 74.234375 235.859375 74.234375 C 235.597656 74.234375 235.320312 74.195312 235.03125 74.109375 C 234.757812 74.320312 234.625 74.554688 234.625 74.8125 C 234.625 75.09375 234.867188 75.234375 235.359375 75.234375 L 236.359375 75.234375 C 237.367188 75.234375 238.039062 75.339844 238.375 75.546875 C 238.738281 75.777344 238.921875 76.15625 238.921875 76.6875 C 238.921875 77.289062 238.644531 77.773438 238.09375 78.140625 C 237.539062 78.515625 236.8125 78.703125 235.90625 78.703125 C 235.019531 78.703125 234.3125 78.578125 233.78125 78.328125 C 233.25 78.085938 232.984375 77.757812 232.984375 77.34375 C 232.984375 76.820312 233.410156 76.375 234.265625 76 Z M 234.578125 71.90625 C 234.578125 73.210938 234.988281 73.859375 235.8125 73.859375 C 236.207031 73.859375 236.507812 73.699219 236.71875 73.375 C 236.9375 73.054688 237.046875 72.578125 237.046875 71.953125 C 237.046875 71.359375 236.9375 70.90625 236.71875 70.59375 C 236.507812 70.273438 236.210938 70.109375 235.828125 70.109375 C 235.421875 70.109375 235.109375 70.265625 234.890625 70.578125 C 234.679688 70.890625 234.578125 71.335938 234.578125 71.90625 Z M 234.578125 76.109375 C 234.285156 76.390625 234.140625 76.738281 234.140625 77.15625 C 234.140625 77.519531 234.300781 77.8125 234.625 78.03125 C 234.945312 78.25 235.382812 78.359375 235.9375 78.359375 C 236.5 78.359375 236.945312 78.234375 237.28125 77.984375 C 237.625 77.734375 237.796875 77.394531 237.796875 76.96875 C 237.796875 76.644531 237.707031 76.421875 237.53125 76.296875 C 237.351562 76.171875 237.035156 76.109375 236.578125 76.109375 Z M 241.90625 67 L 241.90625 74.734375 C 241.90625 75.058594 241.929688 75.339844 241.984375 75.578125 C 242.015625 75.683594 242.054688 75.75 242.109375 75.78125 C 242.171875 75.8125 242.296875 75.835938 242.484375 75.84375 L 242.890625 75.875 L 243 75.890625 L 243 76.25 L 239.671875 76.25 L 239.671875 75.890625 L 239.78125 75.875 L 240.171875 75.84375 C 240.398438 75.835938 240.546875 75.796875 240.609375 75.734375 C 240.671875 75.671875 240.707031 75.53125 240.71875 75.3125 L 240.75 74.734375 L 240.75 68.515625 L 240.71875 67.9375 C 240.707031 67.710938 240.671875 67.570312 240.609375 67.515625 C 240.546875 67.453125 240.398438 67.414062 240.171875 67.390625 L 239.78125 67.359375 L 239.671875 67.359375 L 239.671875 67 Z M 245.671875 69.890625 L 245.671875 74.734375 C 245.671875 75.058594 245.695312 75.339844 245.75 75.578125 C 245.78125 75.683594 245.820312 75.75 245.875 75.78125 C 245.9375 75.8125 246.0625 75.835938 246.25 75.84375 L 246.65625 75.875 L 246.765625 75.890625 L 246.765625 76.25 L 243.4375 76.25 L 243.4375 75.890625 L 243.546875 75.875 L 243.9375 75.84375 C 244.164062 75.835938 244.3125 75.796875 244.375 75.734375 C 244.4375 75.671875 244.472656 75.53125 244.484375 75.3125 L 244.515625 74.734375 L 244.515625 71.40625 L 244.484375 70.828125 C 244.472656 70.609375 244.4375 70.46875 244.375 70.40625 C 244.3125 70.34375 244.164062 70.304688 243.9375 70.28125 L 243.546875 70.25 L 243.4375 70.25 L 243.4375 69.890625 Z M 244.515625 68.734375 L 244.515625 67.578125 L 245.671875 67.578125 L 245.671875 68.734375 Z M 247.71875 75.921875 L 247.71875 74.296875 L 248.375 74.296875 L 248.390625 74.421875 L 248.4375 75.03125 C 248.457031 75.34375 248.597656 75.578125 248.859375 75.734375 C 249.203125 75.933594 249.578125 76.03125 249.984375 76.03125 C 250.335938 76.03125 250.625 75.929688 250.84375 75.71875 C 251.070312 75.5 251.1875 75.226562 251.1875 74.890625 C 251.1875 74.601562 251.109375 74.367188 250.953125 74.1875 C 250.804688 74.011719 250.539062 73.851562 250.15625 73.703125 L 249.5625 73.46875 C 248.925781 73.230469 248.460938 72.960938 248.171875 72.65625 C 247.890625 72.34375 247.75 71.96875 247.75 71.53125 C 247.75 71.011719 247.957031 70.585938 248.375 70.25 C 248.789062 69.917969 249.316406 69.75 249.953125 69.75 C 250.566406 69.75 251.207031 69.871094 251.875 70.109375 L 251.875 71.625 L 251.21875 71.625 L 251.21875 71.515625 L 251.171875 70.984375 C 251.148438 70.757812 251.113281 70.601562 251.0625 70.515625 C 251.007812 70.433594 250.898438 70.351562 250.734375 70.265625 C 250.503906 70.164062 250.269531 70.109375 250.03125 70.109375 C 249.6875 70.109375 249.398438 70.21875 249.171875 70.4375 C 248.953125 70.648438 248.84375 70.917969 248.84375 71.25 C 248.84375 71.523438 248.929688 71.742188 249.109375 71.90625 C 249.296875 72.074219 249.660156 72.273438 250.203125 72.5 L 250.75 72.71875 C 251.332031 72.960938 251.738281 73.210938 251.96875 73.46875 C 252.207031 73.730469 252.328125 74.0625 252.328125 74.46875 C 252.328125 75.03125 252.101562 75.496094 251.65625 75.859375 C 251.207031 76.214844 250.625 76.390625 249.90625 76.390625 C 249.132812 76.390625 248.40625 76.234375 247.71875 75.921875 Z M 255.40625 71.078125 C 255.675781 70.664062 256.015625 70.339844 256.421875 70.109375 C 256.835938 69.871094 257.265625 69.75 257.703125 69.75 C 258.253906 69.75 258.679688 69.933594 258.984375 70.296875 C 259.296875 70.652344 259.453125 71.140625 259.453125 71.765625 L 259.453125 74.734375 L 259.5 75.3125 C 259.507812 75.53125 259.546875 75.671875 259.609375 75.734375 C 259.671875 75.796875 259.8125 75.835938 260.03125 75.84375 L 260.4375 75.875 L 260.546875 75.890625 L 260.546875 76.25 L 257.21875 76.25 L 257.21875 75.890625 L 257.328125 75.875 L 257.71875 75.84375 C 257.945312 75.835938 258.09375 75.796875 258.15625 75.734375 C 258.21875 75.671875 258.253906 75.53125 258.265625 75.3125 L 258.296875 74.734375 L 258.296875 71.953125 C 258.296875 71.402344 258.222656 71.023438 258.078125 70.8125 C 257.941406 70.59375 257.691406 70.484375 257.328125 70.484375 C 256.804688 70.484375 256.164062 70.8125 255.40625 71.46875 L 255.40625 74.734375 C 255.40625 75.058594 255.429688 75.339844 255.484375 75.578125 C 255.515625 75.683594 255.554688 75.75 255.609375 75.78125 C 255.671875 75.8125 255.796875 75.835938 255.984375 75.84375 L 256.390625 75.875 L 256.5 75.890625 L 256.5 76.25 L 253.171875 76.25 L 253.171875 75.890625 L 253.28125 75.875 L 253.671875 75.84375 C 253.898438 75.835938 254.046875 75.796875 254.109375 75.734375 C 254.171875 75.671875 254.207031 75.53125 254.21875 75.3125 L 254.25 74.734375 L 254.25 68.515625 L 254.21875 67.9375 C 254.207031 67.710938 254.171875 67.570312 254.109375 67.515625 C 254.046875 67.453125 253.898438 67.414062 253.671875 67.390625 L 253.28125 67.359375 L 253.171875 67.359375 L 253.171875 67 L 255.40625 67 Z M 255.40625 71.078125 "/>
</g>
</svg>
