<?xml version="1.0" encoding="UTF-8"?>
<svg xmlns="http://www.w3.org/2000/svg" xmlns:xlink="http://www.w3.org/1999/xlink" width="300pt" height="100pt" viewBox="0 0 300 100" version="1.1">
<g id="surface2">
<rect x="0" y="0" width="300" height="100" style="fill:rgb(100%,100%,100%);fill-opacity:1;stroke:none;"/>
<path style=" stroke:none;fill-rule:nonzero;fill:rgb(100%,0%,0%);fill-opacity:1;" d="M 77.75 74.25 C 77.75 77.582031 72.75 77.582031 72.75 74.25 C 72.75 70.917969 77.75 70.917969 77.75 74.25 "/>
<path style="fill:none;stroke-width:1;stroke-linecap:round;stroke-linejoin:round;stroke:rgb(100%,0%,0%);stroke-opacity:1;stroke-miterlimit:10;" d="M 100 49.5 L 124.75 24.75 L 248.5 24.75 "/>
<path style=" stroke:none;fill-rule:nonzero;fill:rgb(0%,0%,0%);fill-opacity:1;" d="M 100.1875 42.71875 L 105.65625 48.1875 C 105.882812 48.417969 106.109375 48.601562 106.328125 48.734375 C 106.421875 48.789062 106.492188 48.808594 106.546875 48.796875 C 106.609375 48.777344 106.710938 48.703125 106.859375 48.578125 L 107.171875 48.296875 L 107.265625 48.234375 L 107.515625 48.484375 L 105.15625 50.84375 L 104.90625 50.59375 L 104.96875 50.5 L 105.234375 50.203125 C 105.378906 50.039062 105.453125 49.90625 105.453125 49.8125 C 105.453125 49.71875 105.378906 49.601562 105.234375 49.453125 L 104.84375 49 L 100.453125 44.609375 L 100.015625 44.234375 C 99.851562 44.070312 99.726562 43.992188 99.640625 44 C 99.546875 44 99.417969 44.074219 99.25 44.21875 L 98.953125 44.484375 L 98.875 44.5625 L 98.609375 44.296875 Z M 100.1875 42.71875 "/>
<path style=" stroke:none;fill-rule:nonzero;fill:rgb(0%,0%,0%);fill-opacity:1;" d="M 110.5625 44.1875 C 110.5625 44.730469 110.503906 45.164062 110.390625 45.484375 C 110.285156 45.796875 110.101562 46.085938 109.84375 46.34375 C 109.46875 46.71875 109.03125 46.917969 108.53125 46.9375 C 108.039062 46.949219 107.617188 46.773438 107.25 46.40625 C 106.824219 45.980469 106.648438 45.46875 106.71875 44.875 C 106.75 44.511719 106.882812 44.152344 107.109375 43.796875 C 107.328125 43.433594 107.6875 43 108.1875 42.5 L 108.34375 42.34375 L 107.78125 41.78125 C 107.074219 41.074219 106.453125 40.984375 105.921875 41.515625 C 105.671875 41.765625 105.523438 42.0625 105.46875 42.40625 C 105.460938 42.625 105.578125 42.890625 105.828125 43.203125 L 105.90625 43.28125 L 105.34375 43.84375 L 104.53125 43.03125 C 104.855469 42.210938 105.261719 41.554688 105.75 41.0625 C 106.179688 40.636719 106.625 40.386719 107.09375 40.3125 C 107.386719 40.273438 107.636719 40.292969 107.84375 40.375 C 108.050781 40.460938 108.296875 40.640625 108.578125 40.921875 L 110.578125 42.921875 C 110.941406 43.289062 111.226562 43.511719 111.4375 43.59375 C 111.644531 43.679688 111.828125 43.640625 111.984375 43.484375 C 112.023438 43.445312 112.082031 43.355469 112.15625 43.21875 L 112.484375 43.515625 C 112.347656 43.777344 112.203125 43.984375 112.046875 44.140625 C 111.640625 44.546875 111.144531 44.5625 110.5625 44.1875 Z M 110.296875 44.296875 L 108.59375 42.59375 L 108.40625 42.78125 C 107.929688 43.261719 107.652344 43.734375 107.578125 44.203125 C 107.507812 44.671875 107.648438 45.085938 108 45.4375 C 108.257812 45.699219 108.554688 45.828125 108.890625 45.828125 C 109.222656 45.828125 109.515625 45.703125 109.765625 45.453125 C 110.003906 45.214844 110.179688 44.828125 110.296875 44.296875 Z M 110.296875 44.296875 "/>
<path style=" stroke:none;fill-rule:nonzero;fill:rgb(0%,0%,0%);fill-opacity:1;" d="M 112.71875 43.40625 L 107.1875 37.875 L 106.765625 37.484375 C 106.589844 37.328125 106.460938 37.25 106.375 37.25 C 106.292969 37.25 106.164062 37.328125 105.984375 37.484375 L 105.703125 37.734375 L 105.625 37.8125 L 105.359375 37.546875 L 106.9375 35.96875 L 109.828125 38.859375 C 109.609375 37.828125 109.824219 36.992188 110.46875 36.34375 C 110.980469 35.835938 111.585938 35.625 112.28125 35.71875 C 112.976562 35.8125 113.664062 36.199219 114.34375 36.875 C 115.09375 37.625 115.519531 38.402344 115.625 39.203125 C 115.726562 40.007812 115.5 40.6875 114.9375 41.25 C 114.40625 41.78125 113.75 42.03125 112.96875 42 L 112.90625 42.0625 L 113.390625 42.734375 Z M 112.65625 41.6875 C 113.394531 41.574219 113.96875 41.3125 114.375 40.90625 C 114.738281 40.542969 114.863281 40.109375 114.75 39.609375 C 114.632812 39.109375 114.285156 38.570312 113.703125 37.984375 C 113.066406 37.351562 112.5 36.964844 112 36.828125 C 111.492188 36.683594 111.054688 36.792969 110.6875 37.15625 C 110.460938 37.386719 110.296875 37.683594 110.203125 38.046875 C 110.101562 38.402344 110.070312 38.765625 110.109375 39.140625 Z M 112.65625 41.6875 "/>
<path style=" stroke:none;fill-rule:nonzero;fill:rgb(0%,0%,0%);fill-opacity:1;" d="M 121.875 33.75 C 121.550781 34.46875 121.175781 35.042969 120.75 35.46875 C 120.082031 36.125 119.320312 36.4375 118.46875 36.40625 C 117.617188 36.375 116.828125 36 116.109375 35.28125 C 115.445312 34.605469 115.085938 33.871094 115.03125 33.078125 C 114.980469 32.277344 115.242188 31.589844 115.8125 31.015625 C 116.367188 30.476562 116.964844 30.242188 117.609375 30.3125 C 118.253906 30.386719 118.910156 30.761719 119.578125 31.4375 L 119.65625 31.515625 L 116.890625 34.25 C 117.507812 34.875 118.054688 35.257812 118.546875 35.390625 C 119.285156 35.621094 119.925781 35.464844 120.46875 34.921875 C 120.96875 34.421875 121.300781 33.890625 121.46875 33.328125 Z M 116.65625 33.984375 L 118.53125 32.125 L 118.359375 31.9375 C 118.035156 31.605469 117.78125 31.375 117.59375 31.25 C 117.40625 31.125 117.214844 31.046875 117.015625 31.015625 C 116.632812 30.933594 116.296875 31.03125 116.015625 31.3125 C 115.714844 31.617188 115.621094 32.011719 115.734375 32.5 C 115.839844 32.980469 116.148438 33.476562 116.65625 33.984375 Z M 116.65625 33.984375 "/>
<path style=" stroke:none;fill-rule:nonzero;fill:rgb(0%,0%,0%);fill-opacity:1;" d="M 119.015625 24.296875 L 123.921875 30.265625 C 124.128906 30.515625 124.332031 30.71875 124.53125 30.875 C 124.613281 30.9375 124.6875 30.964844 124.75 30.953125 C 124.820312 30.933594 124.929688 30.871094 125.078125 30.765625 L 125.421875 30.515625 L 125.5 30.46875 L 125.734375 30.75 L 123.171875 32.859375 L 122.9375 32.578125 L 123.015625 32.5 L 123.296875 32.234375 C 123.472656 32.078125 123.5625 31.960938 123.5625 31.875 C 123.570312 31.78125 123.515625 31.652344 123.390625 31.484375 L 123.03125 31 L 119.09375 26.203125 L 118.703125 25.78125 C 118.546875 25.605469 118.429688 25.515625 118.34375 25.515625 C 118.261719 25.515625 118.125 25.578125 117.9375 25.703125 L 117.609375 25.9375 L 117.53125 26 L 117.296875 25.71875 Z M 119.015625 24.296875 "/>
<path style=" stroke:none;fill-rule:nonzero;fill:rgb(0%,0%,0%);fill-opacity:1;" d="M 129.453125 22.21875 L 129.4375 21.40625 L 136.28125 21.25 L 136.296875 22.0625 Z M 137.21875 29.671875 C 136.726562 29.828125 136.082031 29.964844 135.28125 30.078125 C 134.476562 30.191406 133.75 30.257812 133.09375 30.28125 C 131.707031 30.3125 130.601562 30.109375 129.78125 29.671875 C 128.957031 29.234375 128.535156 28.636719 128.515625 27.875 C 128.492188 27.105469 129.046875 26.140625 130.171875 24.984375 L 130.84375 25.5 C 129.90625 26.46875 129.441406 27.226562 129.453125 27.765625 C 129.460938 28.296875 129.785156 28.714844 130.421875 29.015625 C 131.066406 29.320312 131.945312 29.460938 133.0625 29.4375 C 133.6875 29.417969 134.378906 29.351562 135.140625 29.234375 C 135.898438 29.121094 136.523438 28.984375 137.015625 28.828125 Z M 137.21875 29.671875 "/>
<path style=" stroke:none;fill-rule:nonzero;fill:rgb(0%,0%,0%);fill-opacity:1;" d="M 139.6875 21.546875 L 142.5 21.515625 L 142.484375 19.484375 L 143.359375 19.484375 L 143.390625 23.25 C 144.304688 22.40625 145.050781 21.804688 145.625 21.4375 C 146.195312 21.074219 146.675781 20.890625 147.0625 20.890625 C 147.519531 20.890625 147.851562 21.0625 148.0625 21.40625 C 148.269531 21.742188 148.375 22.335938 148.375 23.1875 C 148.382812 23.667969 148.34375 24.257812 148.25 24.953125 C 148.164062 25.671875 148.125 26.25 148.125 26.6875 C 148.125 27.28125 148.175781 27.671875 148.28125 27.859375 C 148.394531 28.046875 148.539062 28.140625 148.71875 28.140625 C 149.101562 28.140625 149.625 27.777344 150.28125 27.046875 L 150.765625 27.65625 C 150.410156 28.085938 150.019531 28.429688 149.59375 28.6875 C 149.175781 28.9375 148.8125 29.0625 148.5 29.0625 C 148.039062 29.070312 147.710938 28.90625 147.515625 28.5625 C 147.316406 28.210938 147.210938 27.609375 147.203125 26.765625 C 147.203125 26.296875 147.242188 25.714844 147.328125 25.015625 C 147.421875 24.296875 147.460938 23.71875 147.453125 23.28125 C 147.453125 22.6875 147.398438 22.292969 147.296875 22.09375 C 147.203125 21.898438 147.0625 21.796875 146.875 21.796875 C 146.40625 21.808594 145.25 22.679688 143.40625 24.40625 L 143.4375 29.75 L 142.5625 29.75 L 142.53125 25.25 L 140.15625 27.625 L 139.578125 27.046875 L 142.53125 24.078125 L 142.515625 22.3125 L 139.703125 22.34375 Z M 139.6875 21.546875 "/>
<path style=" stroke:none;fill-rule:nonzero;fill:rgb(0%,0%,0%);fill-opacity:1;" d="M 154.390625 22.140625 C 154.285156 23.058594 154.144531 24.007812 153.96875 24.984375 L 153.984375 25 C 154.515625 24.585938 155.15625 24.246094 155.90625 23.984375 C 156.65625 23.726562 157.359375 23.59375 158.015625 23.59375 C 160.253906 23.59375 161.375 24.484375 161.375 26.265625 C 161.375 27.320312 160.9375 28.121094 160.0625 28.671875 C 159.195312 29.222656 157.90625 29.5 156.1875 29.5 C 155.40625 29.5 154.582031 29.453125 153.71875 29.359375 L 153.765625 28.546875 C 154.765625 28.652344 155.570312 28.703125 156.1875 28.703125 C 157.5625 28.703125 158.597656 28.5 159.296875 28.09375 C 160.003906 27.679688 160.359375 27.070312 160.359375 26.265625 C 160.359375 25.007812 159.539062 24.375 157.90625 24.375 C 157.28125 24.375 156.570312 24.539062 155.78125 24.859375 C 155 25.171875 154.3125 25.574219 153.71875 26.0625 L 152.890625 25.84375 C 153.140625 24.449219 153.34375 23.183594 153.5 22.046875 Z M 154.40625 20.03125 C 156.257812 20.273438 158.050781 20.390625 159.78125 20.390625 L 159.78125 21.1875 C 157.976562 21.1875 156.15625 21.070312 154.3125 20.828125 Z M 154.40625 20.03125 "/>
<path style=" stroke:none;fill-rule:nonzero;fill:rgb(0%,0%,0%);fill-opacity:1;" d="M 174.140625 22.421875 L 172.015625 22.421875 L 172.015625 26.34375 C 172.597656 26.75 173.304688 27.371094 174.140625 28.203125 L 173.53125 28.8125 C 172.90625 28.179688 172.398438 27.703125 172.015625 27.390625 C 171.953125 28.859375 171.160156 29.59375 169.640625 29.59375 C 168.816406 29.59375 168.179688 29.40625 167.734375 29.03125 C 167.285156 28.65625 167.0625 28.136719 167.0625 27.46875 C 167.0625 26.84375 167.285156 26.367188 167.734375 26.03125 C 168.179688 25.6875 168.816406 25.515625 169.640625 25.515625 C 170.148438 25.515625 170.648438 25.621094 171.140625 25.828125 L 171.140625 22.421875 L 167.375 22.421875 L 167.375 21.625 L 171.140625 21.625 L 171.140625 19.625 L 172.015625 19.625 L 172.015625 21.625 L 174.140625 21.625 Z M 165.625 19.921875 C 165.238281 21.414062 165.046875 23.007812 165.046875 24.703125 C 165.046875 26.402344 165.238281 27.996094 165.625 29.484375 L 164.765625 29.59375 C 164.359375 28.085938 164.15625 26.453125 164.15625 24.703125 C 164.15625 22.953125 164.359375 21.324219 164.765625 19.8125 Z M 171.140625 26.765625 C 170.628906 26.476562 170.117188 26.328125 169.609375 26.328125 C 168.492188 26.328125 167.9375 26.710938 167.9375 27.46875 C 167.9375 27.898438 168.078125 28.226562 168.359375 28.453125 C 168.648438 28.671875 169.066406 28.78125 169.609375 28.78125 C 170.148438 28.78125 170.539062 28.65625 170.78125 28.40625 C 171.019531 28.15625 171.140625 27.75 171.140625 27.1875 Z M 171.140625 26.765625 "/>
<path style=" stroke:none;fill-rule:nonzero;fill:rgb(0%,0%,0%);fill-opacity:1;" d="M 176.625 27.5625 L 177.234375 27.046875 C 178.066406 27.859375 178.875 28.726562 179.65625 29.640625 L 179.03125 30.109375 C 178.394531 29.347656 177.59375 28.5 176.625 27.5625 Z M 176.625 27.5625 "/>
<path style=" stroke:none;fill-rule:nonzero;fill:rgb(0%,0%,0%);fill-opacity:1;" d="M 196.40625 20.953125 L 197.25 20.65625 C 197.789062 21.667969 198.203125 22.828125 198.484375 24.140625 C 198.773438 25.445312 198.921875 26.792969 198.921875 28.1875 L 198 28.1875 C 198 26.875 197.859375 25.585938 197.578125 24.3125 C 197.304688 23.042969 196.914062 21.921875 196.40625 20.953125 Z M 190.828125 20.84375 C 190.484375 22.085938 190.3125 23.414062 190.3125 24.828125 C 190.3125 25.871094 190.492188 26.746094 190.859375 27.453125 C 191.234375 28.164062 191.609375 28.515625 191.984375 28.515625 C 192.242188 28.515625 192.570312 28.257812 192.96875 27.734375 C 193.375 27.214844 193.757812 26.480469 194.125 25.53125 L 194.953125 25.859375 C 194.554688 26.976562 194.070312 27.851562 193.5 28.484375 C 192.925781 29.109375 192.398438 29.421875 191.921875 29.421875 C 191.296875 29.421875 190.71875 28.976562 190.1875 28.078125 C 189.664062 27.183594 189.40625 26.101562 189.40625 24.828125 C 189.40625 23.320312 189.582031 21.949219 189.9375 20.71875 Z M 190.828125 20.84375 "/>
<path style=" stroke:none;fill-rule:nonzero;fill:rgb(0%,0%,0%);fill-opacity:1;" d="M 205.75 28.71875 C 205.007812 29 204.335938 29.140625 203.734375 29.140625 C 202.796875 29.140625 202.035156 28.828125 201.453125 28.203125 C 200.867188 27.578125 200.578125 26.761719 200.578125 25.75 C 200.578125 24.792969 200.835938 24.011719 201.359375 23.40625 C 201.890625 22.804688 202.5625 22.5 203.375 22.5 C 204.144531 22.5 204.734375 22.757812 205.140625 23.265625 C 205.546875 23.777344 205.75 24.507812 205.75 25.453125 L 205.75 25.5625 L 201.859375 25.5625 C 201.859375 26.4375 201.976562 27.09375 202.21875 27.53125 C 202.59375 28.21875 203.160156 28.5625 203.921875 28.5625 C 204.628906 28.5625 205.238281 28.417969 205.75 28.125 Z M 201.875 25.203125 L 204.515625 25.203125 L 204.53125 24.9375 C 204.53125 24.480469 204.507812 24.140625 204.46875 23.921875 C 204.425781 23.703125 204.34375 23.511719 204.21875 23.34375 C 204 23.023438 203.695312 22.859375 203.3125 22.859375 C 202.875 22.859375 202.523438 23.074219 202.265625 23.5 C 202.003906 23.917969 201.875 24.484375 201.875 25.203125 Z M 201.875 25.203125 "/>
<path style=" stroke:none;fill-rule:nonzero;fill:rgb(0%,0%,0%);fill-opacity:1;" d="M 210.453125 23.828125 C 210.722656 23.414062 211.0625 23.089844 211.46875 22.859375 C 211.882812 22.621094 212.3125 22.5 212.75 22.5 C 213.300781 22.5 213.726562 22.683594 214.03125 23.046875 C 214.34375 23.402344 214.5 23.890625 214.5 24.515625 L 214.5 27.484375 L 214.546875 28.0625 C 214.554688 28.28125 214.59375 28.421875 214.65625 28.484375 C 214.71875 28.546875 214.859375 28.585938 215.078125 28.59375 L 215.484375 28.625 L 215.59375 28.640625 L 215.59375 29 L 212.265625 29 L 212.265625 28.640625 L 212.375 28.625 L 212.765625 28.59375 C 212.992188 28.585938 213.140625 28.546875 213.203125 28.484375 C 213.265625 28.421875 213.300781 28.28125 213.3125 28.0625 L 213.34375 27.484375 L 213.34375 24.703125 C 213.34375 24.152344 213.269531 23.773438 213.125 23.5625 C 212.988281 23.34375 212.738281 23.234375 212.375 23.234375 C 211.851562 23.234375 211.210938 23.5625 210.453125 24.21875 L 210.453125 27.484375 C 210.453125 27.808594 210.476562 28.089844 210.53125 28.328125 C 210.5625 28.433594 210.601562 28.5 210.65625 28.53125 C 210.71875 28.5625 210.84375 28.585938 211.03125 28.59375 L 211.4375 28.625 L 211.546875 28.640625 L 211.546875 29 L 208.21875 29 L 208.21875 28.640625 L 208.328125 28.625 L 208.71875 28.59375 C 208.945312 28.585938 209.09375 28.546875 209.15625 28.484375 C 209.21875 28.421875 209.253906 28.28125 209.265625 28.0625 L 209.296875 27.484375 L 209.296875 24.15625 L 209.265625 23.578125 C 209.253906 23.359375 209.21875 23.21875 209.15625 23.15625 C 209.09375 23.09375 208.945312 23.054688 208.71875 23.03125 L 208.328125 23 L 208.21875 23 L 208.21875 22.640625 L 210.453125 22.640625 Z M 210.453125 23.828125 "/>
<path style=" stroke:none;fill-rule:nonzero;fill:rgb(0%,0%,0%);fill-opacity:1;" d="M 217.65625 28.75 C 217.21875 28.554688 217 28.277344 217 27.921875 C 217 27.703125 217.078125 27.511719 217.234375 27.34375 C 217.398438 27.167969 217.691406 26.976562 218.109375 26.765625 C 217.703125 26.589844 217.382812 26.324219 217.15625 25.96875 C 216.925781 25.605469 216.8125 25.195312 216.8125 24.734375 C 216.8125 24.058594 217.03125 23.515625 217.46875 23.109375 C 217.90625 22.703125 218.488281 22.5 219.21875 22.5 C 219.65625 22.5 220.054688 22.578125 220.421875 22.734375 L 222.65625 22.5625 L 222.359375 23.265625 L 220.828125 23.015625 C 221.328125 23.507812 221.578125 24.074219 221.578125 24.71875 C 221.578125 25.375 221.359375 25.917969 220.921875 26.34375 C 220.484375 26.773438 219.925781 26.984375 219.25 26.984375 C 218.988281 26.984375 218.710938 26.945312 218.421875 26.859375 C 218.148438 27.070312 218.015625 27.304688 218.015625 27.5625 C 218.015625 27.84375 218.257812 27.984375 218.75 27.984375 L 219.75 27.984375 C 220.757812 27.984375 221.429688 28.089844 221.765625 28.296875 C 222.128906 28.527344 222.3125 28.90625 222.3125 29.4375 C 222.3125 30.039062 222.035156 30.523438 221.484375 30.890625 C 220.929688 31.265625 220.203125 31.453125 219.296875 31.453125 C 218.410156 31.453125 217.703125 31.328125 217.171875 31.078125 C 216.640625 30.835938 216.375 30.507812 216.375 30.09375 C 216.375 29.570312 216.800781 29.125 217.65625 28.75 Z M 217.96875 24.65625 C 217.96875 25.960938 218.378906 26.609375 219.203125 26.609375 C 219.597656 26.609375 219.898438 26.449219 220.109375 26.125 C 220.328125 25.804688 220.4375 25.328125 220.4375 24.703125 C 220.4375 24.109375 220.328125 23.65625 220.109375 23.34375 C 219.898438 23.023438 219.601562 22.859375 219.21875 22.859375 C 218.8125 22.859375 218.5 23.015625 218.28125 23.328125 C 218.070312 23.640625 217.96875 24.085938 217.96875 24.65625 Z M 217.96875 28.859375 C 217.675781 29.140625 217.53125 29.488281 217.53125 29.90625 C 217.53125 30.269531 217.691406 30.5625 218.015625 30.78125 C 218.335938 31 218.773438 31.109375 219.328125 31.109375 C 219.890625 31.109375 220.335938 30.984375 220.671875 30.734375 C 221.015625 30.484375 221.1875 30.144531 221.1875 29.71875 C 221.1875 29.394531 221.097656 29.171875 220.921875 29.046875 C 220.742188 28.921875 220.425781 28.859375 219.96875 28.859375 Z M 217.96875 28.859375 "/>
<path style=" stroke:none;fill-rule:nonzero;fill:rgb(0%,0%,0%);fill-opacity:1;" d="M 225.453125 19.75 L 225.453125 27.484375 C 225.453125 27.808594 225.476562 28.089844 225.53125 28.328125 C 225.5625 28.433594 225.601562 28.5 225.65625 28.53125 C 225.71875 28.5625 225.84375 28.585938 226.03125 28.59375 L 226.4375 28.625 L 226.546875 28.640625 L 226.546875 29 L 223.21875 29 L 223.21875 28.640625 L 223.328125 28.625 L 223.71875 28.59375 C 223.945312 28.585938 224.09375 28.546875 224.15625 28.484375 C 224.21875 28.421875 224.253906 28.28125 224.265625 28.0625 L 224.296875 27.484375 L 224.296875 21.265625 L 224.265625 20.6875 C 224.253906 20.460938 224.21875 20.320312 224.15625 20.265625 C 224.09375 20.203125 223.945312 20.164062 223.71875 20.140625 L 223.328125 20.109375 L 223.21875 20.109375 L 223.21875 19.75 Z M 225.453125 19.75 "/>
<path style=" stroke:none;fill-rule:nonzero;fill:rgb(0%,0%,0%);fill-opacity:1;" d="M 229.453125 22.640625 L 229.453125 27.484375 C 229.453125 27.808594 229.476562 28.089844 229.53125 28.328125 C 229.5625 28.433594 229.601562 28.5 229.65625 28.53125 C 229.71875 28.5625 229.84375 28.585938 230.03125 28.59375 L 230.4375 28.625 L 230.546875 28.640625 L 230.546875 29 L 227.21875 29 L 227.21875 28.640625 L 227.328125 28.625 L 227.71875 28.59375 C 227.945312 28.585938 228.09375 28.546875 228.15625 28.484375 C 228.21875 28.421875 228.253906 28.28125 228.265625 28.0625 L 228.296875 27.484375 L 228.296875 24.15625 L 228.265625 23.578125 C 228.253906 23.359375 228.21875 23.21875 228.15625 23.15625 C 228.09375 23.09375 227.945312 23.054688 227.71875 23.03125 L 227.328125 23 L 227.21875 23 L 227.21875 22.640625 Z M 228.296875 21.484375 L 228.296875 20.328125 L 229.453125 20.328125 L 229.453125 21.484375 Z M 228.296875 21.484375 "/>
<path style=" stroke:none;fill-rule:nonzero;fill:rgb(0%,0%,0%);fill-opacity:1;" d="M 231.8125 28.671875 L 231.8125 27.046875 L 232.46875 27.046875 L 232.484375 27.171875 L 232.53125 27.78125 C 232.550781 28.09375 232.691406 28.328125 232.953125 28.484375 C 233.296875 28.683594 233.671875 28.78125 234.078125 28.78125 C 234.429688 28.78125 234.71875 28.679688 234.9375 28.46875 C 235.164062 28.25 235.28125 27.976562 235.28125 27.640625 C 235.28125 27.351562 235.203125 27.117188 235.046875 26.9375 C 234.898438 26.761719 234.632812 26.601562 234.25 26.453125 L 233.65625 26.21875 C 233.019531 25.980469 232.554688 25.710938 232.265625 25.40625 C 231.984375 25.09375 231.84375 24.71875 231.84375 24.28125 C 231.84375 23.761719 232.050781 23.335938 232.46875 23 C 232.882812 22.667969 233.410156 22.5 234.046875 22.5 C 234.660156 22.5 235.300781 22.621094 235.96875 22.859375 L 235.96875 24.375 L 235.3125 24.375 L 235.3125 24.265625 L 235.265625 23.734375 C 235.242188 23.507812 235.207031 23.351562 235.15625 23.265625 C 235.101562 23.183594 234.992188 23.101562 234.828125 23.015625 C 234.597656 22.914062 234.363281 22.859375 234.125 22.859375 C 233.78125 22.859375 233.492188 22.96875 233.265625 23.1875 C 233.046875 23.398438 232.9375 23.667969 232.9375 24 C 232.9375 24.273438 233.023438 24.492188 233.203125 24.65625 C 233.390625 24.824219 233.753906 25.023438 234.296875 25.25 L 234.84375 25.46875 C 235.425781 25.710938 235.832031 25.960938 236.0625 26.21875 C 236.300781 26.480469 236.421875 26.8125 236.421875 27.21875 C 236.421875 27.78125 236.195312 28.246094 235.75 28.609375 C 235.300781 28.964844 234.71875 29.140625 234 29.140625 C 233.226562 29.140625 232.5 28.984375 231.8125 28.671875 Z M 231.8125 28.671875 "/>
<path style=" stroke:none;fill-rule:nonzero;fill:rgb(0%,0%,0%);fill-opacity:1;" d="M 238.453125 23.828125 C 238.722656 23.414062 239.0625 23.089844 239.46875 22.859375 C 239.882812 22.621094 240.3125 22.5 240.75 22.5 C 241.300781 22.5 241.726562 22.683594 242.03125 23.046875 C 242.34375 23.402344 242.5 23.890625 242.5 24.515625 L 242.5 27.484375 L 242.546875 28.0625 C 242.554688 28.28125 242.59375 28.421875 242.65625 28.484375 C 242.71875 28.546875 242.859375 28.585938 243.078125 28.59375 L 243.484375 28.625 L 243.59375 28.640625 L 243.59375 29 L 240.265625 29 L 240.265625 28.640625 L 240.375 28.625 L 240.765625 28.59375 C 240.992188 28.585938 241.140625 28.546875 241.203125 28.484375 C 241.265625 28.421875 241.300781 28.28125 241.3125 28.0625 L 241.34375 27.484375 L 241.34375 24.703125 C 241.34375 24.152344 241.269531 23.773438 241.125 23.5625 C 240.988281 23.34375 240.738281 23.234375 240.375 23.234375 C 239.851562 23.234375 239.210938 23.5625 238.453125 24.21875 L 238.453125 27.484375 C 238.453125 27.808594 238.476562 28.089844 238.53125 28.328125 C 238.5625 28.433594 238.601562 28.5 238.65625 28.53125 C 238.71875 28.5625 238.84375 28.585938 239.03125 28.59375 L 239.4375 28.625 L 239.546875 28.640625 L 239.546875 29 L 236.21875 29 L 236.21875 28.640625 L 236.328125 28.625 L 236.71875 28.59375 C 236.945312 28.585938 237.09375 28.546875 237.15625 28.484375 C 237.21875 28.421875 237.253906 28.28125 237.265625 28.0625 L 237.296875 27.484375 L 237.296875 21.265625 L 237.265625 20.6875 C 237.253906 20.460938 237.21875 20.320312 237.15625 20.265625 C 237.09375 20.203125 236.945312 20.164062 236.71875 20.140625 L 236.328125 20.109375 L 236.21875 20.109375 L 236.21875 19.75 L 238.453125 19.75 Z M 238.453125 23.828125 "/>
<path style=" stroke:none;fill-rule:evenodd;fill:rgb(0%,100%,0%);fill-opacity:1;" d="M 78.25 80.75 L 78.25 67.75 L 263.25 67.75 L 263.25 80.75 Z M 78.25 80.75 "/>
<path style=" stroke:none;fill-rule:evenodd;fill:rgb(0%,0%,0%);fill-opacity:1;" d="M 82.453125 69.75 L 82.453125 77.484375 C 82.453125 77.808594 82.476562 78.089844 82.53125 78.328125 C 82.5625 78.433594 82.601562 78.5 82.65625 78.53125 C 82.71875 78.5625 82.84375 78.585938 83.03125 78.59375 L 83.4375 78.625 L 83.546875 78.640625 L 83.546875 79 L 80.21875 79 L 80.21875 78.640625 L 80.328125 78.625 L 80.71875 78.59375 C 80.945312 78.585938 81.09375 78.546875 81.15625 78.484375 C 81.21875 78.421875 81.253906 78.28125 81.265625 78.0625 L 81.296875 77.484375 L 81.296875 71.265625 L 81.265625 70.6875 C 81.253906 70.460938 81.21875 70.320312 81.15625 70.265625 C 81.09375 70.203125 80.945312 70.164062 80.71875 70.140625 L 80.328125 70.109375 L 80.21875 70.109375 L 80.21875 69.75 Z M 88.277344 78.125 C 87.890625 78.5 87.546875 78.765625 87.246094 78.921875 C 86.941406 79.066406 86.605469 79.140625 86.230469 79.140625 C 85.699219 79.140625 85.25 78.976562 84.886719 78.640625 C 84.53125 78.296875 84.355469 77.867188 84.355469 77.34375 C 84.355469 76.742188 84.589844 76.25 85.058594 75.875 C 85.347656 75.648438 85.699219 75.484375 86.105469 75.390625 C 86.511719 75.289062 87.066406 75.234375 87.777344 75.234375 L 88.011719 75.234375 L 88.011719 74.453125 C 88.011719 73.445312 87.628906 72.9375 86.871094 72.9375 C 86.515625 72.9375 86.199219 73.046875 85.917969 73.265625 C 85.761719 73.402344 85.660156 73.671875 85.621094 74.078125 L 85.621094 74.1875 L 84.824219 74.1875 L 84.824219 73.03125 C 85.636719 72.679688 86.386719 72.5 87.074219 72.5 C 87.675781 72.5 88.171875 72.640625 88.558594 72.921875 C 88.785156 73.101562 88.941406 73.292969 89.027344 73.5 C 89.121094 73.710938 89.167969 74.011719 89.167969 74.40625 L 89.167969 77.234375 C 89.167969 77.746094 89.207031 78.105469 89.292969 78.3125 C 89.386719 78.523438 89.542969 78.625 89.761719 78.625 C 89.832031 78.625 89.9375 78.605469 90.074219 78.5625 L 90.105469 79 C 89.824219 79.09375 89.574219 79.140625 89.355469 79.140625 C 88.78125 79.140625 88.421875 78.804688 88.277344 78.125 Z M 88.011719 78 L 88.011719 75.59375 L 87.746094 75.59375 C 87.058594 75.59375 86.519531 75.734375 86.136719 76.015625 C 85.761719 76.296875 85.574219 76.6875 85.574219 77.1875 C 85.574219 77.554688 85.6875 77.855469 85.917969 78.09375 C 86.15625 78.335938 86.453125 78.453125 86.808594 78.453125 C 87.152344 78.453125 87.550781 78.304688 88.011719 78 Z M 91.214844 79.078125 L 91.214844 71.265625 L 91.183594 70.6875 C 91.160156 70.460938 91.121094 70.320312 91.058594 70.265625 C 91.003906 70.203125 90.863281 70.164062 90.636719 70.140625 L 90.246094 70.109375 L 90.136719 70.109375 L 90.136719 69.75 L 92.371094 69.75 L 92.371094 73.828125 C 92.941406 72.945312 93.6875 72.5 94.605469 72.5 C 95.324219 72.5 95.894531 72.78125 96.324219 73.34375 C 96.75 73.90625 96.964844 74.667969 96.964844 75.625 C 96.964844 76.6875 96.71875 77.542969 96.230469 78.1875 C 95.738281 78.824219 95.09375 79.140625 94.292969 79.140625 C 93.542969 79.140625 92.902344 78.855469 92.371094 78.28125 L 92.292969 78.28125 L 92.152344 79.078125 Z M 92.371094 77.828125 C 92.984375 78.277344 93.574219 78.5 94.136719 78.5 C 94.65625 78.5 95.050781 78.28125 95.324219 77.84375 C 95.59375 77.40625 95.730469 76.777344 95.730469 75.953125 C 95.730469 75.046875 95.597656 74.371094 95.339844 73.921875 C 95.089844 73.464844 94.703125 73.234375 94.183594 73.234375 C 93.859375 73.234375 93.535156 73.328125 93.214844 73.515625 C 92.890625 73.695312 92.609375 73.933594 92.371094 74.234375 Z M 103.363281 78.71875 C 102.621094 79 101.949219 79.140625 101.347656 79.140625 C 100.410156 79.140625 99.648438 78.828125 99.066406 78.203125 C 98.480469 77.578125 98.191406 76.761719 98.191406 75.75 C 98.191406 74.792969 98.449219 74.011719 98.972656 73.40625 C 99.503906 72.804688 100.175781 72.5 100.988281 72.5 C 101.757812 72.5 102.347656 72.757812 102.753906 73.265625 C 103.160156 73.777344 103.363281 74.507812 103.363281 75.453125 L 103.363281 75.5625 L 99.472656 75.5625 C 99.472656 76.4375 99.589844 77.09375 99.832031 77.53125 C 100.207031 78.21875 100.773438 78.5625 101.535156 78.5625 C 102.242188 78.5625 102.851562 78.417969 103.363281 78.125 Z M 99.488281 75.203125 L 102.128906 75.203125 L 102.144531 74.9375 C 102.144531 74.480469 102.121094 74.140625 102.082031 73.921875 C 102.039062 73.703125 101.957031 73.511719 101.832031 73.34375 C 101.613281 73.023438 101.308594 72.859375 100.925781 72.859375 C 100.488281 72.859375 100.136719 73.074219 99.878906 73.5 C 99.617188 73.917969 99.488281 74.484375 99.488281 75.203125 Z M 106.421875 69.75 L 106.421875 77.484375 C 106.421875 77.808594 106.445312 78.089844 106.5 78.328125 C 106.53125 78.433594 106.570312 78.5 106.625 78.53125 C 106.6875 78.5625 106.8125 78.585938 107 78.59375 L 107.40625 78.625 L 107.515625 78.640625 L 107.515625 79 L 104.1875 79 L 104.1875 78.640625 L 104.296875 78.625 L 104.6875 78.59375 C 104.914062 78.585938 105.0625 78.546875 105.125 78.484375 C 105.1875 78.421875 105.222656 78.28125 105.234375 78.0625 L 105.265625 77.484375 L 105.265625 71.265625 L 105.234375 70.6875 C 105.222656 70.460938 105.1875 70.320312 105.125 70.265625 C 105.0625 70.203125 104.914062 70.164062 104.6875 70.140625 L 104.296875 70.109375 L 104.1875 70.109375 L 104.1875 69.75 Z M 114.023438 71.28125 L 114.023438 70.46875 L 120.867188 70.46875 L 120.867188 71.28125 Z M 121.601562 78.90625 C 121.109375 79.050781 120.460938 79.171875 119.648438 79.265625 C 118.84375 79.367188 118.117188 79.421875 117.460938 79.421875 C 116.074219 79.421875 114.976562 79.191406 114.164062 78.734375 C 113.351562 78.277344 112.945312 77.667969 112.945312 76.90625 C 112.945312 76.136719 113.515625 75.1875 114.664062 74.0625 L 115.335938 74.59375 C 114.367188 75.542969 113.882812 76.289062 113.882812 76.828125 C 113.882812 77.359375 114.199219 77.789062 114.835938 78.109375 C 115.46875 78.421875 116.34375 78.578125 117.460938 78.578125 C 118.085938 78.578125 118.777344 78.53125 119.539062 78.4375 C 120.296875 78.335938 120.921875 78.210938 121.414062 78.0625 Z M 124.132812 71.546875 L 126.945312 71.546875 L 126.945312 69.515625 L 127.820312 69.515625 L 127.820312 73.28125 C 128.734375 72.449219 129.480469 71.855469 130.054688 71.5 C 130.636719 71.136719 131.121094 70.953125 131.507812 70.953125 C 131.964844 70.953125 132.292969 71.125 132.492188 71.46875 C 132.699219 71.8125 132.804688 72.414062 132.804688 73.265625 C 132.804688 73.746094 132.757812 74.328125 132.664062 75.015625 C 132.570312 75.734375 132.523438 76.3125 132.523438 76.75 C 132.523438 77.34375 132.574219 77.742188 132.679688 77.9375 C 132.78125 78.125 132.921875 78.21875 133.101562 78.21875 C 133.484375 78.21875 134.011719 77.855469 134.679688 77.125 L 135.164062 77.75 C 134.796875 78.167969 134.402344 78.507812 133.976562 78.765625 C 133.558594 79.015625 133.195312 79.140625 132.882812 79.140625 C 132.421875 79.140625 132.09375 78.96875 131.898438 78.625 C 131.699219 78.273438 131.601562 77.671875 131.601562 76.828125 C 131.601562 76.359375 131.648438 75.777344 131.742188 75.078125 C 131.835938 74.359375 131.882812 73.78125 131.882812 73.34375 C 131.882812 72.75 131.828125 72.355469 131.726562 72.15625 C 131.632812 71.960938 131.492188 71.859375 131.304688 71.859375 C 130.835938 71.859375 129.671875 72.71875 127.820312 74.4375 L 127.820312 79.78125 L 126.945312 79.78125 L 126.945312 75.28125 L 124.554688 77.640625 L 123.976562 77.046875 L 126.945312 74.109375 L 126.945312 72.34375 L 124.132812 72.34375 Z M 138.773438 72.140625 C 138.667969 73.058594 138.527344 74.007812 138.351562 74.984375 L 138.367188 75 C 138.898438 74.585938 139.539062 74.246094 140.289062 73.984375 C 141.039062 73.726562 141.742188 73.59375 142.398438 73.59375 C 144.636719 73.59375 145.757812 74.484375 145.757812 76.265625 C 145.757812 77.320312 145.320312 78.121094 144.445312 78.671875 C 143.578125 79.222656 142.289062 79.5 140.570312 79.5 C 139.789062 79.5 138.964844 79.453125 138.101562 79.359375 L 138.148438 78.546875 C 139.148438 78.652344 139.953125 78.703125 140.570312 78.703125 C 141.945312 78.703125 142.980469 78.5 143.679688 78.09375 C 144.386719 77.679688 144.742188 77.070312 144.742188 76.265625 C 144.742188 75.007812 143.921875 74.375 142.289062 74.375 C 141.664062 74.375 140.953125 74.539062 140.164062 74.859375 C 139.382812 75.171875 138.695312 75.574219 138.101562 76.0625 L 137.273438 75.84375 C 137.523438 74.449219 137.726562 73.183594 137.882812 72.046875 Z M 138.789062 70.03125 C 140.640625 70.273438 142.433594 70.390625 144.164062 70.390625 L 144.164062 71.1875 C 142.359375 71.1875 140.539062 71.070312 138.695312 70.828125 Z M 158.523438 72.421875 L 156.398438 72.421875 L 156.398438 76.34375 C 156.980469 76.75 157.6875 77.371094 158.523438 78.203125 L 157.914062 78.8125 C 157.289062 78.179688 156.78125 77.703125 156.398438 77.390625 C 156.335938 78.859375 155.542969 79.59375 154.023438 79.59375 C 153.199219 79.59375 152.5625 79.40625 152.117188 79.03125 C 151.667969 78.65625 151.445312 78.136719 151.445312 77.46875 C 151.445312 76.84375 151.667969 76.367188 152.117188 76.03125 C 152.5625 75.6875 153.199219 75.515625 154.023438 75.515625 C 154.53125 75.515625 155.03125 75.621094 155.523438 75.828125 L 155.523438 72.421875 L 151.757812 72.421875 L 151.757812 71.625 L 155.523438 71.625 L 155.523438 69.625 L 156.398438 69.625 L 156.398438 71.625 L 158.523438 71.625 Z M 150.007812 69.921875 C 149.621094 71.414062 149.429688 73.007812 149.429688 74.703125 C 149.429688 76.402344 149.621094 77.996094 150.007812 79.484375 L 149.148438 79.59375 C 148.742188 78.085938 148.539062 76.453125 148.539062 74.703125 C 148.539062 72.953125 148.742188 71.324219 149.148438 69.8125 Z M 155.523438 76.765625 C 155.011719 76.476562 154.5 76.328125 153.992188 76.328125 C 152.875 76.328125 152.320312 76.710938 152.320312 77.46875 C 152.320312 77.898438 152.460938 78.226562 152.742188 78.453125 C 153.03125 78.671875 153.449219 78.78125 153.992188 78.78125 C 154.53125 78.78125 154.921875 78.65625 155.164062 78.40625 C 155.402344 78.15625 155.523438 77.75 155.523438 77.1875 Z M 160.007812 77.5625 L 160.617188 77.046875 C 161.449219 77.859375 162.257812 78.726562 163.039062 79.640625 L 162.414062 80.109375 C 161.777344 79.347656 160.976562 78.5 160.007812 77.5625 Z M 179.789062 70.953125 L 180.632812 70.65625 C 181.171875 71.667969 181.585938 72.828125 181.867188 74.140625 C 182.15625 75.445312 182.304688 76.792969 182.304688 78.1875 L 181.382812 78.1875 C 181.382812 76.875 181.242188 75.585938 180.960938 74.3125 C 180.6875 73.042969 180.296875 71.921875 179.789062 70.953125 Z M 174.210938 70.84375 C 173.867188 72.085938 173.695312 73.414062 173.695312 74.828125 C 173.695312 75.871094 173.875 76.746094 174.242188 77.453125 C 174.617188 78.164062 174.992188 78.515625 175.367188 78.515625 C 175.625 78.515625 175.953125 78.257812 176.351562 77.734375 C 176.757812 77.214844 177.140625 76.480469 177.507812 75.53125 L 178.335938 75.859375 C 177.9375 76.976562 177.453125 77.851562 176.882812 78.484375 C 176.308594 79.109375 175.78125 79.421875 175.304688 79.421875 C 174.679688 79.421875 174.101562 78.976562 173.570312 78.078125 C 173.046875 77.183594 172.789062 76.101562 172.789062 74.828125 C 172.789062 73.320312 172.964844 71.949219 173.320312 70.71875 Z M 192.085938 70.125 C 190.542969 71.355469 189.03125 72.460938 187.554688 73.4375 C 187.085938 73.75 186.78125 73.964844 186.648438 74.078125 C 186.523438 74.195312 186.460938 74.324219 186.460938 74.46875 C 186.460938 74.59375 186.515625 74.714844 186.632812 74.828125 C 186.746094 74.933594 187.011719 75.125 187.429688 75.40625 C 189.09375 76.542969 190.773438 77.84375 192.460938 79.3125 L 191.804688 79.953125 C 190.117188 78.507812 188.476562 77.230469 186.882812 76.125 C 186.246094 75.6875 185.84375 75.382812 185.679688 75.203125 C 185.511719 75.015625 185.429688 74.773438 185.429688 74.46875 C 185.429688 74.148438 185.511719 73.898438 185.679688 73.71875 C 185.855469 73.53125 186.289062 73.210938 186.976562 72.75 C 188.476562 71.761719 189.980469 70.664062 191.492188 69.453125 Z M 196.445312 71.734375 C 198.796875 71.109375 200.574219 70.796875 201.773438 70.796875 C 204.792969 70.796875 206.304688 72.058594 206.304688 74.578125 C 206.304688 76.070312 205.65625 77.203125 204.367188 77.984375 C 203.085938 78.757812 201.183594 79.140625 198.664062 79.140625 L 198.601562 78.265625 C 203.078125 78.265625 205.320312 77.070312 205.320312 74.671875 C 205.320312 73.664062 205.023438 72.917969 204.429688 72.4375 C 203.84375 71.949219 202.9375 71.703125 201.710938 71.703125 C 200.625 71.703125 198.9375 72.007812 196.648438 72.609375 Z M 208.539062 72.625 L 208.539062 71.828125 L 210.882812 71.828125 C 211.109375 70.839844 211.28125 69.996094 211.398438 69.296875 L 212.273438 69.390625 C 212.15625 70.089844 211.996094 70.902344 211.789062 71.828125 L 212.867188 71.828125 C 213.230469 71.828125 213.507812 71.828125 213.695312 71.828125 C 213.890625 71.828125 214.101562 71.851562 214.320312 71.890625 C 214.546875 71.933594 214.710938 71.96875 214.804688 72 C 214.898438 72.03125 214.996094 72.117188 215.101562 72.25 C 215.214844 72.386719 215.28125 72.507812 215.304688 72.609375 C 215.335938 72.714844 215.367188 72.902344 215.398438 73.171875 C 215.4375 73.433594 215.460938 73.679688 215.460938 73.90625 C 215.460938 74.136719 215.460938 74.46875 215.460938 74.90625 C 215.460938 76.386719 215.28125 77.511719 214.929688 78.28125 C 214.574219 79.039062 214.125 79.421875 213.585938 79.421875 C 212.90625 79.421875 212.09375 79.203125 211.148438 78.765625 L 211.445312 77.96875 C 212.339844 78.355469 212.996094 78.546875 213.414062 78.546875 C 213.703125 78.546875 213.964844 78.226562 214.195312 77.578125 C 214.421875 76.933594 214.539062 76 214.539062 74.78125 C 214.539062 74.523438 214.539062 74.328125 214.539062 74.203125 C 214.539062 74.078125 214.53125 73.929688 214.523438 73.75 C 214.511719 73.5625 214.5 73.4375 214.492188 73.375 C 214.492188 73.304688 214.46875 73.214844 214.429688 73.109375 C 214.398438 72.996094 214.371094 72.929688 214.351562 72.90625 C 214.339844 72.875 214.292969 72.835938 214.210938 72.78125 C 214.125 72.71875 214.0625 72.6875 214.023438 72.6875 C 213.980469 72.679688 213.890625 72.667969 213.757812 72.65625 C 213.632812 72.636719 213.523438 72.625 213.429688 72.625 C 213.34375 72.625 213.210938 72.625 213.023438 72.625 L 211.601562 72.625 C 211.007812 75.03125 210.214844 77.324219 209.226562 79.5 L 208.398438 79.1875 C 209.335938 77.117188 210.101562 74.929688 210.695312 72.625 Z M 215.992188 71.046875 L 216.820312 70.75 C 217.714844 72.792969 218.421875 74.824219 218.945312 76.84375 L 218.085938 77.0625 C 217.855469 76.167969 217.542969 75.15625 217.148438 74.03125 C 216.761719 72.90625 216.375 71.914062 215.992188 71.046875 Z M 225.132812 78.71875 C 224.390625 79 223.71875 79.140625 223.117188 79.140625 C 222.179688 79.140625 221.417969 78.828125 220.835938 78.203125 C 220.25 77.578125 219.960938 76.761719 219.960938 75.75 C 219.960938 74.792969 220.21875 74.011719 220.742188 73.40625 C 221.273438 72.804688 221.945312 72.5 222.757812 72.5 C 223.527344 72.5 224.117188 72.757812 224.523438 73.265625 C 224.929688 73.777344 225.132812 74.507812 225.132812 75.453125 L 225.132812 75.5625 L 221.242188 75.5625 C 221.242188 76.4375 221.359375 77.09375 221.601562 77.53125 C 221.976562 78.21875 222.542969 78.5625 223.304688 78.5625 C 224.011719 78.5625 224.621094 78.417969 225.132812 78.125 Z M 221.257812 75.203125 L 223.898438 75.203125 L 223.914062 74.9375 C 223.914062 74.480469 223.890625 74.140625 223.851562 73.921875 C 223.808594 73.703125 223.726562 73.511719 223.601562 73.34375 C 223.382812 73.023438 223.078125 72.859375 222.695312 72.859375 C 222.257812 72.859375 221.90625 73.074219 221.648438 73.5 C 221.386719 73.917969 221.257812 74.484375 221.257812 75.203125 Z M 228.195312 73.828125 C 228.464844 73.414062 228.804688 73.089844 229.210938 72.859375 C 229.625 72.621094 230.054688 72.5 230.492188 72.5 C 231.042969 72.5 231.46875 72.683594 231.773438 73.046875 C 232.085938 73.402344 232.242188 73.890625 232.242188 74.515625 L 232.242188 77.484375 L 232.289062 78.0625 C 232.296875 78.28125 232.335938 78.421875 232.398438 78.484375 C 232.460938 78.546875 232.601562 78.585938 232.820312 78.59375 L 233.226562 78.625 L 233.335938 78.640625 L 233.335938 79 L 230.007812 79 L 230.007812 78.640625 L 230.117188 78.625 L 230.507812 78.59375 C 230.734375 78.585938 230.882812 78.546875 230.945312 78.484375 C 231.007812 78.421875 231.042969 78.28125 231.054688 78.0625 L 231.085938 77.484375 L 231.085938 74.703125 C 231.085938 74.152344 231.011719 73.773438 230.867188 73.5625 C 230.730469 73.34375 230.480469 73.234375 230.117188 73.234375 C 229.59375 73.234375 228.953125 73.5625 228.195312 74.21875 L 228.195312 77.484375 C 228.195312 77.808594 228.21875 78.089844 228.273438 78.328125 C 228.304688 78.433594 228.34375 78.5 228.398438 78.53125 C 228.460938 78.5625 228.585938 78.585938 228.773438 78.59375 L 229.179688 78.625 L 229.289062 78.640625 L 229.289062 79 L 225.960938 79 L 225.960938 78.640625 L 226.070312 78.625 L 226.460938 78.59375 C 226.6875 78.585938 226.835938 78.546875 226.898438 78.484375 C 226.960938 78.421875 226.996094 78.28125 227.007812 78.0625 L 227.039062 77.484375 L 227.039062 74.15625 L 227.007812 73.578125 C 226.996094 73.359375 226.960938 73.21875 226.898438 73.15625 C 226.835938 73.09375 226.6875 73.054688 226.460938 73.03125 L 226.070312 73 L 225.960938 73 L 225.960938 72.640625 L 228.195312 72.640625 Z M 234.984375 78.75 C 234.546875 78.554688 234.328125 78.277344 234.328125 77.921875 C 234.328125 77.703125 234.40625 77.511719 234.5625 77.34375 C 234.726562 77.167969 235.019531 76.976562 235.4375 76.765625 C 235.03125 76.589844 234.710938 76.324219 234.484375 75.96875 C 234.253906 75.605469 234.140625 75.195312 234.140625 74.734375 C 234.140625 74.058594 234.359375 73.515625 234.796875 73.109375 C 235.234375 72.703125 235.816406 72.5 236.546875 72.5 C 236.984375 72.5 237.382812 72.578125 237.75 72.734375 L 239.984375 72.5625 L 239.6875 73.265625 L 238.15625 73.015625 C 238.65625 73.507812 238.90625 74.074219 238.90625 74.71875 C 238.90625 75.375 238.6875 75.917969 238.25 76.34375 C 237.8125 76.773438 237.253906 76.984375 236.578125 76.984375 C 236.316406 76.984375 236.039062 76.945312 235.75 76.859375 C 235.476562 77.070312 235.34375 77.304688 235.34375 77.5625 C 235.34375 77.84375 235.585938 77.984375 236.078125 77.984375 L 237.078125 77.984375 C 238.085938 77.984375 238.757812 78.089844 239.09375 78.296875 C 239.457031 78.527344 239.640625 78.90625 239.640625 79.4375 C 239.640625 80.039062 239.363281 80.523438 238.8125 80.890625 C 238.257812 81.265625 237.53125 81.453125 236.625 81.453125 C 235.738281 81.453125 235.03125 81.328125 234.5 81.078125 C 233.96875 80.835938 233.703125 80.507812 233.703125 80.09375 C 233.703125 79.570312 234.128906 79.125 234.984375 78.75 Z M 235.296875 74.65625 C 235.296875 75.960938 235.707031 76.609375 236.53125 76.609375 C 236.925781 76.609375 237.226562 76.449219 237.4375 76.125 C 237.65625 75.804688 237.765625 75.328125 237.765625 74.703125 C 237.765625 74.109375 237.65625 73.65625 237.4375 73.34375 C 237.226562 73.023438 236.929688 72.859375 236.546875 72.859375 C 236.140625 72.859375 235.828125 73.015625 235.609375 73.328125 C 235.398438 73.640625 235.296875 74.085938 235.296875 74.65625 Z M 235.296875 78.859375 C 235.003906 79.140625 234.859375 79.488281 234.859375 79.90625 C 234.859375 80.269531 235.019531 80.5625 235.34375 80.78125 C 235.664062 81 236.101562 81.109375 236.65625 81.109375 C 237.21875 81.109375 237.664062 80.984375 238 80.734375 C 238.34375 80.484375 238.515625 80.144531 238.515625 79.71875 C 238.515625 79.394531 238.425781 79.171875 238.25 79.046875 C 238.070312 78.921875 237.753906 78.859375 237.296875 78.859375 Z M 242.632812 69.75 L 242.632812 77.484375 C 242.632812 77.808594 242.65625 78.089844 242.710938 78.328125 C 242.742188 78.433594 242.78125 78.5 242.835938 78.53125 C 242.898438 78.5625 243.023438 78.585938 243.210938 78.59375 L 243.617188 78.625 L 243.726562 78.640625 L 243.726562 79 L 240.398438 79 L 240.398438 78.640625 L 240.507812 78.625 L 240.898438 78.59375 C 241.125 78.585938 241.273438 78.546875 241.335938 78.484375 C 241.398438 78.421875 241.433594 78.28125 241.445312 78.0625 L 241.476562 77.484375 L 241.476562 71.265625 L 241.445312 70.6875 C 241.433594 70.460938 241.398438 70.320312 241.335938 70.265625 C 241.273438 70.203125 241.125 70.164062 240.898438 70.140625 L 240.507812 70.109375 L 240.398438 70.109375 L 240.398438 69.75 Z M 246.394531 72.640625 L 246.394531 77.484375 C 246.394531 77.808594 246.417969 78.089844 246.472656 78.328125 C 246.503906 78.433594 246.542969 78.5 246.597656 78.53125 C 246.660156 78.5625 246.785156 78.585938 246.972656 78.59375 L 247.378906 78.625 L 247.488281 78.640625 L 247.488281 79 L 244.160156 79 L 244.160156 78.640625 L 244.269531 78.625 L 244.660156 78.59375 C 244.886719 78.585938 245.035156 78.546875 245.097656 78.484375 C 245.160156 78.421875 245.195312 78.28125 245.207031 78.0625 L 245.238281 77.484375 L 245.238281 74.15625 L 245.207031 73.578125 C 245.195312 73.359375 245.160156 73.21875 245.097656 73.15625 C 245.035156 73.09375 244.886719 73.054688 244.660156 73.03125 L 244.269531 73 L 244.160156 73 L 244.160156 72.640625 Z M 245.238281 71.484375 L 245.238281 70.328125 L 246.394531 70.328125 L 246.394531 71.484375 Z M 248.4375 78.671875 L 248.4375 77.046875 L 249.09375 77.046875 L 249.109375 77.171875 L 249.15625 77.78125 C 249.175781 78.09375 249.316406 78.328125 249.578125 78.484375 C 249.921875 78.683594 250.296875 78.78125 250.703125 78.78125 C 251.054688 78.78125 251.34375 78.679688 251.5625 78.46875 C 251.789062 78.25 251.90625 77.976562 251.90625 77.640625 C 251.90625 77.351562 251.828125 77.117188 251.671875 76.9375 C 251.523438 76.761719 251.257812 76.601562 250.875 76.453125 L 250.28125 76.21875 C 249.644531 75.980469 249.179688 75.710938 248.890625 75.40625 C 248.609375 75.09375 248.46875 74.71875 248.46875 74.28125 C 248.46875 73.761719 248.675781 73.335938 249.09375 73 C 249.507812 72.667969 250.035156 72.5 250.671875 72.5 C 251.285156 72.5 251.925781 72.621094 252.59375 72.859375 L 252.59375 74.375 L 251.9375 74.375 L 251.9375 74.265625 L 251.890625 73.734375 C 251.867188 73.507812 251.832031 73.351562 251.78125 73.265625 C 251.726562 73.183594 251.617188 73.101562 251.453125 73.015625 C 251.222656 72.914062 250.988281 72.859375 250.75 72.859375 C 250.40625 72.859375 250.117188 72.96875 249.890625 73.1875 C 249.671875 73.398438 249.5625 73.667969 249.5625 74 C 249.5625 74.273438 249.648438 74.492188 249.828125 74.65625 C 250.015625 74.824219 250.378906 75.023438 250.921875 75.25 L 251.46875 75.46875 C 252.050781 75.710938 252.457031 75.960938 252.6875 76.21875 C 252.925781 76.480469 253.046875 76.8125 253.046875 77.21875 C 253.046875 77.78125 252.820312 78.246094 252.375 78.609375 C 251.925781 78.964844 251.34375 79.140625 250.625 79.140625 C 249.851562 79.140625 249.125 78.984375 248.4375 78.671875 Z M 256.125 73.828125 C 256.394531 73.414062 256.734375 73.089844 257.140625 72.859375 C 257.554688 72.621094 257.984375 72.5 258.421875 72.5 C 258.972656 72.5 259.398438 72.683594 259.703125 73.046875 C 260.015625 73.402344 260.171875 73.890625 260.171875 74.515625 L 260.171875 77.484375 L 260.21875 78.0625 C 260.226562 78.28125 260.265625 78.421875 260.328125 78.484375 C 260.390625 78.546875 260.53125 78.585938 260.75 78.59375 L 261.15625 78.625 L 261.265625 78.640625 L 261.265625 79 L 257.9375 79 L 257.9375 78.640625 L 258.046875 78.625 L 258.4375 78.59375 C 258.664062 78.585938 258.8125 78.546875 258.875 78.484375 C 258.9375 78.421875 258.972656 78.28125 258.984375 78.0625 L 259.015625 77.484375 L 259.015625 74.703125 C 259.015625 74.152344 258.941406 73.773438 258.796875 73.5625 C 258.660156 73.34375 258.410156 73.234375 258.046875 73.234375 C 257.523438 73.234375 256.882812 73.5625 256.125 74.21875 L 256.125 77.484375 C 256.125 77.808594 256.148438 78.089844 256.203125 78.328125 C 256.234375 78.433594 256.273438 78.5 256.328125 78.53125 C 256.390625 78.5625 256.515625 78.585938 256.703125 78.59375 L 257.109375 78.625 L 257.21875 78.640625 L 257.21875 79 L 253.890625 79 L 253.890625 78.640625 L 254 78.625 L 254.390625 78.59375 C 254.617188 78.585938 254.765625 78.546875 254.828125 78.484375 C 254.890625 78.421875 254.925781 78.28125 254.9375 78.0625 L 254.96875 77.484375 L 254.96875 71.265625 L 254.9375 70.6875 C 254.925781 70.460938 254.890625 70.320312 254.828125 70.265625 C 254.765625 70.203125 254.617188 70.164062 254.390625 70.140625 L 254 70.109375 L 253.890625 70.109375 L 253.890625 69.75 L 256.125 69.75 Z M 256.125 73.828125 "/>
</g>
</svg>
