<?xml version="1.0" encoding="UTF-8"?>
<svg xmlns="http://www.w3.org/2000/svg" xmlns:xlink="http://www.w3.org/1999/xlink" width="400pt" height="300pt" viewBox="0 0 400 300" version="1.1">
<g id="surface2">
<rect x="0" y="0" width="400" height="300" style="fill:rgb(100%,100%,100%);fill-opacity:1;stroke:none;"/>
<path style=" stroke:none;fill-rule:evenodd;fill:rgb(0%,100%,0%);fill-opacity:1;" d="M 267.402344 304 L 283.714844 304 L 379.304688 138.4375 L 132.597656 -4 L 116.285156 -4 L 20.695312 161.5625 Z M 267.402344 304 "/>
<path style=" stroke:none;fill-rule:evenodd;fill:rgb(0%,0%,0%);fill-opacity:1;" d="M 250.96875 63 L 250.96875 61.390625 L 252.578125 61.390625 L 252.578125 63 Z M 269.707031 63.125 L 263.738281 55.0625 L 263.738281 61.3125 C 263.738281 61.667969 263.769531 61.980469 263.832031 62.25 C 263.851562 62.367188 263.894531 62.445312 263.957031 62.484375 C 264.027344 62.515625 264.167969 62.542969 264.378906 62.5625 L 264.832031 62.59375 L 264.941406 62.59375 L 264.941406 63 L 261.925781 63 L 261.925781 62.59375 L 262.050781 62.59375 L 262.488281 62.5625 C 262.695312 62.542969 262.832031 62.515625 262.894531 62.484375 C 262.964844 62.445312 263.019531 62.367188 263.050781 62.25 C 263.101562 61.980469 263.128906 61.667969 263.128906 61.3125 L 263.128906 55.046875 C 263.128906 54.695312 263.101562 54.382812 263.050781 54.109375 C 263.019531 53.996094 262.964844 53.921875 262.894531 53.890625 C 262.832031 53.851562 262.695312 53.820312 262.488281 53.796875 L 262.050781 53.78125 L 261.925781 53.765625 L 261.925781 53.375 L 264.097656 53.375 L 269.582031 60.84375 L 269.582031 55.046875 L 269.550781 54.40625 C 269.527344 54.15625 269.480469 54 269.410156 53.9375 C 269.347656 53.867188 269.191406 53.820312 268.941406 53.796875 L 268.503906 53.78125 L 268.378906 53.765625 L 268.378906 53.375 L 271.378906 53.375 L 271.378906 53.765625 L 271.253906 53.78125 L 270.816406 53.796875 C 270.566406 53.820312 270.402344 53.867188 270.332031 53.9375 C 270.269531 54 270.230469 54.15625 270.222656 54.40625 L 270.175781 55.046875 L 270.175781 63.125 Z M 275.628906 63.15625 C 274.605469 63.15625 273.792969 62.828125 273.191406 62.171875 C 272.597656 61.507812 272.300781 60.605469 272.300781 59.46875 C 272.300781 58.324219 272.601562 57.421875 273.207031 56.765625 C 273.808594 56.109375 274.632812 55.78125 275.675781 55.78125 C 276.714844 55.78125 277.539062 56.109375 278.144531 56.765625 C 278.746094 57.421875 279.050781 58.320312 279.050781 59.453125 C 279.050781 60.609375 278.746094 61.515625 278.144531 62.171875 C 277.539062 62.828125 276.699219 63.15625 275.628906 63.15625 Z M 275.644531 62.765625 C 276.238281 62.765625 276.726562 62.453125 277.113281 61.828125 C 277.496094 61.203125 277.691406 60.414062 277.691406 59.453125 C 277.691406 58.515625 277.496094 57.734375 277.113281 57.109375 C 276.726562 56.484375 276.246094 56.171875 275.675781 56.171875 C 275.101562 56.171875 274.621094 56.484375 274.238281 57.109375 C 273.863281 57.734375 273.675781 58.523438 273.675781 59.46875 C 273.675781 60.40625 273.863281 61.195312 274.238281 61.828125 C 274.613281 62.453125 275.082031 62.765625 275.644531 62.765625 Z M 284.375 62.96875 C 284.050781 63.09375 283.742188 63.15625 283.453125 63.15625 C 282.785156 63.15625 282.257812 62.984375 281.875 62.640625 C 281.644531 62.445312 281.488281 62.214844 281.40625 61.953125 C 281.320312 61.695312 281.28125 61.308594 281.28125 60.796875 L 281.28125 56.453125 L 280.25 56.453125 L 280.25 55.9375 L 281.28125 55.9375 L 281.28125 54.65625 L 282.578125 54.328125 L 282.578125 55.9375 L 284.546875 55.9375 L 284.546875 56.453125 L 282.578125 56.453125 L 282.578125 60.96875 C 282.578125 61.585938 282.632812 61.992188 282.75 62.1875 C 282.925781 62.492188 283.222656 62.640625 283.640625 62.640625 C 283.835938 62.640625 284.082031 62.574219 284.375 62.4375 Z M 291.804688 58.765625 L 291.804688 61.3125 L 291.835938 61.953125 C 291.835938 62.226562 291.875 62.390625 291.960938 62.453125 C 292.054688 62.515625 292.308594 62.5625 292.726562 62.59375 L 292.851562 62.59375 L 292.851562 63 L 289.242188 63 L 289.242188 62.59375 L 289.367188 62.59375 L 289.804688 62.5625 C 290.054688 62.542969 290.210938 62.5 290.273438 62.4375 C 290.34375 62.367188 290.386719 62.203125 290.398438 61.953125 L 290.445312 61.3125 L 290.445312 55.046875 L 290.398438 54.40625 C 290.386719 54.15625 290.34375 54 290.273438 53.9375 C 290.210938 53.867188 290.054688 53.820312 289.804688 53.796875 L 289.367188 53.78125 L 289.242188 53.765625 L 289.242188 53.375 L 291.554688 53.375 L 292.195312 53.359375 L 292.726562 53.328125 L 293.242188 53.328125 C 294.21875 53.328125 294.964844 53.539062 295.476562 53.953125 C 295.984375 54.359375 296.242188 54.960938 296.242188 55.75 C 296.242188 56.40625 296.070312 56.96875 295.726562 57.4375 C 295.382812 57.898438 294.886719 58.242188 294.242188 58.46875 L 296.132812 61.296875 L 296.742188 62.140625 C 296.867188 62.328125 296.96875 62.449219 297.054688 62.5 C 297.136719 62.554688 297.265625 62.578125 297.445312 62.578125 C 297.507812 62.578125 297.652344 62.585938 297.882812 62.59375 L 298.007812 62.59375 L 298.007812 63 L 295.554688 63 L 292.929688 58.765625 Z M 291.804688 58.328125 L 292.289062 58.328125 C 292.851562 58.328125 293.296875 58.261719 293.632812 58.125 C 293.964844 57.992188 294.234375 57.761719 294.445312 57.4375 C 294.714844 57.042969 294.851562 56.53125 294.851562 55.90625 C 294.851562 55.261719 294.71875 54.761719 294.460938 54.40625 C 294.304688 54.1875 294.09375 54.03125 293.835938 53.9375 C 293.585938 53.84375 293.21875 53.796875 292.742188 53.796875 L 291.804688 53.796875 Z M 301.976562 63.15625 C 300.953125 63.15625 300.140625 62.828125 299.539062 62.171875 C 298.945312 61.507812 298.648438 60.605469 298.648438 59.46875 C 298.648438 58.324219 298.949219 57.421875 299.554688 56.765625 C 300.15625 56.109375 300.980469 55.78125 302.023438 55.78125 C 303.0625 55.78125 303.886719 56.109375 304.492188 56.765625 C 305.09375 57.421875 305.398438 58.320312 305.398438 59.453125 C 305.398438 60.609375 305.09375 61.515625 304.492188 62.171875 C 303.886719 62.828125 303.046875 63.15625 301.976562 63.15625 Z M 301.992188 62.765625 C 302.585938 62.765625 303.074219 62.453125 303.460938 61.828125 C 303.84375 61.203125 304.039062 60.414062 304.039062 59.453125 C 304.039062 58.515625 303.84375 57.734375 303.460938 57.109375 C 303.074219 56.484375 302.59375 56.171875 302.023438 56.171875 C 301.449219 56.171875 300.96875 56.484375 300.585938 57.109375 C 300.210938 57.734375 300.023438 58.523438 300.023438 59.46875 C 300.023438 60.40625 300.210938 61.195312 300.585938 61.828125 C 300.960938 62.453125 301.429688 62.765625 301.992188 62.765625 Z M 310.726562 62.96875 C 310.402344 63.09375 310.09375 63.15625 309.804688 63.15625 C 309.136719 63.15625 308.609375 62.984375 308.226562 62.640625 C 307.996094 62.445312 307.839844 62.214844 307.757812 61.953125 C 307.671875 61.695312 307.632812 61.308594 307.632812 60.796875 L 307.632812 56.453125 L 306.601562 56.453125 L 306.601562 55.9375 L 307.632812 55.9375 L 307.632812 54.65625 L 308.929688 54.328125 L 308.929688 55.9375 L 310.898438 55.9375 L 310.898438 56.453125 L 308.929688 56.453125 L 308.929688 60.96875 C 308.929688 61.585938 308.984375 61.992188 309.101562 62.1875 C 309.277344 62.492188 309.574219 62.640625 309.992188 62.640625 C 310.1875 62.640625 310.433594 62.574219 310.726562 62.4375 Z M 316.273438 62.03125 C 315.84375 62.449219 315.464844 62.742188 315.132812 62.90625 C 314.796875 63.070312 314.421875 63.15625 314.007812 63.15625 C 313.402344 63.15625 312.902344 62.96875 312.507812 62.59375 C 312.109375 62.21875 311.914062 61.746094 311.914062 61.171875 C 311.914062 60.496094 312.171875 59.949219 312.695312 59.53125 C 313.015625 59.273438 313.402344 59.089844 313.851562 58.984375 C 314.308594 58.882812 314.929688 58.828125 315.710938 58.828125 L 315.976562 58.828125 L 315.976562 57.9375 C 315.976562 56.824219 315.554688 56.265625 314.710938 56.265625 C 314.3125 56.265625 313.964844 56.390625 313.664062 56.640625 C 313.484375 56.789062 313.371094 57.089844 313.320312 57.546875 L 313.320312 57.65625 L 312.445312 57.65625 L 312.445312 56.375 C 313.339844 55.980469 314.171875 55.78125 314.945312 55.78125 C 315.609375 55.78125 316.15625 55.9375 316.585938 56.25 C 316.84375 56.449219 317.023438 56.664062 317.117188 56.890625 C 317.210938 57.121094 317.257812 57.453125 317.257812 57.890625 L 317.257812 61.046875 C 317.257812 61.609375 317.304688 62.007812 317.398438 62.234375 C 317.5 62.464844 317.671875 62.578125 317.914062 62.578125 C 317.996094 62.578125 318.109375 62.558594 318.257812 62.515625 L 318.304688 63 C 317.992188 63.101562 317.710938 63.15625 317.460938 63.15625 C 316.835938 63.15625 316.4375 62.78125 316.273438 62.03125 Z M 315.976562 61.890625 L 315.976562 59.21875 L 315.679688 59.21875 C 314.917969 59.21875 314.324219 59.375 313.898438 59.6875 C 313.480469 60 313.273438 60.433594 313.273438 60.984375 C 313.273438 61.390625 313.402344 61.730469 313.664062 62 C 313.921875 62.273438 314.25 62.40625 314.648438 62.40625 C 315.023438 62.40625 315.464844 62.234375 315.976562 61.890625 Z M 323.183594 62.96875 C 322.859375 63.09375 322.550781 63.15625 322.261719 63.15625 C 321.59375 63.15625 321.066406 62.984375 320.683594 62.640625 C 320.453125 62.445312 320.296875 62.214844 320.214844 61.953125 C 320.128906 61.695312 320.089844 61.308594 320.089844 60.796875 L 320.089844 56.453125 L 319.058594 56.453125 L 319.058594 55.9375 L 320.089844 55.9375 L 320.089844 54.65625 L 321.386719 54.328125 L 321.386719 55.9375 L 323.355469 55.9375 L 323.355469 56.453125 L 321.386719 56.453125 L 321.386719 60.96875 C 321.386719 61.585938 321.441406 61.992188 321.558594 62.1875 C 321.734375 62.492188 322.03125 62.640625 322.449219 62.640625 C 322.644531 62.640625 322.890625 62.574219 323.183594 62.4375 Z M 330.089844 62.6875 C 329.277344 63 328.53125 63.15625 327.855469 63.15625 C 326.824219 63.15625 325.980469 62.808594 325.324219 62.109375 C 324.675781 61.414062 324.355469 60.507812 324.355469 59.390625 C 324.355469 58.328125 324.644531 57.464844 325.230469 56.796875 C 325.8125 56.121094 326.558594 55.78125 327.464844 55.78125 C 328.316406 55.78125 328.96875 56.070312 329.417969 56.640625 C 329.863281 57.203125 330.089844 58.011719 330.089844 59.0625 L 330.089844 59.1875 L 325.777344 59.1875 C 325.777344 60.15625 325.910156 60.886719 326.183594 61.375 C 326.597656 62.136719 327.222656 62.515625 328.058594 62.515625 C 328.847656 62.515625 329.527344 62.355469 330.089844 62.03125 Z M 325.808594 58.78125 L 328.730469 58.78125 L 328.746094 58.5 C 328.746094 57.980469 328.71875 57.601562 328.667969 57.359375 C 328.625 57.121094 328.535156 56.90625 328.402344 56.71875 C 328.152344 56.355469 327.8125 56.171875 327.386719 56.171875 C 326.894531 56.171875 326.511719 56.414062 326.230469 56.890625 C 325.949219 57.359375 325.808594 57.992188 325.808594 58.78125 Z M 336.589844 63 L 336.589844 61.671875 C 335.964844 62.664062 335.140625 63.15625 334.121094 63.15625 C 333.316406 63.15625 332.675781 62.84375 332.199219 62.21875 C 331.730469 61.585938 331.496094 60.734375 331.496094 59.671875 C 331.496094 58.496094 331.765625 57.554688 332.308594 56.84375 C 332.847656 56.136719 333.574219 55.78125 334.480469 55.78125 C 335.300781 55.78125 336.003906 56.101562 336.589844 56.734375 L 336.589844 54.40625 C 336.589844 54.054688 336.5625 53.742188 336.511719 53.46875 C 336.480469 53.355469 336.425781 53.28125 336.355469 53.25 C 336.292969 53.210938 336.160156 53.183594 335.964844 53.171875 L 335.511719 53.140625 L 335.386719 53.125 L 335.386719 52.71875 L 337.886719 52.71875 L 337.886719 61.3125 C 337.886719 61.667969 337.910156 61.980469 337.964844 62.25 C 337.996094 62.367188 338.042969 62.445312 338.105469 62.484375 C 338.175781 62.515625 338.316406 62.542969 338.527344 62.5625 L 338.964844 62.59375 L 339.089844 62.59375 L 339.089844 63 Z M 336.589844 57.234375 C 335.921875 56.734375 335.269531 56.484375 334.636719 56.484375 C 334.0625 56.484375 333.621094 56.730469 333.308594 57.21875 C 333.003906 57.710938 332.855469 58.414062 332.855469 59.328125 C 332.855469 60.328125 333 61.078125 333.292969 61.578125 C 333.582031 62.078125 334.015625 62.328125 334.589844 62.328125 C 334.941406 62.328125 335.3125 62.226562 335.699219 62.015625 C 336.082031 61.808594 336.378906 61.542969 336.589844 61.21875 Z M 346.664062 63.125 L 344.601562 55.09375 L 344.367188 54.234375 C 344.324219 54.039062 344.273438 53.914062 344.210938 53.859375 C 344.15625 53.808594 344.054688 53.78125 343.898438 53.78125 L 343.523438 53.78125 L 343.382812 53.765625 L 343.382812 53.375 L 346.835938 53.375 L 346.835938 53.765625 L 346.710938 53.765625 L 346.351562 53.78125 C 346.109375 53.78125 345.949219 53.808594 345.867188 53.859375 C 345.78125 53.902344 345.742188 53.992188 345.742188 54.125 C 345.742188 54.273438 345.804688 54.59375 345.929688 55.09375 L 347.351562 60.703125 L 349.570312 53.484375 L 350.023438 53.484375 L 352.242188 60.890625 L 353.914062 55.09375 L 354.054688 54.625 C 354.148438 54.273438 354.195312 54.0625 354.195312 54 C 354.195312 53.855469 354.007812 53.78125 353.632812 53.78125 L 353.179688 53.765625 L 353.054688 53.765625 L 353.054688 53.375 L 355.710938 53.375 L 355.710938 53.765625 L 355.585938 53.78125 L 355.195312 53.796875 C 355.039062 53.796875 354.921875 53.824219 354.851562 53.875 C 354.789062 53.929688 354.730469 54.039062 354.679688 54.203125 L 354.414062 55.09375 L 352.054688 63.125 L 351.617188 63.125 L 349.351562 55.71875 L 347.117188 63.125 Z M 358.441406 55.9375 L 358.441406 61.3125 C 358.441406 61.667969 358.464844 61.980469 358.519531 62.25 C 358.550781 62.367188 358.597656 62.445312 358.660156 62.484375 C 358.730469 62.515625 358.871094 62.542969 359.082031 62.5625 L 359.519531 62.59375 L 359.644531 62.59375 L 359.644531 63 L 355.941406 63 L 355.941406 62.59375 L 356.066406 62.59375 L 356.503906 62.5625 C 356.753906 62.542969 356.910156 62.5 356.972656 62.4375 C 357.042969 62.367188 357.089844 62.203125 357.113281 61.953125 L 357.144531 61.3125 L 357.144531 57.625 L 357.113281 56.984375 C 357.089844 56.734375 357.042969 56.578125 356.972656 56.515625 C 356.910156 56.445312 356.753906 56.398438 356.503906 56.375 L 356.066406 56.34375 L 355.941406 56.328125 L 355.941406 55.9375 Z M 357.144531 54.65625 L 357.144531 53.375 L 358.441406 53.375 L 358.441406 54.65625 Z M 364.488281 62.96875 C 364.164062 63.09375 363.855469 63.15625 363.566406 63.15625 C 362.898438 63.15625 362.371094 62.984375 361.988281 62.640625 C 361.757812 62.445312 361.601562 62.214844 361.519531 61.953125 C 361.433594 61.695312 361.394531 61.308594 361.394531 60.796875 L 361.394531 56.453125 L 360.363281 56.453125 L 360.363281 55.9375 L 361.394531 55.9375 L 361.394531 54.65625 L 362.691406 54.328125 L 362.691406 55.9375 L 364.660156 55.9375 L 364.660156 56.453125 L 362.691406 56.453125 L 362.691406 60.96875 C 362.691406 61.585938 362.746094 61.992188 362.863281 62.1875 C 363.039062 62.492188 363.335938 62.640625 363.753906 62.640625 C 363.949219 62.640625 364.195312 62.574219 364.488281 62.4375 Z M 367.753906 57.265625 C 368.054688 56.796875 368.429688 56.433594 368.878906 56.171875 C 369.335938 55.914062 369.808594 55.78125 370.300781 55.78125 C 370.902344 55.78125 371.378906 55.980469 371.722656 56.375 C 372.066406 56.773438 372.238281 57.320312 372.238281 58.015625 L 372.238281 61.3125 L 372.285156 61.953125 C 372.292969 62.203125 372.335938 62.367188 372.410156 62.4375 C 372.480469 62.5 372.644531 62.542969 372.894531 62.5625 L 373.332031 62.59375 L 373.441406 62.59375 L 373.441406 63 L 369.753906 63 L 369.753906 62.59375 L 369.878906 62.59375 L 370.316406 62.5625 C 370.566406 62.542969 370.722656 62.5 370.785156 62.4375 C 370.855469 62.367188 370.902344 62.203125 370.925781 61.953125 L 370.957031 61.3125 L 370.957031 58.21875 C 370.957031 57.617188 370.878906 57.199219 370.722656 56.96875 C 370.566406 56.730469 370.285156 56.609375 369.878906 56.609375 C 369.292969 56.609375 368.585938 56.96875 367.753906 57.6875 L 367.753906 61.3125 C 367.753906 61.667969 367.777344 61.980469 367.832031 62.25 C 367.863281 62.367188 367.910156 62.445312 367.972656 62.484375 C 368.042969 62.515625 368.183594 62.542969 368.394531 62.5625 L 368.832031 62.59375 L 368.957031 62.59375 L 368.957031 63 L 365.253906 63 L 365.253906 62.59375 L 365.378906 62.59375 L 365.816406 62.5625 C 366.066406 62.542969 366.222656 62.5 366.285156 62.4375 C 366.355469 62.367188 366.402344 62.203125 366.425781 61.953125 L 366.457031 61.3125 L 366.457031 54.40625 L 366.425781 53.765625 C 366.402344 53.515625 366.355469 53.359375 366.285156 53.296875 C 366.222656 53.226562 366.066406 53.183594 365.816406 53.171875 L 365.378906 53.140625 L 365.253906 53.125 L 365.253906 52.71875 L 367.753906 52.71875 Z M 377.785156 53.765625 L 377.785156 53.375 L 380.550781 53.375 L 383.425781 60.375 L 386.269531 53.375 L 388.691406 53.375 L 388.691406 53.765625 L 388.566406 53.78125 L 388.128906 53.796875 C 387.878906 53.820312 387.714844 53.867188 387.644531 53.9375 C 387.582031 54 387.539062 54.15625 387.519531 54.40625 L 387.488281 55.046875 L 387.488281 61.3125 L 387.519531 61.953125 C 387.539062 62.203125 387.582031 62.367188 387.644531 62.4375 C 387.714844 62.5 387.878906 62.542969 388.128906 62.5625 L 388.566406 62.59375 L 388.691406 62.59375 L 388.691406 63 L 385.019531 63 L 385.019531 62.59375 L 385.128906 62.59375 L 385.566406 62.5625 C 385.816406 62.542969 385.972656 62.5 386.035156 62.4375 C 386.105469 62.367188 386.148438 62.203125 386.160156 61.953125 L 386.207031 61.3125 L 386.207031 54.703125 L 383.175781 62.234375 L 382.691406 62.234375 L 379.707031 54.59375 L 379.707031 61.3125 L 379.738281 61.953125 C 379.757812 62.203125 379.800781 62.367188 379.863281 62.4375 C 379.933594 62.5 380.097656 62.542969 380.347656 62.5625 L 380.785156 62.59375 L 380.910156 62.59375 L 380.910156 63 L 377.785156 63 L 377.785156 62.59375 L 377.910156 62.59375 L 378.347656 62.5625 C 378.597656 62.542969 378.753906 62.5 378.816406 62.4375 C 378.886719 62.367188 378.929688 62.203125 378.941406 61.953125 L 378.988281 61.3125 L 378.988281 55.046875 L 378.941406 54.40625 C 378.929688 54.15625 378.886719 54 378.816406 53.9375 C 378.753906 53.867188 378.597656 53.820312 378.347656 53.796875 L 377.910156 53.78125 Z M 393.984375 62.03125 C 393.554688 62.449219 393.175781 62.742188 392.84375 62.90625 C 392.507812 63.070312 392.132812 63.15625 391.71875 63.15625 C 391.113281 63.15625 390.613281 62.96875 390.21875 62.59375 C 389.820312 62.21875 389.625 61.746094 389.625 61.171875 C 389.625 60.496094 389.882812 59.949219 390.40625 59.53125 C 390.726562 59.273438 391.113281 59.089844 391.5625 58.984375 C 392.019531 58.882812 392.640625 58.828125 393.421875 58.828125 L 393.6875 58.828125 L 393.6875 57.9375 C 393.6875 56.824219 393.265625 56.265625 392.421875 56.265625 C 392.023438 56.265625 391.675781 56.390625 391.375 56.640625 C 391.195312 56.789062 391.082031 57.089844 391.03125 57.546875 L 391.03125 57.65625 L 390.15625 57.65625 L 390.15625 56.375 C 391.050781 55.980469 391.882812 55.78125 392.65625 55.78125 C 393.320312 55.78125 393.867188 55.9375 394.296875 56.25 C 394.554688 56.449219 394.734375 56.664062 394.828125 56.890625 C 394.921875 57.121094 394.96875 57.453125 394.96875 57.890625 L 394.96875 61.046875 C 394.96875 61.609375 395.015625 62.007812 395.109375 62.234375 C 395.210938 62.464844 395.382812 62.578125 395.625 62.578125 C 395.707031 62.578125 395.820312 62.558594 395.96875 62.515625 L 396.015625 63 C 395.703125 63.101562 395.421875 63.15625 395.171875 63.15625 C 394.546875 63.15625 394.148438 62.78125 393.984375 62.03125 Z M 393.6875 61.890625 L 393.6875 59.21875 L 393.390625 59.21875 C 392.628906 59.21875 392.035156 59.375 391.609375 59.6875 C 391.191406 60 390.984375 60.433594 390.984375 60.984375 C 390.984375 61.390625 391.113281 61.730469 391.375 62 C 391.632812 62.273438 391.960938 62.40625 392.359375 62.40625 C 392.734375 62.40625 393.175781 62.234375 393.6875 61.890625 Z M 398.941406 62.203125 L 398.941406 63.890625 C 398.941406 64.242188 398.964844 64.554688 399.019531 64.828125 C 399.050781 64.929688 399.097656 65.003906 399.160156 65.046875 C 399.230469 65.085938 399.371094 65.113281 399.582031 65.125 L 400.019531 65.15625 L 400.144531 65.171875 L 400.144531 65.578125 L 396.441406 65.578125 L 396.441406 65.171875 L 396.566406 65.15625 L 397.003906 65.125 C 397.253906 65.113281 397.410156 65.070312 397.472656 65 C 397.542969 64.9375 397.589844 64.773438 397.613281 64.515625 L 397.644531 63.890625 L 397.644531 57.625 L 397.613281 56.984375 C 397.589844 56.734375 397.542969 56.578125 397.472656 56.515625 C 397.410156 56.445312 397.253906 56.398438 397.003906 56.375 L 396.566406 56.34375 L 396.441406 56.328125 L 396.441406 55.9375 L 398.941406 55.9375 L 398.941406 57.265625 C 399.574219 56.277344 400.402344 55.78125 401.425781 55.78125 C 402.214844 55.78125 402.847656 56.09375 403.316406 56.71875 C 403.792969 57.34375 404.035156 58.195312 404.035156 59.265625 C 404.035156 60.445312 403.761719 61.386719 403.222656 62.09375 C 402.679688 62.804688 401.960938 63.15625 401.066406 63.15625 C 400.230469 63.15625 399.523438 62.839844 398.941406 62.203125 Z M 398.941406 61.6875 C 399.617188 62.199219 400.269531 62.453125 400.894531 62.453125 C 401.464844 62.453125 401.902344 62.210938 402.207031 61.71875 C 402.519531 61.230469 402.675781 60.527344 402.675781 59.609375 C 402.675781 58.601562 402.527344 57.851562 402.238281 57.359375 C 401.957031 56.859375 401.523438 56.609375 400.941406 56.609375 C 400.585938 56.609375 400.226562 56.710938 399.863281 56.90625 C 399.507812 57.105469 399.199219 57.371094 398.941406 57.703125 Z M 398.941406 61.6875 "/>
<path style=" stroke:none;fill-rule:evenodd;fill:rgb(0%,0%,0%);fill-opacity:1;" d="M 250.96875 63 L 250.96875 61.390625 L 252.578125 61.390625 L 252.578125 63 Z M 264.488281 58.765625 L 264.488281 61.3125 L 264.519531 61.953125 C 264.519531 62.226562 264.558594 62.390625 264.644531 62.453125 C 264.738281 62.515625 264.992188 62.5625 265.410156 62.59375 L 265.535156 62.59375 L 265.535156 63 L 261.925781 63 L 261.925781 62.59375 L 262.050781 62.59375 L 262.488281 62.5625 C 262.738281 62.542969 262.894531 62.5 262.957031 62.4375 C 263.027344 62.367188 263.070312 62.203125 263.082031 61.953125 L 263.128906 61.3125 L 263.128906 55.046875 L 263.082031 54.40625 C 263.070312 54.15625 263.027344 54 262.957031 53.9375 C 262.894531 53.867188 262.738281 53.820312 262.488281 53.796875 L 262.050781 53.78125 L 261.925781 53.765625 L 261.925781 53.375 L 264.238281 53.375 L 264.878906 53.359375 L 265.410156 53.328125 L 265.925781 53.328125 C 266.902344 53.328125 267.648438 53.539062 268.160156 53.953125 C 268.667969 54.359375 268.925781 54.960938 268.925781 55.75 C 268.925781 56.40625 268.753906 56.96875 268.410156 57.4375 C 268.066406 57.898438 267.570312 58.242188 266.925781 58.46875 L 268.816406 61.296875 L 269.425781 62.140625 C 269.550781 62.328125 269.652344 62.449219 269.738281 62.5 C 269.820312 62.554688 269.949219 62.578125 270.128906 62.578125 C 270.191406 62.578125 270.335938 62.585938 270.566406 62.59375 L 270.691406 62.59375 L 270.691406 63 L 268.238281 63 L 265.613281 58.765625 Z M 264.488281 58.328125 L 264.972656 58.328125 C 265.535156 58.328125 265.980469 58.261719 266.316406 58.125 C 266.648438 57.992188 266.917969 57.761719 267.128906 57.4375 C 267.398438 57.042969 267.535156 56.53125 267.535156 55.90625 C 267.535156 55.261719 267.402344 54.761719 267.144531 54.40625 C 266.988281 54.1875 266.777344 54.03125 266.519531 53.9375 C 266.269531 53.84375 265.902344 53.796875 265.425781 53.796875 L 264.488281 53.796875 Z M 274.65625 63.15625 C 273.632812 63.15625 272.820312 62.828125 272.21875 62.171875 C 271.625 61.507812 271.328125 60.605469 271.328125 59.46875 C 271.328125 58.324219 271.628906 57.421875 272.234375 56.765625 C 272.835938 56.109375 273.660156 55.78125 274.703125 55.78125 C 275.742188 55.78125 276.566406 56.109375 277.171875 56.765625 C 277.773438 57.421875 278.078125 58.320312 278.078125 59.453125 C 278.078125 60.609375 277.773438 61.515625 277.171875 62.171875 C 276.566406 62.828125 275.726562 63.15625 274.65625 63.15625 Z M 274.671875 62.765625 C 275.265625 62.765625 275.753906 62.453125 276.140625 61.828125 C 276.523438 61.203125 276.71875 60.414062 276.71875 59.453125 C 276.71875 58.515625 276.523438 57.734375 276.140625 57.109375 C 275.753906 56.484375 275.273438 56.171875 274.703125 56.171875 C 274.128906 56.171875 273.648438 56.484375 273.265625 57.109375 C 272.890625 57.734375 272.703125 58.523438 272.703125 59.46875 C 272.703125 60.40625 272.890625 61.195312 273.265625 61.828125 C 273.640625 62.453125 274.109375 62.765625 274.671875 62.765625 Z M 283.40625 62.96875 C 283.082031 63.09375 282.773438 63.15625 282.484375 63.15625 C 281.816406 63.15625 281.289062 62.984375 280.90625 62.640625 C 280.675781 62.445312 280.519531 62.214844 280.4375 61.953125 C 280.351562 61.695312 280.3125 61.308594 280.3125 60.796875 L 280.3125 56.453125 L 279.28125 56.453125 L 279.28125 55.9375 L 280.3125 55.9375 L 280.3125 54.65625 L 281.609375 54.328125 L 281.609375 55.9375 L 283.578125 55.9375 L 283.578125 56.453125 L 281.609375 56.453125 L 281.609375 60.96875 C 281.609375 61.585938 281.664062 61.992188 281.78125 62.1875 C 281.957031 62.492188 282.253906 62.640625 282.671875 62.640625 C 282.867188 62.640625 283.113281 62.574219 283.40625 62.4375 Z M 288.953125 62.03125 C 288.523438 62.449219 288.144531 62.742188 287.8125 62.90625 C 287.476562 63.070312 287.101562 63.15625 286.6875 63.15625 C 286.082031 63.15625 285.582031 62.96875 285.1875 62.59375 C 284.789062 62.21875 284.59375 61.746094 284.59375 61.171875 C 284.59375 60.496094 284.851562 59.949219 285.375 59.53125 C 285.695312 59.273438 286.082031 59.089844 286.53125 58.984375 C 286.988281 58.882812 287.609375 58.828125 288.390625 58.828125 L 288.65625 58.828125 L 288.65625 57.9375 C 288.65625 56.824219 288.234375 56.265625 287.390625 56.265625 C 286.992188 56.265625 286.644531 56.390625 286.34375 56.640625 C 286.164062 56.789062 286.050781 57.089844 286 57.546875 L 286 57.65625 L 285.125 57.65625 L 285.125 56.375 C 286.019531 55.980469 286.851562 55.78125 287.625 55.78125 C 288.289062 55.78125 288.835938 55.9375 289.265625 56.25 C 289.523438 56.449219 289.703125 56.664062 289.796875 56.890625 C 289.890625 57.121094 289.9375 57.453125 289.9375 57.890625 L 289.9375 61.046875 C 289.9375 61.609375 289.984375 62.007812 290.078125 62.234375 C 290.179688 62.464844 290.351562 62.578125 290.59375 62.578125 C 290.675781 62.578125 290.789062 62.558594 290.9375 62.515625 L 290.984375 63 C 290.671875 63.101562 290.390625 63.15625 290.140625 63.15625 C 289.515625 63.15625 289.117188 62.78125 288.953125 62.03125 Z M 288.65625 61.890625 L 288.65625 59.21875 L 288.359375 59.21875 C 287.597656 59.21875 287.003906 59.375 286.578125 59.6875 C 286.160156 60 285.953125 60.433594 285.953125 60.984375 C 285.953125 61.390625 286.082031 61.730469 286.34375 62 C 286.601562 62.273438 286.929688 62.40625 287.328125 62.40625 C 287.703125 62.40625 288.144531 62.234375 288.65625 61.890625 Z M 295.863281 62.96875 C 295.539062 63.09375 295.230469 63.15625 294.941406 63.15625 C 294.273438 63.15625 293.746094 62.984375 293.363281 62.640625 C 293.132812 62.445312 292.976562 62.214844 292.894531 61.953125 C 292.808594 61.695312 292.769531 61.308594 292.769531 60.796875 L 292.769531 56.453125 L 291.738281 56.453125 L 291.738281 55.9375 L 292.769531 55.9375 L 292.769531 54.65625 L 294.066406 54.328125 L 294.066406 55.9375 L 296.035156 55.9375 L 296.035156 56.453125 L 294.066406 56.453125 L 294.066406 60.96875 C 294.066406 61.585938 294.121094 61.992188 294.238281 62.1875 C 294.414062 62.492188 294.710938 62.640625 295.128906 62.640625 C 295.324219 62.640625 295.570312 62.574219 295.863281 62.4375 Z M 302.769531 62.6875 C 301.957031 63 301.210938 63.15625 300.535156 63.15625 C 299.503906 63.15625 298.660156 62.808594 298.003906 62.109375 C 297.355469 61.414062 297.035156 60.507812 297.035156 59.390625 C 297.035156 58.328125 297.324219 57.464844 297.910156 56.796875 C 298.492188 56.121094 299.238281 55.78125 300.144531 55.78125 C 300.996094 55.78125 301.648438 56.070312 302.097656 56.640625 C 302.542969 57.203125 302.769531 58.011719 302.769531 59.0625 L 302.769531 59.1875 L 298.457031 59.1875 C 298.457031 60.15625 298.589844 60.886719 298.863281 61.375 C 299.277344 62.136719 299.902344 62.515625 300.738281 62.515625 C 301.527344 62.515625 302.207031 62.355469 302.769531 62.03125 Z M 298.488281 58.78125 L 301.410156 58.78125 L 301.425781 58.5 C 301.425781 57.980469 301.398438 57.601562 301.347656 57.359375 C 301.304688 57.121094 301.214844 56.90625 301.082031 56.71875 C 300.832031 56.355469 300.492188 56.171875 300.066406 56.171875 C 299.574219 56.171875 299.191406 56.414062 298.910156 56.890625 C 298.628906 57.359375 298.488281 57.992188 298.488281 58.78125 Z M 309.269531 63 L 309.269531 61.671875 C 308.644531 62.664062 307.820312 63.15625 306.800781 63.15625 C 305.996094 63.15625 305.355469 62.84375 304.878906 62.21875 C 304.410156 61.585938 304.175781 60.734375 304.175781 59.671875 C 304.175781 58.496094 304.445312 57.554688 304.988281 56.84375 C 305.527344 56.136719 306.253906 55.78125 307.160156 55.78125 C 307.980469 55.78125 308.683594 56.101562 309.269531 56.734375 L 309.269531 54.40625 C 309.269531 54.054688 309.242188 53.742188 309.191406 53.46875 C 309.160156 53.355469 309.105469 53.28125 309.035156 53.25 C 308.972656 53.210938 308.839844 53.183594 308.644531 53.171875 L 308.191406 53.140625 L 308.066406 53.125 L 308.066406 52.71875 L 310.566406 52.71875 L 310.566406 61.3125 C 310.566406 61.667969 310.589844 61.980469 310.644531 62.25 C 310.675781 62.367188 310.722656 62.445312 310.785156 62.484375 C 310.855469 62.515625 310.996094 62.542969 311.207031 62.5625 L 311.644531 62.59375 L 311.769531 62.59375 L 311.769531 63 Z M 309.269531 57.234375 C 308.601562 56.734375 307.949219 56.484375 307.316406 56.484375 C 306.742188 56.484375 306.300781 56.730469 305.988281 57.21875 C 305.683594 57.710938 305.535156 58.414062 305.535156 59.328125 C 305.535156 60.328125 305.679688 61.078125 305.972656 61.578125 C 306.261719 62.078125 306.695312 62.328125 307.269531 62.328125 C 307.621094 62.328125 307.992188 62.226562 308.378906 62.015625 C 308.761719 61.808594 309.058594 61.542969 309.269531 61.21875 Z M 319.34375 63.125 L 317.28125 55.09375 L 317.046875 54.234375 C 317.003906 54.039062 316.953125 53.914062 316.890625 53.859375 C 316.835938 53.808594 316.734375 53.78125 316.578125 53.78125 L 316.203125 53.78125 L 316.0625 53.765625 L 316.0625 53.375 L 319.515625 53.375 L 319.515625 53.765625 L 319.390625 53.765625 L 319.03125 53.78125 C 318.789062 53.78125 318.628906 53.808594 318.546875 53.859375 C 318.460938 53.902344 318.421875 53.992188 318.421875 54.125 C 318.421875 54.273438 318.484375 54.59375 318.609375 55.09375 L 320.03125 60.703125 L 322.25 53.484375 L 322.703125 53.484375 L 324.921875 60.890625 L 326.59375 55.09375 L 326.734375 54.625 C 326.828125 54.273438 326.875 54.0625 326.875 54 C 326.875 53.855469 326.6875 53.78125 326.3125 53.78125 L 325.859375 53.765625 L 325.734375 53.765625 L 325.734375 53.375 L 328.390625 53.375 L 328.390625 53.765625 L 328.265625 53.78125 L 327.875 53.796875 C 327.71875 53.796875 327.601562 53.824219 327.53125 53.875 C 327.46875 53.929688 327.410156 54.039062 327.359375 54.203125 L 327.09375 55.09375 L 324.734375 63.125 L 324.296875 63.125 L 322.03125 55.71875 L 319.796875 63.125 Z M 331.121094 55.9375 L 331.121094 61.3125 C 331.121094 61.667969 331.144531 61.980469 331.199219 62.25 C 331.230469 62.367188 331.277344 62.445312 331.339844 62.484375 C 331.410156 62.515625 331.550781 62.542969 331.761719 62.5625 L 332.199219 62.59375 L 332.324219 62.59375 L 332.324219 63 L 328.621094 63 L 328.621094 62.59375 L 328.746094 62.59375 L 329.183594 62.5625 C 329.433594 62.542969 329.589844 62.5 329.652344 62.4375 C 329.722656 62.367188 329.769531 62.203125 329.792969 61.953125 L 329.824219 61.3125 L 329.824219 57.625 L 329.792969 56.984375 C 329.769531 56.734375 329.722656 56.578125 329.652344 56.515625 C 329.589844 56.445312 329.433594 56.398438 329.183594 56.375 L 328.746094 56.34375 L 328.621094 56.328125 L 328.621094 55.9375 Z M 329.824219 54.65625 L 329.824219 53.375 L 331.121094 53.375 L 331.121094 54.65625 Z M 337.167969 62.96875 C 336.84375 63.09375 336.535156 63.15625 336.246094 63.15625 C 335.578125 63.15625 335.050781 62.984375 334.667969 62.640625 C 334.4375 62.445312 334.28125 62.214844 334.199219 61.953125 C 334.113281 61.695312 334.074219 61.308594 334.074219 60.796875 L 334.074219 56.453125 L 333.042969 56.453125 L 333.042969 55.9375 L 334.074219 55.9375 L 334.074219 54.65625 L 335.371094 54.328125 L 335.371094 55.9375 L 337.339844 55.9375 L 337.339844 56.453125 L 335.371094 56.453125 L 335.371094 60.96875 C 335.371094 61.585938 335.425781 61.992188 335.542969 62.1875 C 335.71875 62.492188 336.015625 62.640625 336.433594 62.640625 C 336.628906 62.640625 336.875 62.574219 337.167969 62.4375 Z M 340.433594 57.265625 C 340.734375 56.796875 341.109375 56.433594 341.558594 56.171875 C 342.015625 55.914062 342.488281 55.78125 342.980469 55.78125 C 343.582031 55.78125 344.058594 55.980469 344.402344 56.375 C 344.746094 56.773438 344.917969 57.320312 344.917969 58.015625 L 344.917969 61.3125 L 344.964844 61.953125 C 344.972656 62.203125 345.015625 62.367188 345.089844 62.4375 C 345.160156 62.5 345.324219 62.542969 345.574219 62.5625 L 346.011719 62.59375 L 346.121094 62.59375 L 346.121094 63 L 342.433594 63 L 342.433594 62.59375 L 342.558594 62.59375 L 342.996094 62.5625 C 343.246094 62.542969 343.402344 62.5 343.464844 62.4375 C 343.535156 62.367188 343.582031 62.203125 343.605469 61.953125 L 343.636719 61.3125 L 343.636719 58.21875 C 343.636719 57.617188 343.558594 57.199219 343.402344 56.96875 C 343.246094 56.730469 342.964844 56.609375 342.558594 56.609375 C 341.972656 56.609375 341.265625 56.96875 340.433594 57.6875 L 340.433594 61.3125 C 340.433594 61.667969 340.457031 61.980469 340.511719 62.25 C 340.542969 62.367188 340.589844 62.445312 340.652344 62.484375 C 340.722656 62.515625 340.863281 62.542969 341.074219 62.5625 L 341.511719 62.59375 L 341.636719 62.59375 L 341.636719 63 L 337.933594 63 L 337.933594 62.59375 L 338.058594 62.59375 L 338.496094 62.5625 C 338.746094 62.542969 338.902344 62.5 338.964844 62.4375 C 339.035156 62.367188 339.082031 62.203125 339.105469 61.953125 L 339.136719 61.3125 L 339.136719 54.40625 L 339.105469 53.765625 C 339.082031 53.515625 339.035156 53.359375 338.964844 53.296875 C 338.902344 53.226562 338.746094 53.183594 338.496094 53.171875 L 338.058594 53.140625 L 337.933594 53.125 L 337.933594 52.71875 L 340.433594 52.71875 Z M 350.464844 53.765625 L 350.464844 53.375 L 353.230469 53.375 L 356.105469 60.375 L 358.949219 53.375 L 361.371094 53.375 L 361.371094 53.765625 L 361.246094 53.78125 L 360.808594 53.796875 C 360.558594 53.820312 360.394531 53.867188 360.324219 53.9375 C 360.261719 54 360.21875 54.15625 360.199219 54.40625 L 360.167969 55.046875 L 360.167969 61.3125 L 360.199219 61.953125 C 360.21875 62.203125 360.261719 62.367188 360.324219 62.4375 C 360.394531 62.5 360.558594 62.542969 360.808594 62.5625 L 361.246094 62.59375 L 361.371094 62.59375 L 361.371094 63 L 357.699219 63 L 357.699219 62.59375 L 357.808594 62.59375 L 358.246094 62.5625 C 358.496094 62.542969 358.652344 62.5 358.714844 62.4375 C 358.785156 62.367188 358.828125 62.203125 358.839844 61.953125 L 358.886719 61.3125 L 358.886719 54.703125 L 355.855469 62.234375 L 355.371094 62.234375 L 352.386719 54.59375 L 352.386719 61.3125 L 352.417969 61.953125 C 352.4375 62.203125 352.480469 62.367188 352.542969 62.4375 C 352.613281 62.5 352.777344 62.542969 353.027344 62.5625 L 353.464844 62.59375 L 353.589844 62.59375 L 353.589844 63 L 350.464844 63 L 350.464844 62.59375 L 350.589844 62.59375 L 351.027344 62.5625 C 351.277344 62.542969 351.433594 62.5 351.496094 62.4375 C 351.566406 62.367188 351.609375 62.203125 351.621094 61.953125 L 351.667969 61.3125 L 351.667969 55.046875 L 351.621094 54.40625 C 351.609375 54.15625 351.566406 54 351.496094 53.9375 C 351.433594 53.867188 351.277344 53.820312 351.027344 53.796875 L 350.589844 53.78125 Z M 366.664062 62.03125 C 366.234375 62.449219 365.855469 62.742188 365.523438 62.90625 C 365.1875 63.070312 364.8125 63.15625 364.398438 63.15625 C 363.792969 63.15625 363.292969 62.96875 362.898438 62.59375 C 362.5 62.21875 362.304688 61.746094 362.304688 61.171875 C 362.304688 60.496094 362.5625 59.949219 363.085938 59.53125 C 363.40625 59.273438 363.792969 59.089844 364.242188 58.984375 C 364.699219 58.882812 365.320312 58.828125 366.101562 58.828125 L 366.367188 58.828125 L 366.367188 57.9375 C 366.367188 56.824219 365.945312 56.265625 365.101562 56.265625 C 364.703125 56.265625 364.355469 56.390625 364.054688 56.640625 C 363.875 56.789062 363.761719 57.089844 363.710938 57.546875 L 363.710938 57.65625 L 362.835938 57.65625 L 362.835938 56.375 C 363.730469 55.980469 364.5625 55.78125 365.335938 55.78125 C 366 55.78125 366.546875 55.9375 366.976562 56.25 C 367.234375 56.449219 367.414062 56.664062 367.507812 56.890625 C 367.601562 57.121094 367.648438 57.453125 367.648438 57.890625 L 367.648438 61.046875 C 367.648438 61.609375 367.695312 62.007812 367.789062 62.234375 C 367.890625 62.464844 368.0625 62.578125 368.304688 62.578125 C 368.386719 62.578125 368.5 62.558594 368.648438 62.515625 L 368.695312 63 C 368.382812 63.101562 368.101562 63.15625 367.851562 63.15625 C 367.226562 63.15625 366.828125 62.78125 366.664062 62.03125 Z M 366.367188 61.890625 L 366.367188 59.21875 L 366.070312 59.21875 C 365.308594 59.21875 364.714844 59.375 364.289062 59.6875 C 363.871094 60 363.664062 60.433594 363.664062 60.984375 C 363.664062 61.390625 363.792969 61.730469 364.054688 62 C 364.3125 62.273438 364.640625 62.40625 365.039062 62.40625 C 365.414062 62.40625 365.855469 62.234375 366.367188 61.890625 Z M 371.621094 62.203125 L 371.621094 63.890625 C 371.621094 64.242188 371.644531 64.554688 371.699219 64.828125 C 371.730469 64.929688 371.777344 65.003906 371.839844 65.046875 C 371.910156 65.085938 372.050781 65.113281 372.261719 65.125 L 372.699219 65.15625 L 372.824219 65.171875 L 372.824219 65.578125 L 369.121094 65.578125 L 369.121094 65.171875 L 369.246094 65.15625 L 369.683594 65.125 C 369.933594 65.113281 370.089844 65.070312 370.152344 65 C 370.222656 64.9375 370.269531 64.773438 370.292969 64.515625 L 370.324219 63.890625 L 370.324219 57.625 L 370.292969 56.984375 C 370.269531 56.734375 370.222656 56.578125 370.152344 56.515625 C 370.089844 56.445312 369.933594 56.398438 369.683594 56.375 L 369.246094 56.34375 L 369.121094 56.328125 L 369.121094 55.9375 L 371.621094 55.9375 L 371.621094 57.265625 C 372.253906 56.277344 373.082031 55.78125 374.105469 55.78125 C 374.894531 55.78125 375.527344 56.09375 375.996094 56.71875 C 376.472656 57.34375 376.714844 58.195312 376.714844 59.265625 C 376.714844 60.445312 376.441406 61.386719 375.902344 62.09375 C 375.359375 62.804688 374.640625 63.15625 373.746094 63.15625 C 372.910156 63.15625 372.203125 62.839844 371.621094 62.203125 Z M 371.621094 61.6875 C 372.296875 62.199219 372.949219 62.453125 373.574219 62.453125 C 374.144531 62.453125 374.582031 62.210938 374.886719 61.71875 C 375.199219 61.230469 375.355469 60.527344 375.355469 59.609375 C 375.355469 58.601562 375.207031 57.851562 374.917969 57.359375 C 374.636719 56.859375 374.203125 56.609375 373.621094 56.609375 C 373.265625 56.609375 372.90625 56.710938 372.542969 56.90625 C 372.1875 57.105469 371.878906 57.371094 371.621094 57.703125 Z M 371.621094 61.6875 "/>
<path style="fill:none;stroke-width:1;stroke-linecap:round;stroke-linejoin:round;stroke:rgb(100%,0%,0%);stroke-opacity:1;stroke-miterlimit:10;" d="M 70.527344 75.25 L 206.675781 38.769531 "/>
<path style=" stroke:none;fill-rule:evenodd;fill:rgb(100%,0%,0%);fill-opacity:1;" d="M 98.546875 59.75 L 99.3125 62.640625 C 99.40625 62.984375 99.523438 63.28125 99.671875 63.53125 C 99.722656 63.625 99.796875 63.683594 99.890625 63.703125 C 99.992188 63.726562 100.144531 63.710938 100.34375 63.65625 C 100.363281 63.648438 100.53125 63.609375 100.84375 63.546875 L 100.96875 63.515625 L 101.078125 63.90625 L 97.265625 64.921875 L 97.15625 64.53125 L 97.28125 64.5 L 97.703125 64.359375 C 97.929688 64.277344 98.070312 64.195312 98.125 64.109375 C 98.175781 64.015625 98.175781 63.851562 98.125 63.609375 L 98 62.984375 L 96.375 56.921875 L 96.171875 56.328125 C 96.089844 56.089844 96.007812 55.949219 95.921875 55.90625 C 95.839844 55.855469 95.679688 55.851562 95.4375 55.890625 L 95 55.984375 L 94.875 56 L 94.78125 55.625 L 101.0625 53.953125 L 101.484375 55.5625 L 100.796875 55.75 L 100.75 55.65625 L 100.578125 55.125 C 100.523438 54.917969 100.460938 54.792969 100.390625 54.75 C 100.316406 54.710938 100.1875 54.714844 100 54.765625 L 99.34375 54.9375 L 97.390625 55.46875 L 98.40625 59.234375 L 100.109375 58.78125 L 100.515625 58.65625 C 100.691406 58.605469 100.796875 58.558594 100.828125 58.515625 C 100.859375 58.464844 100.863281 58.355469 100.84375 58.1875 C 100.832031 58.125 100.816406 58.03125 100.796875 57.90625 L 100.765625 57.78125 L 101.265625 57.640625 L 101.8125 59.703125 L 101.3125 59.84375 L 101.28125 59.734375 C 101.144531 59.371094 101.039062 59.183594 100.96875 59.171875 C 100.8125 59.164062 100.570312 59.203125 100.25 59.296875 Z M 104.871094 55.578125 L 106.261719 60.78125 C 106.355469 61.125 106.464844 61.417969 106.589844 61.65625 C 106.640625 61.761719 106.703125 61.824219 106.777344 61.84375 C 106.847656 61.855469 106.996094 61.84375 107.214844 61.8125 L 107.636719 61.734375 L 107.746094 61.703125 L 107.855469 62.09375 L 104.277344 63.046875 L 104.167969 62.65625 L 104.292969 62.625 L 104.714844 62.484375 C 104.941406 62.402344 105.082031 62.320312 105.136719 62.234375 C 105.1875 62.140625 105.191406 61.976562 105.152344 61.734375 L 105.011719 61.109375 L 104.058594 57.546875 L 103.855469 56.9375 C 103.773438 56.699219 103.691406 56.558594 103.605469 56.515625 C 103.523438 56.464844 103.355469 56.460938 103.105469 56.5 L 102.683594 56.59375 L 102.542969 56.609375 L 102.449219 56.21875 Z M 103.292969 54.671875 L 102.964844 53.4375 L 104.214844 53.109375 L 104.542969 54.34375 Z M 108.042969 62.035156 L 107.933594 61.644531 L 108.027344 61.628906 C 108.253906 61.546875 108.453125 61.339844 108.621094 61.003906 L 109.105469 60.035156 L 110.058594 57.957031 L 108.136719 56.472656 L 107.308594 55.863281 C 107.089844 55.707031 106.929688 55.613281 106.824219 55.582031 C 106.722656 55.550781 106.582031 55.558594 106.402344 55.597656 L 106.261719 55.613281 L 106.167969 55.222656 L 109.261719 54.394531 L 109.355469 54.785156 L 109.230469 54.816406 L 108.996094 54.910156 C 108.703125 54.984375 108.574219 55.078125 108.605469 55.191406 C 108.625 55.277344 108.953125 55.574219 109.589844 56.082031 L 110.933594 57.128906 L 111.511719 55.582031 C 111.605469 55.375 111.683594 55.128906 111.746094 54.847656 C 111.816406 54.558594 111.847656 54.386719 111.839844 54.332031 C 111.808594 54.21875 111.675781 54.1875 111.449219 54.238281 L 111.214844 54.285156 L 111.058594 54.332031 L 110.964844 53.941406 L 113.136719 53.363281 L 113.230469 53.753906 L 113.136719 53.800781 C 112.957031 53.84375 112.824219 53.917969 112.730469 54.019531 C 112.644531 54.113281 112.5625 54.265625 112.480469 54.472656 C 112.355469 54.808594 112.234375 55.121094 112.121094 55.410156 L 111.261719 57.378906 L 113.261719 58.910156 C 113.738281 59.277344 114.097656 59.519531 114.339844 59.644531 C 114.589844 59.761719 114.808594 59.796875 114.996094 59.753906 L 115.089844 59.738281 L 115.199219 60.128906 L 112.105469 60.957031 L 111.996094 60.566406 L 112.105469 60.535156 L 112.386719 60.457031 C 112.699219 60.375 112.84375 60.28125 112.824219 60.175781 C 112.8125 60.15625 112.777344 60.121094 112.714844 60.066406 C 112.652344 60.035156 112.578125 59.980469 112.496094 59.894531 C 112.265625 59.675781 112.035156 59.480469 111.808594 59.300781 L 110.386719 58.222656 L 109.683594 59.878906 L 109.464844 60.425781 L 109.277344 60.957031 C 109.246094 61.011719 109.234375 61.058594 109.246094 61.097656 C 109.277344 61.222656 109.449219 61.246094 109.761719 61.160156 L 109.996094 61.097656 L 110.152344 61.050781 L 110.261719 61.441406 Z M 121.265625 58.175781 C 120.566406 58.699219 119.890625 59.042969 119.234375 59.207031 C 118.234375 59.480469 117.328125 59.359375 116.515625 58.847656 C 115.710938 58.339844 115.167969 57.546875 114.875 56.472656 C 114.605469 55.441406 114.664062 54.53125 115.046875 53.738281 C 115.429688 52.9375 116.0625 52.421875 116.9375 52.191406 C 117.757812 51.972656 118.460938 52.078125 119.046875 52.503906 C 119.628906 52.933594 120.054688 53.65625 120.328125 54.675781 L 120.359375 54.785156 L 116.203125 55.910156 C 116.453125 56.847656 116.769531 57.519531 117.15625 57.925781 C 117.75 58.550781 118.453125 58.753906 119.265625 58.535156 C 120.023438 58.328125 120.632812 57.996094 121.09375 57.535156 Z M 116.109375 55.503906 L 118.9375 54.753906 L 118.875 54.488281 C 118.75 53.988281 118.628906 53.628906 118.515625 53.410156 C 118.410156 53.183594 118.269531 52.996094 118.09375 52.847656 C 117.757812 52.566406 117.382812 52.480469 116.96875 52.582031 C 116.5 52.707031 116.1875 53.035156 116.03125 53.566406 C 115.875 54.097656 115.898438 54.746094 116.109375 55.503906 Z M 127.617188 56.800781 L 127.273438 55.519531 C 126.929688 56.636719 126.265625 57.328125 125.289062 57.597656 C 124.507812 57.808594 123.804688 57.667969 123.179688 57.175781 C 122.554688 56.6875 122.105469 55.925781 121.835938 54.894531 C 121.535156 53.761719 121.554688 52.78125 121.898438 51.957031 C 122.230469 51.136719 122.835938 50.609375 123.710938 50.378906 C 124.5 50.160156 125.261719 50.285156 125.992188 50.753906 L 125.398438 48.503906 C 125.304688 48.160156 125.195312 47.863281 125.070312 47.613281 C 125.015625 47.511719 124.949219 47.449219 124.867188 47.425781 C 124.792969 47.40625 124.664062 47.417969 124.476562 47.457031 L 124.039062 47.566406 L 123.898438 47.582031 L 123.804688 47.175781 L 126.210938 46.519531 L 128.429688 54.832031 C 128.523438 55.175781 128.632812 55.472656 128.757812 55.722656 C 128.808594 55.816406 128.871094 55.875 128.945312 55.894531 C 129.027344 55.917969 129.171875 55.910156 129.382812 55.878906 L 129.804688 55.785156 L 129.929688 55.753906 L 130.039062 56.144531 Z M 126.132812 51.238281 C 125.359375 50.917969 124.667969 50.839844 124.054688 51.003906 C 123.492188 51.152344 123.121094 51.503906 122.945312 52.066406 C 122.777344 52.621094 122.8125 53.339844 123.054688 54.222656 C 123.3125 55.191406 123.652344 55.878906 124.070312 56.285156 C 124.484375 56.683594 124.96875 56.808594 125.523438 56.660156 C 125.867188 56.566406 126.195312 56.375 126.507812 56.082031 C 126.828125 55.78125 127.042969 55.449219 127.148438 55.082031 Z M 138.058594 54.160156 C 137.078125 54.433594 136.214844 54.324219 135.464844 53.832031 C 134.714844 53.34375 134.191406 52.550781 133.902344 51.457031 C 133.601562 50.34375 133.660156 49.394531 134.074219 48.613281 C 134.480469 47.824219 135.183594 47.292969 136.183594 47.019531 C 137.191406 46.761719 138.074219 46.871094 138.824219 47.347656 C 139.582031 47.816406 140.109375 48.605469 140.402344 49.707031 C 140.703125 50.824219 140.644531 51.777344 140.230469 52.566406 C 139.824219 53.359375 139.097656 53.890625 138.058594 54.160156 Z M 137.964844 53.785156 C 138.535156 53.628906 138.925781 53.203125 139.136719 52.503906 C 139.355469 51.796875 139.339844 50.980469 139.089844 50.050781 C 138.847656 49.144531 138.457031 48.441406 137.917969 47.941406 C 137.386719 47.433594 136.84375 47.25 136.292969 47.394531 C 135.738281 47.550781 135.359375 47.984375 135.152344 48.691406 C 134.953125 49.390625 134.980469 50.199219 135.230469 51.113281 C 135.46875 52.019531 135.847656 52.730469 136.371094 53.238281 C 136.890625 53.75 137.421875 53.933594 137.964844 53.785156 Z M 143.097656 46.722656 C 143.261719 46.183594 143.527344 45.730469 143.894531 45.363281 C 144.269531 45 144.691406 44.753906 145.160156 44.628906 C 145.753906 44.472656 146.261719 44.542969 146.691406 44.832031 C 147.128906 45.113281 147.433594 45.59375 147.613281 46.269531 L 148.472656 49.457031 L 148.691406 50.066406 C 148.761719 50.296875 148.839844 50.4375 148.925781 50.488281 C 149.019531 50.542969 149.191406 50.546875 149.441406 50.503906 L 149.863281 50.410156 L 149.972656 50.394531 L 150.082031 50.785156 L 146.519531 51.738281 L 146.410156 51.347656 L 146.519531 51.316406 L 146.941406 51.160156 C 147.179688 51.078125 147.320312 50.996094 147.363281 50.910156 C 147.414062 50.828125 147.417969 50.660156 147.378906 50.410156 L 147.238281 49.800781 L 146.441406 46.800781 C 146.285156 46.21875 146.097656 45.832031 145.878906 45.644531 C 145.667969 45.457031 145.367188 45.421875 144.972656 45.535156 C 144.410156 45.683594 143.820312 46.214844 143.207031 47.128906 L 144.144531 50.628906 C 144.238281 50.972656 144.347656 51.265625 144.472656 51.503906 C 144.523438 51.609375 144.585938 51.671875 144.660156 51.691406 C 144.730469 51.703125 144.878906 51.691406 145.097656 51.660156 L 145.519531 51.582031 L 145.628906 51.550781 L 145.738281 51.941406 L 142.160156 52.894531 L 142.050781 52.503906 L 142.175781 52.472656 L 142.597656 52.332031 C 142.824219 52.25 142.964844 52.167969 143.019531 52.082031 C 143.070312 51.988281 143.074219 51.824219 143.035156 51.582031 L 142.894531 50.957031 L 141.941406 47.394531 L 141.738281 46.785156 C 141.65625 46.546875 141.574219 46.40625 141.488281 46.363281 C 141.40625 46.3125 141.238281 46.308594 140.988281 46.347656 L 140.566406 46.441406 L 140.425781 46.457031 L 140.332031 46.066406 L 142.753906 45.425781 Z M 153.980469 39.085938 L 156.199219 47.398438 C 156.292969 47.742188 156.402344 48.035156 156.527344 48.273438 C 156.578125 48.378906 156.640625 48.441406 156.714844 48.460938 C 156.785156 48.472656 156.933594 48.460938 157.152344 48.429688 L 157.574219 48.351562 L 157.683594 48.320312 L 157.792969 48.710938 L 154.214844 49.664062 L 154.105469 49.273438 L 154.230469 49.242188 L 154.652344 49.101562 C 154.878906 49.019531 155.019531 48.9375 155.074219 48.851562 C 155.125 48.757812 155.128906 48.59375 155.089844 48.351562 L 154.949219 47.726562 L 153.167969 41.054688 L 152.964844 40.445312 C 152.882812 40.207031 152.800781 40.066406 152.714844 40.023438 C 152.621094 39.972656 152.457031 39.972656 152.214844 40.023438 L 151.792969 40.117188 L 151.652344 40.132812 L 151.558594 39.726562 Z M 158.84375 41.117188 L 160.234375 46.320312 C 160.328125 46.664062 160.4375 46.957031 160.5625 47.195312 C 160.613281 47.300781 160.675781 47.363281 160.75 47.382812 C 160.820312 47.394531 160.96875 47.382812 161.1875 47.351562 L 161.609375 47.273438 L 161.71875 47.242188 L 161.828125 47.632812 L 158.25 48.585938 L 158.140625 48.195312 L 158.265625 48.164062 L 158.6875 48.023438 C 158.914062 47.941406 159.054688 47.859375 159.109375 47.773438 C 159.160156 47.679688 159.164062 47.515625 159.125 47.273438 L 158.984375 46.648438 L 158.03125 43.085938 L 157.828125 42.476562 C 157.746094 42.238281 157.664062 42.097656 157.578125 42.054688 C 157.496094 42.003906 157.328125 42 157.078125 42.039062 L 156.65625 42.132812 L 156.515625 42.148438 L 156.421875 41.757812 Z M 157.265625 40.210938 L 156.9375 38.976562 L 158.1875 38.648438 L 158.515625 39.882812 Z M 163.140625 41.351562 C 163.304688 40.8125 163.570312 40.359375 163.9375 39.992188 C 164.3125 39.628906 164.734375 39.382812 165.203125 39.257812 C 165.796875 39.101562 166.304688 39.171875 166.734375 39.460938 C 167.171875 39.742188 167.476562 40.222656 167.65625 40.898438 L 168.515625 44.085938 L 168.734375 44.695312 C 168.804688 44.925781 168.882812 45.066406 168.96875 45.117188 C 169.0625 45.171875 169.234375 45.175781 169.484375 45.132812 L 169.90625 45.039062 L 170.015625 45.023438 L 170.125 45.414062 L 166.5625 46.367188 L 166.453125 45.976562 L 166.5625 45.945312 L 166.984375 45.789062 C 167.222656 45.707031 167.363281 45.625 167.40625 45.539062 C 167.457031 45.457031 167.460938 45.289062 167.421875 45.039062 L 167.28125 44.429688 L 166.484375 41.429688 C 166.328125 40.847656 166.140625 40.460938 165.921875 40.273438 C 165.710938 40.085938 165.410156 40.050781 165.015625 40.164062 C 164.453125 40.3125 163.863281 40.84375 163.25 41.757812 L 164.1875 45.257812 C 164.28125 45.601562 164.390625 45.894531 164.515625 46.132812 C 164.566406 46.238281 164.628906 46.300781 164.703125 46.320312 C 164.773438 46.332031 164.921875 46.320312 165.140625 46.289062 L 165.5625 46.210938 L 165.671875 46.179688 L 165.78125 46.570312 L 162.203125 47.523438 L 162.09375 47.132812 L 162.21875 47.101562 L 162.640625 46.960938 C 162.867188 46.878906 163.007812 46.796875 163.0625 46.710938 C 163.113281 46.617188 163.117188 46.453125 163.078125 46.210938 L 162.9375 45.585938 L 161.984375 42.023438 L 161.78125 41.414062 C 161.699219 41.175781 161.617188 41.035156 161.53125 40.992188 C 161.449219 40.941406 161.28125 40.9375 161.03125 40.976562 L 160.609375 41.070312 L 160.46875 41.085938 L 160.375 40.695312 L 162.796875 40.054688 Z M 176.203125 43.453125 C 175.503906 43.976562 174.828125 44.320312 174.171875 44.484375 C 173.171875 44.757812 172.265625 44.636719 171.453125 44.125 C 170.648438 43.617188 170.105469 42.824219 169.8125 41.75 C 169.542969 40.71875 169.601562 39.808594 169.984375 39.015625 C 170.367188 38.214844 171 37.699219 171.875 37.46875 C 172.695312 37.25 173.398438 37.355469 173.984375 37.78125 C 174.566406 38.210938 174.992188 38.933594 175.265625 39.953125 L 175.296875 40.0625 L 171.140625 41.1875 C 171.390625 42.125 171.707031 42.796875 172.09375 43.203125 C 172.6875 43.828125 173.390625 44.03125 174.203125 43.8125 C 174.960938 43.605469 175.570312 43.273438 176.03125 42.8125 Z M 171.046875 40.78125 L 173.875 40.03125 L 173.8125 39.765625 C 173.6875 39.265625 173.566406 38.90625 173.453125 38.6875 C 173.347656 38.460938 173.207031 38.273438 173.03125 38.125 C 172.695312 37.84375 172.320312 37.757812 171.90625 37.859375 C 171.4375 37.984375 171.125 38.3125 170.96875 38.84375 C 170.8125 39.375 170.835938 40.023438 171.046875 40.78125 Z M 171.046875 40.78125 "/>
<path style=" stroke:none;fill-rule:evenodd;fill:rgb(0%,0%,0%);fill-opacity:1;" d="M 372.234375 145.59375 C 371.710938 145.28125 371.328125 144.988281 371.078125 144.71875 C 370.835938 144.445312 370.664062 144.109375 370.5625 143.703125 C 370.40625 143.117188 370.457031 142.585938 370.71875 142.109375 C 370.976562 141.628906 371.382812 141.316406 371.9375 141.171875 C 372.59375 140.996094 373.1875 141.101562 373.71875 141.5 C 374.0625 141.738281 374.335938 142.0625 374.546875 142.46875 C 374.765625 142.882812 374.976562 143.46875 375.1875 144.21875 L 375.25 144.484375 L 376.109375 144.25 C 377.179688 143.957031 377.609375 143.398438 377.390625 142.578125 C 377.285156 142.203125 377.078125 141.90625 376.765625 141.6875 C 376.578125 141.539062 376.253906 141.507812 375.796875 141.59375 L 375.6875 141.609375 L 375.46875 140.75 L 376.71875 140.421875 C 377.320312 141.179688 377.722656 141.9375 377.921875 142.6875 C 378.097656 143.332031 378.085938 143.898438 377.890625 144.390625 C 377.773438 144.703125 377.613281 144.929688 377.40625 145.078125 C 377.207031 145.234375 376.898438 145.363281 376.484375 145.46875 L 373.4375 146.296875 C 372.894531 146.441406 372.523438 146.585938 372.328125 146.734375 C 372.128906 146.890625 372.0625 147.082031 372.125 147.3125 C 372.144531 147.394531 372.195312 147.503906 372.28125 147.640625 L 371.828125 147.8125 C 371.640625 147.539062 371.515625 147.28125 371.453125 147.03125 C 371.285156 146.4375 371.546875 145.957031 372.234375 145.59375 Z M 372.296875 145.28125 L 374.875 144.578125 L 374.796875 144.28125 C 374.597656 143.550781 374.289062 143.023438 373.875 142.703125 C 373.46875 142.378906 373 142.289062 372.46875 142.4375 C 372.070312 142.539062 371.773438 142.75 371.578125 143.0625 C 371.390625 143.382812 371.347656 143.738281 371.453125 144.125 C 371.546875 144.476562 371.828125 144.863281 372.296875 145.28125 Z M 378.105469 149.144531 C 378.644531 149.308594 379.097656 149.574219 379.464844 149.941406 C 379.828125 150.316406 380.074219 150.738281 380.199219 151.207031 C 380.355469 151.800781 380.285156 152.308594 379.996094 152.738281 C 379.714844 153.175781 379.234375 153.480469 378.558594 153.660156 L 375.371094 154.519531 L 374.761719 154.738281 C 374.53125 154.808594 374.390625 154.886719 374.339844 154.972656 C 374.285156 155.066406 374.28125 155.238281 374.324219 155.488281 L 374.417969 155.910156 L 374.433594 156.019531 L 374.042969 156.128906 L 373.089844 152.566406 L 373.480469 152.457031 L 373.511719 152.566406 L 373.667969 152.988281 C 373.75 153.226562 373.832031 153.367188 373.917969 153.410156 C 374 153.460938 374.167969 153.464844 374.417969 153.425781 L 375.027344 153.285156 L 378.027344 152.488281 C 378.609375 152.332031 378.996094 152.144531 379.183594 151.925781 C 379.371094 151.714844 379.40625 151.414062 379.292969 151.019531 C 379.144531 150.457031 378.613281 149.867188 377.699219 149.253906 L 374.199219 150.191406 C 373.855469 150.285156 373.5625 150.394531 373.324219 150.519531 C 373.21875 150.570312 373.15625 150.632812 373.136719 150.707031 C 373.125 150.777344 373.136719 150.925781 373.167969 151.144531 L 373.246094 151.566406 L 373.277344 151.675781 L 372.886719 151.785156 L 371.933594 148.207031 L 372.324219 148.097656 L 372.355469 148.222656 L 372.496094 148.644531 C 372.578125 148.871094 372.660156 149.011719 372.746094 149.066406 C 372.839844 149.117188 373.003906 149.121094 373.246094 149.082031 L 373.871094 148.941406 L 377.433594 147.988281 L 378.042969 147.785156 C 378.28125 147.703125 378.421875 147.621094 378.464844 147.535156 C 378.515625 147.453125 378.519531 147.285156 378.480469 147.035156 L 378.386719 146.613281 L 378.371094 146.472656 L 378.761719 146.378906 L 379.402344 148.800781 Z M 374.789062 157.847656 C 374.882812 157.316406 375.117188 156.996094 375.492188 156.894531 C 375.730469 156.832031 375.964844 156.863281 376.195312 156.988281 C 376.421875 157.113281 376.714844 157.367188 377.070312 157.753906 C 377.132812 157.253906 377.320312 156.832031 377.632812 156.488281 C 377.953125 156.144531 378.367188 155.910156 378.867188 155.785156 C 379.59375 155.589844 380.234375 155.667969 380.789062 156.019531 C 381.351562 156.363281 381.734375 156.925781 381.945312 157.707031 C 382.070312 158.183594 382.101562 158.636719 382.039062 159.066406 L 382.851562 161.425781 L 382.023438 161.316406 L 381.867188 159.597656 C 381.492188 160.261719 380.953125 160.691406 380.257812 160.878906 C 379.546875 161.066406 378.902344 160.988281 378.320312 160.644531 C 377.734375 160.300781 377.351562 159.761719 377.164062 159.035156 C 377.089844 158.753906 377.054688 158.445312 377.054688 158.113281 C 376.75 157.871094 376.460938 157.792969 376.179688 157.878906 C 375.875 157.949219 375.792969 158.246094 375.929688 158.769531 L 376.226562 159.863281 C 376.515625 160.933594 376.59375 161.679688 376.460938 162.097656 C 376.3125 162.574219 375.960938 162.886719 375.398438 163.035156 C 374.742188 163.210938 374.136719 163.054688 373.585938 162.566406 C 373.035156 162.074219 372.628906 161.339844 372.367188 160.363281 C 372.109375 159.414062 372.035156 158.621094 372.148438 157.988281 C 372.265625 157.351562 372.546875 156.972656 372.992188 156.847656 C 373.554688 156.699219 374.152344 157.035156 374.789062 157.847656 Z M 379.273438 156.988281 C 377.875 157.363281 377.296875 157.992188 377.539062 158.878906 C 377.652344 159.304688 377.914062 159.582031 378.320312 159.707031 C 378.734375 159.839844 379.277344 159.820312 379.945312 159.644531 C 380.578125 159.476562 381.039062 159.230469 381.320312 158.910156 C 381.601562 158.597656 381.683594 158.226562 381.570312 157.800781 C 381.453125 157.382812 381.195312 157.101562 380.789062 156.957031 C 380.390625 156.808594 379.886719 156.820312 379.273438 156.988281 Z M 374.773438 158.191406 C 374.386719 157.960938 373.972656 157.910156 373.523438 158.035156 C 373.128906 158.136719 372.863281 158.394531 372.726562 158.800781 C 372.582031 159.207031 372.585938 159.707031 372.742188 160.300781 C 372.910156 160.914062 373.175781 161.363281 373.539062 161.644531 C 373.894531 161.933594 374.304688 162.019531 374.773438 161.894531 C 375.117188 161.800781 375.328125 161.636719 375.414062 161.410156 C 375.507812 161.191406 375.484375 160.832031 375.351562 160.332031 Z M 386.664062 163.464844 L 378.351562 165.683594 C 378.007812 165.777344 377.714844 165.886719 377.476562 166.011719 C 377.371094 166.0625 377.308594 166.125 377.289062 166.199219 C 377.277344 166.269531 377.289062 166.417969 377.320312 166.636719 L 377.398438 167.058594 L 377.429688 167.167969 L 377.039062 167.277344 L 376.085938 163.699219 L 376.476562 163.589844 L 376.507812 163.714844 L 376.648438 164.136719 C 376.730469 164.363281 376.8125 164.503906 376.898438 164.558594 C 376.992188 164.609375 377.15625 164.613281 377.398438 164.574219 L 378.023438 164.433594 L 384.695312 162.652344 L 385.304688 162.449219 C 385.542969 162.367188 385.683594 162.285156 385.726562 162.199219 C 385.777344 162.105469 385.777344 161.941406 385.726562 161.699219 L 385.632812 161.277344 L 385.617188 161.136719 L 386.023438 161.042969 Z M 379.058594 173.59375 C 378.535156 172.894531 378.191406 172.21875 378.027344 171.5625 C 377.753906 170.5625 377.875 169.65625 378.386719 168.84375 C 378.894531 168.039062 379.6875 167.496094 380.761719 167.203125 C 381.792969 166.933594 382.703125 166.992188 383.496094 167.375 C 384.296875 167.757812 384.8125 168.390625 385.042969 169.265625 C 385.261719 170.085938 385.15625 170.789062 384.730469 171.375 C 384.300781 171.957031 383.578125 172.382812 382.558594 172.65625 L 382.449219 172.6875 L 381.324219 168.53125 C 380.386719 168.78125 379.714844 169.097656 379.308594 169.484375 C 378.683594 170.078125 378.480469 170.78125 378.699219 171.59375 C 378.90625 172.351562 379.238281 172.960938 379.699219 173.421875 Z M 381.730469 168.4375 L 382.480469 171.265625 L 382.746094 171.203125 C 383.246094 171.078125 383.605469 170.957031 383.824219 170.84375 C 384.050781 170.738281 384.238281 170.597656 384.386719 170.421875 C 384.667969 170.085938 384.753906 169.710938 384.652344 169.296875 C 384.527344 168.828125 384.199219 168.515625 383.667969 168.359375 C 383.136719 168.203125 382.488281 168.226562 381.730469 168.4375 Z M 380.230469 179.148438 L 383.636719 178.242188 L 382.714844 174.820312 L 383.339844 174.648438 L 384.261719 178.070312 L 387.667969 177.148438 L 387.824219 177.773438 L 384.417969 178.695312 L 385.339844 182.101562 L 384.714844 182.273438 L 383.792969 178.867188 L 380.386719 179.773438 Z M 387.347656 185.882812 L 384.003906 186.773438 C 383.660156 186.867188 383.367188 186.976562 383.128906 187.101562 C 383.023438 187.152344 382.960938 187.214844 382.941406 187.289062 C 382.929688 187.359375 382.941406 187.507812 382.972656 187.726562 L 383.050781 188.148438 L 383.128906 188.414062 L 382.738281 188.523438 L 381.738281 184.789062 L 382.128906 184.679688 L 382.160156 184.804688 L 382.300781 185.226562 C 382.382812 185.453125 382.464844 185.59375 382.550781 185.648438 C 382.644531 185.699219 382.808594 185.703125 383.050781 185.664062 L 383.675781 185.523438 L 387.238281 184.570312 L 387.847656 184.367188 C 388.085938 184.285156 388.226562 184.203125 388.269531 184.117188 C 388.320312 184.035156 388.324219 183.867188 388.285156 183.617188 L 388.191406 183.195312 L 388.175781 183.054688 L 388.566406 182.960938 L 389.207031 185.382812 L 387.910156 185.726562 C 389.023438 186.027344 389.699219 186.636719 389.941406 187.554688 C 389.972656 187.679688 389.988281 187.820312 389.988281 187.976562 L 388.128906 188.492188 L 387.941406 187.804688 L 388.050781 187.742188 L 388.503906 187.570312 C 388.636719 187.515625 388.722656 187.460938 388.753906 187.398438 C 388.792969 187.34375 388.792969 187.261719 388.753906 187.148438 C 388.679688 186.84375 388.519531 186.585938 388.269531 186.367188 C 388.027344 186.148438 387.722656 185.984375 387.347656 185.882812 Z M 384.066406 194.109375 C 383.792969 193.128906 383.902344 192.265625 384.394531 191.515625 C 384.882812 190.765625 385.675781 190.242188 386.769531 189.953125 C 387.882812 189.652344 388.832031 189.710938 389.613281 190.125 C 390.402344 190.53125 390.933594 191.234375 391.207031 192.234375 C 391.464844 193.242188 391.355469 194.125 390.878906 194.875 C 390.410156 195.632812 389.621094 196.160156 388.519531 196.453125 C 387.402344 196.753906 386.449219 196.695312 385.660156 196.28125 C 384.867188 195.875 384.335938 195.148438 384.066406 194.109375 Z M 384.441406 194.015625 C 384.597656 194.585938 385.023438 194.976562 385.722656 195.1875 C 386.429688 195.40625 387.246094 195.390625 388.175781 195.140625 C 389.082031 194.898438 389.785156 194.507812 390.285156 193.96875 C 390.792969 193.4375 390.976562 192.894531 390.832031 192.34375 C 390.675781 191.789062 390.242188 191.410156 389.535156 191.203125 C 388.835938 191.003906 388.027344 191.03125 387.113281 191.28125 C 386.207031 191.519531 385.496094 191.898438 384.988281 192.421875 C 384.476562 192.941406 384.292969 193.472656 384.441406 194.015625 Z M 386.519531 202.503906 C 386.308594 202.230469 386.164062 201.957031 386.082031 201.675781 C 385.914062 201.027344 385.945312 200.472656 386.175781 200.003906 C 386.320312 199.730469 386.503906 199.523438 386.722656 199.378906 C 386.949219 199.230469 387.308594 199.097656 387.800781 198.972656 L 392.003906 197.847656 L 391.738281 196.847656 L 392.238281 196.707031 L 392.503906 197.707031 L 393.738281 197.378906 L 394.394531 198.535156 L 392.847656 198.957031 L 393.347656 200.847656 L 392.847656 200.988281 L 392.347656 199.097656 L 387.988281 200.253906 C 387.394531 200.417969 387.011719 200.582031 386.847656 200.738281 C 386.597656 200.988281 386.523438 201.308594 386.628906 201.707031 C 386.679688 201.902344 386.816406 202.128906 387.035156 202.378906 Z M 386.519531 202.503906 "/>
<path style=" stroke:none;fill-rule:evenodd;fill:rgb(0%,0%,0%);fill-opacity:1;" d="M 23.84375 167.765625 L 23.84375 170.3125 L 23.875 170.953125 C 23.875 171.226562 23.914062 171.390625 24 171.453125 C 24.09375 171.515625 24.347656 171.5625 24.765625 171.59375 L 24.890625 171.59375 L 24.890625 172 L 21.28125 172 L 21.28125 171.59375 L 21.40625 171.59375 L 21.84375 171.5625 C 22.09375 171.542969 22.25 171.5 22.3125 171.4375 C 22.382812 171.367188 22.425781 171.203125 22.4375 170.953125 L 22.484375 170.3125 L 22.484375 164.046875 L 22.4375 163.40625 C 22.425781 163.15625 22.382812 163 22.3125 162.9375 C 22.25 162.867188 22.09375 162.820312 21.84375 162.796875 L 21.40625 162.78125 L 21.28125 162.765625 L 21.28125 162.375 L 23.59375 162.375 L 24.234375 162.359375 L 24.765625 162.328125 L 25.28125 162.328125 C 26.257812 162.328125 27.003906 162.539062 27.515625 162.953125 C 28.023438 163.359375 28.28125 163.960938 28.28125 164.75 C 28.28125 165.40625 28.109375 165.96875 27.765625 166.4375 C 27.421875 166.898438 26.925781 167.242188 26.28125 167.46875 L 28.171875 170.296875 L 28.78125 171.140625 C 28.90625 171.328125 29.007812 171.449219 29.09375 171.5 C 29.175781 171.554688 29.304688 171.578125 29.484375 171.578125 C 29.546875 171.578125 29.691406 171.585938 29.921875 171.59375 L 30.046875 171.59375 L 30.046875 172 L 27.59375 172 L 24.96875 167.765625 Z M 23.84375 167.328125 L 24.328125 167.328125 C 24.890625 167.328125 25.335938 167.261719 25.671875 167.125 C 26.003906 166.992188 26.273438 166.761719 26.484375 166.4375 C 26.753906 166.042969 26.890625 165.53125 26.890625 164.90625 C 26.890625 164.261719 26.757812 163.761719 26.5 163.40625 C 26.34375 163.1875 26.132812 163.03125 25.875 162.9375 C 25.625 162.84375 25.257812 162.796875 24.78125 162.796875 L 23.84375 162.796875 Z M 34.015625 172.15625 C 32.992188 172.15625 32.179688 171.828125 31.578125 171.171875 C 30.984375 170.507812 30.6875 169.605469 30.6875 168.46875 C 30.6875 167.324219 30.988281 166.421875 31.59375 165.765625 C 32.195312 165.109375 33.019531 164.78125 34.0625 164.78125 C 35.101562 164.78125 35.925781 165.109375 36.53125 165.765625 C 37.132812 166.421875 37.4375 167.320312 37.4375 168.453125 C 37.4375 169.609375 37.132812 170.515625 36.53125 171.171875 C 35.925781 171.828125 35.085938 172.15625 34.015625 172.15625 Z M 34.03125 171.765625 C 34.625 171.765625 35.113281 171.453125 35.5 170.828125 C 35.882812 170.203125 36.078125 169.414062 36.078125 168.453125 C 36.078125 167.515625 35.882812 166.734375 35.5 166.109375 C 35.113281 165.484375 34.632812 165.171875 34.0625 165.171875 C 33.488281 165.171875 33.007812 165.484375 32.625 166.109375 C 32.25 166.734375 32.0625 167.523438 32.0625 168.46875 C 32.0625 169.40625 32.25 170.195312 32.625 170.828125 C 33 171.453125 33.46875 171.765625 34.03125 171.765625 Z M 42.765625 171.96875 C 42.441406 172.09375 42.132812 172.15625 41.84375 172.15625 C 41.175781 172.15625 40.648438 171.984375 40.265625 171.640625 C 40.035156 171.445312 39.878906 171.214844 39.796875 170.953125 C 39.710938 170.695312 39.671875 170.308594 39.671875 169.796875 L 39.671875 165.453125 L 38.640625 165.453125 L 38.640625 164.9375 L 39.671875 164.9375 L 39.671875 163.65625 L 40.96875 163.328125 L 40.96875 164.9375 L 42.9375 164.9375 L 42.9375 165.453125 L 40.96875 165.453125 L 40.96875 169.96875 C 40.96875 170.585938 41.023438 170.992188 41.140625 171.1875 C 41.316406 171.492188 41.613281 171.640625 42.03125 171.640625 C 42.226562 171.640625 42.472656 171.574219 42.765625 171.4375 Z M 44.265625 168.46875 L 44.265625 167.671875 L 50.03125 167.671875 L 50.03125 168.46875 Z M 59.507812 171.484375 C 58.640625 171.984375 57.625 172.234375 56.460938 172.234375 C 54.980469 172.234375 53.8125 171.78125 52.960938 170.875 C 52.117188 169.96875 51.695312 168.734375 51.695312 167.171875 C 51.695312 165.390625 52.203125 164.042969 53.226562 163.125 C 53.984375 162.460938 55.03125 162.125 56.367188 162.125 C 57.117188 162.125 58.027344 162.265625 59.101562 162.546875 L 59.351562 162.609375 L 59.351562 164.453125 L 58.539062 164.453125 L 58.539062 164.328125 C 58.527344 164.195312 58.523438 164.0625 58.523438 163.9375 C 58.523438 163.574219 58.429688 163.3125 58.242188 163.15625 C 58.042969 162.992188 57.761719 162.851562 57.398438 162.734375 C 57.03125 162.621094 56.671875 162.5625 56.320312 162.5625 C 55.339844 162.5625 54.558594 162.980469 53.976562 163.8125 C 53.402344 164.648438 53.117188 165.761719 53.117188 167.15625 C 53.117188 168.554688 53.453125 169.640625 54.132812 170.421875 C 54.808594 171.203125 55.757812 171.59375 56.976562 171.59375 C 57.765625 171.59375 58.609375 171.351562 59.507812 170.859375 Z M 65.289062 171.03125 C 64.859375 171.449219 64.480469 171.742188 64.148438 171.90625 C 63.8125 172.070312 63.4375 172.15625 63.023438 172.15625 C 62.417969 172.15625 61.917969 171.96875 61.523438 171.59375 C 61.125 171.21875 60.929688 170.746094 60.929688 170.171875 C 60.929688 169.496094 61.1875 168.949219 61.710938 168.53125 C 62.03125 168.273438 62.417969 168.089844 62.867188 167.984375 C 63.324219 167.882812 63.945312 167.828125 64.726562 167.828125 L 64.992188 167.828125 L 64.992188 166.9375 C 64.992188 165.824219 64.570312 165.265625 63.726562 165.265625 C 63.328125 165.265625 62.980469 165.390625 62.679688 165.640625 C 62.5 165.789062 62.386719 166.089844 62.335938 166.546875 L 62.335938 166.65625 L 61.460938 166.65625 L 61.460938 165.375 C 62.355469 164.980469 63.1875 164.78125 63.960938 164.78125 C 64.625 164.78125 65.171875 164.9375 65.601562 165.25 C 65.859375 165.449219 66.039062 165.664062 66.132812 165.890625 C 66.226562 166.121094 66.273438 166.453125 66.273438 166.890625 L 66.273438 170.046875 C 66.273438 170.609375 66.320312 171.007812 66.414062 171.234375 C 66.515625 171.464844 66.6875 171.578125 66.929688 171.578125 C 67.011719 171.578125 67.125 171.558594 67.273438 171.515625 L 67.320312 172 C 67.007812 172.101562 66.726562 172.15625 66.476562 172.15625 C 65.851562 172.15625 65.453125 171.78125 65.289062 171.03125 Z M 64.992188 170.890625 L 64.992188 168.21875 L 64.695312 168.21875 C 63.933594 168.21875 63.339844 168.375 62.914062 168.6875 C 62.496094 169 62.289062 169.433594 62.289062 169.984375 C 62.289062 170.390625 62.417969 170.730469 62.679688 171 C 62.9375 171.273438 63.265625 171.40625 63.664062 171.40625 C 64.039062 171.40625 64.480469 171.234375 64.992188 170.890625 Z M 73.621094 171.765625 C 72.941406 172.023438 72.28125 172.15625 71.636719 172.15625 C 70.605469 172.15625 69.765625 171.8125 69.121094 171.125 C 68.472656 170.4375 68.152344 169.542969 68.152344 168.4375 C 68.152344 167.335938 68.457031 166.449219 69.074219 165.78125 C 69.699219 165.117188 70.515625 164.78125 71.527344 164.78125 C 72.066406 164.78125 72.765625 164.886719 73.621094 165.09375 L 73.621094 166.78125 L 72.808594 166.78125 L 72.808594 166.65625 C 72.808594 166.148438 72.730469 165.796875 72.574219 165.609375 C 72.332031 165.339844 71.988281 165.203125 71.542969 165.203125 C 70.90625 165.203125 70.40625 165.484375 70.042969 166.046875 C 69.675781 166.609375 69.496094 167.375 69.496094 168.34375 C 69.496094 169.324219 69.707031 170.101562 70.136719 170.671875 C 70.574219 171.246094 71.167969 171.53125 71.917969 171.53125 C 72.5625 171.53125 73.128906 171.421875 73.621094 171.203125 Z M 77.027344 166.265625 C 77.328125 165.796875 77.703125 165.433594 78.152344 165.171875 C 78.609375 164.914062 79.082031 164.78125 79.574219 164.78125 C 80.175781 164.78125 80.652344 164.980469 80.996094 165.375 C 81.339844 165.773438 81.511719 166.320312 81.511719 167.015625 L 81.511719 170.3125 L 81.558594 170.953125 C 81.566406 171.203125 81.609375 171.367188 81.683594 171.4375 C 81.753906 171.5 81.917969 171.542969 82.167969 171.5625 L 82.605469 171.59375 L 82.714844 171.59375 L 82.714844 172 L 79.027344 172 L 79.027344 171.59375 L 79.152344 171.59375 L 79.589844 171.5625 C 79.839844 171.542969 79.996094 171.5 80.058594 171.4375 C 80.128906 171.367188 80.175781 171.203125 80.199219 170.953125 L 80.230469 170.3125 L 80.230469 167.21875 C 80.230469 166.617188 80.152344 166.199219 79.996094 165.96875 C 79.839844 165.730469 79.558594 165.609375 79.152344 165.609375 C 78.566406 165.609375 77.859375 165.96875 77.027344 166.6875 L 77.027344 170.3125 C 77.027344 170.667969 77.050781 170.980469 77.105469 171.25 C 77.136719 171.367188 77.183594 171.445312 77.246094 171.484375 C 77.316406 171.515625 77.457031 171.542969 77.667969 171.5625 L 78.105469 171.59375 L 78.230469 171.59375 L 78.230469 172 L 74.527344 172 L 74.527344 171.59375 L 74.652344 171.59375 L 75.089844 171.5625 C 75.339844 171.542969 75.496094 171.5 75.558594 171.4375 C 75.628906 171.367188 75.675781 171.203125 75.699219 170.953125 L 75.730469 170.3125 L 75.730469 163.40625 L 75.699219 162.765625 C 75.675781 162.515625 75.628906 162.359375 75.558594 162.296875 C 75.496094 162.226562 75.339844 162.183594 75.089844 162.171875 L 74.652344 162.140625 L 74.527344 162.125 L 74.527344 161.71875 L 77.027344 161.71875 Z M 89.09375 171.6875 C 88.28125 172 87.535156 172.15625 86.859375 172.15625 C 85.828125 172.15625 84.984375 171.808594 84.328125 171.109375 C 83.679688 170.414062 83.359375 169.507812 83.359375 168.390625 C 83.359375 167.328125 83.648438 166.464844 84.234375 165.796875 C 84.816406 165.121094 85.5625 164.78125 86.46875 164.78125 C 87.320312 164.78125 87.972656 165.070312 88.421875 165.640625 C 88.867188 166.203125 89.09375 167.011719 89.09375 168.0625 L 89.09375 168.1875 L 84.78125 168.1875 C 84.78125 169.15625 84.914062 169.886719 85.1875 170.375 C 85.601562 171.136719 86.226562 171.515625 87.0625 171.515625 C 87.851562 171.515625 88.53125 171.355469 89.09375 171.03125 Z M 84.8125 167.78125 L 87.734375 167.78125 L 87.75 167.5 C 87.75 166.980469 87.722656 166.601562 87.671875 166.359375 C 87.628906 166.121094 87.539062 165.90625 87.40625 165.71875 C 87.15625 165.355469 86.816406 165.171875 86.390625 165.171875 C 85.898438 165.171875 85.515625 165.414062 85.234375 165.890625 C 84.953125 166.359375 84.8125 166.992188 84.8125 167.78125 Z M 95.59375 172 L 95.59375 170.671875 C 94.96875 171.664062 94.144531 172.15625 93.125 172.15625 C 92.320312 172.15625 91.679688 171.84375 91.203125 171.21875 C 90.734375 170.585938 90.5 169.734375 90.5 168.671875 C 90.5 167.496094 90.769531 166.554688 91.3125 165.84375 C 91.851562 165.136719 92.578125 164.78125 93.484375 164.78125 C 94.304688 164.78125 95.007812 165.101562 95.59375 165.734375 L 95.59375 163.40625 C 95.59375 163.054688 95.566406 162.742188 95.515625 162.46875 C 95.484375 162.355469 95.429688 162.28125 95.359375 162.25 C 95.296875 162.210938 95.164062 162.183594 94.96875 162.171875 L 94.515625 162.140625 L 94.390625 162.125 L 94.390625 161.71875 L 96.890625 161.71875 L 96.890625 170.3125 C 96.890625 170.667969 96.914062 170.980469 96.96875 171.25 C 97 171.367188 97.046875 171.445312 97.109375 171.484375 C 97.179688 171.515625 97.320312 171.542969 97.53125 171.5625 L 97.96875 171.59375 L 98.09375 171.59375 L 98.09375 172 Z M 95.59375 166.234375 C 94.925781 165.734375 94.273438 165.484375 93.640625 165.484375 C 93.066406 165.484375 92.625 165.730469 92.3125 166.21875 C 92.007812 166.710938 91.859375 167.414062 91.859375 168.328125 C 91.859375 169.328125 92.003906 170.078125 92.296875 170.578125 C 92.585938 171.078125 93.019531 171.328125 93.59375 171.328125 C 93.945312 171.328125 94.316406 171.226562 94.703125 171.015625 C 95.085938 170.808594 95.382812 170.542969 95.59375 170.21875 Z M 95.59375 166.234375 "/>
<path style=" stroke:none;fill-rule:evenodd;fill:rgb(0%,0%,0%);fill-opacity:1;" d="M 175.84375 150.984375 L 175.84375 153.3125 L 175.875 153.953125 C 175.894531 154.203125 175.9375 154.367188 176 154.4375 C 176.070312 154.5 176.234375 154.542969 176.484375 154.5625 L 176.921875 154.59375 L 177.203125 154.59375 L 177.203125 155 L 173.28125 155 L 173.28125 154.59375 L 173.40625 154.59375 L 173.84375 154.5625 C 174.09375 154.542969 174.25 154.5 174.3125 154.4375 C 174.382812 154.367188 174.425781 154.203125 174.4375 153.953125 L 174.484375 153.3125 L 174.484375 147.046875 L 174.4375 146.40625 C 174.425781 146.15625 174.382812 146 174.3125 145.9375 C 174.25 145.867188 174.09375 145.820312 173.84375 145.796875 L 173.40625 145.78125 L 173.28125 145.765625 L 173.28125 145.375 L 176.140625 145.375 L 177.09375 145.328125 L 177.546875 145.328125 C 178.441406 145.328125 179.132812 145.554688 179.625 146 C 180.113281 146.4375 180.359375 147.0625 180.359375 147.875 C 180.359375 149.949219 178.988281 150.984375 176.25 150.984375 Z M 175.84375 150.546875 L 176.328125 150.546875 C 177.160156 150.546875 177.796875 150.324219 178.234375 149.875 C 178.679688 149.417969 178.90625 148.757812 178.90625 147.890625 C 178.90625 147.140625 178.738281 146.605469 178.40625 146.28125 C 178.082031 145.960938 177.539062 145.796875 176.78125 145.796875 L 175.84375 145.796875 Z M 184.601562 155.15625 C 183.578125 155.15625 182.765625 154.828125 182.164062 154.171875 C 181.570312 153.507812 181.273438 152.605469 181.273438 151.46875 C 181.273438 150.324219 181.574219 149.421875 182.179688 148.765625 C 182.78125 148.109375 183.605469 147.78125 184.648438 147.78125 C 185.6875 147.78125 186.511719 148.109375 187.117188 148.765625 C 187.71875 149.421875 188.023438 150.320312 188.023438 151.453125 C 188.023438 152.609375 187.71875 153.515625 187.117188 154.171875 C 186.511719 154.828125 185.671875 155.15625 184.601562 155.15625 Z M 184.617188 154.765625 C 185.210938 154.765625 185.699219 154.453125 186.085938 153.828125 C 186.46875 153.203125 186.664062 152.414062 186.664062 151.453125 C 186.664062 150.515625 186.46875 149.734375 186.085938 149.109375 C 185.699219 148.484375 185.21875 148.171875 184.648438 148.171875 C 184.074219 148.171875 183.59375 148.484375 183.210938 149.109375 C 182.835938 149.734375 182.648438 150.523438 182.648438 151.46875 C 182.648438 152.40625 182.835938 153.195312 183.210938 153.828125 C 183.585938 154.453125 184.054688 154.765625 184.617188 154.765625 Z M 191.398438 144.71875 L 191.398438 153.3125 C 191.398438 153.667969 191.421875 153.980469 191.476562 154.25 C 191.507812 154.367188 191.554688 154.445312 191.617188 154.484375 C 191.6875 154.515625 191.828125 154.542969 192.039062 154.5625 L 192.476562 154.59375 L 192.601562 154.59375 L 192.601562 155 L 188.898438 155 L 188.898438 154.59375 L 189.023438 154.59375 L 189.460938 154.5625 C 189.710938 154.542969 189.867188 154.5 189.929688 154.4375 C 190 154.367188 190.046875 154.203125 190.070312 153.953125 L 190.101562 153.3125 L 190.101562 146.40625 L 190.070312 145.765625 C 190.046875 145.515625 190 145.359375 189.929688 145.296875 C 189.867188 145.226562 189.710938 145.183594 189.460938 145.171875 L 189.023438 145.140625 L 188.898438 145.125 L 188.898438 144.71875 Z M 193.921875 157.578125 L 196.234375 155 L 194.015625 149.640625 C 193.773438 149.070312 193.597656 148.714844 193.484375 148.578125 C 193.378906 148.433594 193.207031 148.355469 192.96875 148.34375 L 192.84375 148.328125 L 192.84375 147.9375 L 196.078125 147.9375 L 196.078125 148.328125 L 195.9375 148.328125 L 195.515625 148.34375 C 195.203125 148.34375 195.046875 148.417969 195.046875 148.5625 C 195.046875 148.617188 195.066406 148.683594 195.109375 148.765625 C 195.117188 148.820312 195.171875 148.964844 195.265625 149.203125 C 195.304688 149.351562 195.359375 149.496094 195.421875 149.640625 L 197 153.4375 L 198.6875 149.625 L 199.03125 148.765625 C 199.050781 148.714844 199.0625 148.65625 199.0625 148.59375 C 199.0625 148.429688 198.898438 148.34375 198.578125 148.34375 L 198.265625 148.328125 L 198.09375 148.328125 L 198.09375 147.9375 L 200.1875 147.9375 L 200.1875 148.328125 L 200.0625 148.34375 C 199.90625 148.355469 199.78125 148.414062 199.6875 148.515625 C 199.59375 148.621094 199.488281 148.808594 199.375 149.078125 C 199.34375 149.164062 199.257812 149.351562 199.125 149.640625 L 195.546875 157.578125 Z M 202.035156 154.734375 C 201.542969 154.507812 201.300781 154.195312 201.300781 153.796875 C 201.300781 153.558594 201.386719 153.34375 201.566406 153.15625 C 201.753906 152.960938 202.074219 152.746094 202.535156 152.515625 C 202.074219 152.320312 201.722656 152.023438 201.472656 151.625 C 201.222656 151.230469 201.097656 150.777344 201.097656 150.265625 C 201.097656 149.507812 201.335938 148.902344 201.816406 148.453125 C 202.304688 148.007812 202.957031 147.78125 203.769531 147.78125 C 204.257812 147.78125 204.699219 147.871094 205.097656 148.046875 L 207.582031 147.859375 L 207.253906 148.640625 L 205.566406 148.359375 C 206.117188 148.890625 206.394531 149.523438 206.394531 150.25 C 206.394531 150.980469 206.148438 151.578125 205.660156 152.046875 C 205.167969 152.515625 204.550781 152.75 203.800781 152.75 C 203.507812 152.75 203.199219 152.710938 202.878906 152.625 C 202.574219 152.855469 202.425781 153.117188 202.425781 153.40625 C 202.425781 153.71875 202.695312 153.875 203.238281 153.875 L 204.363281 153.875 C 205.476562 153.875 206.214844 153.992188 206.582031 154.21875 C 206.996094 154.480469 207.207031 154.902344 207.207031 155.484375 C 207.207031 156.160156 206.898438 156.703125 206.285156 157.109375 C 205.667969 157.523438 204.855469 157.734375 203.847656 157.734375 C 202.867188 157.734375 202.082031 157.59375 201.488281 157.3125 C 200.902344 157.039062 200.613281 156.675781 200.613281 156.21875 C 200.613281 155.632812 201.085938 155.140625 202.035156 154.734375 Z M 202.378906 150.1875 C 202.378906 151.625 202.835938 152.34375 203.753906 152.34375 C 204.191406 152.34375 204.523438 152.167969 204.753906 151.8125 C 204.992188 151.449219 205.113281 150.921875 205.113281 150.234375 C 205.113281 149.570312 204.992188 149.058594 204.753906 148.703125 C 204.523438 148.351562 204.191406 148.171875 203.753906 148.171875 C 203.316406 148.171875 202.976562 148.351562 202.738281 148.703125 C 202.496094 149.046875 202.378906 149.542969 202.378906 150.1875 Z M 202.378906 154.84375 C 202.054688 155.15625 201.894531 155.539062 201.894531 156 C 201.894531 156.414062 202.070312 156.742188 202.425781 156.984375 C 202.777344 157.222656 203.261719 157.34375 203.878906 157.34375 C 204.511719 157.34375 205.019531 157.203125 205.394531 156.921875 C 205.769531 156.648438 205.957031 156.273438 205.957031 155.796875 C 205.957031 155.441406 205.855469 155.191406 205.660156 155.046875 C 205.460938 154.914062 205.105469 154.84375 204.597656 154.84375 Z M 211.765625 155.15625 C 210.742188 155.15625 209.929688 154.828125 209.328125 154.171875 C 208.734375 153.507812 208.4375 152.605469 208.4375 151.46875 C 208.4375 150.324219 208.738281 149.421875 209.34375 148.765625 C 209.945312 148.109375 210.769531 147.78125 211.8125 147.78125 C 212.851562 147.78125 213.675781 148.109375 214.28125 148.765625 C 214.882812 149.421875 215.1875 150.320312 215.1875 151.453125 C 215.1875 152.609375 214.882812 153.515625 214.28125 154.171875 C 213.675781 154.828125 212.835938 155.15625 211.765625 155.15625 Z M 211.78125 154.765625 C 212.375 154.765625 212.863281 154.453125 213.25 153.828125 C 213.632812 153.203125 213.828125 152.414062 213.828125 151.453125 C 213.828125 150.515625 213.632812 149.734375 213.25 149.109375 C 212.863281 148.484375 212.382812 148.171875 211.8125 148.171875 C 211.238281 148.171875 210.757812 148.484375 210.375 149.109375 C 210 149.734375 209.8125 150.523438 209.8125 151.46875 C 209.8125 152.40625 210 153.195312 210.375 153.828125 C 210.75 154.453125 211.21875 154.765625 211.78125 154.765625 Z M 218.5625 149.265625 C 218.863281 148.796875 219.238281 148.433594 219.6875 148.171875 C 220.144531 147.914062 220.617188 147.78125 221.109375 147.78125 C 221.710938 147.78125 222.1875 147.980469 222.53125 148.375 C 222.875 148.773438 223.046875 149.320312 223.046875 150.015625 L 223.046875 153.3125 L 223.09375 153.953125 C 223.101562 154.203125 223.144531 154.367188 223.21875 154.4375 C 223.289062 154.5 223.453125 154.542969 223.703125 154.5625 L 224.140625 154.59375 L 224.25 154.59375 L 224.25 155 L 220.5625 155 L 220.5625 154.59375 L 220.6875 154.59375 L 221.125 154.5625 C 221.375 154.542969 221.53125 154.5 221.59375 154.4375 C 221.664062 154.367188 221.710938 154.203125 221.734375 153.953125 L 221.765625 153.3125 L 221.765625 150.21875 C 221.765625 149.617188 221.6875 149.199219 221.53125 148.96875 C 221.375 148.730469 221.09375 148.609375 220.6875 148.609375 C 220.101562 148.609375 219.394531 148.96875 218.5625 149.6875 L 218.5625 153.3125 C 218.5625 153.667969 218.585938 153.980469 218.640625 154.25 C 218.671875 154.367188 218.71875 154.445312 218.78125 154.484375 C 218.851562 154.515625 218.992188 154.542969 219.203125 154.5625 L 219.640625 154.59375 L 219.765625 154.59375 L 219.765625 155 L 216.0625 155 L 216.0625 154.59375 L 216.1875 154.59375 L 216.625 154.5625 C 216.875 154.542969 217.03125 154.5 217.09375 154.4375 C 217.164062 154.367188 217.210938 154.203125 217.234375 153.953125 L 217.265625 153.3125 L 217.265625 149.625 L 217.234375 148.984375 C 217.210938 148.734375 217.164062 148.578125 217.09375 148.515625 C 217.03125 148.445312 216.875 148.398438 216.625 148.375 L 216.1875 148.34375 L 216.0625 148.328125 L 216.0625 147.9375 L 218.5625 147.9375 Z M 218.5625 149.265625 "/>
</g>
</svg>
