<?xml version="1.0" encoding="UTF-8"?>
<svg xmlns="http://www.w3.org/2000/svg" xmlns:xlink="http://www.w3.org/1999/xlink" width="200pt" height="200pt" viewBox="0 0 200 200" version="1.1">
<g id="surface2">
<rect x="0" y="0" width="200" height="200" style="fill:rgb(100%,100%,100%);fill-opacity:1;stroke:none;"/>
<path style="fill:none;stroke-width:0.5;stroke-linecap:round;stroke-linejoin:round;stroke:rgb(0%,100%,0%);stroke-opacity:1;stroke-miterlimit:10;" d="M 31.804688 83.082031 L 45.804688 83.082031 M 38.804688 76.082031 L 38.804688 90.082031 "/>
<path style="fill:none;stroke-width:1;stroke-linecap:round;stroke-linejoin:round;stroke:rgb(100%,100%,0%);stroke-opacity:1;stroke-miterlimit:10;" d="M 43.804688 83.082031 C 43.804688 89.75 33.804688 89.75 33.804688 83.082031 C 33.804688 76.414062 43.804688 76.414062 43.804688 83.082031 "/>
<path style="fill:none;stroke-width:1;stroke-linecap:round;stroke-linejoin:round;stroke:rgb(100%,0%,0%);stroke-opacity:1;stroke-miterlimit:10;" d="M 23.804688 99.582031 L 23.804688 66.582031 L 53.804688 66.582031 L 53.804688 99.582031 L 23.804688 99.582031 "/>
<path style="fill:none;stroke-width:1;stroke-linecap:round;stroke-linejoin:round;stroke:rgb(0%,0%,100%);stroke-opacity:1;stroke-miterlimit:10;" d="M 43.804688 83.082031 C 43.804688 89.75 33.804688 89.75 33.804688 83.082031 C 33.804688 76.414062 43.804688 76.414062 43.804688 83.082031 "/>
<path style=" stroke:none;fill-rule:nonzero;fill:rgb(0%,0%,0%);fill-opacity:1;" d="M 26.625 75.84375 L 26.625 74.359375 L 27.171875 74.359375 L 27.171875 74.453125 C 27.179688 74.632812 27.1875 74.761719 27.1875 74.84375 C 27.1875 75.011719 27.207031 75.136719 27.25 75.21875 C 27.289062 75.292969 27.382812 75.375 27.53125 75.46875 C 27.894531 75.699219 28.300781 75.8125 28.75 75.8125 C 29.207031 75.8125 29.566406 75.683594 29.828125 75.421875 C 30.085938 75.152344 30.21875 74.789062 30.21875 74.328125 C 30.21875 73.945312 30.132812 73.636719 29.96875 73.40625 C 29.800781 73.179688 29.476562 72.929688 29 72.65625 L 28.453125 72.34375 C 27.804688 71.980469 27.347656 71.632812 27.078125 71.296875 C 26.804688 70.964844 26.671875 70.585938 26.671875 70.15625 C 26.671875 69.5625 26.882812 69.074219 27.3125 68.6875 C 27.738281 68.292969 28.273438 68.09375 28.921875 68.09375 C 29.472656 68.09375 30.117188 68.203125 30.859375 68.421875 L 30.859375 69.796875 L 30.28125 69.796875 L 30.28125 69.703125 C 30.269531 69.515625 30.265625 69.382812 30.265625 69.296875 C 30.265625 68.984375 30.171875 68.777344 29.984375 68.671875 C 29.722656 68.515625 29.382812 68.4375 28.96875 68.4375 C 28.59375 68.4375 28.289062 68.5625 28.0625 68.8125 C 27.832031 69.054688 27.71875 69.375 27.71875 69.78125 C 27.71875 70.117188 27.796875 70.398438 27.953125 70.625 C 28.117188 70.84375 28.410156 71.074219 28.828125 71.3125 L 29.375 71.625 C 30.125 72.054688 30.628906 72.429688 30.890625 72.75 C 31.160156 73.074219 31.296875 73.476562 31.296875 73.953125 C 31.296875 74.601562 31.054688 75.136719 30.578125 75.5625 C 30.109375 75.980469 29.515625 76.1875 28.796875 76.1875 C 28.441406 76.1875 28.050781 76.148438 27.625 76.078125 C 27.207031 76.015625 26.875 75.9375 26.625 75.84375 Z M 34.957031 76.125 C 34.144531 76.125 33.496094 75.859375 33.019531 75.328125 C 32.539062 74.796875 32.300781 74.078125 32.300781 73.171875 C 32.300781 72.257812 32.539062 71.539062 33.019531 71.015625 C 33.507812 70.484375 34.167969 70.21875 35.003906 70.21875 C 35.835938 70.21875 36.492188 70.484375 36.972656 71.015625 C 37.460938 71.539062 37.707031 72.25 37.707031 73.15625 C 37.707031 74.085938 37.460938 74.8125 36.972656 75.34375 C 36.480469 75.867188 35.808594 76.125 34.957031 76.125 Z M 34.972656 75.8125 C 35.449219 75.8125 35.839844 75.5625 36.144531 75.0625 C 36.457031 74.5625 36.613281 73.929688 36.613281 73.15625 C 36.613281 72.417969 36.457031 71.796875 36.144531 71.296875 C 35.839844 70.789062 35.460938 70.53125 35.003906 70.53125 C 34.542969 70.53125 34.160156 70.789062 33.847656 71.296875 C 33.542969 71.796875 33.394531 72.421875 33.394531 73.171875 C 33.394531 73.921875 33.542969 74.554688 33.847656 75.0625 C 34.148438 75.5625 34.523438 75.8125 34.972656 75.8125 Z M 40.402344 71.40625 C 40.996094 70.617188 41.644531 70.21875 42.355469 70.21875 C 42.75 70.21875 43.074219 70.324219 43.324219 70.53125 C 43.574219 70.730469 43.734375 71.023438 43.808594 71.40625 C 44.171875 70.96875 44.503906 70.664062 44.808594 70.484375 C 45.109375 70.308594 45.449219 70.21875 45.824219 70.21875 C 46.292969 70.21875 46.660156 70.371094 46.933594 70.671875 C 47.203125 70.964844 47.339844 71.371094 47.339844 71.890625 L 47.339844 74.65625 C 47.339844 74.9375 47.363281 75.1875 47.417969 75.40625 C 47.4375 75.492188 47.472656 75.546875 47.527344 75.578125 C 47.578125 75.609375 47.6875 75.632812 47.855469 75.640625 L 48.214844 75.671875 L 48.308594 75.671875 L 48.308594 76 L 45.355469 76 L 45.355469 75.671875 L 45.449219 75.671875 L 45.808594 75.640625 C 45.964844 75.632812 46.066406 75.609375 46.121094 75.578125 C 46.183594 75.546875 46.222656 75.492188 46.246094 75.40625 C 46.285156 75.1875 46.308594 74.9375 46.308594 74.65625 L 46.308594 72.078125 C 46.308594 71.632812 46.25 71.324219 46.136719 71.15625 C 46.019531 70.980469 45.816406 70.890625 45.527344 70.890625 C 45.015625 70.890625 44.464844 71.183594 43.871094 71.765625 L 43.871094 74.65625 L 43.902344 75.171875 C 43.910156 75.371094 43.941406 75.496094 43.996094 75.546875 C 44.058594 75.601562 44.1875 75.632812 44.386719 75.640625 L 44.746094 75.671875 L 44.839844 75.671875 L 44.839844 76 L 41.871094 76 L 41.871094 75.671875 L 41.980469 75.671875 L 42.324219 75.640625 C 42.488281 75.632812 42.597656 75.609375 42.652344 75.578125 C 42.714844 75.546875 42.753906 75.492188 42.777344 75.40625 C 42.816406 75.1875 42.839844 74.9375 42.839844 74.65625 L 42.839844 72.078125 C 42.839844 71.632812 42.78125 71.324219 42.667969 71.15625 C 42.550781 70.980469 42.347656 70.890625 42.058594 70.890625 C 41.515625 70.890625 40.964844 71.183594 40.402344 71.765625 L 40.402344 74.65625 C 40.402344 74.9375 40.421875 75.1875 40.464844 75.40625 C 40.484375 75.492188 40.519531 75.546875 40.574219 75.578125 C 40.636719 75.609375 40.75 75.632812 40.917969 75.640625 L 41.261719 75.671875 L 41.371094 75.671875 L 41.371094 76 L 38.402344 76 L 38.402344 75.671875 L 38.511719 75.671875 L 38.855469 75.640625 C 39.050781 75.632812 39.175781 75.601562 39.230469 75.546875 C 39.292969 75.496094 39.328125 75.371094 39.339844 75.171875 L 39.371094 74.65625 L 39.371094 71.6875 L 39.339844 71.1875 C 39.328125 70.992188 39.292969 70.867188 39.230469 70.8125 C 39.175781 70.75 39.050781 70.714844 38.855469 70.703125 L 38.511719 70.671875 L 38.402344 70.65625 L 38.402344 70.34375 L 40.402344 70.34375 Z M 53.417969 75.75 C 52.761719 76 52.160156 76.125 51.621094 76.125 C 50.796875 76.125 50.125 75.851562 49.605469 75.296875 C 49.082031 74.734375 48.824219 74.007812 48.824219 73.109375 C 48.824219 72.265625 49.050781 71.574219 49.511719 71.03125 C 49.980469 70.492188 50.578125 70.21875 51.308594 70.21875 C 51.984375 70.21875 52.503906 70.449219 52.871094 70.90625 C 53.234375 71.355469 53.417969 72 53.417969 72.84375 L 53.417969 72.953125 L 49.964844 72.953125 C 49.964844 73.726562 50.066406 74.308594 50.277344 74.703125 C 50.609375 75.308594 51.113281 75.609375 51.792969 75.609375 C 52.425781 75.609375 52.96875 75.480469 53.417969 75.21875 Z M 49.980469 72.625 L 52.324219 72.625 L 52.324219 72.390625 C 52.324219 71.984375 52.300781 71.6875 52.261719 71.5 C 52.230469 71.304688 52.160156 71.125 52.058594 70.96875 C 51.859375 70.679688 51.589844 70.53125 51.246094 70.53125 C 50.859375 70.53125 50.550781 70.726562 50.324219 71.109375 C 50.09375 71.484375 49.980469 71.992188 49.980469 72.625 Z M 28.1875 78.765625 L 28.1875 85.65625 C 28.1875 85.9375 28.207031 86.1875 28.25 86.40625 C 28.269531 86.492188 28.304688 86.546875 28.359375 86.578125 C 28.421875 86.609375 28.535156 86.632812 28.703125 86.640625 L 29.046875 86.671875 L 29.15625 86.671875 L 29.15625 87 L 26.1875 87 L 26.1875 86.671875 L 26.296875 86.671875 L 26.640625 86.640625 C 26.835938 86.632812 26.960938 86.601562 27.015625 86.546875 C 27.078125 86.496094 27.113281 86.371094 27.125 86.171875 L 27.15625 85.65625 L 27.15625 80.125 L 27.125 79.609375 C 27.113281 79.414062 27.078125 79.289062 27.015625 79.234375 C 26.960938 79.171875 26.835938 79.136719 26.640625 79.125 L 26.296875 79.09375 L 26.1875 79.09375 L 26.1875 78.765625 Z M 33.359375 86.21875 C 33.015625 86.5625 32.707031 86.804688 32.4375 86.9375 C 32.175781 87.0625 31.878906 87.125 31.546875 87.125 C 31.066406 87.125 30.664062 86.976562 30.34375 86.671875 C 30.019531 86.371094 29.859375 85.992188 29.859375 85.53125 C 29.859375 85 30.066406 84.570312 30.484375 84.234375 C 30.753906 84.015625 31.066406 83.867188 31.421875 83.78125 C 31.785156 83.699219 32.28125 83.65625 32.90625 83.65625 L 33.125 83.65625 L 33.125 82.953125 C 33.125 82.058594 32.785156 81.609375 32.109375 81.609375 C 31.785156 81.609375 31.503906 81.710938 31.265625 81.90625 C 31.117188 82.023438 31.03125 82.261719 31 82.625 L 30.984375 82.734375 L 30.296875 82.734375 L 30.296875 81.6875 C 31.015625 81.375 31.679688 81.21875 32.296875 81.21875 C 32.828125 81.21875 33.265625 81.34375 33.609375 81.59375 C 33.816406 81.75 33.957031 81.921875 34.03125 82.109375 C 34.101562 82.296875 34.140625 82.5625 34.140625 82.90625 L 34.140625 85.4375 C 34.140625 85.886719 34.175781 86.203125 34.25 86.390625 C 34.332031 86.570312 34.472656 86.65625 34.671875 86.65625 C 34.742188 86.65625 34.835938 86.640625 34.953125 86.609375 L 34.984375 87 C 34.734375 87.082031 34.507812 87.125 34.3125 87.125 C 33.8125 87.125 33.492188 86.824219 33.359375 86.21875 Z M 33.125 86.109375 L 33.125 83.984375 L 32.875 83.984375 C 32.269531 83.984375 31.796875 84.109375 31.453125 84.359375 C 31.117188 84.601562 30.953125 84.945312 30.953125 85.390625 C 30.953125 85.714844 31.054688 85.984375 31.265625 86.203125 C 31.472656 86.414062 31.738281 86.515625 32.0625 86.515625 C 32.363281 86.515625 32.71875 86.382812 33.125 86.109375 Z M 35.96875 87.0625 L 35.96875 80.125 L 35.9375 79.609375 C 35.925781 79.414062 35.894531 79.289062 35.84375 79.234375 C 35.789062 79.171875 35.660156 79.136719 35.453125 79.125 L 35.109375 79.09375 L 35.015625 79.09375 L 35.015625 78.765625 L 37 78.765625 L 37 82.40625 C 37.507812 81.617188 38.171875 81.21875 38.984375 81.21875 C 39.628906 81.21875 40.140625 81.476562 40.515625 81.984375 C 40.898438 82.484375 41.09375 83.15625 41.09375 84 C 41.09375 84.949219 40.875 85.710938 40.4375 86.28125 C 40 86.84375 39.421875 87.125 38.703125 87.125 C 38.035156 87.125 37.46875 86.871094 37 86.359375 L 36.9375 86.359375 L 36.8125 87.0625 Z M 37 85.953125 C 37.539062 86.359375 38.0625 86.5625 38.5625 86.5625 C 39.03125 86.5625 39.382812 86.371094 39.625 85.984375 C 39.863281 85.589844 39.984375 85.023438 39.984375 84.28125 C 39.984375 83.480469 39.867188 82.882812 39.640625 82.484375 C 39.410156 82.078125 39.066406 81.875 38.609375 81.875 C 38.328125 81.875 38.039062 81.960938 37.75 82.125 C 37.457031 82.28125 37.207031 82.496094 37 82.765625 Z M 46.773438 86.75 C 46.117188 87 45.515625 87.125 44.976562 87.125 C 44.152344 87.125 43.480469 86.851562 42.960938 86.296875 C 42.4375 85.734375 42.179688 85.007812 42.179688 84.109375 C 42.179688 83.265625 42.40625 82.574219 42.867188 82.03125 C 43.335938 81.492188 43.933594 81.21875 44.664062 81.21875 C 45.339844 81.21875 45.859375 81.449219 46.226562 81.90625 C 46.589844 82.355469 46.773438 83 46.773438 83.84375 L 46.773438 83.953125 L 43.320312 83.953125 C 43.320312 84.726562 43.421875 85.308594 43.632812 85.703125 C 43.964844 86.308594 44.46875 86.609375 45.148438 86.609375 C 45.78125 86.609375 46.324219 86.480469 46.773438 86.21875 Z M 43.335938 83.625 L 45.679688 83.625 L 45.679688 83.390625 C 45.679688 82.984375 45.65625 82.6875 45.617188 82.5 C 45.585938 82.304688 45.515625 82.125 45.414062 81.96875 C 45.214844 81.679688 44.945312 81.53125 44.601562 81.53125 C 44.214844 81.53125 43.90625 81.726562 43.679688 82.109375 C 43.449219 82.484375 43.335938 82.992188 43.335938 83.625 Z M 49.503906 78.765625 L 49.503906 85.65625 C 49.503906 85.9375 49.523438 86.1875 49.566406 86.40625 C 49.585938 86.492188 49.621094 86.546875 49.675781 86.578125 C 49.738281 86.609375 49.851562 86.632812 50.019531 86.640625 L 50.363281 86.671875 L 50.472656 86.671875 L 50.472656 87 L 47.503906 87 L 47.503906 86.671875 L 47.613281 86.671875 L 47.957031 86.640625 C 48.152344 86.632812 48.277344 86.601562 48.332031 86.546875 C 48.394531 86.496094 48.429688 86.371094 48.441406 86.171875 L 48.472656 85.65625 L 48.472656 80.125 L 48.441406 79.609375 C 48.429688 79.414062 48.394531 79.289062 48.332031 79.234375 C 48.277344 79.171875 48.152344 79.136719 47.957031 79.125 L 47.613281 79.09375 L 47.503906 79.09375 L 47.503906 78.765625 Z M 32.996094 97.96875 C 32.734375 98.070312 32.488281 98.125 32.261719 98.125 C 31.730469 98.125 31.308594 97.992188 30.996094 97.71875 C 30.816406 97.554688 30.691406 97.367188 30.621094 97.15625 C 30.558594 96.949219 30.527344 96.640625 30.527344 96.234375 L 30.527344 92.765625 L 29.699219 92.765625 L 29.699219 92.34375 L 30.527344 92.34375 L 30.527344 91.3125 L 31.558594 91.0625 L 31.558594 92.34375 L 33.136719 92.34375 L 33.136719 92.765625 L 31.558594 92.765625 L 31.558594 96.375 C 31.558594 96.867188 31.605469 97.1875 31.699219 97.34375 C 31.832031 97.59375 32.066406 97.71875 32.402344 97.71875 C 32.566406 97.71875 32.765625 97.664062 32.996094 97.546875 Z M 38.535156 97.75 C 37.878906 98 37.277344 98.125 36.738281 98.125 C 35.914062 98.125 35.242188 97.851562 34.722656 97.296875 C 34.199219 96.734375 33.941406 96.007812 33.941406 95.109375 C 33.941406 94.265625 34.167969 93.574219 34.628906 93.03125 C 35.097656 92.492188 35.695312 92.21875 36.425781 92.21875 C 37.101562 92.21875 37.621094 92.449219 37.988281 92.90625 C 38.351562 93.355469 38.535156 94 38.535156 94.84375 L 38.535156 94.953125 L 35.082031 94.953125 C 35.082031 95.726562 35.183594 96.308594 35.394531 96.703125 C 35.726562 97.308594 36.230469 97.609375 36.910156 97.609375 C 37.542969 97.609375 38.085938 97.480469 38.535156 97.21875 Z M 35.097656 94.625 L 37.441406 94.625 L 37.441406 94.390625 C 37.441406 93.984375 37.417969 93.6875 37.378906 93.5 C 37.347656 93.304688 37.277344 93.125 37.175781 92.96875 C 36.976562 92.679688 36.707031 92.53125 36.363281 92.53125 C 35.976562 92.53125 35.667969 92.726562 35.441406 93.109375 C 35.210938 93.484375 35.097656 93.992188 35.097656 94.625 Z M 39.09375 98 L 39.09375 97.671875 L 39.1875 97.671875 C 39.375 97.664062 39.566406 97.542969 39.765625 97.3125 L 40.34375 96.65625 L 41.515625 95.265625 L 40.328125 93.703125 L 39.8125 93.078125 C 39.675781 92.914062 39.570312 92.808594 39.5 92.765625 C 39.425781 92.714844 39.3125 92.683594 39.15625 92.671875 L 39.0625 92.65625 L 39.0625 92.34375 L 41.625 92.34375 L 41.625 92.65625 L 41.53125 92.65625 L 41.3125 92.671875 C 41.070312 92.671875 40.953125 92.726562 40.953125 92.828125 C 40.953125 92.890625 41.148438 93.183594 41.546875 93.703125 L 42.34375 94.796875 L 43.140625 93.734375 C 43.242188 93.589844 43.351562 93.414062 43.46875 93.203125 C 43.582031 92.996094 43.640625 92.867188 43.640625 92.8125 C 43.640625 92.71875 43.546875 92.671875 43.359375 92.671875 L 43.15625 92.65625 L 43.046875 92.65625 L 43.046875 92.34375 L 44.84375 92.34375 L 44.84375 92.65625 L 44.75 92.671875 C 44.601562 92.683594 44.484375 92.714844 44.390625 92.765625 C 44.304688 92.820312 44.210938 92.921875 44.109375 93.078125 C 43.941406 93.308594 43.78125 93.515625 43.625 93.703125 L 42.5625 95.0625 L 43.78125 96.65625 C 44.070312 97.042969 44.300781 97.308594 44.46875 97.453125 C 44.632812 97.589844 44.796875 97.664062 44.953125 97.671875 L 45.046875 97.671875 L 45.046875 98 L 42.46875 98 L 42.46875 97.671875 L 42.796875 97.671875 C 43.046875 97.671875 43.171875 97.632812 43.171875 97.546875 C 43.171875 97.527344 43.15625 97.496094 43.125 97.453125 C 43.09375 97.414062 43.050781 97.351562 43 97.265625 C 42.863281 97.046875 42.726562 96.84375 42.59375 96.65625 L 41.703125 95.515625 L 40.828125 96.65625 L 40.546875 97.03125 L 40.28125 97.40625 C 40.25 97.460938 40.234375 97.496094 40.234375 97.515625 C 40.234375 97.621094 40.359375 97.671875 40.609375 97.671875 L 40.9375 97.671875 L 40.9375 98 Z M 48.773438 97.96875 C 48.511719 98.070312 48.265625 98.125 48.039062 98.125 C 47.507812 98.125 47.085938 97.992188 46.773438 97.71875 C 46.59375 97.554688 46.46875 97.367188 46.398438 97.15625 C 46.335938 96.949219 46.304688 96.640625 46.304688 96.234375 L 46.304688 92.765625 L 45.476562 92.765625 L 45.476562 92.34375 L 46.304688 92.34375 L 46.304688 91.3125 L 47.335938 91.0625 L 47.335938 92.34375 L 48.914062 92.34375 L 48.914062 92.765625 L 47.335938 92.765625 L 47.335938 96.375 C 47.335938 96.867188 47.382812 97.1875 47.476562 97.34375 C 47.609375 97.59375 47.84375 97.71875 48.179688 97.71875 C 48.34375 97.71875 48.542969 97.664062 48.773438 97.546875 Z M 48.773438 97.96875 "/>
<path style="fill:none;stroke-width:1;stroke-linecap:round;stroke-linejoin:round;stroke:rgb(0%,0%,0%);stroke-opacity:1;stroke-miterlimit:10;" d="M 41.800781 115.917969 C 41.800781 118.585938 37.800781 118.585938 37.800781 115.917969 C 37.800781 113.25 41.800781 113.25 41.800781 115.917969 "/>
<path style=" stroke:none;fill-rule:evenodd;fill:rgb(78.431373%,19.607843%,19.607843%);fill-opacity:1;" d="M 48.800781 141.917969 L 48.800781 124.917969 L 188.800781 124.917969 L 188.800781 141.917969 Z M 48.800781 141.917969 "/>
<path style="fill:none;stroke-width:1;stroke-linecap:round;stroke-linejoin:round;stroke:rgb(39.215686%,39.215686%,39.215686%);stroke-opacity:1;stroke-miterlimit:10;" d="M 49.800781 115.917969 C 49.800781 121.441406 45.324219 125.917969 39.800781 125.917969 C 34.277344 125.917969 29.800781 121.441406 29.800781 115.917969 C 29.800781 110.394531 34.277344 105.917969 39.800781 105.917969 C 45.324219 105.917969 49.800781 110.394531 49.800781 115.917969 "/>
<path style=" stroke:none;fill-rule:evenodd;fill:rgb(100%,100%,0%);fill-opacity:1;" d="M 50.078125 139.71875 L 50.078125 137.125 L 51.046875 137.125 L 51.046875 137.296875 C 51.066406 137.601562 51.078125 137.824219 51.078125 137.96875 C 51.078125 138.273438 51.113281 138.492188 51.1875 138.625 C 51.269531 138.761719 51.429688 138.90625 51.671875 139.0625 C 52.316406 139.460938 53.035156 139.65625 53.828125 139.65625 C 54.617188 139.65625 55.242188 139.429688 55.703125 138.96875 C 56.160156 138.511719 56.390625 137.875 56.390625 137.0625 C 56.390625 136.386719 56.242188 135.851562 55.953125 135.453125 C 55.660156 135.046875 55.09375 134.609375 54.25 134.140625 L 53.28125 133.59375 C 52.164062 132.960938 51.367188 132.351562 50.890625 131.765625 C 50.421875 131.183594 50.1875 130.515625 50.1875 129.765625 C 50.1875 128.734375 50.554688 127.882812 51.296875 127.203125 C 52.046875 126.515625 52.984375 126.171875 54.109375 126.171875 C 55.078125 126.171875 56.210938 126.367188 57.515625 126.75 L 57.515625 129.140625 L 56.5 129.140625 L 56.5 128.984375 C 56.46875 128.664062 56.453125 128.421875 56.453125 128.265625 C 56.453125 127.726562 56.296875 127.367188 55.984375 127.1875 C 55.515625 126.917969 54.921875 126.78125 54.203125 126.78125 C 53.546875 126.78125 53.015625 126.996094 52.609375 127.421875 C 52.210938 127.851562 52.015625 128.414062 52.015625 129.109375 C 52.015625 129.703125 52.148438 130.199219 52.421875 130.59375 C 52.703125 130.980469 53.207031 131.382812 53.9375 131.796875 L 54.90625 132.34375 C 56.226562 133.09375 57.117188 133.75 57.578125 134.3125 C 58.035156 134.875 58.265625 135.578125 58.265625 136.421875 C 58.265625 137.546875 57.847656 138.484375 57.015625 139.234375 C 56.191406 139.976562 55.148438 140.34375 53.890625 140.34375 C 53.273438 140.34375 52.597656 140.28125 51.859375 140.15625 C 51.128906 140.039062 50.535156 139.898438 50.078125 139.71875 Z M 64.683594 140.234375 C 63.253906 140.234375 62.121094 139.765625 61.277344 138.828125 C 60.441406 137.890625 60.027344 136.632812 60.027344 135.046875 C 60.027344 133.453125 60.449219 132.195312 61.292969 131.265625 C 62.136719 130.339844 63.285156 129.875 64.746094 129.875 C 66.203125 129.875 67.355469 130.339844 68.199219 131.265625 C 69.042969 132.195312 69.464844 133.449219 69.464844 135.03125 C 69.464844 136.65625 69.035156 137.933594 68.183594 138.859375 C 67.339844 139.777344 66.171875 140.234375 64.683594 140.234375 Z M 64.714844 139.65625 C 65.546875 139.65625 66.230469 139.226562 66.761719 138.359375 C 67.292969 137.496094 67.558594 136.386719 67.558594 135.03125 C 67.558594 133.730469 67.285156 132.640625 66.746094 131.765625 C 66.214844 130.882812 65.546875 130.4375 64.746094 130.4375 C 63.941406 130.4375 63.269531 130.882812 62.730469 131.765625 C 62.199219 132.640625 61.933594 133.734375 61.933594 135.046875 C 61.933594 136.359375 62.199219 137.460938 62.730469 138.34375 C 63.261719 139.21875 63.921875 139.65625 64.714844 139.65625 Z M 74.183594 131.953125 C 75.222656 130.570312 76.371094 129.875 77.621094 129.875 C 78.308594 129.875 78.871094 130.058594 79.308594 130.421875 C 79.746094 130.777344 80.027344 131.289062 80.152344 131.953125 C 80.785156 131.183594 81.363281 130.648438 81.886719 130.34375 C 82.417969 130.03125 83.015625 129.875 83.683594 129.875 C 84.503906 129.875 85.152344 130.136719 85.621094 130.65625 C 86.097656 131.179688 86.339844 131.890625 86.339844 132.796875 L 86.339844 137.640625 C 86.339844 138.140625 86.378906 138.578125 86.464844 138.953125 C 86.496094 139.109375 86.558594 139.21875 86.652344 139.28125 C 86.753906 139.335938 86.953125 139.367188 87.246094 139.375 L 87.855469 139.421875 L 88.027344 139.4375 L 88.027344 140 L 82.855469 140 L 82.855469 139.4375 L 83.027344 139.421875 L 83.652344 139.375 C 83.933594 139.367188 84.121094 139.335938 84.214844 139.28125 C 84.316406 139.21875 84.386719 139.109375 84.417969 138.953125 C 84.5 138.570312 84.542969 138.132812 84.542969 137.640625 L 84.542969 133.125 C 84.542969 132.34375 84.4375 131.804688 84.230469 131.5 C 84.03125 131.199219 83.671875 131.046875 83.152344 131.046875 C 82.265625 131.046875 81.308594 131.558594 80.277344 132.578125 L 80.277344 137.640625 L 80.324219 138.546875 C 80.34375 138.890625 80.402344 139.109375 80.496094 139.203125 C 80.597656 139.296875 80.824219 139.355469 81.167969 139.375 L 81.792969 139.421875 L 81.964844 139.4375 L 81.964844 140 L 76.777344 140 L 76.777344 139.4375 L 76.949219 139.421875 L 77.574219 139.375 C 77.855469 139.367188 78.042969 139.335938 78.136719 139.28125 C 78.238281 139.21875 78.3125 139.109375 78.355469 138.953125 C 78.425781 138.578125 78.464844 138.140625 78.464844 137.640625 L 78.464844 133.125 C 78.464844 132.355469 78.363281 131.820312 78.167969 131.515625 C 77.96875 131.203125 77.613281 131.046875 77.105469 131.046875 C 76.15625 131.046875 75.183594 131.558594 74.183594 132.578125 L 74.183594 137.640625 C 74.183594 138.140625 74.230469 138.578125 74.324219 138.953125 C 74.355469 139.109375 74.417969 139.21875 74.511719 139.28125 C 74.605469 139.335938 74.796875 139.367188 75.089844 139.375 L 75.714844 139.421875 L 75.886719 139.4375 L 75.886719 140 L 70.714844 140 L 70.714844 139.4375 L 70.886719 139.421875 L 71.496094 139.375 C 71.847656 139.355469 72.074219 139.296875 72.167969 139.203125 C 72.261719 139.109375 72.316406 138.890625 72.339844 138.546875 L 72.402344 137.640625 L 72.402344 132.453125 L 72.339844 131.5625 C 72.316406 131.21875 72.261719 131 72.167969 130.90625 C 72.074219 130.804688 71.847656 130.742188 71.496094 130.71875 L 70.886719 130.671875 L 70.714844 130.65625 L 70.714844 130.09375 L 74.183594 130.09375 Z M 96.96875 139.546875 C 95.820312 140.003906 94.78125 140.234375 93.84375 140.234375 C 92.382812 140.234375 91.203125 139.746094 90.296875 138.765625 C 89.390625 137.789062 88.9375 136.515625 88.9375 134.953125 C 88.9375 133.464844 89.34375 132.246094 90.15625 131.296875 C 90.96875 130.351562 92.015625 129.875 93.296875 129.875 C 94.472656 129.875 95.378906 130.277344 96.015625 131.078125 C 96.648438 131.871094 96.96875 133.007812 96.96875 134.484375 L 96.96875 134.65625 L 90.921875 134.65625 C 90.921875 136.023438 91.109375 137.042969 91.484375 137.71875 C 92.066406 138.78125 92.945312 139.3125 94.125 139.3125 C 95.238281 139.3125 96.1875 139.085938 96.96875 138.625 Z M 90.953125 134.09375 L 95.0625 134.09375 L 95.0625 133.6875 C 95.0625 132.96875 95.03125 132.445312 94.96875 132.109375 C 94.90625 131.765625 94.785156 131.460938 94.609375 131.1875 C 94.253906 130.6875 93.773438 130.4375 93.171875 130.4375 C 92.492188 130.4375 91.953125 130.773438 91.546875 131.4375 C 91.148438 132.09375 90.953125 132.980469 90.953125 134.09375 Z M 107.414062 125.609375 L 107.414062 137.640625 C 107.414062 138.140625 107.460938 138.578125 107.554688 138.953125 C 107.585938 139.109375 107.648438 139.21875 107.742188 139.28125 C 107.835938 139.335938 108.027344 139.367188 108.320312 139.375 L 108.945312 139.421875 L 109.117188 139.4375 L 109.117188 140 L 103.945312 140 L 103.945312 139.4375 L 104.117188 139.421875 L 104.726562 139.375 C 105.078125 139.355469 105.304688 139.296875 105.398438 139.203125 C 105.492188 139.109375 105.546875 138.890625 105.570312 138.546875 L 105.632812 137.640625 L 105.632812 127.96875 L 105.570312 127.0625 C 105.546875 126.71875 105.492188 126.5 105.398438 126.40625 C 105.304688 126.3125 105.078125 126.25 104.726562 126.21875 L 104.117188 126.171875 L 103.945312 126.171875 L 103.945312 125.609375 Z M 116.472656 138.640625 C 115.878906 139.234375 115.347656 139.652344 114.878906 139.890625 C 114.410156 140.117188 113.882812 140.234375 113.300781 140.234375 C 112.464844 140.234375 111.769531 139.96875 111.207031 139.4375 C 110.644531 138.898438 110.363281 138.226562 110.363281 137.421875 C 110.363281 136.496094 110.726562 135.742188 111.457031 135.15625 C 111.925781 134.78125 112.472656 134.523438 113.097656 134.375 C 113.722656 134.21875 114.585938 134.140625 115.691406 134.140625 L 116.066406 134.140625 L 116.066406 132.921875 C 116.066406 131.359375 115.472656 130.578125 114.285156 130.578125 C 113.730469 130.578125 113.242188 130.746094 112.816406 131.078125 C 112.566406 131.289062 112.410156 131.710938 112.347656 132.34375 L 112.332031 132.53125 L 111.113281 132.53125 L 111.113281 130.703125 C 112.382812 130.152344 113.550781 129.875 114.613281 129.875 C 115.558594 129.875 116.324219 130.09375 116.910156 130.53125 C 117.273438 130.8125 117.523438 131.121094 117.660156 131.453125 C 117.792969 131.777344 117.863281 132.242188 117.863281 132.84375 L 117.863281 137.25 C 117.863281 138.042969 117.929688 138.601562 118.066406 138.921875 C 118.199219 139.246094 118.441406 139.40625 118.785156 139.40625 C 118.898438 139.40625 119.058594 139.382812 119.269531 139.328125 L 119.316406 140 C 118.886719 140.15625 118.503906 140.234375 118.160156 140.234375 C 117.273438 140.234375 116.710938 139.703125 116.472656 138.640625 Z M 116.066406 138.4375 L 116.066406 134.71875 L 115.644531 134.71875 C 114.589844 134.71875 113.761719 134.9375 113.160156 135.375 C 112.566406 135.804688 112.269531 136.402344 112.269531 137.171875 C 112.269531 137.746094 112.449219 138.21875 112.816406 138.59375 C 113.191406 138.96875 113.652344 139.15625 114.207031 139.15625 C 114.738281 139.15625 115.355469 138.917969 116.066406 138.4375 Z M 121.046875 140.109375 L 121.046875 127.96875 L 121 127.0625 C 120.976562 126.71875 120.914062 126.5 120.8125 126.40625 C 120.71875 126.3125 120.5 126.25 120.15625 126.21875 L 119.53125 126.171875 L 119.359375 126.171875 L 119.359375 125.609375 L 122.84375 125.609375 L 122.84375 131.953125 C 123.738281 130.570312 124.898438 129.875 126.328125 129.875 C 127.453125 129.875 128.34375 130.320312 129 131.203125 C 129.664062 132.089844 130 133.273438 130 134.75 C 130 136.40625 129.617188 137.734375 128.859375 138.734375 C 128.097656 139.734375 127.085938 140.234375 125.828125 140.234375 C 124.671875 140.234375 123.675781 139.78125 122.84375 138.875 L 122.734375 138.875 L 122.515625 140.109375 Z M 122.84375 138.171875 C 123.800781 138.871094 124.71875 139.21875 125.59375 139.21875 C 126.40625 139.21875 127.019531 138.882812 127.4375 138.203125 C 127.863281 137.515625 128.078125 136.53125 128.078125 135.25 C 128.078125 133.84375 127.875 132.792969 127.46875 132.09375 C 127.070312 131.386719 126.472656 131.03125 125.671875 131.03125 C 125.171875 131.03125 124.664062 131.171875 124.15625 131.453125 C 123.65625 131.734375 123.21875 132.117188 122.84375 132.59375 Z M 139.945312 139.546875 C 138.796875 140.003906 137.757812 140.234375 136.820312 140.234375 C 135.359375 140.234375 134.179688 139.746094 133.273438 138.765625 C 132.367188 137.789062 131.914062 136.515625 131.914062 134.953125 C 131.914062 133.464844 132.320312 132.246094 133.132812 131.296875 C 133.945312 130.351562 134.992188 129.875 136.273438 129.875 C 137.449219 129.875 138.355469 130.277344 138.992188 131.078125 C 139.625 131.871094 139.945312 133.007812 139.945312 134.484375 L 139.945312 134.65625 L 133.898438 134.65625 C 133.898438 136.023438 134.085938 137.042969 134.460938 137.71875 C 135.042969 138.78125 135.921875 139.3125 137.101562 139.3125 C 138.214844 139.3125 139.164062 139.085938 139.945312 138.625 Z M 133.929688 134.09375 L 138.039062 134.09375 L 138.039062 133.6875 C 138.039062 132.96875 138.007812 132.445312 137.945312 132.109375 C 137.882812 131.765625 137.761719 131.460938 137.585938 131.1875 C 137.230469 130.6875 136.75 130.4375 136.148438 130.4375 C 135.46875 130.4375 134.929688 130.773438 134.523438 131.4375 C 134.125 132.09375 133.929688 132.980469 133.929688 134.09375 Z M 144.714844 125.609375 L 144.714844 137.640625 C 144.714844 138.140625 144.761719 138.578125 144.855469 138.953125 C 144.886719 139.109375 144.949219 139.21875 145.042969 139.28125 C 145.136719 139.335938 145.328125 139.367188 145.621094 139.375 L 146.246094 139.421875 L 146.417969 139.4375 L 146.417969 140 L 141.246094 140 L 141.246094 139.4375 L 141.417969 139.421875 L 142.027344 139.375 C 142.378906 139.355469 142.605469 139.296875 142.699219 139.203125 C 142.792969 139.109375 142.847656 138.890625 142.871094 138.546875 L 142.933594 137.640625 L 142.933594 127.96875 L 142.871094 127.0625 C 142.847656 126.71875 142.792969 126.5 142.699219 126.40625 C 142.605469 126.3125 142.378906 126.25 142.027344 126.21875 L 141.417969 126.171875 L 141.246094 126.171875 L 141.246094 125.609375 Z M 159.011719 139.9375 C 158.550781 140.132812 158.113281 140.234375 157.699219 140.234375 C 156.78125 140.234375 156.050781 139.992188 155.511719 139.5 C 155.1875 139.210938 154.96875 138.886719 154.855469 138.53125 C 154.738281 138.167969 154.683594 137.625 154.683594 136.90625 L 154.683594 130.84375 L 153.214844 130.84375 L 153.214844 130.09375 L 154.683594 130.09375 L 154.683594 128.296875 L 156.480469 127.859375 L 156.480469 130.09375 L 159.230469 130.09375 L 159.230469 130.84375 L 156.480469 130.84375 L 156.480469 137.140625 C 156.480469 138.007812 156.558594 138.574219 156.714844 138.84375 C 156.964844 139.28125 157.378906 139.5 157.964844 139.5 C 158.253906 139.5 158.605469 139.40625 159.011719 139.21875 Z M 168.683594 139.546875 C 167.535156 140.003906 166.496094 140.234375 165.558594 140.234375 C 164.097656 140.234375 162.917969 139.746094 162.011719 138.765625 C 161.105469 137.789062 160.652344 136.515625 160.652344 134.953125 C 160.652344 133.464844 161.058594 132.246094 161.871094 131.296875 C 162.683594 130.351562 163.730469 129.875 165.011719 129.875 C 166.1875 129.875 167.09375 130.277344 167.730469 131.078125 C 168.363281 131.871094 168.683594 133.007812 168.683594 134.484375 L 168.683594 134.65625 L 162.636719 134.65625 C 162.636719 136.023438 162.824219 137.042969 163.199219 137.71875 C 163.78125 138.78125 164.660156 139.3125 165.839844 139.3125 C 166.953125 139.3125 167.902344 139.085938 168.683594 138.625 Z M 162.667969 134.09375 L 166.777344 134.09375 L 166.777344 133.6875 C 166.777344 132.96875 166.746094 132.445312 166.683594 132.109375 C 166.621094 131.765625 166.5 131.460938 166.324219 131.1875 C 165.96875 130.6875 165.488281 130.4375 164.886719 130.4375 C 164.207031 130.4375 163.667969 130.773438 163.261719 131.4375 C 162.863281 132.09375 162.667969 132.980469 162.667969 134.09375 Z M 169.667969 140 L 169.667969 139.4375 L 169.824219 139.421875 C 170.15625 139.402344 170.5 139.1875 170.855469 138.78125 L 171.839844 137.65625 L 173.917969 135.203125 L 171.808594 132.484375 L 170.917969 131.390625 C 170.675781 131.089844 170.496094 130.902344 170.371094 130.828125 C 170.246094 130.746094 170.046875 130.695312 169.777344 130.671875 L 169.621094 130.65625 L 169.621094 130.09375 L 174.105469 130.09375 L 174.105469 130.65625 L 173.917969 130.65625 L 173.542969 130.6875 C 173.136719 130.6875 172.933594 130.777344 172.933594 130.953125 C 172.933594 131.070312 173.269531 131.578125 173.949219 132.484375 L 175.355469 134.390625 L 176.746094 132.53125 C 176.921875 132.28125 177.109375 131.976562 177.308594 131.609375 C 177.515625 131.246094 177.621094 131.015625 177.621094 130.921875 C 177.621094 130.757812 177.453125 130.671875 177.121094 130.671875 L 176.777344 130.65625 L 176.574219 130.65625 L 176.574219 130.09375 L 179.730469 130.09375 L 179.730469 130.65625 L 179.542969 130.671875 C 179.292969 130.695312 179.089844 130.75 178.933594 130.84375 C 178.785156 130.9375 178.621094 131.121094 178.433594 131.390625 C 178.140625 131.796875 177.863281 132.164062 177.605469 132.484375 L 175.730469 134.84375 L 177.871094 137.640625 C 178.378906 138.320312 178.777344 138.78125 179.058594 139.03125 C 179.347656 139.273438 179.636719 139.402344 179.917969 139.421875 L 180.074219 139.4375 L 180.074219 140 L 175.558594 140 L 175.558594 139.4375 L 175.730469 139.4375 L 176.152344 139.421875 C 176.589844 139.421875 176.808594 139.355469 176.808594 139.21875 C 176.808594 139.179688 176.777344 139.121094 176.714844 139.046875 C 176.660156 138.976562 176.589844 138.859375 176.496094 138.703125 C 176.265625 138.320312 176.027344 137.96875 175.777344 137.65625 L 174.246094 135.65625 L 172.699219 137.65625 L 172.199219 138.296875 L 171.746094 138.953125 C 171.683594 139.046875 171.652344 139.117188 171.652344 139.15625 C 171.652344 139.335938 171.875 139.421875 172.324219 139.421875 L 172.683594 139.4375 L 172.886719 139.4375 L 172.886719 140 Z M 186.617188 139.9375 C 186.15625 140.132812 185.71875 140.234375 185.304688 140.234375 C 184.386719 140.234375 183.65625 139.992188 183.117188 139.5 C 182.792969 139.210938 182.574219 138.886719 182.460938 138.53125 C 182.34375 138.167969 182.289062 137.625 182.289062 136.90625 L 182.289062 130.84375 L 180.820312 130.84375 L 180.820312 130.09375 L 182.289062 130.09375 L 182.289062 128.296875 L 184.085938 127.859375 L 184.085938 130.09375 L 186.835938 130.09375 L 186.835938 130.84375 L 184.085938 130.84375 L 184.085938 137.140625 C 184.085938 138.007812 184.164062 138.574219 184.320312 138.84375 C 184.570312 139.28125 184.984375 139.5 185.570312 139.5 C 185.859375 139.5 186.210938 139.40625 186.617188 139.21875 Z M 186.617188 139.9375 "/>
</g>
</svg>
