<?xml version="1.0" encoding="UTF-8"?>
<svg xmlns="http://www.w3.org/2000/svg" xmlns:xlink="http://www.w3.org/1999/xlink" width="200" height="100" viewBox="0 0 200 100">
<defs>
<filter id="filter-remove-color-and-invert-alpha" x="0%" y="0%" width="100%" height="100%">
<feColorMatrix color-interpolation-filters="sRGB" values="0 0 0 0 1 0 0 0 0 1 0 0 0 0 1 0 0 0 -1 1"/>
</filter>
<filter id="filter-0" x="0%" y="0%" width="100%" height="100%">
<feImage xlink:href="#compositing-group-1" result="source" x="0" y="0" width="240" height="120"/>
<feImage xlink:href="#compositing-group-2" result="destination" x="0" y="0" width="240" height="120"/>
<feComposite in="source" in2="destination" operator="arithmetic" k1="0" k2="1" k3="1" k4="0" color-interpolation-filters="sRGB"/>
</filter>
<g id="compositing-group-0" transform="translate(20, 10)">
<rect x="-20" y="-10" width="240" height="120" fill="rgb(0%, 0%, 0%)" fill-opacity="0"/>
<rect x="-20" y="-10" width="240" height="120" fill="rgb(100%, 100%, 100%)" fill-opacity="1"/>
</g>
<mask id="mask-0">
<use xlink:href="#compositing-group-0"/>
</mask>
<mask id="mask-1">
<use xlink:href="#compositing-group-0" filter="url(#filter-remove-color-and-invert-alpha)"/>
</mask>
<g id="compositing-group-1" mask="url(#mask-0)">
<g transform="translate(20, 10)">
<rect x="-20" y="-10" width="240" height="120" fill="rgb(100%, 100%, 100%)" fill-opacity="1"/>
</g>
</g>
<g id="compositing-group-2" mask="url(#mask-1)">
<g transform="translate(20, 10)">
</g>
</g>
</defs>
<g filter="url(#filter-0)" transform="translate(-20, -10)">
<rect x="0" y="0" width="240" height="120" fill="rgb(0%, 0%, 0%)" fill-opacity="1"/>
</g>
<path fill="none" stroke-width="1" stroke-linecap="round" stroke-linejoin="round" stroke="rgb(0%, 0%, 100%)" stroke-opacity="1" stroke-miterlimit="10" d="M 0.5 74.25 L 201 70.910156 "/>
<path fill="none" stroke-width="1" stroke-linecap="round" stroke-linejoin="round" stroke="rgb(0%, 0%, 100%)" stroke-opacity="1" stroke-miterlimit="10" d="M 0.5 59.398438 L 202 56.042969 "/>
<path fill="none" stroke-width="4" stroke-linecap="round" stroke-linejoin="round" stroke="rgb(100%, 100%, 100%)" stroke-opacity="1" stroke-miterlimit="10" d="M 115.613281 60.660156 L 115.597656 59.566406 C 115.347656 59.953125 115.035156 60.261719 114.660156 60.488281 C 114.292969 60.71875 113.914062 60.832031 113.519531 60.832031 C 113.019531 60.839844 112.621094 60.6875 112.332031 60.363281 C 112.039062 60.03125 111.886719 59.578125 111.878906 59.003906 L 111.832031 56.285156 L 111.800781 55.753906 C 111.769531 55.546875 111.726562 55.417969 111.675781 55.363281 C 111.621094 55.300781 111.492188 55.269531 111.285156 55.269531 L 110.925781 55.238281 L 110.816406 55.238281 L 110.816406 54.910156 L 112.863281 54.878906 L 112.925781 58.816406 C 112.933594 59.308594 113.011719 59.652344 113.160156 59.847656 C 113.304688 60.046875 113.554688 60.144531 113.910156 60.144531 C 114.148438 60.136719 114.429688 60.042969 114.753906 59.863281 C 115.085938 59.6875 115.363281 59.46875 115.582031 59.207031 L 115.535156 56.222656 L 115.503906 55.691406 C 115.480469 55.484375 115.441406 55.355469 115.378906 55.300781 C 115.324219 55.238281 115.195312 55.207031 114.988281 55.207031 L 114.628906 55.175781 L 114.535156 55.175781 L 114.535156 54.847656 L 116.582031 54.816406 L 116.660156 59.253906 L 116.691406 59.785156 C 116.699219 59.996094 116.738281 60.125 116.800781 60.175781 C 116.863281 60.230469 116.996094 60.261719 117.207031 60.269531 L 117.566406 60.285156 L 117.675781 60.300781 L 117.675781 60.628906 Z M 120.035156 55.859375 C 120.273438 55.464844 120.582031 55.15625 120.957031 54.9375 C 121.332031 54.710938 121.722656 54.589844 122.128906 54.578125 C 122.628906 54.578125 123.023438 54.746094 123.316406 55.078125 C 123.605469 55.402344 123.757812 55.851562 123.769531 56.421875 L 123.816406 59.140625 L 123.847656 59.671875 C 123.855469 59.882812 123.894531 60.011719 123.957031 60.0625 C 124.019531 60.105469 124.152344 60.136719 124.363281 60.15625 L 124.722656 60.171875 L 124.816406 60.1875 L 124.816406 60.515625 L 121.769531 60.5625 L 121.769531 60.234375 L 121.863281 60.21875 L 122.238281 60.1875 C 122.433594 60.167969 122.558594 60.132812 122.613281 60.078125 C 122.664062 60.027344 122.699219 59.898438 122.722656 59.6875 L 122.753906 59.15625 L 122.707031 56.609375 C 122.695312 56.109375 122.621094 55.761719 122.488281 55.5625 C 122.351562 55.367188 122.117188 55.273438 121.785156 55.28125 C 121.304688 55.28125 120.722656 55.589844 120.035156 56.203125 L 120.097656 59.203125 C 120.097656 59.496094 120.121094 59.75 120.175781 59.96875 C 120.195312 60.054688 120.238281 60.117188 120.300781 60.15625 C 120.363281 60.1875 120.476562 60.210938 120.644531 60.21875 L 121.003906 60.234375 L 121.113281 60.25 L 121.113281 60.578125 L 118.066406 60.625 L 118.066406 60.296875 L 118.160156 60.28125 L 118.519531 60.25 C 118.726562 60.230469 118.855469 60.195312 118.910156 60.140625 C 118.960938 60.089844 118.992188 59.960938 119.003906 59.75 L 119.035156 59.21875 L 118.972656 56.171875 L 118.941406 55.640625 C 118.917969 55.433594 118.878906 55.304688 118.816406 55.25 C 118.761719 55.1875 118.632812 55.152344 118.425781 55.140625 L 118.066406 55.125 L 117.972656 55.125 L 117.972656 54.796875 L 120.019531 54.765625 Z M 129.84375 60.226562 C 129.289062 60.46875 128.75 60.585938 128.21875 60.585938 C 127.363281 60.605469 126.664062 60.335938 126.125 59.773438 C 125.582031 59.203125 125.304688 58.460938 125.296875 57.554688 C 125.273438 56.640625 125.515625 55.90625 126.015625 55.351562 C 126.523438 54.789062 127.195312 54.5 128.03125 54.476562 C 128.476562 54.476562 129.050781 54.5625 129.75 54.726562 L 129.765625 56.117188 L 129.109375 56.117188 L 129.109375 56.023438 C 129.109375 55.597656 129.035156 55.316406 128.890625 55.179688 C 128.691406 54.953125 128.410156 54.835938 128.046875 54.835938 C 127.523438 54.847656 127.117188 55.085938 126.828125 55.554688 C 126.535156 56.023438 126.394531 56.660156 126.40625 57.460938 C 126.414062 58.273438 126.601562 58.914062 126.96875 59.382812 C 127.34375 59.84375 127.835938 60.066406 128.453125 60.054688 C 128.984375 60.046875 129.441406 59.953125 129.828125 59.773438 Z M 132.515625 51.898438 L 132.640625 58.992188 C 132.640625 59.285156 132.664062 59.539062 132.71875 59.757812 C 132.738281 59.84375 132.78125 59.90625 132.84375 59.945312 C 132.90625 59.976562 133.019531 60 133.1875 60.007812 L 133.546875 60.023438 L 133.65625 60.039062 L 133.65625 60.367188 L 130.609375 60.414062 L 130.609375 60.085938 L 130.703125 60.070312 L 131.0625 60.039062 C 131.269531 60.019531 131.398438 59.984375 131.453125 59.929688 C 131.503906 59.878906 131.535156 59.75 131.546875 59.539062 L 131.578125 59.007812 L 131.46875 53.304688 L 131.4375 52.773438 C 131.425781 52.578125 131.390625 52.453125 131.328125 52.398438 C 131.265625 52.335938 131.128906 52.300781 130.921875 52.289062 L 130.5625 52.273438 L 130.46875 52.273438 L 130.46875 51.929688 Z M 136.015625 54.5 L 136.09375 58.9375 C 136.09375 59.230469 136.117188 59.484375 136.171875 59.703125 C 136.191406 59.789062 136.234375 59.851562 136.296875 59.890625 C 136.359375 59.921875 136.472656 59.945312 136.640625 59.953125 L 137 59.96875 L 137.109375 59.984375 L 137.109375 60.3125 L 134.0625 60.359375 L 134.0625 60.03125 L 134.15625 60.015625 L 134.515625 59.984375 C 134.722656 59.964844 134.851562 59.929688 134.90625 59.875 C 134.957031 59.824219 134.988281 59.695312 135 59.484375 L 135.03125 58.953125 L 134.96875 55.90625 L 134.9375 55.375 C 134.914062 55.167969 134.875 55.039062 134.8125 54.984375 C 134.757812 54.921875 134.628906 54.886719 134.421875 54.875 L 134.0625 54.859375 L 133.96875 54.859375 L 133.96875 54.53125 Z M 134.9375 53.453125 L 134.921875 52.390625 L 135.984375 52.375 L 136 53.4375 Z M 139.46875 59.613281 L 139.5 61.003906 C 139.5 61.292969 139.53125 61.550781 139.59375 61.769531 C 139.613281 61.851562 139.648438 61.910156 139.703125 61.941406 C 139.765625 61.972656 139.878906 61.992188 140.046875 62.003906 L 140.40625 62.035156 L 140.515625 62.035156 L 140.515625 62.378906 L 137.46875 62.425781 L 137.46875 62.082031 L 137.5625 62.082031 L 137.921875 62.035156 C 138.128906 62.023438 138.257812 61.988281 138.3125 61.925781 C 138.375 61.871094 138.40625 61.742188 138.40625 61.535156 L 138.4375 61.019531 L 138.34375 55.847656 L 138.3125 55.316406 C 138.289062 55.109375 138.25 54.980469 138.1875 54.925781 C 138.132812 54.863281 138.003906 54.828125 137.796875 54.816406 L 137.4375 54.800781 L 137.34375 54.800781 L 137.34375 54.472656 L 139.390625 54.441406 L 139.40625 55.535156 C 139.925781 54.703125 140.601562 54.277344 141.4375 54.253906 C 142.101562 54.246094 142.632812 54.5 143.03125 55.019531 C 143.425781 55.53125 143.632812 56.222656 143.65625 57.097656 C 143.664062 58.078125 143.453125 58.871094 143.015625 59.472656 C 142.578125 60.066406 141.984375 60.367188 141.234375 60.378906 C 140.554688 60.386719 139.96875 60.136719 139.46875 59.613281 Z M 139.46875 59.191406 C 140.039062 59.597656 140.585938 59.796875 141.109375 59.785156 C 141.578125 59.777344 141.929688 59.566406 142.171875 59.160156 C 142.410156 58.746094 142.523438 58.160156 142.515625 57.410156 C 142.503906 56.578125 142.375 55.957031 142.125 55.550781 C 141.882812 55.144531 141.523438 54.949219 141.046875 54.957031 C 140.753906 54.957031 140.460938 55.046875 140.171875 55.222656 C 139.878906 55.390625 139.625 55.621094 139.40625 55.910156 Z M 146.53125 59.496094 L 146.5625 60.886719 C 146.5625 61.175781 146.59375 61.433594 146.65625 61.652344 C 146.675781 61.734375 146.710938 61.792969 146.765625 61.824219 C 146.828125 61.855469 146.941406 61.875 147.109375 61.886719 L 147.46875 61.917969 L 147.578125 61.917969 L 147.578125 62.261719 L 144.53125 62.308594 L 144.53125 61.964844 L 144.625 61.964844 L 144.984375 61.917969 C 145.191406 61.90625 145.320312 61.871094 145.375 61.808594 C 145.4375 61.753906 145.46875 61.625 145.46875 61.417969 L 145.5 60.902344 L 145.40625 55.730469 L 145.375 55.199219 C 145.351562 54.992188 145.3125 54.863281 145.25 54.808594 C 145.195312 54.746094 145.066406 54.710938 144.859375 54.699219 L 144.5 54.683594 L 144.40625 54.683594 L 144.40625 54.355469 L 146.453125 54.324219 L 146.46875 55.417969 C 146.988281 54.585938 147.664062 54.160156 148.5 54.136719 C 149.164062 54.128906 149.695312 54.382812 150.09375 54.902344 C 150.488281 55.414062 150.695312 56.105469 150.71875 56.980469 C 150.726562 57.960938 150.515625 58.753906 150.078125 59.355469 C 149.640625 59.949219 149.046875 60.25 148.296875 60.261719 C 147.617188 60.269531 147.03125 60.019531 146.53125 59.496094 Z M 146.53125 59.074219 C 147.101562 59.480469 147.648438 59.679688 148.171875 59.667969 C 148.640625 59.660156 148.992188 59.449219 149.234375 59.042969 C 149.472656 58.628906 149.585938 58.042969 149.578125 57.292969 C 149.566406 56.460938 149.4375 55.839844 149.1875 55.433594 C 148.945312 55.027344 148.585938 54.832031 148.109375 54.839844 C 147.816406 54.839844 147.523438 54.929688 147.234375 55.105469 C 146.941406 55.273438 146.6875 55.503906 146.46875 55.792969 Z M 156.621094 59.707031 C 155.941406 59.988281 155.328125 60.132812 154.777344 60.144531 C 153.921875 60.164062 153.21875 59.890625 152.667969 59.316406 C 152.125 58.746094 151.847656 58 151.839844 57.082031 C 151.816406 56.199219 152.042969 55.472656 152.511719 54.910156 C 152.988281 54.347656 153.605469 54.0625 154.355469 54.050781 C 155.050781 54.042969 155.589844 54.265625 155.964844 54.722656 C 156.347656 55.183594 156.550781 55.847656 156.574219 56.722656 L 156.574219 56.832031 L 153.011719 56.894531 C 153.019531 57.699219 153.140625 58.296875 153.371094 58.691406 C 153.722656 59.308594 154.25 59.609375 154.949219 59.597656 C 155.605469 59.589844 156.15625 59.441406 156.605469 59.160156 Z M 153.011719 56.550781 L 155.433594 56.519531 L 155.433594 56.285156 C 155.421875 55.859375 155.394531 55.546875 155.355469 55.347656 C 155.324219 55.152344 155.25 54.972656 155.136719 54.816406 C 154.925781 54.515625 154.644531 54.371094 154.292969 54.378906 C 153.886719 54.378906 153.566406 54.578125 153.339844 54.972656 C 153.109375 55.371094 153 55.894531 153.011719 56.550781 Z M 161.980469 59.890625 L 161.964844 58.796875 C 161.453125 59.632812 160.777344 60.050781 159.933594 60.0625 C 159.277344 60.070312 158.746094 59.824219 158.339844 59.3125 C 157.941406 58.792969 157.738281 58.089844 157.730469 57.203125 C 157.71875 56.234375 157.933594 55.453125 158.371094 54.859375 C 158.808594 54.265625 159.394531 53.964844 160.136719 53.953125 C 160.824219 53.945312 161.40625 54.199219 161.886719 54.71875 L 161.855469 52.796875 C 161.855469 52.507812 161.832031 52.246094 161.792969 52.015625 C 161.761719 51.921875 161.714844 51.867188 161.652344 51.84375 C 161.597656 51.8125 161.488281 51.792969 161.324219 51.78125 L 160.949219 51.765625 L 160.855469 51.765625 L 160.855469 51.421875 L 162.902344 51.390625 L 163.027344 58.484375 C 163.027344 58.777344 163.050781 59.03125 163.105469 59.25 C 163.125 59.34375 163.167969 59.40625 163.230469 59.4375 C 163.292969 59.46875 163.40625 59.492188 163.574219 59.5 L 163.933594 59.515625 L 164.042969 59.53125 L 164.042969 59.859375 Z M 161.902344 55.140625 C 161.339844 54.734375 160.796875 54.539062 160.277344 54.546875 C 159.796875 54.546875 159.4375 54.75 159.199219 55.15625 C 158.957031 55.5625 158.84375 56.148438 158.855469 56.90625 C 158.863281 57.742188 158.988281 58.359375 159.230469 58.765625 C 159.480469 59.171875 159.839844 59.375 160.308594 59.375 C 160.609375 59.367188 160.917969 59.273438 161.230469 59.09375 C 161.542969 58.90625 161.78125 58.683594 161.949219 58.421875 Z M 169.699219 51.28125 L 169.824219 58.375 C 169.824219 58.667969 169.847656 58.921875 169.902344 59.140625 C 169.921875 59.226562 169.964844 59.289062 170.027344 59.328125 C 170.089844 59.359375 170.203125 59.382812 170.371094 59.390625 L 170.730469 59.40625 L 170.839844 59.421875 L 170.839844 59.75 L 167.792969 59.796875 L 167.792969 59.46875 L 167.886719 59.453125 L 168.246094 59.421875 C 168.453125 59.402344 168.582031 59.367188 168.636719 59.3125 C 168.6875 59.261719 168.71875 59.132812 168.730469 58.921875 L 168.761719 58.390625 L 168.652344 52.6875 L 168.621094 52.15625 C 168.609375 51.960938 168.574219 51.835938 168.511719 51.78125 C 168.449219 51.71875 168.3125 51.683594 168.105469 51.671875 L 167.746094 51.65625 L 167.652344 51.65625 L 167.652344 51.3125 Z M 173.199219 53.878906 L 173.277344 58.316406 C 173.277344 58.609375 173.300781 58.863281 173.355469 59.082031 C 173.375 59.167969 173.417969 59.230469 173.480469 59.269531 C 173.542969 59.300781 173.65625 59.324219 173.824219 59.332031 L 174.183594 59.347656 L 174.292969 59.363281 L 174.292969 59.691406 L 171.246094 59.738281 L 171.246094 59.410156 L 171.339844 59.394531 L 171.699219 59.363281 C 171.90625 59.34375 172.035156 59.308594 172.089844 59.253906 C 172.140625 59.203125 172.171875 59.074219 172.183594 58.863281 L 172.214844 58.332031 L 172.152344 55.285156 L 172.121094 54.753906 C 172.097656 54.546875 172.058594 54.417969 171.996094 54.363281 C 171.941406 54.300781 171.8125 54.265625 171.605469 54.253906 L 171.246094 54.238281 L 171.152344 54.238281 L 171.152344 53.910156 Z M 172.121094 52.832031 L 172.105469 51.769531 L 173.167969 51.753906 L 173.183594 52.816406 Z M 176.589844 54.914062 C 176.828125 54.519531 177.136719 54.210938 177.511719 53.992188 C 177.886719 53.765625 178.277344 53.644531 178.683594 53.632812 C 179.183594 53.632812 179.578125 53.800781 179.871094 54.132812 C 180.160156 54.457031 180.3125 54.90625 180.324219 55.476562 L 180.371094 58.195312 L 180.402344 58.726562 C 180.410156 58.9375 180.449219 59.066406 180.511719 59.117188 C 180.574219 59.160156 180.707031 59.191406 180.917969 59.210938 L 181.277344 59.226562 L 181.371094 59.242188 L 181.371094 59.570312 L 178.324219 59.617188 L 178.324219 59.289062 L 178.417969 59.273438 L 178.792969 59.242188 C 178.988281 59.222656 179.113281 59.1875 179.167969 59.132812 C 179.21875 59.082031 179.253906 58.953125 179.277344 58.742188 L 179.308594 58.210938 L 179.261719 55.664062 C 179.25 55.164062 179.175781 54.816406 179.042969 54.617188 C 178.90625 54.421875 178.671875 54.328125 178.339844 54.335938 C 177.859375 54.335938 177.277344 54.644531 176.589844 55.257812 L 176.652344 58.257812 C 176.652344 58.550781 176.675781 58.804688 176.730469 59.023438 C 176.75 59.109375 176.792969 59.171875 176.855469 59.210938 C 176.917969 59.242188 177.03125 59.265625 177.199219 59.273438 L 177.558594 59.289062 L 177.667969 59.304688 L 177.667969 59.632812 L 174.621094 59.679688 L 174.621094 59.351562 L 174.714844 59.335938 L 175.074219 59.304688 C 175.28125 59.285156 175.410156 59.25 175.464844 59.195312 C 175.515625 59.144531 175.546875 59.015625 175.558594 58.804688 L 175.589844 58.273438 L 175.527344 55.226562 L 175.496094 54.695312 C 175.472656 54.488281 175.433594 54.359375 175.371094 54.304688 C 175.316406 54.242188 175.1875 54.207031 174.980469 54.195312 L 174.621094 54.179688 L 174.527344 54.179688 L 174.527344 53.851562 L 176.574219 53.820312 Z M 186.632812 59.207031 C 185.953125 59.488281 185.339844 59.632812 184.789062 59.644531 C 183.933594 59.664062 183.230469 59.390625 182.679688 58.816406 C 182.136719 58.246094 181.859375 57.5 181.851562 56.582031 C 181.828125 55.699219 182.054688 54.972656 182.523438 54.410156 C 183 53.847656 183.617188 53.5625 184.367188 53.550781 C 185.0625 53.542969 185.601562 53.765625 185.976562 54.222656 C 186.359375 54.683594 186.5625 55.347656 186.585938 56.222656 L 186.585938 56.332031 L 183.023438 56.394531 C 183.03125 57.199219 183.152344 57.796875 183.382812 58.191406 C 183.734375 58.808594 184.261719 59.109375 184.960938 59.097656 C 185.617188 59.089844 186.167969 58.941406 186.617188 58.660156 Z M 183.023438 56.050781 L 185.445312 56.019531 L 185.445312 55.785156 C 185.433594 55.359375 185.40625 55.046875 185.367188 54.847656 C 185.335938 54.652344 185.261719 54.472656 185.148438 54.316406 C 184.9375 54.015625 184.65625 53.871094 184.304688 53.878906 C 183.898438 53.878906 183.578125 54.078125 183.351562 54.472656 C 183.121094 54.871094 183.011719 55.394531 183.023438 56.050781 Z M 183.023438 56.050781 "/>
<path fill-rule="nonzero" fill="rgb(0%, 0%, 0%)" fill-opacity="1" d="M 115.613281 60.660156 L 115.597656 59.566406 C 115.347656 59.953125 115.035156 60.261719 114.660156 60.488281 C 114.292969 60.71875 113.914062 60.832031 113.519531 60.832031 C 113.019531 60.839844 112.621094 60.6875 112.332031 60.363281 C 112.039062 60.03125 111.886719 59.578125 111.878906 59.003906 L 111.832031 56.285156 L 111.800781 55.753906 C 111.769531 55.546875 111.726562 55.417969 111.675781 55.363281 C 111.621094 55.300781 111.492188 55.269531 111.285156 55.269531 L 110.925781 55.238281 L 110.816406 55.238281 L 110.816406 54.910156 L 112.863281 54.878906 L 112.925781 58.816406 C 112.933594 59.308594 113.011719 59.652344 113.160156 59.847656 C 113.304688 60.046875 113.554688 60.144531 113.910156 60.144531 C 114.148438 60.136719 114.429688 60.042969 114.753906 59.863281 C 115.085938 59.6875 115.363281 59.46875 115.582031 59.207031 L 115.535156 56.222656 L 115.503906 55.691406 C 115.480469 55.484375 115.441406 55.355469 115.378906 55.300781 C 115.324219 55.238281 115.195312 55.207031 114.988281 55.207031 L 114.628906 55.175781 L 114.535156 55.175781 L 114.535156 54.847656 L 116.582031 54.816406 L 116.660156 59.253906 L 116.691406 59.785156 C 116.699219 59.996094 116.738281 60.125 116.800781 60.175781 C 116.863281 60.230469 116.996094 60.261719 117.207031 60.269531 L 117.566406 60.285156 L 117.675781 60.300781 L 117.675781 60.628906 Z M 120.035156 55.859375 C 120.273438 55.464844 120.582031 55.15625 120.957031 54.9375 C 121.332031 54.710938 121.722656 54.589844 122.128906 54.578125 C 122.628906 54.578125 123.023438 54.746094 123.316406 55.078125 C 123.605469 55.402344 123.757812 55.851562 123.769531 56.421875 L 123.816406 59.140625 L 123.847656 59.671875 C 123.855469 59.882812 123.894531 60.011719 123.957031 60.0625 C 124.019531 60.105469 124.152344 60.136719 124.363281 60.15625 L 124.722656 60.171875 L 124.816406 60.1875 L 124.816406 60.515625 L 121.769531 60.5625 L 121.769531 60.234375 L 121.863281 60.21875 L 122.238281 60.1875 C 122.433594 60.167969 122.558594 60.132812 122.613281 60.078125 C 122.664062 60.027344 122.699219 59.898438 122.722656 59.6875 L 122.753906 59.15625 L 122.707031 56.609375 C 122.695312 56.109375 122.621094 55.761719 122.488281 55.5625 C 122.351562 55.367188 122.117188 55.273438 121.785156 55.28125 C 121.304688 55.28125 120.722656 55.589844 120.035156 56.203125 L 120.097656 59.203125 C 120.097656 59.496094 120.121094 59.75 120.175781 59.96875 C 120.195312 60.054688 120.238281 60.117188 120.300781 60.15625 C 120.363281 60.1875 120.476562 60.210938 120.644531 60.21875 L 121.003906 60.234375 L 121.113281 60.25 L 121.113281 60.578125 L 118.066406 60.625 L 118.066406 60.296875 L 118.160156 60.28125 L 118.519531 60.25 C 118.726562 60.230469 118.855469 60.195312 118.910156 60.140625 C 118.960938 60.089844 118.992188 59.960938 119.003906 59.75 L 119.035156 59.21875 L 118.972656 56.171875 L 118.941406 55.640625 C 118.917969 55.433594 118.878906 55.304688 118.816406 55.25 C 118.761719 55.1875 118.632812 55.152344 118.425781 55.140625 L 118.066406 55.125 L 117.972656 55.125 L 117.972656 54.796875 L 120.019531 54.765625 Z M 129.84375 60.226562 C 129.289062 60.46875 128.75 60.585938 128.21875 60.585938 C 127.363281 60.605469 126.664062 60.335938 126.125 59.773438 C 125.582031 59.203125 125.304688 58.460938 125.296875 57.554688 C 125.273438 56.640625 125.515625 55.90625 126.015625 55.351562 C 126.523438 54.789062 127.195312 54.5 128.03125 54.476562 C 128.476562 54.476562 129.050781 54.5625 129.75 54.726562 L 129.765625 56.117188 L 129.109375 56.117188 L 129.109375 56.023438 C 129.109375 55.597656 129.035156 55.316406 128.890625 55.179688 C 128.691406 54.953125 128.410156 54.835938 128.046875 54.835938 C 127.523438 54.847656 127.117188 55.085938 126.828125 55.554688 C 126.535156 56.023438 126.394531 56.660156 126.40625 57.460938 C 126.414062 58.273438 126.601562 58.914062 126.96875 59.382812 C 127.34375 59.84375 127.835938 60.066406 128.453125 60.054688 C 128.984375 60.046875 129.441406 59.953125 129.828125 59.773438 Z M 132.515625 51.898438 L 132.640625 58.992188 C 132.640625 59.285156 132.664062 59.539062 132.71875 59.757812 C 132.738281 59.84375 132.78125 59.90625 132.84375 59.945312 C 132.90625 59.976562 133.019531 60 133.1875 60.007812 L 133.546875 60.023438 L 133.65625 60.039062 L 133.65625 60.367188 L 130.609375 60.414062 L 130.609375 60.085938 L 130.703125 60.070312 L 131.0625 60.039062 C 131.269531 60.019531 131.398438 59.984375 131.453125 59.929688 C 131.503906 59.878906 131.535156 59.75 131.546875 59.539062 L 131.578125 59.007812 L 131.46875 53.304688 L 131.4375 52.773438 C 131.425781 52.578125 131.390625 52.453125 131.328125 52.398438 C 131.265625 52.335938 131.128906 52.300781 130.921875 52.289062 L 130.5625 52.273438 L 130.46875 52.273438 L 130.46875 51.929688 Z M 136.015625 54.5 L 136.09375 58.9375 C 136.09375 59.230469 136.117188 59.484375 136.171875 59.703125 C 136.191406 59.789062 136.234375 59.851562 136.296875 59.890625 C 136.359375 59.921875 136.472656 59.945312 136.640625 59.953125 L 137 59.96875 L 137.109375 59.984375 L 137.109375 60.3125 L 134.0625 60.359375 L 134.0625 60.03125 L 134.15625 60.015625 L 134.515625 59.984375 C 134.722656 59.964844 134.851562 59.929688 134.90625 59.875 C 134.957031 59.824219 134.988281 59.695312 135 59.484375 L 135.03125 58.953125 L 134.96875 55.90625 L 134.9375 55.375 C 134.914062 55.167969 134.875 55.039062 134.8125 54.984375 C 134.757812 54.921875 134.628906 54.886719 134.421875 54.875 L 134.0625 54.859375 L 133.96875 54.859375 L 133.96875 54.53125 Z M 134.9375 53.453125 L 134.921875 52.390625 L 135.984375 52.375 L 136 53.4375 Z M 139.46875 59.613281 L 139.5 61.003906 C 139.5 61.292969 139.53125 61.550781 139.59375 61.769531 C 139.613281 61.851562 139.648438 61.910156 139.703125 61.941406 C 139.765625 61.972656 139.878906 61.992188 140.046875 62.003906 L 140.40625 62.035156 L 140.515625 62.035156 L 140.515625 62.378906 L 137.46875 62.425781 L 137.46875 62.082031 L 137.5625 62.082031 L 137.921875 62.035156 C 138.128906 62.023438 138.257812 61.988281 138.3125 61.925781 C 138.375 61.871094 138.40625 61.742188 138.40625 61.535156 L 138.4375 61.019531 L 138.34375 55.847656 L 138.3125 55.316406 C 138.289062 55.109375 138.25 54.980469 138.1875 54.925781 C 138.132812 54.863281 138.003906 54.828125 137.796875 54.816406 L 137.4375 54.800781 L 137.34375 54.800781 L 137.34375 54.472656 L 139.390625 54.441406 L 139.40625 55.535156 C 139.925781 54.703125 140.601562 54.277344 141.4375 54.253906 C 142.101562 54.246094 142.632812 54.5 143.03125 55.019531 C 143.425781 55.53125 143.632812 56.222656 143.65625 57.097656 C 143.664062 58.078125 143.453125 58.871094 143.015625 59.472656 C 142.578125 60.066406 141.984375 60.367188 141.234375 60.378906 C 140.554688 60.386719 139.96875 60.136719 139.46875 59.613281 Z M 139.46875 59.191406 C 140.039062 59.597656 140.585938 59.796875 141.109375 59.785156 C 141.578125 59.777344 141.929688 59.566406 142.171875 59.160156 C 142.410156 58.746094 142.523438 58.160156 142.515625 57.410156 C 142.503906 56.578125 142.375 55.957031 142.125 55.550781 C 141.882812 55.144531 141.523438 54.949219 141.046875 54.957031 C 140.753906 54.957031 140.460938 55.046875 140.171875 55.222656 C 139.878906 55.390625 139.625 55.621094 139.40625 55.910156 Z M 146.53125 59.496094 L 146.5625 60.886719 C 146.5625 61.175781 146.59375 61.433594 146.65625 61.652344 C 146.675781 61.734375 146.710938 61.792969 146.765625 61.824219 C 146.828125 61.855469 146.941406 61.875 147.109375 61.886719 L 147.46875 61.917969 L 147.578125 61.917969 L 147.578125 62.261719 L 144.53125 62.308594 L 144.53125 61.964844 L 144.625 61.964844 L 144.984375 61.917969 C 145.191406 61.90625 145.320312 61.871094 145.375 61.808594 C 145.4375 61.753906 145.46875 61.625 145.46875 61.417969 L 145.5 60.902344 L 145.40625 55.730469 L 145.375 55.199219 C 145.351562 54.992188 145.3125 54.863281 145.25 54.808594 C 145.195312 54.746094 145.066406 54.710938 144.859375 54.699219 L 144.5 54.683594 L 144.40625 54.683594 L 144.40625 54.355469 L 146.453125 54.324219 L 146.46875 55.417969 C 146.988281 54.585938 147.664062 54.160156 148.5 54.136719 C 149.164062 54.128906 149.695312 54.382812 150.09375 54.902344 C 150.488281 55.414062 150.695312 56.105469 150.71875 56.980469 C 150.726562 57.960938 150.515625 58.753906 150.078125 59.355469 C 149.640625 59.949219 149.046875 60.25 148.296875 60.261719 C 147.617188 60.269531 147.03125 60.019531 146.53125 59.496094 Z M 146.53125 59.074219 C 147.101562 59.480469 147.648438 59.679688 148.171875 59.667969 C 148.640625 59.660156 148.992188 59.449219 149.234375 59.042969 C 149.472656 58.628906 149.585938 58.042969 149.578125 57.292969 C 149.566406 56.460938 149.4375 55.839844 149.1875 55.433594 C 148.945312 55.027344 148.585938 54.832031 148.109375 54.839844 C 147.816406 54.839844 147.523438 54.929688 147.234375 55.105469 C 146.941406 55.273438 146.6875 55.503906 146.46875 55.792969 Z M 156.621094 59.707031 C 155.941406 59.988281 155.328125 60.132812 154.777344 60.144531 C 153.921875 60.164062 153.21875 59.890625 152.667969 59.316406 C 152.125 58.746094 151.847656 58 151.839844 57.082031 C 151.816406 56.199219 152.042969 55.472656 152.511719 54.910156 C 152.988281 54.347656 153.605469 54.0625 154.355469 54.050781 C 155.050781 54.042969 155.589844 54.265625 155.964844 54.722656 C 156.347656 55.183594 156.550781 55.847656 156.574219 56.722656 L 156.574219 56.832031 L 153.011719 56.894531 C 153.019531 57.699219 153.140625 58.296875 153.371094 58.691406 C 153.722656 59.308594 154.25 59.609375 154.949219 59.597656 C 155.605469 59.589844 156.15625 59.441406 156.605469 59.160156 Z M 153.011719 56.550781 L 155.433594 56.519531 L 155.433594 56.285156 C 155.421875 55.859375 155.394531 55.546875 155.355469 55.347656 C 155.324219 55.152344 155.25 54.972656 155.136719 54.816406 C 154.925781 54.515625 154.644531 54.371094 154.292969 54.378906 C 153.886719 54.378906 153.566406 54.578125 153.339844 54.972656 C 153.109375 55.371094 153 55.894531 153.011719 56.550781 Z M 161.980469 59.890625 L 161.964844 58.796875 C 161.453125 59.632812 160.777344 60.050781 159.933594 60.0625 C 159.277344 60.070312 158.746094 59.824219 158.339844 59.3125 C 157.941406 58.792969 157.738281 58.089844 157.730469 57.203125 C 157.71875 56.234375 157.933594 55.453125 158.371094 54.859375 C 158.808594 54.265625 159.394531 53.964844 160.136719 53.953125 C 160.824219 53.945312 161.40625 54.199219 161.886719 54.71875 L 161.855469 52.796875 C 161.855469 52.507812 161.832031 52.246094 161.792969 52.015625 C 161.761719 51.921875 161.714844 51.867188 161.652344 51.84375 C 161.597656 51.8125 161.488281 51.792969 161.324219 51.78125 L 160.949219 51.765625 L 160.855469 51.765625 L 160.855469 51.421875 L 162.902344 51.390625 L 163.027344 58.484375 C 163.027344 58.777344 163.050781 59.03125 163.105469 59.25 C 163.125 59.34375 163.167969 59.40625 163.230469 59.4375 C 163.292969 59.46875 163.40625 59.492188 163.574219 59.5 L 163.933594 59.515625 L 164.042969 59.53125 L 164.042969 59.859375 Z M 161.902344 55.140625 C 161.339844 54.734375 160.796875 54.539062 160.277344 54.546875 C 159.796875 54.546875 159.4375 54.75 159.199219 55.15625 C 158.957031 55.5625 158.84375 56.148438 158.855469 56.90625 C 158.863281 57.742188 158.988281 58.359375 159.230469 58.765625 C 159.480469 59.171875 159.839844 59.375 160.308594 59.375 C 160.609375 59.367188 160.917969 59.273438 161.230469 59.09375 C 161.542969 58.90625 161.78125 58.683594 161.949219 58.421875 Z M 169.699219 51.28125 L 169.824219 58.375 C 169.824219 58.667969 169.847656 58.921875 169.902344 59.140625 C 169.921875 59.226562 169.964844 59.289062 170.027344 59.328125 C 170.089844 59.359375 170.203125 59.382812 170.371094 59.390625 L 170.730469 59.40625 L 170.839844 59.421875 L 170.839844 59.75 L 167.792969 59.796875 L 167.792969 59.46875 L 167.886719 59.453125 L 168.246094 59.421875 C 168.453125 59.402344 168.582031 59.367188 168.636719 59.3125 C 168.6875 59.261719 168.71875 59.132812 168.730469 58.921875 L 168.761719 58.390625 L 168.652344 52.6875 L 168.621094 52.15625 C 168.609375 51.960938 168.574219 51.835938 168.511719 51.78125 C 168.449219 51.71875 168.3125 51.683594 168.105469 51.671875 L 167.746094 51.65625 L 167.652344 51.65625 L 167.652344 51.3125 Z M 173.199219 53.878906 L 173.277344 58.316406 C 173.277344 58.609375 173.300781 58.863281 173.355469 59.082031 C 173.375 59.167969 173.417969 59.230469 173.480469 59.269531 C 173.542969 59.300781 173.65625 59.324219 173.824219 59.332031 L 174.183594 59.347656 L 174.292969 59.363281 L 174.292969 59.691406 L 171.246094 59.738281 L 171.246094 59.410156 L 171.339844 59.394531 L 171.699219 59.363281 C 171.90625 59.34375 172.035156 59.308594 172.089844 59.253906 C 172.140625 59.203125 172.171875 59.074219 172.183594 58.863281 L 172.214844 58.332031 L 172.152344 55.285156 L 172.121094 54.753906 C 172.097656 54.546875 172.058594 54.417969 171.996094 54.363281 C 171.941406 54.300781 171.8125 54.265625 171.605469 54.253906 L 171.246094 54.238281 L 171.152344 54.238281 L 171.152344 53.910156 Z M 172.121094 52.832031 L 172.105469 51.769531 L 173.167969 51.753906 L 173.183594 52.816406 Z M 176.589844 54.914062 C 176.828125 54.519531 177.136719 54.210938 177.511719 53.992188 C 177.886719 53.765625 178.277344 53.644531 178.683594 53.632812 C 179.183594 53.632812 179.578125 53.800781 179.871094 54.132812 C 180.160156 54.457031 180.3125 54.90625 180.324219 55.476562 L 180.371094 58.195312 L 180.402344 58.726562 C 180.410156 58.9375 180.449219 59.066406 180.511719 59.117188 C 180.574219 59.160156 180.707031 59.191406 180.917969 59.210938 L 181.277344 59.226562 L 181.371094 59.242188 L 181.371094 59.570312 L 178.324219 59.617188 L 178.324219 59.289062 L 178.417969 59.273438 L 178.792969 59.242188 C 178.988281 59.222656 179.113281 59.1875 179.167969 59.132812 C 179.21875 59.082031 179.253906 58.953125 179.277344 58.742188 L 179.308594 58.210938 L 179.261719 55.664062 C 179.25 55.164062 179.175781 54.816406 179.042969 54.617188 C 178.90625 54.421875 178.671875 54.328125 178.339844 54.335938 C 177.859375 54.335938 177.277344 54.644531 176.589844 55.257812 L 176.652344 58.257812 C 176.652344 58.550781 176.675781 58.804688 176.730469 59.023438 C 176.75 59.109375 176.792969 59.171875 176.855469 59.210938 C 176.917969 59.242188 177.03125 59.265625 177.199219 59.273438 L 177.558594 59.289062 L 177.667969 59.304688 L 177.667969 59.632812 L 174.621094 59.679688 L 174.621094 59.351562 L 174.714844 59.335938 L 175.074219 59.304688 C 175.28125 59.285156 175.410156 59.25 175.464844 59.195312 C 175.515625 59.144531 175.546875 59.015625 175.558594 58.804688 L 175.589844 58.273438 L 175.527344 55.226562 L 175.496094 54.695312 C 175.472656 54.488281 175.433594 54.359375 175.371094 54.304688 C 175.316406 54.242188 175.1875 54.207031 174.980469 54.195312 L 174.621094 54.179688 L 174.527344 54.179688 L 174.527344 53.851562 L 176.574219 53.820312 Z M 186.632812 59.207031 C 185.953125 59.488281 185.339844 59.632812 184.789062 59.644531 C 183.933594 59.664062 183.230469 59.390625 182.679688 58.816406 C 182.136719 58.246094 181.859375 57.5 181.851562 56.582031 C 181.828125 55.699219 182.054688 54.972656 182.523438 54.410156 C 183 53.847656 183.617188 53.5625 184.367188 53.550781 C 185.0625 53.542969 185.601562 53.765625 185.976562 54.222656 C 186.359375 54.683594 186.5625 55.347656 186.585938 56.222656 L 186.585938 56.332031 L 183.023438 56.394531 C 183.03125 57.199219 183.152344 57.796875 183.382812 58.191406 C 183.734375 58.808594 184.261719 59.109375 184.960938 59.097656 C 185.617188 59.089844 186.167969 58.941406 186.617188 58.660156 Z M 183.023438 56.050781 L 185.445312 56.019531 L 185.445312 55.785156 C 185.433594 55.359375 185.40625 55.046875 185.367188 54.847656 C 185.335938 54.652344 185.261719 54.472656 185.148438 54.316406 C 184.9375 54.015625 184.65625 53.871094 184.304688 53.878906 C 183.898438 53.878906 183.578125 54.078125 183.351562 54.472656 C 183.121094 54.871094 183.011719 55.394531 183.023438 56.050781 Z M 183.023438 56.050781 "/>
<path fill="none" stroke-width="4" stroke-linecap="round" stroke-linejoin="round" stroke="rgb(100%, 100%, 100%)" stroke-opacity="1" stroke-miterlimit="10" d="M 74.644531 75.996094 C 74.089844 76.238281 73.550781 76.355469 73.019531 76.355469 C 72.164062 76.375 71.464844 76.105469 70.925781 75.542969 C 70.382812 74.972656 70.105469 74.230469 70.097656 73.324219 C 70.074219 72.410156 70.316406 71.675781 70.816406 71.121094 C 71.324219 70.558594 71.996094 70.269531 72.832031 70.246094 C 73.277344 70.246094 73.851562 70.332031 74.550781 70.496094 L 74.566406 71.886719 L 73.910156 71.886719 L 73.910156 71.792969 C 73.910156 71.367188 73.835938 71.085938 73.691406 70.949219 C 73.492188 70.722656 73.210938 70.605469 72.847656 70.605469 C 72.324219 70.617188 71.917969 70.855469 71.628906 71.324219 C 71.335938 71.792969 71.195312 72.429688 71.207031 73.230469 C 71.214844 74.042969 71.402344 74.683594 71.769531 75.152344 C 72.144531 75.613281 72.636719 75.835938 73.253906 75.824219 C 73.785156 75.816406 74.242188 75.722656 74.628906 75.542969 Z M 77.3125 67.667969 L 77.4375 74.761719 C 77.4375 75.054688 77.460938 75.308594 77.515625 75.527344 C 77.535156 75.613281 77.578125 75.675781 77.640625 75.714844 C 77.703125 75.746094 77.816406 75.769531 77.984375 75.777344 L 78.34375 75.792969 L 78.453125 75.808594 L 78.453125 76.136719 L 75.40625 76.183594 L 75.40625 75.855469 L 75.5 75.839844 L 75.859375 75.808594 C 76.066406 75.789062 76.195312 75.753906 76.25 75.699219 C 76.300781 75.648438 76.332031 75.519531 76.34375 75.308594 L 76.375 74.777344 L 76.265625 69.074219 L 76.234375 68.542969 C 76.222656 68.347656 76.1875 68.222656 76.125 68.167969 C 76.0625 68.105469 75.925781 68.070312 75.71875 68.058594 L 75.359375 68.042969 L 75.265625 68.042969 L 75.265625 67.699219 Z M 80.8125 70.269531 L 80.890625 74.707031 C 80.890625 75 80.914062 75.253906 80.96875 75.472656 C 80.988281 75.558594 81.03125 75.621094 81.09375 75.660156 C 81.15625 75.691406 81.269531 75.714844 81.4375 75.722656 L 81.796875 75.738281 L 81.90625 75.753906 L 81.90625 76.082031 L 78.859375 76.128906 L 78.859375 75.800781 L 78.953125 75.785156 L 79.3125 75.753906 C 79.519531 75.734375 79.648438 75.699219 79.703125 75.644531 C 79.753906 75.59375 79.785156 75.464844 79.796875 75.253906 L 79.828125 74.722656 L 79.765625 71.675781 L 79.734375 71.144531 C 79.710938 70.9375 79.671875 70.808594 79.609375 70.753906 C 79.554688 70.691406 79.425781 70.65625 79.21875 70.644531 L 78.859375 70.628906 L 78.765625 70.628906 L 78.765625 70.300781 Z M 79.734375 69.222656 L 79.71875 68.160156 L 80.78125 68.144531 L 80.796875 69.207031 Z M 84.265625 75.382812 L 84.296875 76.773438 C 84.296875 77.0625 84.328125 77.320312 84.390625 77.539062 C 84.410156 77.621094 84.445312 77.679688 84.5 77.710938 C 84.5625 77.742188 84.675781 77.761719 84.84375 77.773438 L 85.203125 77.804688 L 85.3125 77.804688 L 85.3125 78.148438 L 82.265625 78.195312 L 82.265625 77.851562 L 82.359375 77.851562 L 82.71875 77.804688 C 82.925781 77.792969 83.054688 77.757812 83.109375 77.695312 C 83.171875 77.640625 83.203125 77.511719 83.203125 77.304688 L 83.234375 76.789062 L 83.140625 71.617188 L 83.109375 71.085938 C 83.085938 70.878906 83.046875 70.75 82.984375 70.695312 C 82.929688 70.632812 82.800781 70.597656 82.59375 70.585938 L 82.234375 70.570312 L 82.140625 70.570312 L 82.140625 70.242188 L 84.1875 70.210938 L 84.203125 71.304688 C 84.722656 70.472656 85.398438 70.046875 86.234375 70.023438 C 86.898438 70.015625 87.429688 70.269531 87.828125 70.789062 C 88.222656 71.300781 88.429688 71.992188 88.453125 72.867188 C 88.460938 73.847656 88.25 74.640625 87.8125 75.242188 C 87.375 75.835938 86.78125 76.136719 86.03125 76.148438 C 85.351562 76.15625 84.765625 75.90625 84.265625 75.382812 Z M 84.265625 74.960938 C 84.835938 75.367188 85.382812 75.566406 85.90625 75.554688 C 86.375 75.546875 86.726562 75.335938 86.96875 74.929688 C 87.207031 74.515625 87.320312 73.929688 87.3125 73.179688 C 87.300781 72.347656 87.171875 71.726562 86.921875 71.320312 C 86.679688 70.914062 86.320312 70.71875 85.84375 70.726562 C 85.550781 70.726562 85.257812 70.816406 84.96875 70.992188 C 84.675781 71.160156 84.421875 71.390625 84.203125 71.679688 Z M 91.328125 75.265625 L 91.359375 76.65625 C 91.359375 76.945312 91.390625 77.203125 91.453125 77.421875 C 91.472656 77.503906 91.507812 77.5625 91.5625 77.59375 C 91.625 77.625 91.738281 77.644531 91.90625 77.65625 L 92.265625 77.6875 L 92.375 77.6875 L 92.375 78.03125 L 89.328125 78.078125 L 89.328125 77.734375 L 89.421875 77.734375 L 89.78125 77.6875 C 89.988281 77.675781 90.117188 77.640625 90.171875 77.578125 C 90.234375 77.523438 90.265625 77.394531 90.265625 77.1875 L 90.296875 76.671875 L 90.203125 71.5 L 90.171875 70.96875 C 90.148438 70.761719 90.109375 70.632812 90.046875 70.578125 C 89.992188 70.515625 89.863281 70.480469 89.65625 70.46875 L 89.296875 70.453125 L 89.203125 70.453125 L 89.203125 70.125 L 91.25 70.09375 L 91.265625 71.1875 C 91.785156 70.355469 92.460938 69.929688 93.296875 69.90625 C 93.960938 69.898438 94.492188 70.152344 94.890625 70.671875 C 95.285156 71.183594 95.492188 71.875 95.515625 72.75 C 95.523438 73.730469 95.3125 74.523438 94.875 75.125 C 94.4375 75.71875 93.84375 76.019531 93.09375 76.03125 C 92.414062 76.039062 91.828125 75.789062 91.328125 75.265625 Z M 91.328125 74.84375 C 91.898438 75.25 92.445312 75.449219 92.96875 75.4375 C 93.4375 75.429688 93.789062 75.21875 94.03125 74.8125 C 94.269531 74.398438 94.382812 73.8125 94.375 73.0625 C 94.363281 72.230469 94.234375 71.609375 93.984375 71.203125 C 93.742188 70.796875 93.382812 70.601562 92.90625 70.609375 C 92.613281 70.609375 92.320312 70.699219 92.03125 70.875 C 91.738281 71.042969 91.484375 71.273438 91.265625 71.5625 Z M 101.421875 75.476562 C 100.742188 75.757812 100.128906 75.902344 99.578125 75.914062 C 98.722656 75.933594 98.019531 75.660156 97.46875 75.085938 C 96.925781 74.515625 96.648438 73.769531 96.640625 72.851562 C 96.617188 71.96875 96.84375 71.242188 97.3125 70.679688 C 97.789062 70.117188 98.40625 69.832031 99.15625 69.820312 C 99.851562 69.8125 100.390625 70.035156 100.765625 70.492188 C 101.148438 70.953125 101.351562 71.617188 101.375 72.492188 L 101.375 72.601562 L 97.8125 72.664062 C 97.820312 73.46875 97.941406 74.066406 98.171875 74.460938 C 98.523438 75.078125 99.050781 75.378906 99.75 75.367188 C 100.40625 75.359375 100.957031 75.210938 101.40625 74.929688 Z M 97.8125 72.320312 L 100.234375 72.289062 L 100.234375 72.054688 C 100.222656 71.628906 100.195312 71.316406 100.15625 71.117188 C 100.125 70.921875 100.050781 70.742188 99.9375 70.585938 C 99.726562 70.285156 99.445312 70.140625 99.09375 70.148438 C 98.6875 70.148438 98.367188 70.347656 98.140625 70.742188 C 97.910156 71.140625 97.800781 71.664062 97.8125 72.320312 Z M 106.78125 75.660156 L 106.765625 74.566406 C 106.253906 75.402344 105.578125 75.820312 104.734375 75.832031 C 104.078125 75.839844 103.546875 75.59375 103.140625 75.082031 C 102.742188 74.5625 102.539062 73.859375 102.53125 72.972656 C 102.519531 72.003906 102.734375 71.222656 103.171875 70.628906 C 103.609375 70.035156 104.195312 69.734375 104.9375 69.722656 C 105.625 69.714844 106.207031 69.96875 106.6875 70.488281 L 106.65625 68.566406 C 106.65625 68.277344 106.632812 68.015625 106.59375 67.785156 C 106.5625 67.691406 106.515625 67.636719 106.453125 67.613281 C 106.398438 67.582031 106.289062 67.5625 106.125 67.550781 L 105.75 67.535156 L 105.65625 67.535156 L 105.65625 67.191406 L 107.703125 67.160156 L 107.828125 74.253906 C 107.828125 74.546875 107.851562 74.800781 107.90625 75.019531 C 107.925781 75.113281 107.96875 75.175781 108.03125 75.207031 C 108.09375 75.238281 108.207031 75.261719 108.375 75.269531 L 108.734375 75.285156 L 108.84375 75.300781 L 108.84375 75.628906 Z M 106.703125 70.910156 C 106.140625 70.503906 105.597656 70.308594 105.078125 70.316406 C 104.597656 70.316406 104.238281 70.519531 104 70.925781 C 103.757812 71.332031 103.644531 71.917969 103.65625 72.675781 C 103.664062 73.511719 103.789062 74.128906 104.03125 74.535156 C 104.28125 74.941406 104.640625 75.144531 105.109375 75.144531 C 105.410156 75.136719 105.71875 75.042969 106.03125 74.863281 C 106.34375 74.675781 106.582031 74.453125 106.75 74.191406 Z M 114.496094 67.050781 L 114.621094 74.144531 C 114.621094 74.4375 114.644531 74.691406 114.699219 74.910156 C 114.71875 74.996094 114.761719 75.058594 114.824219 75.097656 C 114.886719 75.128906 115 75.152344 115.167969 75.160156 L 115.527344 75.175781 L 115.636719 75.191406 L 115.636719 75.519531 L 112.589844 75.566406 L 112.589844 75.238281 L 112.683594 75.222656 L 113.042969 75.191406 C 113.25 75.171875 113.378906 75.136719 113.433594 75.082031 C 113.484375 75.03125 113.515625 74.902344 113.527344 74.691406 L 113.558594 74.160156 L 113.449219 68.457031 L 113.417969 67.925781 C 113.40625 67.730469 113.371094 67.605469 113.308594 67.550781 C 113.246094 67.488281 113.109375 67.453125 112.902344 67.441406 L 112.542969 67.425781 L 112.449219 67.425781 L 112.449219 67.082031 Z M 117.996094 69.648438 L 118.074219 74.085938 C 118.074219 74.378906 118.097656 74.632812 118.152344 74.851562 C 118.171875 74.9375 118.214844 75 118.277344 75.039062 C 118.339844 75.070312 118.453125 75.09375 118.621094 75.101562 L 118.980469 75.117188 L 119.089844 75.132812 L 119.089844 75.460938 L 116.042969 75.507812 L 116.042969 75.179688 L 116.136719 75.164062 L 116.496094 75.132812 C 116.703125 75.113281 116.832031 75.078125 116.886719 75.023438 C 116.9375 74.972656 116.96875 74.84375 116.980469 74.632812 L 117.011719 74.101562 L 116.949219 71.054688 L 116.917969 70.523438 C 116.894531 70.316406 116.855469 70.1875 116.792969 70.132812 C 116.738281 70.070312 116.609375 70.035156 116.402344 70.023438 L 116.042969 70.007812 L 115.949219 70.007812 L 115.949219 69.679688 Z M 116.917969 68.601562 L 116.902344 67.539062 L 117.964844 67.523438 L 117.980469 68.585938 Z M 121.386719 70.6875 C 121.625 70.292969 121.933594 69.984375 122.308594 69.765625 C 122.683594 69.539062 123.074219 69.417969 123.480469 69.40625 C 123.980469 69.40625 124.375 69.574219 124.667969 69.90625 C 124.957031 70.230469 125.109375 70.679688 125.121094 71.25 L 125.167969 73.96875 L 125.199219 74.5 C 125.207031 74.710938 125.246094 74.839844 125.308594 74.890625 C 125.371094 74.933594 125.503906 74.964844 125.714844 74.984375 L 126.074219 75 L 126.167969 75.015625 L 126.167969 75.34375 L 123.121094 75.390625 L 123.121094 75.0625 L 123.214844 75.046875 L 123.589844 75.015625 C 123.785156 74.996094 123.910156 74.960938 123.964844 74.90625 C 124.015625 74.855469 124.050781 74.726562 124.074219 74.515625 L 124.105469 73.984375 L 124.058594 71.4375 C 124.046875 70.9375 123.972656 70.589844 123.839844 70.390625 C 123.703125 70.195312 123.46875 70.101562 123.136719 70.109375 C 122.65625 70.109375 122.074219 70.417969 121.386719 71.03125 L 121.449219 74.03125 C 121.449219 74.324219 121.472656 74.578125 121.527344 74.796875 C 121.546875 74.882812 121.589844 74.945312 121.652344 74.984375 C 121.714844 75.015625 121.828125 75.039062 121.996094 75.046875 L 122.355469 75.0625 L 122.464844 75.078125 L 122.464844 75.40625 L 119.417969 75.453125 L 119.417969 75.125 L 119.511719 75.109375 L 119.871094 75.078125 C 120.078125 75.058594 120.207031 75.023438 120.261719 74.96875 C 120.3125 74.917969 120.34375 74.789062 120.355469 74.578125 L 120.386719 74.046875 L 120.324219 71 L 120.292969 70.46875 C 120.269531 70.261719 120.230469 70.132812 120.167969 70.078125 C 120.113281 70.015625 119.984375 69.980469 119.777344 69.96875 L 119.417969 69.953125 L 119.324219 69.953125 L 119.324219 69.625 L 121.371094 69.59375 Z M 131.433594 74.976562 C 130.753906 75.257812 130.140625 75.402344 129.589844 75.414062 C 128.734375 75.433594 128.03125 75.160156 127.480469 74.585938 C 126.9375 74.015625 126.660156 73.269531 126.652344 72.351562 C 126.628906 71.46875 126.855469 70.742188 127.324219 70.179688 C 127.800781 69.617188 128.417969 69.332031 129.167969 69.320312 C 129.863281 69.3125 130.402344 69.535156 130.777344 69.992188 C 131.160156 70.453125 131.363281 71.117188 131.386719 71.992188 L 131.386719 72.101562 L 127.824219 72.164062 C 127.832031 72.96875 127.953125 73.566406 128.183594 73.960938 C 128.535156 74.578125 129.0625 74.878906 129.761719 74.867188 C 130.417969 74.859375 130.96875 74.710938 131.417969 74.429688 Z M 127.824219 71.820312 L 130.246094 71.789062 L 130.246094 71.554688 C 130.234375 71.128906 130.207031 70.816406 130.167969 70.617188 C 130.136719 70.421875 130.0625 70.242188 129.949219 70.085938 C 129.738281 69.785156 129.457031 69.640625 129.105469 69.648438 C 128.699219 69.648438 128.378906 69.847656 128.152344 70.242188 C 127.921875 70.640625 127.8125 71.164062 127.824219 71.820312 Z M 127.824219 71.820312 "/>
<path fill-rule="nonzero" fill="rgb(0%, 0%, 0%)" fill-opacity="1" d="M 74.644531 75.996094 C 74.089844 76.238281 73.550781 76.355469 73.019531 76.355469 C 72.164062 76.375 71.464844 76.105469 70.925781 75.542969 C 70.382812 74.972656 70.105469 74.230469 70.097656 73.324219 C 70.074219 72.410156 70.316406 71.675781 70.816406 71.121094 C 71.324219 70.558594 71.996094 70.269531 72.832031 70.246094 C 73.277344 70.246094 73.851562 70.332031 74.550781 70.496094 L 74.566406 71.886719 L 73.910156 71.886719 L 73.910156 71.792969 C 73.910156 71.367188 73.835938 71.085938 73.691406 70.949219 C 73.492188 70.722656 73.210938 70.605469 72.847656 70.605469 C 72.324219 70.617188 71.917969 70.855469 71.628906 71.324219 C 71.335938 71.792969 71.195312 72.429688 71.207031 73.230469 C 71.214844 74.042969 71.402344 74.683594 71.769531 75.152344 C 72.144531 75.613281 72.636719 75.835938 73.253906 75.824219 C 73.785156 75.816406 74.242188 75.722656 74.628906 75.542969 Z M 77.3125 67.667969 L 77.4375 74.761719 C 77.4375 75.054688 77.460938 75.308594 77.515625 75.527344 C 77.535156 75.613281 77.578125 75.675781 77.640625 75.714844 C 77.703125 75.746094 77.816406 75.769531 77.984375 75.777344 L 78.34375 75.792969 L 78.453125 75.808594 L 78.453125 76.136719 L 75.40625 76.183594 L 75.40625 75.855469 L 75.5 75.839844 L 75.859375 75.808594 C 76.066406 75.789062 76.195312 75.753906 76.25 75.699219 C 76.300781 75.648438 76.332031 75.519531 76.34375 75.308594 L 76.375 74.777344 L 76.265625 69.074219 L 76.234375 68.542969 C 76.222656 68.347656 76.1875 68.222656 76.125 68.167969 C 76.0625 68.105469 75.925781 68.070312 75.71875 68.058594 L 75.359375 68.042969 L 75.265625 68.042969 L 75.265625 67.699219 Z M 80.8125 70.269531 L 80.890625 74.707031 C 80.890625 75 80.914062 75.253906 80.96875 75.472656 C 80.988281 75.558594 81.03125 75.621094 81.09375 75.660156 C 81.15625 75.691406 81.269531 75.714844 81.4375 75.722656 L 81.796875 75.738281 L 81.90625 75.753906 L 81.90625 76.082031 L 78.859375 76.128906 L 78.859375 75.800781 L 78.953125 75.785156 L 79.3125 75.753906 C 79.519531 75.734375 79.648438 75.699219 79.703125 75.644531 C 79.753906 75.59375 79.785156 75.464844 79.796875 75.253906 L 79.828125 74.722656 L 79.765625 71.675781 L 79.734375 71.144531 C 79.710938 70.9375 79.671875 70.808594 79.609375 70.753906 C 79.554688 70.691406 79.425781 70.65625 79.21875 70.644531 L 78.859375 70.628906 L 78.765625 70.628906 L 78.765625 70.300781 Z M 79.734375 69.222656 L 79.71875 68.160156 L 80.78125 68.144531 L 80.796875 69.207031 Z M 84.265625 75.382812 L 84.296875 76.773438 C 84.296875 77.0625 84.328125 77.320312 84.390625 77.539062 C 84.410156 77.621094 84.445312 77.679688 84.5 77.710938 C 84.5625 77.742188 84.675781 77.761719 84.84375 77.773438 L 85.203125 77.804688 L 85.3125 77.804688 L 85.3125 78.148438 L 82.265625 78.195312 L 82.265625 77.851562 L 82.359375 77.851562 L 82.71875 77.804688 C 82.925781 77.792969 83.054688 77.757812 83.109375 77.695312 C 83.171875 77.640625 83.203125 77.511719 83.203125 77.304688 L 83.234375 76.789062 L 83.140625 71.617188 L 83.109375 71.085938 C 83.085938 70.878906 83.046875 70.75 82.984375 70.695312 C 82.929688 70.632812 82.800781 70.597656 82.59375 70.585938 L 82.234375 70.570312 L 82.140625 70.570312 L 82.140625 70.242188 L 84.1875 70.210938 L 84.203125 71.304688 C 84.722656 70.472656 85.398438 70.046875 86.234375 70.023438 C 86.898438 70.015625 87.429688 70.269531 87.828125 70.789062 C 88.222656 71.300781 88.429688 71.992188 88.453125 72.867188 C 88.460938 73.847656 88.25 74.640625 87.8125 75.242188 C 87.375 75.835938 86.78125 76.136719 86.03125 76.148438 C 85.351562 76.15625 84.765625 75.90625 84.265625 75.382812 Z M 84.265625 74.960938 C 84.835938 75.367188 85.382812 75.566406 85.90625 75.554688 C 86.375 75.546875 86.726562 75.335938 86.96875 74.929688 C 87.207031 74.515625 87.320312 73.929688 87.3125 73.179688 C 87.300781 72.347656 87.171875 71.726562 86.921875 71.320312 C 86.679688 70.914062 86.320312 70.71875 85.84375 70.726562 C 85.550781 70.726562 85.257812 70.816406 84.96875 70.992188 C 84.675781 71.160156 84.421875 71.390625 84.203125 71.679688 Z M 91.328125 75.265625 L 91.359375 76.65625 C 91.359375 76.945312 91.390625 77.203125 91.453125 77.421875 C 91.472656 77.503906 91.507812 77.5625 91.5625 77.59375 C 91.625 77.625 91.738281 77.644531 91.90625 77.65625 L 92.265625 77.6875 L 92.375 77.6875 L 92.375 78.03125 L 89.328125 78.078125 L 89.328125 77.734375 L 89.421875 77.734375 L 89.78125 77.6875 C 89.988281 77.675781 90.117188 77.640625 90.171875 77.578125 C 90.234375 77.523438 90.265625 77.394531 90.265625 77.1875 L 90.296875 76.671875 L 90.203125 71.5 L 90.171875 70.96875 C 90.148438 70.761719 90.109375 70.632812 90.046875 70.578125 C 89.992188 70.515625 89.863281 70.480469 89.65625 70.46875 L 89.296875 70.453125 L 89.203125 70.453125 L 89.203125 70.125 L 91.25 70.09375 L 91.265625 71.1875 C 91.785156 70.355469 92.460938 69.929688 93.296875 69.90625 C 93.960938 69.898438 94.492188 70.152344 94.890625 70.671875 C 95.285156 71.183594 95.492188 71.875 95.515625 72.75 C 95.523438 73.730469 95.3125 74.523438 94.875 75.125 C 94.4375 75.71875 93.84375 76.019531 93.09375 76.03125 C 92.414062 76.039062 91.828125 75.789062 91.328125 75.265625 Z M 91.328125 74.84375 C 91.898438 75.25 92.445312 75.449219 92.96875 75.4375 C 93.4375 75.429688 93.789062 75.21875 94.03125 74.8125 C 94.269531 74.398438 94.382812 73.8125 94.375 73.0625 C 94.363281 72.230469 94.234375 71.609375 93.984375 71.203125 C 93.742188 70.796875 93.382812 70.601562 92.90625 70.609375 C 92.613281 70.609375 92.320312 70.699219 92.03125 70.875 C 91.738281 71.042969 91.484375 71.273438 91.265625 71.5625 Z M 101.421875 75.476562 C 100.742188 75.757812 100.128906 75.902344 99.578125 75.914062 C 98.722656 75.933594 98.019531 75.660156 97.46875 75.085938 C 96.925781 74.515625 96.648438 73.769531 96.640625 72.851562 C 96.617188 71.96875 96.84375 71.242188 97.3125 70.679688 C 97.789062 70.117188 98.40625 69.832031 99.15625 69.820312 C 99.851562 69.8125 100.390625 70.035156 100.765625 70.492188 C 101.148438 70.953125 101.351562 71.617188 101.375 72.492188 L 101.375 72.601562 L 97.8125 72.664062 C 97.820312 73.46875 97.941406 74.066406 98.171875 74.460938 C 98.523438 75.078125 99.050781 75.378906 99.75 75.367188 C 100.40625 75.359375 100.957031 75.210938 101.40625 74.929688 Z M 97.8125 72.320312 L 100.234375 72.289062 L 100.234375 72.054688 C 100.222656 71.628906 100.195312 71.316406 100.15625 71.117188 C 100.125 70.921875 100.050781 70.742188 99.9375 70.585938 C 99.726562 70.285156 99.445312 70.140625 99.09375 70.148438 C 98.6875 70.148438 98.367188 70.347656 98.140625 70.742188 C 97.910156 71.140625 97.800781 71.664062 97.8125 72.320312 Z M 106.78125 75.660156 L 106.765625 74.566406 C 106.253906 75.402344 105.578125 75.820312 104.734375 75.832031 C 104.078125 75.839844 103.546875 75.59375 103.140625 75.082031 C 102.742188 74.5625 102.539062 73.859375 102.53125 72.972656 C 102.519531 72.003906 102.734375 71.222656 103.171875 70.628906 C 103.609375 70.035156 104.195312 69.734375 104.9375 69.722656 C 105.625 69.714844 106.207031 69.96875 106.6875 70.488281 L 106.65625 68.566406 C 106.65625 68.277344 106.632812 68.015625 106.59375 67.785156 C 106.5625 67.691406 106.515625 67.636719 106.453125 67.613281 C 106.398438 67.582031 106.289062 67.5625 106.125 67.550781 L 105.75 67.535156 L 105.65625 67.535156 L 105.65625 67.191406 L 107.703125 67.160156 L 107.828125 74.253906 C 107.828125 74.546875 107.851562 74.800781 107.90625 75.019531 C 107.925781 75.113281 107.96875 75.175781 108.03125 75.207031 C 108.09375 75.238281 108.207031 75.261719 108.375 75.269531 L 108.734375 75.285156 L 108.84375 75.300781 L 108.84375 75.628906 Z M 106.703125 70.910156 C 106.140625 70.503906 105.597656 70.308594 105.078125 70.316406 C 104.597656 70.316406 104.238281 70.519531 104 70.925781 C 103.757812 71.332031 103.644531 71.917969 103.65625 72.675781 C 103.664062 73.511719 103.789062 74.128906 104.03125 74.535156 C 104.28125 74.941406 104.640625 75.144531 105.109375 75.144531 C 105.410156 75.136719 105.71875 75.042969 106.03125 74.863281 C 106.34375 74.675781 106.582031 74.453125 106.75 74.191406 Z M 114.496094 67.050781 L 114.621094 74.144531 C 114.621094 74.4375 114.644531 74.691406 114.699219 74.910156 C 114.71875 74.996094 114.761719 75.058594 114.824219 75.097656 C 114.886719 75.128906 115 75.152344 115.167969 75.160156 L 115.527344 75.175781 L 115.636719 75.191406 L 115.636719 75.519531 L 112.589844 75.566406 L 112.589844 75.238281 L 112.683594 75.222656 L 113.042969 75.191406 C 113.25 75.171875 113.378906 75.136719 113.433594 75.082031 C 113.484375 75.03125 113.515625 74.902344 113.527344 74.691406 L 113.558594 74.160156 L 113.449219 68.457031 L 113.417969 67.925781 C 113.40625 67.730469 113.371094 67.605469 113.308594 67.550781 C 113.246094 67.488281 113.109375 67.453125 112.902344 67.441406 L 112.542969 67.425781 L 112.449219 67.425781 L 112.449219 67.082031 Z M 117.996094 69.648438 L 118.074219 74.085938 C 118.074219 74.378906 118.097656 74.632812 118.152344 74.851562 C 118.171875 74.9375 118.214844 75 118.277344 75.039062 C 118.339844 75.070312 118.453125 75.09375 118.621094 75.101562 L 118.980469 75.117188 L 119.089844 75.132812 L 119.089844 75.460938 L 116.042969 75.507812 L 116.042969 75.179688 L 116.136719 75.164062 L 116.496094 75.132812 C 116.703125 75.113281 116.832031 75.078125 116.886719 75.023438 C 116.9375 74.972656 116.96875 74.84375 116.980469 74.632812 L 117.011719 74.101562 L 116.949219 71.054688 L 116.917969 70.523438 C 116.894531 70.316406 116.855469 70.1875 116.792969 70.132812 C 116.738281 70.070312 116.609375 70.035156 116.402344 70.023438 L 116.042969 70.007812 L 115.949219 70.007812 L 115.949219 69.679688 Z M 116.917969 68.601562 L 116.902344 67.539062 L 117.964844 67.523438 L 117.980469 68.585938 Z M 121.386719 70.6875 C 121.625 70.292969 121.933594 69.984375 122.308594 69.765625 C 122.683594 69.539062 123.074219 69.417969 123.480469 69.40625 C 123.980469 69.40625 124.375 69.574219 124.667969 69.90625 C 124.957031 70.230469 125.109375 70.679688 125.121094 71.25 L 125.167969 73.96875 L 125.199219 74.5 C 125.207031 74.710938 125.246094 74.839844 125.308594 74.890625 C 125.371094 74.933594 125.503906 74.964844 125.714844 74.984375 L 126.074219 75 L 126.167969 75.015625 L 126.167969 75.34375 L 123.121094 75.390625 L 123.121094 75.0625 L 123.214844 75.046875 L 123.589844 75.015625 C 123.785156 74.996094 123.910156 74.960938 123.964844 74.90625 C 124.015625 74.855469 124.050781 74.726562 124.074219 74.515625 L 124.105469 73.984375 L 124.058594 71.4375 C 124.046875 70.9375 123.972656 70.589844 123.839844 70.390625 C 123.703125 70.195312 123.46875 70.101562 123.136719 70.109375 C 122.65625 70.109375 122.074219 70.417969 121.386719 71.03125 L 121.449219 74.03125 C 121.449219 74.324219 121.472656 74.578125 121.527344 74.796875 C 121.546875 74.882812 121.589844 74.945312 121.652344 74.984375 C 121.714844 75.015625 121.828125 75.039062 121.996094 75.046875 L 122.355469 75.0625 L 122.464844 75.078125 L 122.464844 75.40625 L 119.417969 75.453125 L 119.417969 75.125 L 119.511719 75.109375 L 119.871094 75.078125 C 120.078125 75.058594 120.207031 75.023438 120.261719 74.96875 C 120.3125 74.917969 120.34375 74.789062 120.355469 74.578125 L 120.386719 74.046875 L 120.324219 71 L 120.292969 70.46875 C 120.269531 70.261719 120.230469 70.132812 120.167969 70.078125 C 120.113281 70.015625 119.984375 69.980469 119.777344 69.96875 L 119.417969 69.953125 L 119.324219 69.953125 L 119.324219 69.625 L 121.371094 69.59375 Z M 131.433594 74.976562 C 130.753906 75.257812 130.140625 75.402344 129.589844 75.414062 C 128.734375 75.433594 128.03125 75.160156 127.480469 74.585938 C 126.9375 74.015625 126.660156 73.269531 126.652344 72.351562 C 126.628906 71.46875 126.855469 70.742188 127.324219 70.179688 C 127.800781 69.617188 128.417969 69.332031 129.167969 69.320312 C 129.863281 69.3125 130.402344 69.535156 130.777344 69.992188 C 131.160156 70.453125 131.363281 71.117188 131.386719 71.992188 L 131.386719 72.101562 L 127.824219 72.164062 C 127.832031 72.96875 127.953125 73.566406 128.183594 73.960938 C 128.535156 74.578125 129.0625 74.878906 129.761719 74.867188 C 130.417969 74.859375 130.96875 74.710938 131.417969 74.429688 Z M 127.824219 71.820312 L 130.246094 71.789062 L 130.246094 71.554688 C 130.234375 71.128906 130.207031 70.816406 130.167969 70.617188 C 130.136719 70.421875 130.0625 70.242188 129.949219 70.085938 C 129.738281 69.785156 129.457031 69.640625 129.105469 69.648438 C 128.699219 69.648438 128.378906 69.847656 128.152344 70.242188 C 127.921875 70.640625 127.8125 71.164062 127.824219 71.820312 Z M 127.824219 71.820312 "/>
</svg>
