<?xml version="1.0" encoding="UTF-8"?>
<svg xmlns="http://www.w3.org/2000/svg" xmlns:xlink="http://www.w3.org/1999/xlink" width="300" height="100" viewBox="0 0 300 100">
<defs>
<filter id="filter-remove-color-and-invert-alpha" x="0%" y="0%" width="100%" height="100%">
<feColorMatrix color-interpolation-filters="sRGB" values="0 0 0 0 1 0 0 0 0 1 0 0 0 0 1 0 0 0 -1 1"/>
</filter>
<filter id="filter-0" x="0%" y="0%" width="100%" height="100%">
<feImage xlink:href="#compositing-group-1" result="source" x="0" y="0" width="360" height="120"/>
<feImage xlink:href="#compositing-group-2" result="destination" x="0" y="0" width="360" height="120"/>
<feComposite in="source" in2="destination" operator="arithmetic" k1="0" k2="1" k3="1" k4="0" color-interpolation-filters="sRGB"/>
</filter>
<g id="compositing-group-0" transform="translate(30, 10)">
<rect x="-30" y="-10" width="360" height="120" fill="rgb(0%, 0%, 0%)" fill-opacity="0"/>
<rect x="-30" y="-10" width="360" height="120" fill="rgb(100%, 100%, 100%)" fill-opacity="1"/>
</g>
<mask id="mask-0">
<use xlink:href="#compositing-group-0"/>
</mask>
<mask id="mask-1">
<use xlink:href="#compositing-group-0" filter="url(#filter-remove-color-and-invert-alpha)"/>
</mask>
<g id="compositing-group-1" mask="url(#mask-0)">
<g transform="translate(30, 10)">
<rect x="-30" y="-10" width="360" height="120" fill="rgb(100%, 100%, 100%)" fill-opacity="1"/>
</g>
</g>
<g id="compositing-group-2" mask="url(#mask-1)">
<g transform="translate(30, 10)">
</g>
</g>
</defs>
<g filter="url(#filter-0)" transform="translate(-30, -10)">
<rect x="0" y="0" width="360" height="120" fill="rgb(0%, 0%, 0%)" fill-opacity="1"/>
</g>
<path fill-rule="nonzero" fill="rgb(100%, 0%, 0%)" fill-opacity="1" d="M 77.75 74.25 C 77.75 77.582031 72.75 77.582031 72.75 74.25 C 72.75 70.917969 77.75 70.917969 77.75 74.25 "/>
<path fill="none" stroke-width="1" stroke-linecap="round" stroke-linejoin="round" stroke="rgb(100%, 0%, 0%)" stroke-opacity="1" stroke-miterlimit="10" d="M 100 49.5 L 124.75 24.75 L 248.5 24.75 "/>
<path fill-rule="nonzero" fill="rgb(0%, 0%, 0%)" fill-opacity="1" d="M 103.125 39.644531 L 108.59375 45.113281 C 108.820312 45.34375 109.046875 45.527344 109.265625 45.660156 C 109.359375 45.714844 109.429688 45.734375 109.484375 45.722656 C 109.546875 45.703125 109.648438 45.628906 109.796875 45.503906 L 110.109375 45.222656 L 110.203125 45.160156 L 110.453125 45.410156 L 108.09375 47.769531 L 107.84375 47.519531 L 107.90625 47.425781 L 108.171875 47.128906 C 108.316406 46.964844 108.390625 46.832031 108.390625 46.738281 C 108.390625 46.644531 108.316406 46.527344 108.171875 46.378906 L 107.78125 45.925781 L 103.390625 41.535156 L 102.953125 41.160156 C 102.789062 40.996094 102.664062 40.917969 102.578125 40.925781 C 102.484375 40.925781 102.355469 41 102.1875 41.144531 L 101.890625 41.410156 L 101.8125 41.488281 L 101.546875 41.222656 Z M 113.164062 41.449219 C 113.164062 41.992188 113.105469 42.425781 112.992188 42.746094 C 112.886719 43.058594 112.703125 43.347656 112.445312 43.605469 C 112.070312 43.980469 111.632812 44.179688 111.132812 44.199219 C 110.640625 44.210938 110.21875 44.035156 109.851562 43.667969 C 109.425781 43.242188 109.25 42.730469 109.320312 42.136719 C 109.351562 41.773438 109.484375 41.414062 109.710938 41.058594 C 109.929688 40.695312 110.289062 40.261719 110.789062 39.761719 L 110.945312 39.605469 L 110.382812 39.042969 C 109.675781 38.335938 109.054688 38.246094 108.523438 38.777344 C 108.273438 39.027344 108.125 39.324219 108.070312 39.667969 C 108.0625 39.886719 108.179688 40.152344 108.429688 40.464844 L 108.507812 40.542969 L 107.945312 41.105469 L 107.132812 40.292969 C 107.457031 39.472656 107.863281 38.816406 108.351562 38.324219 C 108.78125 37.898438 109.226562 37.648438 109.695312 37.574219 C 109.988281 37.535156 110.238281 37.554688 110.445312 37.636719 C 110.652344 37.722656 110.898438 37.902344 111.179688 38.183594 L 113.179688 40.183594 C 113.542969 40.550781 113.828125 40.773438 114.039062 40.855469 C 114.246094 40.941406 114.429688 40.902344 114.585938 40.746094 C 114.625 40.707031 114.683594 40.617188 114.757812 40.480469 L 115.085938 40.777344 C 114.949219 41.039062 114.804688 41.246094 114.648438 41.402344 C 114.242188 41.808594 113.746094 41.824219 113.164062 41.449219 Z M 112.898438 41.558594 L 111.195312 39.855469 L 111.007812 40.042969 C 110.53125 40.523438 110.253906 40.996094 110.179688 41.464844 C 110.109375 41.933594 110.25 42.347656 110.601562 42.699219 C 110.859375 42.960938 111.15625 43.089844 111.492188 43.089844 C 111.824219 43.089844 112.117188 42.964844 112.367188 42.714844 C 112.605469 42.476562 112.78125 42.089844 112.898438 41.558594 Z M 115.925781 40.0625 L 110.394531 34.53125 L 109.972656 34.140625 C 109.796875 33.984375 109.667969 33.90625 109.582031 33.90625 C 109.5 33.90625 109.371094 33.984375 109.191406 34.140625 L 108.910156 34.390625 L 108.832031 34.46875 L 108.566406 34.203125 L 110.144531 32.625 L 113.035156 35.515625 C 112.816406 34.484375 113.03125 33.648438 113.675781 33 C 114.1875 32.492188 114.792969 32.28125 115.488281 32.375 C 116.183594 32.46875 116.871094 32.855469 117.550781 33.53125 C 118.300781 34.28125 118.726562 35.058594 118.832031 35.859375 C 118.933594 36.664062 118.707031 37.34375 118.144531 37.90625 C 117.613281 38.4375 116.957031 38.6875 116.175781 38.65625 L 116.113281 38.71875 L 116.597656 39.390625 Z M 115.863281 38.34375 C 116.601562 38.230469 117.175781 37.96875 117.582031 37.5625 C 117.945312 37.199219 118.070312 36.765625 117.957031 36.265625 C 117.839844 35.765625 117.492188 35.226562 116.910156 34.640625 C 116.273438 34.007812 115.707031 33.621094 115.207031 33.484375 C 114.699219 33.339844 114.261719 33.449219 113.894531 33.8125 C 113.667969 34.042969 113.503906 34.339844 113.410156 34.703125 C 113.308594 35.058594 113.277344 35.421875 113.316406 35.796875 Z M 124.261719 31.195312 C 123.9375 31.914062 123.5625 32.488281 123.136719 32.914062 C 122.46875 33.582031 121.707031 33.90625 120.855469 33.882812 C 120.011719 33.851562 119.230469 33.476562 118.511719 32.757812 C 117.835938 32.082031 117.472656 31.34375 117.417969 30.539062 C 117.367188 29.738281 117.628906 29.050781 118.199219 28.476562 C 118.742188 27.9375 119.335938 27.703125 119.980469 27.773438 C 120.625 27.847656 121.28125 28.21875 121.949219 28.882812 L 122.027344 28.960938 L 119.277344 31.710938 C 119.902344 32.335938 120.453125 32.722656 120.933594 32.867188 C 121.683594 33.078125 122.324219 32.914062 122.855469 32.382812 C 123.363281 31.875 123.691406 31.335938 123.839844 30.773438 Z M 119.042969 31.445312 L 120.902344 29.585938 L 120.730469 29.382812 C 120.40625 29.0625 120.152344 28.835938 119.964844 28.710938 C 119.777344 28.585938 119.585938 28.507812 119.386719 28.476562 C 119.003906 28.40625 118.675781 28.503906 118.402344 28.773438 C 118.089844 29.085938 117.992188 29.484375 118.105469 29.960938 C 118.222656 30.441406 118.535156 30.9375 119.042969 31.445312 Z M 120.085938 22.683594 L 125.554688 28.152344 C 125.78125 28.382812 126.007812 28.566406 126.226562 28.699219 C 126.320312 28.753906 126.390625 28.773438 126.445312 28.761719 C 126.507812 28.742188 126.609375 28.667969 126.757812 28.542969 L 127.070312 28.261719 L 127.164062 28.199219 L 127.414062 28.449219 L 125.054688 30.808594 L 124.804688 30.558594 L 124.867188 30.464844 L 125.132812 30.167969 C 125.277344 30.003906 125.351562 29.871094 125.351562 29.777344 C 125.351562 29.683594 125.277344 29.566406 125.132812 29.417969 L 124.742188 28.964844 L 120.351562 24.574219 L 119.914062 24.199219 C 119.75 24.035156 119.625 23.957031 119.539062 23.964844 C 119.445312 23.964844 119.316406 24.039062 119.148438 24.183594 L 118.851562 24.449219 L 118.773438 24.527344 L 118.507812 24.261719 Z M 130.523438 21.53125 L 130.523438 20.71875 L 137.367188 20.71875 L 137.367188 21.53125 Z M 138.101562 29.15625 C 137.609375 29.300781 136.960938 29.421875 136.148438 29.515625 C 135.34375 29.617188 134.617188 29.671875 133.960938 29.671875 C 132.574219 29.671875 131.476562 29.441406 130.664062 28.984375 C 129.851562 28.527344 129.445312 27.917969 129.445312 27.15625 C 129.445312 26.386719 130.015625 25.4375 131.164062 24.3125 L 131.835938 24.84375 C 130.867188 25.792969 130.382812 26.539062 130.382812 27.078125 C 130.382812 27.609375 130.699219 28.039062 131.335938 28.359375 C 131.96875 28.671875 132.84375 28.828125 133.960938 28.828125 C 134.585938 28.828125 135.277344 28.78125 136.039062 28.6875 C 136.796875 28.585938 137.421875 28.460938 137.914062 28.3125 Z M 140.632812 21.796875 L 143.445312 21.796875 L 143.445312 19.765625 L 144.320312 19.765625 L 144.320312 23.53125 C 145.234375 22.699219 145.980469 22.105469 146.554688 21.75 C 147.136719 21.386719 147.621094 21.203125 148.007812 21.203125 C 148.464844 21.203125 148.792969 21.375 148.992188 21.71875 C 149.199219 22.0625 149.304688 22.664062 149.304688 23.515625 C 149.304688 23.996094 149.257812 24.578125 149.164062 25.265625 C 149.070312 25.984375 149.023438 26.5625 149.023438 27 C 149.023438 27.59375 149.074219 27.992188 149.179688 28.1875 C 149.28125 28.375 149.421875 28.46875 149.601562 28.46875 C 149.984375 28.46875 150.511719 28.105469 151.179688 27.375 L 151.664062 28 C 151.296875 28.417969 150.902344 28.757812 150.476562 29.015625 C 150.058594 29.265625 149.695312 29.390625 149.382812 29.390625 C 148.921875 29.390625 148.59375 29.21875 148.398438 28.875 C 148.199219 28.523438 148.101562 27.921875 148.101562 27.078125 C 148.101562 26.609375 148.148438 26.027344 148.242188 25.328125 C 148.335938 24.609375 148.382812 24.03125 148.382812 23.59375 C 148.382812 23 148.328125 22.605469 148.226562 22.40625 C 148.132812 22.210938 147.992188 22.109375 147.804688 22.109375 C 147.335938 22.109375 146.171875 22.96875 144.320312 24.6875 L 144.320312 30.03125 L 143.445312 30.03125 L 143.445312 25.53125 L 141.054688 27.890625 L 140.476562 27.296875 L 143.445312 24.359375 L 143.445312 22.59375 L 140.632812 22.59375 Z M 155.273438 22.390625 C 155.167969 23.308594 155.027344 24.257812 154.851562 25.234375 L 154.867188 25.25 C 155.398438 24.835938 156.039062 24.496094 156.789062 24.234375 C 157.539062 23.976562 158.242188 23.84375 158.898438 23.84375 C 161.136719 23.84375 162.257812 24.734375 162.257812 26.515625 C 162.257812 27.570312 161.820312 28.371094 160.945312 28.921875 C 160.078125 29.472656 158.789062 29.75 157.070312 29.75 C 156.289062 29.75 155.464844 29.703125 154.601562 29.609375 L 154.648438 28.796875 C 155.648438 28.902344 156.453125 28.953125 157.070312 28.953125 C 158.445312 28.953125 159.480469 28.75 160.179688 28.34375 C 160.886719 27.929688 161.242188 27.320312 161.242188 26.515625 C 161.242188 25.257812 160.421875 24.625 158.789062 24.625 C 158.164062 24.625 157.453125 24.789062 156.664062 25.109375 C 155.882812 25.421875 155.195312 25.824219 154.601562 26.3125 L 153.773438 26.09375 C 154.023438 24.699219 154.226562 23.433594 154.382812 22.296875 Z M 155.289062 20.28125 C 157.140625 20.523438 158.933594 20.640625 160.664062 20.640625 L 160.664062 21.4375 C 158.859375 21.4375 157.039062 21.320312 155.195312 21.078125 Z M 175.023438 22.671875 L 172.898438 22.671875 L 172.898438 26.59375 C 173.480469 27 174.1875 27.621094 175.023438 28.453125 L 174.414062 29.0625 C 173.789062 28.429688 173.28125 27.953125 172.898438 27.640625 C 172.835938 29.109375 172.042969 29.84375 170.523438 29.84375 C 169.699219 29.84375 169.0625 29.65625 168.617188 29.28125 C 168.167969 28.90625 167.945312 28.386719 167.945312 27.71875 C 167.945312 27.09375 168.167969 26.617188 168.617188 26.28125 C 169.0625 25.9375 169.699219 25.765625 170.523438 25.765625 C 171.03125 25.765625 171.53125 25.871094 172.023438 26.078125 L 172.023438 22.671875 L 168.257812 22.671875 L 168.257812 21.875 L 172.023438 21.875 L 172.023438 19.875 L 172.898438 19.875 L 172.898438 21.875 L 175.023438 21.875 Z M 166.507812 20.171875 C 166.121094 21.664062 165.929688 23.257812 165.929688 24.953125 C 165.929688 26.652344 166.121094 28.246094 166.507812 29.734375 L 165.648438 29.84375 C 165.242188 28.335938 165.039062 26.703125 165.039062 24.953125 C 165.039062 23.203125 165.242188 21.574219 165.648438 20.0625 Z M 172.023438 27.015625 C 171.511719 26.726562 171 26.578125 170.492188 26.578125 C 169.375 26.578125 168.820312 26.960938 168.820312 27.71875 C 168.820312 28.148438 168.960938 28.476562 169.242188 28.703125 C 169.53125 28.921875 169.949219 29.03125 170.492188 29.03125 C 171.03125 29.03125 171.421875 28.90625 171.664062 28.65625 C 171.902344 28.40625 172.023438 28 172.023438 27.4375 Z M 176.507812 27.8125 L 177.117188 27.296875 C 177.949219 28.109375 178.757812 28.976562 179.539062 29.890625 L 178.914062 30.359375 C 178.277344 29.597656 177.476562 28.75 176.507812 27.8125 Z M 196.289062 21.203125 L 197.132812 20.90625 C 197.671875 21.917969 198.085938 23.078125 198.367188 24.390625 C 198.65625 25.695312 198.804688 27.042969 198.804688 28.4375 L 197.882812 28.4375 C 197.882812 27.125 197.742188 25.835938 197.460938 24.5625 C 197.1875 23.292969 196.796875 22.171875 196.289062 21.203125 Z M 190.710938 21.09375 C 190.367188 22.335938 190.195312 23.664062 190.195312 25.078125 C 190.195312 26.121094 190.375 26.996094 190.742188 27.703125 C 191.117188 28.414062 191.492188 28.765625 191.867188 28.765625 C 192.125 28.765625 192.453125 28.507812 192.851562 27.984375 C 193.257812 27.464844 193.640625 26.730469 194.007812 25.78125 L 194.835938 26.109375 C 194.4375 27.226562 193.953125 28.101562 193.382812 28.734375 C 192.808594 29.359375 192.28125 29.671875 191.804688 29.671875 C 191.179688 29.671875 190.601562 29.226562 190.070312 28.328125 C 189.546875 27.433594 189.289062 26.351562 189.289062 25.078125 C 189.289062 23.570312 189.464844 22.199219 189.820312 20.96875 Z M 205.632812 28.96875 C 204.890625 29.25 204.21875 29.390625 203.617188 29.390625 C 202.679688 29.390625 201.917969 29.078125 201.335938 28.453125 C 200.75 27.828125 200.460938 27.011719 200.460938 26 C 200.460938 25.042969 200.71875 24.261719 201.242188 23.65625 C 201.773438 23.054688 202.445312 22.75 203.257812 22.75 C 204.027344 22.75 204.617188 23.007812 205.023438 23.515625 C 205.429688 24.027344 205.632812 24.757812 205.632812 25.703125 L 205.632812 25.8125 L 201.742188 25.8125 C 201.742188 26.6875 201.859375 27.34375 202.101562 27.78125 C 202.476562 28.46875 203.042969 28.8125 203.804688 28.8125 C 204.511719 28.8125 205.121094 28.667969 205.632812 28.375 Z M 201.757812 25.453125 L 204.398438 25.453125 L 204.414062 25.1875 C 204.414062 24.730469 204.390625 24.390625 204.351562 24.171875 C 204.308594 23.953125 204.226562 23.761719 204.101562 23.59375 C 203.882812 23.273438 203.578125 23.109375 203.195312 23.109375 C 202.757812 23.109375 202.40625 23.324219 202.148438 23.75 C 201.886719 24.167969 201.757812 24.734375 201.757812 25.453125 Z M 208.695312 24.078125 C 208.964844 23.664062 209.304688 23.339844 209.710938 23.109375 C 210.125 22.871094 210.554688 22.75 210.992188 22.75 C 211.542969 22.75 211.96875 22.933594 212.273438 23.296875 C 212.585938 23.652344 212.742188 24.140625 212.742188 24.765625 L 212.742188 27.734375 L 212.789062 28.3125 C 212.796875 28.53125 212.835938 28.671875 212.898438 28.734375 C 212.960938 28.796875 213.101562 28.835938 213.320312 28.84375 L 213.726562 28.875 L 213.835938 28.890625 L 213.835938 29.25 L 210.507812 29.25 L 210.507812 28.890625 L 210.617188 28.875 L 211.007812 28.84375 C 211.234375 28.835938 211.382812 28.796875 211.445312 28.734375 C 211.507812 28.671875 211.542969 28.53125 211.554688 28.3125 L 211.585938 27.734375 L 211.585938 24.953125 C 211.585938 24.402344 211.511719 24.023438 211.367188 23.8125 C 211.230469 23.59375 210.980469 23.484375 210.617188 23.484375 C 210.09375 23.484375 209.453125 23.8125 208.695312 24.46875 L 208.695312 27.734375 C 208.695312 28.058594 208.71875 28.339844 208.773438 28.578125 C 208.804688 28.683594 208.84375 28.75 208.898438 28.78125 C 208.960938 28.8125 209.085938 28.835938 209.273438 28.84375 L 209.679688 28.875 L 209.789062 28.890625 L 209.789062 29.25 L 206.460938 29.25 L 206.460938 28.890625 L 206.570312 28.875 L 206.960938 28.84375 C 207.1875 28.835938 207.335938 28.796875 207.398438 28.734375 C 207.460938 28.671875 207.496094 28.53125 207.507812 28.3125 L 207.539062 27.734375 L 207.539062 24.40625 L 207.507812 23.828125 C 207.496094 23.609375 207.460938 23.46875 207.398438 23.40625 C 207.335938 23.34375 207.1875 23.304688 206.960938 23.28125 L 206.570312 23.25 L 206.460938 23.25 L 206.460938 22.890625 L 208.695312 22.890625 Z M 215.492188 29 C 215.054688 28.804688 214.835938 28.527344 214.835938 28.171875 C 214.835938 27.953125 214.914062 27.761719 215.070312 27.59375 C 215.234375 27.417969 215.527344 27.226562 215.945312 27.015625 C 215.539062 26.839844 215.21875 26.574219 214.992188 26.21875 C 214.761719 25.855469 214.648438 25.445312 214.648438 24.984375 C 214.648438 24.308594 214.867188 23.765625 215.304688 23.359375 C 215.742188 22.953125 216.324219 22.75 217.054688 22.75 C 217.492188 22.75 217.890625 22.828125 218.257812 22.984375 L 220.492188 22.8125 L 220.195312 23.515625 L 218.664062 23.265625 C 219.164062 23.757812 219.414062 24.324219 219.414062 24.96875 C 219.414062 25.625 219.195312 26.167969 218.757812 26.59375 C 218.320312 27.023438 217.761719 27.234375 217.085938 27.234375 C 216.824219 27.234375 216.546875 27.195312 216.257812 27.109375 C 215.984375 27.320312 215.851562 27.554688 215.851562 27.8125 C 215.851562 28.09375 216.09375 28.234375 216.585938 28.234375 L 217.585938 28.234375 C 218.59375 28.234375 219.265625 28.339844 219.601562 28.546875 C 219.964844 28.777344 220.148438 29.15625 220.148438 29.6875 C 220.148438 30.289062 219.871094 30.773438 219.320312 31.140625 C 218.765625 31.515625 218.039062 31.703125 217.132812 31.703125 C 216.246094 31.703125 215.539062 31.578125 215.007812 31.328125 C 214.476562 31.085938 214.210938 30.757812 214.210938 30.34375 C 214.210938 29.820312 214.636719 29.375 215.492188 29 Z M 215.804688 24.90625 C 215.804688 26.210938 216.214844 26.859375 217.039062 26.859375 C 217.433594 26.859375 217.734375 26.699219 217.945312 26.375 C 218.164062 26.054688 218.273438 25.578125 218.273438 24.953125 C 218.273438 24.359375 218.164062 23.90625 217.945312 23.59375 C 217.734375 23.273438 217.4375 23.109375 217.054688 23.109375 C 216.648438 23.109375 216.335938 23.265625 216.117188 23.578125 C 215.90625 23.890625 215.804688 24.335938 215.804688 24.90625 Z M 215.804688 29.109375 C 215.511719 29.390625 215.367188 29.738281 215.367188 30.15625 C 215.367188 30.519531 215.527344 30.8125 215.851562 31.03125 C 216.171875 31.25 216.609375 31.359375 217.164062 31.359375 C 217.726562 31.359375 218.171875 31.234375 218.507812 30.984375 C 218.851562 30.734375 219.023438 30.394531 219.023438 29.96875 C 219.023438 29.644531 218.933594 29.421875 218.757812 29.296875 C 218.578125 29.171875 218.261719 29.109375 217.804688 29.109375 Z M 223.132812 20 L 223.132812 27.734375 C 223.132812 28.058594 223.15625 28.339844 223.210938 28.578125 C 223.242188 28.683594 223.28125 28.75 223.335938 28.78125 C 223.398438 28.8125 223.523438 28.835938 223.710938 28.84375 L 224.117188 28.875 L 224.226562 28.890625 L 224.226562 29.25 L 220.898438 29.25 L 220.898438 28.890625 L 221.007812 28.875 L 221.398438 28.84375 C 221.625 28.835938 221.773438 28.796875 221.835938 28.734375 C 221.898438 28.671875 221.933594 28.53125 221.945312 28.3125 L 221.976562 27.734375 L 221.976562 21.515625 L 221.945312 20.9375 C 221.933594 20.710938 221.898438 20.570312 221.835938 20.515625 C 221.773438 20.453125 221.625 20.414062 221.398438 20.390625 L 221.007812 20.359375 L 220.898438 20.359375 L 220.898438 20 Z M 226.898438 22.890625 L 226.898438 27.734375 C 226.898438 28.058594 226.921875 28.339844 226.976562 28.578125 C 227.007812 28.683594 227.046875 28.75 227.101562 28.78125 C 227.164062 28.8125 227.289062 28.835938 227.476562 28.84375 L 227.882812 28.875 L 227.992188 28.890625 L 227.992188 29.25 L 224.664062 29.25 L 224.664062 28.890625 L 224.773438 28.875 L 225.164062 28.84375 C 225.390625 28.835938 225.539062 28.796875 225.601562 28.734375 C 225.664062 28.671875 225.699219 28.53125 225.710938 28.3125 L 225.742188 27.734375 L 225.742188 24.40625 L 225.710938 23.828125 C 225.699219 23.609375 225.664062 23.46875 225.601562 23.40625 C 225.539062 23.34375 225.390625 23.304688 225.164062 23.28125 L 224.773438 23.25 L 224.664062 23.25 L 224.664062 22.890625 Z M 225.742188 21.734375 L 225.742188 20.578125 L 226.898438 20.578125 L 226.898438 21.734375 Z M 228.945312 28.921875 L 228.945312 27.296875 L 229.601562 27.296875 L 229.617188 27.421875 L 229.664062 28.03125 C 229.683594 28.34375 229.824219 28.578125 230.085938 28.734375 C 230.429688 28.933594 230.804688 29.03125 231.210938 29.03125 C 231.5625 29.03125 231.851562 28.929688 232.070312 28.71875 C 232.296875 28.5 232.414062 28.226562 232.414062 27.890625 C 232.414062 27.601562 232.335938 27.367188 232.179688 27.1875 C 232.03125 27.011719 231.765625 26.851562 231.382812 26.703125 L 230.789062 26.46875 C 230.152344 26.230469 229.6875 25.960938 229.398438 25.65625 C 229.117188 25.34375 228.976562 24.96875 228.976562 24.53125 C 228.976562 24.011719 229.183594 23.585938 229.601562 23.25 C 230.015625 22.917969 230.542969 22.75 231.179688 22.75 C 231.792969 22.75 232.433594 22.871094 233.101562 23.109375 L 233.101562 24.625 L 232.445312 24.625 L 232.445312 24.515625 L 232.398438 23.984375 C 232.375 23.757812 232.339844 23.601562 232.289062 23.515625 C 232.234375 23.433594 232.125 23.351562 231.960938 23.265625 C 231.730469 23.164062 231.496094 23.109375 231.257812 23.109375 C 230.914062 23.109375 230.625 23.21875 230.398438 23.4375 C 230.179688 23.648438 230.070312 23.917969 230.070312 24.25 C 230.070312 24.523438 230.15625 24.742188 230.335938 24.90625 C 230.523438 25.074219 230.886719 25.273438 231.429688 25.5 L 231.976562 25.71875 C 232.558594 25.960938 232.964844 26.210938 233.195312 26.46875 C 233.433594 26.730469 233.554688 27.0625 233.554688 27.46875 C 233.554688 28.03125 233.328125 28.496094 232.882812 28.859375 C 232.433594 29.214844 231.851562 29.390625 231.132812 29.390625 C 230.359375 29.390625 229.632812 29.234375 228.945312 28.921875 Z M 236.632812 24.078125 C 236.902344 23.664062 237.242188 23.339844 237.648438 23.109375 C 238.0625 22.871094 238.492188 22.75 238.929688 22.75 C 239.480469 22.75 239.90625 22.933594 240.210938 23.296875 C 240.523438 23.652344 240.679688 24.140625 240.679688 24.765625 L 240.679688 27.734375 L 240.726562 28.3125 C 240.734375 28.53125 240.773438 28.671875 240.835938 28.734375 C 240.898438 28.796875 241.039062 28.835938 241.257812 28.84375 L 241.664062 28.875 L 241.773438 28.890625 L 241.773438 29.25 L 238.445312 29.25 L 238.445312 28.890625 L 238.554688 28.875 L 238.945312 28.84375 C 239.171875 28.835938 239.320312 28.796875 239.382812 28.734375 C 239.445312 28.671875 239.480469 28.53125 239.492188 28.3125 L 239.523438 27.734375 L 239.523438 24.953125 C 239.523438 24.402344 239.449219 24.023438 239.304688 23.8125 C 239.167969 23.59375 238.917969 23.484375 238.554688 23.484375 C 238.03125 23.484375 237.390625 23.8125 236.632812 24.46875 L 236.632812 27.734375 C 236.632812 28.058594 236.65625 28.339844 236.710938 28.578125 C 236.742188 28.683594 236.78125 28.75 236.835938 28.78125 C 236.898438 28.8125 237.023438 28.835938 237.210938 28.84375 L 237.617188 28.875 L 237.726562 28.890625 L 237.726562 29.25 L 234.398438 29.25 L 234.398438 28.890625 L 234.507812 28.875 L 234.898438 28.84375 C 235.125 28.835938 235.273438 28.796875 235.335938 28.734375 C 235.398438 28.671875 235.433594 28.53125 235.445312 28.3125 L 235.476562 27.734375 L 235.476562 21.515625 L 235.445312 20.9375 C 235.433594 20.710938 235.398438 20.570312 235.335938 20.515625 C 235.273438 20.453125 235.125 20.414062 234.898438 20.390625 L 234.507812 20.359375 L 234.398438 20.359375 L 234.398438 20 L 236.632812 20 Z M 236.632812 24.078125 "/>
<path fill-rule="evenodd" fill="rgb(0%, 100%, 0%)" fill-opacity="1" d="M 78.25 63.09375 L 78.25 77.25 L 261.546875 77.25 L 261.546875 63.09375 Z M 78.25 63.09375 "/>
<path fill-rule="evenodd" fill="rgb(0%, 0%, 0%)" fill-opacity="1" d="M 81.703125 64.546875 L 81.703125 72.28125 C 81.703125 72.605469 81.726562 72.886719 81.78125 73.125 C 81.8125 73.230469 81.851562 73.296875 81.90625 73.328125 C 81.96875 73.359375 82.09375 73.382812 82.28125 73.390625 L 82.6875 73.421875 L 82.796875 73.4375 L 82.796875 73.796875 L 79.46875 73.796875 L 79.46875 73.4375 L 79.578125 73.421875 L 79.96875 73.390625 C 80.195312 73.382812 80.34375 73.34375 80.40625 73.28125 C 80.46875 73.21875 80.503906 73.078125 80.515625 72.859375 L 80.546875 72.28125 L 80.546875 66.0625 L 80.515625 65.484375 C 80.503906 65.257812 80.46875 65.117188 80.40625 65.0625 C 80.34375 65 80.195312 64.960938 79.96875 64.9375 L 79.578125 64.90625 L 79.46875 64.90625 L 79.46875 64.546875 Z M 87.53125 72.921875 C 87.144531 73.296875 86.800781 73.5625 86.5 73.71875 C 86.195312 73.863281 85.859375 73.9375 85.484375 73.9375 C 84.953125 73.9375 84.503906 73.773438 84.140625 73.4375 C 83.785156 73.09375 83.609375 72.664062 83.609375 72.140625 C 83.609375 71.539062 83.84375 71.046875 84.3125 70.671875 C 84.601562 70.445312 84.953125 70.28125 85.359375 70.1875 C 85.765625 70.085938 86.320312 70.03125 87.03125 70.03125 L 87.265625 70.03125 L 87.265625 69.25 C 87.265625 68.242188 86.882812 67.734375 86.125 67.734375 C 85.769531 67.734375 85.453125 67.84375 85.171875 68.0625 C 85.015625 68.199219 84.914062 68.46875 84.875 68.875 L 84.875 68.984375 L 84.078125 68.984375 L 84.078125 67.828125 C 84.890625 67.476562 85.640625 67.296875 86.328125 67.296875 C 86.929688 67.296875 87.425781 67.4375 87.8125 67.71875 C 88.039062 67.898438 88.195312 68.089844 88.28125 68.296875 C 88.375 68.507812 88.421875 68.808594 88.421875 69.203125 L 88.421875 72.03125 C 88.421875 72.542969 88.460938 72.902344 88.546875 73.109375 C 88.640625 73.320312 88.796875 73.421875 89.015625 73.421875 C 89.085938 73.421875 89.191406 73.402344 89.328125 73.359375 L 89.359375 73.796875 C 89.078125 73.890625 88.828125 73.9375 88.609375 73.9375 C 88.035156 73.9375 87.675781 73.601562 87.53125 72.921875 Z M 87.265625 72.796875 L 87.265625 70.390625 L 87 70.390625 C 86.3125 70.390625 85.773438 70.53125 85.390625 70.8125 C 85.015625 71.09375 84.828125 71.484375 84.828125 71.984375 C 84.828125 72.351562 84.941406 72.652344 85.171875 72.890625 C 85.410156 73.132812 85.707031 73.25 86.0625 73.25 C 86.40625 73.25 86.804688 73.101562 87.265625 72.796875 Z M 90.46875 73.875 L 90.46875 66.0625 L 90.4375 65.484375 C 90.414062 65.257812 90.375 65.117188 90.3125 65.0625 C 90.257812 65 90.117188 64.960938 89.890625 64.9375 L 89.5 64.90625 L 89.390625 64.90625 L 89.390625 64.546875 L 91.625 64.546875 L 91.625 68.625 C 92.195312 67.742188 92.941406 67.296875 93.859375 67.296875 C 94.578125 67.296875 95.148438 67.578125 95.578125 68.140625 C 96.003906 68.703125 96.21875 69.464844 96.21875 70.421875 C 96.21875 71.484375 95.972656 72.339844 95.484375 72.984375 C 94.992188 73.621094 94.347656 73.9375 93.546875 73.9375 C 92.796875 73.9375 92.15625 73.652344 91.625 73.078125 L 91.546875 73.078125 L 91.40625 73.875 Z M 91.625 72.625 C 92.238281 73.074219 92.828125 73.296875 93.390625 73.296875 C 93.910156 73.296875 94.304688 73.078125 94.578125 72.640625 C 94.847656 72.203125 94.984375 71.574219 94.984375 70.75 C 94.984375 69.84375 94.851562 69.167969 94.59375 68.71875 C 94.34375 68.261719 93.957031 68.03125 93.4375 68.03125 C 93.113281 68.03125 92.789062 68.125 92.46875 68.3125 C 92.144531 68.492188 91.863281 68.730469 91.625 69.03125 Z M 102.625 73.515625 C 101.882812 73.796875 101.210938 73.9375 100.609375 73.9375 C 99.671875 73.9375 98.910156 73.625 98.328125 73 C 97.742188 72.375 97.453125 71.558594 97.453125 70.546875 C 97.453125 69.589844 97.710938 68.808594 98.234375 68.203125 C 98.765625 67.601562 99.4375 67.296875 100.25 67.296875 C 101.019531 67.296875 101.609375 67.554688 102.015625 68.0625 C 102.421875 68.574219 102.625 69.304688 102.625 70.25 L 102.625 70.359375 L 98.734375 70.359375 C 98.734375 71.234375 98.851562 71.890625 99.09375 72.328125 C 99.46875 73.015625 100.035156 73.359375 100.796875 73.359375 C 101.503906 73.359375 102.113281 73.214844 102.625 72.921875 Z M 98.75 70 L 101.390625 70 L 101.40625 69.734375 C 101.40625 69.277344 101.382812 68.9375 101.34375 68.71875 C 101.300781 68.5 101.21875 68.308594 101.09375 68.140625 C 100.875 67.820312 100.570312 67.65625 100.1875 67.65625 C 99.75 67.65625 99.398438 67.871094 99.140625 68.296875 C 98.878906 68.714844 98.75 69.28125 98.75 70 Z M 105.6875 64.546875 L 105.6875 72.28125 C 105.6875 72.605469 105.710938 72.886719 105.765625 73.125 C 105.796875 73.230469 105.835938 73.296875 105.890625 73.328125 C 105.953125 73.359375 106.078125 73.382812 106.265625 73.390625 L 106.671875 73.421875 L 106.78125 73.4375 L 106.78125 73.796875 L 103.453125 73.796875 L 103.453125 73.4375 L 103.5625 73.421875 L 103.953125 73.390625 C 104.179688 73.382812 104.328125 73.34375 104.390625 73.28125 C 104.453125 73.21875 104.488281 73.078125 104.5 72.859375 L 104.53125 72.28125 L 104.53125 66.0625 L 104.5 65.484375 C 104.488281 65.257812 104.453125 65.117188 104.390625 65.0625 C 104.328125 65 104.179688 64.960938 103.953125 64.9375 L 103.5625 64.90625 L 103.453125 64.90625 L 103.453125 64.546875 Z M 113.296875 66.078125 L 113.296875 65.265625 L 120.140625 65.265625 L 120.140625 66.078125 Z M 120.875 73.703125 C 120.382812 73.847656 119.734375 73.96875 118.921875 74.0625 C 118.117188 74.164062 117.390625 74.21875 116.734375 74.21875 C 115.347656 74.21875 114.25 73.988281 113.4375 73.53125 C 112.625 73.074219 112.21875 72.464844 112.21875 71.703125 C 112.21875 70.933594 112.789062 69.984375 113.9375 68.859375 L 114.609375 69.390625 C 113.640625 70.339844 113.15625 71.085938 113.15625 71.625 C 113.15625 72.15625 113.472656 72.585938 114.109375 72.90625 C 114.742188 73.21875 115.617188 73.375 116.734375 73.375 C 117.359375 73.375 118.050781 73.328125 118.8125 73.234375 C 119.570312 73.132812 120.195312 73.007812 120.6875 72.859375 Z M 123.40625 66.34375 L 126.21875 66.34375 L 126.21875 64.3125 L 127.09375 64.3125 L 127.09375 68.078125 C 128.007812 67.246094 128.753906 66.652344 129.328125 66.296875 C 129.910156 65.933594 130.394531 65.75 130.78125 65.75 C 131.238281 65.75 131.566406 65.921875 131.765625 66.265625 C 131.972656 66.609375 132.078125 67.210938 132.078125 68.0625 C 132.078125 68.542969 132.03125 69.125 131.9375 69.8125 C 131.84375 70.53125 131.796875 71.109375 131.796875 71.546875 C 131.796875 72.140625 131.847656 72.539062 131.953125 72.734375 C 132.054688 72.921875 132.195312 73.015625 132.375 73.015625 C 132.757812 73.015625 133.285156 72.652344 133.953125 71.921875 L 134.4375 72.546875 C 134.070312 72.964844 133.675781 73.304688 133.25 73.5625 C 132.832031 73.8125 132.46875 73.9375 132.15625 73.9375 C 131.695312 73.9375 131.367188 73.765625 131.171875 73.421875 C 130.972656 73.070312 130.875 72.46875 130.875 71.625 C 130.875 71.15625 130.921875 70.574219 131.015625 69.875 C 131.109375 69.15625 131.15625 68.578125 131.15625 68.140625 C 131.15625 67.546875 131.101562 67.152344 131 66.953125 C 130.90625 66.757812 130.765625 66.65625 130.578125 66.65625 C 130.109375 66.65625 128.945312 67.515625 127.09375 69.234375 L 127.09375 74.578125 L 126.21875 74.578125 L 126.21875 70.078125 L 123.828125 72.4375 L 123.25 71.84375 L 126.21875 68.90625 L 126.21875 67.140625 L 123.40625 67.140625 Z M 138.046875 66.9375 C 137.941406 67.855469 137.800781 68.804688 137.625 69.78125 L 137.640625 69.796875 C 138.171875 69.382812 138.8125 69.042969 139.5625 68.78125 C 140.3125 68.523438 141.015625 68.390625 141.671875 68.390625 C 143.910156 68.390625 145.03125 69.28125 145.03125 71.0625 C 145.03125 72.117188 144.59375 72.917969 143.71875 73.46875 C 142.851562 74.019531 141.5625 74.296875 139.84375 74.296875 C 139.0625 74.296875 138.238281 74.25 137.375 74.15625 L 137.421875 73.34375 C 138.421875 73.449219 139.226562 73.5 139.84375 73.5 C 141.21875 73.5 142.253906 73.296875 142.953125 72.890625 C 143.660156 72.476562 144.015625 71.867188 144.015625 71.0625 C 144.015625 69.804688 143.195312 69.171875 141.5625 69.171875 C 140.9375 69.171875 140.226562 69.335938 139.4375 69.65625 C 138.65625 69.96875 137.96875 70.371094 137.375 70.859375 L 136.546875 70.640625 C 136.796875 69.246094 137 67.980469 137.15625 66.84375 Z M 138.0625 64.828125 C 139.914062 65.070312 141.707031 65.1875 143.4375 65.1875 L 143.4375 65.984375 C 141.632812 65.984375 139.8125 65.867188 137.96875 65.625 Z M 157.796875 67.21875 L 155.671875 67.21875 L 155.671875 71.140625 C 156.253906 71.546875 156.960938 72.167969 157.796875 73 L 157.1875 73.609375 C 156.5625 72.976562 156.054688 72.5 155.671875 72.1875 C 155.609375 73.65625 154.816406 74.390625 153.296875 74.390625 C 152.472656 74.390625 151.835938 74.203125 151.390625 73.828125 C 150.941406 73.453125 150.71875 72.933594 150.71875 72.265625 C 150.71875 71.640625 150.941406 71.164062 151.390625 70.828125 C 151.835938 70.484375 152.472656 70.3125 153.296875 70.3125 C 153.804688 70.3125 154.304688 70.417969 154.796875 70.625 L 154.796875 67.21875 L 151.03125 67.21875 L 151.03125 66.421875 L 154.796875 66.421875 L 154.796875 64.421875 L 155.671875 64.421875 L 155.671875 66.421875 L 157.796875 66.421875 Z M 149.28125 64.71875 C 148.894531 66.210938 148.703125 67.804688 148.703125 69.5 C 148.703125 71.199219 148.894531 72.792969 149.28125 74.28125 L 148.421875 74.390625 C 148.015625 72.882812 147.8125 71.25 147.8125 69.5 C 147.8125 67.75 148.015625 66.121094 148.421875 64.609375 Z M 154.796875 71.5625 C 154.285156 71.273438 153.773438 71.125 153.265625 71.125 C 152.148438 71.125 151.59375 71.507812 151.59375 72.265625 C 151.59375 72.695312 151.734375 73.023438 152.015625 73.25 C 152.304688 73.46875 152.722656 73.578125 153.265625 73.578125 C 153.804688 73.578125 154.195312 73.453125 154.4375 73.203125 C 154.675781 72.953125 154.796875 72.546875 154.796875 71.984375 Z M 159.28125 72.359375 L 159.890625 71.84375 C 160.722656 72.65625 161.53125 73.523438 162.3125 74.4375 L 161.6875 74.90625 C 161.050781 74.144531 160.25 73.296875 159.28125 72.359375 Z M 179.0625 65.75 L 179.90625 65.453125 C 180.445312 66.464844 180.859375 67.625 181.140625 68.9375 C 181.429688 70.242188 181.578125 71.589844 181.578125 72.984375 L 180.65625 72.984375 C 180.65625 71.671875 180.515625 70.382812 180.234375 69.109375 C 179.960938 67.839844 179.570312 66.71875 179.0625 65.75 Z M 173.484375 65.640625 C 173.140625 66.882812 172.96875 68.210938 172.96875 69.625 C 172.96875 70.667969 173.148438 71.542969 173.515625 72.25 C 173.890625 72.960938 174.265625 73.3125 174.640625 73.3125 C 174.898438 73.3125 175.226562 73.054688 175.625 72.53125 C 176.03125 72.011719 176.414062 71.277344 176.78125 70.328125 L 177.609375 70.65625 C 177.210938 71.773438 176.726562 72.648438 176.15625 73.28125 C 175.582031 73.90625 175.054688 74.21875 174.578125 74.21875 C 173.953125 74.21875 173.375 73.773438 172.84375 72.875 C 172.320312 71.980469 172.0625 70.898438 172.0625 69.625 C 172.0625 68.117188 172.238281 66.746094 172.59375 65.515625 Z M 191.359375 64.921875 C 189.816406 66.152344 188.304688 67.257812 186.828125 68.234375 C 186.359375 68.546875 186.054688 68.761719 185.921875 68.875 C 185.796875 68.992188 185.734375 69.121094 185.734375 69.265625 C 185.734375 69.390625 185.789062 69.511719 185.90625 69.625 C 186.019531 69.730469 186.285156 69.921875 186.703125 70.203125 C 188.367188 71.339844 190.046875 72.640625 191.734375 74.109375 L 191.078125 74.75 C 189.390625 73.304688 187.75 72.027344 186.15625 70.921875 C 185.519531 70.484375 185.117188 70.179688 184.953125 70 C 184.785156 69.8125 184.703125 69.570312 184.703125 69.265625 C 184.703125 68.945312 184.785156 68.695312 184.953125 68.515625 C 185.128906 68.328125 185.5625 68.007812 186.25 67.546875 C 187.75 66.558594 189.253906 65.460938 190.765625 64.25 Z M 195.71875 66.53125 C 198.070312 65.90625 199.847656 65.59375 201.046875 65.59375 C 204.066406 65.59375 205.578125 66.855469 205.578125 69.375 C 205.578125 70.867188 204.929688 72 203.640625 72.78125 C 202.359375 73.554688 200.457031 73.9375 197.9375 73.9375 L 197.875 73.0625 C 202.351562 73.0625 204.59375 71.867188 204.59375 69.46875 C 204.59375 68.460938 204.296875 67.714844 203.703125 67.234375 C 203.117188 66.746094 202.210938 66.5 200.984375 66.5 C 199.898438 66.5 198.210938 66.804688 195.921875 67.40625 Z M 207.8125 67.421875 L 207.8125 66.625 L 210.15625 66.625 C 210.382812 65.636719 210.554688 64.792969 210.671875 64.09375 L 211.546875 64.1875 C 211.429688 64.886719 211.269531 65.699219 211.0625 66.625 L 212.140625 66.625 C 212.503906 66.625 212.78125 66.625 212.96875 66.625 C 213.164062 66.625 213.375 66.648438 213.59375 66.6875 C 213.820312 66.730469 213.984375 66.765625 214.078125 66.796875 C 214.171875 66.828125 214.269531 66.914062 214.375 67.046875 C 214.488281 67.183594 214.554688 67.304688 214.578125 67.40625 C 214.609375 67.511719 214.640625 67.699219 214.671875 67.96875 C 214.710938 68.230469 214.734375 68.476562 214.734375 68.703125 C 214.734375 68.933594 214.734375 69.265625 214.734375 69.703125 C 214.734375 71.183594 214.554688 72.308594 214.203125 73.078125 C 213.847656 73.835938 213.398438 74.21875 212.859375 74.21875 C 212.179688 74.21875 211.367188 74 210.421875 73.5625 L 210.71875 72.765625 C 211.613281 73.152344 212.269531 73.34375 212.6875 73.34375 C 212.976562 73.34375 213.238281 73.023438 213.46875 72.375 C 213.695312 71.730469 213.8125 70.796875 213.8125 69.578125 C 213.8125 69.320312 213.8125 69.125 213.8125 69 C 213.8125 68.875 213.804688 68.726562 213.796875 68.546875 C 213.785156 68.359375 213.773438 68.234375 213.765625 68.171875 C 213.765625 68.101562 213.742188 68.011719 213.703125 67.90625 C 213.671875 67.792969 213.644531 67.726562 213.625 67.703125 C 213.613281 67.671875 213.566406 67.632812 213.484375 67.578125 C 213.398438 67.515625 213.335938 67.484375 213.296875 67.484375 C 213.253906 67.476562 213.164062 67.464844 213.03125 67.453125 C 212.90625 67.433594 212.796875 67.421875 212.703125 67.421875 C 212.617188 67.421875 212.484375 67.421875 212.296875 67.421875 L 210.875 67.421875 C 210.28125 69.828125 209.488281 72.121094 208.5 74.296875 L 207.671875 73.984375 C 208.609375 71.914062 209.375 69.726562 209.96875 67.421875 Z M 215.265625 65.84375 L 216.09375 65.546875 C 216.988281 67.589844 217.695312 69.621094 218.21875 71.640625 L 217.359375 71.859375 C 217.128906 70.964844 216.816406 69.953125 216.421875 68.828125 C 216.035156 67.703125 215.648438 66.710938 215.265625 65.84375 Z M 224.40625 73.515625 C 223.664062 73.796875 222.992188 73.9375 222.390625 73.9375 C 221.453125 73.9375 220.691406 73.625 220.109375 73 C 219.523438 72.375 219.234375 71.558594 219.234375 70.546875 C 219.234375 69.589844 219.492188 68.808594 220.015625 68.203125 C 220.546875 67.601562 221.21875 67.296875 222.03125 67.296875 C 222.800781 67.296875 223.390625 67.554688 223.796875 68.0625 C 224.203125 68.574219 224.40625 69.304688 224.40625 70.25 L 224.40625 70.359375 L 220.515625 70.359375 C 220.515625 71.234375 220.632812 71.890625 220.875 72.328125 C 221.25 73.015625 221.816406 73.359375 222.578125 73.359375 C 223.285156 73.359375 223.894531 73.214844 224.40625 72.921875 Z M 220.53125 70 L 223.171875 70 L 223.1875 69.734375 C 223.1875 69.277344 223.164062 68.9375 223.125 68.71875 C 223.082031 68.5 223 68.308594 222.875 68.140625 C 222.65625 67.820312 222.351562 67.65625 221.96875 67.65625 C 221.53125 67.65625 221.179688 67.871094 220.921875 68.296875 C 220.660156 68.714844 220.53125 69.28125 220.53125 70 Z M 227.46875 68.625 C 227.738281 68.210938 228.078125 67.886719 228.484375 67.65625 C 228.898438 67.417969 229.328125 67.296875 229.765625 67.296875 C 230.316406 67.296875 230.742188 67.480469 231.046875 67.84375 C 231.359375 68.199219 231.515625 68.6875 231.515625 69.3125 L 231.515625 72.28125 L 231.5625 72.859375 C 231.570312 73.078125 231.609375 73.21875 231.671875 73.28125 C 231.734375 73.34375 231.875 73.382812 232.09375 73.390625 L 232.5 73.421875 L 232.609375 73.4375 L 232.609375 73.796875 L 229.28125 73.796875 L 229.28125 73.4375 L 229.390625 73.421875 L 229.78125 73.390625 C 230.007812 73.382812 230.15625 73.34375 230.21875 73.28125 C 230.28125 73.21875 230.316406 73.078125 230.328125 72.859375 L 230.359375 72.28125 L 230.359375 69.5 C 230.359375 68.949219 230.285156 68.570312 230.140625 68.359375 C 230.003906 68.140625 229.753906 68.03125 229.390625 68.03125 C 228.867188 68.03125 228.226562 68.359375 227.46875 69.015625 L 227.46875 72.28125 C 227.46875 72.605469 227.492188 72.886719 227.546875 73.125 C 227.578125 73.230469 227.617188 73.296875 227.671875 73.328125 C 227.734375 73.359375 227.859375 73.382812 228.046875 73.390625 L 228.453125 73.421875 L 228.5625 73.4375 L 228.5625 73.796875 L 225.234375 73.796875 L 225.234375 73.4375 L 225.34375 73.421875 L 225.734375 73.390625 C 225.960938 73.382812 226.109375 73.34375 226.171875 73.28125 C 226.234375 73.21875 226.269531 73.078125 226.28125 72.859375 L 226.3125 72.28125 L 226.3125 68.953125 L 226.28125 68.375 C 226.269531 68.15625 226.234375 68.015625 226.171875 67.953125 C 226.109375 67.890625 225.960938 67.851562 225.734375 67.828125 L 225.34375 67.796875 L 225.234375 67.796875 L 225.234375 67.4375 L 227.46875 67.4375 Z M 234.265625 73.546875 C 233.828125 73.351562 233.609375 73.074219 233.609375 72.71875 C 233.609375 72.5 233.6875 72.308594 233.84375 72.140625 C 234.007812 71.964844 234.300781 71.773438 234.71875 71.5625 C 234.3125 71.386719 233.992188 71.121094 233.765625 70.765625 C 233.535156 70.402344 233.421875 69.992188 233.421875 69.53125 C 233.421875 68.855469 233.640625 68.3125 234.078125 67.90625 C 234.515625 67.5 235.097656 67.296875 235.828125 67.296875 C 236.265625 67.296875 236.664062 67.375 237.03125 67.53125 L 239.265625 67.359375 L 238.96875 68.0625 L 237.4375 67.8125 C 237.9375 68.304688 238.1875 68.871094 238.1875 69.515625 C 238.1875 70.171875 237.96875 70.714844 237.53125 71.140625 C 237.09375 71.570312 236.535156 71.78125 235.859375 71.78125 C 235.597656 71.78125 235.320312 71.742188 235.03125 71.65625 C 234.757812 71.867188 234.625 72.101562 234.625 72.359375 C 234.625 72.640625 234.867188 72.78125 235.359375 72.78125 L 236.359375 72.78125 C 237.367188 72.78125 238.039062 72.886719 238.375 73.09375 C 238.738281 73.324219 238.921875 73.703125 238.921875 74.234375 C 238.921875 74.835938 238.644531 75.320312 238.09375 75.6875 C 237.539062 76.0625 236.8125 76.25 235.90625 76.25 C 235.019531 76.25 234.3125 76.125 233.78125 75.875 C 233.25 75.632812 232.984375 75.304688 232.984375 74.890625 C 232.984375 74.367188 233.410156 73.921875 234.265625 73.546875 Z M 234.578125 69.453125 C 234.578125 70.757812 234.988281 71.40625 235.8125 71.40625 C 236.207031 71.40625 236.507812 71.246094 236.71875 70.921875 C 236.9375 70.601562 237.046875 70.125 237.046875 69.5 C 237.046875 68.90625 236.9375 68.453125 236.71875 68.140625 C 236.507812 67.820312 236.210938 67.65625 235.828125 67.65625 C 235.421875 67.65625 235.109375 67.8125 234.890625 68.125 C 234.679688 68.4375 234.578125 68.882812 234.578125 69.453125 Z M 234.578125 73.65625 C 234.285156 73.9375 234.140625 74.285156 234.140625 74.703125 C 234.140625 75.066406 234.300781 75.359375 234.625 75.578125 C 234.945312 75.796875 235.382812 75.90625 235.9375 75.90625 C 236.5 75.90625 236.945312 75.78125 237.28125 75.53125 C 237.625 75.28125 237.796875 74.941406 237.796875 74.515625 C 237.796875 74.191406 237.707031 73.96875 237.53125 73.84375 C 237.351562 73.71875 237.035156 73.65625 236.578125 73.65625 Z M 241.90625 64.546875 L 241.90625 72.28125 C 241.90625 72.605469 241.929688 72.886719 241.984375 73.125 C 242.015625 73.230469 242.054688 73.296875 242.109375 73.328125 C 242.171875 73.359375 242.296875 73.382812 242.484375 73.390625 L 242.890625 73.421875 L 243 73.4375 L 243 73.796875 L 239.671875 73.796875 L 239.671875 73.4375 L 239.78125 73.421875 L 240.171875 73.390625 C 240.398438 73.382812 240.546875 73.34375 240.609375 73.28125 C 240.671875 73.21875 240.707031 73.078125 240.71875 72.859375 L 240.75 72.28125 L 240.75 66.0625 L 240.71875 65.484375 C 240.707031 65.257812 240.671875 65.117188 240.609375 65.0625 C 240.546875 65 240.398438 64.960938 240.171875 64.9375 L 239.78125 64.90625 L 239.671875 64.90625 L 239.671875 64.546875 Z M 245.671875 67.4375 L 245.671875 72.28125 C 245.671875 72.605469 245.695312 72.886719 245.75 73.125 C 245.78125 73.230469 245.820312 73.296875 245.875 73.328125 C 245.9375 73.359375 246.0625 73.382812 246.25 73.390625 L 246.65625 73.421875 L 246.765625 73.4375 L 246.765625 73.796875 L 243.4375 73.796875 L 243.4375 73.4375 L 243.546875 73.421875 L 243.9375 73.390625 C 244.164062 73.382812 244.3125 73.34375 244.375 73.28125 C 244.4375 73.21875 244.472656 73.078125 244.484375 72.859375 L 244.515625 72.28125 L 244.515625 68.953125 L 244.484375 68.375 C 244.472656 68.15625 244.4375 68.015625 244.375 67.953125 C 244.3125 67.890625 244.164062 67.851562 243.9375 67.828125 L 243.546875 67.796875 L 243.4375 67.796875 L 243.4375 67.4375 Z M 244.515625 66.28125 L 244.515625 65.125 L 245.671875 65.125 L 245.671875 66.28125 Z M 247.71875 73.46875 L 247.71875 71.84375 L 248.375 71.84375 L 248.390625 71.96875 L 248.4375 72.578125 C 248.457031 72.890625 248.597656 73.125 248.859375 73.28125 C 249.203125 73.480469 249.578125 73.578125 249.984375 73.578125 C 250.335938 73.578125 250.625 73.476562 250.84375 73.265625 C 251.070312 73.046875 251.1875 72.773438 251.1875 72.4375 C 251.1875 72.148438 251.109375 71.914062 250.953125 71.734375 C 250.804688 71.558594 250.539062 71.398438 250.15625 71.25 L 249.5625 71.015625 C 248.925781 70.777344 248.460938 70.507812 248.171875 70.203125 C 247.890625 69.890625 247.75 69.515625 247.75 69.078125 C 247.75 68.558594 247.957031 68.132812 248.375 67.796875 C 248.789062 67.464844 249.316406 67.296875 249.953125 67.296875 C 250.566406 67.296875 251.207031 67.417969 251.875 67.65625 L 251.875 69.171875 L 251.21875 69.171875 L 251.21875 69.0625 L 251.171875 68.53125 C 251.148438 68.304688 251.113281 68.148438 251.0625 68.0625 C 251.007812 67.980469 250.898438 67.898438 250.734375 67.8125 C 250.503906 67.710938 250.269531 67.65625 250.03125 67.65625 C 249.6875 67.65625 249.398438 67.765625 249.171875 67.984375 C 248.953125 68.195312 248.84375 68.464844 248.84375 68.796875 C 248.84375 69.070312 248.929688 69.289062 249.109375 69.453125 C 249.296875 69.621094 249.660156 69.820312 250.203125 70.046875 L 250.75 70.265625 C 251.332031 70.507812 251.738281 70.757812 251.96875 71.015625 C 252.207031 71.277344 252.328125 71.609375 252.328125 72.015625 C 252.328125 72.578125 252.101562 73.042969 251.65625 73.40625 C 251.207031 73.761719 250.625 73.9375 249.90625 73.9375 C 249.132812 73.9375 248.40625 73.78125 247.71875 73.46875 Z M 255.40625 68.625 C 255.675781 68.210938 256.015625 67.886719 256.421875 67.65625 C 256.835938 67.417969 257.265625 67.296875 257.703125 67.296875 C 258.253906 67.296875 258.679688 67.480469 258.984375 67.84375 C 259.296875 68.199219 259.453125 68.6875 259.453125 69.3125 L 259.453125 72.28125 L 259.5 72.859375 C 259.507812 73.078125 259.546875 73.21875 259.609375 73.28125 C 259.671875 73.34375 259.8125 73.382812 260.03125 73.390625 L 260.4375 73.421875 L 260.546875 73.4375 L 260.546875 73.796875 L 257.21875 73.796875 L 257.21875 73.4375 L 257.328125 73.421875 L 257.71875 73.390625 C 257.945312 73.382812 258.09375 73.34375 258.15625 73.28125 C 258.21875 73.21875 258.253906 73.078125 258.265625 72.859375 L 258.296875 72.28125 L 258.296875 69.5 C 258.296875 68.949219 258.222656 68.570312 258.078125 68.359375 C 257.941406 68.140625 257.691406 68.03125 257.328125 68.03125 C 256.804688 68.03125 256.164062 68.359375 255.40625 69.015625 L 255.40625 72.28125 C 255.40625 72.605469 255.429688 72.886719 255.484375 73.125 C 255.515625 73.230469 255.554688 73.296875 255.609375 73.328125 C 255.671875 73.359375 255.796875 73.382812 255.984375 73.390625 L 256.390625 73.421875 L 256.5 73.4375 L 256.5 73.796875 L 253.171875 73.796875 L 253.171875 73.4375 L 253.28125 73.421875 L 253.671875 73.390625 C 253.898438 73.382812 254.046875 73.34375 254.109375 73.28125 C 254.171875 73.21875 254.207031 73.078125 254.21875 72.859375 L 254.25 72.28125 L 254.25 66.0625 L 254.21875 65.484375 C 254.207031 65.257812 254.171875 65.117188 254.109375 65.0625 C 254.046875 65 253.898438 64.960938 253.671875 64.9375 L 253.28125 64.90625 L 253.171875 64.90625 L 253.171875 64.546875 L 255.40625 64.546875 Z M 255.40625 68.625 "/>
</svg>
