<?xml version="1.0" encoding="UTF-8"?>
<svg xmlns="http://www.w3.org/2000/svg" xmlns:xlink="http://www.w3.org/1999/xlink" width="200" height="200" viewBox="0 0 200 200">
<defs>
<filter id="filter-remove-color-and-invert-alpha" x="0%" y="0%" width="100%" height="100%">
<feColorMatrix color-interpolation-filters="sRGB" values="0 0 0 0 1 0 0 0 0 1 0 0 0 0 1 0 0 0 -1 1"/>
</filter>
<filter id="filter-0" x="0%" y="0%" width="100%" height="100%">
<feImage xlink:href="#compositing-group-1" result="source" x="0" y="0" width="240" height="240"/>
<feImage xlink:href="#compositing-group-2" result="destination" x="0" y="0" width="240" height="240"/>
<feComposite in="source" in2="destination" operator="arithmetic" k1="0" k2="1" k3="1" k4="0" color-interpolation-filters="sRGB"/>
</filter>
<g id="compositing-group-0" transform="translate(20, 20)">
<rect x="-20" y="-20" width="240" height="240" fill="rgb(0%, 0%, 0%)" fill-opacity="0"/>
<rect x="-20" y="-20" width="240" height="240" fill="rgb(100%, 100%, 100%)" fill-opacity="1"/>
</g>
<mask id="mask-0">
<use xlink:href="#compositing-group-0"/>
</mask>
<mask id="mask-1">
<use xlink:href="#compositing-group-0" filter="url(#filter-remove-color-and-invert-alpha)"/>
</mask>
<g id="compositing-group-1" mask="url(#mask-0)">
<g transform="translate(20, 20)">
<rect x="-20" y="-20" width="240" height="240" fill="rgb(100%, 100%, 100%)" fill-opacity="1"/>
</g>
</g>
<g id="compositing-group-2" mask="url(#mask-1)">
<g transform="translate(20, 20)">
</g>
</g>
</defs>
<g filter="url(#filter-0)" transform="translate(-20, -20)">
<rect x="0" y="0" width="240" height="240" fill="rgb(0%, 0%, 0%)" fill-opacity="1"/>
</g>
<path fill="none" stroke-width="0.5" stroke-linecap="round" stroke-linejoin="round" stroke="rgb(0%, 100%, 0%)" stroke-opacity="1" stroke-miterlimit="10" d="M 31.804688 83.082031 L 45.804688 83.082031 M 38.804688 76.082031 L 38.804688 90.082031 "/>
<path fill="none" stroke-width="1" stroke-linecap="round" stroke-linejoin="round" stroke="rgb(100%, 100%, 0%)" stroke-opacity="1" stroke-miterlimit="10" d="M 43.804688 83.082031 C 43.804688 89.75 33.804688 89.75 33.804688 83.082031 C 33.804688 76.414062 43.804688 76.414062 43.804688 83.082031 "/>
<path fill="none" stroke-width="1" stroke-linecap="round" stroke-linejoin="round" stroke="rgb(100%, 0%, 0%)" stroke-opacity="1" stroke-miterlimit="10" d="M 23.390625 66.941406 L 23.390625 99.222656 L 54.21875 99.222656 L 54.21875 66.941406 L 23.390625 66.941406 "/>
<path fill="none" stroke-width="1" stroke-linecap="round" stroke-linejoin="round" stroke="rgb(0%, 0%, 100%)" stroke-opacity="1" stroke-miterlimit="10" d="M 43.804688 83.082031 C 43.804688 89.75 33.804688 89.75 33.804688 83.082031 C 33.804688 76.414062 43.804688 76.414062 43.804688 83.082031 "/>
<path fill-rule="nonzero" fill="rgb(0%, 0%, 0%)" fill-opacity="1" d="M 25.03125 75.925781 L 25.03125 74.394531 L 25.59375 74.394531 L 25.59375 74.488281 C 25.601562 74.667969 25.609375 74.800781 25.609375 74.894531 C 25.609375 75.074219 25.628906 75.203125 25.671875 75.285156 C 25.722656 75.359375 25.820312 75.441406 25.96875 75.535156 C 26.34375 75.765625 26.765625 75.878906 27.234375 75.878906 C 27.703125 75.878906 28.066406 75.746094 28.328125 75.472656 C 28.597656 75.203125 28.734375 74.828125 28.734375 74.347656 C 28.734375 73.953125 28.644531 73.640625 28.46875 73.410156 C 28.300781 73.171875 27.972656 72.910156 27.484375 72.628906 L 26.921875 72.300781 C 26.253906 71.9375 25.78125 71.582031 25.5 71.238281 C 25.226562 70.894531 25.09375 70.5 25.09375 70.050781 C 25.09375 69.449219 25.3125 68.949219 25.75 68.550781 C 26.1875 68.144531 26.738281 67.941406 27.40625 67.941406 C 27.96875 67.941406 28.632812 68.050781 29.40625 68.269531 L 29.40625 69.691406 L 28.8125 69.691406 L 28.8125 69.597656 C 28.789062 69.402344 28.78125 69.261719 28.78125 69.175781 C 28.78125 68.855469 28.6875 68.640625 28.5 68.535156 C 28.226562 68.378906 27.878906 68.300781 27.453125 68.300781 C 27.066406 68.300781 26.753906 68.425781 26.515625 68.675781 C 26.285156 68.925781 26.171875 69.261719 26.171875 69.675781 C 26.171875 70.019531 26.25 70.308594 26.40625 70.535156 C 26.570312 70.765625 26.867188 71.003906 27.296875 71.253906 L 27.859375 71.566406 C 28.640625 72.015625 29.164062 72.40625 29.4375 72.738281 C 29.71875 73.0625 29.859375 73.472656 29.859375 73.972656 C 29.859375 74.628906 29.609375 75.183594 29.109375 75.628906 C 28.617188 76.066406 28.007812 76.285156 27.28125 76.285156 C 26.914062 76.285156 26.515625 76.246094 26.078125 76.175781 C 25.640625 76.101562 25.289062 76.019531 25.03125 75.925781 Z M 33.640625 76.222656 C 32.796875 76.222656 32.125 75.949219 31.625 75.394531 C 31.132812 74.84375 30.890625 74.097656 30.890625 73.160156 C 30.890625 72.222656 31.140625 71.484375 31.640625 70.941406 C 32.140625 70.390625 32.816406 70.113281 33.671875 70.113281 C 34.535156 70.113281 35.210938 70.390625 35.703125 70.941406 C 36.203125 71.484375 36.453125 72.222656 36.453125 73.160156 C 36.453125 74.109375 36.203125 74.859375 35.703125 75.410156 C 35.203125 75.953125 34.515625 76.222656 33.640625 76.222656 Z M 33.65625 75.878906 C 34.144531 75.878906 34.546875 75.625 34.859375 75.113281 C 35.171875 74.605469 35.328125 73.953125 35.328125 73.160156 C 35.328125 72.390625 35.164062 71.746094 34.84375 71.222656 C 34.53125 70.703125 34.140625 70.441406 33.671875 70.441406 C 33.203125 70.441406 32.804688 70.703125 32.484375 71.222656 C 32.171875 71.746094 32.015625 72.390625 32.015625 73.160156 C 32.015625 73.941406 32.171875 74.59375 32.484375 75.113281 C 32.796875 75.625 33.1875 75.878906 33.65625 75.878906 Z M 39.234375 71.347656 C 39.847656 70.527344 40.519531 70.113281 41.25 70.113281 C 41.65625 70.113281 41.988281 70.222656 42.25 70.441406 C 42.507812 70.652344 42.675781 70.953125 42.75 71.347656 C 43.125 70.890625 43.460938 70.574219 43.765625 70.394531 C 44.078125 70.207031 44.429688 70.113281 44.828125 70.113281 C 45.316406 70.113281 45.695312 70.269531 45.96875 70.582031 C 46.25 70.886719 46.390625 71.300781 46.390625 71.832031 L 46.390625 74.691406 C 46.390625 74.984375 46.414062 75.238281 46.46875 75.457031 C 46.488281 75.550781 46.523438 75.621094 46.578125 75.660156 C 46.640625 75.691406 46.753906 75.714844 46.921875 75.722656 L 47.28125 75.738281 L 47.390625 75.753906 L 47.390625 76.082031 L 44.34375 76.082031 L 44.34375 75.753906 L 44.4375 75.738281 L 44.8125 75.722656 C 44.976562 75.714844 45.085938 75.691406 45.140625 75.660156 C 45.203125 75.621094 45.242188 75.550781 45.265625 75.457031 C 45.304688 75.238281 45.328125 74.984375 45.328125 74.691406 L 45.328125 72.035156 C 45.328125 71.578125 45.269531 71.261719 45.15625 71.082031 C 45.039062 70.894531 44.828125 70.800781 44.515625 70.800781 C 43.992188 70.800781 43.425781 71.105469 42.8125 71.707031 L 42.8125 74.691406 L 42.84375 75.222656 C 42.851562 75.433594 42.882812 75.5625 42.9375 75.613281 C 43 75.667969 43.132812 75.703125 43.34375 75.722656 L 43.703125 75.738281 L 43.8125 75.753906 L 43.8125 76.082031 L 40.765625 76.082031 L 40.765625 75.753906 L 40.859375 75.738281 L 41.234375 75.722656 C 41.398438 75.714844 41.507812 75.691406 41.5625 75.660156 C 41.625 75.621094 41.664062 75.550781 41.6875 75.457031 C 41.726562 75.238281 41.75 74.984375 41.75 74.691406 L 41.75 72.035156 C 41.75 71.578125 41.691406 71.261719 41.578125 71.082031 C 41.460938 70.894531 41.253906 70.800781 40.953125 70.800781 C 40.390625 70.800781 39.816406 71.105469 39.234375 71.707031 L 39.234375 74.691406 C 39.234375 74.984375 39.257812 75.238281 39.3125 75.457031 C 39.332031 75.550781 39.367188 75.621094 39.421875 75.660156 C 39.484375 75.691406 39.597656 75.714844 39.765625 75.722656 L 40.125 75.738281 L 40.234375 75.753906 L 40.234375 76.082031 L 37.1875 76.082031 L 37.1875 75.753906 L 37.28125 75.738281 L 37.640625 75.722656 C 37.847656 75.703125 37.976562 75.667969 38.03125 75.613281 C 38.09375 75.5625 38.128906 75.433594 38.140625 75.222656 L 38.171875 74.691406 L 38.171875 71.644531 L 38.140625 71.113281 C 38.128906 70.90625 38.09375 70.777344 38.03125 70.722656 C 37.976562 70.660156 37.847656 70.625 37.640625 70.613281 L 37.28125 70.582031 L 37.1875 70.582031 L 37.1875 70.253906 L 39.234375 70.253906 Z M 52.65625 75.816406 C 51.976562 76.085938 51.363281 76.222656 50.8125 76.222656 C 49.957031 76.222656 49.257812 75.9375 48.71875 75.363281 C 48.1875 74.78125 47.921875 74.03125 47.921875 73.113281 C 47.921875 72.230469 48.160156 71.511719 48.640625 70.957031 C 49.117188 70.394531 49.734375 70.113281 50.484375 70.113281 C 51.179688 70.113281 51.71875 70.347656 52.09375 70.816406 C 52.46875 71.285156 52.65625 71.957031 52.65625 72.832031 L 52.65625 72.941406 L 49.09375 72.941406 C 49.09375 73.746094 49.203125 74.34375 49.421875 74.738281 C 49.765625 75.363281 50.285156 75.675781 50.984375 75.675781 C 51.640625 75.675781 52.195312 75.542969 52.65625 75.269531 Z M 49.109375 72.597656 L 51.53125 72.597656 L 51.53125 72.363281 C 51.53125 71.9375 51.507812 71.625 51.46875 71.425781 C 51.4375 71.230469 51.367188 71.050781 51.265625 70.894531 C 51.054688 70.59375 50.773438 70.441406 50.421875 70.441406 C 50.015625 70.441406 49.691406 70.640625 49.453125 71.035156 C 49.222656 71.421875 49.109375 71.941406 49.109375 72.597656 Z M 28.140625 78.597656 L 28.140625 85.691406 C 28.140625 85.984375 28.164062 86.238281 28.21875 86.457031 C 28.238281 86.550781 28.273438 86.621094 28.328125 86.660156 C 28.390625 86.691406 28.503906 86.714844 28.671875 86.722656 L 29.03125 86.738281 L 29.140625 86.753906 L 29.140625 87.082031 L 26.09375 87.082031 L 26.09375 86.753906 L 26.1875 86.738281 L 26.546875 86.722656 C 26.753906 86.703125 26.882812 86.667969 26.9375 86.613281 C 27 86.5625 27.035156 86.433594 27.046875 86.222656 L 27.078125 85.691406 L 27.078125 79.988281 L 27.046875 79.457031 C 27.035156 79.261719 27 79.136719 26.9375 79.082031 C 26.882812 79.019531 26.753906 78.984375 26.546875 78.972656 L 26.1875 78.941406 L 26.09375 78.941406 L 26.09375 78.597656 Z M 33.484375 86.285156 C 33.128906 86.628906 32.8125 86.875 32.53125 87.019531 C 32.257812 87.152344 31.953125 87.222656 31.609375 87.222656 C 31.117188 87.222656 30.707031 87.066406 30.375 86.753906 C 30.039062 86.433594 29.875 86.035156 29.875 85.566406 C 29.875 85.015625 30.09375 84.566406 30.53125 84.222656 C 30.800781 84.003906 31.117188 83.855469 31.484375 83.769531 C 31.859375 83.675781 32.367188 83.628906 33.015625 83.628906 L 33.234375 83.628906 L 33.234375 82.910156 C 33.234375 81.996094 32.882812 81.535156 32.1875 81.535156 C 31.863281 81.535156 31.578125 81.636719 31.328125 81.832031 C 31.179688 81.949219 31.085938 82.199219 31.046875 82.582031 L 31.046875 82.675781 L 30.328125 82.675781 L 30.328125 81.613281 C 31.066406 81.28125 31.753906 81.113281 32.390625 81.113281 C 32.941406 81.113281 33.390625 81.246094 33.734375 81.503906 C 33.953125 81.671875 34.097656 81.855469 34.171875 82.050781 C 34.253906 82.238281 34.296875 82.511719 34.296875 82.863281 L 34.296875 85.472656 C 34.296875 85.933594 34.332031 86.261719 34.40625 86.457031 C 34.488281 86.644531 34.632812 86.738281 34.84375 86.738281 C 34.90625 86.738281 35 86.722656 35.125 86.691406 L 35.15625 87.082031 C 34.90625 87.175781 34.675781 87.222656 34.46875 87.222656 C 33.945312 87.222656 33.617188 86.910156 33.484375 86.285156 Z M 33.234375 86.160156 L 33.234375 83.972656 L 32.984375 83.972656 C 32.367188 83.972656 31.882812 84.105469 31.53125 84.363281 C 31.175781 84.613281 31 84.964844 31 85.410156 C 31 85.753906 31.109375 86.035156 31.328125 86.253906 C 31.546875 86.472656 31.816406 86.582031 32.140625 86.582031 C 32.453125 86.582031 32.816406 86.441406 33.234375 86.160156 Z M 36.171875 87.144531 L 36.171875 79.988281 L 36.140625 79.457031 C 36.128906 79.261719 36.09375 79.136719 36.03125 79.082031 C 35.976562 79.019531 35.847656 78.984375 35.640625 78.972656 L 35.28125 78.941406 L 35.171875 78.941406 L 35.171875 78.597656 L 37.234375 78.597656 L 37.234375 82.347656 C 37.753906 81.527344 38.4375 81.113281 39.28125 81.113281 C 39.9375 81.113281 40.457031 81.375 40.84375 81.894531 C 41.238281 82.417969 41.4375 83.113281 41.4375 83.988281 C 41.4375 84.96875 41.210938 85.753906 40.765625 86.347656 C 40.316406 86.933594 39.722656 87.222656 38.984375 87.222656 C 38.296875 87.222656 37.710938 86.957031 37.234375 86.425781 L 37.171875 86.425781 L 37.03125 87.144531 Z M 37.234375 86.003906 C 37.796875 86.421875 38.332031 86.628906 38.84375 86.628906 C 39.320312 86.628906 39.6875 86.425781 39.9375 86.019531 C 40.1875 85.613281 40.3125 85.035156 40.3125 84.285156 C 40.3125 83.453125 40.191406 82.832031 39.953125 82.425781 C 39.722656 82.011719 39.367188 81.800781 38.890625 81.800781 C 38.597656 81.800781 38.300781 81.886719 38 82.050781 C 37.707031 82.21875 37.453125 82.441406 37.234375 82.722656 Z M 47.296875 86.816406 C 46.617188 87.085938 46.003906 87.222656 45.453125 87.222656 C 44.597656 87.222656 43.898438 86.9375 43.359375 86.363281 C 42.828125 85.78125 42.5625 85.03125 42.5625 84.113281 C 42.5625 83.230469 42.800781 82.511719 43.28125 81.957031 C 43.757812 81.394531 44.375 81.113281 45.125 81.113281 C 45.820312 81.113281 46.359375 81.347656 46.734375 81.816406 C 47.109375 82.285156 47.296875 82.957031 47.296875 83.832031 L 47.296875 83.941406 L 43.734375 83.941406 C 43.734375 84.746094 43.84375 85.34375 44.0625 85.738281 C 44.40625 86.363281 44.925781 86.675781 45.625 86.675781 C 46.28125 86.675781 46.835938 86.542969 47.296875 86.269531 Z M 43.75 83.597656 L 46.171875 83.597656 L 46.171875 83.363281 C 46.171875 82.9375 46.148438 82.625 46.109375 82.425781 C 46.078125 82.230469 46.007812 82.050781 45.90625 81.894531 C 45.695312 81.59375 45.414062 81.441406 45.0625 81.441406 C 44.65625 81.441406 44.332031 81.640625 44.09375 82.035156 C 43.863281 82.421875 43.75 82.941406 43.75 83.597656 Z M 50.109375 78.597656 L 50.109375 85.691406 C 50.109375 85.984375 50.132812 86.238281 50.1875 86.457031 C 50.207031 86.550781 50.242188 86.621094 50.296875 86.660156 C 50.359375 86.691406 50.472656 86.714844 50.640625 86.722656 L 51 86.738281 L 51.109375 86.753906 L 51.109375 87.082031 L 48.0625 87.082031 L 48.0625 86.753906 L 48.15625 86.738281 L 48.515625 86.722656 C 48.722656 86.703125 48.851562 86.667969 48.90625 86.613281 C 48.96875 86.5625 49.003906 86.433594 49.015625 86.222656 L 49.046875 85.691406 L 49.046875 79.988281 L 49.015625 79.457031 C 49.003906 79.261719 48.96875 79.136719 48.90625 79.082031 C 48.851562 79.019531 48.722656 78.984375 48.515625 78.972656 L 48.15625 78.941406 L 48.0625 78.941406 L 48.0625 78.597656 Z M 32.265625 98.050781 C 31.992188 98.164062 31.738281 98.222656 31.5 98.222656 C 30.945312 98.222656 30.515625 98.078125 30.203125 97.785156 C 30.015625 97.621094 29.882812 97.433594 29.8125 97.222656 C 29.75 97.003906 29.71875 96.683594 29.71875 96.253906 L 29.71875 92.691406 L 28.859375 92.691406 L 28.859375 92.253906 L 29.71875 92.253906 L 29.71875 91.191406 L 30.78125 90.925781 L 30.78125 92.253906 L 32.390625 92.253906 L 32.390625 92.691406 L 30.78125 92.691406 L 30.78125 96.394531 C 30.78125 96.90625 30.828125 97.246094 30.921875 97.410156 C 31.066406 97.660156 31.3125 97.785156 31.65625 97.785156 C 31.820312 97.785156 32.023438 97.730469 32.265625 97.613281 Z M 37.96875 97.816406 C 37.289062 98.085938 36.675781 98.222656 36.125 98.222656 C 35.269531 98.222656 34.570312 97.9375 34.03125 97.363281 C 33.5 96.78125 33.234375 96.03125 33.234375 95.113281 C 33.234375 94.230469 33.472656 93.511719 33.953125 92.957031 C 34.429688 92.394531 35.046875 92.113281 35.796875 92.113281 C 36.492188 92.113281 37.03125 92.347656 37.40625 92.816406 C 37.78125 93.285156 37.96875 93.957031 37.96875 94.832031 L 37.96875 94.941406 L 34.40625 94.941406 C 34.40625 95.746094 34.515625 96.34375 34.734375 96.738281 C 35.078125 97.363281 35.597656 97.675781 36.296875 97.675781 C 36.953125 97.675781 37.507812 97.542969 37.96875 97.269531 Z M 34.421875 94.597656 L 36.84375 94.597656 L 36.84375 94.363281 C 36.84375 93.9375 36.820312 93.625 36.78125 93.425781 C 36.75 93.230469 36.679688 93.050781 36.578125 92.894531 C 36.367188 92.59375 36.085938 92.441406 35.734375 92.441406 C 35.328125 92.441406 35.003906 92.640625 34.765625 93.035156 C 34.535156 93.421875 34.421875 93.941406 34.421875 94.597656 Z M 38.546875 98.082031 L 38.546875 97.753906 L 38.640625 97.738281 C 38.835938 97.730469 39.039062 97.605469 39.25 97.363281 L 39.828125 96.707031 L 41.046875 95.253906 L 39.8125 93.660156 L 39.28125 93.003906 C 39.144531 92.828125 39.039062 92.71875 38.96875 92.675781 C 38.894531 92.625 38.78125 92.59375 38.625 92.582031 L 38.515625 92.582031 L 38.515625 92.253906 L 41.15625 92.253906 L 41.15625 92.582031 L 41.0625 92.582031 L 40.828125 92.597656 C 40.585938 92.597656 40.46875 92.652344 40.46875 92.753906 C 40.46875 92.816406 40.671875 93.121094 41.078125 93.660156 L 41.90625 94.785156 L 42.71875 93.675781 C 42.820312 93.53125 42.929688 93.355469 43.046875 93.144531 C 43.171875 92.925781 43.234375 92.792969 43.234375 92.738281 C 43.234375 92.636719 43.132812 92.582031 42.9375 92.582031 L 42.625 92.582031 L 42.625 92.253906 L 44.484375 92.253906 L 44.484375 92.582031 L 44.375 92.582031 C 44.226562 92.59375 44.109375 92.628906 44.015625 92.691406 C 43.921875 92.746094 43.820312 92.847656 43.71875 93.003906 C 43.539062 93.246094 43.375 93.464844 43.21875 93.660156 L 42.125 95.050781 L 43.390625 96.691406 C 43.691406 97.089844 43.925781 97.359375 44.09375 97.503906 C 44.257812 97.652344 44.425781 97.730469 44.59375 97.738281 L 44.671875 97.753906 L 44.671875 98.082031 L 42.015625 98.082031 L 42.015625 97.753906 L 42.125 97.753906 L 42.359375 97.738281 C 42.628906 97.738281 42.765625 97.699219 42.765625 97.613281 C 42.765625 97.59375 42.742188 97.5625 42.703125 97.519531 C 42.671875 97.480469 42.628906 97.410156 42.578125 97.316406 C 42.429688 97.097656 42.289062 96.894531 42.15625 96.707031 L 41.25 95.519531 L 40.34375 96.707031 L 40.046875 97.082031 L 39.765625 97.472656 C 39.734375 97.527344 39.71875 97.5625 39.71875 97.582031 C 39.71875 97.6875 39.847656 97.738281 40.109375 97.738281 L 40.328125 97.753906 L 40.453125 97.753906 L 40.453125 98.082031 Z M 48.53125 98.050781 C 48.257812 98.164062 48.003906 98.222656 47.765625 98.222656 C 47.210938 98.222656 46.78125 98.078125 46.46875 97.785156 C 46.28125 97.621094 46.148438 97.433594 46.078125 97.222656 C 46.015625 97.003906 45.984375 96.683594 45.984375 96.253906 L 45.984375 92.691406 L 45.125 92.691406 L 45.125 92.253906 L 45.984375 92.253906 L 45.984375 91.191406 L 47.046875 90.925781 L 47.046875 92.253906 L 48.65625 92.253906 L 48.65625 92.691406 L 47.046875 92.691406 L 47.046875 96.394531 C 47.046875 96.90625 47.09375 97.246094 47.1875 97.410156 C 47.332031 97.660156 47.578125 97.785156 47.921875 97.785156 C 48.085938 97.785156 48.289062 97.730469 48.53125 97.613281 Z M 48.53125 98.050781 "/>
<path fill-rule="evenodd" fill="rgb(78.431373%, 19.607843%, 19.607843%)" fill-opacity="1" d="M 48.800781 124.917969 L 48.800781 141.917969 L 191.550781 141.917969 L 191.550781 124.917969 Z M 48.800781 124.917969 "/>
<path fill="none" stroke-width="1" stroke-linecap="round" stroke-linejoin="round" stroke="rgb(39.215686%, 39.215686%, 39.215686%)" stroke-opacity="1" stroke-miterlimit="10" d="M 49.800781 115.917969 C 49.800781 121.441406 45.324219 125.917969 39.800781 125.917969 C 34.277344 125.917969 29.800781 121.441406 29.800781 115.917969 C 29.800781 110.394531 34.277344 105.917969 39.800781 105.917969 C 45.324219 105.917969 49.800781 110.394531 49.800781 115.917969 "/>
<path fill="none" stroke-width="1" stroke-linecap="round" stroke-linejoin="round" stroke="rgb(0%, 0%, 0%)" stroke-opacity="1" stroke-miterlimit="10" d="M 41.800781 115.917969 C 41.800781 118.585938 37.800781 118.585938 37.800781 115.917969 C 37.800781 113.25 41.800781 113.25 41.800781 115.917969 "/>
<path fill-rule="evenodd" fill="rgb(100%, 100%, 0%)" fill-opacity="1" d="M 50.910156 140.292969 L 50.910156 137.652344 L 51.878906 137.652344 L 51.894531 137.824219 C 51.902344 138.128906 51.910156 138.355469 51.910156 138.511719 C 51.910156 138.816406 51.945312 139.039062 52.019531 139.183594 C 52.101562 139.320312 52.269531 139.464844 52.519531 139.621094 C 53.175781 140.027344 53.902344 140.230469 54.707031 140.230469 C 55.519531 140.230469 56.152344 139.996094 56.613281 139.527344 C 57.082031 139.058594 57.316406 138.414062 57.316406 137.589844 C 57.316406 136.902344 57.164062 136.355469 56.863281 135.949219 C 56.570312 135.542969 55.992188 135.097656 55.128906 134.605469 L 54.160156 134.058594 C 53.023438 133.414062 52.210938 132.792969 51.722656 132.199219 C 51.242188 131.605469 51.003906 130.929688 51.003906 130.167969 C 51.003906 129.105469 51.382812 128.230469 52.144531 127.542969 C 52.902344 126.847656 53.855469 126.496094 55.003906 126.496094 C 55.980469 126.496094 57.136719 126.695312 58.472656 127.089844 L 58.472656 129.527344 L 57.441406 129.527344 L 57.425781 129.371094 C 57.402344 129.039062 57.394531 128.792969 57.394531 128.636719 C 57.394531 128.085938 57.230469 127.722656 56.910156 127.542969 C 56.429688 127.261719 55.820312 127.121094 55.082031 127.121094 C 54.414062 127.121094 53.878906 127.339844 53.472656 127.777344 C 53.074219 128.214844 52.878906 128.789062 52.878906 129.496094 C 52.878906 130.101562 53.019531 130.601562 53.300781 130.996094 C 53.582031 131.394531 54.089844 131.804688 54.832031 132.230469 L 55.800781 132.777344 C 57.152344 133.550781 58.066406 134.222656 58.535156 134.792969 C 59.003906 135.355469 59.238281 136.070312 59.238281 136.933594 C 59.238281 138.070312 58.808594 139.019531 57.957031 139.777344 C 57.113281 140.539062 56.054688 140.917969 54.785156 140.917969 C 54.148438 140.917969 53.457031 140.855469 52.707031 140.730469 C 51.964844 140.613281 51.367188 140.472656 50.910156 140.292969 Z M 65.753906 140.808594 C 64.304688 140.808594 63.152344 140.335938 62.300781 139.386719 C 61.445312 138.441406 61.019531 137.160156 61.019531 135.542969 C 61.019531 133.910156 61.445312 132.621094 62.300781 131.683594 C 63.164062 130.746094 64.335938 130.277344 65.816406 130.277344 C 67.304688 130.277344 68.476562 130.746094 69.332031 131.683594 C 70.195312 132.621094 70.628906 133.898438 70.628906 135.511719 C 70.628906 137.167969 70.195312 138.464844 69.332031 139.402344 C 68.464844 140.339844 67.273438 140.808594 65.753906 140.808594 Z M 65.785156 140.230469 C 66.628906 140.230469 67.320312 139.789062 67.863281 138.902344 C 68.414062 138.019531 68.691406 136.886719 68.691406 135.511719 C 68.691406 134.191406 68.414062 133.082031 67.863281 132.183594 C 67.320312 131.289062 66.636719 130.839844 65.816406 130.839844 C 65.003906 130.839844 64.320312 131.289062 63.769531 132.183594 C 63.226562 133.082031 62.957031 134.199219 62.957031 135.542969 C 62.957031 136.878906 63.226562 137.992188 63.769531 138.886719 C 64.308594 139.785156 64.980469 140.230469 65.785156 140.230469 Z M 75.441406 132.386719 C 76.492188 130.980469 77.652344 130.277344 78.925781 130.277344 C 79.632812 130.277344 80.207031 130.460938 80.644531 130.824219 C 81.089844 131.191406 81.378906 131.710938 81.503906 132.386719 C 82.148438 131.605469 82.738281 131.058594 83.269531 130.746094 C 83.808594 130.433594 84.417969 130.277344 85.097656 130.277344 C 85.941406 130.277344 86.601562 130.542969 87.082031 131.074219 C 87.558594 131.597656 87.800781 132.320312 87.800781 133.246094 L 87.800781 138.167969 C 87.800781 138.679688 87.839844 139.128906 87.925781 139.511719 C 87.964844 139.667969 88.035156 139.777344 88.128906 139.839844 C 88.230469 139.894531 88.429688 139.929688 88.722656 139.949219 L 89.347656 139.996094 L 89.519531 139.996094 L 89.519531 140.574219 L 84.253906 140.574219 L 84.253906 139.996094 L 84.425781 139.996094 L 85.066406 139.949219 C 85.347656 139.929688 85.535156 139.894531 85.628906 139.839844 C 85.730469 139.777344 85.804688 139.667969 85.847656 139.511719 C 85.929688 139.117188 85.972656 138.667969 85.972656 138.167969 L 85.972656 133.574219 C 85.972656 132.785156 85.867188 132.238281 85.660156 131.933594 C 85.460938 131.621094 85.089844 131.464844 84.550781 131.464844 C 83.652344 131.464844 82.679688 131.988281 81.628906 133.027344 L 81.628906 138.167969 L 81.675781 139.089844 C 81.695312 139.445312 81.753906 139.667969 81.847656 139.761719 C 81.949219 139.855469 82.179688 139.917969 82.535156 139.949219 L 83.160156 139.996094 L 83.347656 139.996094 L 83.347656 140.574219 L 78.066406 140.574219 L 78.066406 139.996094 L 78.253906 139.996094 L 78.878906 139.949219 C 79.167969 139.929688 79.363281 139.894531 79.457031 139.839844 C 79.558594 139.777344 79.632812 139.667969 79.675781 139.511719 C 79.746094 139.128906 79.785156 138.679688 79.785156 138.167969 L 79.785156 133.574219 C 79.785156 132.792969 79.679688 132.246094 79.472656 131.933594 C 79.273438 131.621094 78.914062 131.464844 78.394531 131.464844 C 77.433594 131.464844 76.449219 131.988281 75.441406 133.027344 L 75.441406 138.167969 C 75.441406 138.679688 75.480469 139.128906 75.566406 139.511719 C 75.605469 139.667969 75.675781 139.777344 75.769531 139.839844 C 75.863281 139.894531 76.058594 139.929688 76.363281 139.949219 L 76.988281 139.996094 L 77.160156 139.996094 L 77.160156 140.574219 L 71.894531 140.574219 L 71.894531 139.996094 L 72.066406 139.996094 L 72.691406 139.949219 C 73.042969 139.917969 73.269531 139.855469 73.363281 139.761719 C 73.464844 139.667969 73.527344 139.445312 73.550781 139.089844 L 73.613281 138.167969 L 73.613281 132.902344 L 73.550781 131.996094 C 73.527344 131.644531 73.464844 131.417969 73.363281 131.324219 C 73.269531 131.222656 73.042969 131.160156 72.691406 131.136719 L 72.066406 131.089844 L 71.894531 131.074219 L 71.894531 130.496094 L 75.441406 130.496094 Z M 98.613281 140.121094 C 97.445312 140.578125 96.382812 140.808594 95.425781 140.808594 C 93.945312 140.808594 92.742188 140.316406 91.816406 139.324219 C 90.898438 138.324219 90.441406 137.027344 90.441406 135.433594 C 90.441406 133.925781 90.851562 132.691406 91.675781 131.730469 C 92.507812 130.761719 93.574219 130.277344 94.878906 130.277344 C 96.074219 130.277344 96.996094 130.683594 97.644531 131.496094 C 98.289062 132.300781 98.613281 133.457031 98.613281 134.964844 L 98.613281 135.136719 L 92.457031 135.136719 C 92.457031 136.523438 92.648438 137.566406 93.035156 138.261719 C 93.628906 139.335938 94.523438 139.871094 95.722656 139.871094 C 96.847656 139.871094 97.808594 139.644531 98.613281 139.183594 Z M 92.503906 134.558594 L 96.675781 134.558594 L 96.675781 134.152344 C 96.675781 133.414062 96.644531 132.878906 96.582031 132.542969 C 96.519531 132.199219 96.394531 131.886719 96.207031 131.605469 C 95.851562 131.097656 95.367188 130.839844 94.753906 130.839844 C 94.054688 130.839844 93.503906 131.179688 93.097656 131.855469 C 92.699219 132.535156 92.503906 133.433594 92.503906 134.558594 Z M 109.253906 125.917969 L 109.253906 138.167969 C 109.253906 138.679688 109.292969 139.128906 109.378906 139.511719 C 109.417969 139.667969 109.488281 139.777344 109.582031 139.839844 C 109.675781 139.894531 109.871094 139.929688 110.175781 139.949219 L 110.800781 139.996094 L 110.972656 139.996094 L 110.972656 140.574219 L 105.707031 140.574219 L 105.707031 139.996094 L 105.878906 139.996094 L 106.503906 139.949219 C 106.855469 139.917969 107.082031 139.855469 107.175781 139.761719 C 107.277344 139.667969 107.339844 139.445312 107.363281 139.089844 L 107.425781 138.167969 L 107.425781 128.324219 L 107.363281 127.402344 C 107.339844 127.058594 107.277344 126.839844 107.175781 126.746094 C 107.082031 126.644531 106.855469 126.582031 106.503906 126.558594 L 105.878906 126.511719 L 105.707031 126.496094 L 105.707031 125.917969 Z M 118.457031 139.199219 C 117.851562 139.792969 117.308594 140.210938 116.832031 140.449219 C 116.363281 140.6875 115.832031 140.808594 115.238281 140.808594 C 114.382812 140.808594 113.667969 140.539062 113.097656 139.996094 C 112.523438 139.457031 112.238281 138.777344 112.238281 137.964844 C 112.238281 137.007812 112.613281 136.230469 113.363281 135.636719 C 113.832031 135.261719 114.382812 135.003906 115.019531 134.855469 C 115.664062 134.699219 116.542969 134.621094 117.660156 134.621094 L 118.035156 134.621094 L 118.035156 133.371094 C 118.035156 131.777344 117.433594 130.980469 116.238281 130.980469 C 115.675781 130.980469 115.175781 131.152344 114.738281 131.496094 C 114.488281 131.707031 114.324219 132.136719 114.253906 132.792969 L 114.253906 132.964844 L 113.003906 132.964844 L 113.003906 131.121094 C 114.292969 130.558594 115.480469 130.277344 116.566406 130.277344 C 117.523438 130.277344 118.304688 130.503906 118.910156 130.949219 C 119.273438 131.230469 119.523438 131.539062 119.660156 131.871094 C 119.792969 132.207031 119.863281 132.679688 119.863281 133.292969 L 119.863281 137.777344 C 119.863281 138.582031 119.929688 139.148438 120.066406 139.480469 C 120.210938 139.804688 120.457031 139.964844 120.800781 139.964844 C 120.925781 139.964844 121.089844 139.941406 121.300781 139.886719 L 121.347656 140.574219 C 120.910156 140.730469 120.511719 140.808594 120.160156 140.808594 C 119.261719 140.808594 118.695312 140.273438 118.457031 139.199219 Z M 118.035156 138.980469 L 118.035156 135.199219 L 117.613281 135.199219 C 116.539062 135.199219 115.695312 135.425781 115.082031 135.871094 C 114.476562 136.308594 114.175781 136.917969 114.175781 137.699219 C 114.175781 138.285156 114.363281 138.769531 114.738281 139.152344 C 115.113281 139.527344 115.582031 139.714844 116.144531 139.714844 C 116.683594 139.714844 117.316406 139.472656 118.035156 138.980469 Z M 123.113281 140.683594 L 123.113281 128.324219 L 123.050781 127.402344 C 123.027344 127.058594 122.972656 126.839844 122.878906 126.746094 C 122.785156 126.644531 122.554688 126.582031 122.191406 126.558594 L 121.566406 126.511719 L 121.394531 126.496094 L 121.394531 125.917969 L 124.941406 125.917969 L 124.941406 132.386719 C 125.847656 130.980469 127.027344 130.277344 128.488281 130.277344 C 129.621094 130.277344 130.523438 130.726562 131.191406 131.621094 C 131.867188 132.519531 132.207031 133.726562 132.207031 135.246094 C 132.207031 136.925781 131.820312 138.273438 131.050781 139.292969 C 130.277344 140.304688 129.253906 140.808594 127.972656 140.808594 C 126.792969 140.808594 125.785156 140.351562 124.941406 139.433594 L 124.832031 139.433594 L 124.597656 140.683594 Z M 124.941406 138.714844 C 125.910156 139.433594 126.839844 139.792969 127.738281 139.792969 C 128.558594 139.792969 129.183594 139.445312 129.613281 138.746094 C 130.050781 138.050781 130.269531 137.050781 130.269531 135.746094 C 130.269531 134.308594 130.058594 133.238281 129.644531 132.527344 C 129.238281 131.808594 128.621094 131.449219 127.800781 131.449219 C 127.300781 131.449219 126.789062 131.597656 126.269531 131.886719 C 125.757812 132.167969 125.316406 132.550781 124.941406 133.027344 Z M 142.332031 140.121094 C 141.164062 140.578125 140.101562 140.808594 139.144531 140.808594 C 137.664062 140.808594 136.460938 140.316406 135.535156 139.324219 C 134.617188 138.324219 134.160156 137.027344 134.160156 135.433594 C 134.160156 133.925781 134.570312 132.691406 135.394531 131.730469 C 136.226562 130.761719 137.292969 130.277344 138.597656 130.277344 C 139.792969 130.277344 140.714844 130.683594 141.363281 131.496094 C 142.007812 132.300781 142.332031 133.457031 142.332031 134.964844 L 142.332031 135.136719 L 136.175781 135.136719 C 136.175781 136.523438 136.367188 137.566406 136.753906 138.261719 C 137.347656 139.335938 138.242188 139.871094 139.441406 139.871094 C 140.566406 139.871094 141.527344 139.644531 142.332031 139.183594 Z M 136.222656 134.558594 L 140.394531 134.558594 L 140.394531 134.152344 C 140.394531 133.414062 140.363281 132.878906 140.300781 132.542969 C 140.238281 132.199219 140.113281 131.886719 139.925781 131.605469 C 139.570312 131.097656 139.085938 130.839844 138.472656 130.839844 C 137.773438 130.839844 137.222656 131.179688 136.816406 131.855469 C 136.417969 132.535156 136.222656 133.433594 136.222656 134.558594 Z M 147.191406 125.917969 L 147.191406 138.167969 C 147.191406 138.679688 147.230469 139.128906 147.316406 139.511719 C 147.355469 139.667969 147.425781 139.777344 147.519531 139.839844 C 147.613281 139.894531 147.808594 139.929688 148.113281 139.949219 L 148.738281 139.996094 L 148.910156 139.996094 L 148.910156 140.574219 L 143.644531 140.574219 L 143.644531 139.996094 L 143.816406 139.996094 L 144.441406 139.949219 C 144.792969 139.917969 145.019531 139.855469 145.113281 139.761719 C 145.214844 139.667969 145.277344 139.445312 145.300781 139.089844 L 145.363281 138.167969 L 145.363281 128.324219 L 145.300781 127.402344 C 145.277344 127.058594 145.214844 126.839844 145.113281 126.746094 C 145.019531 126.644531 144.792969 126.582031 144.441406 126.558594 L 143.816406 126.511719 L 143.644531 126.496094 L 143.644531 125.917969 Z M 161.722656 140.511719 C 161.261719 140.707031 160.820312 140.808594 160.394531 140.808594 C 159.457031 140.808594 158.710938 140.558594 158.160156 140.058594 C 157.835938 139.769531 157.613281 139.441406 157.488281 139.074219 C 157.371094 138.710938 157.316406 138.164062 157.316406 137.433594 L 157.316406 131.246094 L 155.832031 131.246094 L 155.832031 130.496094 L 157.316406 130.496094 L 157.316406 128.667969 L 159.160156 128.214844 L 159.160156 130.496094 L 161.957031 130.496094 L 161.957031 131.246094 L 159.160156 131.246094 L 159.160156 137.667969 C 159.160156 138.542969 159.238281 139.121094 159.394531 139.402344 C 159.644531 139.839844 160.066406 140.058594 160.660156 140.058594 C 160.949219 140.058594 161.304688 139.964844 161.722656 139.777344 Z M 171.566406 140.121094 C 170.398438 140.578125 169.335938 140.808594 168.378906 140.808594 C 166.898438 140.808594 165.695312 140.316406 164.769531 139.324219 C 163.851562 138.324219 163.394531 137.027344 163.394531 135.433594 C 163.394531 133.925781 163.804688 132.691406 164.628906 131.730469 C 165.460938 130.761719 166.527344 130.277344 167.832031 130.277344 C 169.027344 130.277344 169.949219 130.683594 170.597656 131.496094 C 171.242188 132.300781 171.566406 133.457031 171.566406 134.964844 L 171.566406 135.136719 L 165.410156 135.136719 C 165.410156 136.523438 165.601562 137.566406 165.988281 138.261719 C 166.582031 139.335938 167.476562 139.871094 168.675781 139.871094 C 169.800781 139.871094 170.761719 139.644531 171.566406 139.183594 Z M 165.457031 134.558594 L 169.628906 134.558594 L 169.628906 134.152344 C 169.628906 133.414062 169.597656 132.878906 169.535156 132.542969 C 169.472656 132.199219 169.347656 131.886719 169.160156 131.605469 C 168.804688 131.097656 168.320312 130.839844 167.707031 130.839844 C 167.007812 130.839844 166.457031 131.179688 166.050781 131.855469 C 165.652344 132.535156 165.457031 133.433594 165.457031 134.558594 Z M 172.566406 140.574219 L 172.566406 139.996094 L 172.722656 139.996094 C 173.066406 139.964844 173.414062 139.746094 173.769531 139.339844 L 174.785156 138.183594 L 176.878906 135.699219 L 174.753906 132.933594 L 173.847656 131.808594 C 173.597656 131.507812 173.410156 131.316406 173.285156 131.230469 C 173.160156 131.148438 172.960938 131.101562 172.691406 131.089844 L 172.519531 131.074219 L 172.519531 130.496094 L 177.082031 130.496094 L 177.082031 131.074219 L 176.894531 131.074219 L 176.519531 131.089844 C 176.089844 131.089844 175.878906 131.179688 175.878906 131.355469 C 175.878906 131.480469 176.226562 132.007812 176.925781 132.933594 L 178.363281 134.871094 L 179.769531 132.964844 C 179.945312 132.714844 180.136719 132.410156 180.347656 132.042969 C 180.554688 131.667969 180.660156 131.433594 180.660156 131.339844 C 180.660156 131.175781 180.488281 131.089844 180.144531 131.089844 L 179.816406 131.074219 L 179.597656 131.074219 L 179.597656 130.496094 L 182.800781 130.496094 L 182.800781 131.074219 L 182.613281 131.089844 C 182.363281 131.101562 182.160156 131.160156 182.003906 131.261719 C 181.847656 131.355469 181.675781 131.539062 181.488281 131.808594 C 181.183594 132.226562 180.902344 132.601562 180.644531 132.933594 L 178.738281 135.339844 L 180.925781 138.183594 C 181.445312 138.871094 181.847656 139.339844 182.128906 139.589844 C 182.417969 139.839844 182.710938 139.976562 183.003906 139.996094 L 183.144531 139.996094 L 183.144531 140.574219 L 178.566406 140.574219 L 178.566406 139.996094 L 179.160156 139.996094 C 179.605469 139.996094 179.832031 139.925781 179.832031 139.777344 C 179.832031 139.738281 179.800781 139.679688 179.738281 139.605469 C 179.675781 139.535156 179.601562 139.417969 179.519531 139.261719 C 179.277344 138.867188 179.035156 138.507812 178.785156 138.183594 L 177.222656 136.152344 L 175.660156 138.183594 L 175.144531 138.855469 L 174.675781 139.511719 C 174.613281 139.605469 174.582031 139.675781 174.582031 139.714844 C 174.582031 139.902344 174.808594 139.996094 175.269531 139.996094 L 175.847656 139.996094 L 175.847656 140.574219 Z M 189.800781 140.511719 C 189.339844 140.707031 188.898438 140.808594 188.472656 140.808594 C 187.535156 140.808594 186.789062 140.558594 186.238281 140.058594 C 185.914062 139.769531 185.691406 139.441406 185.566406 139.074219 C 185.449219 138.710938 185.394531 138.164062 185.394531 137.433594 L 185.394531 131.246094 L 183.910156 131.246094 L 183.910156 130.496094 L 185.394531 130.496094 L 185.394531 128.667969 L 187.238281 128.214844 L 187.238281 130.496094 L 190.035156 130.496094 L 190.035156 131.246094 L 187.238281 131.246094 L 187.238281 137.667969 C 187.238281 138.542969 187.316406 139.121094 187.472656 139.402344 C 187.722656 139.839844 188.144531 140.058594 188.738281 140.058594 C 189.027344 140.058594 189.382812 139.964844 189.800781 139.777344 Z M 189.800781 140.511719 "/>
</svg>
