<?xml version="1.0" encoding="UTF-8"?>
<svg xmlns="http://www.w3.org/2000/svg" xmlns:xlink="http://www.w3.org/1999/xlink" width="200pt" height="200pt" viewBox="0 0 200 200" version="1.1">
<g id="surface2">
<rect x="0" y="0" width="200" height="200" style="fill:rgb(100%,100%,100%);fill-opacity:1;stroke:none;"/>
<path style="fill:none;stroke-width:0.5;stroke-linecap:round;stroke-linejoin:round;stroke:rgb(0%,100%,0%);stroke-opacity:1;stroke-miterlimit:10;" d="M 31.804688 83.082031 L 45.804688 83.082031 M 38.804688 76.082031 L 38.804688 90.082031 "/>
<path style="fill:none;stroke-width:1;stroke-linecap:round;stroke-linejoin:round;stroke:rgb(100%,100%,0%);stroke-opacity:1;stroke-miterlimit:10;" d="M 43.804688 83.082031 C 43.804688 89.75 33.804688 89.75 33.804688 83.082031 C 33.804688 76.414062 43.804688 76.414062 43.804688 83.082031 "/>
<path style="fill:none;stroke-width:1;stroke-linecap:round;stroke-linejoin:round;stroke:rgb(100%,0%,0%);stroke-opacity:1;stroke-miterlimit:10;" d="M 23.390625 67.082031 L 23.390625 99.363281 L 54.21875 99.363281 L 54.21875 67.082031 L 23.390625 67.082031 "/>
<path style="fill:none;stroke-width:1;stroke-linecap:round;stroke-linejoin:round;stroke:rgb(0%,0%,100%);stroke-opacity:1;stroke-miterlimit:10;" d="M 43.804688 83.082031 C 43.804688 89.75 33.804688 89.75 33.804688 83.082031 C 33.804688 76.414062 43.804688 76.414062 43.804688 83.082031 "/>
<path style=" stroke:none;fill-rule:nonzero;fill:rgb(0%,0%,0%);fill-opacity:1;" d="M 25.03125 76.066406 L 25.03125 74.535156 L 25.59375 74.535156 L 25.59375 74.628906 C 25.601562 74.808594 25.609375 74.941406 25.609375 75.035156 C 25.609375 75.214844 25.628906 75.34375 25.671875 75.425781 C 25.722656 75.5 25.820312 75.582031 25.96875 75.675781 C 26.34375 75.90625 26.765625 76.019531 27.234375 76.019531 C 27.703125 76.019531 28.066406 75.886719 28.328125 75.613281 C 28.597656 75.34375 28.734375 74.96875 28.734375 74.488281 C 28.734375 74.09375 28.644531 73.78125 28.46875 73.550781 C 28.300781 73.3125 27.972656 73.050781 27.484375 72.769531 L 26.921875 72.441406 C 26.253906 72.078125 25.78125 71.722656 25.5 71.378906 C 25.226562 71.035156 25.09375 70.640625 25.09375 70.191406 C 25.09375 69.589844 25.3125 69.089844 25.75 68.691406 C 26.1875 68.285156 26.738281 68.082031 27.40625 68.082031 C 27.96875 68.082031 28.632812 68.191406 29.40625 68.410156 L 29.40625 69.832031 L 28.8125 69.832031 L 28.8125 69.738281 C 28.789062 69.542969 28.78125 69.402344 28.78125 69.316406 C 28.78125 68.996094 28.6875 68.78125 28.5 68.675781 C 28.226562 68.519531 27.878906 68.441406 27.453125 68.441406 C 27.066406 68.441406 26.753906 68.566406 26.515625 68.816406 C 26.285156 69.066406 26.171875 69.402344 26.171875 69.816406 C 26.171875 70.160156 26.25 70.449219 26.40625 70.675781 C 26.570312 70.90625 26.867188 71.144531 27.296875 71.394531 L 27.859375 71.707031 C 28.640625 72.15625 29.164062 72.546875 29.4375 72.878906 C 29.71875 73.203125 29.859375 73.613281 29.859375 74.113281 C 29.859375 74.769531 29.609375 75.324219 29.109375 75.769531 C 28.617188 76.207031 28.007812 76.425781 27.28125 76.425781 C 26.914062 76.425781 26.515625 76.386719 26.078125 76.316406 C 25.640625 76.242188 25.289062 76.160156 25.03125 76.066406 Z M 33.640625 76.363281 C 32.796875 76.363281 32.125 76.089844 31.625 75.535156 C 31.132812 74.984375 30.890625 74.238281 30.890625 73.300781 C 30.890625 72.363281 31.140625 71.625 31.640625 71.082031 C 32.140625 70.53125 32.816406 70.253906 33.671875 70.253906 C 34.535156 70.253906 35.210938 70.53125 35.703125 71.082031 C 36.203125 71.625 36.453125 72.363281 36.453125 73.300781 C 36.453125 74.25 36.203125 75 35.703125 75.550781 C 35.203125 76.09375 34.515625 76.363281 33.640625 76.363281 Z M 33.65625 76.019531 C 34.144531 76.019531 34.546875 75.765625 34.859375 75.253906 C 35.171875 74.746094 35.328125 74.09375 35.328125 73.300781 C 35.328125 72.53125 35.164062 71.886719 34.84375 71.363281 C 34.53125 70.84375 34.140625 70.582031 33.671875 70.582031 C 33.203125 70.582031 32.804688 70.84375 32.484375 71.363281 C 32.171875 71.886719 32.015625 72.53125 32.015625 73.300781 C 32.015625 74.082031 32.171875 74.734375 32.484375 75.253906 C 32.796875 75.765625 33.1875 76.019531 33.65625 76.019531 Z M 39.234375 71.488281 C 39.847656 70.667969 40.519531 70.253906 41.25 70.253906 C 41.65625 70.253906 41.988281 70.363281 42.25 70.582031 C 42.507812 70.792969 42.675781 71.09375 42.75 71.488281 C 43.125 71.03125 43.460938 70.714844 43.765625 70.535156 C 44.078125 70.347656 44.429688 70.253906 44.828125 70.253906 C 45.316406 70.253906 45.695312 70.410156 45.96875 70.722656 C 46.25 71.027344 46.390625 71.441406 46.390625 71.972656 L 46.390625 74.832031 C 46.390625 75.125 46.414062 75.378906 46.46875 75.597656 C 46.488281 75.691406 46.523438 75.761719 46.578125 75.800781 C 46.640625 75.832031 46.753906 75.855469 46.921875 75.863281 L 47.28125 75.878906 L 47.390625 75.894531 L 47.390625 76.222656 L 44.34375 76.222656 L 44.34375 75.894531 L 44.4375 75.878906 L 44.8125 75.863281 C 44.976562 75.855469 45.085938 75.832031 45.140625 75.800781 C 45.203125 75.761719 45.242188 75.691406 45.265625 75.597656 C 45.304688 75.378906 45.328125 75.125 45.328125 74.832031 L 45.328125 72.175781 C 45.328125 71.71875 45.269531 71.402344 45.15625 71.222656 C 45.039062 71.035156 44.828125 70.941406 44.515625 70.941406 C 43.992188 70.941406 43.425781 71.246094 42.8125 71.847656 L 42.8125 74.832031 L 42.84375 75.363281 C 42.851562 75.574219 42.882812 75.703125 42.9375 75.753906 C 43 75.808594 43.132812 75.84375 43.34375 75.863281 L 43.703125 75.878906 L 43.8125 75.894531 L 43.8125 76.222656 L 40.765625 76.222656 L 40.765625 75.894531 L 40.859375 75.878906 L 41.234375 75.863281 C 41.398438 75.855469 41.507812 75.832031 41.5625 75.800781 C 41.625 75.761719 41.664062 75.691406 41.6875 75.597656 C 41.726562 75.378906 41.75 75.125 41.75 74.832031 L 41.75 72.175781 C 41.75 71.71875 41.691406 71.402344 41.578125 71.222656 C 41.460938 71.035156 41.253906 70.941406 40.953125 70.941406 C 40.390625 70.941406 39.816406 71.246094 39.234375 71.847656 L 39.234375 74.832031 C 39.234375 75.125 39.257812 75.378906 39.3125 75.597656 C 39.332031 75.691406 39.367188 75.761719 39.421875 75.800781 C 39.484375 75.832031 39.597656 75.855469 39.765625 75.863281 L 40.125 75.878906 L 40.234375 75.894531 L 40.234375 76.222656 L 37.1875 76.222656 L 37.1875 75.894531 L 37.28125 75.878906 L 37.640625 75.863281 C 37.847656 75.84375 37.976562 75.808594 38.03125 75.753906 C 38.09375 75.703125 38.128906 75.574219 38.140625 75.363281 L 38.171875 74.832031 L 38.171875 71.785156 L 38.140625 71.253906 C 38.128906 71.046875 38.09375 70.917969 38.03125 70.863281 C 37.976562 70.800781 37.847656 70.765625 37.640625 70.753906 L 37.28125 70.722656 L 37.1875 70.722656 L 37.1875 70.394531 L 39.234375 70.394531 Z M 52.65625 75.957031 C 51.976562 76.226562 51.363281 76.363281 50.8125 76.363281 C 49.957031 76.363281 49.257812 76.078125 48.71875 75.503906 C 48.1875 74.921875 47.921875 74.171875 47.921875 73.253906 C 47.921875 72.371094 48.160156 71.652344 48.640625 71.097656 C 49.117188 70.535156 49.734375 70.253906 50.484375 70.253906 C 51.179688 70.253906 51.71875 70.488281 52.09375 70.957031 C 52.46875 71.425781 52.65625 72.097656 52.65625 72.972656 L 52.65625 73.082031 L 49.09375 73.082031 C 49.09375 73.886719 49.203125 74.484375 49.421875 74.878906 C 49.765625 75.503906 50.285156 75.816406 50.984375 75.816406 C 51.640625 75.816406 52.195312 75.683594 52.65625 75.410156 Z M 49.109375 72.738281 L 51.53125 72.738281 L 51.53125 72.503906 C 51.53125 72.078125 51.507812 71.765625 51.46875 71.566406 C 51.4375 71.371094 51.367188 71.191406 51.265625 71.035156 C 51.054688 70.734375 50.773438 70.582031 50.421875 70.582031 C 50.015625 70.582031 49.691406 70.78125 49.453125 71.175781 C 49.222656 71.5625 49.109375 72.082031 49.109375 72.738281 Z M 28.140625 78.738281 L 28.140625 85.832031 C 28.140625 86.125 28.164062 86.378906 28.21875 86.597656 C 28.238281 86.691406 28.273438 86.761719 28.328125 86.800781 C 28.390625 86.832031 28.503906 86.855469 28.671875 86.863281 L 29.03125 86.878906 L 29.140625 86.894531 L 29.140625 87.222656 L 26.09375 87.222656 L 26.09375 86.894531 L 26.1875 86.878906 L 26.546875 86.863281 C 26.753906 86.84375 26.882812 86.808594 26.9375 86.753906 C 27 86.703125 27.035156 86.574219 27.046875 86.363281 L 27.078125 85.832031 L 27.078125 80.128906 L 27.046875 79.597656 C 27.035156 79.402344 27 79.277344 26.9375 79.222656 C 26.882812 79.160156 26.753906 79.125 26.546875 79.113281 L 26.1875 79.082031 L 26.09375 79.082031 L 26.09375 78.738281 Z M 33.484375 86.425781 C 33.128906 86.769531 32.8125 87.015625 32.53125 87.160156 C 32.257812 87.292969 31.953125 87.363281 31.609375 87.363281 C 31.117188 87.363281 30.707031 87.207031 30.375 86.894531 C 30.039062 86.574219 29.875 86.175781 29.875 85.707031 C 29.875 85.15625 30.09375 84.707031 30.53125 84.363281 C 30.800781 84.144531 31.117188 83.996094 31.484375 83.910156 C 31.859375 83.816406 32.367188 83.769531 33.015625 83.769531 L 33.234375 83.769531 L 33.234375 83.050781 C 33.234375 82.136719 32.882812 81.675781 32.1875 81.675781 C 31.863281 81.675781 31.578125 81.777344 31.328125 81.972656 C 31.179688 82.089844 31.085938 82.339844 31.046875 82.722656 L 31.046875 82.816406 L 30.328125 82.816406 L 30.328125 81.753906 C 31.066406 81.421875 31.753906 81.253906 32.390625 81.253906 C 32.941406 81.253906 33.390625 81.386719 33.734375 81.644531 C 33.953125 81.8125 34.097656 81.996094 34.171875 82.191406 C 34.253906 82.378906 34.296875 82.652344 34.296875 83.003906 L 34.296875 85.613281 C 34.296875 86.074219 34.332031 86.402344 34.40625 86.597656 C 34.488281 86.785156 34.632812 86.878906 34.84375 86.878906 C 34.90625 86.878906 35 86.863281 35.125 86.832031 L 35.15625 87.222656 C 34.90625 87.316406 34.675781 87.363281 34.46875 87.363281 C 33.945312 87.363281 33.617188 87.050781 33.484375 86.425781 Z M 33.234375 86.300781 L 33.234375 84.113281 L 32.984375 84.113281 C 32.367188 84.113281 31.882812 84.246094 31.53125 84.503906 C 31.175781 84.753906 31 85.105469 31 85.550781 C 31 85.894531 31.109375 86.175781 31.328125 86.394531 C 31.546875 86.613281 31.816406 86.722656 32.140625 86.722656 C 32.453125 86.722656 32.816406 86.582031 33.234375 86.300781 Z M 36.171875 87.285156 L 36.171875 80.128906 L 36.140625 79.597656 C 36.128906 79.402344 36.09375 79.277344 36.03125 79.222656 C 35.976562 79.160156 35.847656 79.125 35.640625 79.113281 L 35.28125 79.082031 L 35.171875 79.082031 L 35.171875 78.738281 L 37.234375 78.738281 L 37.234375 82.488281 C 37.753906 81.667969 38.4375 81.253906 39.28125 81.253906 C 39.9375 81.253906 40.457031 81.515625 40.84375 82.035156 C 41.238281 82.558594 41.4375 83.253906 41.4375 84.128906 C 41.4375 85.109375 41.210938 85.894531 40.765625 86.488281 C 40.316406 87.074219 39.722656 87.363281 38.984375 87.363281 C 38.296875 87.363281 37.710938 87.097656 37.234375 86.566406 L 37.171875 86.566406 L 37.03125 87.285156 Z M 37.234375 86.144531 C 37.796875 86.5625 38.332031 86.769531 38.84375 86.769531 C 39.320312 86.769531 39.6875 86.566406 39.9375 86.160156 C 40.1875 85.753906 40.3125 85.175781 40.3125 84.425781 C 40.3125 83.59375 40.191406 82.972656 39.953125 82.566406 C 39.722656 82.152344 39.367188 81.941406 38.890625 81.941406 C 38.597656 81.941406 38.300781 82.027344 38 82.191406 C 37.707031 82.359375 37.453125 82.582031 37.234375 82.863281 Z M 47.296875 86.957031 C 46.617188 87.226562 46.003906 87.363281 45.453125 87.363281 C 44.597656 87.363281 43.898438 87.078125 43.359375 86.503906 C 42.828125 85.921875 42.5625 85.171875 42.5625 84.253906 C 42.5625 83.371094 42.800781 82.652344 43.28125 82.097656 C 43.757812 81.535156 44.375 81.253906 45.125 81.253906 C 45.820312 81.253906 46.359375 81.488281 46.734375 81.957031 C 47.109375 82.425781 47.296875 83.097656 47.296875 83.972656 L 47.296875 84.082031 L 43.734375 84.082031 C 43.734375 84.886719 43.84375 85.484375 44.0625 85.878906 C 44.40625 86.503906 44.925781 86.816406 45.625 86.816406 C 46.28125 86.816406 46.835938 86.683594 47.296875 86.410156 Z M 43.75 83.738281 L 46.171875 83.738281 L 46.171875 83.503906 C 46.171875 83.078125 46.148438 82.765625 46.109375 82.566406 C 46.078125 82.371094 46.007812 82.191406 45.90625 82.035156 C 45.695312 81.734375 45.414062 81.582031 45.0625 81.582031 C 44.65625 81.582031 44.332031 81.78125 44.09375 82.175781 C 43.863281 82.5625 43.75 83.082031 43.75 83.738281 Z M 50.109375 78.738281 L 50.109375 85.832031 C 50.109375 86.125 50.132812 86.378906 50.1875 86.597656 C 50.207031 86.691406 50.242188 86.761719 50.296875 86.800781 C 50.359375 86.832031 50.472656 86.855469 50.640625 86.863281 L 51 86.878906 L 51.109375 86.894531 L 51.109375 87.222656 L 48.0625 87.222656 L 48.0625 86.894531 L 48.15625 86.878906 L 48.515625 86.863281 C 48.722656 86.84375 48.851562 86.808594 48.90625 86.753906 C 48.96875 86.703125 49.003906 86.574219 49.015625 86.363281 L 49.046875 85.832031 L 49.046875 80.128906 L 49.015625 79.597656 C 49.003906 79.402344 48.96875 79.277344 48.90625 79.222656 C 48.851562 79.160156 48.722656 79.125 48.515625 79.113281 L 48.15625 79.082031 L 48.0625 79.082031 L 48.0625 78.738281 Z M 32.265625 98.191406 C 31.992188 98.304688 31.738281 98.363281 31.5 98.363281 C 30.945312 98.363281 30.515625 98.21875 30.203125 97.925781 C 30.015625 97.761719 29.882812 97.574219 29.8125 97.363281 C 29.75 97.144531 29.71875 96.824219 29.71875 96.394531 L 29.71875 92.832031 L 28.859375 92.832031 L 28.859375 92.394531 L 29.71875 92.394531 L 29.71875 91.332031 L 30.78125 91.066406 L 30.78125 92.394531 L 32.390625 92.394531 L 32.390625 92.832031 L 30.78125 92.832031 L 30.78125 96.535156 C 30.78125 97.046875 30.828125 97.386719 30.921875 97.550781 C 31.066406 97.800781 31.3125 97.925781 31.65625 97.925781 C 31.820312 97.925781 32.023438 97.871094 32.265625 97.753906 Z M 37.96875 97.957031 C 37.289062 98.226562 36.675781 98.363281 36.125 98.363281 C 35.269531 98.363281 34.570312 98.078125 34.03125 97.503906 C 33.5 96.921875 33.234375 96.171875 33.234375 95.253906 C 33.234375 94.371094 33.472656 93.652344 33.953125 93.097656 C 34.429688 92.535156 35.046875 92.253906 35.796875 92.253906 C 36.492188 92.253906 37.03125 92.488281 37.40625 92.957031 C 37.78125 93.425781 37.96875 94.097656 37.96875 94.972656 L 37.96875 95.082031 L 34.40625 95.082031 C 34.40625 95.886719 34.515625 96.484375 34.734375 96.878906 C 35.078125 97.503906 35.597656 97.816406 36.296875 97.816406 C 36.953125 97.816406 37.507812 97.683594 37.96875 97.410156 Z M 34.421875 94.738281 L 36.84375 94.738281 L 36.84375 94.503906 C 36.84375 94.078125 36.820312 93.765625 36.78125 93.566406 C 36.75 93.371094 36.679688 93.191406 36.578125 93.035156 C 36.367188 92.734375 36.085938 92.582031 35.734375 92.582031 C 35.328125 92.582031 35.003906 92.78125 34.765625 93.175781 C 34.535156 93.5625 34.421875 94.082031 34.421875 94.738281 Z M 38.546875 98.222656 L 38.546875 97.894531 L 38.640625 97.878906 C 38.835938 97.871094 39.039062 97.746094 39.25 97.503906 L 39.828125 96.847656 L 41.046875 95.394531 L 39.8125 93.800781 L 39.28125 93.144531 C 39.144531 92.96875 39.039062 92.859375 38.96875 92.816406 C 38.894531 92.765625 38.78125 92.734375 38.625 92.722656 L 38.515625 92.722656 L 38.515625 92.394531 L 41.15625 92.394531 L 41.15625 92.722656 L 41.0625 92.722656 L 40.828125 92.738281 C 40.585938 92.738281 40.46875 92.792969 40.46875 92.894531 C 40.46875 92.957031 40.671875 93.261719 41.078125 93.800781 L 41.90625 94.925781 L 42.71875 93.816406 C 42.820312 93.671875 42.929688 93.496094 43.046875 93.285156 C 43.171875 93.066406 43.234375 92.933594 43.234375 92.878906 C 43.234375 92.777344 43.132812 92.722656 42.9375 92.722656 L 42.625 92.722656 L 42.625 92.394531 L 44.484375 92.394531 L 44.484375 92.722656 L 44.375 92.722656 C 44.226562 92.734375 44.109375 92.769531 44.015625 92.832031 C 43.921875 92.886719 43.820312 92.988281 43.71875 93.144531 C 43.539062 93.386719 43.375 93.605469 43.21875 93.800781 L 42.125 95.191406 L 43.390625 96.832031 C 43.691406 97.230469 43.925781 97.5 44.09375 97.644531 C 44.257812 97.792969 44.425781 97.871094 44.59375 97.878906 L 44.671875 97.894531 L 44.671875 98.222656 L 42.015625 98.222656 L 42.015625 97.894531 L 42.125 97.894531 L 42.359375 97.878906 C 42.628906 97.878906 42.765625 97.839844 42.765625 97.753906 C 42.765625 97.734375 42.742188 97.703125 42.703125 97.660156 C 42.671875 97.621094 42.628906 97.550781 42.578125 97.457031 C 42.429688 97.238281 42.289062 97.035156 42.15625 96.847656 L 41.25 95.660156 L 40.34375 96.847656 L 40.046875 97.222656 L 39.765625 97.613281 C 39.734375 97.667969 39.71875 97.703125 39.71875 97.722656 C 39.71875 97.828125 39.847656 97.878906 40.109375 97.878906 L 40.328125 97.894531 L 40.453125 97.894531 L 40.453125 98.222656 Z M 48.53125 98.191406 C 48.257812 98.304688 48.003906 98.363281 47.765625 98.363281 C 47.210938 98.363281 46.78125 98.21875 46.46875 97.925781 C 46.28125 97.761719 46.148438 97.574219 46.078125 97.363281 C 46.015625 97.144531 45.984375 96.824219 45.984375 96.394531 L 45.984375 92.832031 L 45.125 92.832031 L 45.125 92.394531 L 45.984375 92.394531 L 45.984375 91.332031 L 47.046875 91.066406 L 47.046875 92.394531 L 48.65625 92.394531 L 48.65625 92.832031 L 47.046875 92.832031 L 47.046875 96.535156 C 47.046875 97.046875 47.09375 97.386719 47.1875 97.550781 C 47.332031 97.800781 47.578125 97.925781 47.921875 97.925781 C 48.085938 97.925781 48.289062 97.871094 48.53125 97.753906 Z M 48.53125 98.191406 "/>
<path style=" stroke:none;fill-rule:evenodd;fill:rgb(78.431373%,19.607843%,19.607843%);fill-opacity:1;" d="M 48.800781 125.261719 L 48.800781 142.261719 L 191.550781 142.261719 L 191.550781 125.261719 Z M 48.800781 125.261719 "/>
<path style="fill:none;stroke-width:1;stroke-linecap:round;stroke-linejoin:round;stroke:rgb(39.215686%,39.215686%,39.215686%);stroke-opacity:1;stroke-miterlimit:10;" d="M 49.800781 115.917969 C 49.800781 121.441406 45.324219 125.917969 39.800781 125.917969 C 34.277344 125.917969 29.800781 121.441406 29.800781 115.917969 C 29.800781 110.394531 34.277344 105.917969 39.800781 105.917969 C 45.324219 105.917969 49.800781 110.394531 49.800781 115.917969 "/>
<path style="fill:none;stroke-width:1;stroke-linecap:round;stroke-linejoin:round;stroke:rgb(0%,0%,0%);stroke-opacity:1;stroke-miterlimit:10;" d="M 41.800781 115.917969 C 41.800781 118.585938 37.800781 118.585938 37.800781 115.917969 C 37.800781 113.25 41.800781 113.25 41.800781 115.917969 "/>
<path style=" stroke:none;fill-rule:evenodd;fill:rgb(100%,100%,0%);fill-opacity:1;" d="M 50.910156 140.636719 L 50.910156 137.996094 L 51.878906 137.996094 L 51.894531 138.167969 C 51.902344 138.472656 51.910156 138.699219 51.910156 138.855469 C 51.910156 139.160156 51.945312 139.382812 52.019531 139.527344 C 52.101562 139.664062 52.269531 139.808594 52.519531 139.964844 C 53.175781 140.371094 53.902344 140.574219 54.707031 140.574219 C 55.519531 140.574219 56.152344 140.339844 56.613281 139.871094 C 57.082031 139.402344 57.316406 138.757812 57.316406 137.933594 C 57.316406 137.246094 57.164062 136.699219 56.863281 136.292969 C 56.570312 135.886719 55.992188 135.441406 55.128906 134.949219 L 54.160156 134.402344 C 53.023438 133.757812 52.210938 133.136719 51.722656 132.542969 C 51.242188 131.949219 51.003906 131.273438 51.003906 130.511719 C 51.003906 129.449219 51.382812 128.574219 52.144531 127.886719 C 52.902344 127.191406 53.855469 126.839844 55.003906 126.839844 C 55.980469 126.839844 57.136719 127.039062 58.472656 127.433594 L 58.472656 129.871094 L 57.441406 129.871094 L 57.425781 129.714844 C 57.402344 129.382812 57.394531 129.136719 57.394531 128.980469 C 57.394531 128.429688 57.230469 128.066406 56.910156 127.886719 C 56.429688 127.605469 55.820312 127.464844 55.082031 127.464844 C 54.414062 127.464844 53.878906 127.683594 53.472656 128.121094 C 53.074219 128.558594 52.878906 129.132812 52.878906 129.839844 C 52.878906 130.445312 53.019531 130.945312 53.300781 131.339844 C 53.582031 131.738281 54.089844 132.148438 54.832031 132.574219 L 55.800781 133.121094 C 57.152344 133.894531 58.066406 134.566406 58.535156 135.136719 C 59.003906 135.699219 59.238281 136.414062 59.238281 137.277344 C 59.238281 138.414062 58.808594 139.363281 57.957031 140.121094 C 57.113281 140.882812 56.054688 141.261719 54.785156 141.261719 C 54.148438 141.261719 53.457031 141.199219 52.707031 141.074219 C 51.964844 140.957031 51.367188 140.816406 50.910156 140.636719 Z M 65.753906 141.152344 C 64.304688 141.152344 63.152344 140.679688 62.300781 139.730469 C 61.445312 138.785156 61.019531 137.503906 61.019531 135.886719 C 61.019531 134.253906 61.445312 132.964844 62.300781 132.027344 C 63.164062 131.089844 64.335938 130.621094 65.816406 130.621094 C 67.304688 130.621094 68.476562 131.089844 69.332031 132.027344 C 70.195312 132.964844 70.628906 134.242188 70.628906 135.855469 C 70.628906 137.511719 70.195312 138.808594 69.332031 139.746094 C 68.464844 140.683594 67.273438 141.152344 65.753906 141.152344 Z M 65.785156 140.574219 C 66.628906 140.574219 67.320312 140.132812 67.863281 139.246094 C 68.414062 138.363281 68.691406 137.230469 68.691406 135.855469 C 68.691406 134.535156 68.414062 133.425781 67.863281 132.527344 C 67.320312 131.632812 66.636719 131.183594 65.816406 131.183594 C 65.003906 131.183594 64.320312 131.632812 63.769531 132.527344 C 63.226562 133.425781 62.957031 134.542969 62.957031 135.886719 C 62.957031 137.222656 63.226562 138.335938 63.769531 139.230469 C 64.308594 140.128906 64.980469 140.574219 65.785156 140.574219 Z M 75.441406 132.730469 C 76.492188 131.324219 77.652344 130.621094 78.925781 130.621094 C 79.632812 130.621094 80.207031 130.804688 80.644531 131.167969 C 81.089844 131.535156 81.378906 132.054688 81.503906 132.730469 C 82.148438 131.949219 82.738281 131.402344 83.269531 131.089844 C 83.808594 130.777344 84.417969 130.621094 85.097656 130.621094 C 85.941406 130.621094 86.601562 130.886719 87.082031 131.417969 C 87.558594 131.941406 87.800781 132.664062 87.800781 133.589844 L 87.800781 138.511719 C 87.800781 139.023438 87.839844 139.472656 87.925781 139.855469 C 87.964844 140.011719 88.035156 140.121094 88.128906 140.183594 C 88.230469 140.238281 88.429688 140.273438 88.722656 140.292969 L 89.347656 140.339844 L 89.519531 140.339844 L 89.519531 140.917969 L 84.253906 140.917969 L 84.253906 140.339844 L 84.425781 140.339844 L 85.066406 140.292969 C 85.347656 140.273438 85.535156 140.238281 85.628906 140.183594 C 85.730469 140.121094 85.804688 140.011719 85.847656 139.855469 C 85.929688 139.460938 85.972656 139.011719 85.972656 138.511719 L 85.972656 133.917969 C 85.972656 133.128906 85.867188 132.582031 85.660156 132.277344 C 85.460938 131.964844 85.089844 131.808594 84.550781 131.808594 C 83.652344 131.808594 82.679688 132.332031 81.628906 133.371094 L 81.628906 138.511719 L 81.675781 139.433594 C 81.695312 139.789062 81.753906 140.011719 81.847656 140.105469 C 81.949219 140.199219 82.179688 140.261719 82.535156 140.292969 L 83.160156 140.339844 L 83.347656 140.339844 L 83.347656 140.917969 L 78.066406 140.917969 L 78.066406 140.339844 L 78.253906 140.339844 L 78.878906 140.292969 C 79.167969 140.273438 79.363281 140.238281 79.457031 140.183594 C 79.558594 140.121094 79.632812 140.011719 79.675781 139.855469 C 79.746094 139.472656 79.785156 139.023438 79.785156 138.511719 L 79.785156 133.917969 C 79.785156 133.136719 79.679688 132.589844 79.472656 132.277344 C 79.273438 131.964844 78.914062 131.808594 78.394531 131.808594 C 77.433594 131.808594 76.449219 132.332031 75.441406 133.371094 L 75.441406 138.511719 C 75.441406 139.023438 75.480469 139.472656 75.566406 139.855469 C 75.605469 140.011719 75.675781 140.121094 75.769531 140.183594 C 75.863281 140.238281 76.058594 140.273438 76.363281 140.292969 L 76.988281 140.339844 L 77.160156 140.339844 L 77.160156 140.917969 L 71.894531 140.917969 L 71.894531 140.339844 L 72.066406 140.339844 L 72.691406 140.292969 C 73.042969 140.261719 73.269531 140.199219 73.363281 140.105469 C 73.464844 140.011719 73.527344 139.789062 73.550781 139.433594 L 73.613281 138.511719 L 73.613281 133.246094 L 73.550781 132.339844 C 73.527344 131.988281 73.464844 131.761719 73.363281 131.667969 C 73.269531 131.566406 73.042969 131.503906 72.691406 131.480469 L 72.066406 131.433594 L 71.894531 131.417969 L 71.894531 130.839844 L 75.441406 130.839844 Z M 98.613281 140.464844 C 97.445312 140.921875 96.382812 141.152344 95.425781 141.152344 C 93.945312 141.152344 92.742188 140.660156 91.816406 139.667969 C 90.898438 138.667969 90.441406 137.371094 90.441406 135.777344 C 90.441406 134.269531 90.851562 133.035156 91.675781 132.074219 C 92.507812 131.105469 93.574219 130.621094 94.878906 130.621094 C 96.074219 130.621094 96.996094 131.027344 97.644531 131.839844 C 98.289062 132.644531 98.613281 133.800781 98.613281 135.308594 L 98.613281 135.480469 L 92.457031 135.480469 C 92.457031 136.867188 92.648438 137.910156 93.035156 138.605469 C 93.628906 139.679688 94.523438 140.214844 95.722656 140.214844 C 96.847656 140.214844 97.808594 139.988281 98.613281 139.527344 Z M 92.503906 134.902344 L 96.675781 134.902344 L 96.675781 134.496094 C 96.675781 133.757812 96.644531 133.222656 96.582031 132.886719 C 96.519531 132.542969 96.394531 132.230469 96.207031 131.949219 C 95.851562 131.441406 95.367188 131.183594 94.753906 131.183594 C 94.054688 131.183594 93.503906 131.523438 93.097656 132.199219 C 92.699219 132.878906 92.503906 133.777344 92.503906 134.902344 Z M 109.253906 126.261719 L 109.253906 138.511719 C 109.253906 139.023438 109.292969 139.472656 109.378906 139.855469 C 109.417969 140.011719 109.488281 140.121094 109.582031 140.183594 C 109.675781 140.238281 109.871094 140.273438 110.175781 140.292969 L 110.800781 140.339844 L 110.972656 140.339844 L 110.972656 140.917969 L 105.707031 140.917969 L 105.707031 140.339844 L 105.878906 140.339844 L 106.503906 140.292969 C 106.855469 140.261719 107.082031 140.199219 107.175781 140.105469 C 107.277344 140.011719 107.339844 139.789062 107.363281 139.433594 L 107.425781 138.511719 L 107.425781 128.667969 L 107.363281 127.746094 C 107.339844 127.402344 107.277344 127.183594 107.175781 127.089844 C 107.082031 126.988281 106.855469 126.925781 106.503906 126.902344 L 105.878906 126.855469 L 105.707031 126.839844 L 105.707031 126.261719 Z M 118.457031 139.542969 C 117.851562 140.136719 117.308594 140.554688 116.832031 140.792969 C 116.363281 141.03125 115.832031 141.152344 115.238281 141.152344 C 114.382812 141.152344 113.667969 140.882812 113.097656 140.339844 C 112.523438 139.800781 112.238281 139.121094 112.238281 138.308594 C 112.238281 137.351562 112.613281 136.574219 113.363281 135.980469 C 113.832031 135.605469 114.382812 135.347656 115.019531 135.199219 C 115.664062 135.042969 116.542969 134.964844 117.660156 134.964844 L 118.035156 134.964844 L 118.035156 133.714844 C 118.035156 132.121094 117.433594 131.324219 116.238281 131.324219 C 115.675781 131.324219 115.175781 131.496094 114.738281 131.839844 C 114.488281 132.050781 114.324219 132.480469 114.253906 133.136719 L 114.253906 133.308594 L 113.003906 133.308594 L 113.003906 131.464844 C 114.292969 130.902344 115.480469 130.621094 116.566406 130.621094 C 117.523438 130.621094 118.304688 130.847656 118.910156 131.292969 C 119.273438 131.574219 119.523438 131.882812 119.660156 132.214844 C 119.792969 132.550781 119.863281 133.023438 119.863281 133.636719 L 119.863281 138.121094 C 119.863281 138.925781 119.929688 139.492188 120.066406 139.824219 C 120.210938 140.148438 120.457031 140.308594 120.800781 140.308594 C 120.925781 140.308594 121.089844 140.285156 121.300781 140.230469 L 121.347656 140.917969 C 120.910156 141.074219 120.511719 141.152344 120.160156 141.152344 C 119.261719 141.152344 118.695312 140.617188 118.457031 139.542969 Z M 118.035156 139.324219 L 118.035156 135.542969 L 117.613281 135.542969 C 116.539062 135.542969 115.695312 135.769531 115.082031 136.214844 C 114.476562 136.652344 114.175781 137.261719 114.175781 138.042969 C 114.175781 138.628906 114.363281 139.113281 114.738281 139.496094 C 115.113281 139.871094 115.582031 140.058594 116.144531 140.058594 C 116.683594 140.058594 117.316406 139.816406 118.035156 139.324219 Z M 123.113281 141.027344 L 123.113281 128.667969 L 123.050781 127.746094 C 123.027344 127.402344 122.972656 127.183594 122.878906 127.089844 C 122.785156 126.988281 122.554688 126.925781 122.191406 126.902344 L 121.566406 126.855469 L 121.394531 126.839844 L 121.394531 126.261719 L 124.941406 126.261719 L 124.941406 132.730469 C 125.847656 131.324219 127.027344 130.621094 128.488281 130.621094 C 129.621094 130.621094 130.523438 131.070312 131.191406 131.964844 C 131.867188 132.863281 132.207031 134.070312 132.207031 135.589844 C 132.207031 137.269531 131.820312 138.617188 131.050781 139.636719 C 130.277344 140.648438 129.253906 141.152344 127.972656 141.152344 C 126.792969 141.152344 125.785156 140.695312 124.941406 139.777344 L 124.832031 139.777344 L 124.597656 141.027344 Z M 124.941406 139.058594 C 125.910156 139.777344 126.839844 140.136719 127.738281 140.136719 C 128.558594 140.136719 129.183594 139.789062 129.613281 139.089844 C 130.050781 138.394531 130.269531 137.394531 130.269531 136.089844 C 130.269531 134.652344 130.058594 133.582031 129.644531 132.871094 C 129.238281 132.152344 128.621094 131.792969 127.800781 131.792969 C 127.300781 131.792969 126.789062 131.941406 126.269531 132.230469 C 125.757812 132.511719 125.316406 132.894531 124.941406 133.371094 Z M 142.332031 140.464844 C 141.164062 140.921875 140.101562 141.152344 139.144531 141.152344 C 137.664062 141.152344 136.460938 140.660156 135.535156 139.667969 C 134.617188 138.667969 134.160156 137.371094 134.160156 135.777344 C 134.160156 134.269531 134.570312 133.035156 135.394531 132.074219 C 136.226562 131.105469 137.292969 130.621094 138.597656 130.621094 C 139.792969 130.621094 140.714844 131.027344 141.363281 131.839844 C 142.007812 132.644531 142.332031 133.800781 142.332031 135.308594 L 142.332031 135.480469 L 136.175781 135.480469 C 136.175781 136.867188 136.367188 137.910156 136.753906 138.605469 C 137.347656 139.679688 138.242188 140.214844 139.441406 140.214844 C 140.566406 140.214844 141.527344 139.988281 142.332031 139.527344 Z M 136.222656 134.902344 L 140.394531 134.902344 L 140.394531 134.496094 C 140.394531 133.757812 140.363281 133.222656 140.300781 132.886719 C 140.238281 132.542969 140.113281 132.230469 139.925781 131.949219 C 139.570312 131.441406 139.085938 131.183594 138.472656 131.183594 C 137.773438 131.183594 137.222656 131.523438 136.816406 132.199219 C 136.417969 132.878906 136.222656 133.777344 136.222656 134.902344 Z M 147.191406 126.261719 L 147.191406 138.511719 C 147.191406 139.023438 147.230469 139.472656 147.316406 139.855469 C 147.355469 140.011719 147.425781 140.121094 147.519531 140.183594 C 147.613281 140.238281 147.808594 140.273438 148.113281 140.292969 L 148.738281 140.339844 L 148.910156 140.339844 L 148.910156 140.917969 L 143.644531 140.917969 L 143.644531 140.339844 L 143.816406 140.339844 L 144.441406 140.292969 C 144.792969 140.261719 145.019531 140.199219 145.113281 140.105469 C 145.214844 140.011719 145.277344 139.789062 145.300781 139.433594 L 145.363281 138.511719 L 145.363281 128.667969 L 145.300781 127.746094 C 145.277344 127.402344 145.214844 127.183594 145.113281 127.089844 C 145.019531 126.988281 144.792969 126.925781 144.441406 126.902344 L 143.816406 126.855469 L 143.644531 126.839844 L 143.644531 126.261719 Z M 161.722656 140.855469 C 161.261719 141.050781 160.820312 141.152344 160.394531 141.152344 C 159.457031 141.152344 158.710938 140.902344 158.160156 140.402344 C 157.835938 140.113281 157.613281 139.785156 157.488281 139.417969 C 157.371094 139.054688 157.316406 138.507812 157.316406 137.777344 L 157.316406 131.589844 L 155.832031 131.589844 L 155.832031 130.839844 L 157.316406 130.839844 L 157.316406 129.011719 L 159.160156 128.558594 L 159.160156 130.839844 L 161.957031 130.839844 L 161.957031 131.589844 L 159.160156 131.589844 L 159.160156 138.011719 C 159.160156 138.886719 159.238281 139.464844 159.394531 139.746094 C 159.644531 140.183594 160.066406 140.402344 160.660156 140.402344 C 160.949219 140.402344 161.304688 140.308594 161.722656 140.121094 Z M 171.566406 140.464844 C 170.398438 140.921875 169.335938 141.152344 168.378906 141.152344 C 166.898438 141.152344 165.695312 140.660156 164.769531 139.667969 C 163.851562 138.667969 163.394531 137.371094 163.394531 135.777344 C 163.394531 134.269531 163.804688 133.035156 164.628906 132.074219 C 165.460938 131.105469 166.527344 130.621094 167.832031 130.621094 C 169.027344 130.621094 169.949219 131.027344 170.597656 131.839844 C 171.242188 132.644531 171.566406 133.800781 171.566406 135.308594 L 171.566406 135.480469 L 165.410156 135.480469 C 165.410156 136.867188 165.601562 137.910156 165.988281 138.605469 C 166.582031 139.679688 167.476562 140.214844 168.675781 140.214844 C 169.800781 140.214844 170.761719 139.988281 171.566406 139.527344 Z M 165.457031 134.902344 L 169.628906 134.902344 L 169.628906 134.496094 C 169.628906 133.757812 169.597656 133.222656 169.535156 132.886719 C 169.472656 132.542969 169.347656 132.230469 169.160156 131.949219 C 168.804688 131.441406 168.320312 131.183594 167.707031 131.183594 C 167.007812 131.183594 166.457031 131.523438 166.050781 132.199219 C 165.652344 132.878906 165.457031 133.777344 165.457031 134.902344 Z M 172.566406 140.917969 L 172.566406 140.339844 L 172.722656 140.339844 C 173.066406 140.308594 173.414062 140.089844 173.769531 139.683594 L 174.785156 138.527344 L 176.878906 136.042969 L 174.753906 133.277344 L 173.847656 132.152344 C 173.597656 131.851562 173.410156 131.660156 173.285156 131.574219 C 173.160156 131.492188 172.960938 131.445312 172.691406 131.433594 L 172.519531 131.417969 L 172.519531 130.839844 L 177.082031 130.839844 L 177.082031 131.417969 L 176.894531 131.417969 L 176.519531 131.433594 C 176.089844 131.433594 175.878906 131.523438 175.878906 131.699219 C 175.878906 131.824219 176.226562 132.351562 176.925781 133.277344 L 178.363281 135.214844 L 179.769531 133.308594 C 179.945312 133.058594 180.136719 132.753906 180.347656 132.386719 C 180.554688 132.011719 180.660156 131.777344 180.660156 131.683594 C 180.660156 131.519531 180.488281 131.433594 180.144531 131.433594 L 179.816406 131.417969 L 179.597656 131.417969 L 179.597656 130.839844 L 182.800781 130.839844 L 182.800781 131.417969 L 182.613281 131.433594 C 182.363281 131.445312 182.160156 131.503906 182.003906 131.605469 C 181.847656 131.699219 181.675781 131.882812 181.488281 132.152344 C 181.183594 132.570312 180.902344 132.945312 180.644531 133.277344 L 178.738281 135.683594 L 180.925781 138.527344 C 181.445312 139.214844 181.847656 139.683594 182.128906 139.933594 C 182.417969 140.183594 182.710938 140.320312 183.003906 140.339844 L 183.144531 140.339844 L 183.144531 140.917969 L 178.566406 140.917969 L 178.566406 140.339844 L 179.160156 140.339844 C 179.605469 140.339844 179.832031 140.269531 179.832031 140.121094 C 179.832031 140.082031 179.800781 140.023438 179.738281 139.949219 C 179.675781 139.878906 179.601562 139.761719 179.519531 139.605469 C 179.277344 139.210938 179.035156 138.851562 178.785156 138.527344 L 177.222656 136.496094 L 175.660156 138.527344 L 175.144531 139.199219 L 174.675781 139.855469 C 174.613281 139.949219 174.582031 140.019531 174.582031 140.058594 C 174.582031 140.246094 174.808594 140.339844 175.269531 140.339844 L 175.847656 140.339844 L 175.847656 140.917969 Z M 189.800781 140.855469 C 189.339844 141.050781 188.898438 141.152344 188.472656 141.152344 C 187.535156 141.152344 186.789062 140.902344 186.238281 140.402344 C 185.914062 140.113281 185.691406 139.785156 185.566406 139.417969 C 185.449219 139.054688 185.394531 138.507812 185.394531 137.777344 L 185.394531 131.589844 L 183.910156 131.589844 L 183.910156 130.839844 L 185.394531 130.839844 L 185.394531 129.011719 L 187.238281 128.558594 L 187.238281 130.839844 L 190.035156 130.839844 L 190.035156 131.589844 L 187.238281 131.589844 L 187.238281 138.011719 C 187.238281 138.886719 187.316406 139.464844 187.472656 139.746094 C 187.722656 140.183594 188.144531 140.402344 188.738281 140.402344 C 189.027344 140.402344 189.382812 140.308594 189.800781 140.121094 Z M 189.800781 140.855469 "/>
</g>
</svg>
