<?xml version="1.0" encoding="UTF-8"?>
<svg xmlns="http://www.w3.org/2000/svg" xmlns:xlink="http://www.w3.org/1999/xlink" width="400" height="300" viewBox="0 0 400 300">
<defs>
<filter id="filter-remove-color-and-invert-alpha" x="0%" y="0%" width="100%" height="100%">
<feColorMatrix color-interpolation-filters="sRGB" values="0 0 0 0 1 0 0 0 0 1 0 0 0 0 1 0 0 0 -1 1"/>
</filter>
<filter id="filter-0" x="0%" y="0%" width="100%" height="100%">
<feImage xlink:href="#compositing-group-1" result="source" x="0" y="0" width="480" height="360"/>
<feImage xlink:href="#compositing-group-2" result="destination" x="0" y="0" width="480" height="360"/>
<feComposite in="source" in2="destination" operator="arithmetic" k1="0" k2="1" k3="1" k4="0" color-interpolation-filters="sRGB"/>
</filter>
<g id="compositing-group-0" transform="translate(40, 30)">
<rect x="-40" y="-30" width="480" height="360" fill="rgb(0%, 0%, 0%)" fill-opacity="0"/>
<rect x="-40" y="-30" width="480" height="360" fill="rgb(100%, 100%, 100%)" fill-opacity="1"/>
</g>
<mask id="mask-0">
<use xlink:href="#compositing-group-0"/>
</mask>
<mask id="mask-1">
<use xlink:href="#compositing-group-0" filter="url(#filter-remove-color-and-invert-alpha)"/>
</mask>
<g id="compositing-group-1" mask="url(#mask-0)">
<g transform="translate(40, 30)">
<rect x="-40" y="-30" width="480" height="360" fill="rgb(100%, 100%, 100%)" fill-opacity="1"/>
</g>
</g>
<g id="compositing-group-2" mask="url(#mask-1)">
<g transform="translate(40, 30)">
</g>
</g>
</defs>
<g filter="url(#filter-0)" transform="translate(-40, -30)">
<rect x="0" y="0" width="480" height="360" fill="rgb(0%, 0%, 0%)" fill-opacity="1"/>
</g>
<path fill="none" stroke-width="5" stroke-linecap="round" stroke-linejoin="round" stroke="rgb(0%, 0%, 100%)" stroke-opacity="1" stroke-miterlimit="10" d="M 161.984375 109.878906 L 138.140625 85.335938 L 23.84375 97.960938 L 0 184.210938 L 62.410156 210.859375 L 173.203125 174.394531 L 166.894531 121.101562 "/>
<path fill="none" stroke-width="5" stroke-linecap="round" stroke-linejoin="round" stroke="rgb(0%, 0%, 100%)" stroke-opacity="1" stroke-miterlimit="10" d="M 231.40625 130.214844 L 261.558594 147.046875 L 275.582031 165.277344 L 291.710938 183.507812 L 312.75 187.71875 L 328.175781 201.039062 L 331.683594 203.84375 L 381.46875 213.664062 L 384.976562 188.417969 L 399 167.382812 "/>
<path fill="none" stroke-width="5" stroke-linecap="round" stroke-linejoin="round" stroke="rgb(0%, 0%, 100%)" stroke-opacity="1" stroke-miterlimit="10" d="M 37.777344 178.996094 L 125.929688 115.367188 L 145.8125 127.296875 "/>
<path fill="none" stroke-width="3" stroke-linecap="round" stroke-linejoin="round" stroke="rgb(100%, 100%, 100%)" stroke-opacity="1" stroke-miterlimit="10" d="M 161.984375 109.878906 L 138.140625 85.335938 L 23.84375 97.960938 L 0 184.210938 L 62.410156 210.859375 L 173.203125 174.394531 L 166.894531 121.101562 "/>
<path fill="none" stroke-width="3" stroke-linecap="round" stroke-linejoin="round" stroke="rgb(100%, 100%, 100%)" stroke-opacity="1" stroke-miterlimit="10" d="M 231.40625 130.214844 L 261.558594 147.046875 L 275.582031 165.277344 L 291.710938 183.507812 L 312.75 187.71875 L 328.175781 201.039062 L 331.683594 203.84375 L 381.46875 213.664062 L 384.976562 188.417969 L 399 167.382812 "/>
<path fill="none" stroke-width="3" stroke-linecap="round" stroke-linejoin="round" stroke="rgb(100%, 100%, 100%)" stroke-opacity="1" stroke-miterlimit="10" d="M 37.777344 178.996094 L 125.929688 115.367188 L 145.8125 127.296875 "/>
<path fill="none" stroke-width="4" stroke-linecap="round" stroke-linejoin="round" stroke="rgb(100%, 100%, 100%)" stroke-opacity="1" stroke-miterlimit="10" d="M 61.152344 156.816406 L 65.308594 162.566406 C 65.472656 162.808594 65.644531 163 65.824219 163.144531 C 65.886719 163.207031 65.949219 163.238281 66.011719 163.238281 C 66.082031 163.230469 66.191406 163.175781 66.339844 163.082031 L 66.636719 162.878906 L 66.746094 162.832031 L 66.933594 163.097656 L 64.464844 164.878906 L 64.277344 164.613281 L 64.324219 164.550781 L 64.621094 164.316406 C 64.765625 164.191406 64.847656 164.09375 64.871094 164.019531 C 64.890625 163.9375 64.84375 163.808594 64.730469 163.628906 L 64.449219 163.191406 L 61.105469 158.566406 L 60.761719 158.144531 C 60.636719 157.988281 60.539062 157.90625 60.464844 157.894531 C 60.382812 157.886719 60.253906 157.933594 60.074219 158.035156 L 59.761719 158.238281 L 59.699219 158.285156 L 59.496094 158.003906 Z M 69.980469 159.917969 C 69.886719 160.398438 69.765625 160.777344 69.621094 161.058594 C 69.484375 161.332031 69.28125 161.566406 69.011719 161.761719 C 68.605469 162.054688 68.175781 162.167969 67.730469 162.105469 C 67.28125 162.042969 66.917969 161.820312 66.636719 161.433594 C 66.316406 160.988281 66.230469 160.503906 66.386719 159.980469 C 66.480469 159.636719 66.652344 159.324219 66.902344 159.042969 C 67.140625 158.753906 67.527344 158.414062 68.058594 158.027344 L 68.230469 157.902344 L 67.808594 157.324219 C 67.265625 156.574219 66.714844 156.402344 66.152344 156.808594 C 65.882812 157.007812 65.707031 157.261719 65.621094 157.574219 C 65.582031 157.742188 65.648438 157.992188 65.824219 158.324219 L 65.886719 158.402344 L 65.308594 158.824219 L 64.683594 157.964844 C 65.089844 157.269531 65.550781 156.730469 66.058594 156.355469 C 66.507812 156.035156 66.949219 155.882812 67.386719 155.902344 C 67.65625 155.902344 67.878906 155.960938 68.058594 156.074219 C 68.234375 156.179688 68.425781 156.371094 68.636719 156.652344 L 70.167969 158.761719 C 70.425781 159.136719 70.644531 159.382812 70.824219 159.496094 C 71 159.613281 71.171875 159.605469 71.339844 159.480469 C 71.390625 159.441406 71.457031 159.371094 71.542969 159.277344 L 71.808594 159.574219 C 71.652344 159.792969 71.488281 159.964844 71.324219 160.089844 C 70.894531 160.394531 70.449219 160.335938 69.980469 159.917969 Z M 69.699219 159.949219 L 68.433594 158.183594 L 68.230469 158.339844 C 67.730469 158.695312 67.40625 159.082031 67.261719 159.496094 C 67.125 159.902344 67.1875 160.289062 67.449219 160.652344 C 67.65625 160.933594 67.910156 161.101562 68.214844 161.152344 C 68.515625 161.195312 68.796875 161.121094 69.058594 160.933594 C 69.308594 160.757812 69.519531 160.429688 69.699219 159.949219 Z M 72.664062 159.035156 L 68.476562 153.238281 L 68.132812 152.816406 C 68.007812 152.671875 67.910156 152.59375 67.835938 152.582031 C 67.753906 152.5625 67.625 152.609375 67.445312 152.722656 L 67.132812 152.910156 L 67.054688 152.972656 L 66.851562 152.691406 L 68.523438 151.488281 L 70.726562 154.519531 C 70.65625 153.550781 70.960938 152.816406 71.648438 152.316406 C 72.179688 151.933594 72.757812 151.839844 73.382812 152.035156 C 74.007812 152.234375 74.574219 152.6875 75.085938 153.394531 C 75.65625 154.199219 75.933594 154.96875 75.914062 155.707031 C 75.890625 156.4375 75.585938 157.015625 74.992188 157.441406 C 74.429688 157.847656 73.796875 157.980469 73.101562 157.832031 L 73.039062 157.863281 L 73.351562 158.535156 Z M 72.867188 157.488281 C 73.5625 157.488281 74.117188 157.34375 74.523438 157.050781 C 74.917969 156.769531 75.09375 156.394531 75.054688 155.925781 C 75.011719 155.449219 74.773438 154.90625 74.335938 154.300781 C 73.84375 153.625 73.386719 153.1875 72.960938 152.988281 C 72.53125 152.792969 72.125 152.832031 71.742188 153.113281 C 71.503906 153.28125 71.316406 153.519531 71.179688 153.832031 C 71.035156 154.144531 70.957031 154.480469 70.945312 154.832031 Z M 81.488281 152.257812 C 81.101562 152.875 80.683594 153.34375 80.238281 153.664062 C 79.539062 154.164062 78.804688 154.335938 78.035156 154.179688 C 77.265625 154.023438 76.613281 153.578125 76.082031 152.835938 C 75.5625 152.117188 75.332031 151.394531 75.394531 150.664062 C 75.449219 149.925781 75.78125 149.335938 76.394531 148.898438 C 76.957031 148.492188 77.523438 148.375 78.097656 148.539062 C 78.679688 148.695312 79.226562 149.128906 79.738281 149.835938 L 79.800781 149.929688 L 76.910156 152.007812 C 77.378906 152.65625 77.820312 153.078125 78.238281 153.273438 C 78.882812 153.585938 79.488281 153.535156 80.050781 153.117188 C 80.589844 152.742188 80.964844 152.3125 81.175781 151.820312 Z M 76.722656 151.726562 L 78.691406 150.304688 L 78.566406 150.117188 C 78.316406 149.773438 78.113281 149.535156 77.957031 149.398438 C 77.808594 149.253906 77.652344 149.148438 77.488281 149.085938 C 77.144531 148.960938 76.828125 149 76.535156 149.195312 C 76.214844 149.4375 76.074219 149.785156 76.113281 150.242188 C 76.144531 150.703125 76.347656 151.195312 76.722656 151.726562 Z M 78.964844 143.957031 L 83.121094 149.707031 C 83.285156 149.949219 83.457031 150.140625 83.636719 150.285156 C 83.699219 150.347656 83.761719 150.378906 83.824219 150.378906 C 83.894531 150.371094 84.003906 150.316406 84.152344 150.222656 L 84.449219 150.019531 L 84.558594 149.972656 L 84.746094 150.238281 L 82.277344 152.019531 L 82.089844 151.753906 L 82.136719 151.691406 L 82.433594 151.457031 C 82.578125 151.332031 82.660156 151.234375 82.683594 151.160156 C 82.703125 151.078125 82.65625 150.949219 82.542969 150.769531 L 82.261719 150.332031 L 78.917969 145.707031 L 78.574219 145.285156 C 78.449219 145.128906 78.351562 145.046875 78.277344 145.035156 C 78.195312 145.027344 78.066406 145.074219 77.886719 145.175781 L 77.574219 145.378906 L 77.511719 145.425781 L 77.308594 145.144531 Z M 90.742188 145.871094 C 90.585938 146.121094 90.40625 146.320312 90.210938 146.464844 C 89.761719 146.789062 89.328125 146.925781 88.914062 146.871094 C 88.664062 146.851562 88.449219 146.773438 88.273438 146.636719 C 88.09375 146.492188 87.882812 146.246094 87.632812 145.902344 L 85.539062 143.011719 L 84.835938 143.511719 L 84.585938 143.167969 L 85.289062 142.667969 L 84.664062 141.792969 L 85.367188 140.964844 L 86.148438 142.042969 L 87.460938 141.105469 L 87.710938 141.449219 L 86.398438 142.386719 L 88.570312 145.386719 C 88.859375 145.804688 89.09375 146.054688 89.273438 146.136719 C 89.542969 146.261719 89.8125 146.226562 90.085938 146.027344 C 90.21875 145.925781 90.351562 145.757812 90.476562 145.527344 Z M 95.222656 142.347656 C 94.835938 142.964844 94.417969 143.433594 93.972656 143.753906 C 93.273438 144.253906 92.539062 144.425781 91.769531 144.269531 C 91 144.113281 90.347656 143.667969 89.816406 142.925781 C 89.296875 142.207031 89.066406 141.484375 89.128906 140.753906 C 89.183594 140.015625 89.515625 139.425781 90.128906 138.988281 C 90.691406 138.582031 91.257812 138.464844 91.832031 138.628906 C 92.414062 138.785156 92.960938 139.21875 93.472656 139.925781 L 93.535156 140.019531 L 90.644531 142.097656 C 91.113281 142.746094 91.554688 143.167969 91.972656 143.363281 C 92.617188 143.675781 93.222656 143.625 93.785156 143.207031 C 94.324219 142.832031 94.699219 142.402344 94.910156 141.910156 Z M 90.457031 141.816406 L 92.425781 140.394531 L 92.300781 140.207031 C 92.050781 139.863281 91.847656 139.625 91.691406 139.488281 C 91.542969 139.34375 91.386719 139.238281 91.222656 139.175781 C 90.878906 139.050781 90.5625 139.089844 90.269531 139.285156 C 89.949219 139.527344 89.808594 139.875 89.847656 140.332031 C 89.878906 140.792969 90.082031 141.285156 90.457031 141.816406 Z M 95.855469 142.214844 L 95.667969 141.949219 L 95.730469 141.886719 C 95.886719 141.761719 95.972656 141.542969 95.996094 141.230469 L 96.074219 140.355469 L 96.230469 138.464844 L 94.277344 137.902344 L 93.480469 137.667969 C 93.261719 137.617188 93.113281 137.589844 93.027344 137.589844 C 92.945312 137.589844 92.835938 137.632812 92.699219 137.714844 L 92.605469 137.792969 L 92.417969 137.527344 L 94.558594 135.980469 L 94.746094 136.246094 L 94.667969 136.292969 L 94.496094 136.433594 C 94.308594 136.570312 94.242188 136.683594 94.292969 136.777344 C 94.335938 136.820312 94.675781 136.949219 95.308594 137.167969 L 96.652344 137.589844 L 96.652344 136.199219 C 96.652344 136.023438 96.636719 135.816406 96.605469 135.574219 C 96.582031 135.335938 96.558594 135.195312 96.527344 135.152344 C 96.464844 135.070312 96.355469 135.085938 96.199219 135.199219 L 96.042969 135.308594 L 95.933594 135.386719 L 95.746094 135.121094 L 97.261719 134.027344 L 97.449219 134.292969 L 97.355469 134.355469 C 97.25 134.441406 97.171875 134.535156 97.121094 134.636719 C 97.078125 134.742188 97.0625 134.886719 97.074219 135.074219 C 97.0625 135.378906 97.050781 135.652344 97.042969 135.902344 L 96.964844 137.667969 L 98.964844 138.261719 C 99.441406 138.410156 99.792969 138.492188 100.011719 138.511719 C 100.238281 138.523438 100.421875 138.488281 100.558594 138.402344 L 100.636719 138.371094 L 100.824219 138.636719 L 98.667969 140.183594 L 98.480469 139.917969 L 98.558594 139.855469 L 98.746094 139.714844 C 98.964844 139.550781 99.046875 139.433594 98.996094 139.371094 C 98.984375 139.351562 98.949219 139.339844 98.886719 139.339844 C 98.84375 139.320312 98.769531 139.285156 98.667969 139.230469 C 98.425781 139.148438 98.191406 139.070312 97.964844 138.996094 L 96.542969 138.558594 L 96.496094 140.058594 L 96.496094 140.527344 L 96.480469 141.011719 C 96.488281 141.074219 96.5 141.117188 96.511719 141.136719 C 96.574219 141.222656 96.707031 141.183594 96.917969 141.027344 L 97.105469 140.917969 L 97.214844 140.839844 L 97.402344 141.105469 Z M 103.929688 136.351562 C 103.773438 136.601562 103.59375 136.800781 103.398438 136.945312 C 102.949219 137.269531 102.515625 137.40625 102.101562 137.351562 C 101.851562 137.332031 101.636719 137.253906 101.460938 137.117188 C 101.28125 136.972656 101.070312 136.726562 100.820312 136.382812 L 98.726562 133.492188 L 98.023438 133.992188 L 97.773438 133.648438 L 98.476562 133.148438 L 97.851562 132.273438 L 98.554688 131.445312 L 99.335938 132.523438 L 100.648438 131.585938 L 100.898438 131.929688 L 99.585938 132.867188 L 101.757812 135.867188 C 102.046875 136.285156 102.28125 136.535156 102.460938 136.617188 C 102.730469 136.742188 103 136.707031 103.273438 136.507812 C 103.40625 136.40625 103.539062 136.238281 103.664062 136.007812 Z M 103.929688 136.351562 "/>
<path fill-rule="nonzero" fill="rgb(0%, 0%, 0%)" fill-opacity="1" d="M 61.152344 156.816406 L 65.308594 162.566406 C 65.472656 162.808594 65.644531 163 65.824219 163.144531 C 65.886719 163.207031 65.949219 163.238281 66.011719 163.238281 C 66.082031 163.230469 66.191406 163.175781 66.339844 163.082031 L 66.636719 162.878906 L 66.746094 162.832031 L 66.933594 163.097656 L 64.464844 164.878906 L 64.277344 164.613281 L 64.324219 164.550781 L 64.621094 164.316406 C 64.765625 164.191406 64.847656 164.09375 64.871094 164.019531 C 64.890625 163.9375 64.84375 163.808594 64.730469 163.628906 L 64.449219 163.191406 L 61.105469 158.566406 L 60.761719 158.144531 C 60.636719 157.988281 60.539062 157.90625 60.464844 157.894531 C 60.382812 157.886719 60.253906 157.933594 60.074219 158.035156 L 59.761719 158.238281 L 59.699219 158.285156 L 59.496094 158.003906 Z M 69.980469 159.917969 C 69.886719 160.398438 69.765625 160.777344 69.621094 161.058594 C 69.484375 161.332031 69.28125 161.566406 69.011719 161.761719 C 68.605469 162.054688 68.175781 162.167969 67.730469 162.105469 C 67.28125 162.042969 66.917969 161.820312 66.636719 161.433594 C 66.316406 160.988281 66.230469 160.503906 66.386719 159.980469 C 66.480469 159.636719 66.652344 159.324219 66.902344 159.042969 C 67.140625 158.753906 67.527344 158.414062 68.058594 158.027344 L 68.230469 157.902344 L 67.808594 157.324219 C 67.265625 156.574219 66.714844 156.402344 66.152344 156.808594 C 65.882812 157.007812 65.707031 157.261719 65.621094 157.574219 C 65.582031 157.742188 65.648438 157.992188 65.824219 158.324219 L 65.886719 158.402344 L 65.308594 158.824219 L 64.683594 157.964844 C 65.089844 157.269531 65.550781 156.730469 66.058594 156.355469 C 66.507812 156.035156 66.949219 155.882812 67.386719 155.902344 C 67.65625 155.902344 67.878906 155.960938 68.058594 156.074219 C 68.234375 156.179688 68.425781 156.371094 68.636719 156.652344 L 70.167969 158.761719 C 70.425781 159.136719 70.644531 159.382812 70.824219 159.496094 C 71 159.613281 71.171875 159.605469 71.339844 159.480469 C 71.390625 159.441406 71.457031 159.371094 71.542969 159.277344 L 71.808594 159.574219 C 71.652344 159.792969 71.488281 159.964844 71.324219 160.089844 C 70.894531 160.394531 70.449219 160.335938 69.980469 159.917969 Z M 69.699219 159.949219 L 68.433594 158.183594 L 68.230469 158.339844 C 67.730469 158.695312 67.40625 159.082031 67.261719 159.496094 C 67.125 159.902344 67.1875 160.289062 67.449219 160.652344 C 67.65625 160.933594 67.910156 161.101562 68.214844 161.152344 C 68.515625 161.195312 68.796875 161.121094 69.058594 160.933594 C 69.308594 160.757812 69.519531 160.429688 69.699219 159.949219 Z M 72.664062 159.035156 L 68.476562 153.238281 L 68.132812 152.816406 C 68.007812 152.671875 67.910156 152.59375 67.835938 152.582031 C 67.753906 152.5625 67.625 152.609375 67.445312 152.722656 L 67.132812 152.910156 L 67.054688 152.972656 L 66.851562 152.691406 L 68.523438 151.488281 L 70.726562 154.519531 C 70.65625 153.550781 70.960938 152.816406 71.648438 152.316406 C 72.179688 151.933594 72.757812 151.839844 73.382812 152.035156 C 74.007812 152.234375 74.574219 152.6875 75.085938 153.394531 C 75.65625 154.199219 75.933594 154.96875 75.914062 155.707031 C 75.890625 156.4375 75.585938 157.015625 74.992188 157.441406 C 74.429688 157.847656 73.796875 157.980469 73.101562 157.832031 L 73.039062 157.863281 L 73.351562 158.535156 Z M 72.867188 157.488281 C 73.5625 157.488281 74.117188 157.34375 74.523438 157.050781 C 74.917969 156.769531 75.09375 156.394531 75.054688 155.925781 C 75.011719 155.449219 74.773438 154.90625 74.335938 154.300781 C 73.84375 153.625 73.386719 153.1875 72.960938 152.988281 C 72.53125 152.792969 72.125 152.832031 71.742188 153.113281 C 71.503906 153.28125 71.316406 153.519531 71.179688 153.832031 C 71.035156 154.144531 70.957031 154.480469 70.945312 154.832031 Z M 81.488281 152.257812 C 81.101562 152.875 80.683594 153.34375 80.238281 153.664062 C 79.539062 154.164062 78.804688 154.335938 78.035156 154.179688 C 77.265625 154.023438 76.613281 153.578125 76.082031 152.835938 C 75.5625 152.117188 75.332031 151.394531 75.394531 150.664062 C 75.449219 149.925781 75.78125 149.335938 76.394531 148.898438 C 76.957031 148.492188 77.523438 148.375 78.097656 148.539062 C 78.679688 148.695312 79.226562 149.128906 79.738281 149.835938 L 79.800781 149.929688 L 76.910156 152.007812 C 77.378906 152.65625 77.820312 153.078125 78.238281 153.273438 C 78.882812 153.585938 79.488281 153.535156 80.050781 153.117188 C 80.589844 152.742188 80.964844 152.3125 81.175781 151.820312 Z M 76.722656 151.726562 L 78.691406 150.304688 L 78.566406 150.117188 C 78.316406 149.773438 78.113281 149.535156 77.957031 149.398438 C 77.808594 149.253906 77.652344 149.148438 77.488281 149.085938 C 77.144531 148.960938 76.828125 149 76.535156 149.195312 C 76.214844 149.4375 76.074219 149.785156 76.113281 150.242188 C 76.144531 150.703125 76.347656 151.195312 76.722656 151.726562 Z M 78.964844 143.957031 L 83.121094 149.707031 C 83.285156 149.949219 83.457031 150.140625 83.636719 150.285156 C 83.699219 150.347656 83.761719 150.378906 83.824219 150.378906 C 83.894531 150.371094 84.003906 150.316406 84.152344 150.222656 L 84.449219 150.019531 L 84.558594 149.972656 L 84.746094 150.238281 L 82.277344 152.019531 L 82.089844 151.753906 L 82.136719 151.691406 L 82.433594 151.457031 C 82.578125 151.332031 82.660156 151.234375 82.683594 151.160156 C 82.703125 151.078125 82.65625 150.949219 82.542969 150.769531 L 82.261719 150.332031 L 78.917969 145.707031 L 78.574219 145.285156 C 78.449219 145.128906 78.351562 145.046875 78.277344 145.035156 C 78.195312 145.027344 78.066406 145.074219 77.886719 145.175781 L 77.574219 145.378906 L 77.511719 145.425781 L 77.308594 145.144531 Z M 90.742188 145.871094 C 90.585938 146.121094 90.40625 146.320312 90.210938 146.464844 C 89.761719 146.789062 89.328125 146.925781 88.914062 146.871094 C 88.664062 146.851562 88.449219 146.773438 88.273438 146.636719 C 88.09375 146.492188 87.882812 146.246094 87.632812 145.902344 L 85.539062 143.011719 L 84.835938 143.511719 L 84.585938 143.167969 L 85.289062 142.667969 L 84.664062 141.792969 L 85.367188 140.964844 L 86.148438 142.042969 L 87.460938 141.105469 L 87.710938 141.449219 L 86.398438 142.386719 L 88.570312 145.386719 C 88.859375 145.804688 89.09375 146.054688 89.273438 146.136719 C 89.542969 146.261719 89.8125 146.226562 90.085938 146.027344 C 90.21875 145.925781 90.351562 145.757812 90.476562 145.527344 Z M 95.222656 142.347656 C 94.835938 142.964844 94.417969 143.433594 93.972656 143.753906 C 93.273438 144.253906 92.539062 144.425781 91.769531 144.269531 C 91 144.113281 90.347656 143.667969 89.816406 142.925781 C 89.296875 142.207031 89.066406 141.484375 89.128906 140.753906 C 89.183594 140.015625 89.515625 139.425781 90.128906 138.988281 C 90.691406 138.582031 91.257812 138.464844 91.832031 138.628906 C 92.414062 138.785156 92.960938 139.21875 93.472656 139.925781 L 93.535156 140.019531 L 90.644531 142.097656 C 91.113281 142.746094 91.554688 143.167969 91.972656 143.363281 C 92.617188 143.675781 93.222656 143.625 93.785156 143.207031 C 94.324219 142.832031 94.699219 142.402344 94.910156 141.910156 Z M 90.457031 141.816406 L 92.425781 140.394531 L 92.300781 140.207031 C 92.050781 139.863281 91.847656 139.625 91.691406 139.488281 C 91.542969 139.34375 91.386719 139.238281 91.222656 139.175781 C 90.878906 139.050781 90.5625 139.089844 90.269531 139.285156 C 89.949219 139.527344 89.808594 139.875 89.847656 140.332031 C 89.878906 140.792969 90.082031 141.285156 90.457031 141.816406 Z M 95.855469 142.214844 L 95.667969 141.949219 L 95.730469 141.886719 C 95.886719 141.761719 95.972656 141.542969 95.996094 141.230469 L 96.074219 140.355469 L 96.230469 138.464844 L 94.277344 137.902344 L 93.480469 137.667969 C 93.261719 137.617188 93.113281 137.589844 93.027344 137.589844 C 92.945312 137.589844 92.835938 137.632812 92.699219 137.714844 L 92.605469 137.792969 L 92.417969 137.527344 L 94.558594 135.980469 L 94.746094 136.246094 L 94.667969 136.292969 L 94.496094 136.433594 C 94.308594 136.570312 94.242188 136.683594 94.292969 136.777344 C 94.335938 136.820312 94.675781 136.949219 95.308594 137.167969 L 96.652344 137.589844 L 96.652344 136.199219 C 96.652344 136.023438 96.636719 135.816406 96.605469 135.574219 C 96.582031 135.335938 96.558594 135.195312 96.527344 135.152344 C 96.464844 135.070312 96.355469 135.085938 96.199219 135.199219 L 96.042969 135.308594 L 95.933594 135.386719 L 95.746094 135.121094 L 97.261719 134.027344 L 97.449219 134.292969 L 97.355469 134.355469 C 97.25 134.441406 97.171875 134.535156 97.121094 134.636719 C 97.078125 134.742188 97.0625 134.886719 97.074219 135.074219 C 97.0625 135.378906 97.050781 135.652344 97.042969 135.902344 L 96.964844 137.667969 L 98.964844 138.261719 C 99.441406 138.410156 99.792969 138.492188 100.011719 138.511719 C 100.238281 138.523438 100.421875 138.488281 100.558594 138.402344 L 100.636719 138.371094 L 100.824219 138.636719 L 98.667969 140.183594 L 98.480469 139.917969 L 98.558594 139.855469 L 98.746094 139.714844 C 98.964844 139.550781 99.046875 139.433594 98.996094 139.371094 C 98.984375 139.351562 98.949219 139.339844 98.886719 139.339844 C 98.84375 139.320312 98.769531 139.285156 98.667969 139.230469 C 98.425781 139.148438 98.191406 139.070312 97.964844 138.996094 L 96.542969 138.558594 L 96.496094 140.058594 L 96.496094 140.527344 L 96.480469 141.011719 C 96.488281 141.074219 96.5 141.117188 96.511719 141.136719 C 96.574219 141.222656 96.707031 141.183594 96.917969 141.027344 L 97.105469 140.917969 L 97.214844 140.839844 L 97.402344 141.105469 Z M 103.929688 136.351562 C 103.773438 136.601562 103.59375 136.800781 103.398438 136.945312 C 102.949219 137.269531 102.515625 137.40625 102.101562 137.351562 C 101.851562 137.332031 101.636719 137.253906 101.460938 137.117188 C 101.28125 136.972656 101.070312 136.726562 100.820312 136.382812 L 98.726562 133.492188 L 98.023438 133.992188 L 97.773438 133.648438 L 98.476562 133.148438 L 97.851562 132.273438 L 98.554688 131.445312 L 99.335938 132.523438 L 100.648438 131.585938 L 100.898438 131.929688 L 99.585938 132.867188 L 101.757812 135.867188 C 102.046875 136.285156 102.28125 136.535156 102.460938 136.617188 C 102.730469 136.742188 103 136.707031 103.273438 136.507812 C 103.40625 136.40625 103.539062 136.238281 103.664062 136.007812 Z M 103.929688 136.351562 "/>
<path fill="none" stroke-width="4" stroke-linecap="round" stroke-linejoin="round" stroke="rgb(100%, 100%, 100%)" stroke-opacity="1" stroke-miterlimit="10" d="M 335.40625 200.183594 L 334.03125 207.152344 C 333.976562 207.433594 333.957031 207.691406 333.96875 207.917969 C 333.96875 208.011719 333.992188 208.078125 334.046875 208.121094 C 334.097656 208.160156 334.203125 208.203125 334.359375 208.246094 L 334.703125 208.339844 L 334.8125 208.371094 L 334.75 208.699219 L 331.765625 208.121094 L 331.828125 207.792969 L 331.921875 207.792969 L 332.265625 207.839844 C 332.484375 207.863281 332.625 207.855469 332.6875 207.824219 C 332.757812 207.785156 332.820312 207.660156 332.875 207.449219 L 333 206.949219 L 334.109375 201.355469 L 334.171875 200.808594 C 334.203125 200.621094 334.191406 200.496094 334.140625 200.433594 C 334.097656 200.363281 333.972656 200.300781 333.765625 200.246094 L 333.4375 200.152344 L 333.34375 200.136719 L 333.40625 199.792969 Z M 339.167969 208.757812 C 338.75 209.027344 338.390625 209.203125 338.089844 209.289062 C 337.796875 209.371094 337.480469 209.382812 337.136719 209.320312 C 336.65625 209.226562 336.28125 208.992188 336.011719 208.617188 C 335.75 208.242188 335.667969 207.828125 335.761719 207.367188 C 335.863281 206.828125 336.167969 206.425781 336.667969 206.164062 C 336.96875 206.007812 337.3125 205.921875 337.699219 205.898438 C 338.082031 205.878906 338.59375 205.929688 339.230469 206.054688 L 339.433594 206.101562 L 339.574219 205.398438 C 339.75 204.503906 339.5 203.988281 338.824219 203.851562 C 338.5 203.789062 338.199219 203.832031 337.917969 203.976562 C 337.75 204.0625 337.609375 204.285156 337.496094 204.648438 L 337.480469 204.742188 L 336.777344 204.601562 L 336.980469 203.570312 C 337.761719 203.382812 338.464844 203.351562 339.089844 203.476562 C 339.628906 203.582031 340.046875 203.796875 340.339844 204.117188 C 340.515625 204.316406 340.625 204.519531 340.667969 204.726562 C 340.707031 204.9375 340.691406 205.210938 340.621094 205.554688 L 340.121094 208.117188 C 340.027344 208.566406 340 208.886719 340.042969 209.085938 C 340.082031 209.292969 340.203125 209.417969 340.402344 209.460938 C 340.464844 209.46875 340.5625 209.476562 340.699219 209.476562 L 340.652344 209.867188 C 340.378906 209.90625 340.144531 209.90625 339.949219 209.867188 C 339.4375 209.773438 339.175781 209.402344 339.167969 208.757812 Z M 338.933594 208.585938 L 339.355469 206.445312 L 339.121094 206.398438 C 338.515625 206.285156 338.015625 206.320312 337.621094 206.507812 C 337.222656 206.6875 336.984375 206.992188 336.902344 207.429688 C 336.828125 207.765625 336.875 208.0625 337.042969 208.320312 C 337.21875 208.582031 337.46875 208.742188 337.792969 208.804688 C 338.09375 208.855469 338.472656 208.78125 338.933594 208.585938 Z M 341.632812 210.132812 L 343.023438 203.117188 L 343.085938 202.570312 C 343.117188 202.382812 343.105469 202.257812 343.054688 202.195312 C 343.011719 202.125 342.890625 202.0625 342.695312 202.007812 L 342.351562 201.914062 L 342.242188 201.882812 L 342.304688 201.539062 L 344.335938 201.945312 L 343.617188 205.632812 C 344.28125 204.914062 345.027344 204.640625 345.851562 204.804688 C 346.496094 204.929688 346.960938 205.289062 347.242188 205.882812 C 347.53125 206.46875 347.589844 207.191406 347.414062 208.054688 C 347.226562 209.015625 346.851562 209.738281 346.289062 210.226562 C 345.734375 210.714844 345.101562 210.886719 344.382812 210.742188 C 343.703125 210.617188 343.183594 210.246094 342.820312 209.632812 L 342.757812 209.617188 L 342.476562 210.289062 Z M 342.898438 209.210938 C 343.375 209.734375 343.867188 210.042969 344.367188 210.148438 C 344.835938 210.242188 345.230469 210.109375 345.554688 209.757812 C 345.875 209.40625 346.109375 208.859375 346.257812 208.117188 C 346.414062 207.304688 346.414062 206.675781 346.257812 206.226562 C 346.109375 205.769531 345.804688 205.492188 345.335938 205.398438 C 345.042969 205.347656 344.734375 205.378906 344.414062 205.492188 C 344.089844 205.597656 343.796875 205.765625 343.539062 205.992188 Z M 352.617188 211.945312 C 351.898438 212.089844 351.265625 212.105469 350.726562 211.992188 C 349.882812 211.835938 349.25 211.421875 348.835938 210.757812 C 348.429688 210.082031 348.3125 209.296875 348.492188 208.398438 C 348.65625 207.523438 349.03125 206.859375 349.617188 206.398438 C 350.199219 205.941406 350.855469 205.785156 351.585938 205.929688 C 352.273438 206.066406 352.75 206.40625 353.023438 206.945312 C 353.304688 207.476562 353.359375 208.171875 353.195312 209.023438 L 353.179688 209.132812 L 349.679688 208.445312 C 349.523438 209.226562 349.515625 209.835938 349.664062 210.273438 C 349.871094 210.953125 350.320312 211.351562 351.007812 211.476562 C 351.640625 211.609375 352.214844 211.589844 352.726562 211.414062 Z M 349.757812 208.101562 L 352.132812 208.570312 L 352.179688 208.335938 C 352.261719 207.921875 352.304688 207.613281 352.304688 207.414062 C 352.304688 207.21875 352.265625 207.03125 352.195312 206.851562 C 352.058594 206.519531 351.8125 206.320312 351.460938 206.257812 C 351.0625 206.175781 350.710938 206.300781 350.398438 206.632812 C 350.09375 206.96875 349.882812 207.457031 349.757812 208.101562 Z M 356.960938 204.433594 L 355.585938 211.402344 C 355.53125 211.683594 355.511719 211.941406 355.523438 212.167969 C 355.523438 212.261719 355.546875 212.328125 355.601562 212.371094 C 355.652344 212.410156 355.757812 212.453125 355.914062 212.496094 L 356.257812 212.589844 L 356.367188 212.621094 L 356.304688 212.949219 L 353.320312 212.371094 L 353.382812 212.042969 L 353.476562 212.042969 L 353.820312 212.089844 C 354.039062 212.113281 354.179688 212.105469 354.242188 212.074219 C 354.3125 212.035156 354.375 211.910156 354.429688 211.699219 L 354.554688 211.199219 L 355.664062 205.605469 L 355.726562 205.058594 C 355.757812 204.871094 355.746094 204.746094 355.695312 204.683594 C 355.652344 204.613281 355.527344 204.550781 355.320312 204.496094 L 354.992188 204.402344 L 354.898438 204.386719 L 354.960938 204.042969 Z M 363.582031 214.359375 C 363.300781 214.421875 363.039062 214.425781 362.800781 214.375 C 362.257812 214.269531 361.867188 214.039062 361.628906 213.6875 C 361.472656 213.5 361.378906 213.292969 361.347656 213.0625 C 361.324219 212.835938 361.355469 212.511719 361.441406 212.09375 L 362.128906 208.609375 L 361.285156 208.453125 L 361.363281 208.015625 L 362.207031 208.171875 L 362.410156 207.125 L 363.519531 207.09375 L 363.253906 208.390625 L 364.832031 208.703125 L 364.753906 209.140625 L 363.175781 208.828125 L 362.457031 212.453125 C 362.351562 212.953125 362.332031 213.292969 362.394531 213.46875 C 362.496094 213.738281 362.714844 213.90625 363.050781 213.96875 C 363.214844 214.007812 363.425781 214 363.675781 213.9375 Z M 369.234375 215.222656 C 368.515625 215.367188 367.882812 215.382812 367.34375 215.269531 C 366.5 215.113281 365.867188 214.699219 365.453125 214.035156 C 365.046875 213.359375 364.929688 212.574219 365.109375 211.675781 C 365.273438 210.800781 365.648438 210.136719 366.234375 209.675781 C 366.816406 209.21875 367.472656 209.0625 368.203125 209.207031 C 368.890625 209.34375 369.367188 209.683594 369.640625 210.222656 C 369.921875 210.753906 369.976562 211.449219 369.8125 212.300781 L 369.796875 212.410156 L 366.296875 211.722656 C 366.140625 212.503906 366.132812 213.113281 366.28125 213.550781 C 366.488281 214.230469 366.9375 214.628906 367.625 214.753906 C 368.257812 214.886719 368.832031 214.867188 369.34375 214.691406 Z M 366.375 211.378906 L 368.75 211.847656 L 368.796875 211.613281 C 368.878906 211.199219 368.921875 210.890625 368.921875 210.691406 C 368.921875 210.496094 368.882812 210.308594 368.8125 210.128906 C 368.675781 209.796875 368.429688 209.597656 368.078125 209.535156 C 367.679688 209.453125 367.328125 209.578125 367.015625 209.910156 C 366.710938 210.246094 366.5 210.734375 366.375 211.378906 Z M 369.75 215.601562 L 369.8125 215.273438 L 369.90625 215.273438 C 370.101562 215.304688 370.328125 215.226562 370.578125 215.039062 L 371.265625 214.507812 L 372.75 213.304688 L 371.84375 211.507812 L 371.453125 210.757812 C 371.347656 210.5625 371.265625 210.4375 371.203125 210.382812 C 371.148438 210.320312 371.046875 210.269531 370.890625 210.226562 L 370.78125 210.210938 L 370.84375 209.882812 L 373.4375 210.382812 L 373.375 210.710938 L 373.28125 210.695312 L 373.046875 210.664062 C 372.816406 210.625 372.691406 210.648438 372.671875 210.742188 C 372.660156 210.804688 372.800781 211.144531 373.09375 211.757812 L 373.6875 213.023438 L 374.703125 212.085938 C 374.828125 211.972656 374.96875 211.820312 375.125 211.632812 C 375.28125 211.4375 375.363281 211.3125 375.375 211.257812 C 375.394531 211.164062 375.3125 211.101562 375.125 211.070312 L 374.9375 211.023438 L 374.8125 211.007812 L 374.875 210.679688 L 376.703125 211.039062 L 376.640625 211.367188 L 376.53125 211.335938 C 376.382812 211.328125 376.257812 211.335938 376.15625 211.367188 C 376.0625 211.398438 375.945312 211.484375 375.8125 211.617188 C 375.582031 211.828125 375.375 212.007812 375.1875 212.164062 L 373.859375 213.320312 L 374.765625 215.179688 C 374.992188 215.625 375.171875 215.933594 375.296875 216.101562 C 375.429688 216.277344 375.582031 216.386719 375.75 216.429688 L 375.828125 216.460938 L 375.765625 216.789062 L 373.15625 216.273438 L 373.21875 215.945312 L 373.546875 215.992188 C 373.816406 216.042969 373.960938 216.03125 373.984375 215.960938 C 373.984375 215.9375 373.96875 215.90625 373.9375 215.867188 C 373.914062 215.8125 373.882812 215.734375 373.84375 215.632812 C 373.75 215.382812 373.65625 215.160156 373.5625 214.960938 L 372.90625 213.617188 L 371.78125 214.601562 L 371.40625 214.914062 L 371.078125 215.242188 C 371.035156 215.296875 371.007812 215.332031 371 215.351562 C 370.976562 215.445312 371.09375 215.519531 371.34375 215.570312 L 371.5625 215.617188 L 371.6875 215.648438 L 371.625 215.976562 Z M 379.539062 217.503906 C 379.257812 217.566406 378.996094 217.570312 378.757812 217.519531 C 378.214844 217.414062 377.824219 217.183594 377.585938 216.832031 C 377.429688 216.644531 377.335938 216.4375 377.304688 216.207031 C 377.28125 215.980469 377.3125 215.65625 377.398438 215.238281 L 378.085938 211.753906 L 377.242188 211.597656 L 377.320312 211.160156 L 378.164062 211.316406 L 378.367188 210.269531 L 379.476562 210.238281 L 379.210938 211.535156 L 380.789062 211.847656 L 380.710938 212.285156 L 379.132812 211.972656 L 378.414062 215.597656 C 378.308594 216.097656 378.289062 216.4375 378.351562 216.613281 C 378.453125 216.882812 378.671875 217.050781 379.007812 217.113281 C 379.171875 217.152344 379.382812 217.144531 379.632812 217.082031 Z M 379.539062 217.503906 "/>
<path fill-rule="nonzero" fill="rgb(0%, 0%, 0%)" fill-opacity="1" d="M 335.40625 200.183594 L 334.03125 207.152344 C 333.976562 207.433594 333.957031 207.691406 333.96875 207.917969 C 333.96875 208.011719 333.992188 208.078125 334.046875 208.121094 C 334.097656 208.160156 334.203125 208.203125 334.359375 208.246094 L 334.703125 208.339844 L 334.8125 208.371094 L 334.75 208.699219 L 331.765625 208.121094 L 331.828125 207.792969 L 331.921875 207.792969 L 332.265625 207.839844 C 332.484375 207.863281 332.625 207.855469 332.6875 207.824219 C 332.757812 207.785156 332.820312 207.660156 332.875 207.449219 L 333 206.949219 L 334.109375 201.355469 L 334.171875 200.808594 C 334.203125 200.621094 334.191406 200.496094 334.140625 200.433594 C 334.097656 200.363281 333.972656 200.300781 333.765625 200.246094 L 333.4375 200.152344 L 333.34375 200.136719 L 333.40625 199.792969 Z M 339.167969 208.757812 C 338.75 209.027344 338.390625 209.203125 338.089844 209.289062 C 337.796875 209.371094 337.480469 209.382812 337.136719 209.320312 C 336.65625 209.226562 336.28125 208.992188 336.011719 208.617188 C 335.75 208.242188 335.667969 207.828125 335.761719 207.367188 C 335.863281 206.828125 336.167969 206.425781 336.667969 206.164062 C 336.96875 206.007812 337.3125 205.921875 337.699219 205.898438 C 338.082031 205.878906 338.59375 205.929688 339.230469 206.054688 L 339.433594 206.101562 L 339.574219 205.398438 C 339.75 204.503906 339.5 203.988281 338.824219 203.851562 C 338.5 203.789062 338.199219 203.832031 337.917969 203.976562 C 337.75 204.0625 337.609375 204.285156 337.496094 204.648438 L 337.480469 204.742188 L 336.777344 204.601562 L 336.980469 203.570312 C 337.761719 203.382812 338.464844 203.351562 339.089844 203.476562 C 339.628906 203.582031 340.046875 203.796875 340.339844 204.117188 C 340.515625 204.316406 340.625 204.519531 340.667969 204.726562 C 340.707031 204.9375 340.691406 205.210938 340.621094 205.554688 L 340.121094 208.117188 C 340.027344 208.566406 340 208.886719 340.042969 209.085938 C 340.082031 209.292969 340.203125 209.417969 340.402344 209.460938 C 340.464844 209.46875 340.5625 209.476562 340.699219 209.476562 L 340.652344 209.867188 C 340.378906 209.90625 340.144531 209.90625 339.949219 209.867188 C 339.4375 209.773438 339.175781 209.402344 339.167969 208.757812 Z M 338.933594 208.585938 L 339.355469 206.445312 L 339.121094 206.398438 C 338.515625 206.285156 338.015625 206.320312 337.621094 206.507812 C 337.222656 206.6875 336.984375 206.992188 336.902344 207.429688 C 336.828125 207.765625 336.875 208.0625 337.042969 208.320312 C 337.21875 208.582031 337.46875 208.742188 337.792969 208.804688 C 338.09375 208.855469 338.472656 208.78125 338.933594 208.585938 Z M 341.632812 210.132812 L 343.023438 203.117188 L 343.085938 202.570312 C 343.117188 202.382812 343.105469 202.257812 343.054688 202.195312 C 343.011719 202.125 342.890625 202.0625 342.695312 202.007812 L 342.351562 201.914062 L 342.242188 201.882812 L 342.304688 201.539062 L 344.335938 201.945312 L 343.617188 205.632812 C 344.28125 204.914062 345.027344 204.640625 345.851562 204.804688 C 346.496094 204.929688 346.960938 205.289062 347.242188 205.882812 C 347.53125 206.46875 347.589844 207.191406 347.414062 208.054688 C 347.226562 209.015625 346.851562 209.738281 346.289062 210.226562 C 345.734375 210.714844 345.101562 210.886719 344.382812 210.742188 C 343.703125 210.617188 343.183594 210.246094 342.820312 209.632812 L 342.757812 209.617188 L 342.476562 210.289062 Z M 342.898438 209.210938 C 343.375 209.734375 343.867188 210.042969 344.367188 210.148438 C 344.835938 210.242188 345.230469 210.109375 345.554688 209.757812 C 345.875 209.40625 346.109375 208.859375 346.257812 208.117188 C 346.414062 207.304688 346.414062 206.675781 346.257812 206.226562 C 346.109375 205.769531 345.804688 205.492188 345.335938 205.398438 C 345.042969 205.347656 344.734375 205.378906 344.414062 205.492188 C 344.089844 205.597656 343.796875 205.765625 343.539062 205.992188 Z M 352.617188 211.945312 C 351.898438 212.089844 351.265625 212.105469 350.726562 211.992188 C 349.882812 211.835938 349.25 211.421875 348.835938 210.757812 C 348.429688 210.082031 348.3125 209.296875 348.492188 208.398438 C 348.65625 207.523438 349.03125 206.859375 349.617188 206.398438 C 350.199219 205.941406 350.855469 205.785156 351.585938 205.929688 C 352.273438 206.066406 352.75 206.40625 353.023438 206.945312 C 353.304688 207.476562 353.359375 208.171875 353.195312 209.023438 L 353.179688 209.132812 L 349.679688 208.445312 C 349.523438 209.226562 349.515625 209.835938 349.664062 210.273438 C 349.871094 210.953125 350.320312 211.351562 351.007812 211.476562 C 351.640625 211.609375 352.214844 211.589844 352.726562 211.414062 Z M 349.757812 208.101562 L 352.132812 208.570312 L 352.179688 208.335938 C 352.261719 207.921875 352.304688 207.613281 352.304688 207.414062 C 352.304688 207.21875 352.265625 207.03125 352.195312 206.851562 C 352.058594 206.519531 351.8125 206.320312 351.460938 206.257812 C 351.0625 206.175781 350.710938 206.300781 350.398438 206.632812 C 350.09375 206.96875 349.882812 207.457031 349.757812 208.101562 Z M 356.960938 204.433594 L 355.585938 211.402344 C 355.53125 211.683594 355.511719 211.941406 355.523438 212.167969 C 355.523438 212.261719 355.546875 212.328125 355.601562 212.371094 C 355.652344 212.410156 355.757812 212.453125 355.914062 212.496094 L 356.257812 212.589844 L 356.367188 212.621094 L 356.304688 212.949219 L 353.320312 212.371094 L 353.382812 212.042969 L 353.476562 212.042969 L 353.820312 212.089844 C 354.039062 212.113281 354.179688 212.105469 354.242188 212.074219 C 354.3125 212.035156 354.375 211.910156 354.429688 211.699219 L 354.554688 211.199219 L 355.664062 205.605469 L 355.726562 205.058594 C 355.757812 204.871094 355.746094 204.746094 355.695312 204.683594 C 355.652344 204.613281 355.527344 204.550781 355.320312 204.496094 L 354.992188 204.402344 L 354.898438 204.386719 L 354.960938 204.042969 Z M 363.582031 214.359375 C 363.300781 214.421875 363.039062 214.425781 362.800781 214.375 C 362.257812 214.269531 361.867188 214.039062 361.628906 213.6875 C 361.472656 213.5 361.378906 213.292969 361.347656 213.0625 C 361.324219 212.835938 361.355469 212.511719 361.441406 212.09375 L 362.128906 208.609375 L 361.285156 208.453125 L 361.363281 208.015625 L 362.207031 208.171875 L 362.410156 207.125 L 363.519531 207.09375 L 363.253906 208.390625 L 364.832031 208.703125 L 364.753906 209.140625 L 363.175781 208.828125 L 362.457031 212.453125 C 362.351562 212.953125 362.332031 213.292969 362.394531 213.46875 C 362.496094 213.738281 362.714844 213.90625 363.050781 213.96875 C 363.214844 214.007812 363.425781 214 363.675781 213.9375 Z M 369.234375 215.222656 C 368.515625 215.367188 367.882812 215.382812 367.34375 215.269531 C 366.5 215.113281 365.867188 214.699219 365.453125 214.035156 C 365.046875 213.359375 364.929688 212.574219 365.109375 211.675781 C 365.273438 210.800781 365.648438 210.136719 366.234375 209.675781 C 366.816406 209.21875 367.472656 209.0625 368.203125 209.207031 C 368.890625 209.34375 369.367188 209.683594 369.640625 210.222656 C 369.921875 210.753906 369.976562 211.449219 369.8125 212.300781 L 369.796875 212.410156 L 366.296875 211.722656 C 366.140625 212.503906 366.132812 213.113281 366.28125 213.550781 C 366.488281 214.230469 366.9375 214.628906 367.625 214.753906 C 368.257812 214.886719 368.832031 214.867188 369.34375 214.691406 Z M 366.375 211.378906 L 368.75 211.847656 L 368.796875 211.613281 C 368.878906 211.199219 368.921875 210.890625 368.921875 210.691406 C 368.921875 210.496094 368.882812 210.308594 368.8125 210.128906 C 368.675781 209.796875 368.429688 209.597656 368.078125 209.535156 C 367.679688 209.453125 367.328125 209.578125 367.015625 209.910156 C 366.710938 210.246094 366.5 210.734375 366.375 211.378906 Z M 369.75 215.601562 L 369.8125 215.273438 L 369.90625 215.273438 C 370.101562 215.304688 370.328125 215.226562 370.578125 215.039062 L 371.265625 214.507812 L 372.75 213.304688 L 371.84375 211.507812 L 371.453125 210.757812 C 371.347656 210.5625 371.265625 210.4375 371.203125 210.382812 C 371.148438 210.320312 371.046875 210.269531 370.890625 210.226562 L 370.78125 210.210938 L 370.84375 209.882812 L 373.4375 210.382812 L 373.375 210.710938 L 373.28125 210.695312 L 373.046875 210.664062 C 372.816406 210.625 372.691406 210.648438 372.671875 210.742188 C 372.660156 210.804688 372.800781 211.144531 373.09375 211.757812 L 373.6875 213.023438 L 374.703125 212.085938 C 374.828125 211.972656 374.96875 211.820312 375.125 211.632812 C 375.28125 211.4375 375.363281 211.3125 375.375 211.257812 C 375.394531 211.164062 375.3125 211.101562 375.125 211.070312 L 374.9375 211.023438 L 374.8125 211.007812 L 374.875 210.679688 L 376.703125 211.039062 L 376.640625 211.367188 L 376.53125 211.335938 C 376.382812 211.328125 376.257812 211.335938 376.15625 211.367188 C 376.0625 211.398438 375.945312 211.484375 375.8125 211.617188 C 375.582031 211.828125 375.375 212.007812 375.1875 212.164062 L 373.859375 213.320312 L 374.765625 215.179688 C 374.992188 215.625 375.171875 215.933594 375.296875 216.101562 C 375.429688 216.277344 375.582031 216.386719 375.75 216.429688 L 375.828125 216.460938 L 375.765625 216.789062 L 373.15625 216.273438 L 373.21875 215.945312 L 373.546875 215.992188 C 373.816406 216.042969 373.960938 216.03125 373.984375 215.960938 C 373.984375 215.9375 373.96875 215.90625 373.9375 215.867188 C 373.914062 215.8125 373.882812 215.734375 373.84375 215.632812 C 373.75 215.382812 373.65625 215.160156 373.5625 214.960938 L 372.90625 213.617188 L 371.78125 214.601562 L 371.40625 214.914062 L 371.078125 215.242188 C 371.035156 215.296875 371.007812 215.332031 371 215.351562 C 370.976562 215.445312 371.09375 215.519531 371.34375 215.570312 L 371.5625 215.617188 L 371.6875 215.648438 L 371.625 215.976562 Z M 379.539062 217.503906 C 379.257812 217.566406 378.996094 217.570312 378.757812 217.519531 C 378.214844 217.414062 377.824219 217.183594 377.585938 216.832031 C 377.429688 216.644531 377.335938 216.4375 377.304688 216.207031 C 377.28125 215.980469 377.3125 215.65625 377.398438 215.238281 L 378.085938 211.753906 L 377.242188 211.597656 L 377.320312 211.160156 L 378.164062 211.316406 L 378.367188 210.269531 L 379.476562 210.238281 L 379.210938 211.535156 L 380.789062 211.847656 L 380.710938 212.285156 L 379.132812 211.972656 L 378.414062 215.597656 C 378.308594 216.097656 378.289062 216.4375 378.351562 216.613281 C 378.453125 216.882812 378.671875 217.050781 379.007812 217.113281 C 379.171875 217.152344 379.382812 217.144531 379.632812 217.082031 Z M 379.539062 217.503906 "/>
<path fill="none" stroke-width="4" stroke-linecap="round" stroke-linejoin="round" stroke="rgb(100%, 100%, 100%)" stroke-opacity="1" stroke-miterlimit="10" d="M 95.160156 195.535156 L 97.378906 202.269531 C 97.472656 202.550781 97.574219 202.785156 97.691406 202.972656 C 97.730469 203.066406 97.785156 203.121094 97.847656 203.128906 C 97.917969 203.140625 98.039062 203.125 98.207031 203.082031 L 98.550781 202.988281 L 98.660156 202.972656 L 98.769531 203.285156 L 95.863281 204.238281 L 95.753906 203.925781 L 95.847656 203.878906 L 96.191406 203.753906 C 96.378906 203.671875 96.488281 203.597656 96.519531 203.535156 C 96.558594 203.464844 96.554688 203.328125 96.503906 203.128906 L 96.363281 202.597656 L 94.582031 197.191406 L 94.378906 196.691406 C 94.316406 196.503906 94.25 196.394531 94.175781 196.363281 C 94.105469 196.332031 93.96875 196.34375 93.769531 196.394531 L 93.410156 196.472656 L 93.316406 196.503906 L 93.207031 196.175781 Z M 102.644531 201.175781 C 102.402344 201.613281 102.175781 201.941406 101.957031 202.160156 C 101.746094 202.378906 101.480469 202.546875 101.160156 202.660156 C 100.691406 202.808594 100.246094 202.78125 99.832031 202.582031 C 99.414062 202.386719 99.132812 202.0625 98.988281 201.613281 C 98.8125 201.09375 98.878906 200.597656 99.191406 200.128906 C 99.378906 199.839844 99.632812 199.59375 99.957031 199.394531 C 100.277344 199.199219 100.746094 199 101.363281 198.800781 L 101.582031 198.722656 L 101.363281 198.035156 C 101.070312 197.171875 100.589844 196.847656 99.925781 197.066406 C 99.613281 197.171875 99.371094 197.355469 99.207031 197.613281 C 99.089844 197.769531 99.082031 198.035156 99.175781 198.410156 L 99.207031 198.503906 L 98.519531 198.722656 L 98.191406 197.722656 C 98.785156 197.171875 99.382812 196.796875 99.988281 196.597656 C 100.519531 196.421875 100.980469 196.40625 101.378906 196.550781 C 101.636719 196.644531 101.835938 196.769531 101.972656 196.925781 C 102.105469 197.082031 102.230469 197.332031 102.347656 197.675781 L 103.160156 200.144531 C 103.304688 200.582031 103.441406 200.878906 103.566406 201.035156 C 103.699219 201.191406 103.867188 201.238281 104.066406 201.175781 C 104.128906 201.15625 104.210938 201.109375 104.316406 201.035156 L 104.472656 201.410156 C 104.273438 201.578125 104.074219 201.691406 103.878906 201.753906 C 103.378906 201.921875 102.964844 201.730469 102.644531 201.175781 Z M 102.378906 201.128906 L 101.691406 199.050781 L 101.441406 199.128906 C 100.855469 199.328125 100.433594 199.605469 100.175781 199.957031 C 99.925781 200.3125 99.871094 200.699219 100.019531 201.113281 C 100.121094 201.449219 100.308594 201.6875 100.582031 201.832031 C 100.863281 201.96875 101.152344 201.984375 101.457031 201.878906 C 101.757812 201.785156 102.066406 201.535156 102.378906 201.128906 Z M 105.453125 201.152344 L 103.21875 194.355469 L 103.015625 193.839844 C 102.953125 193.664062 102.886719 193.558594 102.8125 193.527344 C 102.742188 193.488281 102.605469 193.492188 102.40625 193.542969 L 102.046875 193.636719 L 101.9375 193.667969 L 101.828125 193.339844 L 103.796875 192.699219 L 104.96875 196.261719 C 105.207031 195.316406 105.726562 194.710938 106.53125 194.449219 C 107.15625 194.242188 107.734375 194.324219 108.265625 194.699219 C 108.796875 195.066406 109.195312 195.664062 109.46875 196.496094 C 109.769531 197.425781 109.800781 198.242188 109.5625 198.949219 C 109.332031 199.648438 108.863281 200.117188 108.15625 200.355469 C 107.507812 200.566406 106.875 200.492188 106.25 200.136719 L 106.1875 200.152344 L 106.265625 200.886719 Z M 106.109375 199.730469 C 106.773438 199.949219 107.351562 199.976562 107.84375 199.808594 C 108.289062 199.664062 108.570312 199.363281 108.6875 198.902344 C 108.800781 198.433594 108.738281 197.847656 108.5 197.136719 C 108.238281 196.347656 107.929688 195.792969 107.578125 195.480469 C 107.222656 195.160156 106.820312 195.070312 106.375 195.214844 C 106.09375 195.308594 105.835938 195.480469 105.609375 195.730469 C 105.378906 195.980469 105.207031 196.277344 105.09375 196.621094 Z M 115.929688 197.363281 C 115.367188 197.832031 114.824219 198.15625 114.304688 198.332031 C 113.492188 198.59375 112.734375 198.53125 112.039062 198.144531 C 111.351562 197.761719 110.867188 197.136719 110.585938 196.269531 C 110.304688 195.425781 110.3125 194.667969 110.601562 193.988281 C 110.882812 193.3125 111.375 192.855469 112.085938 192.613281 C 112.75 192.394531 113.335938 192.453125 113.835938 192.785156 C 114.335938 193.121094 114.71875 193.699219 114.992188 194.519531 L 115.023438 194.628906 L 111.648438 195.738281 C 111.898438 196.5 112.183594 197.03125 112.507812 197.332031 C 113.039062 197.824219 113.632812 197.957031 114.289062 197.738281 C 114.914062 197.53125 115.402344 197.234375 115.757812 196.847656 Z M 111.539062 195.410156 L 113.851562 194.644531 L 113.789062 194.425781 C 113.652344 194.019531 113.53125 193.730469 113.429688 193.550781 C 113.335938 193.375 113.214844 193.230469 113.070312 193.113281 C 112.777344 192.894531 112.460938 192.839844 112.117188 192.941406 C 111.730469 193.078125 111.484375 193.371094 111.382812 193.816406 C 111.289062 194.253906 111.339844 194.785156 111.539062 195.410156 Z M 116.027344 188.667969 L 118.246094 195.402344 C 118.339844 195.683594 118.441406 195.917969 118.558594 196.105469 C 118.597656 196.199219 118.652344 196.253906 118.714844 196.261719 C 118.785156 196.273438 118.90625 196.257812 119.074219 196.214844 L 119.417969 196.121094 L 119.527344 196.105469 L 119.636719 196.417969 L 116.730469 197.371094 L 116.621094 197.058594 L 116.714844 197.011719 L 117.058594 196.886719 C 117.246094 196.804688 117.355469 196.730469 117.386719 196.667969 C 117.425781 196.597656 117.421875 196.460938 117.371094 196.261719 L 117.230469 195.730469 L 115.449219 190.324219 L 115.246094 189.824219 C 115.183594 189.636719 115.117188 189.527344 115.042969 189.496094 C 114.972656 189.464844 114.835938 189.476562 114.636719 189.527344 L 114.277344 189.605469 L 114.183594 189.636719 L 114.074219 189.308594 Z M 126.671875 194.058594 C 126.453125 194.269531 126.226562 194.410156 126 194.480469 C 125.476562 194.648438 125.019531 194.644531 124.625 194.464844 C 124.394531 194.363281 124.210938 194.222656 124.078125 194.042969 C 123.953125 193.855469 123.820312 193.558594 123.6875 193.152344 L 122.578125 189.761719 L 121.75 190.042969 L 121.609375 189.636719 L 122.4375 189.355469 L 122.109375 188.339844 L 123.03125 187.761719 L 123.4375 189.027344 L 124.96875 188.527344 L 125.109375 188.933594 L 123.578125 189.433594 L 124.734375 192.949219 C 124.898438 193.441406 125.054688 193.746094 125.203125 193.871094 C 125.410156 194.070312 125.679688 194.117188 126.015625 194.011719 C 126.171875 193.960938 126.347656 193.839844 126.546875 193.652344 Z M 132.019531 192.070312 C 131.457031 192.539062 130.914062 192.863281 130.394531 193.039062 C 129.582031 193.300781 128.824219 193.238281 128.128906 192.851562 C 127.441406 192.46875 126.957031 191.84375 126.675781 190.976562 C 126.394531 190.132812 126.402344 189.375 126.691406 188.695312 C 126.972656 188.019531 127.464844 187.5625 128.175781 187.320312 C 128.839844 187.101562 129.425781 187.160156 129.925781 187.492188 C 130.425781 187.828125 130.808594 188.40625 131.082031 189.226562 L 131.113281 189.335938 L 127.738281 190.445312 C 127.988281 191.207031 128.273438 191.738281 128.597656 192.039062 C 129.128906 192.53125 129.722656 192.664062 130.378906 192.445312 C 131.003906 192.238281 131.492188 191.941406 131.847656 191.554688 Z M 127.628906 190.117188 L 129.941406 189.351562 L 129.878906 189.132812 C 129.742188 188.726562 129.621094 188.4375 129.519531 188.257812 C 129.425781 188.082031 129.304688 187.9375 129.160156 187.820312 C 128.867188 187.601562 128.550781 187.546875 128.207031 187.648438 C 127.820312 187.785156 127.574219 188.078125 127.472656 188.523438 C 127.378906 188.960938 127.429688 189.492188 127.628906 190.117188 Z M 132.648438 192.136719 L 132.539062 191.824219 L 132.632812 191.777344 C 132.820312 191.707031 132.976562 191.523438 133.101562 191.230469 L 133.429688 190.417969 L 134.132812 188.667969 L 132.476562 187.527344 L 131.757812 187.074219 C 131.570312 186.949219 131.4375 186.878906 131.351562 186.855469 C 131.269531 186.835938 131.15625 186.847656 131.007812 186.886719 L 130.898438 186.917969 L 130.789062 186.605469 L 133.304688 185.777344 L 133.414062 186.089844 L 133.320312 186.121094 L 133.101562 186.214844 C 132.871094 186.289062 132.773438 186.371094 132.804688 186.464844 C 132.824219 186.527344 133.117188 186.753906 133.679688 187.136719 L 134.804688 187.949219 L 135.242188 186.636719 C 135.28125 186.472656 135.328125 186.269531 135.382812 186.027344 C 135.433594 185.789062 135.449219 185.644531 135.429688 185.589844 C 135.398438 185.496094 135.289062 185.480469 135.101562 185.542969 L 134.914062 185.605469 L 134.804688 185.636719 L 134.695312 185.324219 L 136.460938 184.746094 L 136.570312 185.058594 L 136.460938 185.089844 C 136.324219 185.144531 136.21875 185.210938 136.148438 185.292969 C 136.085938 185.378906 136.023438 185.507812 135.960938 185.683594 C 135.875 185.976562 135.792969 186.238281 135.710938 186.464844 L 135.085938 188.136719 L 136.804688 189.292969 C 137.21875 189.585938 137.527344 189.773438 137.726562 189.855469 C 137.933594 189.941406 138.121094 189.960938 138.289062 189.917969 L 138.351562 189.902344 L 138.460938 190.214844 L 135.945312 191.042969 L 135.835938 190.730469 L 135.929688 190.699219 L 136.164062 190.605469 C 136.414062 190.523438 136.527344 190.445312 136.507812 190.371094 C 136.496094 190.351562 136.46875 190.332031 136.429688 190.308594 C 136.375 190.269531 136.3125 190.210938 136.242188 190.136719 C 136.03125 189.980469 135.828125 189.832031 135.632812 189.683594 L 134.414062 188.855469 L 133.914062 190.261719 L 133.757812 190.714844 L 133.617188 191.167969 C 133.59375 191.230469 133.589844 191.273438 133.601562 191.292969 C 133.632812 191.386719 133.773438 191.394531 134.023438 191.308594 L 134.226562 191.261719 L 134.351562 191.230469 L 134.460938 191.542969 Z M 142.121094 188.972656 C 141.902344 189.183594 141.675781 189.324219 141.449219 189.394531 C 140.925781 189.5625 140.46875 189.558594 140.074219 189.378906 C 139.84375 189.277344 139.660156 189.136719 139.527344 188.957031 C 139.402344 188.769531 139.269531 188.472656 139.136719 188.066406 L 138.027344 184.675781 L 137.199219 184.957031 L 137.058594 184.550781 L 137.886719 184.269531 L 137.558594 183.253906 L 138.480469 182.675781 L 138.886719 183.941406 L 140.417969 183.441406 L 140.558594 183.847656 L 139.027344 184.347656 L 140.183594 187.863281 C 140.347656 188.355469 140.503906 188.660156 140.652344 188.785156 C 140.859375 188.984375 141.128906 189.03125 141.464844 188.925781 C 141.621094 188.875 141.796875 188.753906 141.996094 188.566406 Z M 142.121094 188.972656 "/>
<path fill-rule="nonzero" fill="rgb(0%, 0%, 0%)" fill-opacity="1" d="M 95.160156 195.535156 L 97.378906 202.269531 C 97.472656 202.550781 97.574219 202.785156 97.691406 202.972656 C 97.730469 203.066406 97.785156 203.121094 97.847656 203.128906 C 97.917969 203.140625 98.039062 203.125 98.207031 203.082031 L 98.550781 202.988281 L 98.660156 202.972656 L 98.769531 203.285156 L 95.863281 204.238281 L 95.753906 203.925781 L 95.847656 203.878906 L 96.191406 203.753906 C 96.378906 203.671875 96.488281 203.597656 96.519531 203.535156 C 96.558594 203.464844 96.554688 203.328125 96.503906 203.128906 L 96.363281 202.597656 L 94.582031 197.191406 L 94.378906 196.691406 C 94.316406 196.503906 94.25 196.394531 94.175781 196.363281 C 94.105469 196.332031 93.96875 196.34375 93.769531 196.394531 L 93.410156 196.472656 L 93.316406 196.503906 L 93.207031 196.175781 Z M 102.644531 201.175781 C 102.402344 201.613281 102.175781 201.941406 101.957031 202.160156 C 101.746094 202.378906 101.480469 202.546875 101.160156 202.660156 C 100.691406 202.808594 100.246094 202.78125 99.832031 202.582031 C 99.414062 202.386719 99.132812 202.0625 98.988281 201.613281 C 98.8125 201.09375 98.878906 200.597656 99.191406 200.128906 C 99.378906 199.839844 99.632812 199.59375 99.957031 199.394531 C 100.277344 199.199219 100.746094 199 101.363281 198.800781 L 101.582031 198.722656 L 101.363281 198.035156 C 101.070312 197.171875 100.589844 196.847656 99.925781 197.066406 C 99.613281 197.171875 99.371094 197.355469 99.207031 197.613281 C 99.089844 197.769531 99.082031 198.035156 99.175781 198.410156 L 99.207031 198.503906 L 98.519531 198.722656 L 98.191406 197.722656 C 98.785156 197.171875 99.382812 196.796875 99.988281 196.597656 C 100.519531 196.421875 100.980469 196.40625 101.378906 196.550781 C 101.636719 196.644531 101.835938 196.769531 101.972656 196.925781 C 102.105469 197.082031 102.230469 197.332031 102.347656 197.675781 L 103.160156 200.144531 C 103.304688 200.582031 103.441406 200.878906 103.566406 201.035156 C 103.699219 201.191406 103.867188 201.238281 104.066406 201.175781 C 104.128906 201.15625 104.210938 201.109375 104.316406 201.035156 L 104.472656 201.410156 C 104.273438 201.578125 104.074219 201.691406 103.878906 201.753906 C 103.378906 201.921875 102.964844 201.730469 102.644531 201.175781 Z M 102.378906 201.128906 L 101.691406 199.050781 L 101.441406 199.128906 C 100.855469 199.328125 100.433594 199.605469 100.175781 199.957031 C 99.925781 200.3125 99.871094 200.699219 100.019531 201.113281 C 100.121094 201.449219 100.308594 201.6875 100.582031 201.832031 C 100.863281 201.96875 101.152344 201.984375 101.457031 201.878906 C 101.757812 201.785156 102.066406 201.535156 102.378906 201.128906 Z M 105.453125 201.152344 L 103.21875 194.355469 L 103.015625 193.839844 C 102.953125 193.664062 102.886719 193.558594 102.8125 193.527344 C 102.742188 193.488281 102.605469 193.492188 102.40625 193.542969 L 102.046875 193.636719 L 101.9375 193.667969 L 101.828125 193.339844 L 103.796875 192.699219 L 104.96875 196.261719 C 105.207031 195.316406 105.726562 194.710938 106.53125 194.449219 C 107.15625 194.242188 107.734375 194.324219 108.265625 194.699219 C 108.796875 195.066406 109.195312 195.664062 109.46875 196.496094 C 109.769531 197.425781 109.800781 198.242188 109.5625 198.949219 C 109.332031 199.648438 108.863281 200.117188 108.15625 200.355469 C 107.507812 200.566406 106.875 200.492188 106.25 200.136719 L 106.1875 200.152344 L 106.265625 200.886719 Z M 106.109375 199.730469 C 106.773438 199.949219 107.351562 199.976562 107.84375 199.808594 C 108.289062 199.664062 108.570312 199.363281 108.6875 198.902344 C 108.800781 198.433594 108.738281 197.847656 108.5 197.136719 C 108.238281 196.347656 107.929688 195.792969 107.578125 195.480469 C 107.222656 195.160156 106.820312 195.070312 106.375 195.214844 C 106.09375 195.308594 105.835938 195.480469 105.609375 195.730469 C 105.378906 195.980469 105.207031 196.277344 105.09375 196.621094 Z M 115.929688 197.363281 C 115.367188 197.832031 114.824219 198.15625 114.304688 198.332031 C 113.492188 198.59375 112.734375 198.53125 112.039062 198.144531 C 111.351562 197.761719 110.867188 197.136719 110.585938 196.269531 C 110.304688 195.425781 110.3125 194.667969 110.601562 193.988281 C 110.882812 193.3125 111.375 192.855469 112.085938 192.613281 C 112.75 192.394531 113.335938 192.453125 113.835938 192.785156 C 114.335938 193.121094 114.71875 193.699219 114.992188 194.519531 L 115.023438 194.628906 L 111.648438 195.738281 C 111.898438 196.5 112.183594 197.03125 112.507812 197.332031 C 113.039062 197.824219 113.632812 197.957031 114.289062 197.738281 C 114.914062 197.53125 115.402344 197.234375 115.757812 196.847656 Z M 111.539062 195.410156 L 113.851562 194.644531 L 113.789062 194.425781 C 113.652344 194.019531 113.53125 193.730469 113.429688 193.550781 C 113.335938 193.375 113.214844 193.230469 113.070312 193.113281 C 112.777344 192.894531 112.460938 192.839844 112.117188 192.941406 C 111.730469 193.078125 111.484375 193.371094 111.382812 193.816406 C 111.289062 194.253906 111.339844 194.785156 111.539062 195.410156 Z M 116.027344 188.667969 L 118.246094 195.402344 C 118.339844 195.683594 118.441406 195.917969 118.558594 196.105469 C 118.597656 196.199219 118.652344 196.253906 118.714844 196.261719 C 118.785156 196.273438 118.90625 196.257812 119.074219 196.214844 L 119.417969 196.121094 L 119.527344 196.105469 L 119.636719 196.417969 L 116.730469 197.371094 L 116.621094 197.058594 L 116.714844 197.011719 L 117.058594 196.886719 C 117.246094 196.804688 117.355469 196.730469 117.386719 196.667969 C 117.425781 196.597656 117.421875 196.460938 117.371094 196.261719 L 117.230469 195.730469 L 115.449219 190.324219 L 115.246094 189.824219 C 115.183594 189.636719 115.117188 189.527344 115.042969 189.496094 C 114.972656 189.464844 114.835938 189.476562 114.636719 189.527344 L 114.277344 189.605469 L 114.183594 189.636719 L 114.074219 189.308594 Z M 126.671875 194.058594 C 126.453125 194.269531 126.226562 194.410156 126 194.480469 C 125.476562 194.648438 125.019531 194.644531 124.625 194.464844 C 124.394531 194.363281 124.210938 194.222656 124.078125 194.042969 C 123.953125 193.855469 123.820312 193.558594 123.6875 193.152344 L 122.578125 189.761719 L 121.75 190.042969 L 121.609375 189.636719 L 122.4375 189.355469 L 122.109375 188.339844 L 123.03125 187.761719 L 123.4375 189.027344 L 124.96875 188.527344 L 125.109375 188.933594 L 123.578125 189.433594 L 124.734375 192.949219 C 124.898438 193.441406 125.054688 193.746094 125.203125 193.871094 C 125.410156 194.070312 125.679688 194.117188 126.015625 194.011719 C 126.171875 193.960938 126.347656 193.839844 126.546875 193.652344 Z M 132.019531 192.070312 C 131.457031 192.539062 130.914062 192.863281 130.394531 193.039062 C 129.582031 193.300781 128.824219 193.238281 128.128906 192.851562 C 127.441406 192.46875 126.957031 191.84375 126.675781 190.976562 C 126.394531 190.132812 126.402344 189.375 126.691406 188.695312 C 126.972656 188.019531 127.464844 187.5625 128.175781 187.320312 C 128.839844 187.101562 129.425781 187.160156 129.925781 187.492188 C 130.425781 187.828125 130.808594 188.40625 131.082031 189.226562 L 131.113281 189.335938 L 127.738281 190.445312 C 127.988281 191.207031 128.273438 191.738281 128.597656 192.039062 C 129.128906 192.53125 129.722656 192.664062 130.378906 192.445312 C 131.003906 192.238281 131.492188 191.941406 131.847656 191.554688 Z M 127.628906 190.117188 L 129.941406 189.351562 L 129.878906 189.132812 C 129.742188 188.726562 129.621094 188.4375 129.519531 188.257812 C 129.425781 188.082031 129.304688 187.9375 129.160156 187.820312 C 128.867188 187.601562 128.550781 187.546875 128.207031 187.648438 C 127.820312 187.785156 127.574219 188.078125 127.472656 188.523438 C 127.378906 188.960938 127.429688 189.492188 127.628906 190.117188 Z M 132.648438 192.136719 L 132.539062 191.824219 L 132.632812 191.777344 C 132.820312 191.707031 132.976562 191.523438 133.101562 191.230469 L 133.429688 190.417969 L 134.132812 188.667969 L 132.476562 187.527344 L 131.757812 187.074219 C 131.570312 186.949219 131.4375 186.878906 131.351562 186.855469 C 131.269531 186.835938 131.15625 186.847656 131.007812 186.886719 L 130.898438 186.917969 L 130.789062 186.605469 L 133.304688 185.777344 L 133.414062 186.089844 L 133.320312 186.121094 L 133.101562 186.214844 C 132.871094 186.289062 132.773438 186.371094 132.804688 186.464844 C 132.824219 186.527344 133.117188 186.753906 133.679688 187.136719 L 134.804688 187.949219 L 135.242188 186.636719 C 135.28125 186.472656 135.328125 186.269531 135.382812 186.027344 C 135.433594 185.789062 135.449219 185.644531 135.429688 185.589844 C 135.398438 185.496094 135.289062 185.480469 135.101562 185.542969 L 134.914062 185.605469 L 134.804688 185.636719 L 134.695312 185.324219 L 136.460938 184.746094 L 136.570312 185.058594 L 136.460938 185.089844 C 136.324219 185.144531 136.21875 185.210938 136.148438 185.292969 C 136.085938 185.378906 136.023438 185.507812 135.960938 185.683594 C 135.875 185.976562 135.792969 186.238281 135.710938 186.464844 L 135.085938 188.136719 L 136.804688 189.292969 C 137.21875 189.585938 137.527344 189.773438 137.726562 189.855469 C 137.933594 189.941406 138.121094 189.960938 138.289062 189.917969 L 138.351562 189.902344 L 138.460938 190.214844 L 135.945312 191.042969 L 135.835938 190.730469 L 135.929688 190.699219 L 136.164062 190.605469 C 136.414062 190.523438 136.527344 190.445312 136.507812 190.371094 C 136.496094 190.351562 136.46875 190.332031 136.429688 190.308594 C 136.375 190.269531 136.3125 190.210938 136.242188 190.136719 C 136.03125 189.980469 135.828125 189.832031 135.632812 189.683594 L 134.414062 188.855469 L 133.914062 190.261719 L 133.757812 190.714844 L 133.617188 191.167969 C 133.59375 191.230469 133.589844 191.273438 133.601562 191.292969 C 133.632812 191.386719 133.773438 191.394531 134.023438 191.308594 L 134.226562 191.261719 L 134.351562 191.230469 L 134.460938 191.542969 Z M 142.121094 188.972656 C 141.902344 189.183594 141.675781 189.324219 141.449219 189.394531 C 140.925781 189.5625 140.46875 189.558594 140.074219 189.378906 C 139.84375 189.277344 139.660156 189.136719 139.527344 188.957031 C 139.402344 188.769531 139.269531 188.472656 139.136719 188.066406 L 138.027344 184.675781 L 137.199219 184.957031 L 137.058594 184.550781 L 137.886719 184.269531 L 137.558594 183.253906 L 138.480469 182.675781 L 138.886719 183.941406 L 140.417969 183.441406 L 140.558594 183.847656 L 139.027344 184.347656 L 140.183594 187.863281 C 140.347656 188.355469 140.503906 188.660156 140.652344 188.785156 C 140.859375 188.984375 141.128906 189.03125 141.464844 188.925781 C 141.621094 188.875 141.796875 188.753906 141.996094 188.566406 Z M 142.121094 188.972656 "/>
</svg>
