<?xml version="1.0" encoding="UTF-8"?>
<svg xmlns="http://www.w3.org/2000/svg" xmlns:xlink="http://www.w3.org/1999/xlink" width="100" height="100" viewBox="0 0 100 100">
<defs>
<filter id="filter-remove-color-and-invert-alpha" x="0%" y="0%" width="100%" height="100%">
<feColorMatrix color-interpolation-filters="sRGB" values="0 0 0 0 1 0 0 0 0 1 0 0 0 0 1 0 0 0 -1 1"/>
</filter>
<filter id="filter-0" x="0%" y="0%" width="100%" height="100%">
<feImage xlink:href="#compositing-group-1" result="source" x="0" y="0" width="120" height="120"/>
<feImage xlink:href="#compositing-group-2" result="destination" x="0" y="0" width="120" height="120"/>
<feComposite in="source" in2="destination" operator="arithmetic" k1="0" k2="1" k3="1" k4="0" color-interpolation-filters="sRGB"/>
</filter>
<g id="compositing-group-0" transform="translate(10, 10)">
<rect x="-10" y="-10" width="120" height="120" fill="rgb(0%, 0%, 0%)" fill-opacity="0"/>
<rect x="-10" y="-10" width="120" height="120" fill="rgb(100%, 100%, 100%)" fill-opacity="1"/>
</g>
<mask id="mask-0">
<use xlink:href="#compositing-group-0"/>
</mask>
<mask id="mask-1">
<use xlink:href="#compositing-group-0" filter="url(#filter-remove-color-and-invert-alpha)"/>
</mask>
<g id="compositing-group-1" mask="url(#mask-0)">
<g transform="translate(10, 10)">
<rect x="-10" y="-10" width="120" height="120" fill="rgb(88.235294%, 88.235294%, 88.235294%)" fill-opacity="1"/>
</g>
</g>
<g id="compositing-group-2" mask="url(#mask-1)">
<g transform="translate(10, 10)">
</g>
</g>
</defs>
<g filter="url(#filter-0)" transform="translate(-10, -10)">
<rect x="0" y="0" width="120" height="120" fill="rgb(0%, 0%, 0%)" fill-opacity="1"/>
</g>
<path fill="none" stroke-width="6" stroke-linecap="round" stroke-linejoin="round" stroke="rgb(100%, 100%, 100%)" stroke-opacity="1" stroke-miterlimit="10" d="M 43.675781 86.769531 L 29.117188 71.628906 L 25.625 50.664062 L 32.03125 32.613281 L 48.335938 25.042969 L 64.640625 22.128906 L 82.113281 27.953125 "/>
<path fill-rule="nonzero" fill="rgb(100%, 0%, 100%)" fill-opacity="1" d="M 28.0625 42.511719 L 31.214844 33.625 L 28.503906 33.574219 L 32.765625 30.539062 L 34.160156 35.582031 L 32.023438 33.914062 L 28.871094 42.800781 L 28.0625 42.511719 "/>
</svg>
