<?xml version="1.0" encoding="UTF-8"?>
<svg xmlns="http://www.w3.org/2000/svg" xmlns:xlink="http://www.w3.org/1999/xlink" width="400" height="300" viewBox="0 0 400 300">
<defs>
<filter id="filter-remove-color-and-invert-alpha" x="0%" y="0%" width="100%" height="100%">
<feColorMatrix color-interpolation-filters="sRGB" values="0 0 0 0 1 0 0 0 0 1 0 0 0 0 1 0 0 0 -1 1"/>
</filter>
<filter id="filter-0" x="0%" y="0%" width="100%" height="100%">
<feImage xlink:href="#compositing-group-1" result="source" x="0" y="0" width="480" height="360"/>
<feImage xlink:href="#compositing-group-2" result="destination" x="0" y="0" width="480" height="360"/>
<feComposite in="source" in2="destination" operator="arithmetic" k1="0" k2="1" k3="1" k4="0" color-interpolation-filters="sRGB"/>
</filter>
<g id="compositing-group-0" transform="translate(40, 30)">
<rect x="-40" y="-30" width="480" height="360" fill="rgb(0%, 0%, 0%)" fill-opacity="0"/>
<rect x="-40" y="-30" width="480" height="360" fill="rgb(100%, 100%, 100%)" fill-opacity="1"/>
</g>
<mask id="mask-0">
<use xlink:href="#compositing-group-0"/>
</mask>
<mask id="mask-1">
<use xlink:href="#compositing-group-0" filter="url(#filter-remove-color-and-invert-alpha)"/>
</mask>
<g id="compositing-group-1" mask="url(#mask-0)">
<g transform="translate(40, 30)">
<rect x="-40" y="-30" width="480" height="360" fill="rgb(100%, 100%, 100%)" fill-opacity="1"/>
</g>
</g>
<g id="compositing-group-2" mask="url(#mask-1)">
<g transform="translate(40, 30)">
</g>
</g>
</defs>
<g filter="url(#filter-0)" transform="translate(-40, -30)">
<rect x="0" y="0" width="480" height="360" fill="rgb(0%, 0%, 0%)" fill-opacity="1"/>
</g>
<path fill="none" stroke-width="7" stroke-linecap="round" stroke-linejoin="round" stroke="rgb(0%, 0%, 100%)" stroke-opacity="1" stroke-miterlimit="10" d="M 161.984375 109.878906 L 138.140625 85.335938 L 23.84375 97.960938 L 0 184.210938 L 62.410156 210.859375 L 173.203125 174.394531 L 166.894531 121.101562 "/>
<path fill="none" stroke-width="7" stroke-linecap="round" stroke-linejoin="round" stroke="rgb(0%, 0%, 100%)" stroke-opacity="1" stroke-miterlimit="10" d="M 231.40625 130.214844 L 261.558594 147.046875 L 275.582031 165.277344 L 291.710938 183.507812 L 312.75 187.71875 L 328.175781 201.039062 L 331.683594 203.84375 L 381.46875 213.664062 L 384.976562 188.417969 L 399 167.382812 "/>
<path fill="none" stroke-width="7" stroke-linecap="round" stroke-linejoin="round" stroke="rgb(0%, 0%, 100%)" stroke-opacity="1" stroke-miterlimit="10" d="M 37.777344 178.996094 L 125.929688 115.367188 L 145.8125 127.296875 "/>
<path fill="none" stroke-width="5" stroke-linecap="round" stroke-linejoin="round" stroke="rgb(100%, 100%, 100%)" stroke-opacity="1" stroke-miterlimit="10" d="M 161.984375 109.878906 L 138.140625 85.335938 L 23.84375 97.960938 L 0 184.210938 L 62.410156 210.859375 L 173.203125 174.394531 L 166.894531 121.101562 "/>
<path fill="none" stroke-width="5" stroke-linecap="round" stroke-linejoin="round" stroke="rgb(100%, 100%, 100%)" stroke-opacity="1" stroke-miterlimit="10" d="M 231.40625 130.214844 L 261.558594 147.046875 L 275.582031 165.277344 L 291.710938 183.507812 L 312.75 187.71875 L 328.175781 201.039062 L 331.683594 203.84375 L 381.46875 213.664062 L 384.976562 188.417969 L 399 167.382812 "/>
<path fill="none" stroke-width="5" stroke-linecap="round" stroke-linejoin="round" stroke="rgb(100%, 100%, 100%)" stroke-opacity="1" stroke-miterlimit="10" d="M 37.777344 178.996094 L 125.929688 115.367188 L 145.8125 127.296875 "/>
<path fill="none" stroke-width="1" stroke-linecap="round" stroke-linejoin="round" stroke="rgb(0%, 0%, 0%)" stroke-opacity="1" stroke-miterlimit="10" d="M 161.113281 108.984375 L 155.886719 103.605469 M 155.835938 107.140625 L 155.886719 103.605469 L 159.421875 103.65625 "/>
<path fill="none" stroke-width="1" stroke-linecap="round" stroke-linejoin="round" stroke="rgb(0%, 0%, 0%)" stroke-opacity="1" stroke-miterlimit="10" d="M 154.144531 101.8125 L 148.917969 96.429688 M 148.867188 99.964844 L 148.917969 96.429688 L 152.453125 96.484375 "/>
<path fill="none" stroke-width="1" stroke-linecap="round" stroke-linejoin="round" stroke="rgb(0%, 0%, 0%)" stroke-opacity="1" stroke-miterlimit="10" d="M 147.175781 94.636719 L 141.953125 89.257812 M 141.898438 92.792969 L 141.953125 89.257812 L 145.488281 89.308594 "/>
<path fill="none" stroke-width="1" stroke-linecap="round" stroke-linejoin="round" stroke="rgb(0%, 0%, 0%)" stroke-opacity="1" stroke-miterlimit="10" d="M 141.089844 85.011719 L 133.636719 85.835938 M 136.394531 88.046875 L 133.636719 85.835938 L 135.847656 83.074219 "/>
<path fill="none" stroke-width="1" stroke-linecap="round" stroke-linejoin="round" stroke="rgb(0%, 0%, 0%)" stroke-opacity="1" stroke-miterlimit="10" d="M 131.152344 86.109375 L 123.695312 86.933594 M 126.457031 89.144531 L 123.695312 86.933594 L 125.90625 84.171875 "/>
<path fill="none" stroke-width="1" stroke-linecap="round" stroke-linejoin="round" stroke="rgb(0%, 0%, 0%)" stroke-opacity="1" stroke-miterlimit="10" d="M 121.210938 87.207031 L 113.757812 88.03125 M 116.515625 90.242188 L 113.757812 88.03125 L 115.96875 85.269531 "/>
<path fill="none" stroke-width="1" stroke-linecap="round" stroke-linejoin="round" stroke="rgb(0%, 0%, 0%)" stroke-opacity="1" stroke-miterlimit="10" d="M 111.273438 88.304688 L 103.816406 89.128906 M 106.578125 91.339844 L 103.816406 89.128906 L 106.027344 86.367188 "/>
<path fill="none" stroke-width="1" stroke-linecap="round" stroke-linejoin="round" stroke="rgb(0%, 0%, 0%)" stroke-opacity="1" stroke-miterlimit="10" d="M 101.332031 89.402344 L 93.878906 90.226562 M 96.636719 92.4375 L 93.878906 90.226562 L 96.089844 87.464844 "/>
<path fill="none" stroke-width="1" stroke-linecap="round" stroke-linejoin="round" stroke="rgb(0%, 0%, 0%)" stroke-opacity="1" stroke-miterlimit="10" d="M 91.394531 90.5 L 83.9375 91.324219 M 86.699219 93.535156 L 83.9375 91.324219 L 86.148438 88.5625 "/>
<path fill="none" stroke-width="1" stroke-linecap="round" stroke-linejoin="round" stroke="rgb(0%, 0%, 0%)" stroke-opacity="1" stroke-miterlimit="10" d="M 81.453125 91.597656 L 74 92.421875 M 76.757812 94.632812 L 74 92.421875 L 76.210938 89.660156 "/>
<path fill="none" stroke-width="1" stroke-linecap="round" stroke-linejoin="round" stroke="rgb(0%, 0%, 0%)" stroke-opacity="1" stroke-miterlimit="10" d="M 71.515625 92.695312 L 64.058594 93.519531 M 66.820312 95.730469 L 64.058594 93.519531 L 66.269531 90.757812 "/>
<path fill="none" stroke-width="1" stroke-linecap="round" stroke-linejoin="round" stroke="rgb(0%, 0%, 0%)" stroke-opacity="1" stroke-miterlimit="10" d="M 61.574219 93.792969 L 54.121094 94.617188 M 56.878906 96.828125 L 54.121094 94.617188 L 56.332031 91.855469 "/>
<path fill="none" stroke-width="1" stroke-linecap="round" stroke-linejoin="round" stroke="rgb(0%, 0%, 0%)" stroke-opacity="1" stroke-miterlimit="10" d="M 51.636719 94.890625 L 44.179688 95.714844 M 46.941406 97.925781 L 44.179688 95.714844 L 46.390625 92.953125 "/>
<path fill="none" stroke-width="1" stroke-linecap="round" stroke-linejoin="round" stroke="rgb(0%, 0%, 0%)" stroke-opacity="1" stroke-miterlimit="10" d="M 41.695312 95.988281 L 34.242188 96.8125 M 37 99.023438 L 34.242188 96.8125 L 36.453125 94.050781 "/>
<path fill="none" stroke-width="1" stroke-linecap="round" stroke-linejoin="round" stroke="rgb(0%, 0%, 0%)" stroke-opacity="1" stroke-miterlimit="10" d="M 31.757812 97.085938 L 24.300781 97.910156 M 27.0625 100.121094 L 24.300781 97.910156 L 26.511719 95.148438 "/>
<path fill="none" stroke-width="1" stroke-linecap="round" stroke-linejoin="round" stroke="rgb(0%, 0%, 0%)" stroke-opacity="1" stroke-miterlimit="10" d="M 23.300781 99.921875 L 21.300781 107.152344 M 24.375 105.410156 L 21.300781 107.152344 L 19.558594 104.078125 "/>
<path fill="none" stroke-width="1" stroke-linecap="round" stroke-linejoin="round" stroke="rgb(0%, 0%, 0%)" stroke-opacity="1" stroke-miterlimit="10" d="M 20.632812 109.5625 L 18.636719 116.792969 M 21.710938 115.046875 L 18.636719 116.792969 L 16.894531 113.714844 "/>
<path fill="none" stroke-width="1" stroke-linecap="round" stroke-linejoin="round" stroke="rgb(0%, 0%, 0%)" stroke-opacity="1" stroke-miterlimit="10" d="M 17.96875 119.199219 L 15.972656 126.429688 M 19.046875 124.6875 L 15.972656 126.429688 L 14.226562 123.355469 "/>
<path fill="none" stroke-width="1" stroke-linecap="round" stroke-linejoin="round" stroke="rgb(0%, 0%, 0%)" stroke-opacity="1" stroke-miterlimit="10" d="M 15.304688 128.839844 L 13.308594 136.066406 M 16.382812 134.324219 L 13.308594 136.066406 L 11.5625 132.992188 "/>
<path fill="none" stroke-width="1" stroke-linecap="round" stroke-linejoin="round" stroke="rgb(0%, 0%, 0%)" stroke-opacity="1" stroke-miterlimit="10" d="M 12.640625 138.476562 L 10.644531 145.707031 M 13.71875 143.964844 L 10.644531 145.707031 L 8.898438 142.632812 "/>
<path fill="none" stroke-width="1" stroke-linecap="round" stroke-linejoin="round" stroke="rgb(0%, 0%, 0%)" stroke-opacity="1" stroke-miterlimit="10" d="M 9.976562 148.117188 L 7.980469 155.34375 M 11.054688 153.601562 L 7.980469 155.34375 L 6.234375 152.269531 "/>
<path fill="none" stroke-width="1" stroke-linecap="round" stroke-linejoin="round" stroke="rgb(0%, 0%, 0%)" stroke-opacity="1" stroke-miterlimit="10" d="M 7.3125 157.753906 L 5.316406 164.984375 M 8.390625 163.242188 L 5.316406 164.984375 L 3.570312 161.90625 "/>
<path fill="none" stroke-width="1" stroke-linecap="round" stroke-linejoin="round" stroke="rgb(0%, 0%, 0%)" stroke-opacity="1" stroke-miterlimit="10" d="M 4.648438 167.394531 L 2.652344 174.621094 M 5.726562 172.878906 L 2.652344 174.621094 L 0.90625 171.546875 "/>
<path fill="none" stroke-width="1" stroke-linecap="round" stroke-linejoin="round" stroke="rgb(0%, 0%, 0%)" stroke-opacity="1" stroke-miterlimit="10" d="M 1.984375 177.03125 L -0.015625 184.261719 M 3.0625 182.515625 L -0.015625 184.261719 L -1.757812 181.183594 "/>
<path fill="none" stroke-width="1" stroke-linecap="round" stroke-linejoin="round" stroke="rgb(0%, 0%, 0%)" stroke-opacity="1" stroke-miterlimit="10" d="M 2.347656 185.214844 L 9.246094 188.15625 M 7.925781 184.878906 L 9.246094 188.15625 L 5.964844 189.476562 "/>
<path fill="none" stroke-width="1" stroke-linecap="round" stroke-linejoin="round" stroke="rgb(0%, 0%, 0%)" stroke-opacity="1" stroke-miterlimit="10" d="M 11.542969 189.140625 L 18.441406 192.085938 M 17.125 188.804688 L 18.441406 192.085938 L 15.160156 193.402344 "/>
<path fill="none" stroke-width="1" stroke-linecap="round" stroke-linejoin="round" stroke="rgb(0%, 0%, 0%)" stroke-opacity="1" stroke-miterlimit="10" d="M 20.742188 193.066406 L 27.636719 196.011719 M 26.320312 192.730469 L 27.636719 196.011719 L 24.355469 197.328125 "/>
<path fill="none" stroke-width="1" stroke-linecap="round" stroke-linejoin="round" stroke="rgb(0%, 0%, 0%)" stroke-opacity="1" stroke-miterlimit="10" d="M 29.9375 196.992188 L 36.835938 199.9375 M 35.515625 196.65625 L 36.835938 199.9375 L 33.554688 201.253906 "/>
<path fill="none" stroke-width="1" stroke-linecap="round" stroke-linejoin="round" stroke="rgb(0%, 0%, 0%)" stroke-opacity="1" stroke-miterlimit="10" d="M 39.132812 200.917969 L 46.03125 203.863281 M 44.714844 200.585938 L 46.03125 203.863281 L 42.75 205.183594 "/>
<path fill="none" stroke-width="1" stroke-linecap="round" stroke-linejoin="round" stroke="rgb(0%, 0%, 0%)" stroke-opacity="1" stroke-miterlimit="10" d="M 48.332031 204.847656 L 55.226562 207.792969 M 53.910156 204.511719 L 55.226562 207.792969 L 51.949219 209.109375 "/>
<path fill="none" stroke-width="1" stroke-linecap="round" stroke-linejoin="round" stroke="rgb(0%, 0%, 0%)" stroke-opacity="1" stroke-miterlimit="10" d="M 57.527344 208.773438 L 64.425781 211.71875 M 63.109375 208.4375 L 64.425781 211.71875 L 61.144531 213.035156 "/>
<path fill="none" stroke-width="1" stroke-linecap="round" stroke-linejoin="round" stroke="rgb(0%, 0%, 0%)" stroke-opacity="1" stroke-miterlimit="10" d="M 66.867188 209.390625 L 73.988281 207.046875 M 70.832031 205.453125 L 73.988281 207.046875 L 72.398438 210.203125 "/>
<path fill="none" stroke-width="1" stroke-linecap="round" stroke-linejoin="round" stroke="rgb(0%, 0%, 0%)" stroke-opacity="1" stroke-miterlimit="10" d="M 76.363281 206.265625 L 83.488281 203.921875 M 80.332031 202.328125 L 83.488281 203.921875 L 81.894531 207.078125 "/>
<path fill="none" stroke-width="1" stroke-linecap="round" stroke-linejoin="round" stroke="rgb(0%, 0%, 0%)" stroke-opacity="1" stroke-miterlimit="10" d="M 85.863281 203.136719 L 92.988281 200.792969 M 89.832031 199.199219 L 92.988281 200.792969 L 91.394531 203.949219 "/>
<path fill="none" stroke-width="1" stroke-linecap="round" stroke-linejoin="round" stroke="rgb(0%, 0%, 0%)" stroke-opacity="1" stroke-miterlimit="10" d="M 95.363281 200.011719 L 102.488281 197.667969 M 99.332031 196.074219 L 102.488281 197.667969 L 100.894531 200.824219 "/>
<path fill="none" stroke-width="1" stroke-linecap="round" stroke-linejoin="round" stroke="rgb(0%, 0%, 0%)" stroke-opacity="1" stroke-miterlimit="10" d="M 104.859375 196.886719 L 111.984375 194.542969 M 108.828125 192.949219 L 111.984375 194.542969 L 110.390625 197.699219 "/>
<path fill="none" stroke-width="1" stroke-linecap="round" stroke-linejoin="round" stroke="rgb(0%, 0%, 0%)" stroke-opacity="1" stroke-miterlimit="10" d="M 114.359375 193.761719 L 121.484375 191.414062 M 118.328125 189.820312 L 121.484375 191.414062 L 119.890625 194.570312 "/>
<path fill="none" stroke-width="1" stroke-linecap="round" stroke-linejoin="round" stroke="rgb(0%, 0%, 0%)" stroke-opacity="1" stroke-miterlimit="10" d="M 123.859375 190.632812 L 130.984375 188.289062 M 127.828125 186.695312 L 130.984375 188.289062 L 129.390625 191.445312 "/>
<path fill="none" stroke-width="1" stroke-linecap="round" stroke-linejoin="round" stroke="rgb(0%, 0%, 0%)" stroke-opacity="1" stroke-miterlimit="10" d="M 133.359375 187.507812 L 140.480469 185.164062 M 137.324219 183.570312 L 140.480469 185.164062 L 138.886719 188.320312 "/>
<path fill="none" stroke-width="1" stroke-linecap="round" stroke-linejoin="round" stroke="rgb(0%, 0%, 0%)" stroke-opacity="1" stroke-miterlimit="10" d="M 142.855469 184.382812 L 149.980469 182.035156 M 146.824219 180.445312 L 149.980469 182.035156 L 148.386719 185.191406 "/>
<path fill="none" stroke-width="1" stroke-linecap="round" stroke-linejoin="round" stroke="rgb(0%, 0%, 0%)" stroke-opacity="1" stroke-miterlimit="10" d="M 152.355469 181.253906 L 159.480469 178.910156 M 156.324219 177.316406 L 159.480469 178.910156 L 157.886719 182.066406 "/>
<path fill="none" stroke-width="1" stroke-linecap="round" stroke-linejoin="round" stroke="rgb(0%, 0%, 0%)" stroke-opacity="1" stroke-miterlimit="10" d="M 161.855469 178.128906 L 168.976562 175.785156 M 165.820312 174.191406 L 168.976562 175.785156 L 167.386719 178.941406 "/>
<path fill="none" stroke-width="1" stroke-linecap="round" stroke-linejoin="round" stroke="rgb(0%, 0%, 0%)" stroke-opacity="1" stroke-miterlimit="10" d="M 173.433594 176.328125 L 172.550781 168.882812 M 170.363281 171.65625 L 172.550781 168.882812 L 175.328125 171.070312 "/>
<path fill="none" stroke-width="1" stroke-linecap="round" stroke-linejoin="round" stroke="rgb(0%, 0%, 0%)" stroke-opacity="1" stroke-miterlimit="10" d="M 172.257812 166.398438 L 171.375 158.949219 M 169.1875 161.726562 L 171.375 158.949219 L 174.152344 161.140625 "/>
<path fill="none" stroke-width="1" stroke-linecap="round" stroke-linejoin="round" stroke="rgb(0%, 0%, 0%)" stroke-opacity="1" stroke-miterlimit="10" d="M 171.082031 156.46875 L 170.199219 149.019531 M 168.011719 151.796875 L 170.199219 149.019531 L 172.976562 151.207031 "/>
<path fill="none" stroke-width="1" stroke-linecap="round" stroke-linejoin="round" stroke="rgb(0%, 0%, 0%)" stroke-opacity="1" stroke-miterlimit="10" d="M 169.90625 146.535156 L 169.023438 139.089844 M 166.835938 141.867188 L 169.023438 139.089844 L 171.800781 141.277344 "/>
<path fill="none" stroke-width="1" stroke-linecap="round" stroke-linejoin="round" stroke="rgb(0%, 0%, 0%)" stroke-opacity="1" stroke-miterlimit="10" d="M 168.730469 136.605469 L 167.847656 129.160156 M 165.660156 131.933594 L 167.847656 129.160156 L 170.625 131.347656 "/>
<path fill="none" stroke-width="1" stroke-linecap="round" stroke-linejoin="round" stroke="rgb(0%, 0%, 0%)" stroke-opacity="1" stroke-miterlimit="10" d="M 167.554688 126.675781 L 166.671875 119.226562 M 164.480469 122.003906 L 166.671875 119.226562 L 169.449219 121.417969 "/>
<path fill="none" stroke-width="1" stroke-linecap="round" stroke-linejoin="round" stroke="rgb(0%, 0%, 0%)" stroke-opacity="1" stroke-miterlimit="10" d="M 228.132812 128.386719 L 234.679688 132.042969 M 233.714844 128.640625 L 234.679688 132.042969 L 231.277344 133.007812 "/>
<path fill="none" stroke-width="1" stroke-linecap="round" stroke-linejoin="round" stroke="rgb(0%, 0%, 0%)" stroke-opacity="1" stroke-miterlimit="10" d="M 245.59375 138.136719 L 252.144531 141.792969 M 251.179688 138.390625 L 252.144531 141.792969 L 248.742188 142.753906 "/>
<path fill="none" stroke-width="1" stroke-linecap="round" stroke-linejoin="round" stroke="rgb(0%, 0%, 0%)" stroke-opacity="1" stroke-miterlimit="10" d="M 262.605469 148.40625 L 267.179688 154.351562 M 267.636719 150.847656 L 267.179688 154.351562 L 263.671875 153.894531 "/>
<path fill="none" stroke-width="1" stroke-linecap="round" stroke-linejoin="round" stroke="rgb(0%, 0%, 0%)" stroke-opacity="1" stroke-miterlimit="10" d="M 274.734375 164.316406 L 279.703125 169.933594 M 279.917969 166.40625 L 279.703125 169.933594 L 276.171875 169.71875 "/>
<path fill="none" stroke-width="1" stroke-linecap="round" stroke-linejoin="round" stroke="rgb(0%, 0%, 0%)" stroke-opacity="1" stroke-miterlimit="10" d="M 287.984375 179.296875 L 292.953125 184.914062 M 293.167969 181.382812 L 292.953125 184.914062 L 289.425781 184.699219 "/>
<path fill="none" stroke-width="1" stroke-linecap="round" stroke-linejoin="round" stroke="rgb(0%, 0%, 0%)" stroke-opacity="1" stroke-miterlimit="10" d="M 305.808594 186.328125 L 313.160156 187.800781 M 311.199219 184.859375 L 313.160156 187.800781 L 310.21875 189.761719 "/>
<path fill="none" stroke-width="1" stroke-linecap="round" stroke-linejoin="round" stroke="rgb(0%, 0%, 0%)" stroke-opacity="1" stroke-miterlimit="10" d="M 322.527344 196.164062 L 328.203125 201.066406 M 327.945312 197.539062 L 328.203125 201.066406 L 324.675781 201.324219 "/>
<path fill="none" stroke-width="1" stroke-linecap="round" stroke-linejoin="round" stroke="rgb(0%, 0%, 0%)" stroke-opacity="1" stroke-miterlimit="10" d="M 339.578125 205.402344 L 346.933594 206.851562 M 344.964844 203.917969 L 346.933594 206.851562 L 344 208.820312 "/>
<path fill="none" stroke-width="1" stroke-linecap="round" stroke-linejoin="round" stroke="rgb(0%, 0%, 0%)" stroke-opacity="1" stroke-miterlimit="10" d="M 359.199219 209.269531 L 366.558594 210.722656 M 364.589844 207.785156 L 366.558594 210.722656 L 363.621094 212.691406 "/>
<path fill="none" stroke-width="1" stroke-linecap="round" stroke-linejoin="round" stroke="rgb(0%, 0%, 0%)" stroke-opacity="1" stroke-miterlimit="10" d="M 381.097656 216.335938 L 382.128906 208.90625 M 379.308594 211.039062 L 382.128906 208.90625 L 384.261719 211.726562 "/>
<path fill="none" stroke-width="1" stroke-linecap="round" stroke-linejoin="round" stroke="rgb(0%, 0%, 0%)" stroke-opacity="1" stroke-miterlimit="10" d="M 383.847656 196.527344 L 384.882812 189.097656 M 382.0625 191.230469 L 384.882812 189.097656 L 387.011719 191.917969 "/>
<path fill="none" stroke-width="1" stroke-linecap="round" stroke-linejoin="round" stroke="rgb(0%, 0%, 0%)" stroke-opacity="1" stroke-miterlimit="10" d="M 391.527344 178.589844 L 395.6875 172.347656 M 392.222656 173.042969 L 395.6875 172.347656 L 396.382812 175.816406 "/>
<path fill="none" stroke-width="1" stroke-linecap="round" stroke-linejoin="round" stroke="rgb(0%, 0%, 0%)" stroke-opacity="1" stroke-miterlimit="10" d="M 38.792969 178.261719 L 44.875 173.875 M 41.382812 173.308594 L 44.875 173.875 L 44.308594 177.363281 "/>
<path fill="none" stroke-width="1" stroke-linecap="round" stroke-linejoin="round" stroke="rgb(0%, 0%, 0%)" stroke-opacity="1" stroke-miterlimit="10" d="M 46.902344 172.410156 L 52.980469 168.019531 M 49.492188 167.457031 L 52.980469 168.019531 L 52.417969 171.511719 "/>
<path fill="none" stroke-width="1" stroke-linecap="round" stroke-linejoin="round" stroke="rgb(0%, 0%, 0%)" stroke-opacity="1" stroke-miterlimit="10" d="M 55.007812 166.558594 L 61.089844 162.167969 M 57.601562 161.605469 L 61.089844 162.167969 L 60.527344 165.65625 "/>
<path fill="none" stroke-width="1" stroke-linecap="round" stroke-linejoin="round" stroke="rgb(0%, 0%, 0%)" stroke-opacity="1" stroke-miterlimit="10" d="M 63.117188 160.703125 L 69.199219 156.316406 M 65.707031 155.75 L 69.199219 156.316406 L 68.636719 159.804688 "/>
<path fill="none" stroke-width="1" stroke-linecap="round" stroke-linejoin="round" stroke="rgb(0%, 0%, 0%)" stroke-opacity="1" stroke-miterlimit="10" d="M 71.226562 154.851562 L 77.308594 150.460938 M 73.816406 149.898438 L 77.308594 150.460938 L 76.742188 153.953125 "/>
<path fill="none" stroke-width="1" stroke-linecap="round" stroke-linejoin="round" stroke="rgb(0%, 0%, 0%)" stroke-opacity="1" stroke-miterlimit="10" d="M 79.335938 149 L 85.414062 144.609375 M 81.925781 144.046875 L 85.414062 144.609375 L 84.851562 148.101562 "/>
<path fill="none" stroke-width="1" stroke-linecap="round" stroke-linejoin="round" stroke="rgb(0%, 0%, 0%)" stroke-opacity="1" stroke-miterlimit="10" d="M 87.441406 143.148438 L 93.523438 138.757812 M 90.035156 138.191406 L 93.523438 138.757812 L 92.960938 142.246094 "/>
<path fill="none" stroke-width="1" stroke-linecap="round" stroke-linejoin="round" stroke="rgb(0%, 0%, 0%)" stroke-opacity="1" stroke-miterlimit="10" d="M 95.550781 137.292969 L 101.632812 132.90625 M 98.140625 132.339844 L 101.632812 132.90625 L 101.070312 136.394531 "/>
<path fill="none" stroke-width="1" stroke-linecap="round" stroke-linejoin="round" stroke="rgb(0%, 0%, 0%)" stroke-opacity="1" stroke-miterlimit="10" d="M 103.660156 131.441406 L 109.742188 127.050781 M 106.25 126.488281 L 109.742188 127.050781 L 109.175781 130.542969 "/>
<path fill="none" stroke-width="1" stroke-linecap="round" stroke-linejoin="round" stroke="rgb(0%, 0%, 0%)" stroke-opacity="1" stroke-miterlimit="10" d="M 111.769531 125.589844 L 117.847656 121.199219 M 114.359375 120.636719 L 117.847656 121.199219 L 117.285156 124.6875 "/>
<path fill="none" stroke-width="1" stroke-linecap="round" stroke-linejoin="round" stroke="rgb(0%, 0%, 0%)" stroke-opacity="1" stroke-miterlimit="10" d="M 119.875 119.734375 L 125.957031 115.347656 M 122.46875 114.78125 L 125.957031 115.347656 L 125.394531 118.835938 "/>
<path fill="none" stroke-width="1" stroke-linecap="round" stroke-linejoin="round" stroke="rgb(0%, 0%, 0%)" stroke-opacity="1" stroke-miterlimit="10" d="M 128.101562 116.671875 L 134.535156 120.527344 M 133.675781 117.097656 L 134.535156 120.527344 L 131.105469 121.386719 "/>
<path fill="none" stroke-width="1" stroke-linecap="round" stroke-linejoin="round" stroke="rgb(0%, 0%, 0%)" stroke-opacity="1" stroke-miterlimit="10" d="M 136.679688 121.816406 L 143.109375 125.671875 M 142.25 122.242188 L 143.109375 125.671875 L 139.679688 126.53125 "/>
<path fill="none" stroke-width="1" stroke-linecap="round" stroke-linejoin="round" stroke="rgb(100%, 0%, 0%)" stroke-opacity="1" stroke-miterlimit="10" d="M 236.863281 133.261719 L 243.414062 136.917969 M 242.449219 133.515625 L 243.414062 136.917969 L 240.011719 137.882812 "/>
<path fill="none" stroke-width="1" stroke-linecap="round" stroke-linejoin="round" stroke="rgb(100%, 0%, 0%)" stroke-opacity="1" stroke-miterlimit="10" d="M 254.328125 143.007812 L 260.875 146.664062 M 259.910156 143.261719 L 260.875 146.664062 L 257.476562 147.628906 "/>
<path fill="none" stroke-width="1" stroke-linecap="round" stroke-linejoin="round" stroke="rgb(100%, 0%, 0%)" stroke-opacity="1" stroke-miterlimit="10" d="M 268.703125 156.335938 L 273.277344 162.277344 M 273.734375 158.773438 L 273.277344 162.277344 L 269.769531 161.820312 "/>
<path fill="none" stroke-width="1" stroke-linecap="round" stroke-linejoin="round" stroke="rgb(100%, 0%, 0%)" stroke-opacity="1" stroke-miterlimit="10" d="M 281.359375 171.804688 L 286.328125 177.421875 M 286.542969 173.894531 L 286.328125 177.421875 L 282.800781 177.207031 "/>
<path fill="none" stroke-width="1" stroke-linecap="round" stroke-linejoin="round" stroke="rgb(100%, 0%, 0%)" stroke-opacity="1" stroke-miterlimit="10" d="M 296 184.367188 L 303.355469 185.839844 M 301.394531 182.898438 L 303.355469 185.839844 L 300.414062 187.800781 "/>
<path fill="none" stroke-width="1" stroke-linecap="round" stroke-linejoin="round" stroke="rgb(100%, 0%, 0%)" stroke-opacity="1" stroke-miterlimit="10" d="M 314.960938 189.625 L 320.636719 194.527344 M 320.378906 191.003906 L 320.636719 194.527344 L 317.109375 194.785156 "/>
<path fill="none" stroke-width="1" stroke-linecap="round" stroke-linejoin="round" stroke="rgb(100%, 0%, 0%)" stroke-opacity="1" stroke-miterlimit="10" d="M 329.765625 203.46875 L 337.125 204.917969 M 335.15625 201.980469 L 337.125 204.917969 L 334.1875 206.886719 "/>
<path fill="none" stroke-width="1" stroke-linecap="round" stroke-linejoin="round" stroke="rgb(100%, 0%, 0%)" stroke-opacity="1" stroke-miterlimit="10" d="M 349.386719 207.335938 L 356.746094 208.789062 M 354.777344 205.851562 L 356.746094 208.789062 L 353.808594 210.757812 "/>
<path fill="none" stroke-width="1" stroke-linecap="round" stroke-linejoin="round" stroke="rgb(100%, 0%, 0%)" stroke-opacity="1" stroke-miterlimit="10" d="M 369.011719 211.207031 L 376.367188 212.65625 M 374.398438 209.71875 L 376.367188 212.65625 L 373.433594 214.625 "/>
<path fill="none" stroke-width="1" stroke-linecap="round" stroke-linejoin="round" stroke="rgb(100%, 0%, 0%)" stroke-opacity="1" stroke-miterlimit="10" d="M 382.472656 206.429688 L 383.503906 199.003906 M 380.683594 201.132812 L 383.503906 199.003906 L 385.636719 201.824219 "/>
<path fill="none" stroke-width="1" stroke-linecap="round" stroke-linejoin="round" stroke="rgb(100%, 0%, 0%)" stroke-opacity="1" stroke-miterlimit="10" d="M 385.980469 186.910156 L 390.140625 180.667969 M 386.675781 181.363281 L 390.140625 180.667969 L 390.835938 184.136719 "/>
</svg>
