<?xml version="1.0" encoding="UTF-8"?>
<svg xmlns="http://www.w3.org/2000/svg" xmlns:xlink="http://www.w3.org/1999/xlink" width="400pt" height="300pt" viewBox="0 0 400 300" version="1.1">
<g id="surface2">
<rect x="0" y="0" width="400" height="300" style="fill:rgb(100%,100%,100%);fill-opacity:1;stroke:none;"/>
<path style="fill:none;stroke-width:5;stroke-linecap:round;stroke-linejoin:round;stroke:rgb(0%,0%,100%);stroke-opacity:1;stroke-miterlimit:10;" d="M 161.984375 109.878906 L 138.140625 85.335938 L 23.84375 97.960938 L 0 184.210938 L 62.410156 210.859375 L 173.203125 174.394531 L 166.894531 121.101562 "/>
<path style="fill:none;stroke-width:5;stroke-linecap:round;stroke-linejoin:round;stroke:rgb(0%,0%,100%);stroke-opacity:1;stroke-miterlimit:10;" d="M 231.40625 130.214844 L 261.558594 147.046875 L 275.582031 165.277344 L 291.710938 183.507812 L 312.75 187.71875 L 328.175781 201.039062 L 331.683594 203.84375 L 381.46875 213.664062 L 384.976562 188.417969 L 399 167.382812 "/>
<path style="fill:none;stroke-width:5;stroke-linecap:round;stroke-linejoin:round;stroke:rgb(0%,0%,100%);stroke-opacity:1;stroke-miterlimit:10;" d="M 37.777344 178.996094 L 125.929688 115.367188 L 145.8125 127.296875 "/>
<path style="fill:none;stroke-width:3;stroke-linecap:round;stroke-linejoin:round;stroke:rgb(100%,100%,100%);stroke-opacity:1;stroke-miterlimit:10;" d="M 161.984375 109.878906 L 138.140625 85.335938 L 23.84375 97.960938 L 0 184.210938 L 62.410156 210.859375 L 173.203125 174.394531 L 166.894531 121.101562 "/>
<path style="fill:none;stroke-width:3;stroke-linecap:round;stroke-linejoin:round;stroke:rgb(100%,100%,100%);stroke-opacity:1;stroke-miterlimit:10;" d="M 231.40625 130.214844 L 261.558594 147.046875 L 275.582031 165.277344 L 291.710938 183.507812 L 312.75 187.71875 L 328.175781 201.039062 L 331.683594 203.84375 L 381.46875 213.664062 L 384.976562 188.417969 L 399 167.382812 "/>
<path style="fill:none;stroke-width:3;stroke-linecap:round;stroke-linejoin:round;stroke:rgb(100%,100%,100%);stroke-opacity:1;stroke-miterlimit:10;" d="M 37.777344 178.996094 L 125.929688 115.367188 L 145.8125 127.296875 "/>
<path style="fill:none;stroke-width:4;stroke-linecap:round;stroke-linejoin:round;stroke:rgb(100%,100%,100%);stroke-opacity:1;stroke-miterlimit:10;" d="M 2.19685 -8.222805 L 2.200851 -1.340477 C 2.192659 -1.062156 2.210496 -0.813221 2.255244 -0.588221 C 2.25984 -0.507823 2.291347 -0.451358 2.348883 -0.424281 C 2.410468 -0.389464 2.53116 -0.369793 2.706388 -0.358934 L 3.047699 -0.324546 L 3.160294 -0.320354 L 3.156865 0.00476292 L 0.190707 0.0027625 L 0.194137 -0.322355 L 0.294063 -0.327308 L 0.646614 -0.361887 C 0.839608 -0.362292 0.963277 -0.393465 1.023076 -0.456288 C 1.086923 -0.511371 1.119787 -0.636993 1.119382 -0.829987 L 1.160057 -1.340191 L 1.149389 -6.878422 L 1.121097 -7.399867 C 1.120692 -7.592861 1.092686 -7.714244 1.039365 -7.767184 C 0.977423 -7.821529 0.845466 -7.858965 0.640327 -7.88178 L 0.289871 -7.903499 L 0.189945 -7.898545 L 0.193375 -8.223662 Z M 7.358001 -0.783144 C 7.016619 -0.436998 6.710744 -0.200114 6.442663 -0.075659 C 6.17863 0.0565359 5.883615 0.118192 5.55533 0.112476 C 5.077157 0.114191 4.675999 -0.0308399 4.353264 -0.331237 C 4.028242 -0.628468 3.86435 -1.002095 3.857539 -1.45986 C 3.860206 -1.997498 4.069441 -2.434211 4.483482 -2.780904 C 4.753826 -2.995259 5.069226 -3.138552 5.43197 -3.213949 C 5.789785 -3.302539 6.281319 -3.342786 6.911144 -3.341024 L 7.13281 -3.354455 L 7.11995 -4.057462 C 7.12076 -4.952939 6.791475 -5.397773 6.120308 -5.395653 C 5.785165 -5.391867 5.499485 -5.28975 5.263268 -5.089302 C 5.116927 -4.973325 5.029027 -4.738084 4.998163 -4.374959 L 4.972158 -4.258839 L 4.28744 -4.271318 L 4.296299 -5.324781 C 5.008023 -5.630037 5.670879 -5.787499 6.291202 -5.792595 C 6.821982 -5.780426 7.261838 -5.655637 7.604435 -5.422802 C 7.809264 -5.24605 7.950056 -5.067345 8.026811 -4.886687 C 8.098112 -4.705148 8.13812 -4.440211 8.14455 -4.088707 L 8.137501 -1.569407 C 8.141145 -1.113929 8.181344 -0.795861 8.258098 -0.615203 C 8.329399 -0.433664 8.469286 -0.347146 8.669138 -0.357053 C 8.742678 -0.352147 8.833102 -0.363959 8.943578 -0.390202 L 8.985206 0.00597747 C 8.735057 0.0855659 8.514629 0.123979 8.321636 0.124384 C 7.820767 0.124169 7.500317 -0.179395 7.358001 -0.783144 Z M 7.127857 -0.891452 L 7.120236 -3.016669 L 6.864086 -3.008857 C 6.256956 -3.008691 5.790428 -2.882949 5.458167 -2.636206 C 5.123619 -2.386296 4.957988 -2.043365 4.964442 -1.605129 C 4.95644 -1.273677 5.055914 -1.004358 5.263744 -0.791717 C 5.472979 -0.587697 5.741298 -0.485556 6.063248 -0.484413 C 6.368837 -0.480627 6.721889 -0.616013 7.127857 -0.891452 Z M 9.964439 0.0576075 L 9.962534 -6.881018 L 9.934242 -7.402463 C 9.926979 -7.585955 9.896687 -7.70417 9.843366 -7.75711 C 9.788282 -7.820957 9.658612 -7.861561 9.453473 -7.884376 L 9.103017 -7.906094 L 9.01576 -7.891996 L 9.019189 -8.217113 L 10.997327 -8.234546 L 10.991992 -4.596339 C 11.499505 -5.386223 12.157193 -5.783474 12.97051 -5.788975 C 13.620744 -5.782117 14.134878 -5.526634 14.516079 -5.02024 C 14.894112 -4.516132 15.090106 -3.839916 15.100013 -2.999331 C 15.09394 -2.049843 14.874941 -1.292586 14.438443 -0.721226 C 14.00335 -0.158486 13.427965 0.124741 12.706835 0.129337 C 12.04024 0.125122 11.469808 -0.132457 10.992373 -0.645686 L 10.926931 -0.635112 L 10.814526 0.0545593 Z M 10.994374 -1.048915 C 11.544967 -0.637041 12.070699 -0.430997 12.571568 -0.430783 C 13.040239 -0.439356 13.385885 -0.637898 13.617125 -1.025005 C 13.859272 -1.413874 13.977868 -1.978637 13.970629 -2.716128 C 13.97463 -3.522586 13.860462 -4.125286 13.634462 -4.519656 C 13.409866 -4.922647 13.069388 -5.125048 12.607575 -5.125976 C 12.325563 -5.12238 12.039525 -5.039791 11.752631 -4.875923 C 11.457115 -4.71346 11.205419 -4.504915 10.992087 -4.249408 Z M 20.771654 -0.24479 C 20.122015 -0.00552499 19.52653 0.118668 18.984319 0.122336 C 18.161501 0.120978 17.487618 -0.153461 16.959506 -0.703269 C 16.435965 -1.259412 16.17891 -1.984519 16.182006 -2.883164 C 16.178958 -3.73325 16.408531 -4.425065 16.875297 -4.964942 C 17.333443 -5.506224 17.924664 -5.778021 18.657583 -5.778926 C 19.32875 -5.781045 19.846218 -5.556878 20.210867 -5.100971 C 20.575516 -4.645064 20.761651 -3.995235 20.771558 -3.15465 L 20.767367 -3.042055 L 17.319868 -3.044627 C 17.315153 -2.277225 17.414889 -1.694576 17.623647 -1.303017 C 17.952099 -0.690171 18.459207 -0.391584 19.146735 -0.396347 C 19.771106 -0.393703 20.315747 -0.520873 20.774321 -0.782429 Z M 17.345112 -3.373269 L 19.673705 -3.368982 L 19.669418 -3.603318 C 19.66737 -4.014287 19.649342 -4.316351 19.612168 -4.511798 C 19.579042 -4.699504 19.514956 -4.871017 19.418507 -5.017715 C 19.21294 -5.320256 18.93669 -5.471479 18.594331 -5.477718 C 18.206058 -5.473741 17.904041 -5.282248 17.679659 -4.904643 C 17.458445 -4.524753 17.345112 -4.014001 17.345112 -3.373269 Z M 23.514478 -8.222853 L 23.518479 -1.340525 C 23.510286 -1.062203 23.528124 -0.813269 23.572871 -0.588269 C 23.577468 -0.50787 23.608974 -0.451406 23.66651 -0.424329 C 23.728095 -0.389512 23.848787 -0.369841 24.024015 -0.358981 L 24.365326 -0.324593 L 24.477922 -0.320402 L 24.474493 0.00471529 L 21.508335 0.00271486 L 21.511764 -0.322402 L 21.61169 -0.327356 L 21.964242 -0.361934 C 22.157235 -0.362339 22.280905 -0.393513 22.340703 -0.456336 C 22.40455 -0.511419 22.437414 -0.637041 22.43701 -0.830035 L 22.477685 -1.340239 L 22.467016 -6.87847 L 22.438724 -7.399915 C 22.438319 -7.592908 22.410313 -7.714292 22.356992 -7.767231 C 22.295051 -7.821576 22.163094 -7.859013 21.957955 -7.881827 L 21.607499 -7.903546 L 21.507573 -7.898593 L 21.511002 -8.22371 Z M 31.665744 -0.0268153 C 31.404164 0.0686099 31.157349 0.116882 30.927586 0.114834 C 30.396282 0.116739 29.974192 -0.0193137 29.663602 -0.296492 C 29.485516 -0.463575 29.363371 -0.648091 29.293999 -0.852325 C 29.221459 -1.058845 29.18619 -1.36372 29.189596 -1.77557 L 29.188643 -5.244883 L 28.37304 -5.236214 L 28.371516 -5.661258 L 29.187119 -5.669926 L 29.190358 -6.688906 L 30.22334 -6.945341 L 30.227913 -5.670212 L 31.806345 -5.66783 L 31.807869 -5.242787 L 30.229437 -5.245169 L 30.220578 -1.628777 C 30.221768 -1.136529 30.268302 -0.813888 30.353844 -0.665428 C 30.489731 -0.413184 30.725686 -0.286228 31.063996 -0.287728 C 31.231127 -0.292348 31.434837 -0.347646 31.66422 -0.451858 Z M 37.198641 -0.243671 C 36.549002 -0.00440571 35.953517 0.119788 35.411306 0.123455 C 34.588487 0.122098 33.914605 -0.152342 33.386492 -0.70215 C 32.862952 -1.258293 32.605897 -1.9834 32.608993 -2.882045 C 32.605945 -3.732131 32.835518 -4.423945 33.302284 -4.963823 C 33.76043 -5.505105 34.351651 -5.776901 35.08457 -5.777806 C 35.755737 -5.779926 36.273205 -5.555759 36.637854 -5.099852 C 37.002503 -4.643945 37.188638 -3.994116 37.198545 -3.153531 L 37.194354 -3.040936 L 33.746855 -3.043508 C 33.74214 -2.276105 33.841876 -1.693457 34.050634 -1.301897 C 34.379086 -0.689052 34.886194 -0.390464 35.573722 -0.395227 C 36.198093 -0.392584 36.742734 -0.519754 37.201308 -0.78131 Z M 33.772099 -3.372149 L 36.100692 -3.367863 L 36.096405 -3.602198 C 36.094357 -4.013167 36.076329 -4.315232 36.039155 -4.510678 C 36.006029 -4.698385 35.941943 -4.869898 35.845494 -5.016596 C 35.639926 -5.319137 35.363677 -5.47036 35.021318 -5.476599 C 34.633045 -5.472622 34.331028 -5.281129 34.106646 -4.903524 C 33.885432 -4.523633 33.772099 -4.012881 33.772099 -3.372149 Z M 37.763261 -0.00473911 L 37.766691 -0.329856 L 37.857472 -0.32214 C 38.03832 -0.345764 38.231457 -0.466504 38.435119 -0.695268 L 39.0141 -1.337214 L 40.176253 -2.733703 L 38.994286 -4.299848 L 38.4797 -4.92179 C 38.341551 -5.084134 38.240363 -5.190895 38.170682 -5.241192 C 38.094665 -5.29606 37.975378 -5.324352 37.809652 -5.328353 L 37.718871 -5.336069 L 37.7223 -5.661186 L 40.285229 -5.661186 L 40.281799 -5.336069 L 40.191018 -5.343785 L 39.969352 -5.330353 C 39.724109 -5.324305 39.600797 -5.273603 39.603464 -5.17051 C 39.613157 -5.110521 39.811508 -4.818006 40.203973 -4.293846 L 40.995952 -3.201899 L 41.7986 -4.260506 C 41.908338 -4.412538 42.016837 -4.589552 42.126384 -4.794715 C 42.246838 -5.00164 42.310138 -5.129382 42.309947 -5.182512 C 42.300421 -5.276104 42.200305 -5.324281 42.007311 -5.323876 L 41.825748 -5.339308 L 41.713153 -5.343499 L 41.716582 -5.668616 L 43.507536 -5.666997 L 43.504107 -5.34188 L 43.395036 -5.324257 C 43.259222 -5.316303 43.148746 -5.290059 43.062203 -5.236905 C 42.972494 -5.186037 42.872948 -5.074823 42.76814 -4.909597 C 42.608106 -4.687883 42.447715 -4.485697 42.285561 -4.294418 L 41.228954 -2.937366 L 42.448929 -1.343787 C 42.739491 -0.965444 42.969326 -0.703198 43.135266 -0.559334 C 43.29892 -0.412302 43.459741 -0.334762 43.620894 -0.324426 L 43.72082 -0.32938 L 43.717391 -0.00426282 L 41.132648 -0.000738258 L 41.136077 -0.325855 L 41.236003 -0.330809 L 41.461194 -0.322426 C 41.704151 -0.325308 41.828344 -0.370555 41.830607 -0.460456 C 41.825677 -0.473649 41.81265 -0.502322 41.794694 -0.544188 C 41.761782 -0.592031 41.720774 -0.655354 41.663047 -0.735562 C 41.521541 -0.953323 41.388131 -1.155604 41.261056 -1.353313 L 40.362102 -2.483936 L 39.504586 -1.349312 L 39.208427 -0.965706 L 38.943228 -0.598295 C 38.912983 -0.543045 38.897337 -0.501345 38.895408 -0.47865 C 38.895789 -0.372389 39.018601 -0.322283 39.267011 -0.326046 L 39.479533 -0.326808 L 39.601273 -0.335286 L 39.597844 -0.0101688 Z M 47.446545 -0.0248148 C 47.184965 0.0706103 46.938151 0.118883 46.708387 0.116834 C 46.177083 0.11874 45.754993 -0.0173132 45.444403 -0.294492 C 45.266317 -0.461575 45.144172 -0.64609 45.0748 -0.850325 C 45.002261 -1.056845 44.966991 -1.36172 44.970397 -1.77357 L 44.969444 -5.242882 L 44.153841 -5.234214 L 44.152317 -5.659257 L 44.96792 -5.667926 L 44.971159 -6.686905 L 46.004141 -6.943341 L 46.008714 -5.668211 L 47.587146 -5.66583 L 47.588671 -5.240787 L 46.010238 -5.243168 L 46.001379 -1.626776 C 46.00257 -1.134528 46.049103 -0.811888 46.134646 -0.663428 C 46.270532 -0.411183 46.506487 -0.284227 46.844797 -0.285728 C 47.011928 -0.290348 47.215638 -0.345645 47.445021 -0.449858 Z M 47.446545 -0.0248148 " transform="matrix(0.81084,-0.585268,0.585268,0.81084,64,165)"/>
<path style=" stroke:none;fill-rule:nonzero;fill:rgb(0%,0%,0%);fill-opacity:1;" d="M 60.96875 157.046875 L 65 162.625 C 65.15625 162.855469 65.316406 163.046875 65.484375 163.203125 C 65.535156 163.265625 65.59375 163.292969 65.65625 163.28125 C 65.726562 163.273438 65.835938 163.21875 65.984375 163.125 L 66.28125 162.953125 L 66.375 162.890625 L 66.5625 163.15625 L 64.15625 164.890625 L 63.96875 164.625 L 64.046875 164.5625 L 64.3125 164.328125 C 64.46875 164.214844 64.550781 164.117188 64.5625 164.03125 C 64.582031 163.949219 64.535156 163.828125 64.421875 163.671875 L 64.15625 163.234375 L 60.90625 158.75 L 60.578125 158.34375 C 60.464844 158.1875 60.371094 158.105469 60.296875 158.09375 C 60.214844 158.085938 60.085938 158.132812 59.90625 158.234375 L 59.609375 158.421875 L 59.53125 158.484375 L 59.34375 158.21875 Z M 69.507812 160.058594 C 69.433594 160.539062 69.324219 160.910156 69.179688 161.167969 C 69.042969 161.429688 68.839844 161.652344 68.570312 161.839844 C 68.183594 162.121094 67.773438 162.238281 67.335938 162.183594 C 66.898438 162.132812 66.546875 161.925781 66.273438 161.558594 C 65.960938 161.121094 65.875 160.644531 66.007812 160.121094 C 66.101562 159.789062 66.273438 159.488281 66.523438 159.214844 C 66.761719 158.933594 67.136719 158.613281 67.648438 158.246094 L 67.820312 158.105469 L 67.398438 157.542969 C 66.875 156.816406 66.347656 156.648438 65.804688 157.042969 C 65.535156 157.242188 65.363281 157.492188 65.289062 157.792969 C 65.238281 157.972656 65.304688 158.214844 65.492188 158.527344 L 65.539062 158.636719 L 64.976562 159.027344 L 64.367188 158.167969 C 64.765625 157.503906 65.210938 156.988281 65.710938 156.621094 C 66.148438 156.320312 66.578125 156.164062 66.992188 156.152344 C 67.261719 156.175781 67.480469 156.238281 67.648438 156.339844 C 67.8125 156.445312 68 156.636719 68.210938 156.917969 L 69.679688 158.964844 C 69.949219 159.332031 70.167969 159.566406 70.335938 159.667969 C 70.5 159.773438 70.664062 159.761719 70.820312 159.636719 C 70.882812 159.597656 70.949219 159.535156 71.023438 159.449219 L 71.289062 159.746094 C 71.132812 159.957031 70.976562 160.117188 70.820312 160.230469 C 70.414062 160.523438 69.976562 160.464844 69.507812 160.058594 Z M 69.257812 160.105469 L 68.007812 158.386719 L 67.804688 158.542969 C 67.3125 158.898438 67.007812 159.273438 66.882812 159.667969 C 66.757812 160.066406 66.824219 160.441406 67.085938 160.792969 C 67.273438 161.066406 67.511719 161.226562 67.804688 161.277344 C 68.09375 161.320312 68.371094 161.246094 68.632812 161.058594 C 68.882812 160.882812 69.089844 160.566406 69.257812 160.105469 Z M 72.113281 159.214844 L 68.050781 153.589844 L 67.722656 153.183594 C 67.609375 153.039062 67.515625 152.960938 67.441406 152.949219 C 67.359375 152.929688 67.230469 152.972656 67.050781 153.074219 L 66.753906 153.261719 L 66.691406 153.324219 L 66.503906 153.058594 L 68.097656 151.886719 L 70.222656 154.839844 C 70.171875 153.902344 70.472656 153.195312 71.128906 152.714844 C 71.660156 152.339844 72.226562 152.246094 72.832031 152.433594 C 73.433594 152.621094 73.988281 153.054688 74.488281 153.730469 C 75.039062 154.503906 75.304688 155.246094 75.285156 155.964844 C 75.261719 156.675781 74.960938 157.242188 74.378906 157.667969 C 73.835938 158.054688 73.222656 158.179688 72.535156 158.042969 L 72.488281 158.089844 L 72.800781 158.714844 Z M 72.300781 157.714844 C 72.988281 157.726562 73.535156 157.585938 73.941406 157.292969 C 74.316406 157.011719 74.480469 156.648438 74.441406 156.199219 C 74.410156 155.742188 74.175781 155.214844 73.738281 154.621094 C 73.269531 153.964844 72.824219 153.542969 72.410156 153.355469 C 71.992188 153.160156 71.597656 153.195312 71.222656 153.464844 C 70.996094 153.632812 70.8125 153.867188 70.675781 154.167969 C 70.53125 154.472656 70.449219 154.789062 70.425781 155.121094 Z M 80.699219 152.644531 C 80.3125 153.21875 79.902344 153.667969 79.464844 153.988281 C 78.796875 154.46875 78.089844 154.640625 77.339844 154.503906 C 76.589844 154.359375 75.957031 153.921875 75.433594 153.191406 C 74.933594 152.503906 74.714844 151.808594 74.777344 151.097656 C 74.832031 150.390625 75.152344 149.824219 75.746094 149.394531 C 76.289062 149 76.839844 148.878906 77.402344 149.035156 C 77.964844 149.191406 78.496094 149.609375 78.996094 150.285156 L 79.058594 150.378906 L 76.261719 152.394531 C 76.707031 153.019531 77.128906 153.433594 77.527344 153.628906 C 78.152344 153.933594 78.738281 153.878906 79.292969 153.472656 C 79.800781 153.109375 80.167969 152.6875 80.386719 152.207031 Z M 76.089844 152.113281 L 77.980469 150.753906 L 77.839844 150.566406 C 77.597656 150.234375 77.40625 150 77.261719 149.863281 C 77.125 149.730469 76.972656 149.628906 76.808594 149.566406 C 76.464844 149.441406 76.152344 149.480469 75.871094 149.675781 C 75.558594 149.90625 75.425781 150.238281 75.464844 150.675781 C 75.507812 151.113281 75.714844 151.59375 76.089844 152.113281 Z M 78.253906 144.570312 L 82.285156 150.148438 C 82.441406 150.378906 82.601562 150.570312 82.769531 150.726562 C 82.820312 150.789062 82.878906 150.816406 82.941406 150.804688 C 83.011719 150.796875 83.121094 150.742188 83.269531 150.648438 L 83.566406 150.476562 L 83.660156 150.414062 L 83.847656 150.679688 L 81.441406 152.414062 L 81.253906 152.148438 L 81.332031 152.085938 L 81.597656 151.851562 C 81.753906 151.738281 81.835938 151.640625 81.847656 151.554688 C 81.867188 151.472656 81.820312 151.351562 81.707031 151.195312 L 81.441406 150.757812 L 78.191406 146.273438 L 77.863281 145.867188 C 77.75 145.710938 77.65625 145.628906 77.582031 145.617188 C 77.5 145.609375 77.371094 145.65625 77.191406 145.757812 L 76.894531 145.945312 L 76.816406 146.007812 L 76.628906 145.742188 Z M 89.660156 146.445312 C 89.503906 146.675781 89.332031 146.859375 89.144531 146.992188 C 88.714844 147.304688 88.292969 147.441406 87.878906 147.398438 C 87.636719 147.367188 87.429688 147.289062 87.253906 147.164062 C 87.074219 147.039062 86.867188 146.8125 86.628906 146.476562 L 84.597656 143.664062 L 83.941406 144.148438 L 83.691406 143.804688 L 84.347656 143.320312 L 83.753906 142.492188 L 84.441406 141.679688 L 85.191406 142.710938 L 86.472656 141.789062 L 86.722656 142.132812 L 85.441406 143.054688 L 87.550781 145.992188 C 87.839844 146.390625 88.066406 146.625 88.222656 146.695312 C 88.480469 146.820312 88.746094 146.785156 89.019531 146.585938 C 89.152344 146.484375 89.285156 146.320312 89.410156 146.101562 Z M 94.019531 143.03125 C 93.632812 143.605469 93.222656 144.054688 92.785156 144.375 C 92.117188 144.855469 91.410156 145.027344 90.660156 144.890625 C 89.910156 144.746094 89.277344 144.308594 88.753906 143.578125 C 88.253906 142.890625 88.035156 142.195312 88.097656 141.484375 C 88.152344 140.777344 88.472656 140.210938 89.066406 139.78125 C 89.609375 139.386719 90.160156 139.265625 90.722656 139.421875 C 91.285156 139.578125 91.816406 139.996094 92.316406 140.671875 L 92.378906 140.765625 L 89.582031 142.78125 C 90.027344 143.40625 90.449219 143.820312 90.847656 144.015625 C 91.472656 144.320312 92.058594 144.265625 92.613281 143.859375 C 93.121094 143.496094 93.488281 143.074219 93.707031 142.59375 Z M 89.410156 142.5 L 91.300781 141.140625 L 91.160156 140.953125 C 90.917969 140.621094 90.726562 140.386719 90.582031 140.25 C 90.445312 140.117188 90.292969 140.015625 90.128906 139.953125 C 89.785156 139.828125 89.472656 139.867188 89.191406 140.0625 C 88.878906 140.292969 88.746094 140.625 88.785156 141.0625 C 88.828125 141.5 89.035156 141.980469 89.410156 142.5 Z M 94.617188 142.894531 L 94.429688 142.628906 L 94.507812 142.582031 C 94.640625 142.457031 94.726562 142.246094 94.757812 141.941406 L 94.851562 141.082031 L 94.976562 139.269531 L 93.101562 138.691406 L 92.320312 138.488281 C 92.113281 138.4375 91.96875 138.410156 91.882812 138.410156 C 91.789062 138.410156 91.675781 138.457031 91.539062 138.550781 L 91.460938 138.597656 L 91.273438 138.332031 L 93.351562 136.832031 L 93.539062 137.097656 L 93.460938 137.144531 L 93.289062 137.285156 C 93.09375 137.433594 93.023438 137.546875 93.085938 137.628906 C 93.128906 137.671875 93.460938 137.792969 94.085938 137.988281 L 95.367188 138.410156 L 95.398438 137.082031 C 95.398438 136.894531 95.382812 136.6875 95.351562 136.457031 C 95.328125 136.21875 95.304688 136.078125 95.273438 136.035156 C 95.210938 135.964844 95.101562 135.984375 94.945312 136.097656 L 94.789062 136.191406 L 94.695312 136.253906 L 94.507812 135.988281 L 95.960938 134.941406 L 96.148438 135.207031 L 96.070312 135.285156 C 95.964844 135.371094 95.890625 135.457031 95.851562 135.550781 C 95.808594 135.644531 95.792969 135.792969 95.804688 135.988281 C 95.804688 136.261719 95.792969 136.519531 95.773438 136.769531 L 95.710938 138.488281 L 97.632812 139.066406 C 98.089844 139.203125 98.429688 139.28125 98.648438 139.300781 C 98.867188 139.324219 99.042969 139.292969 99.179688 139.207031 L 99.257812 139.144531 L 99.445312 139.410156 L 97.351562 140.925781 L 97.164062 140.660156 L 97.242188 140.597656 L 97.429688 140.472656 C 97.625 140.328125 97.699219 140.21875 97.648438 140.144531 C 97.636719 140.136719 97.609375 140.121094 97.570312 140.097656 C 97.515625 140.078125 97.445312 140.050781 97.351562 140.019531 C 97.109375 139.925781 96.882812 139.839844 96.664062 139.753906 L 95.273438 139.363281 L 95.242188 140.785156 L 95.226562 141.269531 L 95.226562 141.722656 C 95.234375 141.785156 95.246094 141.828125 95.257812 141.847656 C 95.320312 141.933594 95.449219 141.902344 95.648438 141.753906 L 95.820312 141.628906 L 95.914062 141.550781 L 96.101562 141.816406 Z M 102.457031 137.210938 C 102.300781 137.441406 102.128906 137.625 101.941406 137.757812 C 101.511719 138.070312 101.089844 138.207031 100.675781 138.164062 C 100.433594 138.132812 100.226562 138.054688 100.050781 137.929688 C 99.871094 137.804688 99.664062 137.578125 99.425781 137.242188 L 97.394531 134.429688 L 96.738281 134.914062 L 96.488281 134.570312 L 97.144531 134.085938 L 96.550781 133.257812 L 97.238281 132.445312 L 97.988281 133.476562 L 99.269531 132.554688 L 99.519531 132.898438 L 98.238281 133.820312 L 100.347656 136.757812 C 100.636719 137.15625 100.863281 137.390625 101.019531 137.460938 C 101.277344 137.585938 101.542969 137.550781 101.816406 137.351562 C 101.949219 137.25 102.082031 137.085938 102.207031 136.867188 Z M 102.457031 137.210938 "/>
<path style="fill:none;stroke-width:4;stroke-linecap:round;stroke-linejoin:round;stroke:rgb(100%,100%,100%);stroke-opacity:1;stroke-miterlimit:10;" d="M 2.182664 -8.234057 L 2.188494 -1.339308 C 2.180073 -1.058945 2.197778 -0.807622 2.241608 -0.58534 C 2.265899 -0.502537 2.307138 -0.454929 2.366838 -0.434849 C 2.424217 -0.406348 2.536006 -0.384595 2.697617 -0.372666 L 3.040702 -0.328835 L 3.151034 -0.334665 L 3.153193 -0.000647739 L 0.190003 -0.00561374 L 0.187844 -0.339631 L 0.301199 -0.330131 L 0.62917 -0.36295 C 0.838336 -0.372342 0.972472 -0.398791 1.027746 -0.441542 C 1.089173 -0.493469 1.123233 -0.623611 1.12685 -0.827379 L 1.168089 -1.345138 L 1.158589 -6.885465 L 1.138509 -7.391133 C 1.119887 -7.586534 1.078863 -7.713815 1.01695 -7.76531 C 0.962702 -7.818317 0.833316 -7.848545 0.631114 -7.864414 L 0.306381 -7.895937 L 0.193026 -7.905438 L 0.190867 -8.239455 Z M 7.364144 -0.775236 C 7.015444 -0.443701 6.703018 -0.210893 6.433775 -0.0821549 C 6.173708 0.0527367 5.873211 0.123934 5.535361 0.126849 C 5.05733 0.125553 4.653248 -0.0256936 4.332294 -0.320739 C 4.016737 -0.628793 3.853831 -1.010743 3.85124 -1.4681 C 3.850376 -1.997465 4.062996 -2.433555 4.486024 -2.771783 C 4.750895 -2.98327 5.060784 -3.127985 5.418768 -3.210518 C 5.782905 -3.302227 6.275619 -3.347623 6.905329 -3.344384 L 7.113685 -3.337691 L 7.118651 -4.039408 C 7.121835 -4.931884 6.790571 -5.380173 6.120269 -5.387353 C 5.790084 -5.385949 5.50713 -5.286359 5.270652 -5.092415 C 5.122481 -4.975607 5.030664 -4.73454 4.999033 -4.369971 L 4.98651 -4.271946 L 4.303146 -4.264605 L 4.30293 -5.315669 C 5.026184 -5.625505 5.69233 -5.780746 6.299045 -5.772973 C 6.826898 -5.781502 7.266281 -5.653141 7.615682 -5.395557 C 7.812919 -5.243339 7.950348 -5.071364 8.018792 -4.885787 C 8.095657 -4.697888 8.139379 -4.43577 8.142294 -4.09792 L 8.132362 -1.56375 C 8.132686 -1.117889 8.173979 -0.807515 8.25241 -0.631869 C 8.328519 -0.447804 8.470752 -0.352424 8.67452 -0.348807 C 8.73735 -0.353234 8.829329 -0.37137 8.950456 -0.403217 L 8.983059 0.00442622 C 8.73233 0.0857174 8.506215 0.130303 8.308547 0.137429 C 7.805254 0.12917 7.490453 -0.175051 7.364144 -0.775236 Z M 7.119298 -0.886215 L 7.115844 -3.003673 L 6.876828 -3.004321 C 6.270113 -3.012094 5.792513 -2.890049 5.450939 -2.64353 C 5.117785 -2.394691 4.950615 -2.051173 4.954771 -1.606069 C 4.953907 -1.287381 5.055818 -1.012848 5.258992 -0.790134 C 5.46832 -0.576596 5.739992 -0.470906 6.070177 -0.47231 C 6.363603 -0.478409 6.71484 -0.615352 7.119298 -0.886215 Z M 9.965787 0.0614812 L 9.966219 -6.88228 L 9.946139 -7.387948 C 9.927517 -7.583349 9.890326 -7.711386 9.83991 -7.765148 C 9.785662 -7.818155 9.656276 -7.848383 9.454073 -7.864252 L 9.11401 -7.892753 L 9.015986 -7.905276 L 9.013827 -8.239293 L 11.005624 -8.233895 L 11.007999 -4.587341 C 11.518849 -5.38881 12.177978 -5.781556 12.987705 -5.773999 C 13.632745 -5.773783 14.145323 -5.516523 14.523926 -5.009883 C 14.908683 -4.512419 15.097607 -3.836989 15.097607 -2.988937 C 15.101169 -2.042051 14.879265 -1.289594 14.429572 -0.723147 C 13.987544 -0.15821 13.409923 0.122908 12.702052 0.127119 C 12.034018 0.131437 11.466274 -0.122908 11.006488 -0.637429 L 10.942146 -0.640668 L 10.811518 0.0699018 Z M 11.004544 -1.051118 C 11.54044 -0.635216 12.058524 -0.4308 12.55955 -0.434039 C 13.026084 -0.430476 13.38207 -0.624096 13.624433 -1.010311 C 13.864528 -1.408022 13.98328 -1.976899 13.987598 -2.722285 C 13.989757 -3.519004 13.871869 -4.116867 13.633933 -4.515874 C 13.40215 -4.924057 13.059496 -5.127231 12.605971 -5.125396 C 12.32021 -5.120808 12.026569 -5.035037 11.731955 -4.873426 C 11.445763 -4.709494 11.200809 -4.497953 10.997851 -4.234971 Z M 20.772232 -0.2578 C 20.110404 0.000107955 19.51022 0.126417 18.969358 0.129548 C 18.14198 0.133434 17.46628 -0.14342 16.943015 -0.697183 C 16.425148 -1.263955 16.168967 -1.997789 16.173717 -2.902518 C 16.168319 -3.737562 16.398482 -4.427943 16.865718 -4.965998 C 17.340619 -5.505565 17.940425 -5.775132 18.663625 -5.782365 C 19.341592 -5.776698 19.86421 -5.549287 20.230722 -5.103967 C 20.594157 -4.654058 20.773959 -4.0047 20.773959 -3.156648 L 20.779788 -3.046316 L 17.32626 -3.034225 C 17.318056 -2.268166 17.420668 -1.687198 17.637175 -1.29591 C 17.967252 -0.692109 18.472057 -0.393501 19.151589 -0.400087 C 19.788964 -0.398359 20.328638 -0.528663 20.779788 -0.784844 Z M 17.339431 -3.371265 L 19.680576 -3.371049 L 19.681223 -3.610065 C 19.673882 -4.010745 19.654774 -4.309569 19.616233 -4.505024 C 19.578449 -4.696647 19.503851 -4.873048 19.400105 -5.035738 C 19.21701 -5.318152 18.950034 -5.460601 18.59842 -5.466916 C 18.216901 -5.463354 17.908416 -5.271137 17.677551 -4.88719 C 17.452839 -4.512419 17.341158 -4.00864 17.339431 -3.371265 Z M 23.499644 -8.232978 L 23.505474 -1.338229 C 23.497053 -1.057866 23.514758 -0.806543 23.558588 -0.584261 C 23.582879 -0.501458 23.624118 -0.453849 23.683818 -0.433769 C 23.741197 -0.405269 23.852986 -0.383515 24.014597 -0.371586 L 24.357682 -0.327756 L 24.468014 -0.333586 L 24.470173 0.000431824 L 21.506983 -0.00453417 L 21.504824 -0.338552 L 21.618179 -0.329051 L 21.94615 -0.36187 C 22.155316 -0.371262 22.289452 -0.397712 22.344726 -0.440462 C 22.406153 -0.49239 22.440213 -0.622531 22.44383 -0.826299 L 22.485069 -1.344058 L 22.475569 -6.884385 L 22.455489 -7.390053 C 22.436867 -7.585455 22.395843 -7.712735 22.33393 -7.764231 C 22.279682 -7.817237 22.150296 -7.847465 21.948094 -7.863335 L 21.62336 -7.894858 L 21.510006 -7.904358 L 21.507847 -8.238375 Z M 31.645393 -0.0368132 C 31.389212 0.0774048 31.144691 0.129602 30.912584 0.12361 C 30.378632 0.121397 29.961488 -0.0153298 29.654244 -0.281227 C 29.482323 -0.4464 29.361034 -0.637483 29.288055 -0.846055 C 29.215077 -1.054627 29.179127 -1.358093 29.18636 -1.765628 L 29.186576 -5.237509 L 28.359198 -5.233623 L 28.357254 -5.647312 L 29.184633 -5.651198 L 29.18744 -6.686933 L 30.220799 -6.938471 L 30.220367 -5.648391 L 31.795452 -5.65638 L 31.797396 -5.242691 L 30.222311 -5.234702 L 30.21864 -1.618808 C 30.219612 -1.129279 30.267005 -0.808162 30.360063 -0.65929 C 30.492688 -0.41072 30.72447 -0.285221 31.054655 -0.286624 C 31.221664 -0.287704 31.425594 -0.343841 31.65878 -0.453525 Z M 37.19549 -0.259258 C 36.533663 -0.00134946 35.933479 0.12496 35.392617 0.12809 C 34.565238 0.131977 33.889538 -0.144878 33.366273 -0.69864 C 32.848406 -1.265412 32.592225 -1.999246 32.596975 -2.903976 C 32.591578 -3.739019 32.821741 -4.429401 33.288976 -4.967456 C 33.763877 -5.507022 34.363683 -5.77659 35.086884 -5.783823 C 35.764851 -5.778155 36.287468 -5.550745 36.65398 -5.105424 C 37.017416 -4.655516 37.197217 -4.006157 37.197217 -3.158105 L 37.203047 -3.047774 L 33.749519 -3.035682 C 33.741314 -2.269623 33.843927 -1.688655 34.060434 -1.297367 C 34.390511 -0.693566 34.895315 -0.394959 35.574847 -0.401544 C 36.212222 -0.399817 36.751897 -0.53012 37.203047 -0.786301 Z M 33.76269 -3.372723 L 36.103834 -3.372507 L 36.104482 -3.611522 C 36.097141 -4.012203 36.078032 -4.311026 36.039492 -4.506482 C 36.001707 -4.698104 35.927109 -4.874505 35.823363 -5.037196 C 35.640269 -5.31961 35.373292 -5.462058 35.021678 -5.468374 C 34.64016 -5.464811 34.331674 -5.272595 34.100809 -4.888648 C 33.876098 -4.513877 33.764417 -4.010098 33.76269 -3.372723 Z M 37.759401 -0.00415633 L 37.757242 -0.338174 L 37.852243 -0.340981 C 38.042247 -0.346594 38.235597 -0.456386 38.438447 -0.679532 L 39.010184 -1.333748 L 40.181512 -2.743228 L 38.981468 -4.306222 L 38.477527 -4.923518 C 38.337778 -5.087072 38.233114 -5.193841 38.159703 -5.243069 C 38.093958 -5.293808 37.98449 -5.323982 37.822879 -5.335911 L 37.724855 -5.348434 L 37.728741 -5.651792 L 40.293571 -5.647906 L 40.289685 -5.344548 L 40.19166 -5.357071 L 39.97402 -5.330082 C 39.738081 -5.335318 39.620732 -5.284308 39.621218 -5.180886 C 39.621812 -5.117299 39.819426 -4.821823 40.210229 -4.293699 L 41.013209 -3.209816 L 41.806689 -4.274051 C 41.912811 -4.422384 42.022063 -4.595222 42.132934 -4.800231 C 42.238461 -5.01215 42.29244 -5.142237 42.293357 -5.198159 C 42.294383 -5.293916 42.205643 -5.340122 42.027136 -5.336775 L 41.815758 -5.358798 L 41.705426 -5.352968 L 41.709313 -5.656326 L 43.508084 -5.660644 L 43.504197 -5.357287 L 43.412218 -5.33915 C 43.265074 -5.318098 43.151611 -5.287763 43.065678 -5.238966 C 42.979745 -5.19017 42.881396 -5.083185 42.776786 -4.927188 C 42.608374 -4.690925 42.442337 -4.483001 42.278675 -4.303415 L 41.226963 -2.933448 L 42.448383 -1.342817 C 42.736141 -0.953634 42.962957 -0.691785 43.129588 -0.553439 C 43.291631 -0.418169 43.457668 -0.34341 43.619279 -0.33148 L 43.71428 -0.334287 L 43.71644 -0.000269894 L 41.13628 -0.00113355 L 41.13412 -0.335151 L 41.229122 -0.337958 L 41.468138 -0.33731 C 41.711742 -0.333586 41.835946 -0.370021 41.845338 -0.443539 C 41.840804 -0.466534 41.822505 -0.498759 41.793519 -0.544802 C 41.762211 -0.582425 41.718705 -0.641531 41.662244 -0.725953 C 41.529565 -0.954605 41.402176 -1.15643 41.271657 -1.333748 L 40.373891 -2.494497 L 39.503546 -1.335476 L 39.208393 -0.974685 L 38.949945 -0.58928 C 38.9161 -0.538811 38.902984 -0.504373 38.906762 -0.48521 C 38.901904 -0.388697 39.023571 -0.33704 39.271007 -0.334071 L 39.476341 -0.342708 L 39.605025 -0.33623 L 39.607184 -0.00221311 Z M 47.424367 -0.034654 C 47.168186 0.0795639 46.923665 0.131761 46.691558 0.125769 C 46.157606 0.123556 45.740462 -0.0131707 45.433218 -0.279068 C 45.261297 -0.444241 45.140008 -0.635324 45.067029 -0.843896 C 44.994051 -1.052468 44.958101 -1.355933 44.965334 -1.763469 L 44.96555 -5.23535 L 44.138172 -5.231463 L 44.136228 -5.645153 L 44.963607 -5.649039 L 44.966414 -6.684774 L 45.999773 -6.936312 L 45.999341 -5.646232 L 47.574427 -5.654221 L 47.57637 -5.240532 L 46.001285 -5.232543 L 45.997614 -1.616648 C 45.998586 -1.12712 46.045979 -0.806003 46.139037 -0.657131 C 46.271662 -0.408561 46.503444 -0.283062 46.833629 -0.284465 C 47.000638 -0.285545 47.204568 -0.341682 47.437754 -0.451366 Z M 47.424367 -0.034654 " transform="matrix(0.981109,0.193458,-0.193458,0.981109,332,208)"/>
<path style=" stroke:none;fill-rule:nonzero;fill:rgb(0%,0%,0%);fill-opacity:1;" d="M 335.734375 200.34375 L 334.40625 207.109375 C 334.34375 207.382812 334.3125 207.632812 334.3125 207.859375 C 334.320312 207.945312 334.351562 208 334.40625 208.03125 C 334.457031 208.070312 334.5625 208.113281 334.71875 208.15625 L 335.046875 208.265625 L 335.15625 208.28125 L 335.09375 208.609375 L 332.1875 208.03125 L 332.25 207.703125 L 332.359375 207.734375 L 332.6875 207.765625 C 332.894531 207.796875 333.03125 207.796875 333.09375 207.765625 C 333.164062 207.726562 333.222656 207.605469 333.265625 207.40625 L 333.40625 206.90625 L 334.46875 201.46875 L 334.546875 200.96875 C 334.566406 200.773438 334.550781 200.640625 334.5 200.578125 C 334.457031 200.515625 334.335938 200.460938 334.140625 200.40625 L 333.828125 200.3125 L 333.71875 200.28125 L 333.78125 199.953125 Z M 339.375 208.664062 C 338.96875 208.921875 338.617188 209.089844 338.328125 209.164062 C 338.046875 209.246094 337.738281 209.257812 337.40625 209.195312 C 336.9375 209.101562 336.570312 208.875 336.3125 208.523438 C 336.0625 208.160156 335.976562 207.753906 336.0625 207.304688 C 336.164062 206.785156 336.457031 206.398438 336.9375 206.148438 C 337.238281 205.992188 337.570312 205.910156 337.9375 205.898438 C 338.3125 205.878906 338.804688 205.929688 339.421875 206.054688 L 339.625 206.101562 L 339.765625 205.414062 C 339.941406 204.539062 339.703125 204.035156 339.046875 203.898438 C 338.722656 203.835938 338.425781 203.878906 338.15625 204.023438 C 337.988281 204.109375 337.851562 204.328125 337.75 204.679688 L 337.71875 204.773438 L 337.046875 204.648438 L 337.25 203.617188 C 338.019531 203.453125 338.703125 203.429688 339.296875 203.554688 C 339.816406 203.648438 340.222656 203.859375 340.515625 204.179688 C 340.679688 204.367188 340.78125 204.5625 340.8125 204.757812 C 340.851562 204.957031 340.84375 205.222656 340.78125 205.554688 L 340.28125 208.039062 C 340.195312 208.476562 340.175781 208.789062 340.21875 208.976562 C 340.257812 209.171875 340.378906 209.292969 340.578125 209.335938 C 340.640625 209.34375 340.734375 209.34375 340.859375 209.335938 L 340.8125 209.742188 C 340.550781 209.773438 340.320312 209.773438 340.125 209.742188 C 339.632812 209.636719 339.382812 209.277344 339.375 208.664062 Z M 339.15625 208.507812 L 339.5625 206.429688 L 339.328125 206.382812 C 338.734375 206.257812 338.242188 206.285156 337.859375 206.460938 C 337.484375 206.640625 337.253906 206.945312 337.171875 207.382812 C 337.109375 207.695312 337.15625 207.984375 337.3125 208.242188 C 337.476562 208.492188 337.722656 208.648438 338.046875 208.710938 C 338.335938 208.761719 338.707031 208.695312 339.15625 208.507812 Z M 341.765625 209.988281 L 343.109375 203.175781 L 343.1875 202.675781 C 343.207031 202.480469 343.195312 202.347656 343.15625 202.285156 C 343.113281 202.222656 342.992188 202.167969 342.796875 202.113281 L 342.46875 202.019531 L 342.375 201.988281 L 342.4375 201.660156 L 344.390625 202.050781 L 343.6875 205.628906 C 344.34375 204.941406 345.066406 204.683594 345.859375 204.847656 C 346.492188 204.972656 346.945312 205.324219 347.21875 205.894531 C 347.5 206.457031 347.554688 207.15625 347.390625 207.988281 C 347.210938 208.917969 346.847656 209.613281 346.296875 210.082031 C 345.753906 210.550781 345.132812 210.714844 344.4375 210.582031 C 343.78125 210.457031 343.273438 210.097656 342.921875 209.503906 L 342.859375 209.488281 L 342.59375 210.160156 Z M 343 209.097656 C 343.445312 209.609375 343.914062 209.910156 344.40625 210.003906 C 344.863281 210.097656 345.25 209.976562 345.5625 209.644531 C 345.875 209.300781 346.101562 208.765625 346.25 208.035156 C 346.40625 207.253906 346.40625 206.644531 346.25 206.207031 C 346.101562 205.761719 345.804688 205.496094 345.359375 205.410156 C 345.078125 205.359375 344.773438 205.386719 344.453125 205.488281 C 344.140625 205.59375 343.859375 205.753906 343.609375 205.972656 Z M 352.429688 211.765625 C 351.730469 211.890625 351.117188 211.898438 350.585938 211.796875 C 349.773438 211.640625 349.164062 211.238281 348.757812 210.59375 C 348.359375 209.9375 348.25 209.167969 348.429688 208.28125 C 348.585938 207.460938 348.945312 206.828125 349.507812 206.390625 C 350.078125 205.953125 350.71875 205.804688 351.429688 205.9375 C 352.09375 206.074219 352.5625 206.398438 352.835938 206.90625 C 353.105469 207.417969 353.15625 208.089844 352.992188 208.921875 L 352.976562 209.03125 L 349.585938 208.375 C 349.429688 209.125 349.417969 209.714844 349.554688 210.140625 C 349.761719 210.796875 350.199219 211.1875 350.867188 211.3125 C 351.492188 211.4375 352.046875 211.414062 352.539062 211.25 Z M 349.664062 208.046875 L 351.960938 208.5 L 352.007812 208.265625 C 352.078125 207.871094 352.117188 207.574219 352.117188 207.375 C 352.117188 207.179688 352.078125 206.992188 352.007812 206.8125 C 351.882812 206.5 351.648438 206.308594 351.304688 206.234375 C 350.929688 206.164062 350.589844 206.292969 350.289062 206.625 C 349.996094 206.949219 349.789062 207.421875 349.664062 208.046875 Z M 356.648438 204.46875 L 355.320312 211.234375 C 355.257812 211.507812 355.226562 211.757812 355.226562 211.984375 C 355.234375 212.070312 355.265625 212.125 355.320312 212.15625 C 355.371094 212.195312 355.476562 212.238281 355.632812 212.28125 L 355.960938 212.390625 L 356.070312 212.40625 L 356.007812 212.734375 L 353.101562 212.15625 L 353.164062 211.828125 L 353.273438 211.859375 L 353.601562 211.890625 C 353.808594 211.921875 353.945312 211.921875 354.007812 211.890625 C 354.078125 211.851562 354.136719 211.730469 354.179688 211.53125 L 354.320312 211.03125 L 355.382812 205.59375 L 355.460938 205.09375 C 355.480469 204.898438 355.464844 204.765625 355.414062 204.703125 C 355.371094 204.640625 355.25 204.585938 355.054688 204.53125 L 354.742188 204.4375 L 354.632812 204.40625 L 354.695312 204.078125 Z M 363.054688 214.085938 C 362.78125 214.148438 362.53125 214.152344 362.304688 214.101562 C 361.78125 213.996094 361.398438 213.78125 361.148438 213.460938 C 361.011719 213.265625 360.929688 213.054688 360.898438 212.835938 C 360.867188 212.617188 360.890625 212.3125 360.976562 211.914062 L 361.648438 208.507812 L 360.835938 208.351562 L 360.914062 207.945312 L 361.726562 208.101562 L 361.929688 207.085938 L 362.992188 207.039062 L 362.742188 208.304688 L 364.289062 208.601562 L 364.210938 209.007812 L 362.664062 208.710938 L 361.960938 212.257812 C 361.867188 212.738281 361.851562 213.0625 361.914062 213.226562 C 361.996094 213.496094 362.199219 213.664062 362.523438 213.726562 C 362.6875 213.757812 362.898438 213.742188 363.148438 213.679688 Z M 368.542969 214.941406 C 367.84375 215.066406 367.230469 215.074219 366.699219 214.972656 C 365.886719 214.816406 365.277344 214.414062 364.871094 213.769531 C 364.472656 213.113281 364.363281 212.34375 364.542969 211.457031 C 364.699219 210.636719 365.058594 210.003906 365.621094 209.566406 C 366.191406 209.128906 366.832031 208.980469 367.542969 209.113281 C 368.207031 209.25 368.675781 209.574219 368.949219 210.082031 C 369.21875 210.59375 369.269531 211.265625 369.105469 212.097656 L 369.089844 212.207031 L 365.699219 211.550781 C 365.542969 212.300781 365.53125 212.890625 365.667969 213.316406 C 365.875 213.972656 366.3125 214.363281 366.980469 214.488281 C 367.605469 214.613281 368.160156 214.589844 368.652344 214.425781 Z M 365.777344 211.222656 L 368.074219 211.675781 L 368.121094 211.441406 C 368.191406 211.046875 368.230469 210.75 368.230469 210.550781 C 368.230469 210.355469 368.191406 210.167969 368.121094 209.988281 C 367.996094 209.675781 367.761719 209.484375 367.417969 209.410156 C 367.042969 209.339844 366.703125 209.46875 366.402344 209.800781 C 366.109375 210.125 365.902344 210.597656 365.777344 211.222656 Z M 369.046875 215.300781 L 369.109375 214.972656 L 369.203125 214.988281 C 369.390625 215.019531 369.601562 214.949219 369.84375 214.769531 L 370.53125 214.238281 L 371.953125 213.082031 L 371.078125 211.316406 L 370.703125 210.613281 C 370.597656 210.425781 370.515625 210.300781 370.453125 210.238281 C 370.398438 210.175781 370.296875 210.125 370.140625 210.082031 L 370.046875 210.050781 L 370.109375 209.753906 L 372.625 210.253906 L 372.5625 210.550781 L 372.46875 210.519531 L 372.25 210.503906 C 372.019531 210.453125 371.894531 210.480469 371.875 210.582031 C 371.863281 210.644531 372 210.972656 372.28125 211.566406 L 372.859375 212.785156 L 373.84375 211.894531 C 373.976562 211.769531 374.117188 211.621094 374.265625 211.441406 C 374.410156 211.253906 374.488281 211.136719 374.5 211.082031 C 374.519531 210.988281 374.441406 210.925781 374.265625 210.894531 L 374.0625 210.832031 L 373.953125 210.816406 L 374.015625 210.519531 L 375.78125 210.863281 L 375.71875 211.160156 L 375.625 211.160156 C 375.476562 211.152344 375.359375 211.160156 375.265625 211.191406 C 375.171875 211.222656 375.054688 211.308594 374.921875 211.441406 C 374.710938 211.640625 374.507812 211.8125 374.3125 211.957031 L 373.015625 213.097656 L 373.90625 214.894531 C 374.113281 215.332031 374.285156 215.632812 374.421875 215.800781 C 374.554688 215.964844 374.703125 216.070312 374.859375 216.113281 L 374.953125 216.128906 L 374.890625 216.457031 L 372.359375 215.957031 L 372.421875 215.628906 L 372.515625 215.644531 L 372.75 215.691406 C 372.988281 215.742188 373.117188 215.730469 373.140625 215.660156 C 373.140625 215.636719 373.128906 215.601562 373.109375 215.550781 C 373.085938 215.507812 373.054688 215.441406 373.015625 215.347656 C 372.929688 215.097656 372.84375 214.875 372.75 214.675781 L 372.09375 213.363281 L 371.015625 214.332031 L 370.65625 214.628906 L 370.328125 214.957031 C 370.285156 215 370.265625 215.03125 370.265625 215.050781 C 370.242188 215.144531 370.351562 215.21875 370.59375 215.269531 L 370.796875 215.300781 L 370.921875 215.332031 L 370.859375 215.660156 Z M 378.535156 217.140625 C 378.261719 217.203125 378.011719 217.207031 377.785156 217.15625 C 377.261719 217.050781 376.878906 216.835938 376.628906 216.515625 C 376.492188 216.320312 376.410156 216.109375 376.378906 215.890625 C 376.347656 215.671875 376.371094 215.367188 376.457031 214.96875 L 377.128906 211.5625 L 376.316406 211.40625 L 376.394531 211 L 377.207031 211.15625 L 377.410156 210.140625 L 378.472656 210.09375 L 378.222656 211.359375 L 379.769531 211.65625 L 379.691406 212.0625 L 378.144531 211.765625 L 377.441406 215.3125 C 377.347656 215.792969 377.332031 216.117188 377.394531 216.28125 C 377.476562 216.550781 377.679688 216.71875 378.003906 216.78125 C 378.167969 216.8125 378.378906 216.796875 378.628906 216.734375 Z M 378.535156 217.140625 "/>
<path style="fill:none;stroke-width:4;stroke-linecap:round;stroke-linejoin:round;stroke:rgb(100%,100%,100%);stroke-opacity:1;stroke-miterlimit:10;" d="M 2.187201 -8.245121 L 2.188704 -1.3523 C 2.192274 -1.063259 2.211765 -0.810102 2.25089 -0.591608 C 2.275924 -0.505234 2.310727 -0.448543 2.360231 -0.424026 C 2.415935 -0.393356 2.528423 -0.372784 2.701406 -0.361089 L 3.037508 -0.332721 L 3.15117 -0.328212 L 3.15737 0.00281807 L 0.182799 -0.00563615 L 0.176599 -0.336666 L 0.290262 -0.332157 L 0.645903 -0.363156 C 0.834854 -0.374992 0.957018 -0.408809 1.00624 -0.458407 C 1.062884 -0.505562 1.099472 -0.629229 1.113515 -0.834338 L 1.151089 -1.348354 L 1.14489 -6.877416 L 1.118212 -7.396129 C 1.106376 -7.585081 1.07378 -7.710955 1.027846 -7.771309 C 0.973269 -7.830394 0.842181 -7.869425 0.637073 -7.883468 L 0.30097 -7.911837 L 0.187308 -7.916346 L 0.181108 -8.247375 Z M 7.348175 -0.77281 C 7.013482 -0.430602 6.714202 -0.195997 6.441695 -0.0677277 C 6.175387 0.0666944 5.881649 0.134516 5.553062 0.133295 C 5.068823 0.130195 4.665556 -0.018975 4.335842 -0.316658 C 4.008569 -0.621761 3.84653 -1.00408 3.857145 -1.461171 C 3.860057 -1.994821 4.069628 -2.431669 4.484636 -2.768006 C 4.753105 -2.983965 5.066287 -3.135859 5.42174 -3.216268 C 5.787056 -3.301656 6.285949 -3.343081 6.908555 -3.335566 L 7.125923 -3.346275 L 7.128177 -4.05286 C 7.127238 -4.949665 6.785828 -5.399242 6.105216 -5.392948 C 5.786492 -5.399148 5.50647 -5.298026 5.26637 -5.093293 C 5.128472 -4.974182 5.036744 -4.732955 4.997338 -4.375811 L 4.992829 -4.262149 L 4.301085 -4.259519 L 4.302025 -5.311976 C 5.009878 -5.625956 5.673863 -5.781655 6.29647 -5.77414 C 6.822698 -5.77367 7.260439 -5.654278 7.60725 -5.408542 C 7.817854 -5.248757 7.959321 -5.078827 8.02921 -4.891331 C 8.106519 -4.701393 8.145831 -4.433488 8.145878 -4.096258 L 8.150575 -1.561495 C 8.142402 -1.111824 8.179413 -0.799441 8.252965 -0.623076 C 8.332716 -0.440559 8.476344 -0.352165 8.673985 -0.352917 C 8.746879 -0.349488 8.841942 -0.363438 8.950532 -0.393497 L 8.986603 -0.00328775 C 8.733728 0.0903193 8.512791 0.136864 8.31515 0.137616 C 7.809916 0.135831 7.486355 -0.168051 7.348175 -0.77281 Z M 7.125359 -0.89549 L 7.132123 -3.015245 L 6.885071 -3.014306 C 6.281017 -3.015715 5.808379 -2.891626 5.463447 -2.64326 C 5.120957 -2.402314 4.950558 -2.059495 4.958448 -1.608651 C 4.949806 -1.282505 5.045949 -1.012346 5.253031 -0.804372 C 5.466312 -0.590246 5.73107 -0.482548 6.049794 -0.476348 C 6.353677 -0.475033 6.711384 -0.612274 7.125359 -0.89549 Z M 9.961469 0.058475 L 9.959778 -6.883756 L 9.928216 -7.387628 C 9.920043 -7.587711 9.888669 -7.717296 9.842734 -7.777649 C 9.795578 -7.834293 9.66698 -7.868391 9.447077 -7.874967 L 9.110974 -7.903336 L 9.012154 -7.90296 L 9.005954 -8.23399 L 10.997205 -8.23662 L 10.996266 -4.585147 C 11.508357 -5.378905 12.170181 -5.777944 12.983008 -5.773623 C 13.626609 -5.767423 14.138982 -5.512435 14.522616 -5.003725 C 14.904981 -4.503658 15.095295 -3.832393 15.093558 -2.98993 C 15.087264 -2.046157 14.867783 -1.291805 14.430183 -0.724386 C 13.998783 -0.150814 13.426714 0.137945 12.713976 0.14189 C 12.043227 0.143205 11.471534 -0.11897 10.996454 -0.637214 L 10.932202 -0.64191 L 10.8114 0.0750077 Z M 10.999835 -1.047337 C 11.532545 -0.641722 12.053372 -0.437412 12.558606 -0.435627 C 13.030446 -0.444833 13.386697 -0.640126 13.62365 -1.022726 C 13.859335 -1.413969 13.979479 -1.978946 13.982861 -2.713946 C 13.982297 -3.511931 13.868823 -4.116783 13.639995 -4.521083 C 13.411167 -4.925383 13.065765 -5.125419 12.60501 -5.124902 C 12.318412 -5.128754 12.029654 -5.051069 11.736292 -4.884427 C 11.450351 -4.715342 11.200435 -4.493278 10.992696 -4.224434 Z M 20.777613 -0.243294 C 20.125088 0.00253626 19.523993 0.129584 18.975548 0.13414 C 18.155301 0.127377 17.478541 -0.152927 16.95142 -0.712973 C 16.430499 -1.266865 16.172034 -1.993459 16.172316 -2.893974 C 16.177765 -3.735216 16.409833 -4.427852 16.871011 -4.966949 C 17.335899 -5.504826 17.926567 -5.775126 18.651658 -5.779118 C 19.328606 -5.774281 19.850748 -5.548976 20.220574 -5.098272 C 20.59782 -4.645125 20.783108 -3.996076 20.78137 -3.153613 L 20.776861 -3.03995 L 17.32303 -3.041641 C 17.32101 -2.273293 17.425749 -1.691878 17.636024 -1.293684 C 17.964423 -0.692119 18.467074 -0.395094 19.151396 -0.400167 C 19.783866 -0.39763 20.326909 -0.523222 20.770662 -0.771964 Z M 17.331672 -3.367786 L 19.668795 -3.371732 L 19.677812 -3.599056 C 19.678752 -4.001759 19.655362 -4.305547 19.615063 -4.507979 C 19.580965 -4.704258 19.511123 -4.879401 19.410471 -5.035898 C 19.21546 -5.318034 18.94934 -5.459079 18.613332 -5.462743 C 18.21805 -5.46124 17.900077 -5.269798 17.666835 -4.885977 C 17.443456 -4.507134 17.330498 -4.001477 17.331672 -3.367786 Z M 23.505555 -8.244651 L 23.507058 -1.35183 C 23.510628 -1.06279 23.53012 -0.809633 23.569244 -0.591138 C 23.594278 -0.504764 23.629081 -0.448074 23.678585 -0.423557 C 23.734289 -0.392886 23.846777 -0.372315 24.01976 -0.36062 L 24.355862 -0.332251 L 24.469525 -0.327742 L 24.475724 0.00328775 L 21.501153 -0.00516647 L 21.494954 -0.336196 L 21.608616 -0.331687 L 21.964257 -0.362686 C 22.153209 -0.374522 22.275372 -0.408339 22.324595 -0.457937 C 22.381238 -0.505093 22.417826 -0.628759 22.431869 -0.833868 L 22.469444 -1.347885 L 22.463244 -6.876946 L 22.436566 -7.39566 C 22.42473 -7.584611 22.392134 -7.710485 22.3462 -7.770839 C 22.291623 -7.829925 22.160536 -7.868955 21.955427 -7.882998 L 21.619325 -7.911367 L 21.505662 -7.915876 L 21.499462 -8.246906 Z M 31.656224 -0.035132 C 31.397243 0.0770274 31.155358 0.13724 30.925591 0.135643 C 30.398142 0.138884 29.971438 -0.00154994 29.649192 -0.284438 C 29.473156 -0.449295 29.353858 -0.636603 29.291296 -0.846362 C 29.227514 -1.05241 29.196703 -1.35864 29.198863 -1.765054 L 29.190597 -5.238612 L 28.365465 -5.230533 L 28.373731 -5.655499 L 29.198863 -5.663577 L 29.194918 -6.701192 L 30.226709 -6.937347 L 30.231594 -5.652681 L 31.812721 -5.658693 L 31.804455 -5.233727 L 30.223327 -5.227715 L 30.2222 -1.625653 C 30.224079 -1.131551 30.269779 -0.808083 30.364231 -0.657738 C 30.487475 -0.407447 30.721422 -0.281103 31.062362 -0.279929 C 31.226656 -0.279318 31.427772 -0.340611 31.66449 -0.460098 Z M 37.201818 -0.241509 C 36.549293 0.00432104 35.948198 0.131369 35.399754 0.135925 C 34.579506 0.129162 33.902746 -0.151143 33.375625 -0.711188 C 32.854704 -1.26508 32.59624 -1.991674 32.596521 -2.892189 C 32.60197 -3.733431 32.834038 -4.426067 33.295216 -4.965165 C 33.760104 -5.503041 34.350772 -5.773341 35.075863 -5.777334 C 35.752811 -5.772496 36.274953 -5.547191 36.644779 -5.096487 C 37.022025 -4.643341 37.207313 -3.994291 37.205575 -3.151828 L 37.201066 -3.038166 L 33.747235 -3.039856 C 33.745215 -2.271509 33.849954 -1.690093 34.060229 -1.291899 C 34.388629 -0.690334 34.891279 -0.393309 35.575601 -0.398382 C 36.208071 -0.395845 36.751114 -0.521438 37.194867 -0.77018 Z M 33.755877 -3.366002 L 36.093 -3.369947 L 36.102018 -3.597271 C 36.102957 -3.999974 36.079567 -4.303763 36.039268 -4.506194 C 36.00517 -4.702473 35.935329 -4.877616 35.834676 -5.034114 C 35.639666 -5.31625 35.373545 -5.457294 35.037537 -5.460958 C 34.642255 -5.459455 34.324283 -5.268014 34.09104 -4.884192 C 33.867661 -4.505349 33.754703 -3.999692 33.755877 -3.366002 Z M 37.758622 0.00342865 L 37.752423 -0.327601 L 37.851243 -0.327977 C 38.040195 -0.339813 38.233656 -0.465311 38.432894 -0.695829 L 39.008532 -1.345302 L 40.174275 -2.738182 L 38.992375 -4.295074 L 38.490946 -4.920686 C 38.348257 -5.086905 38.242861 -5.191503 38.168558 -5.240631 C 38.096744 -5.284828 37.980499 -5.318974 37.822311 -5.338137 L 37.728375 -5.352603 L 37.732133 -5.663906 L 40.29658 -5.658834 L 40.292822 -5.34753 L 40.194002 -5.347155 L 39.976635 -5.336446 C 39.734515 -5.337996 39.617377 -5.281963 39.626442 -5.172058 C 39.616766 -5.117669 39.811824 -4.823181 40.207904 -4.289813 L 41.017443 -3.200909 L 41.808946 -4.256372 C 41.901003 -4.411131 42.005319 -4.590643 42.118183 -4.796127 C 42.24091 -5.00659 42.299714 -5.135282 42.294594 -5.182203 C 42.294219 -5.281024 42.200142 -5.332548 42.017296 -5.339264 L 41.82454 -5.353354 L 41.705993 -5.343021 L 41.70975 -5.654325 L 43.518202 -5.651319 L 43.514445 -5.340015 L 43.41074 -5.324798 C 43.274908 -5.311929 43.157676 -5.280601 43.065244 -5.224662 C 42.971543 -5.177366 42.876808 -5.076948 42.784751 -4.922189 C 42.610219 -4.691764 42.443013 -4.483603 42.283134 -4.297704 L 41.230865 -2.949725 L 42.447522 -1.348495 C 42.747929 -0.961762 42.978682 -0.700761 43.142271 -0.560562 C 43.300929 -0.417873 43.458083 -0.34559 43.612514 -0.340001 L 43.706449 -0.325535 L 43.712649 0.00549524 L 41.13336 -0.00446195 L 41.12716 -0.335492 L 41.225981 -0.335867 L 41.453305 -0.32685 C 41.705288 -0.330278 41.834826 -0.374005 41.843139 -0.461741 C 41.83445 -0.472826 41.815804 -0.503637 41.788468 -0.545532 C 41.757422 -0.588649 41.712709 -0.652713 41.654328 -0.737725 C 41.527515 -0.95218 41.397038 -1.155504 41.261676 -1.343986 L 40.372856 -2.491882 L 39.487793 -1.352065 L 39.212561 -0.965613 L 38.942213 -0.594003 C 38.911543 -0.538299 38.8944 -0.498705 38.888294 -0.480153 C 38.88867 -0.381332 39.012384 -0.332392 39.269298 -0.33831 L 39.466939 -0.339061 L 39.595443 -0.329668 L 39.601643 0.00136207 Z M 47.434386 -0.032126 C 47.175405 0.0800333 46.93352 0.140246 46.703753 0.138649 C 46.176303 0.14189 45.7496 0.001456 45.427353 -0.281432 C 45.251318 -0.446289 45.132019 -0.633597 45.069458 -0.843356 C 45.005676 -1.049404 44.974865 -1.355635 44.977025 -1.762048 L 44.968759 -5.235606 L 44.143627 -5.227527 L 44.151893 -5.652493 L 44.977025 -5.660571 L 44.97308 -6.698186 L 46.004871 -6.934341 L 46.009755 -5.649675 L 47.590883 -5.655687 L 47.582616 -5.230721 L 46.001489 -5.224709 L 46.000362 -1.622647 C 46.00224 -1.128545 46.04794 -0.805077 46.142393 -0.654733 C 46.265636 -0.404441 46.499584 -0.278097 46.840524 -0.276923 C 47.004817 -0.276312 47.205934 -0.337605 47.442652 -0.457092 Z M 47.434386 -0.032126 " transform="matrix(0.949879,-0.312618,0.312618,0.949879,96,204)"/>
<path style=" stroke:none;fill-rule:nonzero;fill:rgb(0%,0%,0%);fill-opacity:1;" d="M 95.5 195.484375 L 97.65625 202.03125 C 97.75 202.304688 97.847656 202.539062 97.953125 202.734375 C 98.003906 202.808594 98.054688 202.851562 98.109375 202.859375 C 98.171875 202.871094 98.285156 202.855469 98.453125 202.8125 L 98.78125 202.734375 L 98.890625 202.703125 L 99 203.015625 L 96.171875 203.9375 L 96.0625 203.625 L 96.171875 203.59375 L 96.5 203.453125 C 96.675781 203.382812 96.78125 203.3125 96.8125 203.25 C 96.851562 203.1875 96.847656 203.058594 96.796875 202.859375 L 96.671875 202.359375 L 94.9375 197.109375 L 94.75 196.625 C 94.679688 196.449219 94.609375 196.339844 94.546875 196.296875 C 94.476562 196.257812 94.339844 196.261719 94.140625 196.3125 L 93.8125 196.390625 L 93.703125 196.421875 L 93.59375 196.109375 Z M 102.738281 200.96875 C 102.527344 201.398438 102.316406 201.714844 102.097656 201.921875 C 101.886719 202.132812 101.628906 202.289062 101.316406 202.390625 C 100.855469 202.539062 100.425781 202.523438 100.019531 202.34375 C 99.613281 202.15625 99.339844 201.84375 99.207031 201.40625 C 99.042969 200.898438 99.105469 200.417969 99.394531 199.96875 C 99.582031 199.679688 99.832031 199.4375 100.144531 199.25 C 100.464844 199.054688 100.925781 198.859375 101.519531 198.671875 L 101.722656 198.59375 L 101.503906 197.921875 C 101.222656 197.070312 100.757812 196.75 100.113281 196.96875 C 99.808594 197.0625 99.574219 197.246094 99.410156 197.515625 C 99.316406 197.671875 99.304688 197.929688 99.378906 198.28125 L 99.410156 198.390625 L 98.753906 198.609375 L 98.425781 197.609375 C 99 197.089844 99.582031 196.734375 100.175781 196.546875 C 100.675781 196.382812 101.128906 196.359375 101.535156 196.484375 C 101.785156 196.570312 101.972656 196.6875 102.097656 196.84375 C 102.230469 197 102.351562 197.242188 102.457031 197.5625 L 103.253906 199.96875 C 103.386719 200.398438 103.519531 200.683594 103.644531 200.828125 C 103.777344 200.976562 103.941406 201.015625 104.128906 200.953125 C 104.199219 200.933594 104.285156 200.890625 104.378906 200.828125 L 104.535156 201.1875 C 104.324219 201.355469 104.128906 201.46875 103.941406 201.53125 C 103.460938 201.6875 103.058594 201.5 102.738281 200.96875 Z M 102.488281 200.921875 L 101.832031 198.90625 L 101.597656 198.984375 C 101.023438 199.171875 100.613281 199.4375 100.363281 199.78125 C 100.113281 200.117188 100.058594 200.496094 100.207031 200.921875 C 100.300781 201.234375 100.476562 201.460938 100.738281 201.59375 C 101.007812 201.730469 101.292969 201.75 101.597656 201.65625 C 101.886719 201.5625 102.183594 201.320312 102.488281 200.921875 Z M 105.480469 200.941406 L 103.308594 194.347656 L 103.121094 193.878906 C 103.050781 193.691406 102.980469 193.578125 102.917969 193.535156 C 102.855469 193.496094 102.722656 193.503906 102.511719 193.566406 L 102.183594 193.644531 L 102.089844 193.675781 L 101.980469 193.363281 L 103.871094 192.738281 L 105.011719 196.207031 C 105.25 195.292969 105.753906 194.707031 106.527344 194.457031 C 107.140625 194.261719 107.707031 194.34375 108.230469 194.707031 C 108.75 195.0625 109.140625 195.640625 109.402344 196.441406 C 109.691406 197.339844 109.71875 198.125 109.480469 198.800781 C 109.25 199.480469 108.796875 199.933594 108.121094 200.160156 C 107.484375 200.371094 106.859375 200.300781 106.246094 199.957031 L 106.183594 199.972656 L 106.292969 200.691406 Z M 106.121094 199.566406 C 106.753906 199.785156 107.3125 199.816406 107.792969 199.660156 C 108.238281 199.503906 108.515625 199.207031 108.621094 198.769531 C 108.722656 198.324219 108.660156 197.75 108.433594 197.050781 C 108.183594 196.292969 107.886719 195.753906 107.542969 195.441406 C 107.199219 195.128906 106.808594 195.046875 106.371094 195.191406 C 106.097656 195.277344 105.847656 195.441406 105.621094 195.691406 C 105.402344 195.941406 105.234375 196.230469 105.121094 196.550781 Z M 115.660156 197.273438 C 115.117188 197.710938 114.585938 198.019531 114.066406 198.195312 C 113.285156 198.445312 112.554688 198.390625 111.878906 198.023438 C 111.210938 197.660156 110.738281 197.050781 110.457031 196.195312 C 110.199219 195.394531 110.203125 194.664062 110.472656 194.007812 C 110.746094 193.351562 111.222656 192.910156 111.910156 192.679688 C 112.554688 192.472656 113.121094 192.523438 113.613281 192.835938 C 114.113281 193.148438 114.492188 193.707031 114.753906 194.507812 L 114.785156 194.617188 L 111.503906 195.695312 C 111.742188 196.425781 112.023438 196.945312 112.347656 197.257812 C 112.847656 197.726562 113.417969 197.851562 114.066406 197.632812 C 114.667969 197.4375 115.144531 197.148438 115.488281 196.773438 Z M 111.410156 195.382812 L 113.628906 194.648438 L 113.566406 194.429688 C 113.441406 194.046875 113.324219 193.765625 113.222656 193.585938 C 113.128906 193.410156 113.007812 193.265625 112.863281 193.148438 C 112.589844 192.941406 112.292969 192.890625 111.972656 192.992188 C 111.597656 193.117188 111.355469 193.398438 111.253906 193.835938 C 111.160156 194.265625 111.210938 194.78125 111.410156 195.382812 Z M 115.75 188.820312 L 117.90625 195.367188 C 118 195.640625 118.097656 195.875 118.203125 196.070312 C 118.253906 196.144531 118.304688 196.1875 118.359375 196.195312 C 118.421875 196.207031 118.535156 196.191406 118.703125 196.148438 L 119.03125 196.070312 L 119.140625 196.039062 L 119.25 196.351562 L 116.421875 197.273438 L 116.3125 196.960938 L 116.421875 196.929688 L 116.75 196.789062 C 116.925781 196.71875 117.03125 196.648438 117.0625 196.585938 C 117.101562 196.523438 117.097656 196.394531 117.046875 196.195312 L 116.921875 195.695312 L 115.1875 190.445312 L 115 189.960938 C 114.929688 189.785156 114.859375 189.675781 114.796875 189.632812 C 114.726562 189.59375 114.589844 189.597656 114.390625 189.648438 L 114.0625 189.726562 L 113.953125 189.757812 L 113.84375 189.445312 Z M 126.058594 194.070312 C 125.847656 194.257812 125.636719 194.390625 125.417969 194.460938 C 124.917969 194.628906 124.46875 194.628906 124.074219 194.460938 C 123.855469 194.359375 123.683594 194.21875 123.558594 194.039062 C 123.433594 193.863281 123.308594 193.582031 123.183594 193.195312 L 122.089844 189.898438 L 121.308594 190.164062 L 121.183594 189.757812 L 121.964844 189.492188 L 121.636719 188.507812 L 122.542969 187.960938 L 122.949219 189.179688 L 124.449219 188.679688 L 124.574219 189.085938 L 123.074219 189.585938 L 124.199219 193.007812 C 124.355469 193.476562 124.5 193.769531 124.636719 193.882812 C 124.832031 194.082031 125.09375 194.128906 125.417969 194.023438 C 125.574219 193.972656 125.746094 193.851562 125.933594 193.664062 Z M 131.261719 192.140625 C 130.71875 192.578125 130.1875 192.886719 129.667969 193.0625 C 128.886719 193.3125 128.15625 193.257812 127.480469 192.890625 C 126.8125 192.527344 126.339844 191.917969 126.058594 191.0625 C 125.800781 190.261719 125.804688 189.53125 126.074219 188.875 C 126.347656 188.21875 126.824219 187.777344 127.511719 187.546875 C 128.15625 187.339844 128.722656 187.390625 129.214844 187.703125 C 129.714844 188.015625 130.09375 188.574219 130.355469 189.375 L 130.386719 189.484375 L 127.105469 190.5625 C 127.34375 191.292969 127.625 191.8125 127.949219 192.125 C 128.449219 192.59375 129.019531 192.71875 129.667969 192.5 C 130.269531 192.304688 130.746094 192.015625 131.089844 191.640625 Z M 127.011719 190.25 L 129.230469 189.515625 L 129.167969 189.296875 C 129.042969 188.914062 128.925781 188.632812 128.824219 188.453125 C 128.730469 188.277344 128.609375 188.132812 128.464844 188.015625 C 128.191406 187.808594 127.894531 187.757812 127.574219 187.859375 C 127.199219 187.984375 126.957031 188.265625 126.855469 188.703125 C 126.761719 189.132812 126.8125 189.648438 127.011719 190.25 Z M 131.867188 192.199219 L 131.757812 191.886719 L 131.851562 191.855469 C 132.027344 191.785156 132.171875 191.605469 132.289062 191.324219 L 132.632812 190.527344 L 133.304688 188.839844 L 131.695312 187.730469 L 131.023438 187.292969 C 130.835938 187.179688 130.703125 187.113281 130.617188 187.089844 C 130.535156 187.070312 130.414062 187.074219 130.257812 187.105469 L 130.164062 187.121094 L 130.070312 186.824219 L 132.507812 186.027344 L 132.601562 186.324219 L 132.507812 186.355469 L 132.304688 186.433594 C 132.074219 186.507812 131.980469 186.597656 132.023438 186.699219 C 132.03125 186.753906 132.308594 186.972656 132.851562 187.355469 L 133.960938 188.136719 L 134.382812 186.886719 C 134.421875 186.710938 134.464844 186.507812 134.507812 186.277344 C 134.558594 186.039062 134.574219 185.898438 134.554688 185.855469 C 134.523438 185.761719 134.417969 185.742188 134.242188 185.792969 L 134.054688 185.839844 L 133.945312 185.886719 L 133.851562 185.589844 L 135.570312 185.027344 L 135.664062 185.324219 L 135.570312 185.371094 C 135.445312 185.425781 135.34375 185.492188 135.273438 185.574219 C 135.199219 185.648438 135.140625 185.773438 135.101562 185.949219 C 135.007812 186.222656 134.914062 186.472656 134.820312 186.699219 L 134.242188 188.308594 L 135.898438 189.449219 C 136.304688 189.722656 136.605469 189.898438 136.804688 189.980469 C 137 190.066406 137.171875 190.085938 137.320312 190.042969 L 137.414062 190.027344 L 137.523438 190.339844 L 135.070312 191.136719 L 134.960938 190.824219 L 135.054688 190.792969 L 135.273438 190.730469 C 135.511719 190.648438 135.621094 190.566406 135.601562 190.480469 C 135.589844 190.472656 135.5625 190.449219 135.523438 190.417969 C 135.480469 190.386719 135.417969 190.339844 135.335938 190.277344 C 135.148438 190.113281 134.960938 189.960938 134.773438 189.824219 L 133.570312 189.011719 L 133.085938 190.371094 L 132.945312 190.824219 L 132.804688 191.261719 C 132.792969 191.324219 132.789062 191.367188 132.789062 191.386719 C 132.820312 191.480469 132.953125 191.488281 133.195312 191.402344 L 133.382812 191.339844 L 133.507812 191.308594 L 133.617188 191.621094 Z M 141.046875 189.140625 C 140.835938 189.328125 140.625 189.460938 140.40625 189.53125 C 139.90625 189.699219 139.457031 189.699219 139.0625 189.53125 C 138.84375 189.429688 138.671875 189.289062 138.546875 189.109375 C 138.421875 188.933594 138.296875 188.652344 138.171875 188.265625 L 137.078125 184.96875 L 136.296875 185.234375 L 136.171875 184.828125 L 136.953125 184.5625 L 136.625 183.578125 L 137.53125 183.03125 L 137.9375 184.25 L 139.4375 183.75 L 139.5625 184.15625 L 138.0625 184.65625 L 139.1875 188.078125 C 139.34375 188.546875 139.488281 188.839844 139.625 188.953125 C 139.820312 189.152344 140.082031 189.199219 140.40625 189.09375 C 140.5625 189.042969 140.734375 188.921875 140.921875 188.734375 Z M 141.046875 189.140625 "/>
</g>
</svg>
