<?xml version="1.0" encoding="UTF-8"?>
<svg xmlns="http://www.w3.org/2000/svg" xmlns:xlink="http://www.w3.org/1999/xlink" width="400pt" height="300pt" viewBox="0 0 400 300" version="1.1">
<g id="surface2">
<rect x="0" y="0" width="400" height="300" style="fill:rgb(100%,100%,100%);fill-opacity:1;stroke:none;"/>
<path style="fill:none;stroke-width:5;stroke-linecap:round;stroke-linejoin:round;stroke:rgb(0%,0%,100%);stroke-opacity:1;stroke-miterlimit:10;" d="M 161.984375 109.878906 L 138.140625 85.335938 L 23.84375 97.960938 L 0 184.210938 L 62.410156 210.859375 L 173.203125 174.394531 L 166.894531 121.101562 "/>
<path style="fill:none;stroke-width:5;stroke-linecap:round;stroke-linejoin:round;stroke:rgb(0%,0%,100%);stroke-opacity:1;stroke-miterlimit:10;" d="M 231.40625 130.214844 L 261.558594 147.046875 L 275.582031 165.277344 L 291.710938 183.507812 L 312.75 187.71875 L 328.175781 201.039062 L 331.683594 203.84375 L 381.46875 213.664062 L 384.976562 188.417969 L 399 167.382812 "/>
<path style="fill:none;stroke-width:5;stroke-linecap:round;stroke-linejoin:round;stroke:rgb(0%,0%,100%);stroke-opacity:1;stroke-miterlimit:10;" d="M 37.777344 178.996094 L 125.929688 115.367188 L 145.8125 127.296875 "/>
<path style="fill:none;stroke-width:3;stroke-linecap:round;stroke-linejoin:round;stroke:rgb(100%,100%,100%);stroke-opacity:1;stroke-miterlimit:10;" d="M 161.984375 109.878906 L 138.140625 85.335938 L 23.84375 97.960938 L 0 184.210938 L 62.410156 210.859375 L 173.203125 174.394531 L 166.894531 121.101562 "/>
<path style="fill:none;stroke-width:3;stroke-linecap:round;stroke-linejoin:round;stroke:rgb(100%,100%,100%);stroke-opacity:1;stroke-miterlimit:10;" d="M 231.40625 130.214844 L 261.558594 147.046875 L 275.582031 165.277344 L 291.710938 183.507812 L 312.75 187.71875 L 328.175781 201.039062 L 331.683594 203.84375 L 381.46875 213.664062 L 384.976562 188.417969 L 399 167.382812 "/>
<path style="fill:none;stroke-width:3;stroke-linecap:round;stroke-linejoin:round;stroke:rgb(100%,100%,100%);stroke-opacity:1;stroke-miterlimit:10;" d="M 37.777344 178.996094 L 125.929688 115.367188 L 145.8125 127.296875 "/>
<path style="fill:none;stroke-width:4;stroke-linecap:round;stroke-linejoin:round;stroke:rgb(100%,100%,100%);stroke-opacity:1;stroke-miterlimit:10;" d="M 2.19685 -8.222805 L 2.200851 -1.340477 C 2.192659 -1.062156 2.210496 -0.813221 2.255244 -0.588221 C 2.25984 -0.507823 2.291347 -0.451358 2.348883 -0.424281 C 2.410468 -0.389464 2.53116 -0.369793 2.706388 -0.358934 L 3.047699 -0.324546 L 3.160294 -0.320354 L 3.156865 0.00476292 L 0.190707 0.0027625 L 0.194137 -0.322355 L 0.294063 -0.327308 L 0.646614 -0.361887 C 0.839608 -0.362292 0.963277 -0.393465 1.023076 -0.456288 C 1.086923 -0.511371 1.119787 -0.636993 1.119382 -0.829987 L 1.160057 -1.340191 L 1.149389 -6.878422 L 1.121097 -7.399867 C 1.120692 -7.592861 1.092686 -7.714244 1.039365 -7.767184 C 0.977423 -7.821529 0.845466 -7.858965 0.640327 -7.88178 L 0.289871 -7.903499 L 0.189945 -7.898545 L 0.193375 -8.223662 Z M 2.19685 -8.222805 " transform="matrix(0.81084,-0.585268,0.585268,0.81084,73,170)"/>
<path style="fill:none;stroke-width:4;stroke-linecap:round;stroke-linejoin:round;stroke:rgb(100%,100%,100%);stroke-opacity:1;stroke-miterlimit:10;" d="M 4.014477 -0.782929 C 3.673095 -0.436784 3.36722 -0.1999 3.099139 -0.0754447 C 2.835106 0.0567502 2.54009 0.118406 2.211806 0.112691 C 1.733632 0.114405 1.332475 -0.0306256 1.00974 -0.331023 C 0.684718 -0.628253 0.520826 -1.001881 0.514015 -1.459645 C 0.516682 -1.997284 0.725917 -2.433996 1.139958 -2.78069 C 1.410301 -2.995045 1.725702 -3.138337 2.088446 -3.213734 C 2.446261 -3.302325 2.937795 -3.342572 3.56762 -3.340809 L 3.789286 -3.354241 L 3.776426 -4.057248 C 3.777236 -4.952725 3.447951 -5.397558 2.776784 -5.395439 C 2.441641 -5.391652 2.155961 -5.289535 1.919744 -5.089088 C 1.773403 -4.97311 1.685503 -4.73787 1.654639 -4.374744 L 1.628634 -4.258624 L 0.943916 -4.271103 L 0.952775 -5.324567 C 1.664499 -5.629822 2.327355 -5.787284 2.947678 -5.792381 C 3.478458 -5.780212 3.918314 -5.655423 4.260911 -5.422587 C 4.46574 -5.245835 4.606532 -5.067131 4.683287 -4.886473 C 4.754588 -4.704934 4.794596 -4.439997 4.801026 -4.088493 L 4.793977 -1.569193 C 4.797621 -1.113714 4.83782 -0.795646 4.914574 -0.614989 C 4.985875 -0.43345 5.125762 -0.346931 5.325614 -0.356838 C 5.399154 -0.351932 5.489578 -0.363744 5.600054 -0.389988 L 5.641682 0.0061918 C 5.391533 0.0857802 5.171105 0.124193 4.978112 0.124598 C 4.477243 0.124384 4.156793 -0.179181 4.014477 -0.782929 Z M 3.784333 -0.891238 L 3.776712 -3.016454 L 3.520562 -3.008643 C 2.913432 -3.008476 2.446904 -2.882735 2.114642 -2.635992 C 1.780095 -2.386081 1.614464 -2.043151 1.620918 -1.604914 C 1.612916 -1.273463 1.71239 -1.004143 1.92022 -0.791502 C 2.129455 -0.587483 2.397774 -0.485342 2.719724 -0.484199 C 3.025313 -0.480412 3.378365 -0.615798 3.784333 -0.891238 Z M 3.784333 -0.891238 " transform="matrix(0.81084,-0.585268,0.585268,0.81084,76,168)"/>
<path style="fill:none;stroke-width:4;stroke-linecap:round;stroke-linejoin:round;stroke:rgb(100%,100%,100%);stroke-opacity:1;stroke-miterlimit:10;" d="M 0.826177 0.056774 L 0.824271 -6.881852 L 0.79598 -7.403297 C 0.788716 -7.586788 0.758424 -7.705004 0.705103 -7.757944 C 0.65002 -7.821791 0.520349 -7.862395 0.31521 -7.885209 L -0.0352456 -7.906928 L -0.122502 -7.89283 L -0.119073 -8.217947 L 1.859064 -8.235379 L 1.85373 -4.597173 C 2.361243 -5.387056 3.018931 -5.784308 3.832248 -5.789809 C 4.482482 -5.78295 4.996615 -5.527467 5.377816 -5.021073 C 5.755849 -4.516965 5.951843 -3.840749 5.96175 -3.000165 C 5.955678 -2.050676 5.736678 -1.293419 5.30018 -0.722059 C 4.865087 -0.15932 4.289703 0.123907 3.568572 0.128504 C 2.901977 0.124288 2.331546 -0.13329 1.854111 -0.646519 L 1.788668 -0.635945 L 1.676263 0.0537258 Z M 1.856111 -1.049748 C 2.406705 -0.637874 2.932436 -0.43183 3.433305 -0.431616 C 3.901977 -0.440189 4.247622 -0.638732 4.478862 -1.025838 C 4.721009 -1.414707 4.839606 -1.979471 4.832366 -2.716962 C 4.836367 -3.52342 4.7222 -4.12612 4.496199 -4.52049 C 4.271603 -4.923481 3.931126 -5.125881 3.469313 -5.12681 C 3.1873 -5.123214 2.901263 -5.040625 2.614368 -4.876757 C 2.318853 -4.714293 2.067156 -4.505749 1.853825 -4.250242 Z M 1.856111 -1.049748 " transform="matrix(0.81084,-0.585268,0.585268,0.81084,80,164)"/>
<path style="fill:none;stroke-width:4;stroke-linecap:round;stroke-linejoin:round;stroke:rgb(100%,100%,100%);stroke-opacity:1;stroke-miterlimit:10;" d="M 5.108901 -0.243481 C 4.459263 -0.00421519 3.863778 0.119978 3.321567 0.123645 C 2.498748 0.122288 1.824866 -0.152152 1.296753 -0.70196 C 0.773213 -1.258102 0.516158 -1.98321 0.519254 -2.881854 C 0.516206 -3.73194 0.745778 -4.423755 1.212545 -4.963632 C 1.67069 -5.504915 2.261912 -5.776711 2.994831 -5.777616 C 3.665998 -5.779735 4.183466 -5.555568 4.548115 -5.099661 C 4.912764 -4.643754 5.098899 -3.993925 5.108806 -3.153341 L 5.104615 -3.040745 L 1.657116 -3.043317 C 1.652401 -2.275915 1.752136 -1.693267 1.960895 -1.301707 C 2.289346 -0.688862 2.796455 -0.390274 3.483983 -0.395037 C 4.108354 -0.392393 4.652994 -0.519563 5.111569 -0.781119 Z M 1.68236 -3.371959 L 4.010952 -3.367672 L 4.006666 -3.602008 C 4.004618 -4.012977 3.98659 -4.315041 3.949415 -4.510488 C 3.916289 -4.698195 3.852204 -4.869707 3.755755 -5.016405 C 3.550187 -5.318946 3.273938 -5.470169 2.931579 -5.476409 C 2.543305 -5.472431 2.241289 -5.280938 2.016907 -4.903334 C 1.795693 -4.523443 1.68236 -4.012691 1.68236 -3.371959 Z M 1.68236 -3.371959 " transform="matrix(0.81084,-0.585268,0.585268,0.81084,86,160)"/>
<path style="fill:none;stroke-width:4;stroke-linecap:round;stroke-linejoin:round;stroke:rgb(100%,100%,100%);stroke-opacity:1;stroke-miterlimit:10;" d="M 2.19685 -8.222805 L 2.200851 -1.340477 C 2.192659 -1.062156 2.210496 -0.813221 2.255244 -0.588221 C 2.25984 -0.507823 2.291347 -0.451358 2.348883 -0.424281 C 2.410468 -0.389464 2.53116 -0.369793 2.706388 -0.358934 L 3.047699 -0.324546 L 3.160294 -0.320354 L 3.156865 0.00476292 L 0.190707 0.0027625 L 0.194137 -0.322355 L 0.294063 -0.327308 L 0.646614 -0.361887 C 0.839608 -0.362292 0.963277 -0.393465 1.023076 -0.456288 C 1.086923 -0.511371 1.119787 -0.636993 1.119382 -0.829987 L 1.160057 -1.340191 L 1.149389 -6.878422 L 1.121097 -7.399867 C 1.120692 -7.592861 1.092686 -7.714244 1.039365 -7.767184 C 0.977423 -7.821529 0.845466 -7.858965 0.640327 -7.88178 L 0.289871 -7.903499 L 0.189945 -7.898545 L 0.193375 -8.223662 Z M 2.19685 -8.222805 " transform="matrix(0.81084,-0.585268,0.585268,0.81084,91,156)"/>
<path style="fill:none;stroke-width:4;stroke-linecap:round;stroke-linejoin:round;stroke:rgb(100%,100%,100%);stroke-opacity:1;stroke-miterlimit:10;" d="" transform="matrix(0.81084,-0.585268,0.585268,0.81084,94,154)"/>
<path style="fill:none;stroke-width:4;stroke-linecap:round;stroke-linejoin:round;stroke:rgb(100%,100%,100%);stroke-opacity:1;stroke-miterlimit:10;" d="M 3.756422 -0.0249577 C 3.494842 0.0704674 3.248027 0.11874 3.018264 0.116692 C 2.48696 0.118597 2.06487 -0.0174561 1.75428 -0.294634 C 1.576194 -0.461718 1.454049 -0.646233 1.384677 -0.850467 C 1.312138 -1.056988 1.276868 -1.361862 1.280274 -1.773712 L 1.279321 -5.243025 L 0.463718 -5.234357 L 0.462194 -5.6594 L 1.277797 -5.668069 L 1.281036 -6.687048 L 2.314018 -6.943484 L 2.318591 -5.668354 L 3.897023 -5.665973 L 3.898547 -5.24093 L 2.320115 -5.243311 L 2.311256 -1.626919 C 2.312447 -1.134671 2.35898 -0.812031 2.444522 -0.66357 C 2.580409 -0.411326 2.816364 -0.28437 3.154674 -0.285871 C 3.321805 -0.290491 3.525515 -0.345788 3.754898 -0.450001 Z M 3.756422 -0.0249577 " transform="matrix(0.81084,-0.585268,0.585268,0.81084,97,152)"/>
<path style="fill:none;stroke-width:4;stroke-linecap:round;stroke-linejoin:round;stroke:rgb(100%,100%,100%);stroke-opacity:1;stroke-miterlimit:10;" d="M 5.108901 -0.243481 C 4.459263 -0.00421519 3.863778 0.119978 3.321567 0.123645 C 2.498748 0.122288 1.824866 -0.152152 1.296753 -0.70196 C 0.773213 -1.258102 0.516158 -1.98321 0.519254 -2.881854 C 0.516206 -3.73194 0.745778 -4.423755 1.212545 -4.963632 C 1.67069 -5.504915 2.261912 -5.776711 2.994831 -5.777616 C 3.665998 -5.779735 4.183466 -5.555568 4.548115 -5.099661 C 4.912764 -4.643754 5.098899 -3.993925 5.108806 -3.153341 L 5.104615 -3.040745 L 1.657116 -3.043317 C 1.652401 -2.275915 1.752136 -1.693267 1.960895 -1.301707 C 2.289346 -0.688862 2.796455 -0.390274 3.483983 -0.395037 C 4.108354 -0.392393 4.652994 -0.519563 5.111569 -0.781119 Z M 1.68236 -3.371959 L 4.010952 -3.367672 L 4.006666 -3.602008 C 4.004618 -4.012977 3.98659 -4.315041 3.949415 -4.510488 C 3.916289 -4.698195 3.852204 -4.869707 3.755755 -5.016405 C 3.550187 -5.318946 3.273938 -5.470169 2.931579 -5.476409 C 2.543305 -5.472431 2.241289 -5.280938 2.016907 -4.903334 C 1.795693 -4.523443 1.68236 -4.012691 1.68236 -3.371959 Z M 1.68236 -3.371959 " transform="matrix(0.81084,-0.585268,0.585268,0.81084,101,150)"/>
<path style="fill:none;stroke-width:4;stroke-linecap:round;stroke-linejoin:round;stroke:rgb(100%,100%,100%);stroke-opacity:1;stroke-miterlimit:10;" d="M 0.0218142 -0.00352456 L 0.0252435 -0.328642 L 0.116025 -0.320926 C 0.296873 -0.34455 0.490009 -0.46529 0.693672 -0.694053 L 1.272653 -1.336 L 2.434806 -2.732489 L 1.252839 -4.298633 L 0.738253 -4.920575 C 0.600104 -5.08292 0.498916 -5.189681 0.429235 -5.239977 C 0.353218 -5.294846 0.233931 -5.323138 0.0682051 -5.327139 L -0.0225763 -5.334854 L -0.0191469 -5.659972 L 2.543782 -5.659972 L 2.540352 -5.334854 L 2.449571 -5.34257 L 2.227905 -5.329139 C 1.982662 -5.32309 1.85935 -5.272389 1.862017 -5.169295 C 1.87171 -5.109306 2.070061 -4.816791 2.462526 -4.292632 L 3.254505 -3.200684 L 4.057153 -4.259291 C 4.166891 -4.411324 4.27539 -4.588338 4.384937 -4.793501 C 4.505391 -5.000426 4.568691 -5.128167 4.5685 -5.181298 C 4.558974 -5.274889 4.458858 -5.323066 4.265864 -5.322661 L 4.084301 -5.338093 L 3.971706 -5.342285 L 3.975135 -5.667402 L 5.766089 -5.665782 L 5.76266 -5.340665 L 5.653589 -5.323042 C 5.517774 -5.315088 5.407298 -5.288845 5.320756 -5.23569 C 5.231047 -5.184822 5.131501 -5.073608 5.026693 -4.908382 C 4.866659 -4.686668 4.706268 -4.484482 4.544114 -4.293203 L 3.487507 -2.936151 L 4.707482 -1.342573 C 4.998044 -0.96423 5.227879 -0.701983 5.393819 -0.558119 C 5.557473 -0.411088 5.718294 -0.333547 5.879447 -0.323212 L 5.979373 -0.328165 L 5.975944 -0.00304827 L 3.391201 0.000476292 L 3.39463 -0.324641 L 3.494556 -0.329594 L 3.719747 -0.321212 C 3.962704 -0.324093 4.086897 -0.369341 4.08916 -0.459241 C 4.08423 -0.472434 4.071203 -0.501107 4.053247 -0.542973 C 4.020335 -0.590817 3.979327 -0.65414 3.9216 -0.734347 C 3.780094 -0.952108 3.646684 -1.15439 3.519609 -1.352098 L 2.620655 -2.482721 L 1.763139 -1.348098 L 1.46698 -0.964492 L 1.201781 -0.59708 C 1.171536 -0.54183 1.15589 -0.500131 1.153961 -0.477435 C 1.154342 -0.371175 1.277154 -0.321069 1.525564 -0.324831 L 1.738086 -0.325593 L 1.859826 -0.334071 L 1.856397 -0.00895429 Z M 0.0218142 -0.00352456 " transform="matrix(0.81084,-0.585268,0.585268,0.81084,106,146)"/>
<path style="fill:none;stroke-width:4;stroke-linecap:round;stroke-linejoin:round;stroke:rgb(100%,100%,100%);stroke-opacity:1;stroke-miterlimit:10;" d="M 3.756422 -0.0249577 C 3.494842 0.0704674 3.248027 0.11874 3.018264 0.116692 C 2.48696 0.118597 2.06487 -0.0174561 1.75428 -0.294634 C 1.576194 -0.461718 1.454049 -0.646233 1.384677 -0.850467 C 1.312138 -1.056988 1.276868 -1.361862 1.280274 -1.773712 L 1.279321 -5.243025 L 0.463718 -5.234357 L 0.462194 -5.6594 L 1.277797 -5.668069 L 1.281036 -6.687048 L 2.314018 -6.943484 L 2.318591 -5.668354 L 3.897023 -5.665973 L 3.898547 -5.24093 L 2.320115 -5.243311 L 2.311256 -1.626919 C 2.312447 -1.134671 2.35898 -0.812031 2.444522 -0.66357 C 2.580409 -0.411326 2.816364 -0.28437 3.154674 -0.285871 C 3.321805 -0.290491 3.525515 -0.345788 3.754898 -0.450001 Z M 3.756422 -0.0249577 " transform="matrix(0.81084,-0.585268,0.585268,0.81084,111,142)"/>
<path style=" stroke:none;fill-rule:nonzero;fill:rgb(0%,0%,0%);fill-opacity:1;" d="M 69.96875 162.046875 L 74 167.625 C 74.15625 167.855469 74.316406 168.046875 74.484375 168.203125 C 74.535156 168.265625 74.59375 168.292969 74.65625 168.28125 C 74.726562 168.273438 74.835938 168.21875 74.984375 168.125 L 75.28125 167.953125 L 75.375 167.890625 L 75.5625 168.15625 L 73.15625 169.890625 L 72.96875 169.625 L 73.046875 169.5625 L 73.3125 169.328125 C 73.46875 169.214844 73.550781 169.117188 73.5625 169.03125 C 73.582031 168.949219 73.535156 168.828125 73.421875 168.671875 L 73.15625 168.234375 L 69.90625 163.75 L 69.578125 163.34375 C 69.464844 163.1875 69.371094 163.105469 69.296875 163.09375 C 69.214844 163.085938 69.085938 163.132812 68.90625 163.234375 L 68.609375 163.421875 L 68.53125 163.484375 L 68.34375 163.21875 Z M 69.96875 162.046875 "/>
<path style=" stroke:none;fill-rule:nonzero;fill:rgb(0%,0%,0%);fill-opacity:1;" d="M 78.796875 165.015625 C 78.722656 165.496094 78.613281 165.867188 78.46875 166.125 C 78.332031 166.386719 78.128906 166.609375 77.859375 166.796875 C 77.472656 167.078125 77.0625 167.195312 76.625 167.140625 C 76.1875 167.089844 75.835938 166.882812 75.5625 166.515625 C 75.25 166.078125 75.164062 165.601562 75.296875 165.078125 C 75.390625 164.746094 75.5625 164.445312 75.8125 164.171875 C 76.050781 163.890625 76.425781 163.570312 76.9375 163.203125 L 77.109375 163.0625 L 76.6875 162.5 C 76.164062 161.773438 75.636719 161.605469 75.09375 162 C 74.824219 162.199219 74.652344 162.449219 74.578125 162.75 C 74.527344 162.929688 74.59375 163.171875 74.78125 163.484375 L 74.828125 163.59375 L 74.265625 163.984375 L 73.65625 163.125 C 74.054688 162.460938 74.5 161.945312 75 161.578125 C 75.4375 161.277344 75.867188 161.121094 76.28125 161.109375 C 76.550781 161.132812 76.769531 161.195312 76.9375 161.296875 C 77.101562 161.402344 77.289062 161.59375 77.5 161.875 L 78.96875 163.921875 C 79.238281 164.289062 79.457031 164.523438 79.625 164.625 C 79.789062 164.730469 79.953125 164.71875 80.109375 164.59375 C 80.171875 164.554688 80.238281 164.492188 80.3125 164.40625 L 80.578125 164.703125 C 80.421875 164.914062 80.265625 165.074219 80.109375 165.1875 C 79.703125 165.480469 79.265625 165.421875 78.796875 165.015625 Z M 78.546875 165.0625 L 77.296875 163.34375 L 77.09375 163.5 C 76.601562 163.855469 76.296875 164.230469 76.171875 164.625 C 76.046875 165.023438 76.113281 165.398438 76.375 165.75 C 76.5625 166.023438 76.800781 166.183594 77.09375 166.234375 C 77.382812 166.277344 77.660156 166.203125 77.921875 166.015625 C 78.171875 165.839844 78.378906 165.523438 78.546875 165.0625 Z M 78.546875 165.0625 "/>
<path style=" stroke:none;fill-rule:nonzero;fill:rgb(0%,0%,0%);fill-opacity:1;" d="M 80.703125 163.5625 L 76.640625 157.9375 L 76.3125 157.53125 C 76.199219 157.386719 76.105469 157.308594 76.03125 157.296875 C 75.949219 157.277344 75.820312 157.320312 75.640625 157.421875 L 75.34375 157.609375 L 75.28125 157.671875 L 75.09375 157.40625 L 76.6875 156.234375 L 78.8125 159.1875 C 78.761719 158.25 79.0625 157.542969 79.71875 157.0625 C 80.25 156.6875 80.816406 156.59375 81.421875 156.78125 C 82.023438 156.96875 82.578125 157.402344 83.078125 158.078125 C 83.628906 158.851562 83.894531 159.59375 83.875 160.3125 C 83.851562 161.023438 83.550781 161.589844 82.96875 162.015625 C 82.425781 162.402344 81.8125 162.527344 81.125 162.390625 L 81.078125 162.4375 L 81.390625 163.0625 Z M 80.890625 162.0625 C 81.578125 162.074219 82.125 161.933594 82.53125 161.640625 C 82.90625 161.359375 83.070312 160.996094 83.03125 160.546875 C 83 160.089844 82.765625 159.5625 82.328125 158.96875 C 81.859375 158.3125 81.414062 157.890625 81 157.703125 C 80.582031 157.507812 80.1875 157.542969 79.8125 157.8125 C 79.585938 157.980469 79.402344 158.214844 79.265625 158.515625 C 79.121094 158.820312 79.039062 159.136719 79.015625 159.46875 Z M 80.890625 162.0625 "/>
<path style=" stroke:none;fill-rule:nonzero;fill:rgb(0%,0%,0%);fill-opacity:1;" d="M 90 156.8125 C 89.613281 157.386719 89.203125 157.835938 88.765625 158.15625 C 88.097656 158.636719 87.390625 158.808594 86.640625 158.671875 C 85.890625 158.527344 85.257812 158.089844 84.734375 157.359375 C 84.234375 156.671875 84.015625 155.976562 84.078125 155.265625 C 84.132812 154.558594 84.453125 153.992188 85.046875 153.5625 C 85.589844 153.167969 86.140625 153.046875 86.703125 153.203125 C 87.265625 153.359375 87.796875 153.777344 88.296875 154.453125 L 88.359375 154.546875 L 85.5625 156.5625 C 86.007812 157.1875 86.429688 157.601562 86.828125 157.796875 C 87.453125 158.101562 88.039062 158.046875 88.59375 157.640625 C 89.101562 157.277344 89.46875 156.855469 89.6875 156.375 Z M 85.390625 156.28125 L 87.28125 154.921875 L 87.140625 154.734375 C 86.898438 154.402344 86.707031 154.167969 86.5625 154.03125 C 86.425781 153.898438 86.273438 153.796875 86.109375 153.734375 C 85.765625 153.609375 85.453125 153.648438 85.171875 153.84375 C 84.859375 154.074219 84.726562 154.40625 84.765625 154.84375 C 84.808594 155.28125 85.015625 155.761719 85.390625 156.28125 Z M 85.390625 156.28125 "/>
<path style=" stroke:none;fill-rule:nonzero;fill:rgb(0%,0%,0%);fill-opacity:1;" d="M 87.96875 148.046875 L 92 153.625 C 92.15625 153.855469 92.316406 154.046875 92.484375 154.203125 C 92.535156 154.265625 92.59375 154.292969 92.65625 154.28125 C 92.726562 154.273438 92.835938 154.21875 92.984375 154.125 L 93.28125 153.953125 L 93.375 153.890625 L 93.5625 154.15625 L 91.15625 155.890625 L 90.96875 155.625 L 91.046875 155.5625 L 91.3125 155.328125 C 91.46875 155.214844 91.550781 155.117188 91.5625 155.03125 C 91.582031 154.949219 91.535156 154.828125 91.421875 154.671875 L 91.15625 154.234375 L 87.90625 149.75 L 87.578125 149.34375 C 87.464844 149.1875 87.371094 149.105469 87.296875 149.09375 C 87.214844 149.085938 87.085938 149.132812 86.90625 149.234375 L 86.609375 149.421875 L 86.53125 149.484375 L 86.34375 149.21875 Z M 87.96875 148.046875 "/>
<path style=" stroke:none;fill-rule:nonzero;fill:rgb(0%,0%,0%);fill-opacity:1;" d="M 100.03125 149.78125 C 99.875 150.011719 99.703125 150.195312 99.515625 150.328125 C 99.085938 150.640625 98.664062 150.777344 98.25 150.734375 C 98.007812 150.703125 97.800781 150.625 97.625 150.5 C 97.445312 150.375 97.238281 150.148438 97 149.8125 L 94.96875 147 L 94.3125 147.484375 L 94.0625 147.140625 L 94.71875 146.65625 L 94.125 145.828125 L 94.8125 145.015625 L 95.5625 146.046875 L 96.84375 145.125 L 97.09375 145.46875 L 95.8125 146.390625 L 97.921875 149.328125 C 98.210938 149.726562 98.4375 149.960938 98.59375 150.03125 C 98.851562 150.15625 99.117188 150.121094 99.390625 149.921875 C 99.523438 149.820312 99.65625 149.65625 99.78125 149.4375 Z M 100.03125 149.78125 "/>
<path style=" stroke:none;fill-rule:nonzero;fill:rgb(0%,0%,0%);fill-opacity:1;" d="M 105 146.8125 C 104.613281 147.386719 104.203125 147.835938 103.765625 148.15625 C 103.097656 148.636719 102.390625 148.808594 101.640625 148.671875 C 100.890625 148.527344 100.257812 148.089844 99.734375 147.359375 C 99.234375 146.671875 99.015625 145.976562 99.078125 145.265625 C 99.132812 144.558594 99.453125 143.992188 100.046875 143.5625 C 100.589844 143.167969 101.140625 143.046875 101.703125 143.203125 C 102.265625 143.359375 102.796875 143.777344 103.296875 144.453125 L 103.359375 144.546875 L 100.5625 146.5625 C 101.007812 147.1875 101.429688 147.601562 101.828125 147.796875 C 102.453125 148.101562 103.039062 148.046875 103.59375 147.640625 C 104.101562 147.277344 104.46875 146.855469 104.6875 146.375 Z M 100.390625 146.28125 L 102.28125 144.921875 L 102.140625 144.734375 C 101.898438 144.402344 101.707031 144.167969 101.5625 144.03125 C 101.425781 143.898438 101.273438 143.796875 101.109375 143.734375 C 100.765625 143.609375 100.453125 143.648438 100.171875 143.84375 C 99.859375 144.074219 99.726562 144.40625 99.765625 144.84375 C 99.808594 145.28125 100.015625 145.761719 100.390625 146.28125 Z M 100.390625 146.28125 "/>
<path style=" stroke:none;fill-rule:nonzero;fill:rgb(0%,0%,0%);fill-opacity:1;" d="M 106.015625 145.984375 L 105.828125 145.71875 L 105.90625 145.671875 C 106.039062 145.546875 106.125 145.335938 106.15625 145.03125 L 106.25 144.171875 L 106.375 142.359375 L 104.5 141.78125 L 103.71875 141.578125 C 103.511719 141.527344 103.367188 141.5 103.28125 141.5 C 103.1875 141.5 103.074219 141.546875 102.9375 141.640625 L 102.859375 141.6875 L 102.671875 141.421875 L 104.75 139.921875 L 104.9375 140.1875 L 104.859375 140.234375 L 104.6875 140.375 C 104.492188 140.523438 104.421875 140.636719 104.484375 140.71875 C 104.527344 140.761719 104.859375 140.882812 105.484375 141.078125 L 106.765625 141.5 L 106.796875 140.171875 C 106.796875 139.984375 106.78125 139.777344 106.75 139.546875 C 106.726562 139.308594 106.703125 139.167969 106.671875 139.125 C 106.609375 139.054688 106.5 139.074219 106.34375 139.1875 L 106.1875 139.28125 L 106.09375 139.34375 L 105.90625 139.078125 L 107.359375 138.03125 L 107.546875 138.296875 L 107.46875 138.375 C 107.363281 138.460938 107.289062 138.546875 107.25 138.640625 C 107.207031 138.734375 107.191406 138.882812 107.203125 139.078125 C 107.203125 139.351562 107.191406 139.609375 107.171875 139.859375 L 107.109375 141.578125 L 109.03125 142.15625 C 109.488281 142.292969 109.828125 142.371094 110.046875 142.390625 C 110.265625 142.414062 110.441406 142.382812 110.578125 142.296875 L 110.65625 142.234375 L 110.84375 142.5 L 108.75 144.015625 L 108.5625 143.75 L 108.640625 143.6875 L 108.828125 143.5625 C 109.023438 143.417969 109.097656 143.308594 109.046875 143.234375 C 109.035156 143.226562 109.007812 143.210938 108.96875 143.1875 C 108.914062 143.167969 108.84375 143.140625 108.75 143.109375 C 108.507812 143.015625 108.28125 142.929688 108.0625 142.84375 L 106.671875 142.453125 L 106.640625 143.875 L 106.625 144.359375 L 106.625 144.8125 C 106.632812 144.875 106.644531 144.917969 106.65625 144.9375 C 106.71875 145.023438 106.847656 144.992188 107.046875 144.84375 L 107.21875 144.71875 L 107.3125 144.640625 L 107.5 144.90625 Z M 106.015625 145.984375 "/>
<path style=" stroke:none;fill-rule:nonzero;fill:rgb(0%,0%,0%);fill-opacity:1;" d="M 114.03125 139.78125 C 113.875 140.011719 113.703125 140.195312 113.515625 140.328125 C 113.085938 140.640625 112.664062 140.777344 112.25 140.734375 C 112.007812 140.703125 111.800781 140.625 111.625 140.5 C 111.445312 140.375 111.238281 140.148438 111 139.8125 L 108.96875 137 L 108.3125 137.484375 L 108.0625 137.140625 L 108.71875 136.65625 L 108.125 135.828125 L 108.8125 135.015625 L 109.5625 136.046875 L 110.84375 135.125 L 111.09375 135.46875 L 109.8125 136.390625 L 111.921875 139.328125 C 112.210938 139.726562 112.4375 139.960938 112.59375 140.03125 C 112.851562 140.15625 113.117188 140.121094 113.390625 139.921875 C 113.523438 139.820312 113.65625 139.65625 113.78125 139.4375 Z M 114.03125 139.78125 "/>
<path style="fill:none;stroke-width:4;stroke-linecap:round;stroke-linejoin:round;stroke:rgb(100%,100%,100%);stroke-opacity:1;stroke-miterlimit:10;" d="M 2.193738 -8.24291 L 2.18767 -1.351083 C 2.189059 -1.067756 2.208468 -0.821838 2.24798 -0.605802 C 2.272981 -0.515447 2.309514 -0.456654 2.362386 -0.4267 C 2.413576 -0.388175 2.528767 -0.367359 2.705237 -0.359446 L 3.054814 -0.326476 L 3.168562 -0.325526 L 3.161544 0.000658047 L 0.19321 -0.00482477 L 0.200228 -0.331009 L 0.298917 -0.325892 L 0.646885 -0.357326 C 0.839054 -0.365915 0.960569 -0.395485 1.012472 -0.442271 C 1.069821 -0.49867 1.106336 -0.630364 1.11657 -0.827741 L 1.153048 -1.34041 L 1.147712 -6.867264 L 1.11562 -7.393384 C 1.103266 -7.584511 1.068889 -7.708749 1.011449 -7.769863 C 0.96258 -7.829295 0.838415 -7.867894 0.641038 -7.878128 L 0.291461 -7.911097 L 0.192772 -7.916215 L 0.19979 -8.242399 Z M 2.193738 -8.24291 " transform="matrix(0.963786,0.266678,-0.266678,0.963786,301,199)"/>
<path style="fill:none;stroke-width:4;stroke-linecap:round;stroke-linejoin:round;stroke:rgb(100%,100%,100%);stroke-opacity:1;stroke-miterlimit:10;" d="M 4.024909 -0.783942 C 3.672987 -0.433522 3.364833 -0.19068 3.10412 -0.0658378 C 2.839883 0.0606918 2.540069 0.121969 2.206365 0.121516 C 1.727717 0.116842 1.324992 -0.0367937 0.998191 -0.339391 C 0.681811 -0.638317 0.522285 -1.016684 0.52145 -1.479701 C 0.519972 -2.007375 0.726455 -2.435406 1.137376 -2.762106 C 1.411985 -2.984553 1.725546 -3.134702 2.081581 -3.214238 C 2.44635 -3.293625 2.939836 -3.339367 3.558516 -3.349775 L 3.774865 -3.332106 L 3.78004 -4.044868 C 3.779461 -4.932447 3.442937 -5.381974 2.768781 -5.396972 C 2.447184 -5.39023 2.165928 -5.290199 1.925012 -5.096878 C 1.774458 -4.977144 1.684788 -4.739311 1.661211 -4.381541 L 1.64533 -4.269992 L 0.953409 -4.267822 L 0.950452 -5.32317 C 1.668579 -5.632397 2.33331 -5.781795 2.950006 -5.77826 C 3.479367 -5.776215 3.915785 -5.651707 4.257424 -5.399524 C 4.469701 -5.245644 4.609978 -5.070279 4.681776 -4.875117 C 4.757247 -4.690375 4.796443 -4.427628 4.801051 -4.083355 L 4.799812 -1.553456 C 4.806155 -1.106069 4.842769 -0.794446 4.916702 -0.62196 C 4.990485 -0.440741 5.132252 -0.35271 5.338479 -0.35618 C 5.408346 -0.354987 5.495978 -0.370964 5.611795 -0.400437 L 5.646919 -0.00147973 C 5.397371 0.0833681 5.173082 0.121473 4.97405 0.112835 C 4.477786 0.116597 4.161406 -0.182329 4.024909 -0.783942 Z M 3.788911 -0.878822 L 3.776248 -3.003612 L 3.531714 -3.007785 C 2.93065 -3.005812 2.456812 -2.882859 2.113725 -2.640614 C 1.77431 -2.408789 1.600728 -2.065809 1.600024 -1.615048 C 1.603244 -1.291764 1.708783 -1.026138 1.914807 -0.812961 C 2.124206 -0.592737 2.389628 -0.481629 2.712912 -0.484849 C 3.01337 -0.481469 3.371986 -0.609882 3.788911 -0.878822 Z M 3.788911 -0.878822 " transform="matrix(0.901927,0.431888,-0.431888,0.901927,304,199)"/>
<path style="fill:none;stroke-width:4;stroke-linecap:round;stroke-linejoin:round;stroke:rgb(100%,100%,100%);stroke-opacity:1;stroke-miterlimit:10;" d="M 0.815549 0.0618539 L 0.831221 -6.878461 L 0.795412 -7.393078 C 0.784731 -7.585776 0.752665 -7.705706 0.699781 -7.758363 C 0.64803 -7.82201 0.521442 -7.860049 0.32305 -7.874946 L -0.0407626 -7.901342 L -0.128685 -7.910405 L -0.128802 -8.232522 L 1.847865 -8.228692 L 1.849945 -4.585353 C 2.361636 -5.373969 3.024675 -5.772119 3.839061 -5.779804 C 4.483297 -5.780038 4.998399 -5.524236 5.38247 -5.020925 C 5.758581 -4.52121 5.950579 -3.851654 5.952401 -3.007328 C 5.957482 -2.059925 5.734738 -1.299836 5.284737 -0.732556 C 4.845727 -0.164143 4.272082 0.121044 3.563803 0.123007 C 2.886597 0.119842 2.318441 -0.133099 1.854407 -0.641876 L 1.798322 -0.636551 L 1.669732 0.072155 Z M 1.85123 -1.042059 C 2.401627 -0.64378 2.925425 -0.445394 3.422622 -0.446901 C 3.894242 -0.442714 4.247175 -0.634028 4.481989 -1.026339 C 4.727794 -1.417517 4.852646 -1.982215 4.856547 -2.720435 C 4.850193 -3.5208 4.733826 -4.115918 4.508011 -4.511282 C 4.274236 -4.910245 3.928549 -5.112485 3.470951 -5.118003 C 3.19033 -5.116386 2.903677 -5.02931 2.611558 -4.862271 C 2.320571 -4.706223 2.070913 -4.493156 1.857653 -4.229131 Z M 1.85123 -1.042059 " transform="matrix(0.775885,0.630874,-0.630874,0.775885,308,201)"/>
<path style="fill:none;stroke-width:4;stroke-linecap:round;stroke-linejoin:round;stroke:rgb(100%,100%,100%);stroke-opacity:1;stroke-miterlimit:10;" d="M 5.110207 -0.240638 C 4.452336 -0.00288878 3.853861 0.123495 3.31572 0.127504 C 2.495451 0.124088 1.818168 -0.158211 1.29236 -0.721443 C 0.771117 -1.273197 0.511009 -1.993962 0.512036 -2.883738 C 0.508838 -3.723975 0.739551 -4.413974 1.198671 -4.954205 C 1.666281 -5.496483 2.266421 -5.772422 2.998621 -5.776516 C 3.677825 -5.776813 4.19877 -5.546655 4.558937 -5.089029 C 4.927596 -4.633452 5.108255 -3.988766 5.11397 -3.145542 L 5.11653 -3.045525 L 1.657442 -3.052192 C 1.652746 -2.281932 1.752078 -1.691307 1.961411 -1.285354 C 2.301353 -0.688073 2.810691 -0.386829 3.492883 -0.389643 C 4.119092 -0.386142 4.659538 -0.514702 5.111232 -0.772806 Z M 1.673657 -3.37238 L 4.024376 -3.371519 L 4.023011 -3.615586 C 4.026298 -4.011725 4.010127 -4.309725 3.966008 -4.507538 C 3.924406 -4.702365 3.85891 -4.877052 3.767001 -5.034586 C 3.556772 -5.332501 3.278358 -5.48099 2.940249 -5.4821 C 2.546158 -5.476896 2.238642 -5.284118 2.015184 -4.906755 C 1.791256 -4.523887 1.675579 -4.012585 1.673657 -3.37238 Z M 1.673657 -3.37238 " transform="matrix(0.76463,0.64447,-0.64447,0.76463,313,206)"/>
<path style="fill:none;stroke-width:4;stroke-linecap:round;stroke-linejoin:round;stroke:rgb(100%,100%,100%);stroke-opacity:1;stroke-miterlimit:10;" d="M 2.180012 -8.232225 L 2.189932 -1.341058 C 2.18708 -1.057983 2.204866 -0.811571 2.243288 -0.601822 C 2.277716 -0.509192 2.31571 -0.449515 2.368254 -0.421602 C 2.415307 -0.394284 2.524556 -0.376904 2.695409 -0.363971 L 3.156754 -0.314044 L 3.155234 0.0080702 L 0.187924 0.00922419 L 0.189444 -0.31289 L 0.63833 -0.353215 C 0.837167 -0.367815 0.968242 -0.398082 1.026065 -0.444611 C 1.080844 -0.488692 1.114034 -0.615678 1.122593 -0.823122 L 1.157684 -1.352751 L 1.156519 -6.887178 L 1.133121 -7.389797 C 1.11429 -7.575201 1.077342 -7.695886 1.017379 -7.757941 C 0.965952 -7.82185 0.83956 -7.860532 0.641246 -7.876437 L 0.299541 -7.902304 L 0.187319 -7.892223 L 0.179044 -8.22651 Z M 2.180012 -8.232225 " transform="matrix(0.779081,0.626923,-0.626923,0.779081,319,210)"/>
<path style="fill:none;stroke-width:4;stroke-linecap:round;stroke-linejoin:round;stroke:rgb(100%,100%,100%);stroke-opacity:1;stroke-miterlimit:10;" d="" transform="matrix(0.817497,0.575933,-0.575933,0.817497,322,212)"/>
<path style="fill:none;stroke-width:4;stroke-linecap:round;stroke-linejoin:round;stroke:rgb(100%,100%,100%);stroke-opacity:1;stroke-miterlimit:10;" d="M 3.756318 -0.0374192 C 3.481926 0.0652435 3.23409 0.116263 3.015547 0.122958 C 2.481547 0.122558 2.055089 -0.0140052 1.744859 -0.28581 C 1.569423 -0.453731 1.451603 -0.634867 1.388662 -0.836536 C 1.319324 -1.044153 1.287095 -1.353239 1.290606 -1.767452 L 1.278571 -5.232978 L 0.442827 -5.237261 L 0.452286 -5.657871 L 1.28803 -5.653587 L 1.285147 -6.686844 L 2.324078 -6.942093 L 2.321287 -5.656471 L 3.888543 -5.658954 L 3.879084 -5.238345 L 2.311828 -5.235861 L 2.314603 -1.616726 C 2.318808 -1.126156 2.366119 -0.810201 2.458354 -0.652858 C 2.586178 -0.400392 2.815597 -0.277693 3.149347 -0.277443 C 3.313484 -0.284635 3.512864 -0.342549 3.751143 -0.452554 Z M 3.756318 -0.0374192 " transform="matrix(0.936592,0.350422,-0.350422,0.936592,326,215)"/>
<path style="fill:none;stroke-width:4;stroke-linecap:round;stroke-linejoin:round;stroke:rgb(100%,100%,100%);stroke-opacity:1;stroke-miterlimit:10;" d="M 5.108158 -0.251908 C 4.448407 0.00590578 3.848845 0.134897 3.305652 0.135888 C 2.481171 0.129469 1.809795 -0.149626 1.28606 -0.708214 C 0.769963 -1.268446 0.513458 -1.996404 0.512725 -2.891268 C 0.512038 -3.730202 0.743374 -4.419273 1.202915 -4.957659 C 1.668451 -5.505326 2.271984 -5.78301 3.005055 -5.792887 C 3.677846 -5.785799 4.194489 -5.557322 4.559627 -5.10446 C 4.933223 -4.649422 5.117368 -3.997795 5.109063 -3.144939 L 5.113506 -3.05 L 1.659542 -3.058084 C 1.655543 -2.278076 1.754516 -1.688037 1.961101 -1.284972 C 2.290073 -0.684482 2.797771 -0.386155 3.482019 -0.381532 C 4.120972 -0.383147 4.667603 -0.516733 5.121911 -0.78229 Z M 1.673478 -3.36475 L 4.005576 -3.371025 L 4.017382 -3.613303 C 4.014596 -4.016262 3.994984 -4.311715 3.955547 -4.495021 C 3.922105 -4.687607 3.858111 -4.873621 3.757573 -5.043781 C 3.556541 -5.328173 3.286329 -5.46982 2.948579 -5.461086 C 2.564714 -5.462408 2.254123 -5.271723 2.015985 -4.892847 C 1.786306 -4.511796 1.671863 -4.003704 1.673478 -3.36475 Z M 1.673478 -3.36475 " transform="matrix(0.97763,0.21033,-0.21033,0.97763,330,217)"/>
<path style="fill:none;stroke-width:4;stroke-linecap:round;stroke-linejoin:round;stroke:rgb(100%,100%,100%);stroke-opacity:1;stroke-miterlimit:10;" d="M 0.0153159 -0.00309245 L 0.0116381 -0.337097 L 0.106626 -0.340335 C 0.296602 -0.346813 0.489451 -0.457483 0.691284 -0.681549 L 1.260042 -1.338358 L 2.443357 -2.740925 L 1.236219 -4.298447 L 0.726384 -4.92876 C 0.599698 -5.08251 0.499152 -5.185746 0.425519 -5.23464 C 0.351885 -5.283534 0.234623 -5.311663 0.0729598 -5.322857 L -0.00980468 -5.338027 L -0.01039 -5.656715 L 2.554431 -5.664491 L 2.555017 -5.345802 L 2.460029 -5.342564 L 2.224105 -5.326809 C 1.990464 -5.319485 1.877951 -5.264886 1.890394 -5.163787 C 1.878243 -5.105542 2.071051 -4.821681 2.461931 -4.306827 L 3.272924 -3.21129 L 4.061557 -4.279122 C 4.169322 -4.416448 4.27856 -4.585952 4.388498 -4.791464 C 4.504548 -5.006179 4.562536 -5.133455 4.565519 -5.177893 C 4.554622 -5.271335 4.461071 -5.320192 4.280262 -5.327521 L 4.087194 -5.336359 L 3.973798 -5.345344 L 3.973212 -5.664032 L 5.775037 -5.661213 L 5.775623 -5.342525 L 5.668411 -5.320878 C 5.519045 -5.310644 5.398837 -5.274418 5.307014 -5.216027 C 5.221304 -5.16684 5.129554 -5.068614 5.031767 -4.921347 C 4.864431 -4.684321 4.699341 -4.475644 4.536497 -4.295316 L 3.487932 -2.935896 L 4.704348 -1.332427 C 4.991553 -0.956043 5.218785 -0.699058 5.386043 -0.56147 C 5.548699 -0.426939 5.715074 -0.352935 5.876738 -0.341741 L 5.959502 -0.326571 L 5.96318 0.00743298 L 3.395266 -0.000107653 L 3.391588 -0.334112 L 3.486576 -0.337351 L 3.710276 -0.334697 C 3.965382 -0.3344 4.093248 -0.372172 4.102305 -0.445733 C 4.097667 -0.468707 4.079222 -0.500848 4.050026 -0.546759 C 4.018548 -0.584239 3.974774 -0.643147 3.917929 -0.727311 C 3.776554 -0.953811 3.64442 -1.154282 3.524583 -1.333324 L 2.621549 -2.489979 L 1.75339 -1.342328 L 1.462973 -0.964884 L 1.203187 -0.593624 C 1.183379 -0.533833 1.167363 -0.494734 1.163571 -0.474042 C 1.159152 -0.377508 1.280279 -0.330234 1.525407 -0.339877 L 1.733791 -0.334131 L 1.862504 -0.328239 L 1.866181 0.00576523 Z M 0.0153159 -0.00309245 " transform="matrix(0.980219,0.197917,-0.197917,0.980219,336,218)"/>
<path style="fill:none;stroke-width:4;stroke-linecap:round;stroke-linejoin:round;stroke:rgb(100%,100%,100%);stroke-opacity:1;stroke-miterlimit:10;" d="M 3.73551 -0.0358416 C 3.47933 0.0783764 3.234808 0.130573 3.002702 0.124582 C 2.468749 0.122369 2.051605 -0.0143582 1.744361 -0.280255 C 1.57244 -0.445428 1.451151 -0.636511 1.378173 -0.845083 C 1.305194 -1.053655 1.269244 -1.357121 1.276478 -1.764657 L 1.276693 -5.236537 L 0.449315 -5.232651 L 0.447372 -5.64634 L 1.27475 -5.650227 L 1.277557 -6.685961 L 2.310917 -6.9375 L 2.310485 -5.64742 L 3.88557 -5.655409 L 3.887513 -5.241719 L 2.312428 -5.23373 L 2.308757 -1.617836 C 2.309729 -1.128307 2.357122 -0.807191 2.45018 -0.658319 C 2.582805 -0.409749 2.814588 -0.284249 3.144772 -0.285653 C 3.311781 -0.286732 3.515711 -0.34287 3.748897 -0.452554 Z M 3.73551 -0.0358416 " transform="matrix(0.981109,0.193458,-0.193458,0.981109,342,219)"/>
<path style=" stroke:none;fill-rule:nonzero;fill:rgb(0%,0%,0%);fill-opacity:1;" d="M 305.3125 191.640625 L 303.46875 198.28125 C 303.394531 198.554688 303.347656 198.796875 303.328125 199.015625 C 303.328125 199.109375 303.347656 199.175781 303.390625 199.21875 C 303.429688 199.269531 303.535156 199.320312 303.703125 199.375 L 304.03125 199.5 L 304.140625 199.53125 L 304.046875 199.84375 L 301.1875 199.046875 L 301.28125 198.734375 L 301.375 198.765625 L 301.71875 198.828125 C 301.90625 198.871094 302.03125 198.875 302.09375 198.84375 C 302.164062 198.804688 302.234375 198.6875 302.296875 198.5 L 302.46875 198.015625 L 303.9375 192.6875 L 304.046875 192.171875 C 304.085938 191.984375 304.085938 191.855469 304.046875 191.78125 C 304.015625 191.710938 303.90625 191.640625 303.71875 191.578125 L 303.390625 191.453125 L 303.296875 191.421875 L 303.390625 191.109375 Z M 305.3125 191.640625 "/>
<path style=" stroke:none;fill-rule:nonzero;fill:rgb(0%,0%,0%);fill-opacity:1;" d="M 307.96875 200.03125 C 307.5 200.195312 307.117188 200.28125 306.828125 200.28125 C 306.535156 200.28125 306.238281 200.207031 305.9375 200.0625 C 305.507812 199.851562 305.210938 199.539062 305.046875 199.125 C 304.890625 198.71875 304.910156 198.308594 305.109375 197.890625 C 305.335938 197.414062 305.707031 197.117188 306.21875 197 C 306.5625 196.917969 306.910156 196.917969 307.265625 197 C 307.628906 197.085938 308.09375 197.257812 308.65625 197.515625 L 308.84375 197.625 L 309.15625 196.984375 C 309.539062 196.183594 309.429688 195.632812 308.828125 195.328125 C 308.535156 195.195312 308.238281 195.164062 307.9375 195.234375 C 307.75 195.277344 307.566406 195.453125 307.390625 195.765625 L 307.328125 195.859375 L 306.703125 195.5625 L 307.15625 194.609375 C 307.9375 194.640625 308.601562 194.792969 309.15625 195.0625 C 309.632812 195.292969 309.972656 195.59375 310.171875 195.96875 C 310.296875 196.199219 310.347656 196.417969 310.328125 196.625 C 310.316406 196.824219 310.238281 197.078125 310.09375 197.390625 L 309 199.671875 C 308.8125 200.078125 308.710938 200.375 308.703125 200.5625 C 308.691406 200.757812 308.78125 200.898438 308.96875 200.984375 C 309.03125 201.015625 309.117188 201.039062 309.234375 201.0625 L 309.09375 201.4375 C 308.832031 201.40625 308.613281 201.34375 308.4375 201.25 C 307.988281 201.039062 307.832031 200.632812 307.96875 200.03125 Z M 307.796875 199.84375 L 308.703125 197.921875 L 308.484375 197.8125 C 307.941406 197.554688 307.460938 197.460938 307.046875 197.53125 C 306.640625 197.59375 306.335938 197.828125 306.140625 198.234375 C 306.003906 198.527344 305.984375 198.8125 306.078125 199.09375 C 306.171875 199.382812 306.363281 199.597656 306.65625 199.734375 C 306.925781 199.867188 307.304688 199.90625 307.796875 199.84375 Z M 307.796875 199.84375 "/>
<path style=" stroke:none;fill-rule:nonzero;fill:rgb(0%,0%,0%);fill-opacity:1;" d="M 308.59375 201.5625 L 312.984375 196.1875 L 313.28125 195.765625 C 313.394531 195.609375 313.445312 195.496094 313.4375 195.421875 C 313.4375 195.339844 313.363281 195.230469 313.21875 195.09375 L 312.953125 194.84375 L 312.890625 194.78125 L 313.09375 194.53125 L 314.625 195.78125 L 312.328125 198.609375 C 313.222656 198.320312 313.988281 198.429688 314.625 198.9375 C 315.125 199.34375 315.363281 199.867188 315.34375 200.5 C 315.320312 201.125 315.046875 201.765625 314.515625 202.421875 C 313.921875 203.160156 313.269531 203.609375 312.5625 203.765625 C 311.863281 203.929688 311.238281 203.789062 310.6875 203.34375 C 310.164062 202.914062 309.882812 202.359375 309.84375 201.671875 L 309.796875 201.640625 L 309.25 202.109375 Z M 310.09375 201.359375 C 310.269531 202.015625 310.550781 202.5 310.9375 202.8125 C 311.300781 203.113281 311.695312 203.1875 312.125 203.03125 C 312.5625 202.882812 313.015625 202.523438 313.484375 201.953125 C 313.984375 201.328125 314.269531 200.792969 314.34375 200.34375 C 314.414062 199.886719 314.273438 199.511719 313.921875 199.21875 C 313.703125 199.042969 313.425781 198.929688 313.09375 198.875 C 312.769531 198.8125 312.441406 198.820312 312.109375 198.890625 Z M 310.09375 201.359375 "/>
<path style=" stroke:none;fill-rule:nonzero;fill:rgb(0%,0%,0%);fill-opacity:1;" d="M 317.0625 209.109375 C 316.40625 208.867188 315.867188 208.578125 315.453125 208.234375 C 314.828125 207.703125 314.492188 207.050781 314.453125 206.28125 C 314.410156 205.523438 314.675781 204.804688 315.25 204.125 C 315.789062 203.480469 316.410156 203.101562 317.109375 202.984375 C 317.816406 202.871094 318.453125 203.046875 319.015625 203.515625 C 319.535156 203.953125 319.785156 204.464844 319.765625 205.046875 C 319.753906 205.632812 319.476562 206.242188 318.9375 206.890625 L 318.875 206.96875 L 316.234375 204.734375 C 315.734375 205.320312 315.429688 205.835938 315.328125 206.28125 C 315.203125 206.957031 315.398438 207.515625 315.921875 207.953125 C 316.398438 208.359375 316.894531 208.609375 317.40625 208.703125 Z M 316.453125 204.5 L 318.25 206.015625 L 318.40625 205.828125 C 318.664062 205.527344 318.84375 205.289062 318.9375 205.109375 C 319.03125 204.933594 319.09375 204.757812 319.125 204.578125 C 319.15625 204.214844 319.039062 203.921875 318.78125 203.703125 C 318.476562 203.453125 318.117188 203.402344 317.703125 203.546875 C 317.285156 203.695312 316.867188 204.011719 316.453125 204.5 Z M 316.453125 204.5 "/>
<path style=" stroke:none;fill-rule:nonzero;fill:rgb(0%,0%,0%);fill-opacity:1;" d="M 325.859375 204.953125 L 321.546875 210.328125 C 321.367188 210.546875 321.226562 210.75 321.125 210.9375 C 321.09375 211.03125 321.085938 211.101562 321.109375 211.15625 C 321.128906 211.207031 321.203125 211.289062 321.328125 211.40625 L 321.65625 211.734375 L 321.453125 211.984375 L 319.140625 210.125 L 319.34375 209.875 L 319.71875 210.125 C 319.882812 210.238281 320.003906 210.296875 320.078125 210.296875 C 320.148438 210.296875 320.253906 210.21875 320.390625 210.0625 L 320.75 209.671875 L 324.21875 205.359375 L 324.515625 204.953125 C 324.617188 204.796875 324.664062 204.679688 324.65625 204.59375 C 324.65625 204.511719 324.582031 204.402344 324.4375 204.265625 L 324.1875 204.03125 L 324.09375 203.96875 L 324.296875 203.703125 Z M 325.859375 204.953125 "/>
<path style=" stroke:none;fill-rule:nonzero;fill:rgb(0%,0%,0%);fill-opacity:1;" d="M 329.53125 216.28125 C 329.238281 216.28125 328.988281 216.242188 328.78125 216.171875 C 328.28125 215.984375 327.929688 215.707031 327.734375 215.34375 C 327.628906 215.125 327.582031 214.914062 327.59375 214.703125 C 327.601562 214.484375 327.679688 214.183594 327.828125 213.796875 L 329.03125 210.546875 L 328.25 210.25 L 328.40625 209.859375 L 329.1875 210.15625 L 329.546875 209.1875 L 330.609375 209.3125 L 330.15625 210.515625 L 331.625 211.0625 L 331.46875 211.453125 L 330 210.90625 L 328.734375 214.296875 C 328.566406 214.757812 328.5 215.070312 328.53125 215.25 C 328.5625 215.53125 328.734375 215.726562 329.046875 215.84375 C 329.203125 215.894531 329.410156 215.910156 329.671875 215.890625 Z M 329.53125 216.28125 "/>
<path style=" stroke:none;fill-rule:nonzero;fill:rgb(0%,0%,0%);fill-opacity:1;" d="M 335.046875 217.828125 C 334.347656 217.941406 333.734375 217.941406 333.203125 217.828125 C 332.398438 217.648438 331.800781 217.234375 331.40625 216.578125 C 331.019531 215.921875 330.921875 215.15625 331.109375 214.28125 C 331.285156 213.460938 331.65625 212.835938 332.21875 212.40625 C 332.789062 211.96875 333.4375 211.824219 334.15625 211.96875 C 334.8125 212.117188 335.269531 212.449219 335.53125 212.96875 C 335.800781 213.492188 335.84375 214.167969 335.65625 215 L 335.640625 215.09375 L 332.265625 214.359375 C 332.097656 215.121094 332.070312 215.71875 332.1875 216.15625 C 332.382812 216.8125 332.816406 217.210938 333.484375 217.359375 C 334.109375 217.492188 334.671875 217.476562 335.171875 217.3125 Z M 332.34375 214.0625 L 334.625 214.546875 L 334.6875 214.3125 C 334.769531 213.917969 334.8125 213.625 334.8125 213.4375 C 334.820312 213.242188 334.796875 213.046875 334.734375 212.859375 C 334.597656 212.539062 334.363281 212.34375 334.03125 212.28125 C 333.65625 212.199219 333.3125 212.320312 333 212.640625 C 332.695312 212.964844 332.476562 213.4375 332.34375 214.0625 Z M 332.34375 214.0625 "/>
<path style=" stroke:none;fill-rule:nonzero;fill:rgb(0%,0%,0%);fill-opacity:1;" d="M 336.015625 218 L 336.078125 217.671875 L 336.171875 217.6875 C 336.359375 217.71875 336.570312 217.648438 336.8125 217.46875 L 337.5 216.9375 L 338.9375 215.796875 L 338.0625 214.03125 L 337.6875 213.3125 C 337.59375 213.136719 337.515625 213.015625 337.453125 212.953125 C 337.390625 212.890625 337.28125 212.839844 337.125 212.796875 L 337.046875 212.765625 L 337.109375 212.453125 L 339.625 212.953125 L 339.5625 213.265625 L 339.46875 213.25 L 339.234375 213.21875 C 339.003906 213.179688 338.882812 213.210938 338.875 213.3125 C 338.851562 213.367188 338.984375 213.683594 339.265625 214.265625 L 339.84375 215.5 L 340.828125 214.609375 C 340.960938 214.496094 341.101562 214.351562 341.25 214.171875 C 341.40625 213.984375 341.488281 213.871094 341.5 213.828125 C 341.507812 213.734375 341.425781 213.667969 341.25 213.625 L 341.0625 213.578125 L 340.953125 213.546875 L 341.015625 213.234375 L 342.78125 213.59375 L 342.71875 213.90625 L 342.609375 213.90625 C 342.460938 213.886719 342.335938 213.898438 342.234375 213.9375 C 342.140625 213.96875 342.03125 214.046875 341.90625 214.171875 C 341.695312 214.371094 341.492188 214.542969 341.296875 214.6875 L 340 215.8125 L 340.875 217.625 C 341.082031 218.050781 341.253906 218.347656 341.390625 218.515625 C 341.523438 218.679688 341.671875 218.785156 341.828125 218.828125 L 341.90625 218.859375 L 341.84375 219.1875 L 339.328125 218.671875 L 339.390625 218.34375 L 339.484375 218.359375 L 339.703125 218.40625 C 339.953125 218.457031 340.085938 218.445312 340.109375 218.375 C 340.109375 218.351562 340.097656 218.316406 340.078125 218.265625 C 340.054688 218.222656 340.023438 218.15625 339.984375 218.0625 C 339.890625 217.8125 339.800781 217.589844 339.71875 217.390625 L 339.0625 216.078125 L 337.984375 217.03125 L 337.625 217.34375 L 337.296875 217.65625 C 337.265625 217.710938 337.242188 217.746094 337.234375 217.765625 C 337.210938 217.859375 337.320312 217.929688 337.5625 217.96875 L 337.765625 218.015625 L 337.890625 218.046875 L 337.828125 218.375 Z M 336.015625 218 "/>
<path style=" stroke:none;fill-rule:nonzero;fill:rgb(0%,0%,0%);fill-opacity:1;" d="M 345.671875 219.6875 C 345.398438 219.75 345.148438 219.753906 344.921875 219.703125 C 344.398438 219.597656 344.015625 219.382812 343.765625 219.0625 C 343.628906 218.867188 343.546875 218.65625 343.515625 218.4375 C 343.484375 218.21875 343.507812 217.914062 343.59375 217.515625 L 344.265625 214.109375 L 343.453125 213.953125 L 343.53125 213.546875 L 344.34375 213.703125 L 344.546875 212.6875 L 345.609375 212.640625 L 345.359375 213.90625 L 346.90625 214.203125 L 346.828125 214.609375 L 345.28125 214.3125 L 344.578125 217.859375 C 344.484375 218.339844 344.46875 218.664062 344.53125 218.828125 C 344.613281 219.097656 344.816406 219.265625 345.140625 219.328125 C 345.304688 219.359375 345.515625 219.34375 345.765625 219.28125 Z M 345.671875 219.6875 "/>
</g>
</svg>
