<?xml version="1.0" encoding="UTF-8"?>
<svg xmlns="http://www.w3.org/2000/svg" xmlns:xlink="http://www.w3.org/1999/xlink" width="400" height="300" viewBox="0 0 400 300">
<defs>
<filter id="filter-remove-color-and-invert-alpha" x="0%" y="0%" width="100%" height="100%">
<feColorMatrix color-interpolation-filters="sRGB" values="0 0 0 0 1 0 0 0 0 1 0 0 0 0 1 0 0 0 -1 1"/>
</filter>
<filter id="filter-0" x="0%" y="0%" width="100%" height="100%">
<feImage xlink:href="#compositing-group-1" result="source" x="0" y="0" width="480" height="360"/>
<feImage xlink:href="#compositing-group-2" result="destination" x="0" y="0" width="480" height="360"/>
<feComposite in="source" in2="destination" operator="arithmetic" k1="0" k2="1" k3="1" k4="0" color-interpolation-filters="sRGB"/>
</filter>
<g id="compositing-group-0" transform="translate(40, 30)">
<rect x="-40" y="-30" width="480" height="360" fill="rgb(0%, 0%, 0%)" fill-opacity="0"/>
<rect x="-40" y="-30" width="480" height="360" fill="rgb(100%, 100%, 100%)" fill-opacity="1"/>
</g>
<mask id="mask-0">
<use xlink:href="#compositing-group-0"/>
</mask>
<mask id="mask-1">
<use xlink:href="#compositing-group-0" filter="url(#filter-remove-color-and-invert-alpha)"/>
</mask>
<g id="compositing-group-1" mask="url(#mask-0)">
<g transform="translate(40, 30)">
<rect x="-40" y="-30" width="480" height="360" fill="rgb(100%, 100%, 100%)" fill-opacity="1"/>
</g>
</g>
<g id="compositing-group-2" mask="url(#mask-1)">
<g transform="translate(40, 30)">
</g>
</g>
</defs>
<g filter="url(#filter-0)" transform="translate(-40, -30)">
<rect x="0" y="0" width="480" height="360" fill="rgb(0%, 0%, 0%)" fill-opacity="1"/>
</g>
<path fill="none" stroke-width="5" stroke-linecap="round" stroke-linejoin="round" stroke="rgb(0%, 0%, 100%)" stroke-opacity="1" stroke-miterlimit="10" d="M 161.984375 109.878906 L 138.140625 85.335938 L 23.84375 97.960938 L 0 184.210938 L 62.410156 210.859375 L 173.203125 174.394531 L 166.894531 121.101562 "/>
<path fill="none" stroke-width="5" stroke-linecap="round" stroke-linejoin="round" stroke="rgb(0%, 0%, 100%)" stroke-opacity="1" stroke-miterlimit="10" d="M 231.40625 130.214844 L 261.558594 147.046875 L 275.582031 165.277344 L 291.710938 183.507812 L 312.75 187.71875 L 328.175781 201.039062 L 331.683594 203.84375 L 381.46875 213.664062 L 384.976562 188.417969 L 399 167.382812 "/>
<path fill="none" stroke-width="5" stroke-linecap="round" stroke-linejoin="round" stroke="rgb(0%, 0%, 100%)" stroke-opacity="1" stroke-miterlimit="10" d="M 37.777344 178.996094 L 125.929688 115.367188 L 145.8125 127.296875 "/>
<path fill="none" stroke-width="3" stroke-linecap="round" stroke-linejoin="round" stroke="rgb(100%, 100%, 100%)" stroke-opacity="1" stroke-miterlimit="10" d="M 161.984375 109.878906 L 138.140625 85.335938 L 23.84375 97.960938 L 0 184.210938 L 62.410156 210.859375 L 173.203125 174.394531 L 166.894531 121.101562 "/>
<path fill="none" stroke-width="3" stroke-linecap="round" stroke-linejoin="round" stroke="rgb(100%, 100%, 100%)" stroke-opacity="1" stroke-miterlimit="10" d="M 231.40625 130.214844 L 261.558594 147.046875 L 275.582031 165.277344 L 291.710938 183.507812 L 312.75 187.71875 L 328.175781 201.039062 L 331.683594 203.84375 L 381.46875 213.664062 L 384.976562 188.417969 L 399 167.382812 "/>
<path fill="none" stroke-width="3" stroke-linecap="round" stroke-linejoin="round" stroke="rgb(100%, 100%, 100%)" stroke-opacity="1" stroke-miterlimit="10" d="M 37.777344 178.996094 L 125.929688 115.367188 L 145.8125 127.296875 "/>
<path fill="none" stroke-width="4" stroke-linecap="round" stroke-linejoin="round" stroke="rgb(100%, 100%, 100%)" stroke-opacity="1" stroke-miterlimit="10" d="M 70.90625 160.660156 L 75.0625 166.410156 C 75.226562 166.652344 75.398438 166.84375 75.578125 166.988281 C 75.640625 167.050781 75.703125 167.082031 75.765625 167.082031 C 75.835938 167.074219 75.945312 167.019531 76.09375 166.925781 L 76.390625 166.722656 L 76.5 166.675781 L 76.6875 166.941406 L 74.21875 168.722656 L 74.03125 168.457031 L 74.078125 168.394531 L 74.375 168.160156 C 74.519531 168.035156 74.601562 167.9375 74.625 167.863281 C 74.644531 167.78125 74.597656 167.652344 74.484375 167.472656 L 74.203125 167.035156 L 70.859375 162.410156 L 70.515625 161.988281 C 70.390625 161.832031 70.292969 161.75 70.21875 161.738281 C 70.136719 161.730469 70.007812 161.777344 69.828125 161.878906 L 69.515625 162.082031 L 69.453125 162.128906 L 69.25 161.847656 Z M 79.738281 163.765625 C 79.644531 164.246094 79.523438 164.625 79.378906 164.90625 C 79.242188 165.179688 79.039062 165.414062 78.769531 165.609375 C 78.363281 165.902344 77.933594 166.015625 77.488281 165.953125 C 77.039062 165.890625 76.675781 165.667969 76.394531 165.28125 C 76.074219 164.835938 75.988281 164.351562 76.144531 163.828125 C 76.238281 163.484375 76.410156 163.171875 76.660156 162.890625 C 76.898438 162.601562 77.285156 162.261719 77.816406 161.875 L 77.988281 161.75 L 77.566406 161.171875 C 77.023438 160.421875 76.472656 160.25 75.910156 160.65625 C 75.640625 160.855469 75.464844 161.109375 75.378906 161.421875 C 75.339844 161.589844 75.40625 161.839844 75.582031 162.171875 L 75.644531 162.25 L 75.066406 162.671875 L 74.441406 161.8125 C 74.847656 161.117188 75.308594 160.578125 75.816406 160.203125 C 76.265625 159.882812 76.707031 159.730469 77.144531 159.75 C 77.414062 159.75 77.636719 159.808594 77.816406 159.921875 C 77.992188 160.027344 78.183594 160.21875 78.394531 160.5 L 79.925781 162.609375 C 80.183594 162.984375 80.402344 163.230469 80.582031 163.34375 C 80.757812 163.460938 80.929688 163.453125 81.097656 163.328125 C 81.148438 163.289062 81.214844 163.21875 81.300781 163.125 L 81.566406 163.421875 C 81.410156 163.640625 81.246094 163.8125 81.082031 163.9375 C 80.652344 164.242188 80.207031 164.183594 79.738281 163.765625 Z M 79.457031 163.796875 L 78.191406 162.03125 L 77.988281 162.1875 C 77.488281 162.542969 77.164062 162.929688 77.019531 163.34375 C 76.882812 163.75 76.945312 164.136719 77.207031 164.5 C 77.414062 164.78125 77.667969 164.949219 77.972656 165 C 78.273438 165.042969 78.554688 164.96875 78.816406 164.78125 C 79.066406 164.605469 79.277344 164.277344 79.457031 163.796875 Z M 82.421875 162.878906 L 78.234375 157.082031 L 77.890625 156.660156 C 77.765625 156.515625 77.667969 156.4375 77.59375 156.425781 C 77.511719 156.40625 77.382812 156.453125 77.203125 156.566406 L 76.890625 156.753906 L 76.8125 156.816406 L 76.609375 156.535156 L 78.28125 155.332031 L 80.484375 158.363281 C 80.414062 157.394531 80.71875 156.660156 81.40625 156.160156 C 81.9375 155.777344 82.515625 155.683594 83.140625 155.878906 C 83.765625 156.078125 84.332031 156.53125 84.84375 157.238281 C 85.414062 158.042969 85.691406 158.8125 85.671875 159.550781 C 85.648438 160.28125 85.34375 160.859375 84.75 161.285156 C 84.1875 161.691406 83.554688 161.824219 82.859375 161.675781 L 82.796875 161.707031 L 83.109375 162.378906 Z M 82.625 161.332031 C 83.320312 161.332031 83.875 161.1875 84.28125 160.894531 C 84.675781 160.613281 84.851562 160.238281 84.8125 159.769531 C 84.769531 159.292969 84.53125 158.75 84.09375 158.144531 C 83.601562 157.46875 83.144531 157.03125 82.71875 156.832031 C 82.289062 156.636719 81.882812 156.675781 81.5 156.957031 C 81.261719 157.125 81.074219 157.363281 80.9375 157.675781 C 80.792969 157.988281 80.714844 158.324219 80.703125 158.675781 Z M 91.246094 156.105469 C 90.859375 156.722656 90.441406 157.191406 89.996094 157.511719 C 89.296875 158.011719 88.5625 158.183594 87.792969 158.027344 C 87.023438 157.871094 86.371094 157.425781 85.839844 156.683594 C 85.320312 155.964844 85.089844 155.242188 85.152344 154.511719 C 85.207031 153.773438 85.539062 153.183594 86.152344 152.746094 C 86.714844 152.339844 87.28125 152.222656 87.855469 152.386719 C 88.4375 152.542969 88.984375 152.976562 89.496094 153.683594 L 89.558594 153.777344 L 86.667969 155.855469 C 87.136719 156.503906 87.578125 156.925781 87.996094 157.121094 C 88.640625 157.433594 89.246094 157.382812 89.808594 156.964844 C 90.347656 156.589844 90.722656 156.160156 90.933594 155.667969 Z M 86.480469 155.574219 L 88.449219 154.152344 L 88.324219 153.964844 C 88.074219 153.621094 87.871094 153.382812 87.714844 153.246094 C 87.566406 153.101562 87.410156 152.996094 87.246094 152.933594 C 86.902344 152.808594 86.585938 152.847656 86.292969 153.042969 C 85.972656 153.285156 85.832031 153.632812 85.871094 154.089844 C 85.902344 154.550781 86.105469 155.042969 86.480469 155.574219 Z M 88.722656 147.800781 L 92.878906 153.550781 C 93.042969 153.792969 93.214844 153.984375 93.394531 154.128906 C 93.457031 154.191406 93.519531 154.222656 93.582031 154.222656 C 93.652344 154.214844 93.761719 154.160156 93.910156 154.066406 L 94.207031 153.863281 L 94.316406 153.816406 L 94.503906 154.082031 L 92.035156 155.863281 L 91.847656 155.597656 L 91.894531 155.535156 L 92.191406 155.300781 C 92.335938 155.175781 92.417969 155.078125 92.441406 155.003906 C 92.460938 154.921875 92.414062 154.792969 92.300781 154.613281 L 92.019531 154.175781 L 88.675781 149.550781 L 88.332031 149.128906 C 88.207031 148.972656 88.109375 148.890625 88.035156 148.878906 C 87.953125 148.871094 87.824219 148.917969 87.644531 149.019531 L 87.332031 149.222656 L 87.269531 149.269531 L 87.066406 148.988281 Z M 100.496094 149.714844 C 100.339844 149.964844 100.160156 150.164062 99.964844 150.308594 C 99.515625 150.632812 99.082031 150.769531 98.667969 150.714844 C 98.417969 150.695312 98.203125 150.617188 98.027344 150.480469 C 97.847656 150.335938 97.636719 150.089844 97.386719 149.746094 L 95.292969 146.855469 L 94.589844 147.355469 L 94.339844 147.011719 L 95.042969 146.511719 L 94.417969 145.636719 L 95.121094 144.808594 L 95.902344 145.886719 L 97.214844 144.949219 L 97.464844 145.292969 L 96.152344 146.230469 L 98.324219 149.230469 C 98.613281 149.648438 98.847656 149.898438 99.027344 149.980469 C 99.296875 150.105469 99.566406 150.070312 99.839844 149.871094 C 99.972656 149.769531 100.105469 149.601562 100.230469 149.371094 Z M 104.980469 146.191406 C 104.59375 146.808594 104.175781 147.277344 103.730469 147.597656 C 103.03125 148.097656 102.296875 148.269531 101.527344 148.113281 C 100.757812 147.957031 100.105469 147.511719 99.574219 146.769531 C 99.054688 146.050781 98.824219 145.328125 98.886719 144.597656 C 98.941406 143.859375 99.273438 143.269531 99.886719 142.832031 C 100.449219 142.425781 101.015625 142.308594 101.589844 142.472656 C 102.171875 142.628906 102.71875 143.0625 103.230469 143.769531 L 103.292969 143.863281 L 100.402344 145.941406 C 100.871094 146.589844 101.3125 147.011719 101.730469 147.207031 C 102.375 147.519531 102.980469 147.46875 103.542969 147.050781 C 104.082031 146.675781 104.457031 146.246094 104.667969 145.753906 Z M 100.214844 145.660156 L 102.183594 144.238281 L 102.058594 144.050781 C 101.808594 143.707031 101.605469 143.46875 101.449219 143.332031 C 101.300781 143.1875 101.144531 143.082031 100.980469 143.019531 C 100.636719 142.894531 100.320312 142.933594 100.027344 143.128906 C 99.707031 143.371094 99.566406 143.71875 99.605469 144.175781 C 99.636719 144.636719 99.839844 145.128906 100.214844 145.660156 Z M 105.609375 146.0625 L 105.421875 145.796875 L 105.484375 145.734375 C 105.640625 145.609375 105.726562 145.390625 105.75 145.078125 L 105.828125 144.203125 L 105.984375 142.3125 L 104.03125 141.75 L 103.234375 141.515625 C 103.015625 141.464844 102.867188 141.4375 102.78125 141.4375 C 102.699219 141.4375 102.589844 141.480469 102.453125 141.5625 L 102.359375 141.640625 L 102.171875 141.375 L 104.3125 139.828125 L 104.5 140.09375 L 104.421875 140.140625 L 104.25 140.28125 C 104.0625 140.417969 103.996094 140.53125 104.046875 140.625 C 104.089844 140.667969 104.429688 140.796875 105.0625 141.015625 L 106.40625 141.4375 L 106.40625 140.046875 C 106.40625 139.871094 106.390625 139.664062 106.359375 139.421875 C 106.335938 139.183594 106.3125 139.042969 106.28125 139 C 106.21875 138.917969 106.109375 138.933594 105.953125 139.046875 L 105.796875 139.15625 L 105.6875 139.234375 L 105.5 138.96875 L 107.015625 137.875 L 107.203125 138.140625 L 107.109375 138.203125 C 107.003906 138.289062 106.925781 138.382812 106.875 138.484375 C 106.832031 138.589844 106.816406 138.734375 106.828125 138.921875 C 106.816406 139.226562 106.804688 139.5 106.796875 139.75 L 106.71875 141.515625 L 108.71875 142.109375 C 109.195312 142.257812 109.546875 142.339844 109.765625 142.359375 C 109.992188 142.371094 110.175781 142.335938 110.3125 142.25 L 110.390625 142.21875 L 110.578125 142.484375 L 108.421875 144.03125 L 108.234375 143.765625 L 108.3125 143.703125 L 108.5 143.5625 C 108.71875 143.398438 108.800781 143.28125 108.75 143.21875 C 108.738281 143.199219 108.703125 143.1875 108.640625 143.1875 C 108.597656 143.167969 108.523438 143.132812 108.421875 143.078125 C 108.179688 142.996094 107.945312 142.917969 107.71875 142.84375 L 106.296875 142.40625 L 106.25 143.90625 L 106.25 144.375 L 106.234375 144.859375 C 106.242188 144.921875 106.253906 144.964844 106.265625 144.984375 C 106.328125 145.070312 106.460938 145.03125 106.671875 144.875 L 106.859375 144.765625 L 106.96875 144.6875 L 107.15625 144.953125 Z M 113.6875 140.195312 C 113.53125 140.445312 113.351562 140.644531 113.15625 140.789062 C 112.707031 141.113281 112.273438 141.25 111.859375 141.195312 C 111.609375 141.175781 111.394531 141.097656 111.21875 140.960938 C 111.039062 140.816406 110.828125 140.570312 110.578125 140.226562 L 108.484375 137.335938 L 107.78125 137.835938 L 107.53125 137.492188 L 108.234375 136.992188 L 107.609375 136.117188 L 108.3125 135.289062 L 109.09375 136.367188 L 110.40625 135.429688 L 110.65625 135.773438 L 109.34375 136.710938 L 111.515625 139.710938 C 111.804688 140.128906 112.039062 140.378906 112.21875 140.460938 C 112.488281 140.585938 112.757812 140.550781 113.03125 140.351562 C 113.164062 140.25 113.296875 140.082031 113.421875 139.851562 Z M 113.6875 140.195312 "/>
<path fill-rule="nonzero" fill="rgb(0%, 0%, 0%)" fill-opacity="1" d="M 70.90625 160.660156 L 75.0625 166.410156 C 75.226562 166.652344 75.398438 166.84375 75.578125 166.988281 C 75.640625 167.050781 75.703125 167.082031 75.765625 167.082031 C 75.835938 167.074219 75.945312 167.019531 76.09375 166.925781 L 76.390625 166.722656 L 76.5 166.675781 L 76.6875 166.941406 L 74.21875 168.722656 L 74.03125 168.457031 L 74.078125 168.394531 L 74.375 168.160156 C 74.519531 168.035156 74.601562 167.9375 74.625 167.863281 C 74.644531 167.78125 74.597656 167.652344 74.484375 167.472656 L 74.203125 167.035156 L 70.859375 162.410156 L 70.515625 161.988281 C 70.390625 161.832031 70.292969 161.75 70.21875 161.738281 C 70.136719 161.730469 70.007812 161.777344 69.828125 161.878906 L 69.515625 162.082031 L 69.453125 162.128906 L 69.25 161.847656 Z M 79.738281 163.765625 C 79.644531 164.246094 79.523438 164.625 79.378906 164.90625 C 79.242188 165.179688 79.039062 165.414062 78.769531 165.609375 C 78.363281 165.902344 77.933594 166.015625 77.488281 165.953125 C 77.039062 165.890625 76.675781 165.667969 76.394531 165.28125 C 76.074219 164.835938 75.988281 164.351562 76.144531 163.828125 C 76.238281 163.484375 76.410156 163.171875 76.660156 162.890625 C 76.898438 162.601562 77.285156 162.261719 77.816406 161.875 L 77.988281 161.75 L 77.566406 161.171875 C 77.023438 160.421875 76.472656 160.25 75.910156 160.65625 C 75.640625 160.855469 75.464844 161.109375 75.378906 161.421875 C 75.339844 161.589844 75.40625 161.839844 75.582031 162.171875 L 75.644531 162.25 L 75.066406 162.671875 L 74.441406 161.8125 C 74.847656 161.117188 75.308594 160.578125 75.816406 160.203125 C 76.265625 159.882812 76.707031 159.730469 77.144531 159.75 C 77.414062 159.75 77.636719 159.808594 77.816406 159.921875 C 77.992188 160.027344 78.183594 160.21875 78.394531 160.5 L 79.925781 162.609375 C 80.183594 162.984375 80.402344 163.230469 80.582031 163.34375 C 80.757812 163.460938 80.929688 163.453125 81.097656 163.328125 C 81.148438 163.289062 81.214844 163.21875 81.300781 163.125 L 81.566406 163.421875 C 81.410156 163.640625 81.246094 163.8125 81.082031 163.9375 C 80.652344 164.242188 80.207031 164.183594 79.738281 163.765625 Z M 79.457031 163.796875 L 78.191406 162.03125 L 77.988281 162.1875 C 77.488281 162.542969 77.164062 162.929688 77.019531 163.34375 C 76.882812 163.75 76.945312 164.136719 77.207031 164.5 C 77.414062 164.78125 77.667969 164.949219 77.972656 165 C 78.273438 165.042969 78.554688 164.96875 78.816406 164.78125 C 79.066406 164.605469 79.277344 164.277344 79.457031 163.796875 Z M 82.421875 162.878906 L 78.234375 157.082031 L 77.890625 156.660156 C 77.765625 156.515625 77.667969 156.4375 77.59375 156.425781 C 77.511719 156.40625 77.382812 156.453125 77.203125 156.566406 L 76.890625 156.753906 L 76.8125 156.816406 L 76.609375 156.535156 L 78.28125 155.332031 L 80.484375 158.363281 C 80.414062 157.394531 80.71875 156.660156 81.40625 156.160156 C 81.9375 155.777344 82.515625 155.683594 83.140625 155.878906 C 83.765625 156.078125 84.332031 156.53125 84.84375 157.238281 C 85.414062 158.042969 85.691406 158.8125 85.671875 159.550781 C 85.648438 160.28125 85.34375 160.859375 84.75 161.285156 C 84.1875 161.691406 83.554688 161.824219 82.859375 161.675781 L 82.796875 161.707031 L 83.109375 162.378906 Z M 82.625 161.332031 C 83.320312 161.332031 83.875 161.1875 84.28125 160.894531 C 84.675781 160.613281 84.851562 160.238281 84.8125 159.769531 C 84.769531 159.292969 84.53125 158.75 84.09375 158.144531 C 83.601562 157.46875 83.144531 157.03125 82.71875 156.832031 C 82.289062 156.636719 81.882812 156.675781 81.5 156.957031 C 81.261719 157.125 81.074219 157.363281 80.9375 157.675781 C 80.792969 157.988281 80.714844 158.324219 80.703125 158.675781 Z M 91.246094 156.105469 C 90.859375 156.722656 90.441406 157.191406 89.996094 157.511719 C 89.296875 158.011719 88.5625 158.183594 87.792969 158.027344 C 87.023438 157.871094 86.371094 157.425781 85.839844 156.683594 C 85.320312 155.964844 85.089844 155.242188 85.152344 154.511719 C 85.207031 153.773438 85.539062 153.183594 86.152344 152.746094 C 86.714844 152.339844 87.28125 152.222656 87.855469 152.386719 C 88.4375 152.542969 88.984375 152.976562 89.496094 153.683594 L 89.558594 153.777344 L 86.667969 155.855469 C 87.136719 156.503906 87.578125 156.925781 87.996094 157.121094 C 88.640625 157.433594 89.246094 157.382812 89.808594 156.964844 C 90.347656 156.589844 90.722656 156.160156 90.933594 155.667969 Z M 86.480469 155.574219 L 88.449219 154.152344 L 88.324219 153.964844 C 88.074219 153.621094 87.871094 153.382812 87.714844 153.246094 C 87.566406 153.101562 87.410156 152.996094 87.246094 152.933594 C 86.902344 152.808594 86.585938 152.847656 86.292969 153.042969 C 85.972656 153.285156 85.832031 153.632812 85.871094 154.089844 C 85.902344 154.550781 86.105469 155.042969 86.480469 155.574219 Z M 88.722656 147.800781 L 92.878906 153.550781 C 93.042969 153.792969 93.214844 153.984375 93.394531 154.128906 C 93.457031 154.191406 93.519531 154.222656 93.582031 154.222656 C 93.652344 154.214844 93.761719 154.160156 93.910156 154.066406 L 94.207031 153.863281 L 94.316406 153.816406 L 94.503906 154.082031 L 92.035156 155.863281 L 91.847656 155.597656 L 91.894531 155.535156 L 92.191406 155.300781 C 92.335938 155.175781 92.417969 155.078125 92.441406 155.003906 C 92.460938 154.921875 92.414062 154.792969 92.300781 154.613281 L 92.019531 154.175781 L 88.675781 149.550781 L 88.332031 149.128906 C 88.207031 148.972656 88.109375 148.890625 88.035156 148.878906 C 87.953125 148.871094 87.824219 148.917969 87.644531 149.019531 L 87.332031 149.222656 L 87.269531 149.269531 L 87.066406 148.988281 Z M 100.496094 149.714844 C 100.339844 149.964844 100.160156 150.164062 99.964844 150.308594 C 99.515625 150.632812 99.082031 150.769531 98.667969 150.714844 C 98.417969 150.695312 98.203125 150.617188 98.027344 150.480469 C 97.847656 150.335938 97.636719 150.089844 97.386719 149.746094 L 95.292969 146.855469 L 94.589844 147.355469 L 94.339844 147.011719 L 95.042969 146.511719 L 94.417969 145.636719 L 95.121094 144.808594 L 95.902344 145.886719 L 97.214844 144.949219 L 97.464844 145.292969 L 96.152344 146.230469 L 98.324219 149.230469 C 98.613281 149.648438 98.847656 149.898438 99.027344 149.980469 C 99.296875 150.105469 99.566406 150.070312 99.839844 149.871094 C 99.972656 149.769531 100.105469 149.601562 100.230469 149.371094 Z M 104.980469 146.191406 C 104.59375 146.808594 104.175781 147.277344 103.730469 147.597656 C 103.03125 148.097656 102.296875 148.269531 101.527344 148.113281 C 100.757812 147.957031 100.105469 147.511719 99.574219 146.769531 C 99.054688 146.050781 98.824219 145.328125 98.886719 144.597656 C 98.941406 143.859375 99.273438 143.269531 99.886719 142.832031 C 100.449219 142.425781 101.015625 142.308594 101.589844 142.472656 C 102.171875 142.628906 102.71875 143.0625 103.230469 143.769531 L 103.292969 143.863281 L 100.402344 145.941406 C 100.871094 146.589844 101.3125 147.011719 101.730469 147.207031 C 102.375 147.519531 102.980469 147.46875 103.542969 147.050781 C 104.082031 146.675781 104.457031 146.246094 104.667969 145.753906 Z M 100.214844 145.660156 L 102.183594 144.238281 L 102.058594 144.050781 C 101.808594 143.707031 101.605469 143.46875 101.449219 143.332031 C 101.300781 143.1875 101.144531 143.082031 100.980469 143.019531 C 100.636719 142.894531 100.320312 142.933594 100.027344 143.128906 C 99.707031 143.371094 99.566406 143.71875 99.605469 144.175781 C 99.636719 144.636719 99.839844 145.128906 100.214844 145.660156 Z M 105.609375 146.0625 L 105.421875 145.796875 L 105.484375 145.734375 C 105.640625 145.609375 105.726562 145.390625 105.75 145.078125 L 105.828125 144.203125 L 105.984375 142.3125 L 104.03125 141.75 L 103.234375 141.515625 C 103.015625 141.464844 102.867188 141.4375 102.78125 141.4375 C 102.699219 141.4375 102.589844 141.480469 102.453125 141.5625 L 102.359375 141.640625 L 102.171875 141.375 L 104.3125 139.828125 L 104.5 140.09375 L 104.421875 140.140625 L 104.25 140.28125 C 104.0625 140.417969 103.996094 140.53125 104.046875 140.625 C 104.089844 140.667969 104.429688 140.796875 105.0625 141.015625 L 106.40625 141.4375 L 106.40625 140.046875 C 106.40625 139.871094 106.390625 139.664062 106.359375 139.421875 C 106.335938 139.183594 106.3125 139.042969 106.28125 139 C 106.21875 138.917969 106.109375 138.933594 105.953125 139.046875 L 105.796875 139.15625 L 105.6875 139.234375 L 105.5 138.96875 L 107.015625 137.875 L 107.203125 138.140625 L 107.109375 138.203125 C 107.003906 138.289062 106.925781 138.382812 106.875 138.484375 C 106.832031 138.589844 106.816406 138.734375 106.828125 138.921875 C 106.816406 139.226562 106.804688 139.5 106.796875 139.75 L 106.71875 141.515625 L 108.71875 142.109375 C 109.195312 142.257812 109.546875 142.339844 109.765625 142.359375 C 109.992188 142.371094 110.175781 142.335938 110.3125 142.25 L 110.390625 142.21875 L 110.578125 142.484375 L 108.421875 144.03125 L 108.234375 143.765625 L 108.3125 143.703125 L 108.5 143.5625 C 108.71875 143.398438 108.800781 143.28125 108.75 143.21875 C 108.738281 143.199219 108.703125 143.1875 108.640625 143.1875 C 108.597656 143.167969 108.523438 143.132812 108.421875 143.078125 C 108.179688 142.996094 107.945312 142.917969 107.71875 142.84375 L 106.296875 142.40625 L 106.25 143.90625 L 106.25 144.375 L 106.234375 144.859375 C 106.242188 144.921875 106.253906 144.964844 106.265625 144.984375 C 106.328125 145.070312 106.460938 145.03125 106.671875 144.875 L 106.859375 144.765625 L 106.96875 144.6875 L 107.15625 144.953125 Z M 113.6875 140.195312 C 113.53125 140.445312 113.351562 140.644531 113.15625 140.789062 C 112.707031 141.113281 112.273438 141.25 111.859375 141.195312 C 111.609375 141.175781 111.394531 141.097656 111.21875 140.960938 C 111.039062 140.816406 110.828125 140.570312 110.578125 140.226562 L 108.484375 137.335938 L 107.78125 137.835938 L 107.53125 137.492188 L 108.234375 136.992188 L 107.609375 136.117188 L 108.3125 135.289062 L 109.09375 136.367188 L 110.40625 135.429688 L 110.65625 135.773438 L 109.34375 136.710938 L 111.515625 139.710938 C 111.804688 140.128906 112.039062 140.378906 112.21875 140.460938 C 112.488281 140.585938 112.757812 140.550781 113.03125 140.351562 C 113.164062 140.25 113.296875 140.082031 113.421875 139.851562 Z M 113.6875 140.195312 "/>
<path fill="none" stroke-width="4" stroke-linecap="round" stroke-linejoin="round" stroke="rgb(100%, 100%, 100%)" stroke-opacity="1" stroke-miterlimit="10" d="M 307.039062 191.1875 L 305.648438 198.140625 C 305.59375 198.421875 305.574219 198.679688 305.585938 198.90625 C 305.585938 199.011719 305.609375 199.082031 305.664062 199.125 C 305.714844 199.164062 305.824219 199.207031 305.992188 199.25 L 306.320312 199.328125 L 306.429688 199.375 L 306.367188 199.703125 L 303.382812 199.109375 L 303.445312 198.78125 L 303.539062 198.78125 L 303.898438 198.828125 C 304.105469 198.851562 304.242188 198.84375 304.304688 198.8125 C 304.375 198.773438 304.4375 198.652344 304.492188 198.453125 L 304.617188 197.9375 L 305.742188 192.34375 L 305.820312 191.8125 C 305.839844 191.617188 305.828125 191.484375 305.789062 191.421875 C 305.746094 191.351562 305.621094 191.289062 305.414062 191.234375 L 305.070312 191.140625 L 304.976562 191.125 L 305.039062 190.796875 Z M 308.96875 200.789062 C 308.476562 200.871094 308.078125 200.890625 307.765625 200.851562 C 307.460938 200.808594 307.171875 200.695312 306.890625 200.507812 C 306.484375 200.226562 306.226562 199.859375 306.125 199.414062 C 306.03125 198.96875 306.117188 198.550781 306.390625 198.164062 C 306.703125 197.707031 307.132812 197.460938 307.6875 197.429688 C 308.03125 197.410156 308.378906 197.46875 308.734375 197.601562 C 309.097656 197.738281 309.546875 197.988281 310.078125 198.351562 L 310.265625 198.460938 L 310.671875 197.867188 C 311.179688 197.109375 311.144531 196.535156 310.5625 196.148438 C 310.300781 195.960938 310.015625 195.882812 309.703125 195.914062 C 309.503906 195.925781 309.28125 196.070312 309.03125 196.351562 L 308.984375 196.429688 L 308.390625 196.039062 L 308.984375 195.164062 C 309.785156 195.3125 310.445312 195.5625 310.96875 195.914062 C 311.425781 196.226562 311.722656 196.585938 311.859375 196.992188 C 311.941406 197.242188 311.960938 197.472656 311.921875 197.679688 C 311.878906 197.890625 311.757812 198.140625 311.5625 198.429688 L 310.09375 200.585938 C 309.832031 200.960938 309.675781 201.246094 309.625 201.445312 C 309.582031 201.652344 309.648438 201.820312 309.828125 201.945312 C 309.878906 201.976562 309.96875 202.011719 310.09375 202.054688 L 309.890625 202.398438 C 309.628906 202.324219 309.414062 202.230469 309.25 202.117188 C 308.820312 201.824219 308.726562 201.382812 308.96875 200.789062 Z M 308.828125 200.539062 L 310.0625 198.742188 L 309.84375 198.601562 C 309.34375 198.257812 308.875 198.09375 308.4375 198.101562 C 308.007812 198.113281 307.664062 198.304688 307.40625 198.679688 C 307.21875 198.960938 307.148438 199.25 307.203125 199.554688 C 307.253906 199.855469 307.414062 200.101562 307.6875 200.289062 C 307.945312 200.464844 308.328125 200.546875 308.828125 200.539062 Z M 310.160156 202.742188 L 314.847656 197.320312 L 315.160156 196.914062 C 315.273438 196.75 315.332031 196.628906 315.332031 196.554688 C 315.332031 196.472656 315.253906 196.359375 315.097656 196.210938 L 314.769531 195.882812 L 314.988281 195.617188 L 316.550781 196.960938 L 314.097656 199.804688 C 315.035156 199.523438 315.820312 199.660156 316.457031 200.210938 C 316.957031 200.640625 317.179688 201.179688 317.128906 201.835938 C 317.085938 202.480469 316.777344 203.132812 316.207031 203.789062 C 315.570312 204.527344 314.886719 204.976562 314.160156 205.132812 C 313.441406 205.289062 312.800781 205.125 312.238281 204.648438 C 311.714844 204.1875 311.445312 203.601562 311.425781 202.882812 L 311.378906 202.851562 L 310.800781 203.304688 Z M 311.707031 202.570312 C 311.863281 203.257812 312.132812 203.765625 312.519531 204.101562 C 312.882812 204.414062 313.289062 204.496094 313.738281 204.351562 C 314.195312 204.203125 314.667969 203.851562 315.160156 203.289062 C 315.699219 202.652344 316.019531 202.109375 316.113281 201.648438 C 316.207031 201.179688 316.070312 200.789062 315.707031 200.476562 C 315.488281 200.28125 315.210938 200.148438 314.878906 200.085938 C 314.542969 200.015625 314.199219 200.015625 313.847656 200.085938 Z M 318.792969 209.757812 C 318.105469 209.527344 317.550781 209.230469 317.136719 208.867188 C 316.488281 208.3125 316.152344 207.640625 316.121094 206.851562 C 316.097656 206.0625 316.386719 205.316406 316.980469 204.617188 C 317.5625 203.953125 318.214844 203.566406 318.933594 203.460938 C 319.660156 203.347656 320.3125 203.535156 320.886719 204.023438 C 321.417969 204.484375 321.667969 205.015625 321.636719 205.617188 C 321.613281 206.210938 321.316406 206.839844 320.746094 207.507812 L 320.667969 207.585938 L 317.964844 205.257812 C 317.441406 205.863281 317.136719 206.390625 317.042969 206.835938 C 316.894531 207.53125 317.089844 208.105469 317.621094 208.554688 C 318.121094 208.992188 318.628906 209.257812 319.152344 209.351562 Z M 318.214844 205.007812 L 320.058594 206.585938 L 320.214844 206.414062 C 320.484375 206.09375 320.667969 205.847656 320.761719 205.679688 C 320.863281 205.503906 320.933594 205.320312 320.964844 205.132812 C 321.003906 204.769531 320.890625 204.472656 320.621094 204.242188 C 320.308594 203.972656 319.933594 203.910156 319.496094 204.054688 C 319.066406 204.203125 318.640625 204.519531 318.214844 205.007812 Z M 326.238281 205.261719 L 321.738281 210.746094 C 321.558594 210.972656 321.417969 211.1875 321.316406 211.386719 C 321.285156 211.480469 321.273438 211.558594 321.285156 211.621094 C 321.304688 211.683594 321.382812 211.769531 321.519531 211.886719 L 321.785156 212.121094 L 321.847656 212.214844 L 321.644531 212.464844 L 319.285156 210.527344 L 319.488281 210.277344 L 319.582031 210.324219 L 319.878906 210.542969 C 320.042969 210.65625 320.164062 210.707031 320.238281 210.699219 C 320.320312 210.699219 320.429688 210.621094 320.566406 210.464844 L 320.925781 210.074219 L 324.535156 205.667969 L 324.847656 205.230469 C 324.972656 205.074219 325.027344 204.957031 325.019531 204.871094 C 325.007812 204.789062 324.929688 204.679688 324.785156 204.542969 L 324.519531 204.292969 L 324.441406 204.230469 L 324.660156 203.964844 Z M 329.421875 216.546875 C 329.117188 216.578125 328.851562 216.554688 328.625 216.484375 C 328.101562 216.316406 327.738281 216.046875 327.53125 215.671875 C 327.40625 215.453125 327.34375 215.234375 327.34375 215.015625 C 327.34375 214.789062 327.410156 214.46875 327.546875 214.0625 L 328.640625 210.671875 L 327.828125 210.40625 L 327.953125 209.984375 L 328.765625 210.25 L 329.09375 209.234375 L 330.203125 209.3125 L 329.78125 210.578125 L 331.3125 211.078125 L 331.1875 211.5 L 329.65625 211 L 328.515625 214.515625 C 328.359375 215.007812 328.296875 215.34375 328.328125 215.53125 C 328.398438 215.8125 328.597656 216.003906 328.921875 216.109375 C 329.078125 216.160156 329.285156 216.164062 329.546875 216.125 Z M 335.40625 217.550781 C 334.6875 217.695312 334.054688 217.710938 333.515625 217.597656 C 332.671875 217.441406 332.039062 217.027344 331.625 216.363281 C 331.21875 215.6875 331.101562 214.902344 331.28125 214.003906 C 331.445312 213.128906 331.820312 212.464844 332.40625 212.003906 C 332.988281 211.546875 333.644531 211.390625 334.375 211.535156 C 335.0625 211.671875 335.539062 212.011719 335.8125 212.550781 C 336.09375 213.082031 336.148438 213.777344 335.984375 214.628906 L 335.96875 214.738281 L 332.46875 214.050781 C 332.3125 214.832031 332.304688 215.441406 332.453125 215.878906 C 332.660156 216.558594 333.109375 216.957031 333.796875 217.082031 C 334.429688 217.214844 335.003906 217.195312 335.515625 217.019531 Z M 332.546875 213.707031 L 334.921875 214.175781 L 334.96875 213.941406 C 335.050781 213.527344 335.09375 213.21875 335.09375 213.019531 C 335.09375 212.824219 335.054688 212.636719 334.984375 212.457031 C 334.847656 212.125 334.601562 211.925781 334.25 211.863281 C 333.851562 211.78125 333.5 211.90625 333.1875 212.238281 C 332.882812 212.574219 332.671875 213.0625 332.546875 213.707031 Z M 335.921875 217.929688 L 335.984375 217.601562 L 336.078125 217.601562 C 336.273438 217.632812 336.5 217.554688 336.75 217.367188 L 337.4375 216.835938 L 338.921875 215.632812 L 338.015625 213.835938 L 337.625 213.085938 C 337.519531 212.890625 337.4375 212.765625 337.375 212.710938 C 337.320312 212.648438 337.21875 212.597656 337.0625 212.554688 L 336.953125 212.539062 L 337.015625 212.210938 L 339.609375 212.710938 L 339.546875 213.039062 L 339.453125 213.023438 L 339.21875 212.992188 C 338.988281 212.953125 338.863281 212.976562 338.84375 213.070312 C 338.832031 213.132812 338.972656 213.472656 339.265625 214.085938 L 339.859375 215.351562 L 340.875 214.414062 C 341 214.300781 341.140625 214.148438 341.296875 213.960938 C 341.453125 213.765625 341.535156 213.640625 341.546875 213.585938 C 341.566406 213.492188 341.484375 213.429688 341.296875 213.398438 L 341.109375 213.351562 L 340.984375 213.335938 L 341.046875 213.007812 L 342.875 213.367188 L 342.8125 213.695312 L 342.703125 213.664062 C 342.554688 213.65625 342.429688 213.664062 342.328125 213.695312 C 342.234375 213.726562 342.117188 213.8125 341.984375 213.945312 C 341.753906 214.15625 341.546875 214.335938 341.359375 214.492188 L 340.03125 215.648438 L 340.9375 217.507812 C 341.164062 217.953125 341.34375 218.261719 341.46875 218.429688 C 341.601562 218.605469 341.753906 218.714844 341.921875 218.757812 L 342 218.789062 L 341.9375 219.117188 L 339.328125 218.601562 L 339.390625 218.273438 L 339.71875 218.320312 C 339.988281 218.371094 340.132812 218.359375 340.15625 218.289062 C 340.15625 218.265625 340.140625 218.234375 340.109375 218.195312 C 340.085938 218.140625 340.054688 218.0625 340.015625 217.960938 C 339.921875 217.710938 339.828125 217.488281 339.734375 217.289062 L 339.078125 215.945312 L 337.953125 216.929688 L 337.578125 217.242188 L 337.25 217.570312 C 337.207031 217.625 337.179688 217.660156 337.171875 217.679688 C 337.148438 217.773438 337.265625 217.847656 337.515625 217.898438 L 337.734375 217.945312 L 337.859375 217.976562 L 337.796875 218.304688 Z M 345.714844 219.832031 C 345.433594 219.894531 345.171875 219.898438 344.933594 219.847656 C 344.390625 219.742188 344 219.511719 343.761719 219.160156 C 343.605469 218.972656 343.511719 218.765625 343.480469 218.535156 C 343.457031 218.308594 343.488281 217.984375 343.574219 217.566406 L 344.261719 214.082031 L 343.417969 213.925781 L 343.496094 213.488281 L 344.339844 213.644531 L 344.542969 212.597656 L 345.652344 212.566406 L 345.386719 213.863281 L 346.964844 214.175781 L 346.886719 214.613281 L 345.308594 214.300781 L 344.589844 217.925781 C 344.484375 218.425781 344.464844 218.765625 344.527344 218.941406 C 344.628906 219.210938 344.847656 219.378906 345.183594 219.441406 C 345.347656 219.480469 345.558594 219.472656 345.808594 219.410156 Z M 345.714844 219.832031 "/>
<path fill-rule="nonzero" fill="rgb(0%, 0%, 0%)" fill-opacity="1" d="M 307.039062 191.1875 L 305.648438 198.140625 C 305.59375 198.421875 305.574219 198.679688 305.585938 198.90625 C 305.585938 199.011719 305.609375 199.082031 305.664062 199.125 C 305.714844 199.164062 305.824219 199.207031 305.992188 199.25 L 306.320312 199.328125 L 306.429688 199.375 L 306.367188 199.703125 L 303.382812 199.109375 L 303.445312 198.78125 L 303.539062 198.78125 L 303.898438 198.828125 C 304.105469 198.851562 304.242188 198.84375 304.304688 198.8125 C 304.375 198.773438 304.4375 198.652344 304.492188 198.453125 L 304.617188 197.9375 L 305.742188 192.34375 L 305.820312 191.8125 C 305.839844 191.617188 305.828125 191.484375 305.789062 191.421875 C 305.746094 191.351562 305.621094 191.289062 305.414062 191.234375 L 305.070312 191.140625 L 304.976562 191.125 L 305.039062 190.796875 Z M 308.96875 200.789062 C 308.476562 200.871094 308.078125 200.890625 307.765625 200.851562 C 307.460938 200.808594 307.171875 200.695312 306.890625 200.507812 C 306.484375 200.226562 306.226562 199.859375 306.125 199.414062 C 306.03125 198.96875 306.117188 198.550781 306.390625 198.164062 C 306.703125 197.707031 307.132812 197.460938 307.6875 197.429688 C 308.03125 197.410156 308.378906 197.46875 308.734375 197.601562 C 309.097656 197.738281 309.546875 197.988281 310.078125 198.351562 L 310.265625 198.460938 L 310.671875 197.867188 C 311.179688 197.109375 311.144531 196.535156 310.5625 196.148438 C 310.300781 195.960938 310.015625 195.882812 309.703125 195.914062 C 309.503906 195.925781 309.28125 196.070312 309.03125 196.351562 L 308.984375 196.429688 L 308.390625 196.039062 L 308.984375 195.164062 C 309.785156 195.3125 310.445312 195.5625 310.96875 195.914062 C 311.425781 196.226562 311.722656 196.585938 311.859375 196.992188 C 311.941406 197.242188 311.960938 197.472656 311.921875 197.679688 C 311.878906 197.890625 311.757812 198.140625 311.5625 198.429688 L 310.09375 200.585938 C 309.832031 200.960938 309.675781 201.246094 309.625 201.445312 C 309.582031 201.652344 309.648438 201.820312 309.828125 201.945312 C 309.878906 201.976562 309.96875 202.011719 310.09375 202.054688 L 309.890625 202.398438 C 309.628906 202.324219 309.414062 202.230469 309.25 202.117188 C 308.820312 201.824219 308.726562 201.382812 308.96875 200.789062 Z M 308.828125 200.539062 L 310.0625 198.742188 L 309.84375 198.601562 C 309.34375 198.257812 308.875 198.09375 308.4375 198.101562 C 308.007812 198.113281 307.664062 198.304688 307.40625 198.679688 C 307.21875 198.960938 307.148438 199.25 307.203125 199.554688 C 307.253906 199.855469 307.414062 200.101562 307.6875 200.289062 C 307.945312 200.464844 308.328125 200.546875 308.828125 200.539062 Z M 310.160156 202.742188 L 314.847656 197.320312 L 315.160156 196.914062 C 315.273438 196.75 315.332031 196.628906 315.332031 196.554688 C 315.332031 196.472656 315.253906 196.359375 315.097656 196.210938 L 314.769531 195.882812 L 314.988281 195.617188 L 316.550781 196.960938 L 314.097656 199.804688 C 315.035156 199.523438 315.820312 199.660156 316.457031 200.210938 C 316.957031 200.640625 317.179688 201.179688 317.128906 201.835938 C 317.085938 202.480469 316.777344 203.132812 316.207031 203.789062 C 315.570312 204.527344 314.886719 204.976562 314.160156 205.132812 C 313.441406 205.289062 312.800781 205.125 312.238281 204.648438 C 311.714844 204.1875 311.445312 203.601562 311.425781 202.882812 L 311.378906 202.851562 L 310.800781 203.304688 Z M 311.707031 202.570312 C 311.863281 203.257812 312.132812 203.765625 312.519531 204.101562 C 312.882812 204.414062 313.289062 204.496094 313.738281 204.351562 C 314.195312 204.203125 314.667969 203.851562 315.160156 203.289062 C 315.699219 202.652344 316.019531 202.109375 316.113281 201.648438 C 316.207031 201.179688 316.070312 200.789062 315.707031 200.476562 C 315.488281 200.28125 315.210938 200.148438 314.878906 200.085938 C 314.542969 200.015625 314.199219 200.015625 313.847656 200.085938 Z M 318.792969 209.757812 C 318.105469 209.527344 317.550781 209.230469 317.136719 208.867188 C 316.488281 208.3125 316.152344 207.640625 316.121094 206.851562 C 316.097656 206.0625 316.386719 205.316406 316.980469 204.617188 C 317.5625 203.953125 318.214844 203.566406 318.933594 203.460938 C 319.660156 203.347656 320.3125 203.535156 320.886719 204.023438 C 321.417969 204.484375 321.667969 205.015625 321.636719 205.617188 C 321.613281 206.210938 321.316406 206.839844 320.746094 207.507812 L 320.667969 207.585938 L 317.964844 205.257812 C 317.441406 205.863281 317.136719 206.390625 317.042969 206.835938 C 316.894531 207.53125 317.089844 208.105469 317.621094 208.554688 C 318.121094 208.992188 318.628906 209.257812 319.152344 209.351562 Z M 318.214844 205.007812 L 320.058594 206.585938 L 320.214844 206.414062 C 320.484375 206.09375 320.667969 205.847656 320.761719 205.679688 C 320.863281 205.503906 320.933594 205.320312 320.964844 205.132812 C 321.003906 204.769531 320.890625 204.472656 320.621094 204.242188 C 320.308594 203.972656 319.933594 203.910156 319.496094 204.054688 C 319.066406 204.203125 318.640625 204.519531 318.214844 205.007812 Z M 326.238281 205.261719 L 321.738281 210.746094 C 321.558594 210.972656 321.417969 211.1875 321.316406 211.386719 C 321.285156 211.480469 321.273438 211.558594 321.285156 211.621094 C 321.304688 211.683594 321.382812 211.769531 321.519531 211.886719 L 321.785156 212.121094 L 321.847656 212.214844 L 321.644531 212.464844 L 319.285156 210.527344 L 319.488281 210.277344 L 319.582031 210.324219 L 319.878906 210.542969 C 320.042969 210.65625 320.164062 210.707031 320.238281 210.699219 C 320.320312 210.699219 320.429688 210.621094 320.566406 210.464844 L 320.925781 210.074219 L 324.535156 205.667969 L 324.847656 205.230469 C 324.972656 205.074219 325.027344 204.957031 325.019531 204.871094 C 325.007812 204.789062 324.929688 204.679688 324.785156 204.542969 L 324.519531 204.292969 L 324.441406 204.230469 L 324.660156 203.964844 Z M 329.421875 216.546875 C 329.117188 216.578125 328.851562 216.554688 328.625 216.484375 C 328.101562 216.316406 327.738281 216.046875 327.53125 215.671875 C 327.40625 215.453125 327.34375 215.234375 327.34375 215.015625 C 327.34375 214.789062 327.410156 214.46875 327.546875 214.0625 L 328.640625 210.671875 L 327.828125 210.40625 L 327.953125 209.984375 L 328.765625 210.25 L 329.09375 209.234375 L 330.203125 209.3125 L 329.78125 210.578125 L 331.3125 211.078125 L 331.1875 211.5 L 329.65625 211 L 328.515625 214.515625 C 328.359375 215.007812 328.296875 215.34375 328.328125 215.53125 C 328.398438 215.8125 328.597656 216.003906 328.921875 216.109375 C 329.078125 216.160156 329.285156 216.164062 329.546875 216.125 Z M 335.40625 217.550781 C 334.6875 217.695312 334.054688 217.710938 333.515625 217.597656 C 332.671875 217.441406 332.039062 217.027344 331.625 216.363281 C 331.21875 215.6875 331.101562 214.902344 331.28125 214.003906 C 331.445312 213.128906 331.820312 212.464844 332.40625 212.003906 C 332.988281 211.546875 333.644531 211.390625 334.375 211.535156 C 335.0625 211.671875 335.539062 212.011719 335.8125 212.550781 C 336.09375 213.082031 336.148438 213.777344 335.984375 214.628906 L 335.96875 214.738281 L 332.46875 214.050781 C 332.3125 214.832031 332.304688 215.441406 332.453125 215.878906 C 332.660156 216.558594 333.109375 216.957031 333.796875 217.082031 C 334.429688 217.214844 335.003906 217.195312 335.515625 217.019531 Z M 332.546875 213.707031 L 334.921875 214.175781 L 334.96875 213.941406 C 335.050781 213.527344 335.09375 213.21875 335.09375 213.019531 C 335.09375 212.824219 335.054688 212.636719 334.984375 212.457031 C 334.847656 212.125 334.601562 211.925781 334.25 211.863281 C 333.851562 211.78125 333.5 211.90625 333.1875 212.238281 C 332.882812 212.574219 332.671875 213.0625 332.546875 213.707031 Z M 335.921875 217.929688 L 335.984375 217.601562 L 336.078125 217.601562 C 336.273438 217.632812 336.5 217.554688 336.75 217.367188 L 337.4375 216.835938 L 338.921875 215.632812 L 338.015625 213.835938 L 337.625 213.085938 C 337.519531 212.890625 337.4375 212.765625 337.375 212.710938 C 337.320312 212.648438 337.21875 212.597656 337.0625 212.554688 L 336.953125 212.539062 L 337.015625 212.210938 L 339.609375 212.710938 L 339.546875 213.039062 L 339.453125 213.023438 L 339.21875 212.992188 C 338.988281 212.953125 338.863281 212.976562 338.84375 213.070312 C 338.832031 213.132812 338.972656 213.472656 339.265625 214.085938 L 339.859375 215.351562 L 340.875 214.414062 C 341 214.300781 341.140625 214.148438 341.296875 213.960938 C 341.453125 213.765625 341.535156 213.640625 341.546875 213.585938 C 341.566406 213.492188 341.484375 213.429688 341.296875 213.398438 L 341.109375 213.351562 L 340.984375 213.335938 L 341.046875 213.007812 L 342.875 213.367188 L 342.8125 213.695312 L 342.703125 213.664062 C 342.554688 213.65625 342.429688 213.664062 342.328125 213.695312 C 342.234375 213.726562 342.117188 213.8125 341.984375 213.945312 C 341.753906 214.15625 341.546875 214.335938 341.359375 214.492188 L 340.03125 215.648438 L 340.9375 217.507812 C 341.164062 217.953125 341.34375 218.261719 341.46875 218.429688 C 341.601562 218.605469 341.753906 218.714844 341.921875 218.757812 L 342 218.789062 L 341.9375 219.117188 L 339.328125 218.601562 L 339.390625 218.273438 L 339.71875 218.320312 C 339.988281 218.371094 340.132812 218.359375 340.15625 218.289062 C 340.15625 218.265625 340.140625 218.234375 340.109375 218.195312 C 340.085938 218.140625 340.054688 218.0625 340.015625 217.960938 C 339.921875 217.710938 339.828125 217.488281 339.734375 217.289062 L 339.078125 215.945312 L 337.953125 216.929688 L 337.578125 217.242188 L 337.25 217.570312 C 337.207031 217.625 337.179688 217.660156 337.171875 217.679688 C 337.148438 217.773438 337.265625 217.847656 337.515625 217.898438 L 337.734375 217.945312 L 337.859375 217.976562 L 337.796875 218.304688 Z M 345.714844 219.832031 C 345.433594 219.894531 345.171875 219.898438 344.933594 219.847656 C 344.390625 219.742188 344 219.511719 343.761719 219.160156 C 343.605469 218.972656 343.511719 218.765625 343.480469 218.535156 C 343.457031 218.308594 343.488281 217.984375 343.574219 217.566406 L 344.261719 214.082031 L 343.417969 213.925781 L 343.496094 213.488281 L 344.339844 213.644531 L 344.542969 212.597656 L 345.652344 212.566406 L 345.386719 213.863281 L 346.964844 214.175781 L 346.886719 214.613281 L 345.308594 214.300781 L 344.589844 217.925781 C 344.484375 218.425781 344.464844 218.765625 344.527344 218.941406 C 344.628906 219.210938 344.847656 219.378906 345.183594 219.441406 C 345.347656 219.480469 345.558594 219.472656 345.808594 219.410156 Z M 345.714844 219.832031 "/>
</svg>
