<?xml version="1.0" encoding="UTF-8"?>
<svg xmlns="http://www.w3.org/2000/svg" xmlns:xlink="http://www.w3.org/1999/xlink" width="150" height="150" viewBox="0 0 150 150">
<defs>
<filter id="filter-remove-color-and-invert-alpha" x="0%" y="0%" width="100%" height="100%">
<feColorMatrix color-interpolation-filters="sRGB" values="0 0 0 0 1 0 0 0 0 1 0 0 0 0 1 0 0 0 -1 1"/>
</filter>
<filter id="filter-0" x="0%" y="0%" width="100%" height="100%">
<feImage xlink:href="#compositing-group-1" result="source" x="0" y="0" width="180" height="180"/>
<feImage xlink:href="#compositing-group-2" result="destination" x="0" y="0" width="180" height="180"/>
<feComposite in="source" in2="destination" operator="arithmetic" k1="0" k2="1" k3="1" k4="0" color-interpolation-filters="sRGB"/>
</filter>
<g id="compositing-group-0" transform="translate(15, 15)">
<rect x="-15" y="-15" width="180" height="180" fill="rgb(0%, 0%, 0%)" fill-opacity="0"/>
<rect x="-15" y="-15" width="180" height="180" fill="rgb(100%, 100%, 100%)" fill-opacity="1"/>
</g>
<mask id="mask-0">
<use xlink:href="#compositing-group-0"/>
</mask>
<mask id="mask-1">
<use xlink:href="#compositing-group-0" filter="url(#filter-remove-color-and-invert-alpha)"/>
</mask>
<g id="compositing-group-1" mask="url(#mask-0)">
<g transform="translate(15, 15)">
<rect x="-15" y="-15" width="180" height="180" fill="rgb(100%, 100%, 100%)" fill-opacity="1"/>
</g>
</g>
<g id="compositing-group-2" mask="url(#mask-1)">
<g transform="translate(15, 15)">
</g>
</g>
</defs>
<g filter="url(#filter-0)" transform="translate(-15, -15)">
<rect x="0" y="0" width="180" height="180" fill="rgb(0%, 0%, 0%)" fill-opacity="1"/>
</g>
<path fill-rule="nonzero" fill="rgb(100%, 0%, 0%)" fill-opacity="1" d="M 91.503906 8.484375 C 91.503906 12.484375 85.503906 12.484375 85.503906 8.484375 C 85.503906 4.484375 91.503906 4.484375 91.503906 8.484375 "/>
<path fill-rule="nonzero" fill="rgb(0%, 0%, 0%)" fill-opacity="1" d="M 74.292969 21.96875 C 74.699219 22.195312 75.246094 22.394531 75.933594 22.5625 C 76.621094 22.726562 77.394531 22.84375 78.261719 22.90625 L 76.917969 23.5625 C 76.34375 23.394531 75.878906 23.226562 75.527344 23.0625 C 75.183594 22.90625 74.6875 22.628906 74.042969 22.234375 L 73.808594 22.09375 C 73.546875 22.144531 73.292969 22.171875 73.042969 22.171875 C 71.886719 22.171875 70.972656 21.796875 70.308594 21.046875 C 69.652344 20.296875 69.324219 19.28125 69.324219 18 C 69.324219 16.710938 69.652344 15.695312 70.308594 14.953125 C 70.972656 14.203125 71.886719 13.828125 73.042969 13.828125 C 74.1875 13.828125 75.09375 14.199219 75.761719 14.9375 C 76.425781 15.679688 76.761719 16.6875 76.761719 17.96875 C 76.761719 20.074219 75.9375 21.40625 74.292969 21.96875 Z M 75.558594 18.046875 C 75.558594 16.820312 75.339844 15.871094 74.902344 15.203125 C 74.464844 14.527344 73.84375 14.1875 73.042969 14.1875 C 72.25 14.1875 71.628906 14.523438 71.183594 15.1875 C 70.746094 15.855469 70.527344 16.792969 70.527344 18 C 70.527344 19.199219 70.746094 20.132812 71.183594 20.796875 C 71.628906 21.464844 72.25 21.796875 73.042969 21.796875 C 73.824219 21.796875 74.4375 21.464844 74.886719 20.796875 C 75.332031 20.132812 75.558594 19.214844 75.558594 18.046875 Z M 82.027344 21.96875 L 82.027344 20.875 C 81.777344 21.261719 81.464844 21.5625 81.089844 21.78125 C 80.714844 22 80.328125 22.109375 79.933594 22.109375 C 79.433594 22.109375 79.035156 21.945312 78.746094 21.609375 C 78.464844 21.277344 78.324219 20.824219 78.324219 20.25 L 78.324219 17.53125 L 78.292969 17 C 78.269531 16.792969 78.234375 16.664062 78.183594 16.609375 C 78.128906 16.546875 78 16.511719 77.792969 16.5 L 77.433594 16.46875 L 77.324219 16.46875 L 77.324219 16.140625 L 79.371094 16.140625 L 79.371094 20.078125 C 79.371094 20.570312 79.441406 20.917969 79.589844 21.125 C 79.734375 21.324219 79.984375 21.421875 80.339844 21.421875 C 80.578125 21.421875 80.859375 21.339844 81.183594 21.171875 C 81.515625 20.996094 81.796875 20.777344 82.027344 20.515625 L 82.027344 17.53125 L 81.996094 17 C 81.984375 16.792969 81.949219 16.664062 81.886719 16.609375 C 81.832031 16.546875 81.703125 16.511719 81.496094 16.5 L 81.136719 16.46875 L 81.042969 16.46875 L 81.042969 16.140625 L 83.089844 16.140625 L 83.089844 20.578125 L 83.121094 21.109375 C 83.128906 21.320312 83.160156 21.449219 83.214844 21.5 C 83.277344 21.554688 83.410156 21.589844 83.621094 21.609375 L 83.980469 21.625 L 84.089844 21.640625 L 84.089844 21.96875 Z M 89.542969 21.703125 C 88.863281 21.972656 88.25 22.109375 87.699219 22.109375 C 86.84375 22.109375 86.144531 21.824219 85.605469 21.25 C 85.074219 20.667969 84.808594 19.917969 84.808594 19 C 84.808594 18.117188 85.046875 17.398438 85.527344 16.84375 C 86.003906 16.28125 86.621094 16 87.371094 16 C 88.066406 16 88.605469 16.234375 88.980469 16.703125 C 89.355469 17.171875 89.542969 17.84375 89.542969 18.71875 L 89.542969 18.828125 L 85.980469 18.828125 C 85.980469 19.632812 86.089844 20.230469 86.308594 20.625 C 86.652344 21.25 87.171875 21.5625 87.871094 21.5625 C 88.527344 21.5625 89.082031 21.429688 89.542969 21.15625 Z M 85.996094 18.484375 L 88.417969 18.484375 L 88.417969 18.25 C 88.417969 17.824219 88.394531 17.511719 88.355469 17.3125 C 88.324219 17.117188 88.253906 16.9375 88.152344 16.78125 C 87.941406 16.480469 87.660156 16.328125 87.308594 16.328125 C 86.902344 16.328125 86.578125 16.527344 86.339844 16.921875 C 86.109375 17.308594 85.996094 17.828125 85.996094 18.484375 Z M 90.964844 22.03125 L 90.964844 14.875 L 90.933594 14.34375 C 90.921875 14.148438 90.886719 14.023438 90.824219 13.96875 C 90.769531 13.90625 90.640625 13.871094 90.433594 13.859375 L 90.074219 13.828125 L 89.964844 13.828125 L 89.964844 13.484375 L 92.027344 13.484375 L 92.027344 17.234375 C 92.546875 16.414062 93.230469 16 94.074219 16 C 94.730469 16 95.25 16.261719 95.636719 16.78125 C 96.03125 17.304688 96.230469 18 96.230469 18.875 C 96.230469 19.855469 96.003906 20.640625 95.558594 21.234375 C 95.109375 21.820312 94.515625 22.109375 93.777344 22.109375 C 93.089844 22.109375 92.503906 21.84375 92.027344 21.3125 L 91.964844 21.3125 L 91.824219 22.03125 Z M 92.027344 20.890625 C 92.589844 21.308594 93.125 21.515625 93.636719 21.515625 C 94.113281 21.515625 94.480469 21.3125 94.730469 20.90625 C 94.980469 20.5 95.105469 19.921875 95.105469 19.171875 C 95.105469 18.339844 94.984375 17.71875 94.746094 17.3125 C 94.515625 16.898438 94.160156 16.6875 93.683594 16.6875 C 93.390625 16.6875 93.09375 16.773438 92.792969 16.9375 C 92.5 17.105469 92.246094 17.328125 92.027344 17.609375 Z M 102.089844 21.703125 C 101.410156 21.972656 100.796875 22.109375 100.246094 22.109375 C 99.390625 22.109375 98.691406 21.824219 98.152344 21.25 C 97.621094 20.667969 97.355469 19.917969 97.355469 19 C 97.355469 18.117188 97.59375 17.398438 98.074219 16.84375 C 98.550781 16.28125 99.167969 16 99.917969 16 C 100.613281 16 101.152344 16.234375 101.527344 16.703125 C 101.902344 17.171875 102.089844 17.84375 102.089844 18.71875 L 102.089844 18.828125 L 98.527344 18.828125 C 98.527344 19.632812 98.636719 20.230469 98.855469 20.625 C 99.199219 21.25 99.71875 21.5625 100.417969 21.5625 C 101.074219 21.5625 101.628906 21.429688 102.089844 21.15625 Z M 98.542969 18.484375 L 100.964844 18.484375 L 100.964844 18.25 C 100.964844 17.824219 100.941406 17.511719 100.902344 17.3125 C 100.871094 17.117188 100.800781 16.9375 100.699219 16.78125 C 100.488281 16.480469 100.207031 16.328125 99.855469 16.328125 C 99.449219 16.328125 99.125 16.527344 98.886719 16.921875 C 98.65625 17.308594 98.542969 17.828125 98.542969 18.484375 Z M 107.683594 21.765625 C 107.128906 21.992188 106.589844 22.109375 106.058594 22.109375 C 105.203125 22.109375 104.511719 21.824219 103.980469 21.25 C 103.449219 20.679688 103.183594 19.9375 103.183594 19.03125 C 103.183594 18.117188 103.4375 17.382812 103.949219 16.828125 C 104.457031 16.277344 105.128906 16 105.964844 16 C 106.410156 16 106.984375 16.089844 107.683594 16.265625 L 107.683594 17.65625 L 107.027344 17.65625 L 107.027344 17.5625 C 107.027344 17.136719 106.957031 16.851562 106.824219 16.703125 C 106.625 16.476562 106.34375 16.359375 105.980469 16.359375 C 105.457031 16.359375 105.046875 16.59375 104.746094 17.0625 C 104.441406 17.523438 104.292969 18.152344 104.292969 18.953125 C 104.292969 19.765625 104.46875 20.40625 104.824219 20.875 C 105.1875 21.34375 105.675781 21.578125 106.292969 21.578125 C 106.824219 21.578125 107.285156 21.492188 107.683594 21.3125 Z M 107.683594 21.765625 "/>
<path fill-rule="nonzero" fill="rgb(0%, 0%, 0%)" fill-opacity="1" d="M 78.359375 2.261719 L 88.65625 8.214844 L 88.34375 8.761719 L 78.046875 2.808594 Z M 78.359375 2.261719 "/>
<path fill-rule="nonzero" fill="rgb(0%, 0%, 0%)" fill-opacity="1" d="M 74.316406 4.445312 L 74.316406 11.070312 L 74.347656 11.601562 C 74.355469 11.769531 74.378906 11.882812 74.410156 11.945312 C 74.441406 12 74.503906 12.035156 74.597656 12.054688 C 74.804688 12.097656 75.011719 12.117188 75.222656 12.117188 L 75.847656 12.132812 L 75.847656 12.460938 L 71.738281 12.460938 L 71.738281 12.132812 L 72.363281 12.117188 C 72.558594 12.117188 72.761719 12.097656 72.972656 12.054688 C 73.066406 12.035156 73.128906 12 73.160156 11.945312 C 73.191406 11.882812 73.210938 11.769531 73.222656 11.601562 L 73.253906 11.070312 L 73.253906 6.132812 L 73.222656 5.601562 C 73.222656 5.445312 73.207031 5.34375 73.175781 5.289062 C 73.152344 5.238281 73.097656 5.210938 73.003906 5.210938 C 72.898438 5.210938 72.652344 5.25 72.269531 5.320312 L 71.738281 5.414062 L 71.738281 5.085938 Z M 78.378906 12.476562 L 78.378906 11.132812 L 78.910156 11.132812 L 78.925781 11.257812 L 78.941406 11.664062 C 78.960938 12.101562 79.304688 12.320312 79.972656 12.320312 C 80.472656 12.320312 80.863281 12.128906 81.144531 11.742188 C 81.433594 11.359375 81.582031 10.835938 81.582031 10.179688 C 81.582031 9.421875 81.355469 8.878906 80.910156 8.554688 C 80.460938 8.222656 79.726562 8.054688 78.707031 8.054688 L 78.519531 8.054688 L 78.519531 4.507812 L 82.519531 4.507812 L 82.519531 5.429688 L 78.847656 5.429688 L 78.847656 7.664062 L 79.347656 7.664062 C 80.429688 7.664062 81.257812 7.882812 81.832031 8.320312 C 82.402344 8.757812 82.691406 9.390625 82.691406 10.210938 C 82.691406 10.984375 82.429688 11.585938 81.910156 12.023438 C 81.398438 12.453125 80.691406 12.664062 79.785156 12.664062 C 79.335938 12.664062 78.867188 12.601562 78.378906 12.476562 Z M 84.816406 12.414062 L 84.816406 11.007812 L 85.347656 11.007812 L 85.347656 11.117188 L 85.363281 11.492188 C 85.363281 11.703125 85.441406 11.863281 85.597656 11.976562 C 85.941406 12.21875 86.332031 12.335938 86.769531 12.335938 C 87.226562 12.335938 87.597656 12.15625 87.878906 11.789062 C 88.167969 11.414062 88.316406 10.921875 88.316406 10.304688 C 88.316406 9.703125 88.128906 9.234375 87.753906 8.898438 C 87.378906 8.554688 86.855469 8.382812 86.191406 8.382812 L 85.535156 8.382812 L 85.535156 8.054688 L 85.894531 8.054688 C 86.683594 8.054688 87.257812 7.914062 87.613281 7.632812 C 87.964844 7.34375 88.144531 6.878906 88.144531 6.242188 C 88.144531 5.734375 88.019531 5.335938 87.769531 5.054688 C 87.519531 4.773438 87.167969 4.632812 86.722656 4.632812 C 86.304688 4.632812 85.945312 4.722656 85.644531 4.898438 C 85.550781 4.953125 85.492188 5.015625 85.472656 5.085938 C 85.460938 5.148438 85.441406 5.375 85.410156 5.757812 L 85.394531 5.835938 L 84.863281 5.835938 L 84.863281 4.617188 C 85.433594 4.410156 86.085938 4.304688 86.816406 4.304688 C 87.554688 4.304688 88.132812 4.472656 88.550781 4.804688 C 88.976562 5.128906 89.191406 5.570312 89.191406 6.132812 C 89.191406 7.082031 88.636719 7.757812 87.535156 8.164062 C 88.210938 8.34375 88.695312 8.59375 88.988281 8.914062 C 89.289062 9.238281 89.441406 9.691406 89.441406 10.273438 C 89.441406 11.015625 89.199219 11.597656 88.722656 12.023438 C 88.242188 12.453125 87.597656 12.664062 86.785156 12.664062 C 86.023438 12.664062 85.367188 12.578125 84.816406 12.414062 Z M 84.816406 12.414062 "/>
<path fill-rule="nonzero" fill="rgb(100%, 0%, 0%)" fill-opacity="1" d="M 88.175781 95.929688 C 88.175781 99.929688 82.175781 99.929688 82.175781 95.929688 C 82.175781 91.929688 88.175781 91.929688 88.175781 95.929688 "/>
<path fill-rule="nonzero" fill="rgb(0%, 0%, 0%)" fill-opacity="1" d="M 60.808594 109.179688 L 55.886719 102.523438 L 55.886719 107.679688 C 55.886719 107.972656 55.910156 108.226562 55.964844 108.445312 C 55.984375 108.539062 56.019531 108.609375 56.074219 108.648438 C 56.125 108.679688 56.238281 108.703125 56.417969 108.710938 L 56.777344 108.726562 L 56.871094 108.742188 L 56.871094 109.070312 L 54.386719 109.070312 L 54.386719 108.742188 L 54.480469 108.726562 L 54.855469 108.710938 C 55.019531 108.703125 55.128906 108.679688 55.183594 108.648438 C 55.246094 108.609375 55.285156 108.539062 55.308594 108.445312 C 55.359375 108.226562 55.386719 107.972656 55.386719 107.679688 L 55.386719 102.507812 C 55.386719 102.21875 55.359375 101.957031 55.308594 101.726562 C 55.285156 101.632812 55.246094 101.578125 55.183594 101.554688 C 55.128906 101.523438 55.019531 101.5 54.855469 101.476562 L 54.480469 101.460938 L 54.386719 101.445312 L 54.386719 101.117188 L 56.167969 101.117188 L 60.699219 107.289062 L 60.699219 102.507812 L 60.667969 101.976562 C 60.65625 101.78125 60.621094 101.65625 60.558594 101.601562 C 60.503906 101.539062 60.375 101.5 60.167969 101.476562 L 59.808594 101.460938 L 59.714844 101.445312 L 59.714844 101.117188 L 62.183594 101.117188 L 62.183594 101.445312 L 62.089844 101.460938 L 61.714844 101.476562 C 61.515625 101.5 61.386719 101.539062 61.324219 101.601562 C 61.269531 101.65625 61.238281 101.78125 61.230469 101.976562 L 61.199219 102.507812 L 61.199219 109.179688 Z M 65.699219 109.210938 C 64.855469 109.210938 64.183594 108.9375 63.683594 108.382812 C 63.191406 107.832031 62.949219 107.085938 62.949219 106.148438 C 62.949219 105.210938 63.199219 104.472656 63.699219 103.929688 C 64.199219 103.378906 64.875 103.101562 65.730469 103.101562 C 66.59375 103.101562 67.269531 103.378906 67.761719 103.929688 C 68.261719 104.472656 68.511719 105.210938 68.511719 106.148438 C 68.511719 107.097656 68.261719 107.847656 67.761719 108.398438 C 67.261719 108.941406 66.574219 109.210938 65.699219 109.210938 Z M 65.714844 108.867188 C 66.203125 108.867188 66.605469 108.613281 66.917969 108.101562 C 67.230469 107.59375 67.386719 106.941406 67.386719 106.148438 C 67.386719 105.378906 67.222656 104.734375 66.902344 104.210938 C 66.589844 103.691406 66.199219 103.429688 65.730469 103.429688 C 65.261719 103.429688 64.863281 103.691406 64.542969 104.210938 C 64.230469 104.734375 64.074219 105.378906 64.074219 106.148438 C 64.074219 106.929688 64.230469 107.582031 64.542969 108.101562 C 64.855469 108.613281 65.246094 108.867188 65.714844 108.867188 Z M 71.808594 109.132812 L 69.917969 104.664062 C 69.71875 104.195312 69.574219 103.898438 69.480469 103.773438 C 69.394531 103.648438 69.28125 103.582031 69.136719 103.570312 L 69.042969 103.570312 L 69.042969 103.242188 L 71.574219 103.242188 L 71.574219 103.570312 L 71.183594 103.570312 C 70.902344 103.570312 70.761719 103.648438 70.761719 103.804688 C 70.761719 103.878906 70.871094 104.171875 71.089844 104.679688 L 72.402344 107.789062 L 73.761719 104.679688 C 73.96875 104.191406 74.074219 103.898438 74.074219 103.804688 C 74.074219 103.648438 73.949219 103.570312 73.699219 103.570312 L 73.308594 103.570312 L 73.308594 103.242188 L 75.042969 103.242188 L 75.042969 103.570312 L 74.933594 103.570312 C 74.808594 103.582031 74.707031 103.625 74.636719 103.695312 C 74.5625 103.769531 74.484375 103.898438 74.402344 104.085938 L 74.152344 104.679688 L 72.136719 109.132812 Z M 79.183594 108.273438 C 78.828125 108.617188 78.511719 108.863281 78.230469 109.007812 C 77.957031 109.140625 77.652344 109.210938 77.308594 109.210938 C 76.816406 109.210938 76.40625 109.054688 76.074219 108.742188 C 75.738281 108.421875 75.574219 108.023438 75.574219 107.554688 C 75.574219 107.003906 75.792969 106.554688 76.230469 106.210938 C 76.5 105.992188 76.816406 105.84375 77.183594 105.757812 C 77.558594 105.664062 78.066406 105.617188 78.714844 105.617188 L 78.933594 105.617188 L 78.933594 104.898438 C 78.933594 103.984375 78.582031 103.523438 77.886719 103.523438 C 77.5625 103.523438 77.277344 103.625 77.027344 103.820312 C 76.878906 103.9375 76.785156 104.1875 76.746094 104.570312 L 76.746094 104.664062 L 76.027344 104.664062 L 76.027344 103.601562 C 76.765625 103.269531 77.453125 103.101562 78.089844 103.101562 C 78.640625 103.101562 79.089844 103.234375 79.433594 103.492188 C 79.652344 103.660156 79.796875 103.84375 79.871094 104.039062 C 79.953125 104.226562 79.996094 104.5 79.996094 104.851562 L 79.996094 107.460938 C 79.996094 107.921875 80.03125 108.25 80.105469 108.445312 C 80.1875 108.632812 80.332031 108.726562 80.542969 108.726562 C 80.605469 108.726562 80.699219 108.710938 80.824219 108.679688 L 80.855469 109.070312 C 80.605469 109.164062 80.375 109.210938 80.167969 109.210938 C 79.644531 109.210938 79.316406 108.898438 79.183594 108.273438 Z M 78.933594 108.148438 L 78.933594 105.960938 L 78.683594 105.960938 C 78.066406 105.960938 77.582031 106.09375 77.230469 106.351562 C 76.875 106.601562 76.699219 106.953125 76.699219 107.398438 C 76.699219 107.742188 76.808594 108.023438 77.027344 108.242188 C 77.246094 108.460938 77.515625 108.570312 77.839844 108.570312 C 78.152344 108.570312 78.515625 108.429688 78.933594 108.148438 Z M 84.996094 108.914062 L 84.996094 107.382812 L 85.558594 107.382812 L 85.558594 107.476562 C 85.566406 107.65625 85.574219 107.789062 85.574219 107.882812 C 85.574219 108.0625 85.59375 108.191406 85.636719 108.273438 C 85.6875 108.347656 85.785156 108.429688 85.933594 108.523438 C 86.308594 108.753906 86.730469 108.867188 87.199219 108.867188 C 87.667969 108.867188 88.03125 108.734375 88.292969 108.460938 C 88.5625 108.191406 88.699219 107.816406 88.699219 107.335938 C 88.699219 106.941406 88.609375 106.628906 88.433594 106.398438 C 88.265625 106.160156 87.9375 105.898438 87.449219 105.617188 L 86.886719 105.289062 C 86.21875 104.925781 85.746094 104.570312 85.464844 104.226562 C 85.191406 103.882812 85.058594 103.488281 85.058594 103.039062 C 85.058594 102.4375 85.277344 101.9375 85.714844 101.539062 C 86.152344 101.132812 86.703125 100.929688 87.371094 100.929688 C 87.933594 100.929688 88.597656 101.039062 89.371094 101.257812 L 89.371094 102.679688 L 88.777344 102.679688 L 88.777344 102.585938 C 88.753906 102.390625 88.746094 102.25 88.746094 102.164062 C 88.746094 101.84375 88.652344 101.628906 88.464844 101.523438 C 88.191406 101.367188 87.84375 101.289062 87.417969 101.289062 C 87.03125 101.289062 86.71875 101.414062 86.480469 101.664062 C 86.25 101.914062 86.136719 102.25 86.136719 102.664062 C 86.136719 103.007812 86.214844 103.296875 86.371094 103.523438 C 86.535156 103.753906 86.832031 103.992188 87.261719 104.242188 L 87.824219 104.554688 C 88.605469 105.003906 89.128906 105.394531 89.402344 105.726562 C 89.683594 106.050781 89.824219 106.460938 89.824219 106.960938 C 89.824219 107.617188 89.574219 108.171875 89.074219 108.617188 C 88.582031 109.054688 87.972656 109.273438 87.246094 109.273438 C 86.878906 109.273438 86.480469 109.234375 86.042969 109.164062 C 85.605469 109.089844 85.253906 109.007812 84.996094 108.914062 Z M 95.355469 108.867188 C 94.800781 109.09375 94.261719 109.210938 93.730469 109.210938 C 92.875 109.210938 92.183594 108.925781 91.652344 108.351562 C 91.121094 107.78125 90.855469 107.039062 90.855469 106.132812 C 90.855469 105.21875 91.109375 104.484375 91.621094 103.929688 C 92.128906 103.378906 92.800781 103.101562 93.636719 103.101562 C 94.082031 103.101562 94.65625 103.191406 95.355469 103.367188 L 95.355469 104.757812 L 94.699219 104.757812 L 94.699219 104.664062 C 94.699219 104.238281 94.628906 103.953125 94.496094 103.804688 C 94.296875 103.578125 94.015625 103.460938 93.652344 103.460938 C 93.128906 103.460938 92.71875 103.695312 92.417969 104.164062 C 92.113281 104.625 91.964844 105.253906 91.964844 106.054688 C 91.964844 106.867188 92.140625 107.507812 92.496094 107.976562 C 92.859375 108.445312 93.347656 108.679688 93.964844 108.679688 C 94.496094 108.679688 94.957031 108.59375 95.355469 108.414062 Z M 99.199219 109.210938 C 98.355469 109.210938 97.683594 108.9375 97.183594 108.382812 C 96.691406 107.832031 96.449219 107.085938 96.449219 106.148438 C 96.449219 105.210938 96.699219 104.472656 97.199219 103.929688 C 97.699219 103.378906 98.375 103.101562 99.230469 103.101562 C 100.09375 103.101562 100.769531 103.378906 101.261719 103.929688 C 101.761719 104.472656 102.011719 105.210938 102.011719 106.148438 C 102.011719 107.097656 101.761719 107.847656 101.261719 108.398438 C 100.761719 108.941406 100.074219 109.210938 99.199219 109.210938 Z M 99.214844 108.867188 C 99.703125 108.867188 100.105469 108.613281 100.417969 108.101562 C 100.730469 107.59375 100.886719 106.941406 100.886719 106.148438 C 100.886719 105.378906 100.722656 104.734375 100.402344 104.210938 C 100.089844 103.691406 99.699219 103.429688 99.230469 103.429688 C 98.761719 103.429688 98.363281 103.691406 98.042969 104.210938 C 97.730469 104.734375 97.574219 105.378906 97.574219 106.148438 C 97.574219 106.929688 97.730469 107.582031 98.042969 108.101562 C 98.355469 108.613281 98.746094 108.867188 99.214844 108.867188 Z M 106.417969 109.039062 C 106.144531 109.152344 105.890625 109.210938 105.652344 109.210938 C 105.097656 109.210938 104.667969 109.066406 104.355469 108.773438 C 104.167969 108.609375 104.035156 108.421875 103.964844 108.210938 C 103.902344 107.992188 103.871094 107.671875 103.871094 107.242188 L 103.871094 103.679688 L 103.011719 103.679688 L 103.011719 103.242188 L 103.871094 103.242188 L 103.871094 102.179688 L 104.933594 101.914062 L 104.933594 103.242188 L 106.542969 103.242188 L 106.542969 103.679688 L 104.933594 103.679688 L 104.933594 107.382812 C 104.933594 107.894531 104.980469 108.234375 105.074219 108.398438 C 105.21875 108.648438 105.464844 108.773438 105.808594 108.773438 C 105.972656 108.773438 106.175781 108.71875 106.417969 108.601562 Z M 109.105469 103.242188 L 109.105469 107.679688 C 109.105469 107.972656 109.128906 108.226562 109.183594 108.445312 C 109.203125 108.539062 109.238281 108.609375 109.292969 108.648438 C 109.355469 108.679688 109.46875 108.703125 109.636719 108.710938 L 109.996094 108.726562 L 110.105469 108.742188 L 110.105469 109.070312 L 107.058594 109.070312 L 107.058594 108.742188 L 107.152344 108.726562 L 107.511719 108.710938 C 107.71875 108.691406 107.847656 108.65625 107.902344 108.601562 C 107.964844 108.550781 108 108.421875 108.011719 108.210938 L 108.042969 107.679688 L 108.042969 104.632812 L 108.011719 104.101562 C 108 103.894531 107.964844 103.765625 107.902344 103.710938 C 107.847656 103.648438 107.71875 103.613281 107.511719 103.601562 L 107.152344 103.570312 L 107.058594 103.570312 L 107.058594 103.242188 Z M 108.042969 102.179688 L 108.042969 101.117188 L 109.105469 101.117188 L 109.105469 102.179688 Z M 114.371094 108.273438 C 114.015625 108.617188 113.699219 108.863281 113.417969 109.007812 C 113.144531 109.140625 112.839844 109.210938 112.496094 109.210938 C 112.003906 109.210938 111.59375 109.054688 111.261719 108.742188 C 110.925781 108.421875 110.761719 108.023438 110.761719 107.554688 C 110.761719 107.003906 110.980469 106.554688 111.417969 106.210938 C 111.6875 105.992188 112.003906 105.84375 112.371094 105.757812 C 112.746094 105.664062 113.253906 105.617188 113.902344 105.617188 L 114.121094 105.617188 L 114.121094 104.898438 C 114.121094 103.984375 113.769531 103.523438 113.074219 103.523438 C 112.75 103.523438 112.464844 103.625 112.214844 103.820312 C 112.066406 103.9375 111.972656 104.1875 111.933594 104.570312 L 111.933594 104.664062 L 111.214844 104.664062 L 111.214844 103.601562 C 111.953125 103.269531 112.640625 103.101562 113.277344 103.101562 C 113.828125 103.101562 114.277344 103.234375 114.621094 103.492188 C 114.839844 103.660156 114.984375 103.84375 115.058594 104.039062 C 115.140625 104.226562 115.183594 104.5 115.183594 104.851562 L 115.183594 107.460938 C 115.183594 107.921875 115.21875 108.25 115.292969 108.445312 C 115.375 108.632812 115.519531 108.726562 115.730469 108.726562 C 115.792969 108.726562 115.886719 108.710938 116.011719 108.679688 L 116.042969 109.070312 C 115.792969 109.164062 115.5625 109.210938 115.355469 109.210938 C 114.832031 109.210938 114.503906 108.898438 114.371094 108.273438 Z M 114.121094 108.148438 L 114.121094 105.960938 L 113.871094 105.960938 C 113.253906 105.960938 112.769531 106.09375 112.417969 106.351562 C 112.0625 106.601562 111.886719 106.953125 111.886719 107.398438 C 111.886719 107.742188 111.996094 108.023438 112.214844 108.242188 C 112.433594 108.460938 112.703125 108.570312 113.027344 108.570312 C 113.339844 108.570312 113.703125 108.429688 114.121094 108.148438 Z M 114.121094 108.148438 "/>
<path fill-rule="nonzero" fill="rgb(0%, 0%, 0%)" fill-opacity="1" d="M 73.53125 93.546875 L 85.234375 95.609375 L 85.109375 96.234375 L 73.40625 94.171875 Z M 73.53125 93.546875 "/>
<path fill-rule="nonzero" fill="rgb(0%, 0%, 0%)" fill-opacity="1" d="M 64.300781 91.890625 L 64.300781 98.515625 L 64.332031 99.046875 C 64.339844 99.214844 64.363281 99.328125 64.394531 99.390625 C 64.425781 99.445312 64.488281 99.480469 64.582031 99.5 C 64.789062 99.542969 64.996094 99.5625 65.207031 99.5625 L 65.832031 99.578125 L 65.832031 99.90625 L 61.722656 99.90625 L 61.722656 99.578125 L 62.347656 99.5625 C 62.542969 99.5625 62.746094 99.542969 62.957031 99.5 C 63.050781 99.480469 63.113281 99.445312 63.144531 99.390625 C 63.175781 99.328125 63.195312 99.214844 63.207031 99.046875 L 63.238281 98.515625 L 63.238281 93.578125 L 63.207031 93.046875 C 63.207031 92.890625 63.191406 92.789062 63.160156 92.734375 C 63.136719 92.683594 63.082031 92.65625 62.988281 92.65625 C 62.882812 92.65625 62.636719 92.695312 62.253906 92.765625 L 61.722656 92.859375 L 61.722656 92.53125 Z M 70.988281 91.890625 L 70.988281 98.515625 L 71.019531 99.046875 C 71.027344 99.214844 71.050781 99.328125 71.082031 99.390625 C 71.113281 99.445312 71.175781 99.480469 71.269531 99.5 C 71.476562 99.542969 71.683594 99.5625 71.894531 99.5625 L 72.519531 99.578125 L 72.519531 99.90625 L 68.410156 99.90625 L 68.410156 99.578125 L 69.035156 99.5625 C 69.230469 99.5625 69.433594 99.542969 69.644531 99.5 C 69.738281 99.480469 69.800781 99.445312 69.832031 99.390625 C 69.863281 99.328125 69.882812 99.214844 69.894531 99.046875 L 69.925781 98.515625 L 69.925781 93.578125 L 69.894531 93.046875 C 69.894531 92.890625 69.878906 92.789062 69.847656 92.734375 C 69.824219 92.683594 69.769531 92.65625 69.675781 92.65625 C 69.570312 92.65625 69.324219 92.695312 68.941406 92.765625 L 68.410156 92.859375 L 68.410156 92.53125 Z M 78.707031 96.015625 C 78.433594 96.390625 78.148438 96.664062 77.847656 96.828125 C 77.554688 96.984375 77.199219 97.0625 76.785156 97.0625 C 76.097656 97.0625 75.527344 96.828125 75.082031 96.359375 C 74.644531 95.890625 74.425781 95.292969 74.425781 94.5625 C 74.425781 93.773438 74.675781 93.105469 75.175781 92.5625 C 75.675781 92.023438 76.292969 91.75 77.035156 91.75 C 77.929688 91.75 78.617188 92.105469 79.097656 92.8125 C 79.585938 93.511719 79.832031 94.507812 79.832031 95.796875 C 79.832031 97.171875 79.550781 98.234375 78.988281 98.984375 C 78.433594 99.734375 77.648438 100.109375 76.628906 100.109375 C 75.960938 100.109375 75.378906 99.988281 74.878906 99.75 L 74.878906 98.484375 L 75.410156 98.484375 L 75.410156 98.59375 L 75.441406 98.984375 C 75.449219 99.132812 75.472656 99.234375 75.503906 99.296875 C 75.542969 99.359375 75.636719 99.433594 75.785156 99.515625 C 76.085938 99.683594 76.398438 99.765625 76.722656 99.765625 C 77.347656 99.765625 77.832031 99.445312 78.175781 98.796875 C 78.527344 98.140625 78.707031 97.214844 78.707031 96.015625 Z M 78.675781 94.890625 C 78.675781 94.070312 78.507812 93.398438 78.175781 92.875 C 77.839844 92.355469 77.414062 92.09375 76.894531 92.09375 C 76.445312 92.09375 76.097656 92.304688 75.847656 92.71875 C 75.605469 93.125 75.488281 93.695312 75.488281 94.421875 C 75.488281 95.152344 75.613281 95.714844 75.863281 96.109375 C 76.113281 96.496094 76.476562 96.6875 76.957031 96.6875 C 77.414062 96.6875 77.816406 96.539062 78.160156 96.234375 C 78.503906 95.933594 78.675781 95.484375 78.675781 94.890625 Z M 81.488281 99.859375 L 81.488281 98.453125 L 82.019531 98.453125 L 82.019531 98.5625 L 82.035156 98.9375 C 82.035156 99.148438 82.113281 99.308594 82.269531 99.421875 C 82.613281 99.664062 83.003906 99.78125 83.441406 99.78125 C 83.898438 99.78125 84.269531 99.601562 84.550781 99.234375 C 84.839844 98.859375 84.988281 98.367188 84.988281 97.75 C 84.988281 97.148438 84.800781 96.679688 84.425781 96.34375 C 84.050781 96 83.527344 95.828125 82.863281 95.828125 L 82.207031 95.828125 L 82.207031 95.5 L 82.566406 95.5 C 83.355469 95.5 83.929688 95.359375 84.285156 95.078125 C 84.636719 94.789062 84.816406 94.324219 84.816406 93.6875 C 84.816406 93.179688 84.691406 92.78125 84.441406 92.5 C 84.191406 92.21875 83.839844 92.078125 83.394531 92.078125 C 82.976562 92.078125 82.617188 92.167969 82.316406 92.34375 C 82.222656 92.398438 82.164062 92.460938 82.144531 92.53125 C 82.132812 92.59375 82.113281 92.820312 82.082031 93.203125 L 82.066406 93.28125 L 81.535156 93.28125 L 81.535156 92.0625 C 82.105469 91.855469 82.757812 91.75 83.488281 91.75 C 84.226562 91.75 84.804688 91.917969 85.222656 92.25 C 85.648438 92.574219 85.863281 93.015625 85.863281 93.578125 C 85.863281 94.527344 85.308594 95.203125 84.207031 95.609375 C 84.882812 95.789062 85.367188 96.039062 85.660156 96.359375 C 85.960938 96.683594 86.113281 97.136719 86.113281 97.71875 C 86.113281 98.460938 85.871094 99.042969 85.394531 99.46875 C 84.914062 99.898438 84.269531 100.109375 83.457031 100.109375 C 82.695312 100.109375 82.039062 100.023438 81.488281 99.859375 Z M 81.488281 99.859375 "/>
<path fill-rule="nonzero" fill="rgb(100%, 0%, 0%)" fill-opacity="1" d="M 54.398438 132.390625 C 54.398438 136.390625 48.398438 136.390625 48.398438 132.390625 C 48.398438 128.390625 54.398438 128.390625 54.398438 132.390625 "/>
<path fill-rule="nonzero" fill="rgb(0%, 0%, 0%)" fill-opacity="1" d="M 27.03125 145.640625 L 22.109375 138.984375 L 22.109375 144.140625 C 22.109375 144.433594 22.132812 144.6875 22.1875 144.90625 C 22.207031 145 22.242188 145.070312 22.296875 145.109375 C 22.347656 145.140625 22.460938 145.164062 22.640625 145.171875 L 23 145.1875 L 23.09375 145.203125 L 23.09375 145.53125 L 20.609375 145.53125 L 20.609375 145.203125 L 20.703125 145.1875 L 21.078125 145.171875 C 21.242188 145.164062 21.351562 145.140625 21.40625 145.109375 C 21.46875 145.070312 21.507812 145 21.53125 144.90625 C 21.582031 144.6875 21.609375 144.433594 21.609375 144.140625 L 21.609375 138.96875 C 21.609375 138.679688 21.582031 138.417969 21.53125 138.1875 C 21.507812 138.09375 21.46875 138.039062 21.40625 138.015625 C 21.351562 137.984375 21.242188 137.960938 21.078125 137.9375 L 20.703125 137.921875 L 20.609375 137.90625 L 20.609375 137.578125 L 22.390625 137.578125 L 26.921875 143.75 L 26.921875 138.96875 L 26.890625 138.4375 C 26.878906 138.242188 26.84375 138.117188 26.78125 138.0625 C 26.726562 138 26.597656 137.960938 26.390625 137.9375 L 26.03125 137.921875 L 25.9375 137.90625 L 25.9375 137.578125 L 28.40625 137.578125 L 28.40625 137.90625 L 28.3125 137.921875 L 27.9375 137.9375 C 27.738281 137.960938 27.609375 138 27.546875 138.0625 C 27.492188 138.117188 27.460938 138.242188 27.453125 138.4375 L 27.421875 138.96875 L 27.421875 145.640625 Z M 31.921875 145.671875 C 31.078125 145.671875 30.40625 145.398438 29.90625 144.84375 C 29.414062 144.292969 29.171875 143.546875 29.171875 142.609375 C 29.171875 141.671875 29.421875 140.933594 29.921875 140.390625 C 30.421875 139.839844 31.097656 139.5625 31.953125 139.5625 C 32.816406 139.5625 33.492188 139.839844 33.984375 140.390625 C 34.484375 140.933594 34.734375 141.671875 34.734375 142.609375 C 34.734375 143.558594 34.484375 144.308594 33.984375 144.859375 C 33.484375 145.402344 32.796875 145.671875 31.921875 145.671875 Z M 31.9375 145.328125 C 32.425781 145.328125 32.828125 145.074219 33.140625 144.5625 C 33.453125 144.054688 33.609375 143.402344 33.609375 142.609375 C 33.609375 141.839844 33.445312 141.195312 33.125 140.671875 C 32.8125 140.152344 32.421875 139.890625 31.953125 139.890625 C 31.484375 139.890625 31.085938 140.152344 30.765625 140.671875 C 30.453125 141.195312 30.296875 141.839844 30.296875 142.609375 C 30.296875 143.390625 30.453125 144.042969 30.765625 144.5625 C 31.078125 145.074219 31.46875 145.328125 31.9375 145.328125 Z M 38.03125 145.59375 L 36.140625 141.125 C 35.941406 140.65625 35.796875 140.359375 35.703125 140.234375 C 35.617188 140.109375 35.503906 140.042969 35.359375 140.03125 L 35.265625 140.03125 L 35.265625 139.703125 L 37.796875 139.703125 L 37.796875 140.03125 L 37.40625 140.03125 C 37.125 140.03125 36.984375 140.109375 36.984375 140.265625 C 36.984375 140.339844 37.09375 140.632812 37.3125 141.140625 L 38.625 144.25 L 39.984375 141.140625 C 40.191406 140.652344 40.296875 140.359375 40.296875 140.265625 C 40.296875 140.109375 40.171875 140.03125 39.921875 140.03125 L 39.53125 140.03125 L 39.53125 139.703125 L 41.265625 139.703125 L 41.265625 140.03125 L 41.15625 140.03125 C 41.03125 140.042969 40.929688 140.085938 40.859375 140.15625 C 40.785156 140.230469 40.707031 140.359375 40.625 140.546875 L 40.375 141.140625 L 38.359375 145.59375 Z M 45.40625 144.734375 C 45.050781 145.078125 44.734375 145.324219 44.453125 145.46875 C 44.179688 145.601562 43.875 145.671875 43.53125 145.671875 C 43.039062 145.671875 42.628906 145.515625 42.296875 145.203125 C 41.960938 144.882812 41.796875 144.484375 41.796875 144.015625 C 41.796875 143.464844 42.015625 143.015625 42.453125 142.671875 C 42.722656 142.453125 43.039062 142.304688 43.40625 142.21875 C 43.78125 142.125 44.289062 142.078125 44.9375 142.078125 L 45.15625 142.078125 L 45.15625 141.359375 C 45.15625 140.445312 44.804688 139.984375 44.109375 139.984375 C 43.785156 139.984375 43.5 140.085938 43.25 140.28125 C 43.101562 140.398438 43.007812 140.648438 42.96875 141.03125 L 42.96875 141.125 L 42.25 141.125 L 42.25 140.0625 C 42.988281 139.730469 43.675781 139.5625 44.3125 139.5625 C 44.863281 139.5625 45.3125 139.695312 45.65625 139.953125 C 45.875 140.121094 46.019531 140.304688 46.09375 140.5 C 46.175781 140.6875 46.21875 140.960938 46.21875 141.3125 L 46.21875 143.921875 C 46.21875 144.382812 46.253906 144.710938 46.328125 144.90625 C 46.410156 145.09375 46.554688 145.1875 46.765625 145.1875 C 46.828125 145.1875 46.921875 145.171875 47.046875 145.140625 L 47.078125 145.53125 C 46.828125 145.625 46.597656 145.671875 46.390625 145.671875 C 45.867188 145.671875 45.539062 145.359375 45.40625 144.734375 Z M 45.15625 144.609375 L 45.15625 142.421875 L 44.90625 142.421875 C 44.289062 142.421875 43.804688 142.554688 43.453125 142.8125 C 43.097656 143.0625 42.921875 143.414062 42.921875 143.859375 C 42.921875 144.203125 43.03125 144.484375 43.25 144.703125 C 43.46875 144.921875 43.738281 145.03125 44.0625 145.03125 C 44.375 145.03125 44.738281 144.890625 45.15625 144.609375 Z M 51.21875 145.375 L 51.21875 143.84375 L 51.78125 143.84375 L 51.78125 143.9375 C 51.789062 144.117188 51.796875 144.25 51.796875 144.34375 C 51.796875 144.523438 51.816406 144.652344 51.859375 144.734375 C 51.910156 144.808594 52.007812 144.890625 52.15625 144.984375 C 52.53125 145.214844 52.953125 145.328125 53.421875 145.328125 C 53.890625 145.328125 54.253906 145.195312 54.515625 144.921875 C 54.785156 144.652344 54.921875 144.277344 54.921875 143.796875 C 54.921875 143.402344 54.832031 143.089844 54.65625 142.859375 C 54.488281 142.621094 54.160156 142.359375 53.671875 142.078125 L 53.109375 141.75 C 52.441406 141.386719 51.96875 141.03125 51.6875 140.6875 C 51.414062 140.34375 51.28125 139.949219 51.28125 139.5 C 51.28125 138.898438 51.5 138.398438 51.9375 138 C 52.375 137.59375 52.925781 137.390625 53.59375 137.390625 C 54.15625 137.390625 54.820312 137.5 55.59375 137.71875 L 55.59375 139.140625 L 55 139.140625 L 55 139.046875 C 54.976562 138.851562 54.96875 138.710938 54.96875 138.625 C 54.96875 138.304688 54.875 138.089844 54.6875 137.984375 C 54.414062 137.828125 54.066406 137.75 53.640625 137.75 C 53.253906 137.75 52.941406 137.875 52.703125 138.125 C 52.472656 138.375 52.359375 138.710938 52.359375 139.125 C 52.359375 139.46875 52.4375 139.757812 52.59375 139.984375 C 52.757812 140.214844 53.054688 140.453125 53.484375 140.703125 L 54.046875 141.015625 C 54.828125 141.464844 55.351562 141.855469 55.625 142.1875 C 55.90625 142.511719 56.046875 142.921875 56.046875 143.421875 C 56.046875 144.078125 55.796875 144.632812 55.296875 145.078125 C 54.804688 145.515625 54.195312 145.734375 53.46875 145.734375 C 53.101562 145.734375 52.703125 145.695312 52.265625 145.625 C 51.828125 145.550781 51.476562 145.46875 51.21875 145.375 Z M 61.578125 145.328125 C 61.023438 145.554688 60.484375 145.671875 59.953125 145.671875 C 59.097656 145.671875 58.40625 145.386719 57.875 144.8125 C 57.34375 144.242188 57.078125 143.5 57.078125 142.59375 C 57.078125 141.679688 57.332031 140.945312 57.84375 140.390625 C 58.351562 139.839844 59.023438 139.5625 59.859375 139.5625 C 60.304688 139.5625 60.878906 139.652344 61.578125 139.828125 L 61.578125 141.21875 L 60.921875 141.21875 L 60.921875 141.125 C 60.921875 140.699219 60.851562 140.414062 60.71875 140.265625 C 60.519531 140.039062 60.238281 139.921875 59.875 139.921875 C 59.351562 139.921875 58.941406 140.15625 58.640625 140.625 C 58.335938 141.085938 58.1875 141.714844 58.1875 142.515625 C 58.1875 143.328125 58.363281 143.96875 58.71875 144.4375 C 59.082031 144.90625 59.570312 145.140625 60.1875 145.140625 C 60.71875 145.140625 61.179688 145.054688 61.578125 144.875 Z M 65.421875 145.671875 C 64.578125 145.671875 63.90625 145.398438 63.40625 144.84375 C 62.914062 144.292969 62.671875 143.546875 62.671875 142.609375 C 62.671875 141.671875 62.921875 140.933594 63.421875 140.390625 C 63.921875 139.839844 64.597656 139.5625 65.453125 139.5625 C 66.316406 139.5625 66.992188 139.839844 67.484375 140.390625 C 67.984375 140.933594 68.234375 141.671875 68.234375 142.609375 C 68.234375 143.558594 67.984375 144.308594 67.484375 144.859375 C 66.984375 145.402344 66.296875 145.671875 65.421875 145.671875 Z M 65.4375 145.328125 C 65.925781 145.328125 66.328125 145.074219 66.640625 144.5625 C 66.953125 144.054688 67.109375 143.402344 67.109375 142.609375 C 67.109375 141.839844 66.945312 141.195312 66.625 140.671875 C 66.3125 140.152344 65.921875 139.890625 65.453125 139.890625 C 64.984375 139.890625 64.585938 140.152344 64.265625 140.671875 C 63.953125 141.195312 63.796875 141.839844 63.796875 142.609375 C 63.796875 143.390625 63.953125 144.042969 64.265625 144.5625 C 64.578125 145.074219 64.96875 145.328125 65.4375 145.328125 Z M 72.640625 145.5 C 72.367188 145.613281 72.113281 145.671875 71.875 145.671875 C 71.320312 145.671875 70.890625 145.527344 70.578125 145.234375 C 70.390625 145.070312 70.257812 144.882812 70.1875 144.671875 C 70.125 144.453125 70.09375 144.132812 70.09375 143.703125 L 70.09375 140.140625 L 69.234375 140.140625 L 69.234375 139.703125 L 70.09375 139.703125 L 70.09375 138.640625 L 71.15625 138.375 L 71.15625 139.703125 L 72.765625 139.703125 L 72.765625 140.140625 L 71.15625 140.140625 L 71.15625 143.84375 C 71.15625 144.355469 71.203125 144.695312 71.296875 144.859375 C 71.441406 145.109375 71.6875 145.234375 72.03125 145.234375 C 72.195312 145.234375 72.398438 145.179688 72.640625 145.0625 Z M 75.328125 139.703125 L 75.328125 144.140625 C 75.328125 144.433594 75.351562 144.6875 75.40625 144.90625 C 75.425781 145 75.460938 145.070312 75.515625 145.109375 C 75.578125 145.140625 75.691406 145.164062 75.859375 145.171875 L 76.21875 145.1875 L 76.328125 145.203125 L 76.328125 145.53125 L 73.28125 145.53125 L 73.28125 145.203125 L 73.375 145.1875 L 73.734375 145.171875 C 73.941406 145.152344 74.070312 145.117188 74.125 145.0625 C 74.1875 145.011719 74.222656 144.882812 74.234375 144.671875 L 74.265625 144.140625 L 74.265625 141.09375 L 74.234375 140.5625 C 74.222656 140.355469 74.1875 140.226562 74.125 140.171875 C 74.070312 140.109375 73.941406 140.074219 73.734375 140.0625 L 73.375 140.03125 L 73.28125 140.03125 L 73.28125 139.703125 Z M 74.265625 138.640625 L 74.265625 137.578125 L 75.328125 137.578125 L 75.328125 138.640625 Z M 80.59375 144.734375 C 80.238281 145.078125 79.921875 145.324219 79.640625 145.46875 C 79.367188 145.601562 79.0625 145.671875 78.71875 145.671875 C 78.226562 145.671875 77.816406 145.515625 77.484375 145.203125 C 77.148438 144.882812 76.984375 144.484375 76.984375 144.015625 C 76.984375 143.464844 77.203125 143.015625 77.640625 142.671875 C 77.910156 142.453125 78.226562 142.304688 78.59375 142.21875 C 78.96875 142.125 79.476562 142.078125 80.125 142.078125 L 80.34375 142.078125 L 80.34375 141.359375 C 80.34375 140.445312 79.992188 139.984375 79.296875 139.984375 C 78.972656 139.984375 78.6875 140.085938 78.4375 140.28125 C 78.289062 140.398438 78.195312 140.648438 78.15625 141.03125 L 78.15625 141.125 L 77.4375 141.125 L 77.4375 140.0625 C 78.175781 139.730469 78.863281 139.5625 79.5 139.5625 C 80.050781 139.5625 80.5 139.695312 80.84375 139.953125 C 81.0625 140.121094 81.207031 140.304688 81.28125 140.5 C 81.363281 140.6875 81.40625 140.960938 81.40625 141.3125 L 81.40625 143.921875 C 81.40625 144.382812 81.441406 144.710938 81.515625 144.90625 C 81.597656 145.09375 81.742188 145.1875 81.953125 145.1875 C 82.015625 145.1875 82.109375 145.171875 82.234375 145.140625 L 82.265625 145.53125 C 82.015625 145.625 81.785156 145.671875 81.578125 145.671875 C 81.054688 145.671875 80.726562 145.359375 80.59375 144.734375 Z M 80.34375 144.609375 L 80.34375 142.421875 L 80.09375 142.421875 C 79.476562 142.421875 78.992188 142.554688 78.640625 142.8125 C 78.285156 143.0625 78.109375 143.414062 78.109375 143.859375 C 78.109375 144.203125 78.21875 144.484375 78.4375 144.703125 C 78.65625 144.921875 78.925781 145.03125 79.25 145.03125 C 79.5625 145.03125 79.925781 144.890625 80.34375 144.609375 Z M 80.34375 144.609375 "/>
<path fill-rule="nonzero" fill="rgb(0%, 0%, 0%)" fill-opacity="1" d="M 40.492188 127.636719 L 51.507812 132.089844 L 51.273438 132.683594 L 40.257812 128.230469 Z M 40.492188 127.636719 "/>
<path fill-rule="nonzero" fill="rgb(0%, 0%, 0%)" fill-opacity="1" d="M 35.117188 132.304688 C 35.386719 131.929688 35.667969 131.664062 35.960938 131.507812 C 36.261719 131.34375 36.621094 131.257812 37.039062 131.257812 C 37.734375 131.257812 38.304688 131.492188 38.742188 131.960938 C 39.179688 132.421875 39.398438 133.019531 39.398438 133.757812 C 39.398438 134.550781 39.148438 135.21875 38.648438 135.757812 C 38.148438 136.300781 37.53125 136.570312 36.804688 136.570312 C 35.90625 136.570312 35.214844 136.222656 34.726562 135.523438 C 34.234375 134.816406 33.992188 133.816406 33.992188 132.523438 C 33.992188 131.148438 34.273438 130.085938 34.835938 129.335938 C 35.398438 128.585938 36.1875 128.210938 37.210938 128.210938 C 37.867188 128.210938 38.445312 128.332031 38.945312 128.570312 L 38.945312 129.835938 L 38.429688 129.835938 L 38.414062 129.726562 L 38.382812 129.351562 C 38.371094 129.195312 38.34375 129.09375 38.304688 129.039062 C 38.273438 128.976562 38.183594 128.90625 38.039062 128.820312 C 37.734375 128.632812 37.421875 128.539062 37.101562 128.539062 C 36.476562 128.539062 35.984375 128.867188 35.632812 129.523438 C 35.289062 130.179688 35.117188 131.109375 35.117188 132.304688 Z M 35.164062 133.429688 C 35.164062 134.253906 35.324219 134.925781 35.648438 135.445312 C 35.980469 135.96875 36.40625 136.226562 36.929688 136.226562 C 37.375 136.226562 37.71875 136.023438 37.960938 135.617188 C 38.210938 135.203125 38.335938 134.628906 38.335938 133.898438 C 38.335938 133.171875 38.210938 132.613281 37.960938 132.226562 C 37.710938 131.832031 37.351562 131.632812 36.882812 131.632812 C 36.414062 131.632812 36.007812 131.785156 35.664062 132.085938 C 35.328125 132.390625 35.164062 132.835938 35.164062 133.429688 Z M 43.320312 136.570312 C 42.507812 136.570312 41.84375 136.191406 41.335938 135.429688 C 40.835938 134.671875 40.585938 133.664062 40.585938 132.414062 C 40.585938 131.132812 40.835938 130.117188 41.335938 129.367188 C 41.84375 128.609375 42.523438 128.226562 43.367188 128.226562 C 44.210938 128.226562 44.882812 128.609375 45.382812 129.367188 C 45.890625 130.117188 46.148438 131.128906 46.148438 132.398438 C 46.148438 133.679688 45.890625 134.695312 45.382812 135.445312 C 44.882812 136.195312 44.195312 136.570312 43.320312 136.570312 Z M 43.335938 136.226562 C 43.867188 136.257812 44.292969 135.945312 44.617188 135.289062 C 44.773438 134.96875 44.875 134.59375 44.929688 134.164062 C 44.992188 133.726562 45.023438 133.117188 45.023438 132.335938 C 45.023438 131.015625 44.886719 130.070312 44.617188 129.507812 C 44.304688 128.863281 43.886719 128.539062 43.367188 128.539062 C 42.84375 128.539062 42.429688 128.863281 42.117188 129.507812 C 41.96875 129.820312 41.867188 130.191406 41.804688 130.617188 C 41.742188 131.046875 41.710938 131.632812 41.710938 132.382812 C 41.710938 133.144531 41.742188 133.742188 41.804688 134.179688 C 41.867188 134.609375 41.96875 134.972656 42.117188 135.273438 C 42.417969 135.890625 42.824219 136.207031 43.335938 136.226562 Z M 50.585938 128.351562 L 50.585938 134.976562 L 50.617188 135.507812 C 50.625 135.675781 50.648438 135.789062 50.679688 135.851562 C 50.710938 135.90625 50.773438 135.941406 50.867188 135.960938 C 51.074219 136.003906 51.28125 136.023438 51.492188 136.023438 L 52.117188 136.039062 L 52.117188 136.367188 L 48.007812 136.367188 L 48.007812 136.039062 L 48.632812 136.023438 C 48.828125 136.023438 49.03125 136.003906 49.242188 135.960938 C 49.335938 135.941406 49.398438 135.90625 49.429688 135.851562 C 49.460938 135.789062 49.480469 135.675781 49.492188 135.507812 L 49.523438 134.976562 L 49.523438 130.039062 L 49.492188 129.507812 C 49.492188 129.351562 49.476562 129.25 49.445312 129.195312 C 49.421875 129.144531 49.367188 129.117188 49.273438 129.117188 C 49.167969 129.117188 48.921875 129.15625 48.539062 129.226562 L 48.007812 129.320312 L 48.007812 128.992188 Z M 50.585938 128.351562 "/>
<path fill-rule="nonzero" fill="rgb(100%, 0%, 0%)" fill-opacity="1" d="M 101.15625 59.773438 C 101.15625 63.773438 95.15625 63.773438 95.15625 59.773438 C 95.15625 55.773438 101.15625 55.773438 101.15625 59.773438 "/>
<path fill-rule="nonzero" fill="rgb(0%, 0%, 0%)" fill-opacity="1" d="M 73.789062 73.023438 L 68.867188 66.367188 L 68.867188 71.523438 C 68.867188 71.816406 68.890625 72.070312 68.945312 72.289062 C 68.964844 72.382812 69 72.453125 69.054688 72.492188 C 69.105469 72.523438 69.21875 72.546875 69.398438 72.554688 L 69.757812 72.570312 L 69.851562 72.585938 L 69.851562 72.914062 L 67.367188 72.914062 L 67.367188 72.585938 L 67.460938 72.570312 L 67.835938 72.554688 C 68 72.546875 68.109375 72.523438 68.164062 72.492188 C 68.226562 72.453125 68.265625 72.382812 68.289062 72.289062 C 68.339844 72.070312 68.367188 71.816406 68.367188 71.523438 L 68.367188 66.351562 C 68.367188 66.0625 68.339844 65.800781 68.289062 65.570312 C 68.265625 65.476562 68.226562 65.421875 68.164062 65.398438 C 68.109375 65.367188 68 65.34375 67.835938 65.320312 L 67.460938 65.304688 L 67.367188 65.289062 L 67.367188 64.960938 L 69.148438 64.960938 L 73.679688 71.132812 L 73.679688 66.351562 L 73.648438 65.820312 C 73.636719 65.625 73.601562 65.5 73.539062 65.445312 C 73.484375 65.382812 73.355469 65.34375 73.148438 65.320312 L 72.789062 65.304688 L 72.695312 65.289062 L 72.695312 64.960938 L 75.164062 64.960938 L 75.164062 65.289062 L 75.070312 65.304688 L 74.695312 65.320312 C 74.496094 65.34375 74.367188 65.382812 74.304688 65.445312 C 74.25 65.5 74.21875 65.625 74.210938 65.820312 L 74.179688 66.351562 L 74.179688 73.023438 Z M 78.679688 73.054688 C 77.835938 73.054688 77.164062 72.78125 76.664062 72.226562 C 76.171875 71.675781 75.929688 70.929688 75.929688 69.992188 C 75.929688 69.054688 76.179688 68.316406 76.679688 67.773438 C 77.179688 67.222656 77.855469 66.945312 78.710938 66.945312 C 79.574219 66.945312 80.25 67.222656 80.742188 67.773438 C 81.242188 68.316406 81.492188 69.054688 81.492188 69.992188 C 81.492188 70.941406 81.242188 71.691406 80.742188 72.242188 C 80.242188 72.785156 79.554688 73.054688 78.679688 73.054688 Z M 78.695312 72.710938 C 79.183594 72.710938 79.585938 72.457031 79.898438 71.945312 C 80.210938 71.4375 80.367188 70.785156 80.367188 69.992188 C 80.367188 69.222656 80.203125 68.578125 79.882812 68.054688 C 79.570312 67.535156 79.179688 67.273438 78.710938 67.273438 C 78.242188 67.273438 77.84375 67.535156 77.523438 68.054688 C 77.210938 68.578125 77.054688 69.222656 77.054688 69.992188 C 77.054688 70.773438 77.210938 71.425781 77.523438 71.945312 C 77.835938 72.457031 78.226562 72.710938 78.695312 72.710938 Z M 84.789062 72.976562 L 82.898438 68.507812 C 82.699219 68.039062 82.554688 67.742188 82.460938 67.617188 C 82.375 67.492188 82.261719 67.425781 82.117188 67.414062 L 82.023438 67.414062 L 82.023438 67.085938 L 84.554688 67.085938 L 84.554688 67.414062 L 84.164062 67.414062 C 83.882812 67.414062 83.742188 67.492188 83.742188 67.648438 C 83.742188 67.722656 83.851562 68.015625 84.070312 68.523438 L 85.382812 71.632812 L 86.742188 68.523438 C 86.949219 68.035156 87.054688 67.742188 87.054688 67.648438 C 87.054688 67.492188 86.929688 67.414062 86.679688 67.414062 L 86.289062 67.414062 L 86.289062 67.085938 L 88.023438 67.085938 L 88.023438 67.414062 L 87.914062 67.414062 C 87.789062 67.425781 87.6875 67.46875 87.617188 67.539062 C 87.542969 67.613281 87.464844 67.742188 87.382812 67.929688 L 87.132812 68.523438 L 85.117188 72.976562 Z M 92.164062 72.117188 C 91.808594 72.460938 91.492188 72.707031 91.210938 72.851562 C 90.9375 72.984375 90.632812 73.054688 90.289062 73.054688 C 89.796875 73.054688 89.386719 72.898438 89.054688 72.585938 C 88.71875 72.265625 88.554688 71.867188 88.554688 71.398438 C 88.554688 70.847656 88.773438 70.398438 89.210938 70.054688 C 89.480469 69.835938 89.796875 69.6875 90.164062 69.601562 C 90.539062 69.507812 91.046875 69.460938 91.695312 69.460938 L 91.914062 69.460938 L 91.914062 68.742188 C 91.914062 67.828125 91.5625 67.367188 90.867188 67.367188 C 90.542969 67.367188 90.257812 67.46875 90.007812 67.664062 C 89.859375 67.78125 89.765625 68.03125 89.726562 68.414062 L 89.726562 68.507812 L 89.007812 68.507812 L 89.007812 67.445312 C 89.746094 67.113281 90.433594 66.945312 91.070312 66.945312 C 91.621094 66.945312 92.070312 67.078125 92.414062 67.335938 C 92.632812 67.503906 92.777344 67.6875 92.851562 67.882812 C 92.933594 68.070312 92.976562 68.34375 92.976562 68.695312 L 92.976562 71.304688 C 92.976562 71.765625 93.011719 72.09375 93.085938 72.289062 C 93.167969 72.476562 93.3125 72.570312 93.523438 72.570312 C 93.585938 72.570312 93.679688 72.554688 93.804688 72.523438 L 93.835938 72.914062 C 93.585938 73.007812 93.355469 73.054688 93.148438 73.054688 C 92.625 73.054688 92.296875 72.742188 92.164062 72.117188 Z M 91.914062 71.992188 L 91.914062 69.804688 L 91.664062 69.804688 C 91.046875 69.804688 90.5625 69.9375 90.210938 70.195312 C 89.855469 70.445312 89.679688 70.796875 89.679688 71.242188 C 89.679688 71.585938 89.789062 71.867188 90.007812 72.085938 C 90.226562 72.304688 90.496094 72.414062 90.820312 72.414062 C 91.132812 72.414062 91.496094 72.273438 91.914062 71.992188 Z M 97.976562 72.757812 L 97.976562 71.226562 L 98.539062 71.226562 L 98.539062 71.320312 C 98.546875 71.5 98.554688 71.632812 98.554688 71.726562 C 98.554688 71.90625 98.574219 72.035156 98.617188 72.117188 C 98.667969 72.191406 98.765625 72.273438 98.914062 72.367188 C 99.289062 72.597656 99.710938 72.710938 100.179688 72.710938 C 100.648438 72.710938 101.011719 72.578125 101.273438 72.304688 C 101.542969 72.035156 101.679688 71.660156 101.679688 71.179688 C 101.679688 70.785156 101.589844 70.472656 101.414062 70.242188 C 101.246094 70.003906 100.917969 69.742188 100.429688 69.460938 L 99.867188 69.132812 C 99.199219 68.769531 98.726562 68.414062 98.445312 68.070312 C 98.171875 67.726562 98.039062 67.332031 98.039062 66.882812 C 98.039062 66.28125 98.257812 65.78125 98.695312 65.382812 C 99.132812 64.976562 99.683594 64.773438 100.351562 64.773438 C 100.914062 64.773438 101.578125 64.882812 102.351562 65.101562 L 102.351562 66.523438 L 101.757812 66.523438 L 101.757812 66.429688 C 101.734375 66.234375 101.726562 66.09375 101.726562 66.007812 C 101.726562 65.6875 101.632812 65.472656 101.445312 65.367188 C 101.171875 65.210938 100.824219 65.132812 100.398438 65.132812 C 100.011719 65.132812 99.699219 65.257812 99.460938 65.507812 C 99.230469 65.757812 99.117188 66.09375 99.117188 66.507812 C 99.117188 66.851562 99.195312 67.140625 99.351562 67.367188 C 99.515625 67.597656 99.8125 67.835938 100.242188 68.085938 L 100.804688 68.398438 C 101.585938 68.847656 102.109375 69.238281 102.382812 69.570312 C 102.664062 69.894531 102.804688 70.304688 102.804688 70.804688 C 102.804688 71.460938 102.554688 72.015625 102.054688 72.460938 C 101.5625 72.898438 100.953125 73.117188 100.226562 73.117188 C 99.859375 73.117188 99.460938 73.078125 99.023438 73.007812 C 98.585938 72.933594 98.234375 72.851562 97.976562 72.757812 Z M 108.335938 72.710938 C 107.78125 72.9375 107.242188 73.054688 106.710938 73.054688 C 105.855469 73.054688 105.164062 72.769531 104.632812 72.195312 C 104.101562 71.625 103.835938 70.882812 103.835938 69.976562 C 103.835938 69.0625 104.089844 68.328125 104.601562 67.773438 C 105.109375 67.222656 105.78125 66.945312 106.617188 66.945312 C 107.0625 66.945312 107.636719 67.035156 108.335938 67.210938 L 108.335938 68.601562 L 107.679688 68.601562 L 107.679688 68.507812 C 107.679688 68.082031 107.609375 67.796875 107.476562 67.648438 C 107.277344 67.421875 106.996094 67.304688 106.632812 67.304688 C 106.109375 67.304688 105.699219 67.539062 105.398438 68.007812 C 105.09375 68.46875 104.945312 69.097656 104.945312 69.898438 C 104.945312 70.710938 105.121094 71.351562 105.476562 71.820312 C 105.839844 72.289062 106.328125 72.523438 106.945312 72.523438 C 107.476562 72.523438 107.9375 72.4375 108.335938 72.257812 Z M 112.179688 73.054688 C 111.335938 73.054688 110.664062 72.78125 110.164062 72.226562 C 109.671875 71.675781 109.429688 70.929688 109.429688 69.992188 C 109.429688 69.054688 109.679688 68.316406 110.179688 67.773438 C 110.679688 67.222656 111.355469 66.945312 112.210938 66.945312 C 113.074219 66.945312 113.75 67.222656 114.242188 67.773438 C 114.742188 68.316406 114.992188 69.054688 114.992188 69.992188 C 114.992188 70.941406 114.742188 71.691406 114.242188 72.242188 C 113.742188 72.785156 113.054688 73.054688 112.179688 73.054688 Z M 112.195312 72.710938 C 112.683594 72.710938 113.085938 72.457031 113.398438 71.945312 C 113.710938 71.4375 113.867188 70.785156 113.867188 69.992188 C 113.867188 69.222656 113.703125 68.578125 113.382812 68.054688 C 113.070312 67.535156 112.679688 67.273438 112.210938 67.273438 C 111.742188 67.273438 111.34375 67.535156 111.023438 68.054688 C 110.710938 68.578125 110.554688 69.222656 110.554688 69.992188 C 110.554688 70.773438 110.710938 71.425781 111.023438 71.945312 C 111.335938 72.457031 111.726562 72.710938 112.195312 72.710938 Z M 119.398438 72.882812 C 119.125 72.996094 118.871094 73.054688 118.632812 73.054688 C 118.078125 73.054688 117.648438 72.910156 117.335938 72.617188 C 117.148438 72.453125 117.015625 72.265625 116.945312 72.054688 C 116.882812 71.835938 116.851562 71.515625 116.851562 71.085938 L 116.851562 67.523438 L 115.992188 67.523438 L 115.992188 67.085938 L 116.851562 67.085938 L 116.851562 66.023438 L 117.914062 65.757812 L 117.914062 67.085938 L 119.523438 67.085938 L 119.523438 67.523438 L 117.914062 67.523438 L 117.914062 71.226562 C 117.914062 71.738281 117.960938 72.078125 118.054688 72.242188 C 118.199219 72.492188 118.445312 72.617188 118.789062 72.617188 C 118.953125 72.617188 119.15625 72.5625 119.398438 72.445312 Z M 122.085938 67.085938 L 122.085938 71.523438 C 122.085938 71.816406 122.109375 72.070312 122.164062 72.289062 C 122.183594 72.382812 122.21875 72.453125 122.273438 72.492188 C 122.335938 72.523438 122.449219 72.546875 122.617188 72.554688 L 122.976562 72.570312 L 123.085938 72.585938 L 123.085938 72.914062 L 120.039062 72.914062 L 120.039062 72.585938 L 120.132812 72.570312 L 120.492188 72.554688 C 120.699219 72.535156 120.828125 72.5 120.882812 72.445312 C 120.945312 72.394531 120.980469 72.265625 120.992188 72.054688 L 121.023438 71.523438 L 121.023438 68.476562 L 120.992188 67.945312 C 120.980469 67.738281 120.945312 67.609375 120.882812 67.554688 C 120.828125 67.492188 120.699219 67.457031 120.492188 67.445312 L 120.132812 67.414062 L 120.039062 67.414062 L 120.039062 67.085938 Z M 121.023438 66.023438 L 121.023438 64.960938 L 122.085938 64.960938 L 122.085938 66.023438 Z M 127.351562 72.117188 C 126.996094 72.460938 126.679688 72.707031 126.398438 72.851562 C 126.125 72.984375 125.820312 73.054688 125.476562 73.054688 C 124.984375 73.054688 124.574219 72.898438 124.242188 72.585938 C 123.90625 72.265625 123.742188 71.867188 123.742188 71.398438 C 123.742188 70.847656 123.960938 70.398438 124.398438 70.054688 C 124.667969 69.835938 124.984375 69.6875 125.351562 69.601562 C 125.726562 69.507812 126.234375 69.460938 126.882812 69.460938 L 127.101562 69.460938 L 127.101562 68.742188 C 127.101562 67.828125 126.75 67.367188 126.054688 67.367188 C 125.730469 67.367188 125.445312 67.46875 125.195312 67.664062 C 125.046875 67.78125 124.953125 68.03125 124.914062 68.414062 L 124.914062 68.507812 L 124.195312 68.507812 L 124.195312 67.445312 C 124.933594 67.113281 125.621094 66.945312 126.257812 66.945312 C 126.808594 66.945312 127.257812 67.078125 127.601562 67.335938 C 127.820312 67.503906 127.964844 67.6875 128.039062 67.882812 C 128.121094 68.070312 128.164062 68.34375 128.164062 68.695312 L 128.164062 71.304688 C 128.164062 71.765625 128.199219 72.09375 128.273438 72.289062 C 128.355469 72.476562 128.5 72.570312 128.710938 72.570312 C 128.773438 72.570312 128.867188 72.554688 128.992188 72.523438 L 129.023438 72.914062 C 128.773438 73.007812 128.542969 73.054688 128.335938 73.054688 C 127.8125 73.054688 127.484375 72.742188 127.351562 72.117188 Z M 127.101562 71.992188 L 127.101562 69.804688 L 126.851562 69.804688 C 126.234375 69.804688 125.75 69.9375 125.398438 70.195312 C 125.042969 70.445312 124.867188 70.796875 124.867188 71.242188 C 124.867188 71.585938 124.976562 71.867188 125.195312 72.085938 C 125.414062 72.304688 125.683594 72.414062 126.007812 72.414062 C 126.320312 72.414062 126.683594 72.273438 127.101562 71.992188 Z M 127.101562 71.992188 "/>
<path fill-rule="nonzero" fill="rgb(0%, 0%, 0%)" fill-opacity="1" d="M 109.890625 61.746094 L 98.109375 60.089844 L 98.1875 59.464844 L 109.96875 61.121094 Z M 109.890625 61.746094 "/>
<path fill-rule="nonzero" fill="rgb(0%, 0%, 0%)" fill-opacity="1" d="M 77.28125 55.734375 L 77.28125 62.359375 L 77.3125 62.890625 C 77.320312 63.058594 77.34375 63.171875 77.375 63.234375 C 77.40625 63.289062 77.46875 63.324219 77.5625 63.34375 C 77.769531 63.386719 77.976562 63.40625 78.1875 63.40625 L 78.8125 63.421875 L 78.8125 63.75 L 74.703125 63.75 L 74.703125 63.421875 L 75.328125 63.40625 C 75.523438 63.40625 75.726562 63.386719 75.9375 63.34375 C 76.03125 63.324219 76.09375 63.289062 76.125 63.234375 C 76.15625 63.171875 76.175781 63.058594 76.1875 62.890625 L 76.21875 62.359375 L 76.21875 57.421875 L 76.1875 56.890625 C 76.1875 56.734375 76.171875 56.632812 76.140625 56.578125 C 76.117188 56.527344 76.0625 56.5 75.96875 56.5 C 75.863281 56.5 75.617188 56.539062 75.234375 56.609375 L 74.703125 56.703125 L 74.703125 56.375 Z M 81.09375 63.703125 L 81.09375 62.296875 L 81.625 62.296875 L 81.625 62.40625 L 81.640625 62.78125 C 81.640625 62.992188 81.71875 63.152344 81.875 63.265625 C 82.21875 63.507812 82.609375 63.625 83.046875 63.625 C 83.503906 63.625 83.875 63.445312 84.15625 63.078125 C 84.445312 62.703125 84.59375 62.210938 84.59375 61.59375 C 84.59375 60.992188 84.40625 60.523438 84.03125 60.1875 C 83.65625 59.84375 83.132812 59.671875 82.46875 59.671875 L 81.8125 59.671875 L 81.8125 59.34375 L 82.171875 59.34375 C 82.960938 59.34375 83.535156 59.203125 83.890625 58.921875 C 84.242188 58.632812 84.421875 58.167969 84.421875 57.53125 C 84.421875 57.023438 84.296875 56.625 84.046875 56.34375 C 83.796875 56.0625 83.445312 55.921875 83 55.921875 C 82.582031 55.921875 82.222656 56.011719 81.921875 56.1875 C 81.828125 56.242188 81.769531 56.304688 81.75 56.375 C 81.738281 56.4375 81.71875 56.664062 81.6875 57.046875 L 81.671875 57.125 L 81.140625 57.125 L 81.140625 55.90625 C 81.710938 55.699219 82.363281 55.59375 83.09375 55.59375 C 83.832031 55.59375 84.410156 55.761719 84.828125 56.09375 C 85.253906 56.417969 85.46875 56.859375 85.46875 57.421875 C 85.46875 58.371094 84.914062 59.046875 83.8125 59.453125 C 84.488281 59.632812 84.972656 59.882812 85.265625 60.203125 C 85.566406 60.527344 85.71875 60.980469 85.71875 61.5625 C 85.71875 62.304688 85.476562 62.886719 85 63.3125 C 84.519531 63.742188 83.875 63.953125 83.0625 63.953125 C 82.300781 63.953125 81.644531 63.867188 81.09375 63.703125 Z M 90.078125 63.953125 C 89.265625 63.953125 88.601562 63.574219 88.09375 62.8125 C 87.59375 62.054688 87.34375 61.046875 87.34375 59.796875 C 87.34375 58.515625 87.59375 57.5 88.09375 56.75 C 88.601562 55.992188 89.28125 55.609375 90.125 55.609375 C 90.96875 55.609375 91.640625 55.992188 92.140625 56.75 C 92.648438 57.5 92.90625 58.511719 92.90625 59.78125 C 92.90625 61.0625 92.648438 62.078125 92.140625 62.828125 C 91.640625 63.578125 90.953125 63.953125 90.078125 63.953125 Z M 90.09375 63.609375 C 90.625 63.640625 91.050781 63.328125 91.375 62.671875 C 91.53125 62.351562 91.632812 61.976562 91.6875 61.546875 C 91.75 61.109375 91.78125 60.5 91.78125 59.71875 C 91.78125 58.398438 91.644531 57.453125 91.375 56.890625 C 91.0625 56.246094 90.644531 55.921875 90.125 55.921875 C 89.601562 55.921875 89.1875 56.246094 88.875 56.890625 C 88.726562 57.203125 88.625 57.574219 88.5625 58 C 88.5 58.429688 88.46875 59.015625 88.46875 59.765625 C 88.46875 60.527344 88.5 61.125 88.5625 61.5625 C 88.625 61.992188 88.726562 62.355469 88.875 62.65625 C 89.175781 63.273438 89.582031 63.589844 90.09375 63.609375 Z M 94.71875 63.765625 L 94.71875 62.421875 L 95.25 62.421875 L 95.265625 62.546875 L 95.28125 62.953125 C 95.300781 63.390625 95.644531 63.609375 96.3125 63.609375 C 96.8125 63.609375 97.203125 63.417969 97.484375 63.03125 C 97.773438 62.648438 97.921875 62.125 97.921875 61.46875 C 97.921875 60.710938 97.695312 60.167969 97.25 59.84375 C 96.800781 59.511719 96.066406 59.34375 95.046875 59.34375 L 94.859375 59.34375 L 94.859375 55.796875 L 98.859375 55.796875 L 98.859375 56.71875 L 95.1875 56.71875 L 95.1875 58.953125 L 95.6875 58.953125 C 96.769531 58.953125 97.597656 59.171875 98.171875 59.609375 C 98.742188 60.046875 99.03125 60.679688 99.03125 61.5 C 99.03125 62.273438 98.769531 62.875 98.25 63.3125 C 97.738281 63.742188 97.03125 63.953125 96.125 63.953125 C 95.675781 63.953125 95.207031 63.890625 94.71875 63.765625 Z M 94.71875 63.765625 "/>
</svg>
