<?xml version="1.0" encoding="UTF-8"?>
<svg xmlns="http://www.w3.org/2000/svg" xmlns:xlink="http://www.w3.org/1999/xlink" width="150pt" height="150pt" viewBox="0 0 150 150" version="1.1">
<g id="surface2">
<rect x="0" y="0" width="150" height="150" style="fill:rgb(100%,100%,100%);fill-opacity:1;stroke:none;"/>
<path style=" stroke:none;fill-rule:nonzero;fill:rgb(100%,0%,0%);fill-opacity:1;" d="M 91.503906 8.484375 C 91.503906 12.484375 85.503906 12.484375 85.503906 8.484375 C 85.503906 4.484375 91.503906 4.484375 91.503906 8.484375 "/>
<path style=" stroke:none;fill-rule:nonzero;fill:rgb(0%,0%,0%);fill-opacity:1;" d="M 74.292969 23.5625 C 74.699219 23.789062 75.246094 23.988281 75.933594 24.15625 C 76.621094 24.320312 77.394531 24.4375 78.261719 24.5 L 76.917969 25.15625 C 76.34375 24.988281 75.878906 24.820312 75.527344 24.65625 C 75.183594 24.5 74.6875 24.222656 74.042969 23.828125 L 73.808594 23.6875 C 73.546875 23.738281 73.292969 23.765625 73.042969 23.765625 C 71.886719 23.765625 70.972656 23.390625 70.308594 22.640625 C 69.652344 21.890625 69.324219 20.875 69.324219 19.59375 C 69.324219 18.304688 69.652344 17.289062 70.308594 16.546875 C 70.972656 15.796875 71.886719 15.421875 73.042969 15.421875 C 74.1875 15.421875 75.09375 15.792969 75.761719 16.53125 C 76.425781 17.273438 76.761719 18.28125 76.761719 19.5625 C 76.761719 21.667969 75.9375 23 74.292969 23.5625 Z M 75.558594 19.640625 C 75.558594 18.414062 75.339844 17.464844 74.902344 16.796875 C 74.464844 16.121094 73.84375 15.78125 73.042969 15.78125 C 72.25 15.78125 71.628906 16.117188 71.183594 16.78125 C 70.746094 17.449219 70.527344 18.386719 70.527344 19.59375 C 70.527344 20.792969 70.746094 21.726562 71.183594 22.390625 C 71.628906 23.058594 72.25 23.390625 73.042969 23.390625 C 73.824219 23.390625 74.4375 23.058594 74.886719 22.390625 C 75.332031 21.726562 75.558594 20.808594 75.558594 19.640625 Z M 82.027344 23.5625 L 82.027344 22.46875 C 81.777344 22.855469 81.464844 23.15625 81.089844 23.375 C 80.714844 23.59375 80.328125 23.703125 79.933594 23.703125 C 79.433594 23.703125 79.035156 23.539062 78.746094 23.203125 C 78.464844 22.871094 78.324219 22.417969 78.324219 21.84375 L 78.324219 19.125 L 78.292969 18.59375 C 78.269531 18.386719 78.234375 18.257812 78.183594 18.203125 C 78.128906 18.140625 78 18.105469 77.792969 18.09375 L 77.433594 18.0625 L 77.324219 18.0625 L 77.324219 17.734375 L 79.371094 17.734375 L 79.371094 21.671875 C 79.371094 22.164062 79.441406 22.511719 79.589844 22.71875 C 79.734375 22.917969 79.984375 23.015625 80.339844 23.015625 C 80.578125 23.015625 80.859375 22.933594 81.183594 22.765625 C 81.515625 22.589844 81.796875 22.371094 82.027344 22.109375 L 82.027344 19.125 L 81.996094 18.59375 C 81.984375 18.386719 81.949219 18.257812 81.886719 18.203125 C 81.832031 18.140625 81.703125 18.105469 81.496094 18.09375 L 81.136719 18.0625 L 81.042969 18.0625 L 81.042969 17.734375 L 83.089844 17.734375 L 83.089844 22.171875 L 83.121094 22.703125 C 83.128906 22.914062 83.160156 23.042969 83.214844 23.09375 C 83.277344 23.148438 83.410156 23.183594 83.621094 23.203125 L 83.980469 23.21875 L 84.089844 23.234375 L 84.089844 23.5625 Z M 89.542969 23.296875 C 88.863281 23.566406 88.25 23.703125 87.699219 23.703125 C 86.84375 23.703125 86.144531 23.417969 85.605469 22.84375 C 85.074219 22.261719 84.808594 21.511719 84.808594 20.59375 C 84.808594 19.710938 85.046875 18.992188 85.527344 18.4375 C 86.003906 17.875 86.621094 17.59375 87.371094 17.59375 C 88.066406 17.59375 88.605469 17.828125 88.980469 18.296875 C 89.355469 18.765625 89.542969 19.4375 89.542969 20.3125 L 89.542969 20.421875 L 85.980469 20.421875 C 85.980469 21.226562 86.089844 21.824219 86.308594 22.21875 C 86.652344 22.84375 87.171875 23.15625 87.871094 23.15625 C 88.527344 23.15625 89.082031 23.023438 89.542969 22.75 Z M 85.996094 20.078125 L 88.417969 20.078125 L 88.417969 19.84375 C 88.417969 19.417969 88.394531 19.105469 88.355469 18.90625 C 88.324219 18.710938 88.253906 18.53125 88.152344 18.375 C 87.941406 18.074219 87.660156 17.921875 87.308594 17.921875 C 86.902344 17.921875 86.578125 18.121094 86.339844 18.515625 C 86.109375 18.902344 85.996094 19.421875 85.996094 20.078125 Z M 90.964844 23.625 L 90.964844 16.46875 L 90.933594 15.9375 C 90.921875 15.742188 90.886719 15.617188 90.824219 15.5625 C 90.769531 15.5 90.640625 15.464844 90.433594 15.453125 L 90.074219 15.421875 L 89.964844 15.421875 L 89.964844 15.078125 L 92.027344 15.078125 L 92.027344 18.828125 C 92.546875 18.007812 93.230469 17.59375 94.074219 17.59375 C 94.730469 17.59375 95.25 17.855469 95.636719 18.375 C 96.03125 18.898438 96.230469 19.59375 96.230469 20.46875 C 96.230469 21.449219 96.003906 22.234375 95.558594 22.828125 C 95.109375 23.414062 94.515625 23.703125 93.777344 23.703125 C 93.089844 23.703125 92.503906 23.4375 92.027344 22.90625 L 91.964844 22.90625 L 91.824219 23.625 Z M 92.027344 22.484375 C 92.589844 22.902344 93.125 23.109375 93.636719 23.109375 C 94.113281 23.109375 94.480469 22.90625 94.730469 22.5 C 94.980469 22.09375 95.105469 21.515625 95.105469 20.765625 C 95.105469 19.933594 94.984375 19.3125 94.746094 18.90625 C 94.515625 18.492188 94.160156 18.28125 93.683594 18.28125 C 93.390625 18.28125 93.09375 18.367188 92.792969 18.53125 C 92.5 18.699219 92.246094 18.921875 92.027344 19.203125 Z M 102.089844 23.296875 C 101.410156 23.566406 100.796875 23.703125 100.246094 23.703125 C 99.390625 23.703125 98.691406 23.417969 98.152344 22.84375 C 97.621094 22.261719 97.355469 21.511719 97.355469 20.59375 C 97.355469 19.710938 97.59375 18.992188 98.074219 18.4375 C 98.550781 17.875 99.167969 17.59375 99.917969 17.59375 C 100.613281 17.59375 101.152344 17.828125 101.527344 18.296875 C 101.902344 18.765625 102.089844 19.4375 102.089844 20.3125 L 102.089844 20.421875 L 98.527344 20.421875 C 98.527344 21.226562 98.636719 21.824219 98.855469 22.21875 C 99.199219 22.84375 99.71875 23.15625 100.417969 23.15625 C 101.074219 23.15625 101.628906 23.023438 102.089844 22.75 Z M 98.542969 20.078125 L 100.964844 20.078125 L 100.964844 19.84375 C 100.964844 19.417969 100.941406 19.105469 100.902344 18.90625 C 100.871094 18.710938 100.800781 18.53125 100.699219 18.375 C 100.488281 18.074219 100.207031 17.921875 99.855469 17.921875 C 99.449219 17.921875 99.125 18.121094 98.886719 18.515625 C 98.65625 18.902344 98.542969 19.421875 98.542969 20.078125 Z M 107.683594 23.359375 C 107.128906 23.585938 106.589844 23.703125 106.058594 23.703125 C 105.203125 23.703125 104.511719 23.417969 103.980469 22.84375 C 103.449219 22.273438 103.183594 21.53125 103.183594 20.625 C 103.183594 19.710938 103.4375 18.976562 103.949219 18.421875 C 104.457031 17.871094 105.128906 17.59375 105.964844 17.59375 C 106.410156 17.59375 106.984375 17.683594 107.683594 17.859375 L 107.683594 19.25 L 107.027344 19.25 L 107.027344 19.15625 C 107.027344 18.730469 106.957031 18.445312 106.824219 18.296875 C 106.625 18.070312 106.34375 17.953125 105.980469 17.953125 C 105.457031 17.953125 105.046875 18.1875 104.746094 18.65625 C 104.441406 19.117188 104.292969 19.746094 104.292969 20.546875 C 104.292969 21.359375 104.46875 22 104.824219 22.46875 C 105.1875 22.9375 105.675781 23.171875 106.292969 23.171875 C 106.824219 23.171875 107.285156 23.085938 107.683594 22.90625 Z M 107.683594 23.359375 "/>
<path style=" stroke:none;fill-rule:nonzero;fill:rgb(0%,0%,0%);fill-opacity:1;" d="M 78.359375 2.261719 L 88.65625 8.214844 L 88.34375 8.761719 L 78.046875 2.808594 Z M 78.359375 2.261719 "/>
<path style=" stroke:none;fill-rule:nonzero;fill:rgb(0%,0%,0%);fill-opacity:1;" d="M 74.316406 4.648438 L 74.316406 11.273438 L 74.347656 11.804688 C 74.355469 11.972656 74.378906 12.085938 74.410156 12.148438 C 74.441406 12.203125 74.503906 12.238281 74.597656 12.257812 C 74.804688 12.300781 75.011719 12.320312 75.222656 12.320312 L 75.847656 12.335938 L 75.847656 12.664062 L 71.738281 12.664062 L 71.738281 12.335938 L 72.363281 12.320312 C 72.558594 12.320312 72.761719 12.300781 72.972656 12.257812 C 73.066406 12.238281 73.128906 12.203125 73.160156 12.148438 C 73.191406 12.085938 73.210938 11.972656 73.222656 11.804688 L 73.253906 11.273438 L 73.253906 6.335938 L 73.222656 5.804688 C 73.222656 5.648438 73.207031 5.546875 73.175781 5.492188 C 73.152344 5.441406 73.097656 5.414062 73.003906 5.414062 C 72.898438 5.414062 72.652344 5.453125 72.269531 5.523438 L 71.738281 5.617188 L 71.738281 5.289062 Z M 78.378906 12.679688 L 78.378906 11.335938 L 78.910156 11.335938 L 78.925781 11.460938 L 78.941406 11.867188 C 78.960938 12.304688 79.304688 12.523438 79.972656 12.523438 C 80.472656 12.523438 80.863281 12.332031 81.144531 11.945312 C 81.433594 11.5625 81.582031 11.039062 81.582031 10.382812 C 81.582031 9.625 81.355469 9.082031 80.910156 8.757812 C 80.460938 8.425781 79.726562 8.257812 78.707031 8.257812 L 78.519531 8.257812 L 78.519531 4.710938 L 82.519531 4.710938 L 82.519531 5.632812 L 78.847656 5.632812 L 78.847656 7.867188 L 79.347656 7.867188 C 80.429688 7.867188 81.257812 8.085938 81.832031 8.523438 C 82.402344 8.960938 82.691406 9.59375 82.691406 10.414062 C 82.691406 11.1875 82.429688 11.789062 81.910156 12.226562 C 81.398438 12.65625 80.691406 12.867188 79.785156 12.867188 C 79.335938 12.867188 78.867188 12.804688 78.378906 12.679688 Z M 84.816406 12.617188 L 84.816406 11.210938 L 85.347656 11.210938 L 85.347656 11.320312 L 85.363281 11.695312 C 85.363281 11.90625 85.441406 12.066406 85.597656 12.179688 C 85.941406 12.421875 86.332031 12.539062 86.769531 12.539062 C 87.226562 12.539062 87.597656 12.359375 87.878906 11.992188 C 88.167969 11.617188 88.316406 11.125 88.316406 10.507812 C 88.316406 9.90625 88.128906 9.4375 87.753906 9.101562 C 87.378906 8.757812 86.855469 8.585938 86.191406 8.585938 L 85.535156 8.585938 L 85.535156 8.257812 L 85.894531 8.257812 C 86.683594 8.257812 87.257812 8.117188 87.613281 7.835938 C 87.964844 7.546875 88.144531 7.082031 88.144531 6.445312 C 88.144531 5.9375 88.019531 5.539062 87.769531 5.257812 C 87.519531 4.976562 87.167969 4.835938 86.722656 4.835938 C 86.304688 4.835938 85.945312 4.925781 85.644531 5.101562 C 85.550781 5.15625 85.492188 5.21875 85.472656 5.289062 C 85.460938 5.351562 85.441406 5.578125 85.410156 5.960938 L 85.394531 6.039062 L 84.863281 6.039062 L 84.863281 4.820312 C 85.433594 4.613281 86.085938 4.507812 86.816406 4.507812 C 87.554688 4.507812 88.132812 4.675781 88.550781 5.007812 C 88.976562 5.332031 89.191406 5.773438 89.191406 6.335938 C 89.191406 7.285156 88.636719 7.960938 87.535156 8.367188 C 88.210938 8.546875 88.695312 8.796875 88.988281 9.117188 C 89.289062 9.441406 89.441406 9.894531 89.441406 10.476562 C 89.441406 11.21875 89.199219 11.800781 88.722656 12.226562 C 88.242188 12.65625 87.597656 12.867188 86.785156 12.867188 C 86.023438 12.867188 85.367188 12.78125 84.816406 12.617188 Z M 84.816406 12.617188 "/>
<path style=" stroke:none;fill-rule:nonzero;fill:rgb(100%,0%,0%);fill-opacity:1;" d="M 88.175781 95.929688 C 88.175781 99.929688 82.175781 99.929688 82.175781 95.929688 C 82.175781 91.929688 88.175781 91.929688 88.175781 95.929688 "/>
<path style=" stroke:none;fill-rule:nonzero;fill:rgb(0%,0%,0%);fill-opacity:1;" d="M 60.808594 109.382812 L 55.886719 102.726562 L 55.886719 107.882812 C 55.886719 108.175781 55.910156 108.429688 55.964844 108.648438 C 55.984375 108.742188 56.019531 108.8125 56.074219 108.851562 C 56.125 108.882812 56.238281 108.90625 56.417969 108.914062 L 56.777344 108.929688 L 56.871094 108.945312 L 56.871094 109.273438 L 54.386719 109.273438 L 54.386719 108.945312 L 54.480469 108.929688 L 54.855469 108.914062 C 55.019531 108.90625 55.128906 108.882812 55.183594 108.851562 C 55.246094 108.8125 55.285156 108.742188 55.308594 108.648438 C 55.359375 108.429688 55.386719 108.175781 55.386719 107.882812 L 55.386719 102.710938 C 55.386719 102.421875 55.359375 102.160156 55.308594 101.929688 C 55.285156 101.835938 55.246094 101.78125 55.183594 101.757812 C 55.128906 101.726562 55.019531 101.703125 54.855469 101.679688 L 54.480469 101.664062 L 54.386719 101.648438 L 54.386719 101.320312 L 56.167969 101.320312 L 60.699219 107.492188 L 60.699219 102.710938 L 60.667969 102.179688 C 60.65625 101.984375 60.621094 101.859375 60.558594 101.804688 C 60.503906 101.742188 60.375 101.703125 60.167969 101.679688 L 59.808594 101.664062 L 59.714844 101.648438 L 59.714844 101.320312 L 62.183594 101.320312 L 62.183594 101.648438 L 62.089844 101.664062 L 61.714844 101.679688 C 61.515625 101.703125 61.386719 101.742188 61.324219 101.804688 C 61.269531 101.859375 61.238281 101.984375 61.230469 102.179688 L 61.199219 102.710938 L 61.199219 109.382812 Z M 65.699219 109.414062 C 64.855469 109.414062 64.183594 109.140625 63.683594 108.585938 C 63.191406 108.035156 62.949219 107.289062 62.949219 106.351562 C 62.949219 105.414062 63.199219 104.675781 63.699219 104.132812 C 64.199219 103.582031 64.875 103.304688 65.730469 103.304688 C 66.59375 103.304688 67.269531 103.582031 67.761719 104.132812 C 68.261719 104.675781 68.511719 105.414062 68.511719 106.351562 C 68.511719 107.300781 68.261719 108.050781 67.761719 108.601562 C 67.261719 109.144531 66.574219 109.414062 65.699219 109.414062 Z M 65.714844 109.070312 C 66.203125 109.070312 66.605469 108.816406 66.917969 108.304688 C 67.230469 107.796875 67.386719 107.144531 67.386719 106.351562 C 67.386719 105.582031 67.222656 104.9375 66.902344 104.414062 C 66.589844 103.894531 66.199219 103.632812 65.730469 103.632812 C 65.261719 103.632812 64.863281 103.894531 64.542969 104.414062 C 64.230469 104.9375 64.074219 105.582031 64.074219 106.351562 C 64.074219 107.132812 64.230469 107.785156 64.542969 108.304688 C 64.855469 108.816406 65.246094 109.070312 65.714844 109.070312 Z M 71.808594 109.335938 L 69.917969 104.867188 C 69.71875 104.398438 69.574219 104.101562 69.480469 103.976562 C 69.394531 103.851562 69.28125 103.785156 69.136719 103.773438 L 69.042969 103.773438 L 69.042969 103.445312 L 71.574219 103.445312 L 71.574219 103.773438 L 71.183594 103.773438 C 70.902344 103.773438 70.761719 103.851562 70.761719 104.007812 C 70.761719 104.082031 70.871094 104.375 71.089844 104.882812 L 72.402344 107.992188 L 73.761719 104.882812 C 73.96875 104.394531 74.074219 104.101562 74.074219 104.007812 C 74.074219 103.851562 73.949219 103.773438 73.699219 103.773438 L 73.308594 103.773438 L 73.308594 103.445312 L 75.042969 103.445312 L 75.042969 103.773438 L 74.933594 103.773438 C 74.808594 103.785156 74.707031 103.828125 74.636719 103.898438 C 74.5625 103.972656 74.484375 104.101562 74.402344 104.289062 L 74.152344 104.882812 L 72.136719 109.335938 Z M 79.183594 108.476562 C 78.828125 108.820312 78.511719 109.066406 78.230469 109.210938 C 77.957031 109.34375 77.652344 109.414062 77.308594 109.414062 C 76.816406 109.414062 76.40625 109.257812 76.074219 108.945312 C 75.738281 108.625 75.574219 108.226562 75.574219 107.757812 C 75.574219 107.207031 75.792969 106.757812 76.230469 106.414062 C 76.5 106.195312 76.816406 106.046875 77.183594 105.960938 C 77.558594 105.867188 78.066406 105.820312 78.714844 105.820312 L 78.933594 105.820312 L 78.933594 105.101562 C 78.933594 104.1875 78.582031 103.726562 77.886719 103.726562 C 77.5625 103.726562 77.277344 103.828125 77.027344 104.023438 C 76.878906 104.140625 76.785156 104.390625 76.746094 104.773438 L 76.746094 104.867188 L 76.027344 104.867188 L 76.027344 103.804688 C 76.765625 103.472656 77.453125 103.304688 78.089844 103.304688 C 78.640625 103.304688 79.089844 103.4375 79.433594 103.695312 C 79.652344 103.863281 79.796875 104.046875 79.871094 104.242188 C 79.953125 104.429688 79.996094 104.703125 79.996094 105.054688 L 79.996094 107.664062 C 79.996094 108.125 80.03125 108.453125 80.105469 108.648438 C 80.1875 108.835938 80.332031 108.929688 80.542969 108.929688 C 80.605469 108.929688 80.699219 108.914062 80.824219 108.882812 L 80.855469 109.273438 C 80.605469 109.367188 80.375 109.414062 80.167969 109.414062 C 79.644531 109.414062 79.316406 109.101562 79.183594 108.476562 Z M 78.933594 108.351562 L 78.933594 106.164062 L 78.683594 106.164062 C 78.066406 106.164062 77.582031 106.296875 77.230469 106.554688 C 76.875 106.804688 76.699219 107.15625 76.699219 107.601562 C 76.699219 107.945312 76.808594 108.226562 77.027344 108.445312 C 77.246094 108.664062 77.515625 108.773438 77.839844 108.773438 C 78.152344 108.773438 78.515625 108.632812 78.933594 108.351562 Z M 84.996094 109.117188 L 84.996094 107.585938 L 85.558594 107.585938 L 85.558594 107.679688 C 85.566406 107.859375 85.574219 107.992188 85.574219 108.085938 C 85.574219 108.265625 85.59375 108.394531 85.636719 108.476562 C 85.6875 108.550781 85.785156 108.632812 85.933594 108.726562 C 86.308594 108.957031 86.730469 109.070312 87.199219 109.070312 C 87.667969 109.070312 88.03125 108.9375 88.292969 108.664062 C 88.5625 108.394531 88.699219 108.019531 88.699219 107.539062 C 88.699219 107.144531 88.609375 106.832031 88.433594 106.601562 C 88.265625 106.363281 87.9375 106.101562 87.449219 105.820312 L 86.886719 105.492188 C 86.21875 105.128906 85.746094 104.773438 85.464844 104.429688 C 85.191406 104.085938 85.058594 103.691406 85.058594 103.242188 C 85.058594 102.640625 85.277344 102.140625 85.714844 101.742188 C 86.152344 101.335938 86.703125 101.132812 87.371094 101.132812 C 87.933594 101.132812 88.597656 101.242188 89.371094 101.460938 L 89.371094 102.882812 L 88.777344 102.882812 L 88.777344 102.789062 C 88.753906 102.59375 88.746094 102.453125 88.746094 102.367188 C 88.746094 102.046875 88.652344 101.832031 88.464844 101.726562 C 88.191406 101.570312 87.84375 101.492188 87.417969 101.492188 C 87.03125 101.492188 86.71875 101.617188 86.480469 101.867188 C 86.25 102.117188 86.136719 102.453125 86.136719 102.867188 C 86.136719 103.210938 86.214844 103.5 86.371094 103.726562 C 86.535156 103.957031 86.832031 104.195312 87.261719 104.445312 L 87.824219 104.757812 C 88.605469 105.207031 89.128906 105.597656 89.402344 105.929688 C 89.683594 106.253906 89.824219 106.664062 89.824219 107.164062 C 89.824219 107.820312 89.574219 108.375 89.074219 108.820312 C 88.582031 109.257812 87.972656 109.476562 87.246094 109.476562 C 86.878906 109.476562 86.480469 109.4375 86.042969 109.367188 C 85.605469 109.292969 85.253906 109.210938 84.996094 109.117188 Z M 95.355469 109.070312 C 94.800781 109.296875 94.261719 109.414062 93.730469 109.414062 C 92.875 109.414062 92.183594 109.128906 91.652344 108.554688 C 91.121094 107.984375 90.855469 107.242188 90.855469 106.335938 C 90.855469 105.421875 91.109375 104.6875 91.621094 104.132812 C 92.128906 103.582031 92.800781 103.304688 93.636719 103.304688 C 94.082031 103.304688 94.65625 103.394531 95.355469 103.570312 L 95.355469 104.960938 L 94.699219 104.960938 L 94.699219 104.867188 C 94.699219 104.441406 94.628906 104.15625 94.496094 104.007812 C 94.296875 103.78125 94.015625 103.664062 93.652344 103.664062 C 93.128906 103.664062 92.71875 103.898438 92.417969 104.367188 C 92.113281 104.828125 91.964844 105.457031 91.964844 106.257812 C 91.964844 107.070312 92.140625 107.710938 92.496094 108.179688 C 92.859375 108.648438 93.347656 108.882812 93.964844 108.882812 C 94.496094 108.882812 94.957031 108.796875 95.355469 108.617188 Z M 99.199219 109.414062 C 98.355469 109.414062 97.683594 109.140625 97.183594 108.585938 C 96.691406 108.035156 96.449219 107.289062 96.449219 106.351562 C 96.449219 105.414062 96.699219 104.675781 97.199219 104.132812 C 97.699219 103.582031 98.375 103.304688 99.230469 103.304688 C 100.09375 103.304688 100.769531 103.582031 101.261719 104.132812 C 101.761719 104.675781 102.011719 105.414062 102.011719 106.351562 C 102.011719 107.300781 101.761719 108.050781 101.261719 108.601562 C 100.761719 109.144531 100.074219 109.414062 99.199219 109.414062 Z M 99.214844 109.070312 C 99.703125 109.070312 100.105469 108.816406 100.417969 108.304688 C 100.730469 107.796875 100.886719 107.144531 100.886719 106.351562 C 100.886719 105.582031 100.722656 104.9375 100.402344 104.414062 C 100.089844 103.894531 99.699219 103.632812 99.230469 103.632812 C 98.761719 103.632812 98.363281 103.894531 98.042969 104.414062 C 97.730469 104.9375 97.574219 105.582031 97.574219 106.351562 C 97.574219 107.132812 97.730469 107.785156 98.042969 108.304688 C 98.355469 108.816406 98.746094 109.070312 99.214844 109.070312 Z M 106.417969 109.242188 C 106.144531 109.355469 105.890625 109.414062 105.652344 109.414062 C 105.097656 109.414062 104.667969 109.269531 104.355469 108.976562 C 104.167969 108.8125 104.035156 108.625 103.964844 108.414062 C 103.902344 108.195312 103.871094 107.875 103.871094 107.445312 L 103.871094 103.882812 L 103.011719 103.882812 L 103.011719 103.445312 L 103.871094 103.445312 L 103.871094 102.382812 L 104.933594 102.117188 L 104.933594 103.445312 L 106.542969 103.445312 L 106.542969 103.882812 L 104.933594 103.882812 L 104.933594 107.585938 C 104.933594 108.097656 104.980469 108.4375 105.074219 108.601562 C 105.21875 108.851562 105.464844 108.976562 105.808594 108.976562 C 105.972656 108.976562 106.175781 108.921875 106.417969 108.804688 Z M 109.105469 103.445312 L 109.105469 107.882812 C 109.105469 108.175781 109.128906 108.429688 109.183594 108.648438 C 109.203125 108.742188 109.238281 108.8125 109.292969 108.851562 C 109.355469 108.882812 109.46875 108.90625 109.636719 108.914062 L 109.996094 108.929688 L 110.105469 108.945312 L 110.105469 109.273438 L 107.058594 109.273438 L 107.058594 108.945312 L 107.152344 108.929688 L 107.511719 108.914062 C 107.71875 108.894531 107.847656 108.859375 107.902344 108.804688 C 107.964844 108.753906 108 108.625 108.011719 108.414062 L 108.042969 107.882812 L 108.042969 104.835938 L 108.011719 104.304688 C 108 104.097656 107.964844 103.96875 107.902344 103.914062 C 107.847656 103.851562 107.71875 103.816406 107.511719 103.804688 L 107.152344 103.773438 L 107.058594 103.773438 L 107.058594 103.445312 Z M 108.042969 102.382812 L 108.042969 101.320312 L 109.105469 101.320312 L 109.105469 102.382812 Z M 114.371094 108.476562 C 114.015625 108.820312 113.699219 109.066406 113.417969 109.210938 C 113.144531 109.34375 112.839844 109.414062 112.496094 109.414062 C 112.003906 109.414062 111.59375 109.257812 111.261719 108.945312 C 110.925781 108.625 110.761719 108.226562 110.761719 107.757812 C 110.761719 107.207031 110.980469 106.757812 111.417969 106.414062 C 111.6875 106.195312 112.003906 106.046875 112.371094 105.960938 C 112.746094 105.867188 113.253906 105.820312 113.902344 105.820312 L 114.121094 105.820312 L 114.121094 105.101562 C 114.121094 104.1875 113.769531 103.726562 113.074219 103.726562 C 112.75 103.726562 112.464844 103.828125 112.214844 104.023438 C 112.066406 104.140625 111.972656 104.390625 111.933594 104.773438 L 111.933594 104.867188 L 111.214844 104.867188 L 111.214844 103.804688 C 111.953125 103.472656 112.640625 103.304688 113.277344 103.304688 C 113.828125 103.304688 114.277344 103.4375 114.621094 103.695312 C 114.839844 103.863281 114.984375 104.046875 115.058594 104.242188 C 115.140625 104.429688 115.183594 104.703125 115.183594 105.054688 L 115.183594 107.664062 C 115.183594 108.125 115.21875 108.453125 115.292969 108.648438 C 115.375 108.835938 115.519531 108.929688 115.730469 108.929688 C 115.792969 108.929688 115.886719 108.914062 116.011719 108.882812 L 116.042969 109.273438 C 115.792969 109.367188 115.5625 109.414062 115.355469 109.414062 C 114.832031 109.414062 114.503906 109.101562 114.371094 108.476562 Z M 114.121094 108.351562 L 114.121094 106.164062 L 113.871094 106.164062 C 113.253906 106.164062 112.769531 106.296875 112.417969 106.554688 C 112.0625 106.804688 111.886719 107.15625 111.886719 107.601562 C 111.886719 107.945312 111.996094 108.226562 112.214844 108.445312 C 112.433594 108.664062 112.703125 108.773438 113.027344 108.773438 C 113.339844 108.773438 113.703125 108.632812 114.121094 108.351562 Z M 114.121094 108.351562 "/>
<path style=" stroke:none;fill-rule:nonzero;fill:rgb(0%,0%,0%);fill-opacity:1;" d="M 73.53125 93.546875 L 85.234375 95.609375 L 85.109375 96.234375 L 73.40625 94.171875 Z M 73.53125 93.546875 "/>
<path style=" stroke:none;fill-rule:nonzero;fill:rgb(0%,0%,0%);fill-opacity:1;" d="M 64.300781 92.09375 L 64.300781 98.71875 L 64.332031 99.25 C 64.339844 99.417969 64.363281 99.53125 64.394531 99.59375 C 64.425781 99.648438 64.488281 99.683594 64.582031 99.703125 C 64.789062 99.746094 64.996094 99.765625 65.207031 99.765625 L 65.832031 99.78125 L 65.832031 100.109375 L 61.722656 100.109375 L 61.722656 99.78125 L 62.347656 99.765625 C 62.542969 99.765625 62.746094 99.746094 62.957031 99.703125 C 63.050781 99.683594 63.113281 99.648438 63.144531 99.59375 C 63.175781 99.53125 63.195312 99.417969 63.207031 99.25 L 63.238281 98.71875 L 63.238281 93.78125 L 63.207031 93.25 C 63.207031 93.09375 63.191406 92.992188 63.160156 92.9375 C 63.136719 92.886719 63.082031 92.859375 62.988281 92.859375 C 62.882812 92.859375 62.636719 92.898438 62.253906 92.96875 L 61.722656 93.0625 L 61.722656 92.734375 Z M 70.988281 92.09375 L 70.988281 98.71875 L 71.019531 99.25 C 71.027344 99.417969 71.050781 99.53125 71.082031 99.59375 C 71.113281 99.648438 71.175781 99.683594 71.269531 99.703125 C 71.476562 99.746094 71.683594 99.765625 71.894531 99.765625 L 72.519531 99.78125 L 72.519531 100.109375 L 68.410156 100.109375 L 68.410156 99.78125 L 69.035156 99.765625 C 69.230469 99.765625 69.433594 99.746094 69.644531 99.703125 C 69.738281 99.683594 69.800781 99.648438 69.832031 99.59375 C 69.863281 99.53125 69.882812 99.417969 69.894531 99.25 L 69.925781 98.71875 L 69.925781 93.78125 L 69.894531 93.25 C 69.894531 93.09375 69.878906 92.992188 69.847656 92.9375 C 69.824219 92.886719 69.769531 92.859375 69.675781 92.859375 C 69.570312 92.859375 69.324219 92.898438 68.941406 92.96875 L 68.410156 93.0625 L 68.410156 92.734375 Z M 78.707031 96.21875 C 78.433594 96.59375 78.148438 96.867188 77.847656 97.03125 C 77.554688 97.1875 77.199219 97.265625 76.785156 97.265625 C 76.097656 97.265625 75.527344 97.03125 75.082031 96.5625 C 74.644531 96.09375 74.425781 95.496094 74.425781 94.765625 C 74.425781 93.976562 74.675781 93.308594 75.175781 92.765625 C 75.675781 92.226562 76.292969 91.953125 77.035156 91.953125 C 77.929688 91.953125 78.617188 92.308594 79.097656 93.015625 C 79.585938 93.714844 79.832031 94.710938 79.832031 96 C 79.832031 97.375 79.550781 98.4375 78.988281 99.1875 C 78.433594 99.9375 77.648438 100.3125 76.628906 100.3125 C 75.960938 100.3125 75.378906 100.191406 74.878906 99.953125 L 74.878906 98.6875 L 75.410156 98.6875 L 75.410156 98.796875 L 75.441406 99.1875 C 75.449219 99.335938 75.472656 99.4375 75.503906 99.5 C 75.542969 99.5625 75.636719 99.636719 75.785156 99.71875 C 76.085938 99.886719 76.398438 99.96875 76.722656 99.96875 C 77.347656 99.96875 77.832031 99.648438 78.175781 99 C 78.527344 98.34375 78.707031 97.417969 78.707031 96.21875 Z M 78.675781 95.09375 C 78.675781 94.273438 78.507812 93.601562 78.175781 93.078125 C 77.839844 92.558594 77.414062 92.296875 76.894531 92.296875 C 76.445312 92.296875 76.097656 92.507812 75.847656 92.921875 C 75.605469 93.328125 75.488281 93.898438 75.488281 94.625 C 75.488281 95.355469 75.613281 95.917969 75.863281 96.3125 C 76.113281 96.699219 76.476562 96.890625 76.957031 96.890625 C 77.414062 96.890625 77.816406 96.742188 78.160156 96.4375 C 78.503906 96.136719 78.675781 95.6875 78.675781 95.09375 Z M 81.488281 100.0625 L 81.488281 98.65625 L 82.019531 98.65625 L 82.019531 98.765625 L 82.035156 99.140625 C 82.035156 99.351562 82.113281 99.511719 82.269531 99.625 C 82.613281 99.867188 83.003906 99.984375 83.441406 99.984375 C 83.898438 99.984375 84.269531 99.804688 84.550781 99.4375 C 84.839844 99.0625 84.988281 98.570312 84.988281 97.953125 C 84.988281 97.351562 84.800781 96.882812 84.425781 96.546875 C 84.050781 96.203125 83.527344 96.03125 82.863281 96.03125 L 82.207031 96.03125 L 82.207031 95.703125 L 82.566406 95.703125 C 83.355469 95.703125 83.929688 95.5625 84.285156 95.28125 C 84.636719 94.992188 84.816406 94.527344 84.816406 93.890625 C 84.816406 93.382812 84.691406 92.984375 84.441406 92.703125 C 84.191406 92.421875 83.839844 92.28125 83.394531 92.28125 C 82.976562 92.28125 82.617188 92.371094 82.316406 92.546875 C 82.222656 92.601562 82.164062 92.664062 82.144531 92.734375 C 82.132812 92.796875 82.113281 93.023438 82.082031 93.40625 L 82.066406 93.484375 L 81.535156 93.484375 L 81.535156 92.265625 C 82.105469 92.058594 82.757812 91.953125 83.488281 91.953125 C 84.226562 91.953125 84.804688 92.121094 85.222656 92.453125 C 85.648438 92.777344 85.863281 93.21875 85.863281 93.78125 C 85.863281 94.730469 85.308594 95.40625 84.207031 95.8125 C 84.882812 95.992188 85.367188 96.242188 85.660156 96.5625 C 85.960938 96.886719 86.113281 97.339844 86.113281 97.921875 C 86.113281 98.664062 85.871094 99.246094 85.394531 99.671875 C 84.914062 100.101562 84.269531 100.3125 83.457031 100.3125 C 82.695312 100.3125 82.039062 100.226562 81.488281 100.0625 Z M 81.488281 100.0625 "/>
<path style=" stroke:none;fill-rule:nonzero;fill:rgb(100%,0%,0%);fill-opacity:1;" d="M 54.398438 132.390625 C 54.398438 136.390625 48.398438 136.390625 48.398438 132.390625 C 48.398438 128.390625 54.398438 128.390625 54.398438 132.390625 "/>
<path style=" stroke:none;fill-rule:nonzero;fill:rgb(0%,0%,0%);fill-opacity:1;" d="M 27.03125 145.84375 L 22.109375 139.1875 L 22.109375 144.34375 C 22.109375 144.636719 22.132812 144.890625 22.1875 145.109375 C 22.207031 145.203125 22.242188 145.273438 22.296875 145.3125 C 22.347656 145.34375 22.460938 145.367188 22.640625 145.375 L 23 145.390625 L 23.09375 145.40625 L 23.09375 145.734375 L 20.609375 145.734375 L 20.609375 145.40625 L 20.703125 145.390625 L 21.078125 145.375 C 21.242188 145.367188 21.351562 145.34375 21.40625 145.3125 C 21.46875 145.273438 21.507812 145.203125 21.53125 145.109375 C 21.582031 144.890625 21.609375 144.636719 21.609375 144.34375 L 21.609375 139.171875 C 21.609375 138.882812 21.582031 138.621094 21.53125 138.390625 C 21.507812 138.296875 21.46875 138.242188 21.40625 138.21875 C 21.351562 138.1875 21.242188 138.164062 21.078125 138.140625 L 20.703125 138.125 L 20.609375 138.109375 L 20.609375 137.78125 L 22.390625 137.78125 L 26.921875 143.953125 L 26.921875 139.171875 L 26.890625 138.640625 C 26.878906 138.445312 26.84375 138.320312 26.78125 138.265625 C 26.726562 138.203125 26.597656 138.164062 26.390625 138.140625 L 26.03125 138.125 L 25.9375 138.109375 L 25.9375 137.78125 L 28.40625 137.78125 L 28.40625 138.109375 L 28.3125 138.125 L 27.9375 138.140625 C 27.738281 138.164062 27.609375 138.203125 27.546875 138.265625 C 27.492188 138.320312 27.460938 138.445312 27.453125 138.640625 L 27.421875 139.171875 L 27.421875 145.84375 Z M 31.921875 145.875 C 31.078125 145.875 30.40625 145.601562 29.90625 145.046875 C 29.414062 144.496094 29.171875 143.75 29.171875 142.8125 C 29.171875 141.875 29.421875 141.136719 29.921875 140.59375 C 30.421875 140.042969 31.097656 139.765625 31.953125 139.765625 C 32.816406 139.765625 33.492188 140.042969 33.984375 140.59375 C 34.484375 141.136719 34.734375 141.875 34.734375 142.8125 C 34.734375 143.761719 34.484375 144.511719 33.984375 145.0625 C 33.484375 145.605469 32.796875 145.875 31.921875 145.875 Z M 31.9375 145.53125 C 32.425781 145.53125 32.828125 145.277344 33.140625 144.765625 C 33.453125 144.257812 33.609375 143.605469 33.609375 142.8125 C 33.609375 142.042969 33.445312 141.398438 33.125 140.875 C 32.8125 140.355469 32.421875 140.09375 31.953125 140.09375 C 31.484375 140.09375 31.085938 140.355469 30.765625 140.875 C 30.453125 141.398438 30.296875 142.042969 30.296875 142.8125 C 30.296875 143.59375 30.453125 144.246094 30.765625 144.765625 C 31.078125 145.277344 31.46875 145.53125 31.9375 145.53125 Z M 38.03125 145.796875 L 36.140625 141.328125 C 35.941406 140.859375 35.796875 140.5625 35.703125 140.4375 C 35.617188 140.3125 35.503906 140.246094 35.359375 140.234375 L 35.265625 140.234375 L 35.265625 139.90625 L 37.796875 139.90625 L 37.796875 140.234375 L 37.40625 140.234375 C 37.125 140.234375 36.984375 140.3125 36.984375 140.46875 C 36.984375 140.542969 37.09375 140.835938 37.3125 141.34375 L 38.625 144.453125 L 39.984375 141.34375 C 40.191406 140.855469 40.296875 140.5625 40.296875 140.46875 C 40.296875 140.3125 40.171875 140.234375 39.921875 140.234375 L 39.53125 140.234375 L 39.53125 139.90625 L 41.265625 139.90625 L 41.265625 140.234375 L 41.15625 140.234375 C 41.03125 140.246094 40.929688 140.289062 40.859375 140.359375 C 40.785156 140.433594 40.707031 140.5625 40.625 140.75 L 40.375 141.34375 L 38.359375 145.796875 Z M 45.40625 144.9375 C 45.050781 145.28125 44.734375 145.527344 44.453125 145.671875 C 44.179688 145.804688 43.875 145.875 43.53125 145.875 C 43.039062 145.875 42.628906 145.71875 42.296875 145.40625 C 41.960938 145.085938 41.796875 144.6875 41.796875 144.21875 C 41.796875 143.667969 42.015625 143.21875 42.453125 142.875 C 42.722656 142.65625 43.039062 142.507812 43.40625 142.421875 C 43.78125 142.328125 44.289062 142.28125 44.9375 142.28125 L 45.15625 142.28125 L 45.15625 141.5625 C 45.15625 140.648438 44.804688 140.1875 44.109375 140.1875 C 43.785156 140.1875 43.5 140.289062 43.25 140.484375 C 43.101562 140.601562 43.007812 140.851562 42.96875 141.234375 L 42.96875 141.328125 L 42.25 141.328125 L 42.25 140.265625 C 42.988281 139.933594 43.675781 139.765625 44.3125 139.765625 C 44.863281 139.765625 45.3125 139.898438 45.65625 140.15625 C 45.875 140.324219 46.019531 140.507812 46.09375 140.703125 C 46.175781 140.890625 46.21875 141.164062 46.21875 141.515625 L 46.21875 144.125 C 46.21875 144.585938 46.253906 144.914062 46.328125 145.109375 C 46.410156 145.296875 46.554688 145.390625 46.765625 145.390625 C 46.828125 145.390625 46.921875 145.375 47.046875 145.34375 L 47.078125 145.734375 C 46.828125 145.828125 46.597656 145.875 46.390625 145.875 C 45.867188 145.875 45.539062 145.5625 45.40625 144.9375 Z M 45.15625 144.8125 L 45.15625 142.625 L 44.90625 142.625 C 44.289062 142.625 43.804688 142.757812 43.453125 143.015625 C 43.097656 143.265625 42.921875 143.617188 42.921875 144.0625 C 42.921875 144.40625 43.03125 144.6875 43.25 144.90625 C 43.46875 145.125 43.738281 145.234375 44.0625 145.234375 C 44.375 145.234375 44.738281 145.09375 45.15625 144.8125 Z M 51.21875 145.578125 L 51.21875 144.046875 L 51.78125 144.046875 L 51.78125 144.140625 C 51.789062 144.320312 51.796875 144.453125 51.796875 144.546875 C 51.796875 144.726562 51.816406 144.855469 51.859375 144.9375 C 51.910156 145.011719 52.007812 145.09375 52.15625 145.1875 C 52.53125 145.417969 52.953125 145.53125 53.421875 145.53125 C 53.890625 145.53125 54.253906 145.398438 54.515625 145.125 C 54.785156 144.855469 54.921875 144.480469 54.921875 144 C 54.921875 143.605469 54.832031 143.292969 54.65625 143.0625 C 54.488281 142.824219 54.160156 142.5625 53.671875 142.28125 L 53.109375 141.953125 C 52.441406 141.589844 51.96875 141.234375 51.6875 140.890625 C 51.414062 140.546875 51.28125 140.152344 51.28125 139.703125 C 51.28125 139.101562 51.5 138.601562 51.9375 138.203125 C 52.375 137.796875 52.925781 137.59375 53.59375 137.59375 C 54.15625 137.59375 54.820312 137.703125 55.59375 137.921875 L 55.59375 139.34375 L 55 139.34375 L 55 139.25 C 54.976562 139.054688 54.96875 138.914062 54.96875 138.828125 C 54.96875 138.507812 54.875 138.292969 54.6875 138.1875 C 54.414062 138.03125 54.066406 137.953125 53.640625 137.953125 C 53.253906 137.953125 52.941406 138.078125 52.703125 138.328125 C 52.472656 138.578125 52.359375 138.914062 52.359375 139.328125 C 52.359375 139.671875 52.4375 139.960938 52.59375 140.1875 C 52.757812 140.417969 53.054688 140.65625 53.484375 140.90625 L 54.046875 141.21875 C 54.828125 141.667969 55.351562 142.058594 55.625 142.390625 C 55.90625 142.714844 56.046875 143.125 56.046875 143.625 C 56.046875 144.28125 55.796875 144.835938 55.296875 145.28125 C 54.804688 145.71875 54.195312 145.9375 53.46875 145.9375 C 53.101562 145.9375 52.703125 145.898438 52.265625 145.828125 C 51.828125 145.753906 51.476562 145.671875 51.21875 145.578125 Z M 61.578125 145.53125 C 61.023438 145.757812 60.484375 145.875 59.953125 145.875 C 59.097656 145.875 58.40625 145.589844 57.875 145.015625 C 57.34375 144.445312 57.078125 143.703125 57.078125 142.796875 C 57.078125 141.882812 57.332031 141.148438 57.84375 140.59375 C 58.351562 140.042969 59.023438 139.765625 59.859375 139.765625 C 60.304688 139.765625 60.878906 139.855469 61.578125 140.03125 L 61.578125 141.421875 L 60.921875 141.421875 L 60.921875 141.328125 C 60.921875 140.902344 60.851562 140.617188 60.71875 140.46875 C 60.519531 140.242188 60.238281 140.125 59.875 140.125 C 59.351562 140.125 58.941406 140.359375 58.640625 140.828125 C 58.335938 141.289062 58.1875 141.917969 58.1875 142.71875 C 58.1875 143.53125 58.363281 144.171875 58.71875 144.640625 C 59.082031 145.109375 59.570312 145.34375 60.1875 145.34375 C 60.71875 145.34375 61.179688 145.257812 61.578125 145.078125 Z M 65.421875 145.875 C 64.578125 145.875 63.90625 145.601562 63.40625 145.046875 C 62.914062 144.496094 62.671875 143.75 62.671875 142.8125 C 62.671875 141.875 62.921875 141.136719 63.421875 140.59375 C 63.921875 140.042969 64.597656 139.765625 65.453125 139.765625 C 66.316406 139.765625 66.992188 140.042969 67.484375 140.59375 C 67.984375 141.136719 68.234375 141.875 68.234375 142.8125 C 68.234375 143.761719 67.984375 144.511719 67.484375 145.0625 C 66.984375 145.605469 66.296875 145.875 65.421875 145.875 Z M 65.4375 145.53125 C 65.925781 145.53125 66.328125 145.277344 66.640625 144.765625 C 66.953125 144.257812 67.109375 143.605469 67.109375 142.8125 C 67.109375 142.042969 66.945312 141.398438 66.625 140.875 C 66.3125 140.355469 65.921875 140.09375 65.453125 140.09375 C 64.984375 140.09375 64.585938 140.355469 64.265625 140.875 C 63.953125 141.398438 63.796875 142.042969 63.796875 142.8125 C 63.796875 143.59375 63.953125 144.246094 64.265625 144.765625 C 64.578125 145.277344 64.96875 145.53125 65.4375 145.53125 Z M 72.640625 145.703125 C 72.367188 145.816406 72.113281 145.875 71.875 145.875 C 71.320312 145.875 70.890625 145.730469 70.578125 145.4375 C 70.390625 145.273438 70.257812 145.085938 70.1875 144.875 C 70.125 144.65625 70.09375 144.335938 70.09375 143.90625 L 70.09375 140.34375 L 69.234375 140.34375 L 69.234375 139.90625 L 70.09375 139.90625 L 70.09375 138.84375 L 71.15625 138.578125 L 71.15625 139.90625 L 72.765625 139.90625 L 72.765625 140.34375 L 71.15625 140.34375 L 71.15625 144.046875 C 71.15625 144.558594 71.203125 144.898438 71.296875 145.0625 C 71.441406 145.3125 71.6875 145.4375 72.03125 145.4375 C 72.195312 145.4375 72.398438 145.382812 72.640625 145.265625 Z M 75.328125 139.90625 L 75.328125 144.34375 C 75.328125 144.636719 75.351562 144.890625 75.40625 145.109375 C 75.425781 145.203125 75.460938 145.273438 75.515625 145.3125 C 75.578125 145.34375 75.691406 145.367188 75.859375 145.375 L 76.21875 145.390625 L 76.328125 145.40625 L 76.328125 145.734375 L 73.28125 145.734375 L 73.28125 145.40625 L 73.375 145.390625 L 73.734375 145.375 C 73.941406 145.355469 74.070312 145.320312 74.125 145.265625 C 74.1875 145.214844 74.222656 145.085938 74.234375 144.875 L 74.265625 144.34375 L 74.265625 141.296875 L 74.234375 140.765625 C 74.222656 140.558594 74.1875 140.429688 74.125 140.375 C 74.070312 140.3125 73.941406 140.277344 73.734375 140.265625 L 73.375 140.234375 L 73.28125 140.234375 L 73.28125 139.90625 Z M 74.265625 138.84375 L 74.265625 137.78125 L 75.328125 137.78125 L 75.328125 138.84375 Z M 80.59375 144.9375 C 80.238281 145.28125 79.921875 145.527344 79.640625 145.671875 C 79.367188 145.804688 79.0625 145.875 78.71875 145.875 C 78.226562 145.875 77.816406 145.71875 77.484375 145.40625 C 77.148438 145.085938 76.984375 144.6875 76.984375 144.21875 C 76.984375 143.667969 77.203125 143.21875 77.640625 142.875 C 77.910156 142.65625 78.226562 142.507812 78.59375 142.421875 C 78.96875 142.328125 79.476562 142.28125 80.125 142.28125 L 80.34375 142.28125 L 80.34375 141.5625 C 80.34375 140.648438 79.992188 140.1875 79.296875 140.1875 C 78.972656 140.1875 78.6875 140.289062 78.4375 140.484375 C 78.289062 140.601562 78.195312 140.851562 78.15625 141.234375 L 78.15625 141.328125 L 77.4375 141.328125 L 77.4375 140.265625 C 78.175781 139.933594 78.863281 139.765625 79.5 139.765625 C 80.050781 139.765625 80.5 139.898438 80.84375 140.15625 C 81.0625 140.324219 81.207031 140.507812 81.28125 140.703125 C 81.363281 140.890625 81.40625 141.164062 81.40625 141.515625 L 81.40625 144.125 C 81.40625 144.585938 81.441406 144.914062 81.515625 145.109375 C 81.597656 145.296875 81.742188 145.390625 81.953125 145.390625 C 82.015625 145.390625 82.109375 145.375 82.234375 145.34375 L 82.265625 145.734375 C 82.015625 145.828125 81.785156 145.875 81.578125 145.875 C 81.054688 145.875 80.726562 145.5625 80.59375 144.9375 Z M 80.34375 144.8125 L 80.34375 142.625 L 80.09375 142.625 C 79.476562 142.625 78.992188 142.757812 78.640625 143.015625 C 78.285156 143.265625 78.109375 143.617188 78.109375 144.0625 C 78.109375 144.40625 78.21875 144.6875 78.4375 144.90625 C 78.65625 145.125 78.925781 145.234375 79.25 145.234375 C 79.5625 145.234375 79.925781 145.09375 80.34375 144.8125 Z M 80.34375 144.8125 "/>
<path style=" stroke:none;fill-rule:nonzero;fill:rgb(0%,0%,0%);fill-opacity:1;" d="M 40.492188 127.636719 L 51.507812 132.089844 L 51.273438 132.683594 L 40.257812 128.230469 Z M 40.492188 127.636719 "/>
<path style=" stroke:none;fill-rule:nonzero;fill:rgb(0%,0%,0%);fill-opacity:1;" d="M 35.117188 132.507812 C 35.386719 132.132812 35.667969 131.867188 35.960938 131.710938 C 36.261719 131.546875 36.621094 131.460938 37.039062 131.460938 C 37.734375 131.460938 38.304688 131.695312 38.742188 132.164062 C 39.179688 132.625 39.398438 133.222656 39.398438 133.960938 C 39.398438 134.753906 39.148438 135.421875 38.648438 135.960938 C 38.148438 136.503906 37.53125 136.773438 36.804688 136.773438 C 35.90625 136.773438 35.214844 136.425781 34.726562 135.726562 C 34.234375 135.019531 33.992188 134.019531 33.992188 132.726562 C 33.992188 131.351562 34.273438 130.289062 34.835938 129.539062 C 35.398438 128.789062 36.1875 128.414062 37.210938 128.414062 C 37.867188 128.414062 38.445312 128.535156 38.945312 128.773438 L 38.945312 130.039062 L 38.429688 130.039062 L 38.414062 129.929688 L 38.382812 129.554688 C 38.371094 129.398438 38.34375 129.296875 38.304688 129.242188 C 38.273438 129.179688 38.183594 129.109375 38.039062 129.023438 C 37.734375 128.835938 37.421875 128.742188 37.101562 128.742188 C 36.476562 128.742188 35.984375 129.070312 35.632812 129.726562 C 35.289062 130.382812 35.117188 131.3125 35.117188 132.507812 Z M 35.164062 133.632812 C 35.164062 134.457031 35.324219 135.128906 35.648438 135.648438 C 35.980469 136.171875 36.40625 136.429688 36.929688 136.429688 C 37.375 136.429688 37.71875 136.226562 37.960938 135.820312 C 38.210938 135.40625 38.335938 134.832031 38.335938 134.101562 C 38.335938 133.375 38.210938 132.816406 37.960938 132.429688 C 37.710938 132.035156 37.351562 131.835938 36.882812 131.835938 C 36.414062 131.835938 36.007812 131.988281 35.664062 132.289062 C 35.328125 132.59375 35.164062 133.039062 35.164062 133.632812 Z M 43.320312 136.773438 C 42.507812 136.773438 41.84375 136.394531 41.335938 135.632812 C 40.835938 134.875 40.585938 133.867188 40.585938 132.617188 C 40.585938 131.335938 40.835938 130.320312 41.335938 129.570312 C 41.84375 128.8125 42.523438 128.429688 43.367188 128.429688 C 44.210938 128.429688 44.882812 128.8125 45.382812 129.570312 C 45.890625 130.320312 46.148438 131.332031 46.148438 132.601562 C 46.148438 133.882812 45.890625 134.898438 45.382812 135.648438 C 44.882812 136.398438 44.195312 136.773438 43.320312 136.773438 Z M 43.335938 136.429688 C 43.867188 136.460938 44.292969 136.148438 44.617188 135.492188 C 44.773438 135.171875 44.875 134.796875 44.929688 134.367188 C 44.992188 133.929688 45.023438 133.320312 45.023438 132.539062 C 45.023438 131.21875 44.886719 130.273438 44.617188 129.710938 C 44.304688 129.066406 43.886719 128.742188 43.367188 128.742188 C 42.84375 128.742188 42.429688 129.066406 42.117188 129.710938 C 41.96875 130.023438 41.867188 130.394531 41.804688 130.820312 C 41.742188 131.25 41.710938 131.835938 41.710938 132.585938 C 41.710938 133.347656 41.742188 133.945312 41.804688 134.382812 C 41.867188 134.8125 41.96875 135.175781 42.117188 135.476562 C 42.417969 136.09375 42.824219 136.410156 43.335938 136.429688 Z M 50.585938 128.554688 L 50.585938 135.179688 L 50.617188 135.710938 C 50.625 135.878906 50.648438 135.992188 50.679688 136.054688 C 50.710938 136.109375 50.773438 136.144531 50.867188 136.164062 C 51.074219 136.207031 51.28125 136.226562 51.492188 136.226562 L 52.117188 136.242188 L 52.117188 136.570312 L 48.007812 136.570312 L 48.007812 136.242188 L 48.632812 136.226562 C 48.828125 136.226562 49.03125 136.207031 49.242188 136.164062 C 49.335938 136.144531 49.398438 136.109375 49.429688 136.054688 C 49.460938 135.992188 49.480469 135.878906 49.492188 135.710938 L 49.523438 135.179688 L 49.523438 130.242188 L 49.492188 129.710938 C 49.492188 129.554688 49.476562 129.453125 49.445312 129.398438 C 49.421875 129.347656 49.367188 129.320312 49.273438 129.320312 C 49.167969 129.320312 48.921875 129.359375 48.539062 129.429688 L 48.007812 129.523438 L 48.007812 129.195312 Z M 50.585938 128.554688 "/>
<path style=" stroke:none;fill-rule:nonzero;fill:rgb(100%,0%,0%);fill-opacity:1;" d="M 101.15625 59.773438 C 101.15625 63.773438 95.15625 63.773438 95.15625 59.773438 C 95.15625 55.773438 101.15625 55.773438 101.15625 59.773438 "/>
<path style=" stroke:none;fill-rule:nonzero;fill:rgb(0%,0%,0%);fill-opacity:1;" d="M 73.789062 73.226562 L 68.867188 66.570312 L 68.867188 71.726562 C 68.867188 72.019531 68.890625 72.273438 68.945312 72.492188 C 68.964844 72.585938 69 72.65625 69.054688 72.695312 C 69.105469 72.726562 69.21875 72.75 69.398438 72.757812 L 69.757812 72.773438 L 69.851562 72.789062 L 69.851562 73.117188 L 67.367188 73.117188 L 67.367188 72.789062 L 67.460938 72.773438 L 67.835938 72.757812 C 68 72.75 68.109375 72.726562 68.164062 72.695312 C 68.226562 72.65625 68.265625 72.585938 68.289062 72.492188 C 68.339844 72.273438 68.367188 72.019531 68.367188 71.726562 L 68.367188 66.554688 C 68.367188 66.265625 68.339844 66.003906 68.289062 65.773438 C 68.265625 65.679688 68.226562 65.625 68.164062 65.601562 C 68.109375 65.570312 68 65.546875 67.835938 65.523438 L 67.460938 65.507812 L 67.367188 65.492188 L 67.367188 65.164062 L 69.148438 65.164062 L 73.679688 71.335938 L 73.679688 66.554688 L 73.648438 66.023438 C 73.636719 65.828125 73.601562 65.703125 73.539062 65.648438 C 73.484375 65.585938 73.355469 65.546875 73.148438 65.523438 L 72.789062 65.507812 L 72.695312 65.492188 L 72.695312 65.164062 L 75.164062 65.164062 L 75.164062 65.492188 L 75.070312 65.507812 L 74.695312 65.523438 C 74.496094 65.546875 74.367188 65.585938 74.304688 65.648438 C 74.25 65.703125 74.21875 65.828125 74.210938 66.023438 L 74.179688 66.554688 L 74.179688 73.226562 Z M 78.679688 73.257812 C 77.835938 73.257812 77.164062 72.984375 76.664062 72.429688 C 76.171875 71.878906 75.929688 71.132812 75.929688 70.195312 C 75.929688 69.257812 76.179688 68.519531 76.679688 67.976562 C 77.179688 67.425781 77.855469 67.148438 78.710938 67.148438 C 79.574219 67.148438 80.25 67.425781 80.742188 67.976562 C 81.242188 68.519531 81.492188 69.257812 81.492188 70.195312 C 81.492188 71.144531 81.242188 71.894531 80.742188 72.445312 C 80.242188 72.988281 79.554688 73.257812 78.679688 73.257812 Z M 78.695312 72.914062 C 79.183594 72.914062 79.585938 72.660156 79.898438 72.148438 C 80.210938 71.640625 80.367188 70.988281 80.367188 70.195312 C 80.367188 69.425781 80.203125 68.78125 79.882812 68.257812 C 79.570312 67.738281 79.179688 67.476562 78.710938 67.476562 C 78.242188 67.476562 77.84375 67.738281 77.523438 68.257812 C 77.210938 68.78125 77.054688 69.425781 77.054688 70.195312 C 77.054688 70.976562 77.210938 71.628906 77.523438 72.148438 C 77.835938 72.660156 78.226562 72.914062 78.695312 72.914062 Z M 84.789062 73.179688 L 82.898438 68.710938 C 82.699219 68.242188 82.554688 67.945312 82.460938 67.820312 C 82.375 67.695312 82.261719 67.628906 82.117188 67.617188 L 82.023438 67.617188 L 82.023438 67.289062 L 84.554688 67.289062 L 84.554688 67.617188 L 84.164062 67.617188 C 83.882812 67.617188 83.742188 67.695312 83.742188 67.851562 C 83.742188 67.925781 83.851562 68.21875 84.070312 68.726562 L 85.382812 71.835938 L 86.742188 68.726562 C 86.949219 68.238281 87.054688 67.945312 87.054688 67.851562 C 87.054688 67.695312 86.929688 67.617188 86.679688 67.617188 L 86.289062 67.617188 L 86.289062 67.289062 L 88.023438 67.289062 L 88.023438 67.617188 L 87.914062 67.617188 C 87.789062 67.628906 87.6875 67.671875 87.617188 67.742188 C 87.542969 67.816406 87.464844 67.945312 87.382812 68.132812 L 87.132812 68.726562 L 85.117188 73.179688 Z M 92.164062 72.320312 C 91.808594 72.664062 91.492188 72.910156 91.210938 73.054688 C 90.9375 73.1875 90.632812 73.257812 90.289062 73.257812 C 89.796875 73.257812 89.386719 73.101562 89.054688 72.789062 C 88.71875 72.46875 88.554688 72.070312 88.554688 71.601562 C 88.554688 71.050781 88.773438 70.601562 89.210938 70.257812 C 89.480469 70.039062 89.796875 69.890625 90.164062 69.804688 C 90.539062 69.710938 91.046875 69.664062 91.695312 69.664062 L 91.914062 69.664062 L 91.914062 68.945312 C 91.914062 68.03125 91.5625 67.570312 90.867188 67.570312 C 90.542969 67.570312 90.257812 67.671875 90.007812 67.867188 C 89.859375 67.984375 89.765625 68.234375 89.726562 68.617188 L 89.726562 68.710938 L 89.007812 68.710938 L 89.007812 67.648438 C 89.746094 67.316406 90.433594 67.148438 91.070312 67.148438 C 91.621094 67.148438 92.070312 67.28125 92.414062 67.539062 C 92.632812 67.707031 92.777344 67.890625 92.851562 68.085938 C 92.933594 68.273438 92.976562 68.546875 92.976562 68.898438 L 92.976562 71.507812 C 92.976562 71.96875 93.011719 72.296875 93.085938 72.492188 C 93.167969 72.679688 93.3125 72.773438 93.523438 72.773438 C 93.585938 72.773438 93.679688 72.757812 93.804688 72.726562 L 93.835938 73.117188 C 93.585938 73.210938 93.355469 73.257812 93.148438 73.257812 C 92.625 73.257812 92.296875 72.945312 92.164062 72.320312 Z M 91.914062 72.195312 L 91.914062 70.007812 L 91.664062 70.007812 C 91.046875 70.007812 90.5625 70.140625 90.210938 70.398438 C 89.855469 70.648438 89.679688 71 89.679688 71.445312 C 89.679688 71.789062 89.789062 72.070312 90.007812 72.289062 C 90.226562 72.507812 90.496094 72.617188 90.820312 72.617188 C 91.132812 72.617188 91.496094 72.476562 91.914062 72.195312 Z M 97.976562 72.960938 L 97.976562 71.429688 L 98.539062 71.429688 L 98.539062 71.523438 C 98.546875 71.703125 98.554688 71.835938 98.554688 71.929688 C 98.554688 72.109375 98.574219 72.238281 98.617188 72.320312 C 98.667969 72.394531 98.765625 72.476562 98.914062 72.570312 C 99.289062 72.800781 99.710938 72.914062 100.179688 72.914062 C 100.648438 72.914062 101.011719 72.78125 101.273438 72.507812 C 101.542969 72.238281 101.679688 71.863281 101.679688 71.382812 C 101.679688 70.988281 101.589844 70.675781 101.414062 70.445312 C 101.246094 70.207031 100.917969 69.945312 100.429688 69.664062 L 99.867188 69.335938 C 99.199219 68.972656 98.726562 68.617188 98.445312 68.273438 C 98.171875 67.929688 98.039062 67.535156 98.039062 67.085938 C 98.039062 66.484375 98.257812 65.984375 98.695312 65.585938 C 99.132812 65.179688 99.683594 64.976562 100.351562 64.976562 C 100.914062 64.976562 101.578125 65.085938 102.351562 65.304688 L 102.351562 66.726562 L 101.757812 66.726562 L 101.757812 66.632812 C 101.734375 66.4375 101.726562 66.296875 101.726562 66.210938 C 101.726562 65.890625 101.632812 65.675781 101.445312 65.570312 C 101.171875 65.414062 100.824219 65.335938 100.398438 65.335938 C 100.011719 65.335938 99.699219 65.460938 99.460938 65.710938 C 99.230469 65.960938 99.117188 66.296875 99.117188 66.710938 C 99.117188 67.054688 99.195312 67.34375 99.351562 67.570312 C 99.515625 67.800781 99.8125 68.039062 100.242188 68.289062 L 100.804688 68.601562 C 101.585938 69.050781 102.109375 69.441406 102.382812 69.773438 C 102.664062 70.097656 102.804688 70.507812 102.804688 71.007812 C 102.804688 71.664062 102.554688 72.21875 102.054688 72.664062 C 101.5625 73.101562 100.953125 73.320312 100.226562 73.320312 C 99.859375 73.320312 99.460938 73.28125 99.023438 73.210938 C 98.585938 73.136719 98.234375 73.054688 97.976562 72.960938 Z M 108.335938 72.914062 C 107.78125 73.140625 107.242188 73.257812 106.710938 73.257812 C 105.855469 73.257812 105.164062 72.972656 104.632812 72.398438 C 104.101562 71.828125 103.835938 71.085938 103.835938 70.179688 C 103.835938 69.265625 104.089844 68.53125 104.601562 67.976562 C 105.109375 67.425781 105.78125 67.148438 106.617188 67.148438 C 107.0625 67.148438 107.636719 67.238281 108.335938 67.414062 L 108.335938 68.804688 L 107.679688 68.804688 L 107.679688 68.710938 C 107.679688 68.285156 107.609375 68 107.476562 67.851562 C 107.277344 67.625 106.996094 67.507812 106.632812 67.507812 C 106.109375 67.507812 105.699219 67.742188 105.398438 68.210938 C 105.09375 68.671875 104.945312 69.300781 104.945312 70.101562 C 104.945312 70.914062 105.121094 71.554688 105.476562 72.023438 C 105.839844 72.492188 106.328125 72.726562 106.945312 72.726562 C 107.476562 72.726562 107.9375 72.640625 108.335938 72.460938 Z M 112.179688 73.257812 C 111.335938 73.257812 110.664062 72.984375 110.164062 72.429688 C 109.671875 71.878906 109.429688 71.132812 109.429688 70.195312 C 109.429688 69.257812 109.679688 68.519531 110.179688 67.976562 C 110.679688 67.425781 111.355469 67.148438 112.210938 67.148438 C 113.074219 67.148438 113.75 67.425781 114.242188 67.976562 C 114.742188 68.519531 114.992188 69.257812 114.992188 70.195312 C 114.992188 71.144531 114.742188 71.894531 114.242188 72.445312 C 113.742188 72.988281 113.054688 73.257812 112.179688 73.257812 Z M 112.195312 72.914062 C 112.683594 72.914062 113.085938 72.660156 113.398438 72.148438 C 113.710938 71.640625 113.867188 70.988281 113.867188 70.195312 C 113.867188 69.425781 113.703125 68.78125 113.382812 68.257812 C 113.070312 67.738281 112.679688 67.476562 112.210938 67.476562 C 111.742188 67.476562 111.34375 67.738281 111.023438 68.257812 C 110.710938 68.78125 110.554688 69.425781 110.554688 70.195312 C 110.554688 70.976562 110.710938 71.628906 111.023438 72.148438 C 111.335938 72.660156 111.726562 72.914062 112.195312 72.914062 Z M 119.398438 73.085938 C 119.125 73.199219 118.871094 73.257812 118.632812 73.257812 C 118.078125 73.257812 117.648438 73.113281 117.335938 72.820312 C 117.148438 72.65625 117.015625 72.46875 116.945312 72.257812 C 116.882812 72.039062 116.851562 71.71875 116.851562 71.289062 L 116.851562 67.726562 L 115.992188 67.726562 L 115.992188 67.289062 L 116.851562 67.289062 L 116.851562 66.226562 L 117.914062 65.960938 L 117.914062 67.289062 L 119.523438 67.289062 L 119.523438 67.726562 L 117.914062 67.726562 L 117.914062 71.429688 C 117.914062 71.941406 117.960938 72.28125 118.054688 72.445312 C 118.199219 72.695312 118.445312 72.820312 118.789062 72.820312 C 118.953125 72.820312 119.15625 72.765625 119.398438 72.648438 Z M 122.085938 67.289062 L 122.085938 71.726562 C 122.085938 72.019531 122.109375 72.273438 122.164062 72.492188 C 122.183594 72.585938 122.21875 72.65625 122.273438 72.695312 C 122.335938 72.726562 122.449219 72.75 122.617188 72.757812 L 122.976562 72.773438 L 123.085938 72.789062 L 123.085938 73.117188 L 120.039062 73.117188 L 120.039062 72.789062 L 120.132812 72.773438 L 120.492188 72.757812 C 120.699219 72.738281 120.828125 72.703125 120.882812 72.648438 C 120.945312 72.597656 120.980469 72.46875 120.992188 72.257812 L 121.023438 71.726562 L 121.023438 68.679688 L 120.992188 68.148438 C 120.980469 67.941406 120.945312 67.8125 120.882812 67.757812 C 120.828125 67.695312 120.699219 67.660156 120.492188 67.648438 L 120.132812 67.617188 L 120.039062 67.617188 L 120.039062 67.289062 Z M 121.023438 66.226562 L 121.023438 65.164062 L 122.085938 65.164062 L 122.085938 66.226562 Z M 127.351562 72.320312 C 126.996094 72.664062 126.679688 72.910156 126.398438 73.054688 C 126.125 73.1875 125.820312 73.257812 125.476562 73.257812 C 124.984375 73.257812 124.574219 73.101562 124.242188 72.789062 C 123.90625 72.46875 123.742188 72.070312 123.742188 71.601562 C 123.742188 71.050781 123.960938 70.601562 124.398438 70.257812 C 124.667969 70.039062 124.984375 69.890625 125.351562 69.804688 C 125.726562 69.710938 126.234375 69.664062 126.882812 69.664062 L 127.101562 69.664062 L 127.101562 68.945312 C 127.101562 68.03125 126.75 67.570312 126.054688 67.570312 C 125.730469 67.570312 125.445312 67.671875 125.195312 67.867188 C 125.046875 67.984375 124.953125 68.234375 124.914062 68.617188 L 124.914062 68.710938 L 124.195312 68.710938 L 124.195312 67.648438 C 124.933594 67.316406 125.621094 67.148438 126.257812 67.148438 C 126.808594 67.148438 127.257812 67.28125 127.601562 67.539062 C 127.820312 67.707031 127.964844 67.890625 128.039062 68.085938 C 128.121094 68.273438 128.164062 68.546875 128.164062 68.898438 L 128.164062 71.507812 C 128.164062 71.96875 128.199219 72.296875 128.273438 72.492188 C 128.355469 72.679688 128.5 72.773438 128.710938 72.773438 C 128.773438 72.773438 128.867188 72.757812 128.992188 72.726562 L 129.023438 73.117188 C 128.773438 73.210938 128.542969 73.257812 128.335938 73.257812 C 127.8125 73.257812 127.484375 72.945312 127.351562 72.320312 Z M 127.101562 72.195312 L 127.101562 70.007812 L 126.851562 70.007812 C 126.234375 70.007812 125.75 70.140625 125.398438 70.398438 C 125.042969 70.648438 124.867188 71 124.867188 71.445312 C 124.867188 71.789062 124.976562 72.070312 125.195312 72.289062 C 125.414062 72.507812 125.683594 72.617188 126.007812 72.617188 C 126.320312 72.617188 126.683594 72.476562 127.101562 72.195312 Z M 127.101562 72.195312 "/>
<path style=" stroke:none;fill-rule:nonzero;fill:rgb(0%,0%,0%);fill-opacity:1;" d="M 109.890625 61.746094 L 98.109375 60.089844 L 98.1875 59.464844 L 109.96875 61.121094 Z M 109.890625 61.746094 "/>
<path style=" stroke:none;fill-rule:nonzero;fill:rgb(0%,0%,0%);fill-opacity:1;" d="M 77.28125 55.9375 L 77.28125 62.5625 L 77.3125 63.09375 C 77.320312 63.261719 77.34375 63.375 77.375 63.4375 C 77.40625 63.492188 77.46875 63.527344 77.5625 63.546875 C 77.769531 63.589844 77.976562 63.609375 78.1875 63.609375 L 78.8125 63.625 L 78.8125 63.953125 L 74.703125 63.953125 L 74.703125 63.625 L 75.328125 63.609375 C 75.523438 63.609375 75.726562 63.589844 75.9375 63.546875 C 76.03125 63.527344 76.09375 63.492188 76.125 63.4375 C 76.15625 63.375 76.175781 63.261719 76.1875 63.09375 L 76.21875 62.5625 L 76.21875 57.625 L 76.1875 57.09375 C 76.1875 56.9375 76.171875 56.835938 76.140625 56.78125 C 76.117188 56.730469 76.0625 56.703125 75.96875 56.703125 C 75.863281 56.703125 75.617188 56.742188 75.234375 56.8125 L 74.703125 56.90625 L 74.703125 56.578125 Z M 81.09375 63.90625 L 81.09375 62.5 L 81.625 62.5 L 81.625 62.609375 L 81.640625 62.984375 C 81.640625 63.195312 81.71875 63.355469 81.875 63.46875 C 82.21875 63.710938 82.609375 63.828125 83.046875 63.828125 C 83.503906 63.828125 83.875 63.648438 84.15625 63.28125 C 84.445312 62.90625 84.59375 62.414062 84.59375 61.796875 C 84.59375 61.195312 84.40625 60.726562 84.03125 60.390625 C 83.65625 60.046875 83.132812 59.875 82.46875 59.875 L 81.8125 59.875 L 81.8125 59.546875 L 82.171875 59.546875 C 82.960938 59.546875 83.535156 59.40625 83.890625 59.125 C 84.242188 58.835938 84.421875 58.371094 84.421875 57.734375 C 84.421875 57.226562 84.296875 56.828125 84.046875 56.546875 C 83.796875 56.265625 83.445312 56.125 83 56.125 C 82.582031 56.125 82.222656 56.214844 81.921875 56.390625 C 81.828125 56.445312 81.769531 56.507812 81.75 56.578125 C 81.738281 56.640625 81.71875 56.867188 81.6875 57.25 L 81.671875 57.328125 L 81.140625 57.328125 L 81.140625 56.109375 C 81.710938 55.902344 82.363281 55.796875 83.09375 55.796875 C 83.832031 55.796875 84.410156 55.964844 84.828125 56.296875 C 85.253906 56.621094 85.46875 57.0625 85.46875 57.625 C 85.46875 58.574219 84.914062 59.25 83.8125 59.65625 C 84.488281 59.835938 84.972656 60.085938 85.265625 60.40625 C 85.566406 60.730469 85.71875 61.183594 85.71875 61.765625 C 85.71875 62.507812 85.476562 63.089844 85 63.515625 C 84.519531 63.945312 83.875 64.15625 83.0625 64.15625 C 82.300781 64.15625 81.644531 64.070312 81.09375 63.90625 Z M 90.078125 64.15625 C 89.265625 64.15625 88.601562 63.777344 88.09375 63.015625 C 87.59375 62.257812 87.34375 61.25 87.34375 60 C 87.34375 58.71875 87.59375 57.703125 88.09375 56.953125 C 88.601562 56.195312 89.28125 55.8125 90.125 55.8125 C 90.96875 55.8125 91.640625 56.195312 92.140625 56.953125 C 92.648438 57.703125 92.90625 58.714844 92.90625 59.984375 C 92.90625 61.265625 92.648438 62.28125 92.140625 63.03125 C 91.640625 63.78125 90.953125 64.15625 90.078125 64.15625 Z M 90.09375 63.8125 C 90.625 63.84375 91.050781 63.53125 91.375 62.875 C 91.53125 62.554688 91.632812 62.179688 91.6875 61.75 C 91.75 61.3125 91.78125 60.703125 91.78125 59.921875 C 91.78125 58.601562 91.644531 57.65625 91.375 57.09375 C 91.0625 56.449219 90.644531 56.125 90.125 56.125 C 89.601562 56.125 89.1875 56.449219 88.875 57.09375 C 88.726562 57.40625 88.625 57.777344 88.5625 58.203125 C 88.5 58.632812 88.46875 59.21875 88.46875 59.96875 C 88.46875 60.730469 88.5 61.328125 88.5625 61.765625 C 88.625 62.195312 88.726562 62.558594 88.875 62.859375 C 89.175781 63.476562 89.582031 63.792969 90.09375 63.8125 Z M 94.71875 63.96875 L 94.71875 62.625 L 95.25 62.625 L 95.265625 62.75 L 95.28125 63.15625 C 95.300781 63.59375 95.644531 63.8125 96.3125 63.8125 C 96.8125 63.8125 97.203125 63.621094 97.484375 63.234375 C 97.773438 62.851562 97.921875 62.328125 97.921875 61.671875 C 97.921875 60.914062 97.695312 60.371094 97.25 60.046875 C 96.800781 59.714844 96.066406 59.546875 95.046875 59.546875 L 94.859375 59.546875 L 94.859375 56 L 98.859375 56 L 98.859375 56.921875 L 95.1875 56.921875 L 95.1875 59.15625 L 95.6875 59.15625 C 96.769531 59.15625 97.597656 59.375 98.171875 59.8125 C 98.742188 60.25 99.03125 60.882812 99.03125 61.703125 C 99.03125 62.476562 98.769531 63.078125 98.25 63.515625 C 97.738281 63.945312 97.03125 64.15625 96.125 64.15625 C 95.675781 64.15625 95.207031 64.09375 94.71875 63.96875 Z M 94.71875 63.96875 "/>
</g>
</svg>
