<?xml version="1.0" encoding="UTF-8"?>
<svg xmlns="http://www.w3.org/2000/svg" xmlns:xlink="http://www.w3.org/1999/xlink" width="150pt" height="150pt" viewBox="0 0 150 150" version="1.1">
<g id="surface2">
<rect x="0" y="0" width="150" height="150" style="fill:rgb(100%,100%,100%);fill-opacity:1;stroke:none;"/>
<path style=" stroke:none;fill-rule:nonzero;fill:rgb(100%,0%,0%);fill-opacity:1;" d="M 91.503906 8.484375 C 91.503906 12.484375 85.503906 12.484375 85.503906 8.484375 C 85.503906 4.484375 91.503906 4.484375 91.503906 8.484375 "/>
<path style=" stroke:none;fill-rule:nonzero;fill:rgb(0%,0%,0%);fill-opacity:1;" d="M 74.292969 23.5625 C 74.699219 23.789062 75.246094 23.988281 75.933594 24.15625 C 76.621094 24.320312 77.394531 24.4375 78.261719 24.5 L 76.917969 25.15625 C 76.34375 24.988281 75.878906 24.820312 75.527344 24.65625 C 75.183594 24.5 74.6875 24.222656 74.042969 23.828125 L 73.808594 23.6875 C 73.546875 23.738281 73.292969 23.765625 73.042969 23.765625 C 71.886719 23.765625 70.972656 23.390625 70.308594 22.640625 C 69.652344 21.890625 69.324219 20.875 69.324219 19.59375 C 69.324219 18.304688 69.652344 17.289062 70.308594 16.546875 C 70.972656 15.796875 71.886719 15.421875 73.042969 15.421875 C 74.1875 15.421875 75.09375 15.792969 75.761719 16.53125 C 76.425781 17.273438 76.761719 18.28125 76.761719 19.5625 C 76.761719 21.667969 75.9375 23 74.292969 23.5625 Z M 75.558594 19.640625 C 75.558594 18.414062 75.339844 17.464844 74.902344 16.796875 C 74.464844 16.121094 73.84375 15.78125 73.042969 15.78125 C 72.25 15.78125 71.628906 16.117188 71.183594 16.78125 C 70.746094 17.449219 70.527344 18.386719 70.527344 19.59375 C 70.527344 20.792969 70.746094 21.726562 71.183594 22.390625 C 71.628906 23.058594 72.25 23.390625 73.042969 23.390625 C 73.824219 23.390625 74.4375 23.058594 74.886719 22.390625 C 75.332031 21.726562 75.558594 20.808594 75.558594 19.640625 Z M 82.027344 23.5625 L 82.027344 22.46875 C 81.777344 22.855469 81.464844 23.15625 81.089844 23.375 C 80.714844 23.59375 80.328125 23.703125 79.933594 23.703125 C 79.433594 23.703125 79.035156 23.539062 78.746094 23.203125 C 78.464844 22.871094 78.324219 22.417969 78.324219 21.84375 L 78.324219 19.125 L 78.292969 18.59375 C 78.269531 18.386719 78.234375 18.257812 78.183594 18.203125 C 78.128906 18.140625 78 18.105469 77.792969 18.09375 L 77.433594 18.0625 L 77.324219 18.0625 L 77.324219 17.734375 L 79.371094 17.734375 L 79.371094 21.671875 C 79.371094 22.164062 79.441406 22.511719 79.589844 22.71875 C 79.734375 22.917969 79.984375 23.015625 80.339844 23.015625 C 80.578125 23.015625 80.859375 22.933594 81.183594 22.765625 C 81.515625 22.589844 81.796875 22.371094 82.027344 22.109375 L 82.027344 19.125 L 81.996094 18.59375 C 81.984375 18.386719 81.949219 18.257812 81.886719 18.203125 C 81.832031 18.140625 81.703125 18.105469 81.496094 18.09375 L 81.136719 18.0625 L 81.042969 18.0625 L 81.042969 17.734375 L 83.089844 17.734375 L 83.089844 22.171875 L 83.121094 22.703125 C 83.128906 22.914062 83.160156 23.042969 83.214844 23.09375 C 83.277344 23.148438 83.410156 23.183594 83.621094 23.203125 L 83.980469 23.21875 L 84.089844 23.234375 L 84.089844 23.5625 Z M 89.542969 23.296875 C 88.863281 23.566406 88.25 23.703125 87.699219 23.703125 C 86.84375 23.703125 86.144531 23.417969 85.605469 22.84375 C 85.074219 22.261719 84.808594 21.511719 84.808594 20.59375 C 84.808594 19.710938 85.046875 18.992188 85.527344 18.4375 C 86.003906 17.875 86.621094 17.59375 87.371094 17.59375 C 88.066406 17.59375 88.605469 17.828125 88.980469 18.296875 C 89.355469 18.765625 89.542969 19.4375 89.542969 20.3125 L 89.542969 20.421875 L 85.980469 20.421875 C 85.980469 21.226562 86.089844 21.824219 86.308594 22.21875 C 86.652344 22.84375 87.171875 23.15625 87.871094 23.15625 C 88.527344 23.15625 89.082031 23.023438 89.542969 22.75 Z M 85.996094 20.078125 L 88.417969 20.078125 L 88.417969 19.84375 C 88.417969 19.417969 88.394531 19.105469 88.355469 18.90625 C 88.324219 18.710938 88.253906 18.53125 88.152344 18.375 C 87.941406 18.074219 87.660156 17.921875 87.308594 17.921875 C 86.902344 17.921875 86.578125 18.121094 86.339844 18.515625 C 86.109375 18.902344 85.996094 19.421875 85.996094 20.078125 Z M 90.964844 23.625 L 90.964844 16.46875 L 90.933594 15.9375 C 90.921875 15.742188 90.886719 15.617188 90.824219 15.5625 C 90.769531 15.5 90.640625 15.464844 90.433594 15.453125 L 90.074219 15.421875 L 89.964844 15.421875 L 89.964844 15.078125 L 92.027344 15.078125 L 92.027344 18.828125 C 92.546875 18.007812 93.230469 17.59375 94.074219 17.59375 C 94.730469 17.59375 95.25 17.855469 95.636719 18.375 C 96.03125 18.898438 96.230469 19.59375 96.230469 20.46875 C 96.230469 21.449219 96.003906 22.234375 95.558594 22.828125 C 95.109375 23.414062 94.515625 23.703125 93.777344 23.703125 C 93.089844 23.703125 92.503906 23.4375 92.027344 22.90625 L 91.964844 22.90625 L 91.824219 23.625 Z M 92.027344 22.484375 C 92.589844 22.902344 93.125 23.109375 93.636719 23.109375 C 94.113281 23.109375 94.480469 22.90625 94.730469 22.5 C 94.980469 22.09375 95.105469 21.515625 95.105469 20.765625 C 95.105469 19.933594 94.984375 19.3125 94.746094 18.90625 C 94.515625 18.492188 94.160156 18.28125 93.683594 18.28125 C 93.390625 18.28125 93.09375 18.367188 92.792969 18.53125 C 92.5 18.699219 92.246094 18.921875 92.027344 19.203125 Z M 102.089844 23.296875 C 101.410156 23.566406 100.796875 23.703125 100.246094 23.703125 C 99.390625 23.703125 98.691406 23.417969 98.152344 22.84375 C 97.621094 22.261719 97.355469 21.511719 97.355469 20.59375 C 97.355469 19.710938 97.59375 18.992188 98.074219 18.4375 C 98.550781 17.875 99.167969 17.59375 99.917969 17.59375 C 100.613281 17.59375 101.152344 17.828125 101.527344 18.296875 C 101.902344 18.765625 102.089844 19.4375 102.089844 20.3125 L 102.089844 20.421875 L 98.527344 20.421875 C 98.527344 21.226562 98.636719 21.824219 98.855469 22.21875 C 99.199219 22.84375 99.71875 23.15625 100.417969 23.15625 C 101.074219 23.15625 101.628906 23.023438 102.089844 22.75 Z M 98.542969 20.078125 L 100.964844 20.078125 L 100.964844 19.84375 C 100.964844 19.417969 100.941406 19.105469 100.902344 18.90625 C 100.871094 18.710938 100.800781 18.53125 100.699219 18.375 C 100.488281 18.074219 100.207031 17.921875 99.855469 17.921875 C 99.449219 17.921875 99.125 18.121094 98.886719 18.515625 C 98.65625 18.902344 98.542969 19.421875 98.542969 20.078125 Z M 107.683594 23.359375 C 107.128906 23.585938 106.589844 23.703125 106.058594 23.703125 C 105.203125 23.703125 104.511719 23.417969 103.980469 22.84375 C 103.449219 22.273438 103.183594 21.53125 103.183594 20.625 C 103.183594 19.710938 103.4375 18.976562 103.949219 18.421875 C 104.457031 17.871094 105.128906 17.59375 105.964844 17.59375 C 106.410156 17.59375 106.984375 17.683594 107.683594 17.859375 L 107.683594 19.25 L 107.027344 19.25 L 107.027344 19.15625 C 107.027344 18.730469 106.957031 18.445312 106.824219 18.296875 C 106.625 18.070312 106.34375 17.953125 105.980469 17.953125 C 105.457031 17.953125 105.046875 18.1875 104.746094 18.65625 C 104.441406 19.117188 104.292969 19.746094 104.292969 20.546875 C 104.292969 21.359375 104.46875 22 104.824219 22.46875 C 105.1875 22.9375 105.675781 23.171875 106.292969 23.171875 C 106.824219 23.171875 107.285156 23.085938 107.683594 22.90625 Z M 107.683594 23.359375 "/>
<path style=" stroke:none;fill-rule:nonzero;fill:rgb(0%,0%,0%);fill-opacity:1;" d="M 78.359375 2.261719 L 88.65625 8.214844 L 88.34375 8.761719 L 78.046875 2.808594 Z M 78.359375 2.261719 "/>
<path style=" stroke:none;fill-rule:nonzero;fill:rgb(0%,0%,0%);fill-opacity:1;" d="M 74.316406 4.648438 L 74.316406 11.273438 L 74.347656 11.804688 C 74.355469 11.972656 74.378906 12.085938 74.410156 12.148438 C 74.441406 12.203125 74.503906 12.238281 74.597656 12.257812 C 74.804688 12.300781 75.011719 12.320312 75.222656 12.320312 L 75.847656 12.335938 L 75.847656 12.664062 L 71.738281 12.664062 L 71.738281 12.335938 L 72.363281 12.320312 C 72.558594 12.320312 72.761719 12.300781 72.972656 12.257812 C 73.066406 12.238281 73.128906 12.203125 73.160156 12.148438 C 73.191406 12.085938 73.210938 11.972656 73.222656 11.804688 L 73.253906 11.273438 L 73.253906 6.335938 L 73.222656 5.804688 C 73.222656 5.648438 73.207031 5.546875 73.175781 5.492188 C 73.152344 5.441406 73.097656 5.414062 73.003906 5.414062 C 72.898438 5.414062 72.652344 5.453125 72.269531 5.523438 L 71.738281 5.617188 L 71.738281 5.289062 Z M 78.378906 12.679688 L 78.378906 11.335938 L 78.910156 11.335938 L 78.925781 11.460938 L 78.941406 11.867188 C 78.960938 12.304688 79.304688 12.523438 79.972656 12.523438 C 80.472656 12.523438 80.863281 12.332031 81.144531 11.945312 C 81.433594 11.5625 81.582031 11.039062 81.582031 10.382812 C 81.582031 9.625 81.355469 9.082031 80.910156 8.757812 C 80.460938 8.425781 79.726562 8.257812 78.707031 8.257812 L 78.519531 8.257812 L 78.519531 4.710938 L 82.519531 4.710938 L 82.519531 5.632812 L 78.847656 5.632812 L 78.847656 7.867188 L 79.347656 7.867188 C 80.429688 7.867188 81.257812 8.085938 81.832031 8.523438 C 82.402344 8.960938 82.691406 9.59375 82.691406 10.414062 C 82.691406 11.1875 82.429688 11.789062 81.910156 12.226562 C 81.398438 12.65625 80.691406 12.867188 79.785156 12.867188 C 79.335938 12.867188 78.867188 12.804688 78.378906 12.679688 Z M 84.816406 12.617188 L 84.816406 11.210938 L 85.347656 11.210938 L 85.347656 11.320312 L 85.363281 11.695312 C 85.363281 11.90625 85.441406 12.066406 85.597656 12.179688 C 85.941406 12.421875 86.332031 12.539062 86.769531 12.539062 C 87.226562 12.539062 87.597656 12.359375 87.878906 11.992188 C 88.167969 11.617188 88.316406 11.125 88.316406 10.507812 C 88.316406 9.90625 88.128906 9.4375 87.753906 9.101562 C 87.378906 8.757812 86.855469 8.585938 86.191406 8.585938 L 85.535156 8.585938 L 85.535156 8.257812 L 85.894531 8.257812 C 86.683594 8.257812 87.257812 8.117188 87.613281 7.835938 C 87.964844 7.546875 88.144531 7.082031 88.144531 6.445312 C 88.144531 5.9375 88.019531 5.539062 87.769531 5.257812 C 87.519531 4.976562 87.167969 4.835938 86.722656 4.835938 C 86.304688 4.835938 85.945312 4.925781 85.644531 5.101562 C 85.550781 5.15625 85.492188 5.21875 85.472656 5.289062 C 85.460938 5.351562 85.441406 5.578125 85.410156 5.960938 L 85.394531 6.039062 L 84.863281 6.039062 L 84.863281 4.820312 C 85.433594 4.613281 86.085938 4.507812 86.816406 4.507812 C 87.554688 4.507812 88.132812 4.675781 88.550781 5.007812 C 88.976562 5.332031 89.191406 5.773438 89.191406 6.335938 C 89.191406 7.285156 88.636719 7.960938 87.535156 8.367188 C 88.210938 8.546875 88.695312 8.796875 88.988281 9.117188 C 89.289062 9.441406 89.441406 9.894531 89.441406 10.476562 C 89.441406 11.21875 89.199219 11.800781 88.722656 12.226562 C 88.242188 12.65625 87.597656 12.867188 86.785156 12.867188 C 86.023438 12.867188 85.367188 12.78125 84.816406 12.617188 Z M 84.816406 12.617188 "/>
<path style=" stroke:none;fill-rule:nonzero;fill:rgb(100%,0%,0%);fill-opacity:1;" d="M 30.035156 76.09375 C 30.035156 80.09375 24.035156 80.09375 24.035156 76.09375 C 24.035156 72.09375 30.035156 72.09375 30.035156 76.09375 "/>
<path style=" stroke:none;fill-rule:nonzero;fill:rgb(0%,0%,0%);fill-opacity:1;" d="M -7.058594 89.828125 L -11.980469 83.171875 L -11.980469 88.328125 C -11.980469 88.621094 -11.957031 88.875 -11.902344 89.09375 C -11.882812 89.1875 -11.847656 89.257812 -11.792969 89.296875 C -11.742188 89.328125 -11.628906 89.351562 -11.449219 89.359375 L -11.089844 89.375 L -10.996094 89.390625 L -10.996094 89.71875 L -13.480469 89.71875 L -13.480469 89.390625 L -13.386719 89.375 L -13.011719 89.359375 C -12.847656 89.351562 -12.738281 89.328125 -12.683594 89.296875 C -12.621094 89.257812 -12.582031 89.1875 -12.558594 89.09375 C -12.507812 88.875 -12.480469 88.621094 -12.480469 88.328125 L -12.480469 83.15625 C -12.480469 82.867188 -12.507812 82.605469 -12.558594 82.375 C -12.582031 82.28125 -12.621094 82.226562 -12.683594 82.203125 C -12.738281 82.171875 -12.847656 82.148438 -13.011719 82.125 L -13.386719 82.109375 L -13.480469 82.09375 L -13.480469 81.765625 L -11.699219 81.765625 L -7.167969 87.9375 L -7.167969 83.15625 L -7.199219 82.625 C -7.210938 82.429688 -7.246094 82.304688 -7.308594 82.25 C -7.363281 82.1875 -7.492188 82.148438 -7.699219 82.125 L -8.058594 82.109375 L -8.152344 82.09375 L -8.152344 81.765625 L -5.683594 81.765625 L -5.683594 82.09375 L -5.777344 82.109375 L -6.152344 82.125 C -6.351562 82.148438 -6.480469 82.1875 -6.542969 82.25 C -6.597656 82.304688 -6.628906 82.429688 -6.636719 82.625 L -6.667969 83.15625 L -6.667969 89.828125 Z M -0.183594 89.453125 C -0.863281 89.722656 -1.476562 89.859375 -2.027344 89.859375 C -2.882812 89.859375 -3.582031 89.574219 -4.121094 89 C -4.652344 88.417969 -4.917969 87.667969 -4.917969 86.75 C -4.917969 85.867188 -4.679688 85.148438 -4.199219 84.59375 C -3.722656 84.03125 -3.105469 83.75 -2.355469 83.75 C -1.660156 83.75 -1.121094 83.984375 -0.746094 84.453125 C -0.371094 84.921875 -0.183594 85.59375 -0.183594 86.46875 L -0.183594 86.578125 L -3.746094 86.578125 C -3.746094 87.382812 -3.636719 87.980469 -3.417969 88.375 C -3.074219 89 -2.554688 89.3125 -1.855469 89.3125 C -1.199219 89.3125 -0.644531 89.179688 -0.183594 88.90625 Z M -3.730469 86.234375 L -1.308594 86.234375 L -1.308594 86 C -1.308594 85.574219 -1.332031 85.261719 -1.371094 85.0625 C -1.402344 84.867188 -1.472656 84.6875 -1.574219 84.53125 C -1.785156 84.230469 -2.066406 84.078125 -2.417969 84.078125 C -2.824219 84.078125 -3.148438 84.277344 -3.386719 84.671875 C -3.617188 85.058594 -3.730469 85.578125 -3.730469 86.234375 Z M 2.628906 89.78125 L 1.207031 85.28125 C 1.058594 84.824219 0.945312 84.539062 0.863281 84.421875 C 0.777344 84.296875 0.652344 84.230469 0.488281 84.21875 L 0.378906 84.21875 L 0.378906 83.890625 L 3.003906 83.890625 L 3.003906 84.21875 L 2.894531 84.21875 L 2.503906 84.234375 C 2.210938 84.234375 2.066406 84.308594 2.066406 84.453125 C 2.066406 84.621094 2.128906 84.898438 2.253906 85.28125 L 3.160156 88.1875 L 4.847656 83.921875 L 5.175781 83.921875 L 6.894531 88.296875 L 7.941406 85.28125 C 7.992188 85.148438 8.027344 85.039062 8.050781 84.953125 L 8.144531 84.59375 C 8.152344 84.542969 8.160156 84.496094 8.160156 84.453125 C 8.160156 84.296875 7.980469 84.21875 7.628906 84.21875 L 7.222656 84.21875 L 7.222656 83.890625 L 9.128906 83.890625 L 9.128906 84.21875 L 9.003906 84.21875 C 8.867188 84.230469 8.757812 84.277344 8.675781 84.359375 C 8.601562 84.445312 8.535156 84.589844 8.472656 84.796875 C 8.441406 84.902344 8.382812 85.0625 8.300781 85.28125 L 6.722656 89.78125 L 6.425781 89.78125 L 4.660156 85.34375 L 2.957031 89.78125 Z M 16.425781 85.59375 C 17.082031 85.710938 17.597656 85.953125 17.972656 86.328125 C 18.347656 86.703125 18.535156 87.167969 18.535156 87.71875 C 18.535156 88.292969 18.332031 88.777344 17.925781 89.171875 C 17.683594 89.382812 17.417969 89.527344 17.128906 89.609375 C 16.835938 89.683594 16.398438 89.71875 15.816406 89.71875 L 12.707031 89.71875 L 12.707031 89.390625 L 12.800781 89.375 L 13.160156 89.359375 C 13.367188 89.339844 13.496094 89.304688 13.550781 89.25 C 13.613281 89.199219 13.648438 89.070312 13.660156 88.859375 L 13.691406 88.328125 L 13.691406 83.15625 L 13.660156 82.625 C 13.648438 82.429688 13.613281 82.304688 13.550781 82.25 C 13.496094 82.1875 13.367188 82.148438 13.160156 82.125 L 12.800781 82.109375 L 12.707031 82.09375 L 12.707031 81.765625 L 15.972656 81.765625 C 16.753906 81.765625 17.316406 81.921875 17.660156 82.234375 C 18.023438 82.578125 18.207031 83.011719 18.207031 83.53125 C 18.207031 84.023438 18.035156 84.464844 17.691406 84.859375 C 17.441406 85.132812 17.019531 85.375 16.425781 85.59375 Z M 14.816406 85.78125 L 14.816406 88.328125 L 14.832031 88.796875 C 14.832031 89.058594 14.894531 89.210938 15.019531 89.25 C 15.226562 89.324219 15.460938 89.359375 15.722656 89.359375 C 16.210938 89.359375 16.605469 89.214844 16.910156 88.921875 C 17.222656 88.621094 17.378906 88.234375 17.378906 87.765625 C 17.378906 87.132812 17.152344 86.640625 16.707031 86.296875 C 16.269531 85.953125 15.636719 85.78125 14.816406 85.78125 Z M 14.816406 85.40625 L 15.144531 85.40625 C 16.425781 85.40625 17.066406 84.824219 17.066406 83.65625 C 17.066406 83.179688 16.949219 82.8125 16.722656 82.5625 C 16.566406 82.40625 16.367188 82.296875 16.128906 82.234375 C 15.886719 82.164062 15.539062 82.125 15.082031 82.125 L 14.816406 82.125 Z M 21.425781 85.46875 L 21.425781 88.328125 C 21.425781 88.621094 21.449219 88.875 21.503906 89.09375 C 21.523438 89.1875 21.558594 89.257812 21.613281 89.296875 C 21.675781 89.328125 21.789062 89.351562 21.957031 89.359375 L 22.316406 89.375 L 22.550781 89.390625 L 22.550781 89.71875 L 19.378906 89.71875 L 19.378906 89.390625 L 19.472656 89.375 L 19.832031 89.359375 C 20.039062 89.339844 20.167969 89.304688 20.222656 89.25 C 20.285156 89.199219 20.320312 89.070312 20.332031 88.859375 L 20.363281 88.328125 L 20.363281 85.28125 L 20.332031 84.75 C 20.320312 84.542969 20.285156 84.414062 20.222656 84.359375 C 20.167969 84.296875 20.039062 84.261719 19.832031 84.25 L 19.472656 84.21875 L 19.378906 84.21875 L 19.378906 83.890625 L 21.425781 83.890625 L 21.425781 84.984375 C 21.902344 84.164062 22.535156 83.75 23.316406 83.75 C 23.429688 83.75 23.550781 83.773438 23.675781 83.8125 L 23.675781 85.40625 L 23.082031 85.40625 L 23.082031 85.3125 L 23.019531 84.90625 C 23.007812 84.792969 22.980469 84.71875 22.941406 84.6875 C 22.910156 84.648438 22.839844 84.625 22.738281 84.625 C 22.476562 84.625 22.230469 84.699219 22.003906 84.84375 C 21.785156 84.992188 21.589844 85.199219 21.425781 85.46875 Z M 28.722656 89.71875 L 28.722656 88.625 C 28.472656 89.011719 28.160156 89.3125 27.785156 89.53125 C 27.410156 89.75 27.023438 89.859375 26.628906 89.859375 C 26.128906 89.859375 25.730469 89.695312 25.441406 89.359375 C 25.160156 89.027344 25.019531 88.574219 25.019531 88 L 25.019531 85.28125 L 24.988281 84.75 C 24.964844 84.542969 24.929688 84.414062 24.878906 84.359375 C 24.824219 84.296875 24.695312 84.261719 24.488281 84.25 L 24.128906 84.21875 L 24.019531 84.21875 L 24.019531 83.890625 L 26.066406 83.890625 L 26.066406 87.828125 C 26.066406 88.320312 26.136719 88.667969 26.285156 88.875 C 26.429688 89.074219 26.679688 89.171875 27.035156 89.171875 C 27.273438 89.171875 27.554688 89.089844 27.878906 88.921875 C 28.210938 88.746094 28.492188 88.527344 28.722656 88.265625 L 28.722656 85.28125 L 28.691406 84.75 C 28.679688 84.542969 28.644531 84.414062 28.582031 84.359375 C 28.527344 84.296875 28.398438 84.261719 28.191406 84.25 L 27.832031 84.21875 L 27.738281 84.21875 L 27.738281 83.890625 L 29.785156 83.890625 L 29.785156 88.328125 L 29.816406 88.859375 C 29.824219 89.070312 29.855469 89.199219 29.910156 89.25 C 29.972656 89.304688 30.105469 89.339844 30.316406 89.359375 L 30.675781 89.375 L 30.785156 89.390625 L 30.785156 89.71875 Z M 33.222656 84.984375 C 33.472656 84.601562 33.785156 84.296875 34.160156 84.078125 C 34.535156 83.859375 34.925781 83.75 35.332031 83.75 C 35.832031 83.75 36.222656 83.917969 36.503906 84.25 C 36.792969 84.585938 36.941406 85.039062 36.941406 85.609375 L 36.941406 88.328125 L 36.972656 88.859375 C 36.980469 89.070312 37.011719 89.199219 37.066406 89.25 C 37.128906 89.304688 37.261719 89.339844 37.472656 89.359375 L 37.832031 89.375 L 37.925781 89.390625 L 37.925781 89.71875 L 34.878906 89.71875 L 34.878906 89.390625 L 34.972656 89.375 L 35.347656 89.359375 C 35.542969 89.339844 35.667969 89.304688 35.722656 89.25 C 35.785156 89.199219 35.824219 89.070312 35.847656 88.859375 L 35.878906 88.328125 L 35.878906 85.78125 C 35.878906 85.28125 35.808594 84.933594 35.675781 84.734375 C 35.550781 84.539062 35.320312 84.4375 34.988281 84.4375 C 34.507812 84.4375 33.917969 84.734375 33.222656 85.328125 L 33.222656 88.328125 C 33.222656 88.621094 33.246094 88.875 33.300781 89.09375 C 33.320312 89.1875 33.355469 89.257812 33.410156 89.296875 C 33.472656 89.328125 33.585938 89.351562 33.753906 89.359375 L 34.113281 89.375 L 34.222656 89.390625 L 34.222656 89.71875 L 31.175781 89.71875 L 31.175781 89.390625 L 31.269531 89.375 L 31.628906 89.359375 C 31.835938 89.339844 31.964844 89.304688 32.019531 89.25 C 32.082031 89.199219 32.117188 89.070312 32.128906 88.859375 L 32.160156 88.328125 L 32.160156 85.28125 L 32.128906 84.75 C 32.117188 84.542969 32.082031 84.414062 32.019531 84.359375 C 31.964844 84.296875 31.835938 84.261719 31.628906 84.25 L 31.269531 84.21875 L 31.175781 84.21875 L 31.175781 83.890625 L 33.222656 83.890625 Z M 38.675781 89.421875 L 38.675781 87.9375 L 39.269531 87.9375 L 39.285156 88.03125 L 39.316406 88.59375 C 39.347656 88.886719 39.480469 89.101562 39.722656 89.234375 C 40.035156 89.421875 40.371094 89.515625 40.738281 89.515625 C 41.058594 89.515625 41.324219 89.421875 41.535156 89.234375 C 41.742188 89.039062 41.847656 88.78125 41.847656 88.46875 C 41.847656 88.199219 41.773438 87.984375 41.628906 87.828125 C 41.492188 87.671875 41.253906 87.523438 40.910156 87.375 L 40.363281 87.171875 C 39.777344 86.945312 39.355469 86.6875 39.097656 86.40625 C 38.835938 86.125 38.707031 85.789062 38.707031 85.390625 C 38.707031 84.921875 38.894531 84.53125 39.269531 84.21875 C 39.644531 83.90625 40.121094 83.75 40.707031 83.75 C 41.277344 83.75 41.871094 83.859375 42.488281 84.078125 L 42.488281 85.46875 L 41.878906 85.46875 L 41.878906 85.375 L 41.832031 84.890625 C 41.820312 84.683594 41.789062 84.542969 41.738281 84.46875 C 41.683594 84.386719 41.582031 84.308594 41.425781 84.234375 C 41.214844 84.132812 41.003906 84.078125 40.785156 84.078125 C 40.472656 84.078125 40.210938 84.183594 40.003906 84.390625 C 39.792969 84.589844 39.691406 84.839844 39.691406 85.140625 C 39.691406 85.390625 39.773438 85.59375 39.941406 85.75 C 40.105469 85.898438 40.445312 86.074219 40.957031 86.28125 L 41.441406 86.484375 C 41.980469 86.703125 42.355469 86.933594 42.566406 87.171875 C 42.785156 87.414062 42.894531 87.71875 42.894531 88.09375 C 42.894531 88.605469 42.683594 89.027344 42.269531 89.359375 C 41.863281 89.695312 41.332031 89.859375 40.675781 89.859375 C 39.964844 89.859375 39.300781 89.714844 38.675781 89.421875 Z M 45.722656 89.78125 L 44.300781 85.28125 C 44.152344 84.824219 44.039062 84.539062 43.957031 84.421875 C 43.871094 84.296875 43.746094 84.230469 43.582031 84.21875 L 43.472656 84.21875 L 43.472656 83.890625 L 46.097656 83.890625 L 46.097656 84.21875 L 45.988281 84.21875 L 45.597656 84.234375 C 45.304688 84.234375 45.160156 84.308594 45.160156 84.453125 C 45.160156 84.621094 45.222656 84.898438 45.347656 85.28125 L 46.253906 88.1875 L 47.941406 83.921875 L 48.269531 83.921875 L 49.988281 88.296875 L 51.035156 85.28125 C 51.085938 85.148438 51.121094 85.039062 51.144531 84.953125 L 51.238281 84.59375 C 51.246094 84.542969 51.253906 84.496094 51.253906 84.453125 C 51.253906 84.296875 51.074219 84.21875 50.722656 84.21875 L 50.316406 84.21875 L 50.316406 83.890625 L 52.222656 83.890625 L 52.222656 84.21875 L 52.097656 84.21875 C 51.960938 84.230469 51.851562 84.277344 51.769531 84.359375 C 51.695312 84.445312 51.628906 84.589844 51.566406 84.796875 C 51.535156 84.902344 51.476562 85.0625 51.394531 85.28125 L 49.816406 89.78125 L 49.519531 89.78125 L 47.753906 85.34375 L 46.050781 89.78125 Z M 54.472656 83.890625 L 54.472656 88.328125 C 54.472656 88.621094 54.496094 88.875 54.550781 89.09375 C 54.570312 89.1875 54.605469 89.257812 54.660156 89.296875 C 54.722656 89.328125 54.835938 89.351562 55.003906 89.359375 L 55.363281 89.375 L 55.472656 89.390625 L 55.472656 89.71875 L 52.425781 89.71875 L 52.425781 89.390625 L 52.519531 89.375 L 52.878906 89.359375 C 53.085938 89.339844 53.214844 89.304688 53.269531 89.25 C 53.332031 89.199219 53.367188 89.070312 53.378906 88.859375 L 53.410156 88.328125 L 53.410156 85.28125 L 53.378906 84.75 C 53.367188 84.542969 53.332031 84.414062 53.269531 84.359375 C 53.214844 84.296875 53.085938 84.261719 52.878906 84.25 L 52.519531 84.21875 L 52.425781 84.21875 L 52.425781 83.890625 Z M 53.410156 82.828125 L 53.410156 81.765625 L 54.472656 81.765625 L 54.472656 82.828125 Z M 60.628906 89.515625 C 60.074219 89.742188 59.535156 89.859375 59.003906 89.859375 C 58.148438 89.859375 57.457031 89.574219 56.925781 89 C 56.394531 88.429688 56.128906 87.6875 56.128906 86.78125 C 56.128906 85.867188 56.382812 85.132812 56.894531 84.578125 C 57.402344 84.027344 58.074219 83.75 58.910156 83.75 C 59.355469 83.75 59.929688 83.839844 60.628906 84.015625 L 60.628906 85.40625 L 59.972656 85.40625 L 59.972656 85.3125 C 59.972656 84.886719 59.902344 84.601562 59.769531 84.453125 C 59.570312 84.226562 59.289062 84.109375 58.925781 84.109375 C 58.402344 84.109375 57.992188 84.34375 57.691406 84.8125 C 57.386719 85.273438 57.238281 85.902344 57.238281 86.703125 C 57.238281 87.515625 57.414062 88.15625 57.769531 88.625 C 58.132812 89.09375 58.621094 89.328125 59.238281 89.328125 C 59.769531 89.328125 60.230469 89.242188 60.628906 89.0625 Z M 63.441406 86.84375 L 63.441406 88.328125 L 63.472656 88.859375 C 63.472656 89.078125 63.507812 89.214844 63.582031 89.265625 C 63.652344 89.320312 63.863281 89.355469 64.207031 89.375 L 64.300781 89.390625 L 64.300781 89.71875 L 61.394531 89.71875 L 61.394531 89.390625 L 61.488281 89.375 L 61.847656 89.359375 C 62.054688 89.339844 62.183594 89.304688 62.238281 89.25 C 62.300781 89.199219 62.335938 89.070312 62.347656 88.859375 L 62.378906 88.328125 L 62.378906 82.625 L 62.347656 82.09375 C 62.335938 81.898438 62.300781 81.773438 62.238281 81.71875 C 62.183594 81.65625 62.054688 81.621094 61.847656 81.609375 L 61.488281 81.578125 L 61.394531 81.578125 L 61.394531 81.234375 L 63.441406 81.234375 L 63.441406 86.59375 L 63.691406 86.59375 L 65.050781 85.28125 C 65.164062 85.167969 65.335938 84.992188 65.566406 84.75 C 65.667969 84.636719 65.757812 84.542969 65.832031 84.46875 C 65.894531 84.417969 65.925781 84.371094 65.925781 84.328125 C 65.925781 84.265625 65.855469 84.234375 65.722656 84.234375 C 65.710938 84.234375 65.632812 84.230469 65.488281 84.21875 C 65.382812 84.21875 65.289062 84.21875 65.207031 84.21875 L 65.097656 84.21875 L 65.097656 83.890625 L 67.378906 83.890625 L 67.378906 84.21875 L 67.269531 84.21875 C 66.894531 84.25 66.648438 84.296875 66.535156 84.359375 C 66.429688 84.421875 66.097656 84.734375 65.535156 85.296875 L 64.519531 86.296875 L 66.269531 88.359375 L 66.847656 89 C 67.003906 89.167969 67.117188 89.273438 67.191406 89.3125 C 67.261719 89.34375 67.429688 89.367188 67.691406 89.375 L 67.785156 89.390625 L 67.785156 89.71875 L 66.160156 89.71875 L 63.691406 86.84375 Z M 63.441406 86.84375 "/>
<path style=" stroke:none;fill-rule:nonzero;fill:rgb(0%,0%,0%);fill-opacity:1;" d="M 18.265625 84.113281 L 26.8125 75.863281 L 27.25 76.332031 L 18.703125 84.582031 Z M 18.265625 84.113281 "/>
<path style=" stroke:none;fill-rule:nonzero;fill:rgb(0%,0%,0%);fill-opacity:1;" d="M 10.832031 80.171875 L 10.832031 79.640625 C 11.007812 79.132812 11.195312 78.71875 11.394531 78.40625 C 11.601562 78.085938 11.894531 77.746094 12.269531 77.390625 L 12.832031 76.875 C 13.488281 76.25 13.925781 75.761719 14.144531 75.40625 C 14.363281 75.042969 14.472656 74.625 14.472656 74.15625 C 14.472656 73.617188 14.335938 73.183594 14.066406 72.859375 C 13.804688 72.527344 13.457031 72.359375 13.019531 72.359375 C 12.527344 72.359375 12.117188 72.492188 11.785156 72.75 C 11.691406 72.824219 11.632812 72.90625 11.613281 73 C 11.589844 73.09375 11.570312 73.371094 11.550781 73.828125 L 11.535156 73.953125 L 11.003906 73.953125 L 11.003906 72.5 C 11.773438 72.179688 12.488281 72.015625 13.144531 72.015625 C 13.863281 72.015625 14.449219 72.21875 14.910156 72.625 C 15.367188 73.03125 15.597656 73.542969 15.597656 74.15625 C 15.597656 74.617188 15.476562 75.023438 15.238281 75.375 C 15.007812 75.730469 14.613281 76.101562 14.050781 76.484375 L 13.394531 76.9375 C 12.808594 77.335938 12.394531 77.699219 12.144531 78.03125 C 11.902344 78.367188 11.757812 78.773438 11.707031 79.25 L 15.566406 79.25 L 15.566406 80.171875 Z M 20.535156 72.15625 L 20.535156 78.78125 L 20.566406 79.3125 C 20.574219 79.480469 20.597656 79.59375 20.628906 79.65625 C 20.660156 79.710938 20.722656 79.746094 20.816406 79.765625 C 21.023438 79.808594 21.230469 79.828125 21.441406 79.828125 L 22.066406 79.84375 L 22.066406 80.171875 L 17.957031 80.171875 L 17.957031 79.84375 L 18.582031 79.828125 C 18.777344 79.828125 18.980469 79.808594 19.191406 79.765625 C 19.285156 79.746094 19.347656 79.710938 19.378906 79.65625 C 19.410156 79.59375 19.429688 79.480469 19.441406 79.3125 L 19.472656 78.78125 L 19.472656 73.84375 L 19.441406 73.3125 C 19.441406 73.15625 19.425781 73.054688 19.394531 73 C 19.371094 72.949219 19.316406 72.921875 19.222656 72.921875 C 19.117188 72.921875 18.871094 72.960938 18.488281 73.03125 L 17.957031 73.125 L 17.957031 72.796875 Z M 24.863281 80.171875 C 24.957031 79.609375 25.101562 79.101562 25.300781 78.640625 C 25.550781 78.058594 25.808594 77.554688 26.082031 77.125 C 26.363281 76.699219 27.042969 75.757812 28.128906 74.296875 L 28.941406 73.21875 L 24.457031 73.21875 L 24.457031 72.21875 L 29.566406 72.21875 L 29.566406 72.921875 C 28.398438 74.476562 27.542969 75.820312 27.003906 76.953125 C 26.472656 78.078125 26.175781 79.152344 26.113281 80.171875 Z M 24.863281 80.171875 "/>
<path style=" stroke:none;fill-rule:nonzero;fill:rgb(100%,0%,0%);fill-opacity:1;" d="M 88.175781 95.929688 C 88.175781 99.929688 82.175781 99.929688 82.175781 95.929688 C 82.175781 91.929688 88.175781 91.929688 88.175781 95.929688 "/>
<path style=" stroke:none;fill-rule:nonzero;fill:rgb(0%,0%,0%);fill-opacity:1;" d="M 60.808594 109.382812 L 55.886719 102.726562 L 55.886719 107.882812 C 55.886719 108.175781 55.910156 108.429688 55.964844 108.648438 C 55.984375 108.742188 56.019531 108.8125 56.074219 108.851562 C 56.125 108.882812 56.238281 108.90625 56.417969 108.914062 L 56.777344 108.929688 L 56.871094 108.945312 L 56.871094 109.273438 L 54.386719 109.273438 L 54.386719 108.945312 L 54.480469 108.929688 L 54.855469 108.914062 C 55.019531 108.90625 55.128906 108.882812 55.183594 108.851562 C 55.246094 108.8125 55.285156 108.742188 55.308594 108.648438 C 55.359375 108.429688 55.386719 108.175781 55.386719 107.882812 L 55.386719 102.710938 C 55.386719 102.421875 55.359375 102.160156 55.308594 101.929688 C 55.285156 101.835938 55.246094 101.78125 55.183594 101.757812 C 55.128906 101.726562 55.019531 101.703125 54.855469 101.679688 L 54.480469 101.664062 L 54.386719 101.648438 L 54.386719 101.320312 L 56.167969 101.320312 L 60.699219 107.492188 L 60.699219 102.710938 L 60.667969 102.179688 C 60.65625 101.984375 60.621094 101.859375 60.558594 101.804688 C 60.503906 101.742188 60.375 101.703125 60.167969 101.679688 L 59.808594 101.664062 L 59.714844 101.648438 L 59.714844 101.320312 L 62.183594 101.320312 L 62.183594 101.648438 L 62.089844 101.664062 L 61.714844 101.679688 C 61.515625 101.703125 61.386719 101.742188 61.324219 101.804688 C 61.269531 101.859375 61.238281 101.984375 61.230469 102.179688 L 61.199219 102.710938 L 61.199219 109.382812 Z M 65.699219 109.414062 C 64.855469 109.414062 64.183594 109.140625 63.683594 108.585938 C 63.191406 108.035156 62.949219 107.289062 62.949219 106.351562 C 62.949219 105.414062 63.199219 104.675781 63.699219 104.132812 C 64.199219 103.582031 64.875 103.304688 65.730469 103.304688 C 66.59375 103.304688 67.269531 103.582031 67.761719 104.132812 C 68.261719 104.675781 68.511719 105.414062 68.511719 106.351562 C 68.511719 107.300781 68.261719 108.050781 67.761719 108.601562 C 67.261719 109.144531 66.574219 109.414062 65.699219 109.414062 Z M 65.714844 109.070312 C 66.203125 109.070312 66.605469 108.816406 66.917969 108.304688 C 67.230469 107.796875 67.386719 107.144531 67.386719 106.351562 C 67.386719 105.582031 67.222656 104.9375 66.902344 104.414062 C 66.589844 103.894531 66.199219 103.632812 65.730469 103.632812 C 65.261719 103.632812 64.863281 103.894531 64.542969 104.414062 C 64.230469 104.9375 64.074219 105.582031 64.074219 106.351562 C 64.074219 107.132812 64.230469 107.785156 64.542969 108.304688 C 64.855469 108.816406 65.246094 109.070312 65.714844 109.070312 Z M 71.808594 109.335938 L 69.917969 104.867188 C 69.71875 104.398438 69.574219 104.101562 69.480469 103.976562 C 69.394531 103.851562 69.28125 103.785156 69.136719 103.773438 L 69.042969 103.773438 L 69.042969 103.445312 L 71.574219 103.445312 L 71.574219 103.773438 L 71.183594 103.773438 C 70.902344 103.773438 70.761719 103.851562 70.761719 104.007812 C 70.761719 104.082031 70.871094 104.375 71.089844 104.882812 L 72.402344 107.992188 L 73.761719 104.882812 C 73.96875 104.394531 74.074219 104.101562 74.074219 104.007812 C 74.074219 103.851562 73.949219 103.773438 73.699219 103.773438 L 73.308594 103.773438 L 73.308594 103.445312 L 75.042969 103.445312 L 75.042969 103.773438 L 74.933594 103.773438 C 74.808594 103.785156 74.707031 103.828125 74.636719 103.898438 C 74.5625 103.972656 74.484375 104.101562 74.402344 104.289062 L 74.152344 104.882812 L 72.136719 109.335938 Z M 79.183594 108.476562 C 78.828125 108.820312 78.511719 109.066406 78.230469 109.210938 C 77.957031 109.34375 77.652344 109.414062 77.308594 109.414062 C 76.816406 109.414062 76.40625 109.257812 76.074219 108.945312 C 75.738281 108.625 75.574219 108.226562 75.574219 107.757812 C 75.574219 107.207031 75.792969 106.757812 76.230469 106.414062 C 76.5 106.195312 76.816406 106.046875 77.183594 105.960938 C 77.558594 105.867188 78.066406 105.820312 78.714844 105.820312 L 78.933594 105.820312 L 78.933594 105.101562 C 78.933594 104.1875 78.582031 103.726562 77.886719 103.726562 C 77.5625 103.726562 77.277344 103.828125 77.027344 104.023438 C 76.878906 104.140625 76.785156 104.390625 76.746094 104.773438 L 76.746094 104.867188 L 76.027344 104.867188 L 76.027344 103.804688 C 76.765625 103.472656 77.453125 103.304688 78.089844 103.304688 C 78.640625 103.304688 79.089844 103.4375 79.433594 103.695312 C 79.652344 103.863281 79.796875 104.046875 79.871094 104.242188 C 79.953125 104.429688 79.996094 104.703125 79.996094 105.054688 L 79.996094 107.664062 C 79.996094 108.125 80.03125 108.453125 80.105469 108.648438 C 80.1875 108.835938 80.332031 108.929688 80.542969 108.929688 C 80.605469 108.929688 80.699219 108.914062 80.824219 108.882812 L 80.855469 109.273438 C 80.605469 109.367188 80.375 109.414062 80.167969 109.414062 C 79.644531 109.414062 79.316406 109.101562 79.183594 108.476562 Z M 78.933594 108.351562 L 78.933594 106.164062 L 78.683594 106.164062 C 78.066406 106.164062 77.582031 106.296875 77.230469 106.554688 C 76.875 106.804688 76.699219 107.15625 76.699219 107.601562 C 76.699219 107.945312 76.808594 108.226562 77.027344 108.445312 C 77.246094 108.664062 77.515625 108.773438 77.839844 108.773438 C 78.152344 108.773438 78.515625 108.632812 78.933594 108.351562 Z M 84.996094 109.117188 L 84.996094 107.585938 L 85.558594 107.585938 L 85.558594 107.679688 C 85.566406 107.859375 85.574219 107.992188 85.574219 108.085938 C 85.574219 108.265625 85.59375 108.394531 85.636719 108.476562 C 85.6875 108.550781 85.785156 108.632812 85.933594 108.726562 C 86.308594 108.957031 86.730469 109.070312 87.199219 109.070312 C 87.667969 109.070312 88.03125 108.9375 88.292969 108.664062 C 88.5625 108.394531 88.699219 108.019531 88.699219 107.539062 C 88.699219 107.144531 88.609375 106.832031 88.433594 106.601562 C 88.265625 106.363281 87.9375 106.101562 87.449219 105.820312 L 86.886719 105.492188 C 86.21875 105.128906 85.746094 104.773438 85.464844 104.429688 C 85.191406 104.085938 85.058594 103.691406 85.058594 103.242188 C 85.058594 102.640625 85.277344 102.140625 85.714844 101.742188 C 86.152344 101.335938 86.703125 101.132812 87.371094 101.132812 C 87.933594 101.132812 88.597656 101.242188 89.371094 101.460938 L 89.371094 102.882812 L 88.777344 102.882812 L 88.777344 102.789062 C 88.753906 102.59375 88.746094 102.453125 88.746094 102.367188 C 88.746094 102.046875 88.652344 101.832031 88.464844 101.726562 C 88.191406 101.570312 87.84375 101.492188 87.417969 101.492188 C 87.03125 101.492188 86.71875 101.617188 86.480469 101.867188 C 86.25 102.117188 86.136719 102.453125 86.136719 102.867188 C 86.136719 103.210938 86.214844 103.5 86.371094 103.726562 C 86.535156 103.957031 86.832031 104.195312 87.261719 104.445312 L 87.824219 104.757812 C 88.605469 105.207031 89.128906 105.597656 89.402344 105.929688 C 89.683594 106.253906 89.824219 106.664062 89.824219 107.164062 C 89.824219 107.820312 89.574219 108.375 89.074219 108.820312 C 88.582031 109.257812 87.972656 109.476562 87.246094 109.476562 C 86.878906 109.476562 86.480469 109.4375 86.042969 109.367188 C 85.605469 109.292969 85.253906 109.210938 84.996094 109.117188 Z M 95.355469 109.070312 C 94.800781 109.296875 94.261719 109.414062 93.730469 109.414062 C 92.875 109.414062 92.183594 109.128906 91.652344 108.554688 C 91.121094 107.984375 90.855469 107.242188 90.855469 106.335938 C 90.855469 105.421875 91.109375 104.6875 91.621094 104.132812 C 92.128906 103.582031 92.800781 103.304688 93.636719 103.304688 C 94.082031 103.304688 94.65625 103.394531 95.355469 103.570312 L 95.355469 104.960938 L 94.699219 104.960938 L 94.699219 104.867188 C 94.699219 104.441406 94.628906 104.15625 94.496094 104.007812 C 94.296875 103.78125 94.015625 103.664062 93.652344 103.664062 C 93.128906 103.664062 92.71875 103.898438 92.417969 104.367188 C 92.113281 104.828125 91.964844 105.457031 91.964844 106.257812 C 91.964844 107.070312 92.140625 107.710938 92.496094 108.179688 C 92.859375 108.648438 93.347656 108.882812 93.964844 108.882812 C 94.496094 108.882812 94.957031 108.796875 95.355469 108.617188 Z M 99.199219 109.414062 C 98.355469 109.414062 97.683594 109.140625 97.183594 108.585938 C 96.691406 108.035156 96.449219 107.289062 96.449219 106.351562 C 96.449219 105.414062 96.699219 104.675781 97.199219 104.132812 C 97.699219 103.582031 98.375 103.304688 99.230469 103.304688 C 100.09375 103.304688 100.769531 103.582031 101.261719 104.132812 C 101.761719 104.675781 102.011719 105.414062 102.011719 106.351562 C 102.011719 107.300781 101.761719 108.050781 101.261719 108.601562 C 100.761719 109.144531 100.074219 109.414062 99.199219 109.414062 Z M 99.214844 109.070312 C 99.703125 109.070312 100.105469 108.816406 100.417969 108.304688 C 100.730469 107.796875 100.886719 107.144531 100.886719 106.351562 C 100.886719 105.582031 100.722656 104.9375 100.402344 104.414062 C 100.089844 103.894531 99.699219 103.632812 99.230469 103.632812 C 98.761719 103.632812 98.363281 103.894531 98.042969 104.414062 C 97.730469 104.9375 97.574219 105.582031 97.574219 106.351562 C 97.574219 107.132812 97.730469 107.785156 98.042969 108.304688 C 98.355469 108.816406 98.746094 109.070312 99.214844 109.070312 Z M 106.417969 109.242188 C 106.144531 109.355469 105.890625 109.414062 105.652344 109.414062 C 105.097656 109.414062 104.667969 109.269531 104.355469 108.976562 C 104.167969 108.8125 104.035156 108.625 103.964844 108.414062 C 103.902344 108.195312 103.871094 107.875 103.871094 107.445312 L 103.871094 103.882812 L 103.011719 103.882812 L 103.011719 103.445312 L 103.871094 103.445312 L 103.871094 102.382812 L 104.933594 102.117188 L 104.933594 103.445312 L 106.542969 103.445312 L 106.542969 103.882812 L 104.933594 103.882812 L 104.933594 107.585938 C 104.933594 108.097656 104.980469 108.4375 105.074219 108.601562 C 105.21875 108.851562 105.464844 108.976562 105.808594 108.976562 C 105.972656 108.976562 106.175781 108.921875 106.417969 108.804688 Z M 109.105469 103.445312 L 109.105469 107.882812 C 109.105469 108.175781 109.128906 108.429688 109.183594 108.648438 C 109.203125 108.742188 109.238281 108.8125 109.292969 108.851562 C 109.355469 108.882812 109.46875 108.90625 109.636719 108.914062 L 109.996094 108.929688 L 110.105469 108.945312 L 110.105469 109.273438 L 107.058594 109.273438 L 107.058594 108.945312 L 107.152344 108.929688 L 107.511719 108.914062 C 107.71875 108.894531 107.847656 108.859375 107.902344 108.804688 C 107.964844 108.753906 108 108.625 108.011719 108.414062 L 108.042969 107.882812 L 108.042969 104.835938 L 108.011719 104.304688 C 108 104.097656 107.964844 103.96875 107.902344 103.914062 C 107.847656 103.851562 107.71875 103.816406 107.511719 103.804688 L 107.152344 103.773438 L 107.058594 103.773438 L 107.058594 103.445312 Z M 108.042969 102.382812 L 108.042969 101.320312 L 109.105469 101.320312 L 109.105469 102.382812 Z M 114.371094 108.476562 C 114.015625 108.820312 113.699219 109.066406 113.417969 109.210938 C 113.144531 109.34375 112.839844 109.414062 112.496094 109.414062 C 112.003906 109.414062 111.59375 109.257812 111.261719 108.945312 C 110.925781 108.625 110.761719 108.226562 110.761719 107.757812 C 110.761719 107.207031 110.980469 106.757812 111.417969 106.414062 C 111.6875 106.195312 112.003906 106.046875 112.371094 105.960938 C 112.746094 105.867188 113.253906 105.820312 113.902344 105.820312 L 114.121094 105.820312 L 114.121094 105.101562 C 114.121094 104.1875 113.769531 103.726562 113.074219 103.726562 C 112.75 103.726562 112.464844 103.828125 112.214844 104.023438 C 112.066406 104.140625 111.972656 104.390625 111.933594 104.773438 L 111.933594 104.867188 L 111.214844 104.867188 L 111.214844 103.804688 C 111.953125 103.472656 112.640625 103.304688 113.277344 103.304688 C 113.828125 103.304688 114.277344 103.4375 114.621094 103.695312 C 114.839844 103.863281 114.984375 104.046875 115.058594 104.242188 C 115.140625 104.429688 115.183594 104.703125 115.183594 105.054688 L 115.183594 107.664062 C 115.183594 108.125 115.21875 108.453125 115.292969 108.648438 C 115.375 108.835938 115.519531 108.929688 115.730469 108.929688 C 115.792969 108.929688 115.886719 108.914062 116.011719 108.882812 L 116.042969 109.273438 C 115.792969 109.367188 115.5625 109.414062 115.355469 109.414062 C 114.832031 109.414062 114.503906 109.101562 114.371094 108.476562 Z M 114.121094 108.351562 L 114.121094 106.164062 L 113.871094 106.164062 C 113.253906 106.164062 112.769531 106.296875 112.417969 106.554688 C 112.0625 106.804688 111.886719 107.15625 111.886719 107.601562 C 111.886719 107.945312 111.996094 108.226562 112.214844 108.445312 C 112.433594 108.664062 112.703125 108.773438 113.027344 108.773438 C 113.339844 108.773438 113.703125 108.632812 114.121094 108.351562 Z M 114.121094 108.351562 "/>
<path style=" stroke:none;fill-rule:nonzero;fill:rgb(0%,0%,0%);fill-opacity:1;" d="M 73.53125 93.546875 L 85.234375 95.609375 L 85.109375 96.234375 L 73.40625 94.171875 Z M 73.53125 93.546875 "/>
<path style=" stroke:none;fill-rule:nonzero;fill:rgb(0%,0%,0%);fill-opacity:1;" d="M 64.300781 92.09375 L 64.300781 98.71875 L 64.332031 99.25 C 64.339844 99.417969 64.363281 99.53125 64.394531 99.59375 C 64.425781 99.648438 64.488281 99.683594 64.582031 99.703125 C 64.789062 99.746094 64.996094 99.765625 65.207031 99.765625 L 65.832031 99.78125 L 65.832031 100.109375 L 61.722656 100.109375 L 61.722656 99.78125 L 62.347656 99.765625 C 62.542969 99.765625 62.746094 99.746094 62.957031 99.703125 C 63.050781 99.683594 63.113281 99.648438 63.144531 99.59375 C 63.175781 99.53125 63.195312 99.417969 63.207031 99.25 L 63.238281 98.71875 L 63.238281 93.78125 L 63.207031 93.25 C 63.207031 93.09375 63.191406 92.992188 63.160156 92.9375 C 63.136719 92.886719 63.082031 92.859375 62.988281 92.859375 C 62.882812 92.859375 62.636719 92.898438 62.253906 92.96875 L 61.722656 93.0625 L 61.722656 92.734375 Z M 70.988281 92.09375 L 70.988281 98.71875 L 71.019531 99.25 C 71.027344 99.417969 71.050781 99.53125 71.082031 99.59375 C 71.113281 99.648438 71.175781 99.683594 71.269531 99.703125 C 71.476562 99.746094 71.683594 99.765625 71.894531 99.765625 L 72.519531 99.78125 L 72.519531 100.109375 L 68.410156 100.109375 L 68.410156 99.78125 L 69.035156 99.765625 C 69.230469 99.765625 69.433594 99.746094 69.644531 99.703125 C 69.738281 99.683594 69.800781 99.648438 69.832031 99.59375 C 69.863281 99.53125 69.882812 99.417969 69.894531 99.25 L 69.925781 98.71875 L 69.925781 93.78125 L 69.894531 93.25 C 69.894531 93.09375 69.878906 92.992188 69.847656 92.9375 C 69.824219 92.886719 69.769531 92.859375 69.675781 92.859375 C 69.570312 92.859375 69.324219 92.898438 68.941406 92.96875 L 68.410156 93.0625 L 68.410156 92.734375 Z M 78.707031 96.21875 C 78.433594 96.59375 78.148438 96.867188 77.847656 97.03125 C 77.554688 97.1875 77.199219 97.265625 76.785156 97.265625 C 76.097656 97.265625 75.527344 97.03125 75.082031 96.5625 C 74.644531 96.09375 74.425781 95.496094 74.425781 94.765625 C 74.425781 93.976562 74.675781 93.308594 75.175781 92.765625 C 75.675781 92.226562 76.292969 91.953125 77.035156 91.953125 C 77.929688 91.953125 78.617188 92.308594 79.097656 93.015625 C 79.585938 93.714844 79.832031 94.710938 79.832031 96 C 79.832031 97.375 79.550781 98.4375 78.988281 99.1875 C 78.433594 99.9375 77.648438 100.3125 76.628906 100.3125 C 75.960938 100.3125 75.378906 100.191406 74.878906 99.953125 L 74.878906 98.6875 L 75.410156 98.6875 L 75.410156 98.796875 L 75.441406 99.1875 C 75.449219 99.335938 75.472656 99.4375 75.503906 99.5 C 75.542969 99.5625 75.636719 99.636719 75.785156 99.71875 C 76.085938 99.886719 76.398438 99.96875 76.722656 99.96875 C 77.347656 99.96875 77.832031 99.648438 78.175781 99 C 78.527344 98.34375 78.707031 97.417969 78.707031 96.21875 Z M 78.675781 95.09375 C 78.675781 94.273438 78.507812 93.601562 78.175781 93.078125 C 77.839844 92.558594 77.414062 92.296875 76.894531 92.296875 C 76.445312 92.296875 76.097656 92.507812 75.847656 92.921875 C 75.605469 93.328125 75.488281 93.898438 75.488281 94.625 C 75.488281 95.355469 75.613281 95.917969 75.863281 96.3125 C 76.113281 96.699219 76.476562 96.890625 76.957031 96.890625 C 77.414062 96.890625 77.816406 96.742188 78.160156 96.4375 C 78.503906 96.136719 78.675781 95.6875 78.675781 95.09375 Z M 81.488281 100.0625 L 81.488281 98.65625 L 82.019531 98.65625 L 82.019531 98.765625 L 82.035156 99.140625 C 82.035156 99.351562 82.113281 99.511719 82.269531 99.625 C 82.613281 99.867188 83.003906 99.984375 83.441406 99.984375 C 83.898438 99.984375 84.269531 99.804688 84.550781 99.4375 C 84.839844 99.0625 84.988281 98.570312 84.988281 97.953125 C 84.988281 97.351562 84.800781 96.882812 84.425781 96.546875 C 84.050781 96.203125 83.527344 96.03125 82.863281 96.03125 L 82.207031 96.03125 L 82.207031 95.703125 L 82.566406 95.703125 C 83.355469 95.703125 83.929688 95.5625 84.285156 95.28125 C 84.636719 94.992188 84.816406 94.527344 84.816406 93.890625 C 84.816406 93.382812 84.691406 92.984375 84.441406 92.703125 C 84.191406 92.421875 83.839844 92.28125 83.394531 92.28125 C 82.976562 92.28125 82.617188 92.371094 82.316406 92.546875 C 82.222656 92.601562 82.164062 92.664062 82.144531 92.734375 C 82.132812 92.796875 82.113281 93.023438 82.082031 93.40625 L 82.066406 93.484375 L 81.535156 93.484375 L 81.535156 92.265625 C 82.105469 92.058594 82.757812 91.953125 83.488281 91.953125 C 84.226562 91.953125 84.804688 92.121094 85.222656 92.453125 C 85.648438 92.777344 85.863281 93.21875 85.863281 93.78125 C 85.863281 94.730469 85.308594 95.40625 84.207031 95.8125 C 84.882812 95.992188 85.367188 96.242188 85.660156 96.5625 C 85.960938 96.886719 86.113281 97.339844 86.113281 97.921875 C 86.113281 98.664062 85.871094 99.246094 85.394531 99.671875 C 84.914062 100.101562 84.269531 100.3125 83.457031 100.3125 C 82.695312 100.3125 82.039062 100.226562 81.488281 100.0625 Z M 81.488281 100.0625 "/>
<path style=" stroke:none;fill-rule:nonzero;fill:rgb(100%,0%,0%);fill-opacity:1;" d="M 122.523438 32.179688 C 122.523438 36.179688 116.523438 36.179688 116.523438 32.179688 C 116.523438 28.179688 122.523438 28.179688 122.523438 32.179688 "/>
<path style=" stroke:none;fill-rule:nonzero;fill:rgb(0%,0%,0%);fill-opacity:1;" d="M 95.15625 45.632812 L 90.234375 38.976562 L 90.234375 44.132812 C 90.234375 44.425781 90.257812 44.679688 90.3125 44.898438 C 90.332031 44.992188 90.367188 45.0625 90.421875 45.101562 C 90.472656 45.132812 90.585938 45.15625 90.765625 45.164062 L 91.125 45.179688 L 91.21875 45.195312 L 91.21875 45.523438 L 88.734375 45.523438 L 88.734375 45.195312 L 88.828125 45.179688 L 89.203125 45.164062 C 89.367188 45.15625 89.476562 45.132812 89.53125 45.101562 C 89.59375 45.0625 89.632812 44.992188 89.65625 44.898438 C 89.707031 44.679688 89.734375 44.425781 89.734375 44.132812 L 89.734375 38.960938 C 89.734375 38.671875 89.707031 38.410156 89.65625 38.179688 C 89.632812 38.085938 89.59375 38.03125 89.53125 38.007812 C 89.476562 37.976562 89.367188 37.953125 89.203125 37.929688 L 88.828125 37.914062 L 88.734375 37.898438 L 88.734375 37.570312 L 90.515625 37.570312 L 95.046875 43.742188 L 95.046875 38.960938 L 95.015625 38.429688 C 95.003906 38.234375 94.96875 38.109375 94.90625 38.054688 C 94.851562 37.992188 94.722656 37.953125 94.515625 37.929688 L 94.15625 37.914062 L 94.0625 37.898438 L 94.0625 37.570312 L 96.53125 37.570312 L 96.53125 37.898438 L 96.4375 37.914062 L 96.0625 37.929688 C 95.863281 37.953125 95.734375 37.992188 95.671875 38.054688 C 95.617188 38.109375 95.585938 38.234375 95.578125 38.429688 L 95.546875 38.960938 L 95.546875 45.632812 Z M 100.046875 45.664062 C 99.203125 45.664062 98.53125 45.390625 98.03125 44.835938 C 97.539062 44.285156 97.296875 43.539062 97.296875 42.601562 C 97.296875 41.664062 97.546875 40.925781 98.046875 40.382812 C 98.546875 39.832031 99.222656 39.554688 100.078125 39.554688 C 100.941406 39.554688 101.617188 39.832031 102.109375 40.382812 C 102.609375 40.925781 102.859375 41.664062 102.859375 42.601562 C 102.859375 43.550781 102.609375 44.300781 102.109375 44.851562 C 101.609375 45.394531 100.921875 45.664062 100.046875 45.664062 Z M 100.0625 45.320312 C 100.550781 45.320312 100.953125 45.066406 101.265625 44.554688 C 101.578125 44.046875 101.734375 43.394531 101.734375 42.601562 C 101.734375 41.832031 101.570312 41.1875 101.25 40.664062 C 100.9375 40.144531 100.546875 39.882812 100.078125 39.882812 C 99.609375 39.882812 99.210938 40.144531 98.890625 40.664062 C 98.578125 41.1875 98.421875 41.832031 98.421875 42.601562 C 98.421875 43.382812 98.578125 44.035156 98.890625 44.554688 C 99.203125 45.066406 99.59375 45.320312 100.0625 45.320312 Z M 106.15625 45.585938 L 104.265625 41.117188 C 104.066406 40.648438 103.921875 40.351562 103.828125 40.226562 C 103.742188 40.101562 103.628906 40.035156 103.484375 40.023438 L 103.390625 40.023438 L 103.390625 39.695312 L 105.921875 39.695312 L 105.921875 40.023438 L 105.53125 40.023438 C 105.25 40.023438 105.109375 40.101562 105.109375 40.257812 C 105.109375 40.332031 105.21875 40.625 105.4375 41.132812 L 106.75 44.242188 L 108.109375 41.132812 C 108.316406 40.644531 108.421875 40.351562 108.421875 40.257812 C 108.421875 40.101562 108.296875 40.023438 108.046875 40.023438 L 107.65625 40.023438 L 107.65625 39.695312 L 109.390625 39.695312 L 109.390625 40.023438 L 109.28125 40.023438 C 109.15625 40.035156 109.054688 40.078125 108.984375 40.148438 C 108.910156 40.222656 108.832031 40.351562 108.75 40.539062 L 108.5 41.132812 L 106.484375 45.585938 Z M 113.53125 44.726562 C 113.175781 45.070312 112.859375 45.316406 112.578125 45.460938 C 112.304688 45.59375 112 45.664062 111.65625 45.664062 C 111.164062 45.664062 110.753906 45.507812 110.421875 45.195312 C 110.085938 44.875 109.921875 44.476562 109.921875 44.007812 C 109.921875 43.457031 110.140625 43.007812 110.578125 42.664062 C 110.847656 42.445312 111.164062 42.296875 111.53125 42.210938 C 111.90625 42.117188 112.414062 42.070312 113.0625 42.070312 L 113.28125 42.070312 L 113.28125 41.351562 C 113.28125 40.4375 112.929688 39.976562 112.234375 39.976562 C 111.910156 39.976562 111.625 40.078125 111.375 40.273438 C 111.226562 40.390625 111.132812 40.640625 111.09375 41.023438 L 111.09375 41.117188 L 110.375 41.117188 L 110.375 40.054688 C 111.113281 39.722656 111.800781 39.554688 112.4375 39.554688 C 112.988281 39.554688 113.4375 39.6875 113.78125 39.945312 C 114 40.113281 114.144531 40.296875 114.21875 40.492188 C 114.300781 40.679688 114.34375 40.953125 114.34375 41.304688 L 114.34375 43.914062 C 114.34375 44.375 114.378906 44.703125 114.453125 44.898438 C 114.535156 45.085938 114.679688 45.179688 114.890625 45.179688 C 114.953125 45.179688 115.046875 45.164062 115.171875 45.132812 L 115.203125 45.523438 C 114.953125 45.617188 114.722656 45.664062 114.515625 45.664062 C 113.992188 45.664062 113.664062 45.351562 113.53125 44.726562 Z M 113.28125 44.601562 L 113.28125 42.414062 L 113.03125 42.414062 C 112.414062 42.414062 111.929688 42.546875 111.578125 42.804688 C 111.222656 43.054688 111.046875 43.40625 111.046875 43.851562 C 111.046875 44.195312 111.15625 44.476562 111.375 44.695312 C 111.59375 44.914062 111.863281 45.023438 112.1875 45.023438 C 112.5 45.023438 112.863281 44.882812 113.28125 44.601562 Z M 119.34375 45.367188 L 119.34375 43.835938 L 119.90625 43.835938 L 119.90625 43.929688 C 119.914062 44.109375 119.921875 44.242188 119.921875 44.335938 C 119.921875 44.515625 119.941406 44.644531 119.984375 44.726562 C 120.035156 44.800781 120.132812 44.882812 120.28125 44.976562 C 120.65625 45.207031 121.078125 45.320312 121.546875 45.320312 C 122.015625 45.320312 122.378906 45.1875 122.640625 44.914062 C 122.910156 44.644531 123.046875 44.269531 123.046875 43.789062 C 123.046875 43.394531 122.957031 43.082031 122.78125 42.851562 C 122.613281 42.613281 122.285156 42.351562 121.796875 42.070312 L 121.234375 41.742188 C 120.566406 41.378906 120.09375 41.023438 119.8125 40.679688 C 119.539062 40.335938 119.40625 39.941406 119.40625 39.492188 C 119.40625 38.890625 119.625 38.390625 120.0625 37.992188 C 120.5 37.585938 121.050781 37.382812 121.71875 37.382812 C 122.28125 37.382812 122.945312 37.492188 123.71875 37.710938 L 123.71875 39.132812 L 123.125 39.132812 L 123.125 39.039062 C 123.101562 38.84375 123.09375 38.703125 123.09375 38.617188 C 123.09375 38.296875 123 38.082031 122.8125 37.976562 C 122.539062 37.820312 122.191406 37.742188 121.765625 37.742188 C 121.378906 37.742188 121.066406 37.867188 120.828125 38.117188 C 120.597656 38.367188 120.484375 38.703125 120.484375 39.117188 C 120.484375 39.460938 120.5625 39.75 120.71875 39.976562 C 120.882812 40.207031 121.179688 40.445312 121.609375 40.695312 L 122.171875 41.007812 C 122.953125 41.457031 123.476562 41.847656 123.75 42.179688 C 124.03125 42.503906 124.171875 42.914062 124.171875 43.414062 C 124.171875 44.070312 123.921875 44.625 123.421875 45.070312 C 122.929688 45.507812 122.320312 45.726562 121.59375 45.726562 C 121.226562 45.726562 120.828125 45.6875 120.390625 45.617188 C 119.953125 45.542969 119.601562 45.460938 119.34375 45.367188 Z M 129.703125 45.320312 C 129.148438 45.546875 128.609375 45.664062 128.078125 45.664062 C 127.222656 45.664062 126.53125 45.378906 126 44.804688 C 125.46875 44.234375 125.203125 43.492188 125.203125 42.585938 C 125.203125 41.671875 125.457031 40.9375 125.96875 40.382812 C 126.476562 39.832031 127.148438 39.554688 127.984375 39.554688 C 128.429688 39.554688 129.003906 39.644531 129.703125 39.820312 L 129.703125 41.210938 L 129.046875 41.210938 L 129.046875 41.117188 C 129.046875 40.691406 128.976562 40.40625 128.84375 40.257812 C 128.644531 40.03125 128.363281 39.914062 128 39.914062 C 127.476562 39.914062 127.066406 40.148438 126.765625 40.617188 C 126.460938 41.078125 126.3125 41.707031 126.3125 42.507812 C 126.3125 43.320312 126.488281 43.960938 126.84375 44.429688 C 127.207031 44.898438 127.695312 45.132812 128.3125 45.132812 C 128.84375 45.132812 129.304688 45.046875 129.703125 44.867188 Z M 133.546875 45.664062 C 132.703125 45.664062 132.03125 45.390625 131.53125 44.835938 C 131.039062 44.285156 130.796875 43.539062 130.796875 42.601562 C 130.796875 41.664062 131.046875 40.925781 131.546875 40.382812 C 132.046875 39.832031 132.722656 39.554688 133.578125 39.554688 C 134.441406 39.554688 135.117188 39.832031 135.609375 40.382812 C 136.109375 40.925781 136.359375 41.664062 136.359375 42.601562 C 136.359375 43.550781 136.109375 44.300781 135.609375 44.851562 C 135.109375 45.394531 134.421875 45.664062 133.546875 45.664062 Z M 133.5625 45.320312 C 134.050781 45.320312 134.453125 45.066406 134.765625 44.554688 C 135.078125 44.046875 135.234375 43.394531 135.234375 42.601562 C 135.234375 41.832031 135.070312 41.1875 134.75 40.664062 C 134.4375 40.144531 134.046875 39.882812 133.578125 39.882812 C 133.109375 39.882812 132.710938 40.144531 132.390625 40.664062 C 132.078125 41.1875 131.921875 41.832031 131.921875 42.601562 C 131.921875 43.382812 132.078125 44.035156 132.390625 44.554688 C 132.703125 45.066406 133.09375 45.320312 133.5625 45.320312 Z M 140.765625 45.492188 C 140.492188 45.605469 140.238281 45.664062 140 45.664062 C 139.445312 45.664062 139.015625 45.519531 138.703125 45.226562 C 138.515625 45.0625 138.382812 44.875 138.3125 44.664062 C 138.25 44.445312 138.21875 44.125 138.21875 43.695312 L 138.21875 40.132812 L 137.359375 40.132812 L 137.359375 39.695312 L 138.21875 39.695312 L 138.21875 38.632812 L 139.28125 38.367188 L 139.28125 39.695312 L 140.890625 39.695312 L 140.890625 40.132812 L 139.28125 40.132812 L 139.28125 43.835938 C 139.28125 44.347656 139.328125 44.6875 139.421875 44.851562 C 139.566406 45.101562 139.8125 45.226562 140.15625 45.226562 C 140.320312 45.226562 140.523438 45.171875 140.765625 45.054688 Z M 143.453125 39.695312 L 143.453125 44.132812 C 143.453125 44.425781 143.476562 44.679688 143.53125 44.898438 C 143.550781 44.992188 143.585938 45.0625 143.640625 45.101562 C 143.703125 45.132812 143.816406 45.15625 143.984375 45.164062 L 144.34375 45.179688 L 144.453125 45.195312 L 144.453125 45.523438 L 141.40625 45.523438 L 141.40625 45.195312 L 141.5 45.179688 L 141.859375 45.164062 C 142.066406 45.144531 142.195312 45.109375 142.25 45.054688 C 142.3125 45.003906 142.347656 44.875 142.359375 44.664062 L 142.390625 44.132812 L 142.390625 41.085938 L 142.359375 40.554688 C 142.347656 40.347656 142.3125 40.21875 142.25 40.164062 C 142.195312 40.101562 142.066406 40.066406 141.859375 40.054688 L 141.5 40.023438 L 141.40625 40.023438 L 141.40625 39.695312 Z M 142.390625 38.632812 L 142.390625 37.570312 L 143.453125 37.570312 L 143.453125 38.632812 Z M 148.71875 44.726562 C 148.363281 45.070312 148.046875 45.316406 147.765625 45.460938 C 147.492188 45.59375 147.1875 45.664062 146.84375 45.664062 C 146.351562 45.664062 145.941406 45.507812 145.609375 45.195312 C 145.273438 44.875 145.109375 44.476562 145.109375 44.007812 C 145.109375 43.457031 145.328125 43.007812 145.765625 42.664062 C 146.035156 42.445312 146.351562 42.296875 146.71875 42.210938 C 147.09375 42.117188 147.601562 42.070312 148.25 42.070312 L 148.46875 42.070312 L 148.46875 41.351562 C 148.46875 40.4375 148.117188 39.976562 147.421875 39.976562 C 147.097656 39.976562 146.8125 40.078125 146.5625 40.273438 C 146.414062 40.390625 146.320312 40.640625 146.28125 41.023438 L 146.28125 41.117188 L 145.5625 41.117188 L 145.5625 40.054688 C 146.300781 39.722656 146.988281 39.554688 147.625 39.554688 C 148.175781 39.554688 148.625 39.6875 148.96875 39.945312 C 149.1875 40.113281 149.332031 40.296875 149.40625 40.492188 C 149.488281 40.679688 149.53125 40.953125 149.53125 41.304688 L 149.53125 43.914062 C 149.53125 44.375 149.566406 44.703125 149.640625 44.898438 C 149.722656 45.085938 149.867188 45.179688 150.078125 45.179688 C 150.140625 45.179688 150.234375 45.164062 150.359375 45.132812 L 150.390625 45.523438 C 150.140625 45.617188 149.910156 45.664062 149.703125 45.664062 C 149.179688 45.664062 148.851562 45.351562 148.71875 44.726562 Z M 148.46875 44.601562 L 148.46875 42.414062 L 148.21875 42.414062 C 147.601562 42.414062 147.117188 42.546875 146.765625 42.804688 C 146.410156 43.054688 146.234375 43.40625 146.234375 43.851562 C 146.234375 44.195312 146.34375 44.476562 146.5625 44.695312 C 146.78125 44.914062 147.050781 45.023438 147.375 45.023438 C 147.6875 45.023438 148.050781 44.882812 148.46875 44.601562 Z M 148.46875 44.601562 "/>
<path style=" stroke:none;fill-rule:nonzero;fill:rgb(0%,0%,0%);fill-opacity:1;" d="M 122.882812 43.582031 L 119.210938 32.269531 L 119.820312 32.082031 L 123.492188 43.394531 Z M 122.882812 43.582031 "/>
<path style=" stroke:none;fill-rule:nonzero;fill:rgb(0%,0%,0%);fill-opacity:1;" d="M 105.976562 36.359375 C 106.070312 35.796875 106.214844 35.289062 106.414062 34.828125 C 106.664062 34.246094 106.921875 33.742188 107.195312 33.3125 C 107.476562 32.886719 108.15625 31.945312 109.242188 30.484375 L 110.054688 29.40625 L 105.570312 29.40625 L 105.570312 28.40625 L 110.679688 28.40625 L 110.679688 29.109375 C 109.511719 30.664062 108.65625 32.007812 108.117188 33.140625 C 107.585938 34.265625 107.289062 35.339844 107.226562 36.359375 Z M 112.929688 32.296875 C 113.199219 31.921875 113.480469 31.65625 113.773438 31.5 C 114.074219 31.335938 114.433594 31.25 114.851562 31.25 C 115.546875 31.25 116.117188 31.484375 116.554688 31.953125 C 116.992188 32.414062 117.210938 33.011719 117.210938 33.75 C 117.210938 34.542969 116.960938 35.210938 116.460938 35.75 C 115.960938 36.292969 115.34375 36.5625 114.617188 36.5625 C 113.71875 36.5625 113.027344 36.214844 112.539062 35.515625 C 112.046875 34.808594 111.804688 33.808594 111.804688 32.515625 C 111.804688 31.140625 112.085938 30.078125 112.648438 29.328125 C 113.210938 28.578125 114 28.203125 115.023438 28.203125 C 115.679688 28.203125 116.257812 28.324219 116.757812 28.5625 L 116.757812 29.828125 L 116.242188 29.828125 L 116.226562 29.71875 L 116.195312 29.34375 C 116.183594 29.1875 116.15625 29.085938 116.117188 29.03125 C 116.085938 28.96875 115.996094 28.898438 115.851562 28.8125 C 115.546875 28.625 115.234375 28.53125 114.914062 28.53125 C 114.289062 28.53125 113.796875 28.859375 113.445312 29.515625 C 113.101562 30.171875 112.929688 31.101562 112.929688 32.296875 Z M 112.976562 33.421875 C 112.976562 34.246094 113.136719 34.917969 113.460938 35.4375 C 113.792969 35.960938 114.21875 36.21875 114.742188 36.21875 C 115.1875 36.21875 115.53125 36.015625 115.773438 35.609375 C 116.023438 35.195312 116.148438 34.621094 116.148438 33.890625 C 116.148438 33.164062 116.023438 32.605469 115.773438 32.21875 C 115.523438 31.824219 115.164062 31.625 114.695312 31.625 C 114.226562 31.625 113.820312 31.777344 113.476562 32.078125 C 113.140625 32.382812 112.976562 32.828125 112.976562 33.421875 Z M 121.710938 28.34375 L 121.710938 34.96875 L 121.742188 35.5 C 121.75 35.667969 121.773438 35.78125 121.804688 35.84375 C 121.835938 35.898438 121.898438 35.933594 121.992188 35.953125 C 122.199219 35.996094 122.40625 36.015625 122.617188 36.015625 L 123.242188 36.03125 L 123.242188 36.359375 L 119.132812 36.359375 L 119.132812 36.03125 L 119.757812 36.015625 C 119.953125 36.015625 120.15625 35.996094 120.367188 35.953125 C 120.460938 35.933594 120.523438 35.898438 120.554688 35.84375 C 120.585938 35.78125 120.605469 35.667969 120.617188 35.5 L 120.648438 34.96875 L 120.648438 30.03125 L 120.617188 29.5 C 120.617188 29.34375 120.601562 29.242188 120.570312 29.1875 C 120.546875 29.136719 120.492188 29.109375 120.398438 29.109375 C 120.292969 29.109375 120.046875 29.148438 119.664062 29.21875 L 119.132812 29.3125 L 119.132812 28.984375 Z M 121.710938 28.34375 "/>
<path style=" stroke:none;fill-rule:nonzero;fill:rgb(100%,0%,0%);fill-opacity:1;" d="M 131.777344 51.125 C 131.777344 55.125 125.777344 55.125 125.777344 51.125 C 125.777344 47.125 131.777344 47.125 131.777344 51.125 "/>
<path style=" stroke:none;fill-rule:nonzero;fill:rgb(0%,0%,0%);fill-opacity:1;" d="M 104.410156 64.578125 L 99.488281 57.921875 L 99.488281 63.078125 C 99.488281 63.371094 99.511719 63.625 99.566406 63.84375 C 99.585938 63.9375 99.621094 64.007812 99.675781 64.046875 C 99.726562 64.078125 99.839844 64.101562 100.019531 64.109375 L 100.378906 64.125 L 100.472656 64.140625 L 100.472656 64.46875 L 97.988281 64.46875 L 97.988281 64.140625 L 98.082031 64.125 L 98.457031 64.109375 C 98.621094 64.101562 98.730469 64.078125 98.785156 64.046875 C 98.847656 64.007812 98.886719 63.9375 98.910156 63.84375 C 98.960938 63.625 98.988281 63.371094 98.988281 63.078125 L 98.988281 57.90625 C 98.988281 57.617188 98.960938 57.355469 98.910156 57.125 C 98.886719 57.03125 98.847656 56.976562 98.785156 56.953125 C 98.730469 56.921875 98.621094 56.898438 98.457031 56.875 L 98.082031 56.859375 L 97.988281 56.84375 L 97.988281 56.515625 L 99.769531 56.515625 L 104.300781 62.6875 L 104.300781 57.90625 L 104.269531 57.375 C 104.257812 57.179688 104.222656 57.054688 104.160156 57 C 104.105469 56.9375 103.976562 56.898438 103.769531 56.875 L 103.410156 56.859375 L 103.316406 56.84375 L 103.316406 56.515625 L 105.785156 56.515625 L 105.785156 56.84375 L 105.691406 56.859375 L 105.316406 56.875 C 105.117188 56.898438 104.988281 56.9375 104.925781 57 C 104.871094 57.054688 104.839844 57.179688 104.832031 57.375 L 104.800781 57.90625 L 104.800781 64.578125 Z M 109.300781 64.609375 C 108.457031 64.609375 107.785156 64.335938 107.285156 63.78125 C 106.792969 63.230469 106.550781 62.484375 106.550781 61.546875 C 106.550781 60.609375 106.800781 59.871094 107.300781 59.328125 C 107.800781 58.777344 108.476562 58.5 109.332031 58.5 C 110.195312 58.5 110.871094 58.777344 111.363281 59.328125 C 111.863281 59.871094 112.113281 60.609375 112.113281 61.546875 C 112.113281 62.496094 111.863281 63.246094 111.363281 63.796875 C 110.863281 64.339844 110.175781 64.609375 109.300781 64.609375 Z M 109.316406 64.265625 C 109.804688 64.265625 110.207031 64.011719 110.519531 63.5 C 110.832031 62.992188 110.988281 62.339844 110.988281 61.546875 C 110.988281 60.777344 110.824219 60.132812 110.503906 59.609375 C 110.191406 59.089844 109.800781 58.828125 109.332031 58.828125 C 108.863281 58.828125 108.464844 59.089844 108.144531 59.609375 C 107.832031 60.132812 107.675781 60.777344 107.675781 61.546875 C 107.675781 62.328125 107.832031 62.980469 108.144531 63.5 C 108.457031 64.011719 108.847656 64.265625 109.316406 64.265625 Z M 115.410156 64.53125 L 113.519531 60.0625 C 113.320312 59.59375 113.175781 59.296875 113.082031 59.171875 C 112.996094 59.046875 112.882812 58.980469 112.738281 58.96875 L 112.644531 58.96875 L 112.644531 58.640625 L 115.175781 58.640625 L 115.175781 58.96875 L 114.785156 58.96875 C 114.503906 58.96875 114.363281 59.046875 114.363281 59.203125 C 114.363281 59.277344 114.472656 59.570312 114.691406 60.078125 L 116.003906 63.1875 L 117.363281 60.078125 C 117.570312 59.589844 117.675781 59.296875 117.675781 59.203125 C 117.675781 59.046875 117.550781 58.96875 117.300781 58.96875 L 116.910156 58.96875 L 116.910156 58.640625 L 118.644531 58.640625 L 118.644531 58.96875 L 118.535156 58.96875 C 118.410156 58.980469 118.308594 59.023438 118.238281 59.09375 C 118.164062 59.167969 118.085938 59.296875 118.003906 59.484375 L 117.753906 60.078125 L 115.738281 64.53125 Z M 122.785156 63.671875 C 122.429688 64.015625 122.113281 64.261719 121.832031 64.40625 C 121.558594 64.539062 121.253906 64.609375 120.910156 64.609375 C 120.417969 64.609375 120.007812 64.453125 119.675781 64.140625 C 119.339844 63.820312 119.175781 63.421875 119.175781 62.953125 C 119.175781 62.402344 119.394531 61.953125 119.832031 61.609375 C 120.101562 61.390625 120.417969 61.242188 120.785156 61.15625 C 121.160156 61.0625 121.667969 61.015625 122.316406 61.015625 L 122.535156 61.015625 L 122.535156 60.296875 C 122.535156 59.382812 122.183594 58.921875 121.488281 58.921875 C 121.164062 58.921875 120.878906 59.023438 120.628906 59.21875 C 120.480469 59.335938 120.386719 59.585938 120.347656 59.96875 L 120.347656 60.0625 L 119.628906 60.0625 L 119.628906 59 C 120.367188 58.667969 121.054688 58.5 121.691406 58.5 C 122.242188 58.5 122.691406 58.632812 123.035156 58.890625 C 123.253906 59.058594 123.398438 59.242188 123.472656 59.4375 C 123.554688 59.625 123.597656 59.898438 123.597656 60.25 L 123.597656 62.859375 C 123.597656 63.320312 123.632812 63.648438 123.707031 63.84375 C 123.789062 64.03125 123.933594 64.125 124.144531 64.125 C 124.207031 64.125 124.300781 64.109375 124.425781 64.078125 L 124.457031 64.46875 C 124.207031 64.5625 123.976562 64.609375 123.769531 64.609375 C 123.246094 64.609375 122.917969 64.296875 122.785156 63.671875 Z M 122.535156 63.546875 L 122.535156 61.359375 L 122.285156 61.359375 C 121.667969 61.359375 121.183594 61.492188 120.832031 61.75 C 120.476562 62 120.300781 62.351562 120.300781 62.796875 C 120.300781 63.140625 120.410156 63.421875 120.628906 63.640625 C 120.847656 63.859375 121.117188 63.96875 121.441406 63.96875 C 121.753906 63.96875 122.117188 63.828125 122.535156 63.546875 Z M 128.597656 64.3125 L 128.597656 62.78125 L 129.160156 62.78125 L 129.160156 62.875 C 129.167969 63.054688 129.175781 63.1875 129.175781 63.28125 C 129.175781 63.460938 129.195312 63.589844 129.238281 63.671875 C 129.289062 63.746094 129.386719 63.828125 129.535156 63.921875 C 129.910156 64.152344 130.332031 64.265625 130.800781 64.265625 C 131.269531 64.265625 131.632812 64.132812 131.894531 63.859375 C 132.164062 63.589844 132.300781 63.214844 132.300781 62.734375 C 132.300781 62.339844 132.210938 62.027344 132.035156 61.796875 C 131.867188 61.558594 131.539062 61.296875 131.050781 61.015625 L 130.488281 60.6875 C 129.820312 60.324219 129.347656 59.96875 129.066406 59.625 C 128.792969 59.28125 128.660156 58.886719 128.660156 58.4375 C 128.660156 57.835938 128.878906 57.335938 129.316406 56.9375 C 129.753906 56.53125 130.304688 56.328125 130.972656 56.328125 C 131.535156 56.328125 132.199219 56.4375 132.972656 56.65625 L 132.972656 58.078125 L 132.378906 58.078125 L 132.378906 57.984375 C 132.355469 57.789062 132.347656 57.648438 132.347656 57.5625 C 132.347656 57.242188 132.253906 57.027344 132.066406 56.921875 C 131.792969 56.765625 131.445312 56.6875 131.019531 56.6875 C 130.632812 56.6875 130.320312 56.8125 130.082031 57.0625 C 129.851562 57.3125 129.738281 57.648438 129.738281 58.0625 C 129.738281 58.40625 129.816406 58.695312 129.972656 58.921875 C 130.136719 59.152344 130.433594 59.390625 130.863281 59.640625 L 131.425781 59.953125 C 132.207031 60.402344 132.730469 60.792969 133.003906 61.125 C 133.285156 61.449219 133.425781 61.859375 133.425781 62.359375 C 133.425781 63.015625 133.175781 63.570312 132.675781 64.015625 C 132.183594 64.453125 131.574219 64.671875 130.847656 64.671875 C 130.480469 64.671875 130.082031 64.632812 129.644531 64.5625 C 129.207031 64.488281 128.855469 64.40625 128.597656 64.3125 Z M 138.957031 64.265625 C 138.402344 64.492188 137.863281 64.609375 137.332031 64.609375 C 136.476562 64.609375 135.785156 64.324219 135.253906 63.75 C 134.722656 63.179688 134.457031 62.4375 134.457031 61.53125 C 134.457031 60.617188 134.710938 59.882812 135.222656 59.328125 C 135.730469 58.777344 136.402344 58.5 137.238281 58.5 C 137.683594 58.5 138.257812 58.589844 138.957031 58.765625 L 138.957031 60.15625 L 138.300781 60.15625 L 138.300781 60.0625 C 138.300781 59.636719 138.230469 59.351562 138.097656 59.203125 C 137.898438 58.976562 137.617188 58.859375 137.253906 58.859375 C 136.730469 58.859375 136.320312 59.09375 136.019531 59.5625 C 135.714844 60.023438 135.566406 60.652344 135.566406 61.453125 C 135.566406 62.265625 135.742188 62.90625 136.097656 63.375 C 136.460938 63.84375 136.949219 64.078125 137.566406 64.078125 C 138.097656 64.078125 138.558594 63.992188 138.957031 63.8125 Z M 142.800781 64.609375 C 141.957031 64.609375 141.285156 64.335938 140.785156 63.78125 C 140.292969 63.230469 140.050781 62.484375 140.050781 61.546875 C 140.050781 60.609375 140.300781 59.871094 140.800781 59.328125 C 141.300781 58.777344 141.976562 58.5 142.832031 58.5 C 143.695312 58.5 144.371094 58.777344 144.863281 59.328125 C 145.363281 59.871094 145.613281 60.609375 145.613281 61.546875 C 145.613281 62.496094 145.363281 63.246094 144.863281 63.796875 C 144.363281 64.339844 143.675781 64.609375 142.800781 64.609375 Z M 142.816406 64.265625 C 143.304688 64.265625 143.707031 64.011719 144.019531 63.5 C 144.332031 62.992188 144.488281 62.339844 144.488281 61.546875 C 144.488281 60.777344 144.324219 60.132812 144.003906 59.609375 C 143.691406 59.089844 143.300781 58.828125 142.832031 58.828125 C 142.363281 58.828125 141.964844 59.089844 141.644531 59.609375 C 141.332031 60.132812 141.175781 60.777344 141.175781 61.546875 C 141.175781 62.328125 141.332031 62.980469 141.644531 63.5 C 141.957031 64.011719 142.347656 64.265625 142.816406 64.265625 Z M 150.019531 64.4375 C 149.746094 64.550781 149.492188 64.609375 149.253906 64.609375 C 148.699219 64.609375 148.269531 64.464844 147.957031 64.171875 C 147.769531 64.007812 147.636719 63.820312 147.566406 63.609375 C 147.503906 63.390625 147.472656 63.070312 147.472656 62.640625 L 147.472656 59.078125 L 146.613281 59.078125 L 146.613281 58.640625 L 147.472656 58.640625 L 147.472656 57.578125 L 148.535156 57.3125 L 148.535156 58.640625 L 150.144531 58.640625 L 150.144531 59.078125 L 148.535156 59.078125 L 148.535156 62.78125 C 148.535156 63.292969 148.582031 63.632812 148.675781 63.796875 C 148.820312 64.046875 149.066406 64.171875 149.410156 64.171875 C 149.574219 64.171875 149.777344 64.117188 150.019531 64 Z M 152.707031 58.640625 L 152.707031 63.078125 C 152.707031 63.371094 152.730469 63.625 152.785156 63.84375 C 152.804688 63.9375 152.839844 64.007812 152.894531 64.046875 C 152.957031 64.078125 153.070312 64.101562 153.238281 64.109375 L 153.597656 64.125 L 153.707031 64.140625 L 153.707031 64.46875 L 150.660156 64.46875 L 150.660156 64.140625 L 150.753906 64.125 L 151.113281 64.109375 C 151.320312 64.089844 151.449219 64.054688 151.503906 64 C 151.566406 63.949219 151.601562 63.820312 151.613281 63.609375 L 151.644531 63.078125 L 151.644531 60.03125 L 151.613281 59.5 C 151.601562 59.292969 151.566406 59.164062 151.503906 59.109375 C 151.449219 59.046875 151.320312 59.011719 151.113281 59 L 150.753906 58.96875 L 150.660156 58.96875 L 150.660156 58.640625 Z M 151.644531 57.578125 L 151.644531 56.515625 L 152.707031 56.515625 L 152.707031 57.578125 Z M 157.972656 63.671875 C 157.617188 64.015625 157.300781 64.261719 157.019531 64.40625 C 156.746094 64.539062 156.441406 64.609375 156.097656 64.609375 C 155.605469 64.609375 155.195312 64.453125 154.863281 64.140625 C 154.527344 63.820312 154.363281 63.421875 154.363281 62.953125 C 154.363281 62.402344 154.582031 61.953125 155.019531 61.609375 C 155.289062 61.390625 155.605469 61.242188 155.972656 61.15625 C 156.347656 61.0625 156.855469 61.015625 157.503906 61.015625 L 157.722656 61.015625 L 157.722656 60.296875 C 157.722656 59.382812 157.371094 58.921875 156.675781 58.921875 C 156.351562 58.921875 156.066406 59.023438 155.816406 59.21875 C 155.667969 59.335938 155.574219 59.585938 155.535156 59.96875 L 155.535156 60.0625 L 154.816406 60.0625 L 154.816406 59 C 155.554688 58.667969 156.242188 58.5 156.878906 58.5 C 157.429688 58.5 157.878906 58.632812 158.222656 58.890625 C 158.441406 59.058594 158.585938 59.242188 158.660156 59.4375 C 158.742188 59.625 158.785156 59.898438 158.785156 60.25 L 158.785156 62.859375 C 158.785156 63.320312 158.820312 63.648438 158.894531 63.84375 C 158.976562 64.03125 159.121094 64.125 159.332031 64.125 C 159.394531 64.125 159.488281 64.109375 159.613281 64.078125 L 159.644531 64.46875 C 159.394531 64.5625 159.164062 64.609375 158.957031 64.609375 C 158.433594 64.609375 158.105469 64.296875 157.972656 63.671875 Z M 157.722656 63.546875 L 157.722656 61.359375 L 157.472656 61.359375 C 156.855469 61.359375 156.371094 61.492188 156.019531 61.75 C 155.664062 62 155.488281 62.351562 155.488281 62.796875 C 155.488281 63.140625 155.597656 63.421875 155.816406 63.640625 C 156.035156 63.859375 156.304688 63.96875 156.628906 63.96875 C 156.941406 63.96875 157.304688 63.828125 157.722656 63.546875 Z M 157.722656 63.546875 "/>
<path style=" stroke:none;fill-rule:nonzero;fill:rgb(0%,0%,0%);fill-opacity:1;" d="M 130.933594 62.820312 L 128.464844 51.195312 L 129.089844 51.054688 L 131.558594 62.679688 Z M 130.933594 62.820312 "/>
<path style=" stroke:none;fill-rule:nonzero;fill:rgb(0%,0%,0%);fill-opacity:1;" d="M 111.902344 47.289062 L 111.902344 53.914062 L 111.933594 54.445312 C 111.941406 54.613281 111.964844 54.726562 111.996094 54.789062 C 112.027344 54.84375 112.089844 54.878906 112.183594 54.898438 C 112.390625 54.941406 112.597656 54.960938 112.808594 54.960938 L 113.433594 54.976562 L 113.433594 55.304688 L 109.324219 55.304688 L 109.324219 54.976562 L 109.949219 54.960938 C 110.144531 54.960938 110.347656 54.941406 110.558594 54.898438 C 110.652344 54.878906 110.714844 54.84375 110.746094 54.789062 C 110.777344 54.726562 110.796875 54.613281 110.808594 54.445312 L 110.839844 53.914062 L 110.839844 48.976562 L 110.808594 48.445312 C 110.808594 48.289062 110.792969 48.1875 110.761719 48.132812 C 110.738281 48.082031 110.683594 48.054688 110.589844 48.054688 C 110.484375 48.054688 110.238281 48.09375 109.855469 48.164062 L 109.324219 48.257812 L 109.324219 47.929688 Z M 118.699219 53.054688 L 115.042969 53.054688 L 115.042969 52.523438 L 119.027344 47.226562 L 119.621094 47.226562 L 119.621094 52.257812 L 120.683594 52.257812 L 120.683594 53.054688 L 119.621094 53.054688 L 119.621094 53.914062 C 119.621094 54.207031 119.644531 54.460938 119.699219 54.679688 C 119.707031 54.773438 119.738281 54.84375 119.792969 54.882812 C 119.855469 54.914062 119.972656 54.9375 120.152344 54.945312 L 120.511719 54.960938 L 120.605469 54.976562 L 120.605469 55.304688 L 117.574219 55.304688 L 117.574219 54.976562 L 117.667969 54.960938 L 118.214844 54.945312 C 118.359375 54.9375 118.457031 54.914062 118.511719 54.882812 C 118.5625 54.84375 118.597656 54.773438 118.621094 54.679688 C 118.671875 54.472656 118.699219 54.21875 118.699219 53.914062 Z M 115.636719 52.257812 L 118.699219 52.257812 L 118.699219 48.210938 Z M 123.183594 51.242188 C 123.453125 50.867188 123.734375 50.601562 124.027344 50.445312 C 124.328125 50.28125 124.6875 50.195312 125.105469 50.195312 C 125.800781 50.195312 126.371094 50.429688 126.808594 50.898438 C 127.246094 51.359375 127.464844 51.957031 127.464844 52.695312 C 127.464844 53.488281 127.214844 54.15625 126.714844 54.695312 C 126.214844 55.238281 125.597656 55.507812 124.871094 55.507812 C 123.972656 55.507812 123.28125 55.160156 122.792969 54.460938 C 122.300781 53.753906 122.058594 52.753906 122.058594 51.460938 C 122.058594 50.085938 122.339844 49.023438 122.902344 48.273438 C 123.464844 47.523438 124.253906 47.148438 125.277344 47.148438 C 125.933594 47.148438 126.511719 47.269531 127.011719 47.507812 L 127.011719 48.773438 L 126.496094 48.773438 L 126.480469 48.664062 L 126.449219 48.289062 C 126.4375 48.132812 126.410156 48.03125 126.371094 47.976562 C 126.339844 47.914062 126.25 47.84375 126.105469 47.757812 C 125.800781 47.570312 125.488281 47.476562 125.167969 47.476562 C 124.542969 47.476562 124.050781 47.804688 123.699219 48.460938 C 123.355469 49.117188 123.183594 50.046875 123.183594 51.242188 Z M 123.230469 52.367188 C 123.230469 53.191406 123.390625 53.863281 123.714844 54.382812 C 124.046875 54.90625 124.472656 55.164062 124.996094 55.164062 C 125.441406 55.164062 125.785156 54.960938 126.027344 54.554688 C 126.277344 54.140625 126.402344 53.566406 126.402344 52.835938 C 126.402344 52.109375 126.277344 51.550781 126.027344 51.164062 C 125.777344 50.769531 125.417969 50.570312 124.949219 50.570312 C 124.480469 50.570312 124.074219 50.722656 123.730469 51.023438 C 123.394531 51.328125 123.230469 51.773438 123.230469 52.367188 Z M 129.339844 55.320312 L 129.339844 53.976562 L 129.871094 53.976562 L 129.886719 54.101562 L 129.902344 54.507812 C 129.921875 54.945312 130.265625 55.164062 130.933594 55.164062 C 131.433594 55.164062 131.824219 54.972656 132.105469 54.585938 C 132.394531 54.203125 132.542969 53.679688 132.542969 53.023438 C 132.542969 52.265625 132.316406 51.722656 131.871094 51.398438 C 131.421875 51.066406 130.6875 50.898438 129.667969 50.898438 L 129.480469 50.898438 L 129.480469 47.351562 L 133.480469 47.351562 L 133.480469 48.273438 L 129.808594 48.273438 L 129.808594 50.507812 L 130.308594 50.507812 C 131.390625 50.507812 132.21875 50.726562 132.792969 51.164062 C 133.363281 51.601562 133.652344 52.234375 133.652344 53.054688 C 133.652344 53.828125 133.390625 54.429688 132.871094 54.867188 C 132.359375 55.296875 131.652344 55.507812 130.746094 55.507812 C 130.296875 55.507812 129.828125 55.445312 129.339844 55.320312 Z M 129.339844 55.320312 "/>
<path style=" stroke:none;fill-rule:nonzero;fill:rgb(100%,0%,0%);fill-opacity:1;" d="M 54.398438 132.390625 C 54.398438 136.390625 48.398438 136.390625 48.398438 132.390625 C 48.398438 128.390625 54.398438 128.390625 54.398438 132.390625 "/>
<path style=" stroke:none;fill-rule:nonzero;fill:rgb(0%,0%,0%);fill-opacity:1;" d="M 27.03125 145.84375 L 22.109375 139.1875 L 22.109375 144.34375 C 22.109375 144.636719 22.132812 144.890625 22.1875 145.109375 C 22.207031 145.203125 22.242188 145.273438 22.296875 145.3125 C 22.347656 145.34375 22.460938 145.367188 22.640625 145.375 L 23 145.390625 L 23.09375 145.40625 L 23.09375 145.734375 L 20.609375 145.734375 L 20.609375 145.40625 L 20.703125 145.390625 L 21.078125 145.375 C 21.242188 145.367188 21.351562 145.34375 21.40625 145.3125 C 21.46875 145.273438 21.507812 145.203125 21.53125 145.109375 C 21.582031 144.890625 21.609375 144.636719 21.609375 144.34375 L 21.609375 139.171875 C 21.609375 138.882812 21.582031 138.621094 21.53125 138.390625 C 21.507812 138.296875 21.46875 138.242188 21.40625 138.21875 C 21.351562 138.1875 21.242188 138.164062 21.078125 138.140625 L 20.703125 138.125 L 20.609375 138.109375 L 20.609375 137.78125 L 22.390625 137.78125 L 26.921875 143.953125 L 26.921875 139.171875 L 26.890625 138.640625 C 26.878906 138.445312 26.84375 138.320312 26.78125 138.265625 C 26.726562 138.203125 26.597656 138.164062 26.390625 138.140625 L 26.03125 138.125 L 25.9375 138.109375 L 25.9375 137.78125 L 28.40625 137.78125 L 28.40625 138.109375 L 28.3125 138.125 L 27.9375 138.140625 C 27.738281 138.164062 27.609375 138.203125 27.546875 138.265625 C 27.492188 138.320312 27.460938 138.445312 27.453125 138.640625 L 27.421875 139.171875 L 27.421875 145.84375 Z M 31.921875 145.875 C 31.078125 145.875 30.40625 145.601562 29.90625 145.046875 C 29.414062 144.496094 29.171875 143.75 29.171875 142.8125 C 29.171875 141.875 29.421875 141.136719 29.921875 140.59375 C 30.421875 140.042969 31.097656 139.765625 31.953125 139.765625 C 32.816406 139.765625 33.492188 140.042969 33.984375 140.59375 C 34.484375 141.136719 34.734375 141.875 34.734375 142.8125 C 34.734375 143.761719 34.484375 144.511719 33.984375 145.0625 C 33.484375 145.605469 32.796875 145.875 31.921875 145.875 Z M 31.9375 145.53125 C 32.425781 145.53125 32.828125 145.277344 33.140625 144.765625 C 33.453125 144.257812 33.609375 143.605469 33.609375 142.8125 C 33.609375 142.042969 33.445312 141.398438 33.125 140.875 C 32.8125 140.355469 32.421875 140.09375 31.953125 140.09375 C 31.484375 140.09375 31.085938 140.355469 30.765625 140.875 C 30.453125 141.398438 30.296875 142.042969 30.296875 142.8125 C 30.296875 143.59375 30.453125 144.246094 30.765625 144.765625 C 31.078125 145.277344 31.46875 145.53125 31.9375 145.53125 Z M 38.03125 145.796875 L 36.140625 141.328125 C 35.941406 140.859375 35.796875 140.5625 35.703125 140.4375 C 35.617188 140.3125 35.503906 140.246094 35.359375 140.234375 L 35.265625 140.234375 L 35.265625 139.90625 L 37.796875 139.90625 L 37.796875 140.234375 L 37.40625 140.234375 C 37.125 140.234375 36.984375 140.3125 36.984375 140.46875 C 36.984375 140.542969 37.09375 140.835938 37.3125 141.34375 L 38.625 144.453125 L 39.984375 141.34375 C 40.191406 140.855469 40.296875 140.5625 40.296875 140.46875 C 40.296875 140.3125 40.171875 140.234375 39.921875 140.234375 L 39.53125 140.234375 L 39.53125 139.90625 L 41.265625 139.90625 L 41.265625 140.234375 L 41.15625 140.234375 C 41.03125 140.246094 40.929688 140.289062 40.859375 140.359375 C 40.785156 140.433594 40.707031 140.5625 40.625 140.75 L 40.375 141.34375 L 38.359375 145.796875 Z M 45.40625 144.9375 C 45.050781 145.28125 44.734375 145.527344 44.453125 145.671875 C 44.179688 145.804688 43.875 145.875 43.53125 145.875 C 43.039062 145.875 42.628906 145.71875 42.296875 145.40625 C 41.960938 145.085938 41.796875 144.6875 41.796875 144.21875 C 41.796875 143.667969 42.015625 143.21875 42.453125 142.875 C 42.722656 142.65625 43.039062 142.507812 43.40625 142.421875 C 43.78125 142.328125 44.289062 142.28125 44.9375 142.28125 L 45.15625 142.28125 L 45.15625 141.5625 C 45.15625 140.648438 44.804688 140.1875 44.109375 140.1875 C 43.785156 140.1875 43.5 140.289062 43.25 140.484375 C 43.101562 140.601562 43.007812 140.851562 42.96875 141.234375 L 42.96875 141.328125 L 42.25 141.328125 L 42.25 140.265625 C 42.988281 139.933594 43.675781 139.765625 44.3125 139.765625 C 44.863281 139.765625 45.3125 139.898438 45.65625 140.15625 C 45.875 140.324219 46.019531 140.507812 46.09375 140.703125 C 46.175781 140.890625 46.21875 141.164062 46.21875 141.515625 L 46.21875 144.125 C 46.21875 144.585938 46.253906 144.914062 46.328125 145.109375 C 46.410156 145.296875 46.554688 145.390625 46.765625 145.390625 C 46.828125 145.390625 46.921875 145.375 47.046875 145.34375 L 47.078125 145.734375 C 46.828125 145.828125 46.597656 145.875 46.390625 145.875 C 45.867188 145.875 45.539062 145.5625 45.40625 144.9375 Z M 45.15625 144.8125 L 45.15625 142.625 L 44.90625 142.625 C 44.289062 142.625 43.804688 142.757812 43.453125 143.015625 C 43.097656 143.265625 42.921875 143.617188 42.921875 144.0625 C 42.921875 144.40625 43.03125 144.6875 43.25 144.90625 C 43.46875 145.125 43.738281 145.234375 44.0625 145.234375 C 44.375 145.234375 44.738281 145.09375 45.15625 144.8125 Z M 51.21875 145.578125 L 51.21875 144.046875 L 51.78125 144.046875 L 51.78125 144.140625 C 51.789062 144.320312 51.796875 144.453125 51.796875 144.546875 C 51.796875 144.726562 51.816406 144.855469 51.859375 144.9375 C 51.910156 145.011719 52.007812 145.09375 52.15625 145.1875 C 52.53125 145.417969 52.953125 145.53125 53.421875 145.53125 C 53.890625 145.53125 54.253906 145.398438 54.515625 145.125 C 54.785156 144.855469 54.921875 144.480469 54.921875 144 C 54.921875 143.605469 54.832031 143.292969 54.65625 143.0625 C 54.488281 142.824219 54.160156 142.5625 53.671875 142.28125 L 53.109375 141.953125 C 52.441406 141.589844 51.96875 141.234375 51.6875 140.890625 C 51.414062 140.546875 51.28125 140.152344 51.28125 139.703125 C 51.28125 139.101562 51.5 138.601562 51.9375 138.203125 C 52.375 137.796875 52.925781 137.59375 53.59375 137.59375 C 54.15625 137.59375 54.820312 137.703125 55.59375 137.921875 L 55.59375 139.34375 L 55 139.34375 L 55 139.25 C 54.976562 139.054688 54.96875 138.914062 54.96875 138.828125 C 54.96875 138.507812 54.875 138.292969 54.6875 138.1875 C 54.414062 138.03125 54.066406 137.953125 53.640625 137.953125 C 53.253906 137.953125 52.941406 138.078125 52.703125 138.328125 C 52.472656 138.578125 52.359375 138.914062 52.359375 139.328125 C 52.359375 139.671875 52.4375 139.960938 52.59375 140.1875 C 52.757812 140.417969 53.054688 140.65625 53.484375 140.90625 L 54.046875 141.21875 C 54.828125 141.667969 55.351562 142.058594 55.625 142.390625 C 55.90625 142.714844 56.046875 143.125 56.046875 143.625 C 56.046875 144.28125 55.796875 144.835938 55.296875 145.28125 C 54.804688 145.71875 54.195312 145.9375 53.46875 145.9375 C 53.101562 145.9375 52.703125 145.898438 52.265625 145.828125 C 51.828125 145.753906 51.476562 145.671875 51.21875 145.578125 Z M 61.578125 145.53125 C 61.023438 145.757812 60.484375 145.875 59.953125 145.875 C 59.097656 145.875 58.40625 145.589844 57.875 145.015625 C 57.34375 144.445312 57.078125 143.703125 57.078125 142.796875 C 57.078125 141.882812 57.332031 141.148438 57.84375 140.59375 C 58.351562 140.042969 59.023438 139.765625 59.859375 139.765625 C 60.304688 139.765625 60.878906 139.855469 61.578125 140.03125 L 61.578125 141.421875 L 60.921875 141.421875 L 60.921875 141.328125 C 60.921875 140.902344 60.851562 140.617188 60.71875 140.46875 C 60.519531 140.242188 60.238281 140.125 59.875 140.125 C 59.351562 140.125 58.941406 140.359375 58.640625 140.828125 C 58.335938 141.289062 58.1875 141.917969 58.1875 142.71875 C 58.1875 143.53125 58.363281 144.171875 58.71875 144.640625 C 59.082031 145.109375 59.570312 145.34375 60.1875 145.34375 C 60.71875 145.34375 61.179688 145.257812 61.578125 145.078125 Z M 65.421875 145.875 C 64.578125 145.875 63.90625 145.601562 63.40625 145.046875 C 62.914062 144.496094 62.671875 143.75 62.671875 142.8125 C 62.671875 141.875 62.921875 141.136719 63.421875 140.59375 C 63.921875 140.042969 64.597656 139.765625 65.453125 139.765625 C 66.316406 139.765625 66.992188 140.042969 67.484375 140.59375 C 67.984375 141.136719 68.234375 141.875 68.234375 142.8125 C 68.234375 143.761719 67.984375 144.511719 67.484375 145.0625 C 66.984375 145.605469 66.296875 145.875 65.421875 145.875 Z M 65.4375 145.53125 C 65.925781 145.53125 66.328125 145.277344 66.640625 144.765625 C 66.953125 144.257812 67.109375 143.605469 67.109375 142.8125 C 67.109375 142.042969 66.945312 141.398438 66.625 140.875 C 66.3125 140.355469 65.921875 140.09375 65.453125 140.09375 C 64.984375 140.09375 64.585938 140.355469 64.265625 140.875 C 63.953125 141.398438 63.796875 142.042969 63.796875 142.8125 C 63.796875 143.59375 63.953125 144.246094 64.265625 144.765625 C 64.578125 145.277344 64.96875 145.53125 65.4375 145.53125 Z M 72.640625 145.703125 C 72.367188 145.816406 72.113281 145.875 71.875 145.875 C 71.320312 145.875 70.890625 145.730469 70.578125 145.4375 C 70.390625 145.273438 70.257812 145.085938 70.1875 144.875 C 70.125 144.65625 70.09375 144.335938 70.09375 143.90625 L 70.09375 140.34375 L 69.234375 140.34375 L 69.234375 139.90625 L 70.09375 139.90625 L 70.09375 138.84375 L 71.15625 138.578125 L 71.15625 139.90625 L 72.765625 139.90625 L 72.765625 140.34375 L 71.15625 140.34375 L 71.15625 144.046875 C 71.15625 144.558594 71.203125 144.898438 71.296875 145.0625 C 71.441406 145.3125 71.6875 145.4375 72.03125 145.4375 C 72.195312 145.4375 72.398438 145.382812 72.640625 145.265625 Z M 75.328125 139.90625 L 75.328125 144.34375 C 75.328125 144.636719 75.351562 144.890625 75.40625 145.109375 C 75.425781 145.203125 75.460938 145.273438 75.515625 145.3125 C 75.578125 145.34375 75.691406 145.367188 75.859375 145.375 L 76.21875 145.390625 L 76.328125 145.40625 L 76.328125 145.734375 L 73.28125 145.734375 L 73.28125 145.40625 L 73.375 145.390625 L 73.734375 145.375 C 73.941406 145.355469 74.070312 145.320312 74.125 145.265625 C 74.1875 145.214844 74.222656 145.085938 74.234375 144.875 L 74.265625 144.34375 L 74.265625 141.296875 L 74.234375 140.765625 C 74.222656 140.558594 74.1875 140.429688 74.125 140.375 C 74.070312 140.3125 73.941406 140.277344 73.734375 140.265625 L 73.375 140.234375 L 73.28125 140.234375 L 73.28125 139.90625 Z M 74.265625 138.84375 L 74.265625 137.78125 L 75.328125 137.78125 L 75.328125 138.84375 Z M 80.59375 144.9375 C 80.238281 145.28125 79.921875 145.527344 79.640625 145.671875 C 79.367188 145.804688 79.0625 145.875 78.71875 145.875 C 78.226562 145.875 77.816406 145.71875 77.484375 145.40625 C 77.148438 145.085938 76.984375 144.6875 76.984375 144.21875 C 76.984375 143.667969 77.203125 143.21875 77.640625 142.875 C 77.910156 142.65625 78.226562 142.507812 78.59375 142.421875 C 78.96875 142.328125 79.476562 142.28125 80.125 142.28125 L 80.34375 142.28125 L 80.34375 141.5625 C 80.34375 140.648438 79.992188 140.1875 79.296875 140.1875 C 78.972656 140.1875 78.6875 140.289062 78.4375 140.484375 C 78.289062 140.601562 78.195312 140.851562 78.15625 141.234375 L 78.15625 141.328125 L 77.4375 141.328125 L 77.4375 140.265625 C 78.175781 139.933594 78.863281 139.765625 79.5 139.765625 C 80.050781 139.765625 80.5 139.898438 80.84375 140.15625 C 81.0625 140.324219 81.207031 140.507812 81.28125 140.703125 C 81.363281 140.890625 81.40625 141.164062 81.40625 141.515625 L 81.40625 144.125 C 81.40625 144.585938 81.441406 144.914062 81.515625 145.109375 C 81.597656 145.296875 81.742188 145.390625 81.953125 145.390625 C 82.015625 145.390625 82.109375 145.375 82.234375 145.34375 L 82.265625 145.734375 C 82.015625 145.828125 81.785156 145.875 81.578125 145.875 C 81.054688 145.875 80.726562 145.5625 80.59375 144.9375 Z M 80.34375 144.8125 L 80.34375 142.625 L 80.09375 142.625 C 79.476562 142.625 78.992188 142.757812 78.640625 143.015625 C 78.285156 143.265625 78.109375 143.617188 78.109375 144.0625 C 78.109375 144.40625 78.21875 144.6875 78.4375 144.90625 C 78.65625 145.125 78.925781 145.234375 79.25 145.234375 C 79.5625 145.234375 79.925781 145.09375 80.34375 144.8125 Z M 80.34375 144.8125 "/>
<path style=" stroke:none;fill-rule:nonzero;fill:rgb(0%,0%,0%);fill-opacity:1;" d="M 40.492188 127.636719 L 51.507812 132.089844 L 51.273438 132.683594 L 40.257812 128.230469 Z M 40.492188 127.636719 "/>
<path style=" stroke:none;fill-rule:nonzero;fill:rgb(0%,0%,0%);fill-opacity:1;" d="M 35.117188 132.507812 C 35.386719 132.132812 35.667969 131.867188 35.960938 131.710938 C 36.261719 131.546875 36.621094 131.460938 37.039062 131.460938 C 37.734375 131.460938 38.304688 131.695312 38.742188 132.164062 C 39.179688 132.625 39.398438 133.222656 39.398438 133.960938 C 39.398438 134.753906 39.148438 135.421875 38.648438 135.960938 C 38.148438 136.503906 37.53125 136.773438 36.804688 136.773438 C 35.90625 136.773438 35.214844 136.425781 34.726562 135.726562 C 34.234375 135.019531 33.992188 134.019531 33.992188 132.726562 C 33.992188 131.351562 34.273438 130.289062 34.835938 129.539062 C 35.398438 128.789062 36.1875 128.414062 37.210938 128.414062 C 37.867188 128.414062 38.445312 128.535156 38.945312 128.773438 L 38.945312 130.039062 L 38.429688 130.039062 L 38.414062 129.929688 L 38.382812 129.554688 C 38.371094 129.398438 38.34375 129.296875 38.304688 129.242188 C 38.273438 129.179688 38.183594 129.109375 38.039062 129.023438 C 37.734375 128.835938 37.421875 128.742188 37.101562 128.742188 C 36.476562 128.742188 35.984375 129.070312 35.632812 129.726562 C 35.289062 130.382812 35.117188 131.3125 35.117188 132.507812 Z M 35.164062 133.632812 C 35.164062 134.457031 35.324219 135.128906 35.648438 135.648438 C 35.980469 136.171875 36.40625 136.429688 36.929688 136.429688 C 37.375 136.429688 37.71875 136.226562 37.960938 135.820312 C 38.210938 135.40625 38.335938 134.832031 38.335938 134.101562 C 38.335938 133.375 38.210938 132.816406 37.960938 132.429688 C 37.710938 132.035156 37.351562 131.835938 36.882812 131.835938 C 36.414062 131.835938 36.007812 131.988281 35.664062 132.289062 C 35.328125 132.59375 35.164062 133.039062 35.164062 133.632812 Z M 43.320312 136.773438 C 42.507812 136.773438 41.84375 136.394531 41.335938 135.632812 C 40.835938 134.875 40.585938 133.867188 40.585938 132.617188 C 40.585938 131.335938 40.835938 130.320312 41.335938 129.570312 C 41.84375 128.8125 42.523438 128.429688 43.367188 128.429688 C 44.210938 128.429688 44.882812 128.8125 45.382812 129.570312 C 45.890625 130.320312 46.148438 131.332031 46.148438 132.601562 C 46.148438 133.882812 45.890625 134.898438 45.382812 135.648438 C 44.882812 136.398438 44.195312 136.773438 43.320312 136.773438 Z M 43.335938 136.429688 C 43.867188 136.460938 44.292969 136.148438 44.617188 135.492188 C 44.773438 135.171875 44.875 134.796875 44.929688 134.367188 C 44.992188 133.929688 45.023438 133.320312 45.023438 132.539062 C 45.023438 131.21875 44.886719 130.273438 44.617188 129.710938 C 44.304688 129.066406 43.886719 128.742188 43.367188 128.742188 C 42.84375 128.742188 42.429688 129.066406 42.117188 129.710938 C 41.96875 130.023438 41.867188 130.394531 41.804688 130.820312 C 41.742188 131.25 41.710938 131.835938 41.710938 132.585938 C 41.710938 133.347656 41.742188 133.945312 41.804688 134.382812 C 41.867188 134.8125 41.96875 135.175781 42.117188 135.476562 C 42.417969 136.09375 42.824219 136.410156 43.335938 136.429688 Z M 50.585938 128.554688 L 50.585938 135.179688 L 50.617188 135.710938 C 50.625 135.878906 50.648438 135.992188 50.679688 136.054688 C 50.710938 136.109375 50.773438 136.144531 50.867188 136.164062 C 51.074219 136.207031 51.28125 136.226562 51.492188 136.226562 L 52.117188 136.242188 L 52.117188 136.570312 L 48.007812 136.570312 L 48.007812 136.242188 L 48.632812 136.226562 C 48.828125 136.226562 49.03125 136.207031 49.242188 136.164062 C 49.335938 136.144531 49.398438 136.109375 49.429688 136.054688 C 49.460938 135.992188 49.480469 135.878906 49.492188 135.710938 L 49.523438 135.179688 L 49.523438 130.242188 L 49.492188 129.710938 C 49.492188 129.554688 49.476562 129.453125 49.445312 129.398438 C 49.421875 129.347656 49.367188 129.320312 49.273438 129.320312 C 49.167969 129.320312 48.921875 129.359375 48.539062 129.429688 L 48.007812 129.523438 L 48.007812 129.195312 Z M 50.585938 128.554688 "/>
</g>
</svg>
