<?xml version="1.0" encoding="UTF-8"?>
<svg xmlns="http://www.w3.org/2000/svg" xmlns:xlink="http://www.w3.org/1999/xlink" width="150pt" height="150pt" viewBox="0 0 150 150" version="1.1">
<g id="surface2">
<rect x="0" y="0" width="150" height="150" style="fill:rgb(100%,100%,100%);fill-opacity:1;stroke:none;"/>
<path style=" stroke:none;fill-rule:nonzero;fill:rgb(100%,0%,0%);fill-opacity:1;" d="M 91.503906 8.484375 C 91.503906 12.484375 85.503906 12.484375 85.503906 8.484375 C 85.503906 4.484375 91.503906 4.484375 91.503906 8.484375 "/>
<path style=" stroke:none;fill-rule:nonzero;fill:rgb(0%,0%,0%);fill-opacity:1;" d="M 73.375 22 C 73.769531 22.226562 74.300781 22.421875 74.96875 22.578125 C 75.632812 22.734375 76.382812 22.84375 77.21875 22.90625 L 75.921875 23.546875 C 75.359375 23.378906 74.90625 23.21875 74.5625 23.0625 C 74.226562 22.90625 73.742188 22.632812 73.109375 22.25 L 72.90625 22.125 C 72.644531 22.164062 72.390625 22.1875 72.140625 22.1875 C 71.023438 22.1875 70.144531 21.828125 69.5 21.109375 C 68.863281 20.382812 68.546875 19.390625 68.546875 18.140625 C 68.546875 16.890625 68.863281 15.90625 69.5 15.1875 C 70.144531 14.460938 71.03125 14.09375 72.15625 14.09375 C 73.269531 14.09375 74.148438 14.453125 74.796875 15.171875 C 75.441406 15.890625 75.765625 16.871094 75.765625 18.109375 C 75.765625 20.164062 74.96875 21.460938 73.375 22 Z M 74.59375 18.203125 C 74.59375 17.007812 74.378906 16.078125 73.953125 15.421875 C 73.523438 14.765625 72.921875 14.4375 72.140625 14.4375 C 71.378906 14.4375 70.78125 14.765625 70.34375 15.421875 C 69.914062 16.070312 69.703125 16.976562 69.703125 18.140625 C 69.703125 19.308594 69.914062 20.21875 70.34375 20.875 C 70.78125 21.523438 71.382812 21.84375 72.15625 21.84375 C 72.914062 21.84375 73.507812 21.523438 73.9375 20.875 C 74.375 20.21875 74.59375 19.328125 74.59375 18.203125 Z M 80.863281 22 L 80.863281 20.9375 C 80.621094 21.3125 80.320312 21.605469 79.957031 21.8125 C 79.589844 22.019531 79.214844 22.125 78.832031 22.125 C 78.339844 22.125 77.957031 21.96875 77.675781 21.65625 C 77.402344 21.335938 77.269531 20.890625 77.269531 20.328125 L 77.269531 17.6875 L 77.238281 17.1875 C 77.214844 16.992188 77.179688 16.867188 77.128906 16.8125 C 77.074219 16.75 76.949219 16.714844 76.753906 16.703125 L 76.394531 16.671875 L 76.300781 16.65625 L 76.300781 16.34375 L 78.285156 16.34375 L 78.285156 20.171875 C 78.285156 20.640625 78.351562 20.976562 78.488281 21.171875 C 78.632812 21.371094 78.878906 21.46875 79.222656 21.46875 C 79.460938 21.46875 79.738281 21.386719 80.050781 21.21875 C 80.363281 21.054688 80.632812 20.84375 80.863281 20.59375 L 80.863281 17.6875 L 80.832031 17.1875 C 80.820312 16.980469 80.785156 16.851562 80.722656 16.796875 C 80.667969 16.746094 80.542969 16.714844 80.347656 16.703125 L 79.988281 16.671875 L 79.894531 16.65625 L 79.894531 16.34375 L 81.894531 16.34375 L 81.894531 20.65625 L 81.925781 21.171875 C 81.933594 21.371094 81.964844 21.496094 82.019531 21.546875 C 82.082031 21.601562 82.210938 21.632812 82.410156 21.640625 L 82.769531 21.671875 L 82.863281 21.671875 L 82.863281 22 Z M 88.160156 21.75 C 87.503906 22 86.902344 22.125 86.363281 22.125 C 85.539062 22.125 84.867188 21.851562 84.347656 21.296875 C 83.824219 20.734375 83.566406 20.007812 83.566406 19.109375 C 83.566406 18.265625 83.792969 17.574219 84.253906 17.03125 C 84.722656 16.492188 85.320312 16.21875 86.050781 16.21875 C 86.726562 16.21875 87.246094 16.449219 87.613281 16.90625 C 87.976562 17.355469 88.160156 18 88.160156 18.84375 L 88.160156 18.953125 L 84.707031 18.953125 C 84.707031 19.726562 84.808594 20.308594 85.019531 20.703125 C 85.351562 21.308594 85.855469 21.609375 86.535156 21.609375 C 87.167969 21.609375 87.710938 21.480469 88.160156 21.21875 Z M 84.722656 18.625 L 87.066406 18.625 L 87.066406 18.390625 C 87.066406 17.984375 87.042969 17.6875 87.003906 17.5 C 86.972656 17.304688 86.902344 17.125 86.800781 16.96875 C 86.601562 16.679688 86.332031 16.53125 85.988281 16.53125 C 85.601562 16.53125 85.292969 16.726562 85.066406 17.109375 C 84.835938 17.484375 84.722656 17.992188 84.722656 18.625 Z M 89.53125 22.0625 L 89.53125 15.125 L 89.5 14.609375 C 89.488281 14.414062 89.457031 14.289062 89.40625 14.234375 C 89.351562 14.171875 89.222656 14.136719 89.015625 14.125 L 88.671875 14.09375 L 88.578125 14.09375 L 88.578125 13.765625 L 90.5625 13.765625 L 90.5625 17.40625 C 91.070312 16.617188 91.734375 16.21875 92.546875 16.21875 C 93.191406 16.21875 93.703125 16.476562 94.078125 16.984375 C 94.460938 17.484375 94.65625 18.15625 94.65625 19 C 94.65625 19.949219 94.4375 20.710938 94 21.28125 C 93.5625 21.84375 92.984375 22.125 92.265625 22.125 C 91.597656 22.125 91.03125 21.871094 90.5625 21.359375 L 90.5 21.359375 L 90.375 22.0625 Z M 90.5625 20.953125 C 91.101562 21.359375 91.625 21.5625 92.125 21.5625 C 92.59375 21.5625 92.945312 21.371094 93.1875 20.984375 C 93.425781 20.589844 93.546875 20.023438 93.546875 19.28125 C 93.546875 18.480469 93.429688 17.882812 93.203125 17.484375 C 92.972656 17.078125 92.628906 16.875 92.171875 16.875 C 91.890625 16.875 91.601562 16.960938 91.3125 17.125 C 91.019531 17.28125 90.769531 17.496094 90.5625 17.765625 Z M 100.335938 21.75 C 99.679688 22 99.078125 22.125 98.539062 22.125 C 97.714844 22.125 97.042969 21.851562 96.523438 21.296875 C 96 20.734375 95.742188 20.007812 95.742188 19.109375 C 95.742188 18.265625 95.96875 17.574219 96.429688 17.03125 C 96.898438 16.492188 97.496094 16.21875 98.226562 16.21875 C 98.902344 16.21875 99.421875 16.449219 99.789062 16.90625 C 100.152344 17.355469 100.335938 18 100.335938 18.84375 L 100.335938 18.953125 L 96.882812 18.953125 C 96.882812 19.726562 96.984375 20.308594 97.195312 20.703125 C 97.527344 21.308594 98.03125 21.609375 98.710938 21.609375 C 99.34375 21.609375 99.886719 21.480469 100.335938 21.21875 Z M 96.898438 18.625 L 99.242188 18.625 L 99.242188 18.390625 C 99.242188 17.984375 99.21875 17.6875 99.179688 17.5 C 99.148438 17.304688 99.078125 17.125 98.976562 16.96875 C 98.777344 16.679688 98.507812 16.53125 98.164062 16.53125 C 97.777344 16.53125 97.46875 16.726562 97.242188 17.109375 C 97.011719 17.484375 96.898438 17.992188 96.898438 18.625 Z M 105.769531 21.8125 C 105.226562 22.019531 104.695312 22.125 104.175781 22.125 C 103.351562 22.125 102.679688 21.851562 102.160156 21.296875 C 101.648438 20.746094 101.394531 20.027344 101.394531 19.140625 C 101.394531 18.265625 101.636719 17.5625 102.128906 17.03125 C 102.628906 16.492188 103.285156 16.21875 104.097656 16.21875 C 104.523438 16.21875 105.082031 16.304688 105.769531 16.46875 L 105.769531 17.828125 L 105.128906 17.828125 L 105.113281 17.734375 C 105.113281 17.320312 105.050781 17.039062 104.925781 16.890625 C 104.738281 16.671875 104.460938 16.5625 104.097656 16.5625 C 103.597656 16.5625 103.199219 16.792969 102.910156 17.25 C 102.617188 17.699219 102.472656 18.308594 102.472656 19.078125 C 102.472656 19.859375 102.644531 20.480469 102.988281 20.9375 C 103.332031 21.398438 103.804688 21.625 104.410156 21.625 C 104.917969 21.625 105.371094 21.539062 105.769531 21.359375 Z M 105.769531 21.8125 "/>
<path style=" stroke:none;fill-rule:nonzero;fill:rgb(0%,0%,0%);fill-opacity:1;" d="M 78.171875 2.140625 L 88.75 8.25 L 88.4375 8.8125 L 77.859375 2.703125 Z M 78.171875 2.140625 "/>
<path style=" stroke:none;fill-rule:nonzero;fill:rgb(0%,0%,0%);fill-opacity:1;" d="M 74.765625 4.21875 L 74.765625 10.65625 L 74.796875 11.171875 C 74.804688 11.328125 74.828125 11.4375 74.859375 11.5 C 74.890625 11.554688 74.945312 11.589844 75.03125 11.609375 C 75.238281 11.652344 75.4375 11.671875 75.625 11.671875 L 76.234375 11.671875 L 76.234375 12 L 72.25 12 L 72.25 11.671875 L 72.859375 11.671875 C 73.054688 11.671875 73.253906 11.652344 73.453125 11.609375 C 73.546875 11.589844 73.609375 11.554688 73.640625 11.5 C 73.671875 11.4375 73.691406 11.328125 73.703125 11.171875 L 73.734375 10.65625 L 73.734375 5.859375 L 73.703125 5.34375 C 73.703125 5.1875 73.6875 5.089844 73.65625 5.046875 C 73.625 4.996094 73.566406 4.96875 73.484375 4.96875 C 73.378906 4.96875 73.140625 5.007812 72.765625 5.078125 L 72.25 5.171875 L 72.25 4.84375 Z M 78.710938 12.015625 L 78.710938 10.71875 L 79.226562 10.71875 L 79.226562 10.84375 L 79.242188 11.234375 C 79.261719 11.664062 79.59375 11.875 80.242188 11.875 C 80.730469 11.875 81.109375 11.6875 81.382812 11.3125 C 81.664062 10.9375 81.804688 10.429688 81.804688 9.78125 C 81.804688 9.054688 81.585938 8.53125 81.148438 8.21875 C 80.71875 7.898438 80.011719 7.734375 79.023438 7.734375 L 78.835938 7.734375 L 78.835938 4.28125 L 82.726562 4.28125 L 82.726562 5.1875 L 79.164062 5.1875 L 79.164062 7.34375 L 79.632812 7.34375 C 80.695312 7.34375 81.5 7.558594 82.054688 7.984375 C 82.617188 8.402344 82.898438 9.011719 82.898438 9.8125 C 82.898438 10.5625 82.640625 11.148438 82.132812 11.5625 C 81.632812 11.980469 80.945312 12.1875 80.070312 12.1875 C 79.632812 12.1875 79.179688 12.128906 78.710938 12.015625 Z M 84.953125 11.953125 L 84.953125 10.59375 L 85.46875 10.59375 L 85.46875 10.703125 L 85.484375 11.0625 C 85.484375 11.273438 85.5625 11.429688 85.71875 11.53125 C 86.050781 11.761719 86.425781 11.875 86.84375 11.875 C 87.289062 11.875 87.65625 11.699219 87.9375 11.34375 C 88.21875 10.980469 88.359375 10.507812 88.359375 9.921875 C 88.359375 9.328125 88.175781 8.871094 87.8125 8.546875 C 87.445312 8.214844 86.941406 8.046875 86.296875 8.046875 L 85.65625 8.046875 L 85.65625 7.734375 L 86 7.734375 C 86.769531 7.734375 87.328125 7.601562 87.671875 7.328125 C 88.015625 7.046875 88.1875 6.59375 88.1875 5.96875 C 88.1875 5.480469 88.0625 5.101562 87.8125 4.828125 C 87.570312 4.546875 87.234375 4.40625 86.796875 4.40625 C 86.398438 4.40625 86.050781 4.496094 85.75 4.671875 C 85.664062 4.714844 85.613281 4.765625 85.59375 4.828125 C 85.582031 4.890625 85.5625 5.109375 85.53125 5.484375 L 85.515625 5.5625 L 85 5.5625 L 85 4.390625 C 85.5625 4.195312 86.191406 4.09375 86.890625 4.09375 C 87.609375 4.09375 88.171875 4.257812 88.578125 4.578125 C 88.992188 4.890625 89.203125 5.320312 89.203125 5.859375 C 89.203125 6.789062 88.660156 7.445312 87.578125 7.828125 C 88.242188 8.007812 88.71875 8.25 89 8.5625 C 89.289062 8.875 89.4375 9.3125 89.4375 9.875 C 89.4375 10.59375 89.203125 11.164062 88.734375 11.578125 C 88.273438 11.984375 87.648438 12.1875 86.859375 12.1875 C 86.128906 12.1875 85.492188 12.109375 84.953125 11.953125 Z M 84.953125 11.953125 "/>
<path style=" stroke:none;fill-rule:nonzero;fill:rgb(100%,0%,0%);fill-opacity:1;" d="M 30.035156 76.09375 C 30.035156 80.09375 24.035156 80.09375 24.035156 76.09375 C 24.035156 72.09375 30.035156 72.09375 30.035156 76.09375 "/>
<path style=" stroke:none;fill-rule:nonzero;fill:rgb(0%,0%,0%);fill-opacity:1;" d="M -6.53125 90.109375 L -11.328125 83.640625 L -11.328125 88.65625 C -11.328125 88.9375 -11.304688 89.1875 -11.25 89.40625 C -11.230469 89.492188 -11.195312 89.546875 -11.140625 89.578125 C -11.089844 89.609375 -10.980469 89.632812 -10.8125 89.640625 L -10.453125 89.671875 L -10.359375 89.671875 L -10.359375 90 L -12.765625 90 L -12.765625 89.671875 L -12.671875 89.671875 L -12.328125 89.640625 C -12.164062 89.632812 -12.054688 89.609375 -12 89.578125 C -11.9375 89.546875 -11.898438 89.492188 -11.875 89.40625 C -11.835938 89.1875 -11.8125 88.9375 -11.8125 88.65625 L -11.8125 83.640625 C -11.8125 83.351562 -11.835938 83.09375 -11.875 82.875 C -11.898438 82.792969 -11.9375 82.734375 -12 82.703125 C -12.054688 82.671875 -12.164062 82.652344 -12.328125 82.640625 L -12.671875 82.609375 L -12.78125 82.609375 L -12.78125 82.28125 L -11.046875 82.28125 L -6.640625 88.28125 L -6.640625 83.640625 L -6.671875 83.125 C -6.683594 82.929688 -6.71875 82.804688 -6.78125 82.75 C -6.835938 82.6875 -6.960938 82.652344 -7.15625 82.640625 L -7.515625 82.609375 L -7.609375 82.609375 L -7.609375 82.28125 L -5.203125 82.28125 L -5.203125 82.609375 L -5.296875 82.609375 L -5.65625 82.640625 C -5.855469 82.652344 -5.984375 82.6875 -6.046875 82.75 C -6.101562 82.804688 -6.132812 82.929688 -6.140625 83.125 L -6.171875 83.640625 L -6.171875 90.109375 Z M 0.128906 89.75 C -0.527344 90 -1.128906 90.125 -1.667969 90.125 C -2.492188 90.125 -3.164062 89.851562 -3.683594 89.296875 C -4.207031 88.734375 -4.464844 88.007812 -4.464844 87.109375 C -4.464844 86.265625 -4.238281 85.574219 -3.777344 85.03125 C -3.308594 84.492188 -2.710938 84.21875 -1.980469 84.21875 C -1.304688 84.21875 -0.785156 84.449219 -0.417969 84.90625 C -0.0546875 85.355469 0.128906 86 0.128906 86.84375 L 0.128906 86.953125 L -3.324219 86.953125 C -3.324219 87.726562 -3.222656 88.308594 -3.011719 88.703125 C -2.679688 89.308594 -2.175781 89.609375 -1.496094 89.609375 C -0.863281 89.609375 -0.320312 89.480469 0.128906 89.21875 Z M -3.308594 86.625 L -0.964844 86.625 L -0.964844 86.390625 C -0.964844 85.984375 -0.988281 85.6875 -1.027344 85.5 C -1.058594 85.304688 -1.128906 85.125 -1.230469 84.96875 C -1.429688 84.679688 -1.699219 84.53125 -2.042969 84.53125 C -2.429688 84.53125 -2.738281 84.726562 -2.964844 85.109375 C -3.195312 85.484375 -3.308594 85.992188 -3.308594 86.625 Z M 2.859375 90.0625 L 1.46875 85.6875 C 1.320312 85.25 1.207031 84.976562 1.125 84.859375 C 1.050781 84.746094 0.9375 84.683594 0.78125 84.671875 L 0.671875 84.65625 L 0.671875 84.34375 L 3.21875 84.34375 L 3.21875 84.65625 L 3.109375 84.65625 L 2.734375 84.671875 C 2.453125 84.671875 2.3125 84.75 2.3125 84.90625 C 2.3125 85.0625 2.367188 85.324219 2.484375 85.6875 L 3.359375 88.515625 L 5 84.375 L 5.3125 84.375 L 7 88.625 L 8.015625 85.6875 C 8.054688 85.5625 8.085938 85.464844 8.109375 85.390625 L 8.203125 85.03125 C 8.222656 84.980469 8.234375 84.9375 8.234375 84.90625 C 8.234375 84.75 8.054688 84.671875 7.703125 84.671875 L 7.421875 84.65625 L 7.3125 84.65625 L 7.3125 84.34375 L 9.15625 84.34375 L 9.15625 84.65625 L 9.046875 84.671875 C 8.910156 84.683594 8.800781 84.730469 8.71875 84.8125 C 8.644531 84.886719 8.578125 85.023438 8.515625 85.21875 C 8.484375 85.324219 8.429688 85.480469 8.359375 85.6875 L 6.828125 90.0625 L 6.546875 90.0625 L 4.828125 85.765625 L 3.171875 90.0625 Z M 16.238281 86 C 16.882812 86.105469 17.386719 86.339844 17.753906 86.703125 C 18.117188 87.070312 18.300781 87.523438 18.300781 88.0625 C 18.300781 88.625 18.097656 89.09375 17.691406 89.46875 C 17.460938 89.679688 17.207031 89.820312 16.925781 89.890625 C 16.644531 89.964844 16.222656 90 15.660156 90 L 12.628906 90 L 12.628906 89.671875 L 12.738281 89.671875 L 13.082031 89.640625 C 13.277344 89.632812 13.402344 89.601562 13.457031 89.546875 C 13.519531 89.496094 13.554688 89.371094 13.566406 89.171875 L 13.597656 88.65625 L 13.597656 83.640625 L 13.566406 83.125 C 13.554688 82.929688 13.519531 82.804688 13.457031 82.75 C 13.402344 82.6875 13.277344 82.652344 13.082031 82.640625 L 12.738281 82.609375 L 12.628906 82.609375 L 12.628906 82.28125 L 15.800781 82.28125 C 16.558594 82.28125 17.105469 82.433594 17.441406 82.734375 C 17.804688 83.070312 17.988281 83.492188 17.988281 84 C 17.988281 84.480469 17.816406 84.90625 17.472656 85.28125 C 17.222656 85.554688 16.808594 85.792969 16.238281 86 Z M 14.675781 86.171875 L 14.675781 88.65625 L 14.691406 89.109375 C 14.691406 89.359375 14.753906 89.507812 14.878906 89.546875 C 15.074219 89.621094 15.304688 89.65625 15.566406 89.65625 C 16.042969 89.65625 16.429688 89.515625 16.722656 89.234375 C 17.011719 88.945312 17.160156 88.570312 17.160156 88.109375 C 17.160156 87.484375 16.945312 87.007812 16.519531 86.671875 C 16.089844 86.339844 15.476562 86.171875 14.675781 86.171875 Z M 14.675781 85.828125 L 14.988281 85.828125 C 16.238281 85.828125 16.863281 85.257812 16.863281 84.109375 C 16.863281 83.652344 16.746094 83.304688 16.519531 83.0625 C 16.371094 82.90625 16.179688 82.796875 15.941406 82.734375 C 15.710938 82.671875 15.378906 82.640625 14.941406 82.640625 L 14.675781 82.640625 Z M 21.097656 85.890625 L 21.097656 88.65625 C 21.097656 88.9375 21.117188 89.1875 21.160156 89.40625 C 21.179688 89.492188 21.214844 89.546875 21.269531 89.578125 C 21.332031 89.609375 21.445312 89.632812 21.613281 89.640625 L 21.957031 89.671875 L 22.191406 89.671875 L 22.191406 90 L 19.097656 90 L 19.097656 89.671875 L 19.207031 89.671875 L 19.550781 89.640625 C 19.746094 89.632812 19.871094 89.601562 19.925781 89.546875 C 19.988281 89.496094 20.023438 89.371094 20.035156 89.171875 L 20.066406 88.65625 L 20.066406 85.6875 L 20.035156 85.1875 C 20.023438 84.992188 19.988281 84.867188 19.925781 84.8125 C 19.871094 84.75 19.746094 84.714844 19.550781 84.703125 L 19.207031 84.671875 L 19.097656 84.65625 L 19.097656 84.34375 L 21.097656 84.34375 L 21.097656 85.40625 C 21.566406 84.617188 22.175781 84.21875 22.925781 84.21875 C 23.027344 84.21875 23.148438 84.234375 23.285156 84.265625 L 23.285156 85.828125 L 22.707031 85.828125 L 22.691406 85.734375 L 22.644531 85.34375 C 22.632812 85.230469 22.605469 85.15625 22.566406 85.125 C 22.535156 85.085938 22.464844 85.0625 22.363281 85.0625 C 22.113281 85.0625 21.878906 85.136719 21.660156 85.28125 C 21.441406 85.417969 21.253906 85.621094 21.097656 85.890625 Z M 28.167969 90 L 28.167969 88.9375 C 27.925781 89.3125 27.625 89.605469 27.261719 89.8125 C 26.894531 90.019531 26.519531 90.125 26.136719 90.125 C 25.644531 90.125 25.261719 89.96875 24.980469 89.65625 C 24.707031 89.335938 24.574219 88.890625 24.574219 88.328125 L 24.574219 85.6875 L 24.542969 85.1875 C 24.519531 84.992188 24.484375 84.867188 24.433594 84.8125 C 24.378906 84.75 24.253906 84.714844 24.058594 84.703125 L 23.699219 84.671875 L 23.605469 84.65625 L 23.605469 84.34375 L 25.589844 84.34375 L 25.589844 88.171875 C 25.589844 88.640625 25.65625 88.976562 25.792969 89.171875 C 25.9375 89.371094 26.183594 89.46875 26.527344 89.46875 C 26.765625 89.46875 27.042969 89.386719 27.355469 89.21875 C 27.667969 89.054688 27.9375 88.84375 28.167969 88.59375 L 28.167969 85.6875 L 28.136719 85.1875 C 28.125 84.980469 28.089844 84.851562 28.027344 84.796875 C 27.972656 84.746094 27.847656 84.714844 27.652344 84.703125 L 27.292969 84.671875 L 27.199219 84.65625 L 27.199219 84.34375 L 29.199219 84.34375 L 29.199219 88.65625 L 29.230469 89.171875 C 29.238281 89.371094 29.269531 89.496094 29.324219 89.546875 C 29.386719 89.601562 29.515625 89.632812 29.714844 89.640625 L 30.074219 89.671875 L 30.167969 89.671875 L 30.167969 90 Z M 32.542969 85.40625 C 32.78125 85.03125 33.082031 84.742188 33.449219 84.53125 C 33.8125 84.324219 34.1875 84.21875 34.574219 84.21875 C 35.0625 84.21875 35.441406 84.382812 35.714844 84.703125 C 35.996094 85.015625 36.136719 85.453125 36.136719 86.015625 L 36.136719 88.65625 L 36.183594 89.171875 C 36.191406 89.371094 36.222656 89.496094 36.277344 89.546875 C 36.328125 89.601562 36.453125 89.632812 36.652344 89.640625 L 37.011719 89.671875 L 37.105469 89.671875 L 37.105469 90 L 34.152344 90 L 34.152344 89.671875 L 34.246094 89.671875 L 34.589844 89.640625 C 34.785156 89.632812 34.910156 89.601562 34.964844 89.546875 C 35.027344 89.496094 35.0625 89.371094 35.074219 89.171875 L 35.105469 88.65625 L 35.105469 86.171875 C 35.105469 85.695312 35.042969 85.359375 34.917969 85.171875 C 34.792969 84.976562 34.566406 84.875 34.246094 84.875 C 33.777344 84.875 33.207031 85.167969 32.542969 85.75 L 32.542969 88.65625 C 32.542969 88.9375 32.5625 89.1875 32.605469 89.40625 C 32.625 89.492188 32.660156 89.546875 32.714844 89.578125 C 32.777344 89.609375 32.890625 89.632812 33.058594 89.640625 L 33.402344 89.671875 L 33.511719 89.671875 L 33.511719 90 L 30.542969 90 L 30.542969 89.671875 L 30.652344 89.671875 L 30.996094 89.640625 C 31.191406 89.632812 31.316406 89.601562 31.371094 89.546875 C 31.433594 89.496094 31.46875 89.371094 31.480469 89.171875 L 31.511719 88.65625 L 31.511719 85.6875 L 31.480469 85.1875 C 31.46875 84.992188 31.433594 84.867188 31.371094 84.8125 C 31.316406 84.75 31.191406 84.714844 30.996094 84.703125 L 30.652344 84.671875 L 30.542969 84.65625 L 30.542969 84.34375 L 32.542969 84.34375 Z M 37.820312 89.703125 L 37.820312 88.265625 L 38.398438 88.265625 L 38.414062 88.375 L 38.460938 88.90625 C 38.480469 89.1875 38.605469 89.398438 38.835938 89.53125 C 39.148438 89.71875 39.480469 89.8125 39.835938 89.8125 C 40.148438 89.8125 40.402344 89.71875 40.601562 89.53125 C 40.796875 89.335938 40.898438 89.089844 40.898438 88.796875 C 40.898438 88.539062 40.828125 88.328125 40.695312 88.171875 C 40.558594 88.015625 40.324219 87.871094 39.992188 87.734375 L 39.460938 87.53125 C 38.898438 87.3125 38.484375 87.070312 38.226562 86.796875 C 37.976562 86.527344 37.851562 86.195312 37.851562 85.796875 C 37.851562 85.339844 38.03125 84.964844 38.398438 84.671875 C 38.773438 84.371094 39.242188 84.21875 39.804688 84.21875 C 40.355469 84.21875 40.929688 84.324219 41.523438 84.53125 L 41.523438 85.890625 L 40.945312 85.890625 L 40.945312 85.796875 L 40.898438 85.3125 C 40.875 85.117188 40.839844 84.980469 40.789062 84.90625 C 40.746094 84.835938 40.652344 84.761719 40.507812 84.6875 C 40.296875 84.585938 40.085938 84.53125 39.867188 84.53125 C 39.5625 84.53125 39.3125 84.632812 39.117188 84.828125 C 38.917969 85.015625 38.820312 85.261719 38.820312 85.5625 C 38.820312 85.804688 38.898438 85.996094 39.054688 86.140625 C 39.21875 86.289062 39.546875 86.460938 40.039062 86.65625 L 40.507812 86.859375 C 41.039062 87.078125 41.402344 87.304688 41.601562 87.53125 C 41.808594 87.761719 41.914062 88.058594 41.914062 88.421875 C 41.914062 88.921875 41.714844 89.335938 41.320312 89.65625 C 40.921875 89.96875 40.40625 90.125 39.773438 90.125 C 39.085938 90.125 38.433594 89.984375 37.820312 89.703125 Z M 44.667969 90.0625 L 43.277344 85.6875 C 43.128906 85.25 43.015625 84.976562 42.933594 84.859375 C 42.859375 84.746094 42.746094 84.683594 42.589844 84.671875 L 42.480469 84.65625 L 42.480469 84.34375 L 45.027344 84.34375 L 45.027344 84.65625 L 44.917969 84.65625 L 44.542969 84.671875 C 44.261719 84.671875 44.121094 84.75 44.121094 84.90625 C 44.121094 85.0625 44.175781 85.324219 44.292969 85.6875 L 45.167969 88.515625 L 46.808594 84.375 L 47.121094 84.375 L 48.808594 88.625 L 49.824219 85.6875 C 49.863281 85.5625 49.894531 85.464844 49.917969 85.390625 L 50.011719 85.03125 C 50.03125 84.980469 50.042969 84.9375 50.042969 84.90625 C 50.042969 84.75 49.863281 84.671875 49.511719 84.671875 L 49.230469 84.65625 L 49.121094 84.65625 L 49.121094 84.34375 L 50.964844 84.34375 L 50.964844 84.65625 L 50.855469 84.671875 C 50.71875 84.683594 50.609375 84.730469 50.527344 84.8125 C 50.453125 84.886719 50.386719 85.023438 50.324219 85.21875 C 50.292969 85.324219 50.238281 85.480469 50.167969 85.6875 L 48.636719 90.0625 L 48.355469 90.0625 L 46.636719 85.765625 L 44.980469 90.0625 Z M 53.15625 84.34375 L 53.15625 88.65625 C 53.15625 88.9375 53.175781 89.1875 53.21875 89.40625 C 53.238281 89.492188 53.273438 89.546875 53.328125 89.578125 C 53.390625 89.609375 53.503906 89.632812 53.671875 89.640625 L 54.015625 89.671875 L 54.125 89.671875 L 54.125 90 L 51.15625 90 L 51.15625 89.671875 L 51.265625 89.671875 L 51.609375 89.640625 C 51.804688 89.632812 51.929688 89.601562 51.984375 89.546875 C 52.046875 89.496094 52.082031 89.371094 52.09375 89.171875 L 52.125 88.65625 L 52.125 85.6875 L 52.09375 85.1875 C 52.082031 84.992188 52.046875 84.867188 51.984375 84.8125 C 51.929688 84.75 51.804688 84.714844 51.609375 84.703125 L 51.265625 84.671875 L 51.15625 84.65625 L 51.15625 84.34375 Z M 52.125 83.3125 L 52.125 82.28125 L 53.15625 82.28125 L 53.15625 83.3125 Z M 59.136719 89.8125 C 58.59375 90.019531 58.0625 90.125 57.542969 90.125 C 56.71875 90.125 56.046875 89.851562 55.527344 89.296875 C 55.015625 88.746094 54.761719 88.027344 54.761719 87.140625 C 54.761719 86.265625 55.003906 85.5625 55.496094 85.03125 C 55.996094 84.492188 56.652344 84.21875 57.464844 84.21875 C 57.890625 84.21875 58.449219 84.304688 59.136719 84.46875 L 59.136719 85.828125 L 58.496094 85.828125 L 58.480469 85.734375 C 58.480469 85.320312 58.417969 85.039062 58.292969 84.890625 C 58.105469 84.671875 57.828125 84.5625 57.464844 84.5625 C 56.964844 84.5625 56.566406 84.792969 56.277344 85.25 C 55.984375 85.699219 55.839844 86.308594 55.839844 87.078125 C 55.839844 87.859375 56.011719 88.480469 56.355469 88.9375 C 56.699219 89.398438 57.171875 89.625 57.777344 89.625 C 58.285156 89.625 58.738281 89.539062 59.136719 89.359375 Z M 61.863281 87.21875 L 61.863281 88.65625 L 61.894531 89.171875 C 61.894531 89.382812 61.925781 89.511719 61.988281 89.5625 C 62.058594 89.617188 62.261719 89.652344 62.597656 89.671875 L 62.691406 89.671875 L 62.691406 90 L 59.863281 90 L 59.863281 89.671875 L 59.972656 89.671875 L 60.316406 89.640625 C 60.511719 89.632812 60.636719 89.601562 60.691406 89.546875 C 60.753906 89.496094 60.789062 89.371094 60.800781 89.171875 L 60.832031 88.65625 L 60.832031 83.125 L 60.800781 82.609375 C 60.789062 82.414062 60.753906 82.289062 60.691406 82.234375 C 60.636719 82.171875 60.511719 82.136719 60.316406 82.125 L 59.972656 82.09375 L 59.863281 82.09375 L 59.863281 81.765625 L 61.863281 81.765625 L 61.863281 86.96875 L 62.097656 86.96875 L 63.410156 85.703125 C 63.523438 85.589844 63.691406 85.417969 63.910156 85.1875 C 64.011719 85.074219 64.101562 84.980469 64.175781 84.90625 C 64.226562 84.855469 64.253906 84.8125 64.253906 84.78125 C 64.253906 84.71875 64.191406 84.6875 64.066406 84.6875 C 64.054688 84.6875 63.976562 84.683594 63.832031 84.671875 C 63.738281 84.664062 63.652344 84.65625 63.582031 84.65625 L 63.472656 84.65625 L 63.472656 84.34375 L 65.675781 84.34375 L 65.675781 84.65625 L 65.582031 84.671875 C 65.207031 84.695312 64.964844 84.742188 64.863281 84.8125 C 64.757812 84.875 64.433594 85.179688 63.894531 85.71875 L 62.894531 86.6875 L 64.597656 88.6875 L 65.160156 89.296875 C 65.316406 89.464844 65.429688 89.5625 65.503906 89.59375 C 65.574219 89.625 65.738281 89.652344 65.988281 89.671875 L 66.082031 89.671875 L 66.082031 90 L 64.488281 90 L 62.097656 87.21875 Z M 61.863281 87.21875 "/>
<path style=" stroke:none;fill-rule:nonzero;fill:rgb(0%,0%,0%);fill-opacity:1;" d="M 18.121094 84.261719 L 26.886719 75.792969 L 27.324219 76.246094 L 18.558594 84.714844 Z M 18.121094 84.261719 "/>
<path style=" stroke:none;fill-rule:nonzero;fill:rgb(0%,0%,0%);fill-opacity:1;" d="M 9.828125 80 L 9.828125 79.484375 C 9.992188 78.996094 10.175781 78.59375 10.375 78.28125 C 10.582031 77.96875 10.863281 77.648438 11.21875 77.3125 L 11.78125 76.796875 C 12.414062 76.203125 12.835938 75.730469 13.046875 75.375 C 13.265625 75.023438 13.375 74.617188 13.375 74.15625 C 13.375 73.636719 13.242188 73.21875 12.984375 72.90625 C 12.722656 72.585938 12.378906 72.421875 11.953125 72.421875 C 11.484375 72.421875 11.085938 72.546875 10.765625 72.796875 C 10.671875 72.871094 10.613281 72.953125 10.59375 73.046875 C 10.570312 73.140625 10.550781 73.40625 10.53125 73.84375 L 10.515625 73.96875 L 10 73.96875 L 10 72.5625 C 10.75 72.25 11.441406 72.09375 12.078125 72.09375 C 12.773438 72.09375 13.347656 72.292969 13.796875 72.6875 C 14.242188 73.074219 14.46875 73.570312 14.46875 74.171875 C 14.46875 74.609375 14.347656 75 14.109375 75.34375 C 13.878906 75.6875 13.492188 76.046875 12.953125 76.421875 L 12.328125 76.859375 C 11.753906 77.246094 11.347656 77.605469 11.109375 77.9375 C 10.867188 78.261719 10.722656 78.648438 10.671875 79.09375 L 14.4375 79.09375 L 14.4375 80 Z M 19.257812 72.21875 L 19.257812 78.65625 L 19.289062 79.171875 C 19.296875 79.328125 19.320312 79.4375 19.351562 79.5 C 19.382812 79.554688 19.4375 79.589844 19.523438 79.609375 C 19.730469 79.652344 19.929688 79.671875 20.117188 79.671875 L 20.726562 79.671875 L 20.726562 80 L 16.742188 80 L 16.742188 79.671875 L 17.351562 79.671875 C 17.546875 79.671875 17.746094 79.652344 17.945312 79.609375 C 18.039062 79.589844 18.101562 79.554688 18.132812 79.5 C 18.164062 79.4375 18.183594 79.328125 18.195312 79.171875 L 18.226562 78.65625 L 18.226562 73.859375 L 18.195312 73.34375 C 18.195312 73.1875 18.179688 73.089844 18.148438 73.046875 C 18.117188 72.996094 18.058594 72.96875 17.976562 72.96875 C 17.871094 72.96875 17.632812 73.007812 17.257812 73.078125 L 16.742188 73.171875 L 16.742188 72.84375 Z M 23.453125 80 C 23.546875 79.460938 23.6875 78.964844 23.875 78.515625 C 24.125 77.953125 24.378906 77.464844 24.640625 77.046875 C 24.910156 76.632812 25.570312 75.714844 26.625 74.296875 L 27.40625 73.25 L 23.0625 73.25 L 23.0625 72.28125 L 28.015625 72.28125 L 28.015625 72.953125 C 26.890625 74.464844 26.0625 75.773438 25.53125 76.875 C 25.007812 77.96875 24.722656 79.011719 24.671875 80 Z M 23.453125 80 "/>
<path style=" stroke:none;fill-rule:nonzero;fill:rgb(100%,0%,0%);fill-opacity:1;" d="M 122.523438 32.179688 C 122.523438 36.179688 116.523438 36.179688 116.523438 32.179688 C 116.523438 28.179688 122.523438 28.179688 122.523438 32.179688 "/>
<path style=" stroke:none;fill-rule:nonzero;fill:rgb(0%,0%,0%);fill-opacity:1;" d="M 96.46875 45.109375 L 91.671875 38.640625 L 91.671875 43.65625 C 91.671875 43.9375 91.695312 44.1875 91.75 44.40625 C 91.769531 44.492188 91.804688 44.546875 91.859375 44.578125 C 91.910156 44.609375 92.019531 44.632812 92.1875 44.640625 L 92.546875 44.671875 L 92.640625 44.671875 L 92.640625 45 L 90.234375 45 L 90.234375 44.671875 L 90.328125 44.671875 L 90.671875 44.640625 C 90.835938 44.632812 90.945312 44.609375 91 44.578125 C 91.0625 44.546875 91.101562 44.492188 91.125 44.40625 C 91.164062 44.1875 91.1875 43.9375 91.1875 43.65625 L 91.1875 38.640625 C 91.1875 38.351562 91.164062 38.09375 91.125 37.875 C 91.101562 37.792969 91.0625 37.734375 91 37.703125 C 90.945312 37.671875 90.835938 37.652344 90.671875 37.640625 L 90.328125 37.609375 L 90.21875 37.609375 L 90.21875 37.28125 L 91.953125 37.28125 L 96.359375 43.28125 L 96.359375 38.640625 L 96.328125 38.125 C 96.316406 37.929688 96.28125 37.804688 96.21875 37.75 C 96.164062 37.6875 96.039062 37.652344 95.84375 37.640625 L 95.484375 37.609375 L 95.390625 37.609375 L 95.390625 37.28125 L 97.796875 37.28125 L 97.796875 37.609375 L 97.703125 37.609375 L 97.34375 37.640625 C 97.144531 37.652344 97.015625 37.6875 96.953125 37.75 C 96.898438 37.804688 96.867188 37.929688 96.859375 38.125 L 96.828125 38.640625 L 96.828125 45.109375 Z M 101.191406 45.125 C 100.378906 45.125 99.730469 44.859375 99.253906 44.328125 C 98.773438 43.796875 98.535156 43.078125 98.535156 42.171875 C 98.535156 41.257812 98.773438 40.539062 99.253906 40.015625 C 99.742188 39.484375 100.402344 39.21875 101.238281 39.21875 C 102.070312 39.21875 102.726562 39.484375 103.207031 40.015625 C 103.695312 40.539062 103.941406 41.25 103.941406 42.15625 C 103.941406 43.085938 103.695312 43.8125 103.207031 44.34375 C 102.714844 44.867188 102.042969 45.125 101.191406 45.125 Z M 101.207031 44.8125 C 101.683594 44.8125 102.074219 44.5625 102.378906 44.0625 C 102.691406 43.5625 102.847656 42.929688 102.847656 42.15625 C 102.847656 41.417969 102.691406 40.796875 102.378906 40.296875 C 102.074219 39.789062 101.695312 39.53125 101.238281 39.53125 C 100.777344 39.53125 100.394531 39.789062 100.082031 40.296875 C 99.777344 40.796875 99.628906 41.421875 99.628906 42.171875 C 99.628906 42.921875 99.777344 43.554688 100.082031 44.0625 C 100.382812 44.5625 100.757812 44.8125 101.207031 44.8125 Z M 107.121094 45.0625 L 105.292969 40.734375 C 105.105469 40.277344 104.964844 39.992188 104.871094 39.875 C 104.785156 39.75 104.675781 39.683594 104.542969 39.671875 L 104.449219 39.65625 L 104.449219 39.34375 L 106.902344 39.34375 L 106.902344 39.65625 L 106.808594 39.65625 L 106.527344 39.671875 C 106.253906 39.671875 106.121094 39.746094 106.121094 39.890625 C 106.121094 39.964844 106.222656 40.246094 106.433594 40.734375 L 107.714844 43.75 L 109.027344 40.75 C 109.222656 40.273438 109.324219 39.984375 109.324219 39.890625 C 109.324219 39.746094 109.203125 39.671875 108.964844 39.671875 L 108.699219 39.65625 L 108.589844 39.65625 L 108.589844 39.34375 L 110.277344 39.34375 L 110.277344 39.65625 L 110.167969 39.671875 C 110.042969 39.683594 109.941406 39.726562 109.871094 39.796875 C 109.796875 39.859375 109.722656 39.980469 109.652344 40.15625 L 109.402344 40.75 L 107.449219 45.0625 Z M 114.285156 44.21875 C 113.941406 44.5625 113.632812 44.804688 113.363281 44.9375 C 113.101562 45.0625 112.804688 45.125 112.472656 45.125 C 111.992188 45.125 111.589844 44.976562 111.269531 44.671875 C 110.945312 44.371094 110.785156 43.992188 110.785156 43.53125 C 110.785156 43 110.992188 42.570312 111.410156 42.234375 C 111.679688 42.015625 111.992188 41.867188 112.347656 41.78125 C 112.710938 41.699219 113.207031 41.65625 113.832031 41.65625 L 114.050781 41.65625 L 114.050781 40.953125 C 114.050781 40.058594 113.710938 39.609375 113.035156 39.609375 C 112.710938 39.609375 112.429688 39.710938 112.191406 39.90625 C 112.042969 40.023438 111.957031 40.261719 111.925781 40.625 L 111.910156 40.734375 L 111.222656 40.734375 L 111.222656 39.6875 C 111.941406 39.375 112.605469 39.21875 113.222656 39.21875 C 113.753906 39.21875 114.191406 39.34375 114.535156 39.59375 C 114.742188 39.75 114.882812 39.921875 114.957031 40.109375 C 115.027344 40.296875 115.066406 40.5625 115.066406 40.90625 L 115.066406 43.4375 C 115.066406 43.886719 115.101562 44.203125 115.175781 44.390625 C 115.257812 44.570312 115.398438 44.65625 115.597656 44.65625 C 115.667969 44.65625 115.761719 44.640625 115.878906 44.609375 L 115.910156 45 C 115.660156 45.082031 115.433594 45.125 115.238281 45.125 C 114.738281 45.125 114.417969 44.824219 114.285156 44.21875 Z M 114.050781 44.109375 L 114.050781 41.984375 L 113.800781 41.984375 C 113.195312 41.984375 112.722656 42.109375 112.378906 42.359375 C 112.042969 42.601562 111.878906 42.945312 111.878906 43.390625 C 111.878906 43.714844 111.980469 43.984375 112.191406 44.203125 C 112.398438 44.414062 112.664062 44.515625 112.988281 44.515625 C 113.289062 44.515625 113.644531 44.382812 114.050781 44.109375 Z M 119.9375 44.84375 L 119.9375 43.359375 L 120.484375 43.359375 L 120.484375 43.453125 C 120.492188 43.632812 120.5 43.761719 120.5 43.84375 C 120.5 44.011719 120.519531 44.136719 120.5625 44.21875 C 120.601562 44.292969 120.695312 44.375 120.84375 44.46875 C 121.207031 44.699219 121.613281 44.8125 122.0625 44.8125 C 122.519531 44.8125 122.878906 44.683594 123.140625 44.421875 C 123.398438 44.152344 123.53125 43.789062 123.53125 43.328125 C 123.53125 42.945312 123.445312 42.636719 123.28125 42.40625 C 123.113281 42.179688 122.789062 41.929688 122.3125 41.65625 L 121.765625 41.34375 C 121.117188 40.980469 120.660156 40.632812 120.390625 40.296875 C 120.117188 39.964844 119.984375 39.585938 119.984375 39.15625 C 119.984375 38.5625 120.195312 38.074219 120.625 37.6875 C 121.050781 37.292969 121.585938 37.09375 122.234375 37.09375 C 122.785156 37.09375 123.429688 37.203125 124.171875 37.421875 L 124.171875 38.796875 L 123.59375 38.796875 L 123.59375 38.703125 C 123.582031 38.515625 123.578125 38.382812 123.578125 38.296875 C 123.578125 37.984375 123.484375 37.777344 123.296875 37.671875 C 123.035156 37.515625 122.695312 37.4375 122.28125 37.4375 C 121.90625 37.4375 121.601562 37.5625 121.375 37.8125 C 121.144531 38.054688 121.03125 38.375 121.03125 38.78125 C 121.03125 39.117188 121.109375 39.398438 121.265625 39.625 C 121.429688 39.84375 121.722656 40.074219 122.140625 40.3125 L 122.6875 40.625 C 123.4375 41.054688 123.941406 41.429688 124.203125 41.75 C 124.472656 42.074219 124.609375 42.476562 124.609375 42.953125 C 124.609375 43.601562 124.367188 44.136719 123.890625 44.5625 C 123.421875 44.980469 122.828125 45.1875 122.109375 45.1875 C 121.753906 45.1875 121.363281 45.148438 120.9375 45.078125 C 120.519531 45.015625 120.1875 44.9375 119.9375 44.84375 Z M 129.984375 44.8125 C 129.441406 45.019531 128.910156 45.125 128.390625 45.125 C 127.566406 45.125 126.894531 44.851562 126.375 44.296875 C 125.863281 43.746094 125.609375 43.027344 125.609375 42.140625 C 125.609375 41.265625 125.851562 40.5625 126.34375 40.03125 C 126.84375 39.492188 127.5 39.21875 128.3125 39.21875 C 128.738281 39.21875 129.296875 39.304688 129.984375 39.46875 L 129.984375 40.828125 L 129.34375 40.828125 L 129.328125 40.734375 C 129.328125 40.320312 129.265625 40.039062 129.140625 39.890625 C 128.953125 39.671875 128.675781 39.5625 128.3125 39.5625 C 127.8125 39.5625 127.414062 39.792969 127.125 40.25 C 126.832031 40.699219 126.6875 41.308594 126.6875 42.078125 C 126.6875 42.859375 126.859375 43.480469 127.203125 43.9375 C 127.546875 44.398438 128.019531 44.625 128.625 44.625 C 129.132812 44.625 129.585938 44.539062 129.984375 44.359375 Z M 133.695312 45.125 C 132.882812 45.125 132.234375 44.859375 131.757812 44.328125 C 131.277344 43.796875 131.039062 43.078125 131.039062 42.171875 C 131.039062 41.257812 131.277344 40.539062 131.757812 40.015625 C 132.246094 39.484375 132.90625 39.21875 133.742188 39.21875 C 134.574219 39.21875 135.230469 39.484375 135.710938 40.015625 C 136.199219 40.539062 136.445312 41.25 136.445312 42.15625 C 136.445312 43.085938 136.199219 43.8125 135.710938 44.34375 C 135.21875 44.867188 134.546875 45.125 133.695312 45.125 Z M 133.710938 44.8125 C 134.1875 44.8125 134.578125 44.5625 134.882812 44.0625 C 135.195312 43.5625 135.351562 42.929688 135.351562 42.15625 C 135.351562 41.417969 135.195312 40.796875 134.882812 40.296875 C 134.578125 39.789062 134.199219 39.53125 133.742188 39.53125 C 133.28125 39.53125 132.898438 39.789062 132.585938 40.296875 C 132.28125 40.796875 132.132812 41.421875 132.132812 42.171875 C 132.132812 42.921875 132.28125 43.554688 132.585938 44.0625 C 132.886719 44.5625 133.261719 44.8125 133.710938 44.8125 Z M 140.707031 44.96875 C 140.445312 45.070312 140.199219 45.125 139.972656 45.125 C 139.441406 45.125 139.019531 44.992188 138.707031 44.71875 C 138.527344 44.554688 138.402344 44.367188 138.332031 44.15625 C 138.269531 43.949219 138.238281 43.640625 138.238281 43.234375 L 138.238281 39.765625 L 137.410156 39.765625 L 137.410156 39.34375 L 138.238281 39.34375 L 138.238281 38.3125 L 139.269531 38.0625 L 139.269531 39.34375 L 140.847656 39.34375 L 140.847656 39.765625 L 139.269531 39.765625 L 139.269531 43.375 C 139.269531 43.867188 139.316406 44.1875 139.410156 44.34375 C 139.542969 44.59375 139.777344 44.71875 140.113281 44.71875 C 140.277344 44.71875 140.476562 44.664062 140.707031 44.546875 Z M 143.320312 39.34375 L 143.320312 43.65625 C 143.320312 43.9375 143.339844 44.1875 143.382812 44.40625 C 143.402344 44.492188 143.4375 44.546875 143.492188 44.578125 C 143.554688 44.609375 143.667969 44.632812 143.835938 44.640625 L 144.179688 44.671875 L 144.289062 44.671875 L 144.289062 45 L 141.320312 45 L 141.320312 44.671875 L 141.429688 44.671875 L 141.773438 44.640625 C 141.96875 44.632812 142.09375 44.601562 142.148438 44.546875 C 142.210938 44.496094 142.246094 44.371094 142.257812 44.171875 L 142.289062 43.65625 L 142.289062 40.6875 L 142.257812 40.1875 C 142.246094 39.992188 142.210938 39.867188 142.148438 39.8125 C 142.09375 39.75 141.96875 39.714844 141.773438 39.703125 L 141.429688 39.671875 L 141.320312 39.65625 L 141.320312 39.34375 Z M 142.289062 38.3125 L 142.289062 37.28125 L 143.320312 37.28125 L 143.320312 38.3125 Z M 148.425781 44.21875 C 148.082031 44.5625 147.773438 44.804688 147.503906 44.9375 C 147.242188 45.0625 146.945312 45.125 146.613281 45.125 C 146.132812 45.125 145.730469 44.976562 145.410156 44.671875 C 145.085938 44.371094 144.925781 43.992188 144.925781 43.53125 C 144.925781 43 145.132812 42.570312 145.550781 42.234375 C 145.820312 42.015625 146.132812 41.867188 146.488281 41.78125 C 146.851562 41.699219 147.347656 41.65625 147.972656 41.65625 L 148.191406 41.65625 L 148.191406 40.953125 C 148.191406 40.058594 147.851562 39.609375 147.175781 39.609375 C 146.851562 39.609375 146.570312 39.710938 146.332031 39.90625 C 146.183594 40.023438 146.097656 40.261719 146.066406 40.625 L 146.050781 40.734375 L 145.363281 40.734375 L 145.363281 39.6875 C 146.082031 39.375 146.746094 39.21875 147.363281 39.21875 C 147.894531 39.21875 148.332031 39.34375 148.675781 39.59375 C 148.882812 39.75 149.023438 39.921875 149.097656 40.109375 C 149.167969 40.296875 149.207031 40.5625 149.207031 40.90625 L 149.207031 43.4375 C 149.207031 43.886719 149.242188 44.203125 149.316406 44.390625 C 149.398438 44.570312 149.539062 44.65625 149.738281 44.65625 C 149.808594 44.65625 149.902344 44.640625 150.019531 44.609375 L 150.050781 45 C 149.800781 45.082031 149.574219 45.125 149.378906 45.125 C 148.878906 45.125 148.558594 44.824219 148.425781 44.21875 Z M 148.191406 44.109375 L 148.191406 41.984375 L 147.941406 41.984375 C 147.335938 41.984375 146.863281 42.109375 146.519531 42.359375 C 146.183594 42.601562 146.019531 42.945312 146.019531 43.390625 C 146.019531 43.714844 146.121094 43.984375 146.332031 44.203125 C 146.539062 44.414062 146.804688 44.515625 147.128906 44.515625 C 147.429688 44.515625 147.785156 44.382812 148.191406 44.109375 Z M 148.191406 44.109375 "/>
<path style=" stroke:none;fill-rule:nonzero;fill:rgb(0%,0%,0%);fill-opacity:1;" d="M 122.953125 43.789062 L 119.1875 32.179688 L 119.796875 31.976562 L 123.5625 43.585938 Z M 122.953125 43.789062 "/>
<path style=" stroke:none;fill-rule:nonzero;fill:rgb(0%,0%,0%);fill-opacity:1;" d="M 105.46875 36 C 105.5625 35.460938 105.703125 34.964844 105.890625 34.515625 C 106.140625 33.953125 106.394531 33.464844 106.65625 33.046875 C 106.925781 32.632812 107.585938 31.714844 108.640625 30.296875 L 109.421875 29.25 L 105.078125 29.25 L 105.078125 28.28125 L 110.03125 28.28125 L 110.03125 28.953125 C 108.90625 30.464844 108.078125 31.773438 107.546875 32.875 C 107.023438 33.96875 106.738281 35.011719 106.6875 36 Z M 112.226562 32.0625 C 112.484375 31.699219 112.757812 31.4375 113.039062 31.28125 C 113.328125 31.125 113.679688 31.046875 114.085938 31.046875 C 114.75 31.046875 115.296875 31.277344 115.726562 31.734375 C 116.164062 32.183594 116.382812 32.761719 116.382812 33.46875 C 116.382812 34.242188 116.136719 34.886719 115.648438 35.40625 C 115.15625 35.929688 114.558594 36.1875 113.851562 36.1875 C 112.984375 36.1875 112.3125 35.851562 111.835938 35.171875 C 111.367188 34.496094 111.132812 33.527344 111.132812 32.265625 C 111.132812 30.933594 111.402344 29.90625 111.945312 29.1875 C 112.484375 28.460938 113.25 28.09375 114.242188 28.09375 C 114.886719 28.09375 115.453125 28.210938 115.945312 28.4375 L 115.945312 29.671875 L 115.429688 29.671875 L 115.414062 29.5625 L 115.382812 29.1875 C 115.371094 29.042969 115.34375 28.945312 115.304688 28.890625 C 115.273438 28.828125 115.1875 28.757812 115.054688 28.671875 C 114.761719 28.496094 114.460938 28.40625 114.148438 28.40625 C 113.53125 28.40625 113.058594 28.726562 112.726562 29.359375 C 112.390625 29.996094 112.226562 30.898438 112.226562 32.0625 Z M 112.257812 33.15625 C 112.257812 33.949219 112.417969 34.601562 112.742188 35.109375 C 113.0625 35.609375 113.476562 35.859375 113.976562 35.859375 C 114.402344 35.859375 114.734375 35.664062 114.976562 35.265625 C 115.214844 34.871094 115.335938 34.320312 115.335938 33.609375 C 115.335938 32.902344 115.210938 32.359375 114.960938 31.984375 C 114.71875 31.601562 114.375 31.40625 113.929688 31.40625 C 113.46875 31.40625 113.074219 31.558594 112.742188 31.859375 C 112.417969 32.152344 112.257812 32.585938 112.257812 33.15625 Z M 120.75 28.21875 L 120.75 34.65625 L 120.78125 35.171875 C 120.789062 35.328125 120.8125 35.4375 120.84375 35.5 C 120.875 35.554688 120.929688 35.589844 121.015625 35.609375 C 121.222656 35.652344 121.421875 35.671875 121.609375 35.671875 L 122.21875 35.671875 L 122.21875 36 L 118.234375 36 L 118.234375 35.671875 L 118.84375 35.671875 C 119.039062 35.671875 119.238281 35.652344 119.4375 35.609375 C 119.53125 35.589844 119.59375 35.554688 119.625 35.5 C 119.65625 35.4375 119.675781 35.328125 119.6875 35.171875 L 119.71875 34.65625 L 119.71875 29.859375 L 119.6875 29.34375 C 119.6875 29.1875 119.671875 29.089844 119.640625 29.046875 C 119.609375 28.996094 119.550781 28.96875 119.46875 28.96875 C 119.363281 28.96875 119.125 29.007812 118.75 29.078125 L 118.234375 29.171875 L 118.234375 28.84375 Z M 120.75 28.21875 "/>
<path style=" stroke:none;fill-rule:nonzero;fill:rgb(100%,0%,0%);fill-opacity:1;" d="M 54.398438 132.390625 C 54.398438 136.390625 48.398438 136.390625 48.398438 132.390625 C 48.398438 128.390625 54.398438 128.390625 54.398438 132.390625 "/>
<path style=" stroke:none;fill-rule:nonzero;fill:rgb(0%,0%,0%);fill-opacity:1;" d="M 28.46875 145.109375 L 23.671875 138.640625 L 23.671875 143.65625 C 23.671875 143.9375 23.695312 144.1875 23.75 144.40625 C 23.769531 144.492188 23.804688 144.546875 23.859375 144.578125 C 23.910156 144.609375 24.019531 144.632812 24.1875 144.640625 L 24.546875 144.671875 L 24.640625 144.671875 L 24.640625 145 L 22.234375 145 L 22.234375 144.671875 L 22.328125 144.671875 L 22.671875 144.640625 C 22.835938 144.632812 22.945312 144.609375 23 144.578125 C 23.0625 144.546875 23.101562 144.492188 23.125 144.40625 C 23.164062 144.1875 23.1875 143.9375 23.1875 143.65625 L 23.1875 138.640625 C 23.1875 138.351562 23.164062 138.09375 23.125 137.875 C 23.101562 137.792969 23.0625 137.734375 23 137.703125 C 22.945312 137.671875 22.835938 137.652344 22.671875 137.640625 L 22.328125 137.609375 L 22.21875 137.609375 L 22.21875 137.28125 L 23.953125 137.28125 L 28.359375 143.28125 L 28.359375 138.640625 L 28.328125 138.125 C 28.316406 137.929688 28.28125 137.804688 28.21875 137.75 C 28.164062 137.6875 28.039062 137.652344 27.84375 137.640625 L 27.484375 137.609375 L 27.390625 137.609375 L 27.390625 137.28125 L 29.796875 137.28125 L 29.796875 137.609375 L 29.703125 137.609375 L 29.34375 137.640625 C 29.144531 137.652344 29.015625 137.6875 28.953125 137.75 C 28.898438 137.804688 28.867188 137.929688 28.859375 138.125 L 28.828125 138.640625 L 28.828125 145.109375 Z M 33.191406 145.125 C 32.378906 145.125 31.730469 144.859375 31.253906 144.328125 C 30.773438 143.796875 30.535156 143.078125 30.535156 142.171875 C 30.535156 141.257812 30.773438 140.539062 31.253906 140.015625 C 31.742188 139.484375 32.402344 139.21875 33.238281 139.21875 C 34.070312 139.21875 34.726562 139.484375 35.207031 140.015625 C 35.695312 140.539062 35.941406 141.25 35.941406 142.15625 C 35.941406 143.085938 35.695312 143.8125 35.207031 144.34375 C 34.714844 144.867188 34.042969 145.125 33.191406 145.125 Z M 33.207031 144.8125 C 33.683594 144.8125 34.074219 144.5625 34.378906 144.0625 C 34.691406 143.5625 34.847656 142.929688 34.847656 142.15625 C 34.847656 141.417969 34.691406 140.796875 34.378906 140.296875 C 34.074219 139.789062 33.695312 139.53125 33.238281 139.53125 C 32.777344 139.53125 32.394531 139.789062 32.082031 140.296875 C 31.777344 140.796875 31.628906 141.421875 31.628906 142.171875 C 31.628906 142.921875 31.777344 143.554688 32.082031 144.0625 C 32.382812 144.5625 32.757812 144.8125 33.207031 144.8125 Z M 39.121094 145.0625 L 37.292969 140.734375 C 37.105469 140.277344 36.964844 139.992188 36.871094 139.875 C 36.785156 139.75 36.675781 139.683594 36.542969 139.671875 L 36.449219 139.65625 L 36.449219 139.34375 L 38.902344 139.34375 L 38.902344 139.65625 L 38.808594 139.65625 L 38.527344 139.671875 C 38.253906 139.671875 38.121094 139.746094 38.121094 139.890625 C 38.121094 139.964844 38.222656 140.246094 38.433594 140.734375 L 39.714844 143.75 L 41.027344 140.75 C 41.222656 140.273438 41.324219 139.984375 41.324219 139.890625 C 41.324219 139.746094 41.203125 139.671875 40.964844 139.671875 L 40.699219 139.65625 L 40.589844 139.65625 L 40.589844 139.34375 L 42.277344 139.34375 L 42.277344 139.65625 L 42.167969 139.671875 C 42.042969 139.683594 41.941406 139.726562 41.871094 139.796875 C 41.796875 139.859375 41.722656 139.980469 41.652344 140.15625 L 41.402344 140.75 L 39.449219 145.0625 Z M 46.285156 144.21875 C 45.941406 144.5625 45.632812 144.804688 45.363281 144.9375 C 45.101562 145.0625 44.804688 145.125 44.472656 145.125 C 43.992188 145.125 43.589844 144.976562 43.269531 144.671875 C 42.945312 144.371094 42.785156 143.992188 42.785156 143.53125 C 42.785156 143 42.992188 142.570312 43.410156 142.234375 C 43.679688 142.015625 43.992188 141.867188 44.347656 141.78125 C 44.710938 141.699219 45.207031 141.65625 45.832031 141.65625 L 46.050781 141.65625 L 46.050781 140.953125 C 46.050781 140.058594 45.710938 139.609375 45.035156 139.609375 C 44.710938 139.609375 44.429688 139.710938 44.191406 139.90625 C 44.042969 140.023438 43.957031 140.261719 43.925781 140.625 L 43.910156 140.734375 L 43.222656 140.734375 L 43.222656 139.6875 C 43.941406 139.375 44.605469 139.21875 45.222656 139.21875 C 45.753906 139.21875 46.191406 139.34375 46.535156 139.59375 C 46.742188 139.75 46.882812 139.921875 46.957031 140.109375 C 47.027344 140.296875 47.066406 140.5625 47.066406 140.90625 L 47.066406 143.4375 C 47.066406 143.886719 47.101562 144.203125 47.175781 144.390625 C 47.257812 144.570312 47.398438 144.65625 47.597656 144.65625 C 47.667969 144.65625 47.761719 144.640625 47.878906 144.609375 L 47.910156 145 C 47.660156 145.082031 47.433594 145.125 47.238281 145.125 C 46.738281 145.125 46.417969 144.824219 46.285156 144.21875 Z M 46.050781 144.109375 L 46.050781 141.984375 L 45.800781 141.984375 C 45.195312 141.984375 44.722656 142.109375 44.378906 142.359375 C 44.042969 142.601562 43.878906 142.945312 43.878906 143.390625 C 43.878906 143.714844 43.980469 143.984375 44.191406 144.203125 C 44.398438 144.414062 44.664062 144.515625 44.988281 144.515625 C 45.289062 144.515625 45.644531 144.382812 46.050781 144.109375 Z M 51.9375 144.84375 L 51.9375 143.359375 L 52.484375 143.359375 L 52.484375 143.453125 C 52.492188 143.632812 52.5 143.761719 52.5 143.84375 C 52.5 144.011719 52.519531 144.136719 52.5625 144.21875 C 52.601562 144.292969 52.695312 144.375 52.84375 144.46875 C 53.207031 144.699219 53.613281 144.8125 54.0625 144.8125 C 54.519531 144.8125 54.878906 144.683594 55.140625 144.421875 C 55.398438 144.152344 55.53125 143.789062 55.53125 143.328125 C 55.53125 142.945312 55.445312 142.636719 55.28125 142.40625 C 55.113281 142.179688 54.789062 141.929688 54.3125 141.65625 L 53.765625 141.34375 C 53.117188 140.980469 52.660156 140.632812 52.390625 140.296875 C 52.117188 139.964844 51.984375 139.585938 51.984375 139.15625 C 51.984375 138.5625 52.195312 138.074219 52.625 137.6875 C 53.050781 137.292969 53.585938 137.09375 54.234375 137.09375 C 54.785156 137.09375 55.429688 137.203125 56.171875 137.421875 L 56.171875 138.796875 L 55.59375 138.796875 L 55.59375 138.703125 C 55.582031 138.515625 55.578125 138.382812 55.578125 138.296875 C 55.578125 137.984375 55.484375 137.777344 55.296875 137.671875 C 55.035156 137.515625 54.695312 137.4375 54.28125 137.4375 C 53.90625 137.4375 53.601562 137.5625 53.375 137.8125 C 53.144531 138.054688 53.03125 138.375 53.03125 138.78125 C 53.03125 139.117188 53.109375 139.398438 53.265625 139.625 C 53.429688 139.84375 53.722656 140.074219 54.140625 140.3125 L 54.6875 140.625 C 55.4375 141.054688 55.941406 141.429688 56.203125 141.75 C 56.472656 142.074219 56.609375 142.476562 56.609375 142.953125 C 56.609375 143.601562 56.367188 144.136719 55.890625 144.5625 C 55.421875 144.980469 54.828125 145.1875 54.109375 145.1875 C 53.753906 145.1875 53.363281 145.148438 52.9375 145.078125 C 52.519531 145.015625 52.1875 144.9375 51.9375 144.84375 Z M 61.984375 144.8125 C 61.441406 145.019531 60.910156 145.125 60.390625 145.125 C 59.566406 145.125 58.894531 144.851562 58.375 144.296875 C 57.863281 143.746094 57.609375 143.027344 57.609375 142.140625 C 57.609375 141.265625 57.851562 140.5625 58.34375 140.03125 C 58.84375 139.492188 59.5 139.21875 60.3125 139.21875 C 60.738281 139.21875 61.296875 139.304688 61.984375 139.46875 L 61.984375 140.828125 L 61.34375 140.828125 L 61.328125 140.734375 C 61.328125 140.320312 61.265625 140.039062 61.140625 139.890625 C 60.953125 139.671875 60.675781 139.5625 60.3125 139.5625 C 59.8125 139.5625 59.414062 139.792969 59.125 140.25 C 58.832031 140.699219 58.6875 141.308594 58.6875 142.078125 C 58.6875 142.859375 58.859375 143.480469 59.203125 143.9375 C 59.546875 144.398438 60.019531 144.625 60.625 144.625 C 61.132812 144.625 61.585938 144.539062 61.984375 144.359375 Z M 65.695312 145.125 C 64.882812 145.125 64.234375 144.859375 63.757812 144.328125 C 63.277344 143.796875 63.039062 143.078125 63.039062 142.171875 C 63.039062 141.257812 63.277344 140.539062 63.757812 140.015625 C 64.246094 139.484375 64.90625 139.21875 65.742188 139.21875 C 66.574219 139.21875 67.230469 139.484375 67.710938 140.015625 C 68.199219 140.539062 68.445312 141.25 68.445312 142.15625 C 68.445312 143.085938 68.199219 143.8125 67.710938 144.34375 C 67.21875 144.867188 66.546875 145.125 65.695312 145.125 Z M 65.710938 144.8125 C 66.1875 144.8125 66.578125 144.5625 66.882812 144.0625 C 67.195312 143.5625 67.351562 142.929688 67.351562 142.15625 C 67.351562 141.417969 67.195312 140.796875 66.882812 140.296875 C 66.578125 139.789062 66.199219 139.53125 65.742188 139.53125 C 65.28125 139.53125 64.898438 139.789062 64.585938 140.296875 C 64.28125 140.796875 64.132812 141.421875 64.132812 142.171875 C 64.132812 142.921875 64.28125 143.554688 64.585938 144.0625 C 64.886719 144.5625 65.261719 144.8125 65.710938 144.8125 Z M 72.707031 144.96875 C 72.445312 145.070312 72.199219 145.125 71.972656 145.125 C 71.441406 145.125 71.019531 144.992188 70.707031 144.71875 C 70.527344 144.554688 70.402344 144.367188 70.332031 144.15625 C 70.269531 143.949219 70.238281 143.640625 70.238281 143.234375 L 70.238281 139.765625 L 69.410156 139.765625 L 69.410156 139.34375 L 70.238281 139.34375 L 70.238281 138.3125 L 71.269531 138.0625 L 71.269531 139.34375 L 72.847656 139.34375 L 72.847656 139.765625 L 71.269531 139.765625 L 71.269531 143.375 C 71.269531 143.867188 71.316406 144.1875 71.410156 144.34375 C 71.542969 144.59375 71.777344 144.71875 72.113281 144.71875 C 72.277344 144.71875 72.476562 144.664062 72.707031 144.546875 Z M 75.320312 139.34375 L 75.320312 143.65625 C 75.320312 143.9375 75.339844 144.1875 75.382812 144.40625 C 75.402344 144.492188 75.4375 144.546875 75.492188 144.578125 C 75.554688 144.609375 75.667969 144.632812 75.835938 144.640625 L 76.179688 144.671875 L 76.289062 144.671875 L 76.289062 145 L 73.320312 145 L 73.320312 144.671875 L 73.429688 144.671875 L 73.773438 144.640625 C 73.96875 144.632812 74.09375 144.601562 74.148438 144.546875 C 74.210938 144.496094 74.246094 144.371094 74.257812 144.171875 L 74.289062 143.65625 L 74.289062 140.6875 L 74.257812 140.1875 C 74.246094 139.992188 74.210938 139.867188 74.148438 139.8125 C 74.09375 139.75 73.96875 139.714844 73.773438 139.703125 L 73.429688 139.671875 L 73.320312 139.65625 L 73.320312 139.34375 Z M 74.289062 138.3125 L 74.289062 137.28125 L 75.320312 137.28125 L 75.320312 138.3125 Z M 80.425781 144.21875 C 80.082031 144.5625 79.773438 144.804688 79.503906 144.9375 C 79.242188 145.0625 78.945312 145.125 78.613281 145.125 C 78.132812 145.125 77.730469 144.976562 77.410156 144.671875 C 77.085938 144.371094 76.925781 143.992188 76.925781 143.53125 C 76.925781 143 77.132812 142.570312 77.550781 142.234375 C 77.820312 142.015625 78.132812 141.867188 78.488281 141.78125 C 78.851562 141.699219 79.347656 141.65625 79.972656 141.65625 L 80.191406 141.65625 L 80.191406 140.953125 C 80.191406 140.058594 79.851562 139.609375 79.175781 139.609375 C 78.851562 139.609375 78.570312 139.710938 78.332031 139.90625 C 78.183594 140.023438 78.097656 140.261719 78.066406 140.625 L 78.050781 140.734375 L 77.363281 140.734375 L 77.363281 139.6875 C 78.082031 139.375 78.746094 139.21875 79.363281 139.21875 C 79.894531 139.21875 80.332031 139.34375 80.675781 139.59375 C 80.882812 139.75 81.023438 139.921875 81.097656 140.109375 C 81.167969 140.296875 81.207031 140.5625 81.207031 140.90625 L 81.207031 143.4375 C 81.207031 143.886719 81.242188 144.203125 81.316406 144.390625 C 81.398438 144.570312 81.539062 144.65625 81.738281 144.65625 C 81.808594 144.65625 81.902344 144.640625 82.019531 144.609375 L 82.050781 145 C 81.800781 145.082031 81.574219 145.125 81.378906 145.125 C 80.878906 145.125 80.558594 144.824219 80.425781 144.21875 Z M 80.191406 144.109375 L 80.191406 141.984375 L 79.941406 141.984375 C 79.335938 141.984375 78.863281 142.109375 78.519531 142.359375 C 78.183594 142.601562 78.019531 142.945312 78.019531 143.390625 C 78.019531 143.714844 78.121094 143.984375 78.332031 144.203125 C 78.539062 144.414062 78.804688 144.515625 79.128906 144.515625 C 79.429688 144.515625 79.785156 144.382812 80.191406 144.109375 Z M 80.191406 144.109375 "/>
<path style=" stroke:none;fill-rule:nonzero;fill:rgb(0%,0%,0%);fill-opacity:1;" d="M 40.300781 127.566406 L 51.613281 132.128906 L 51.378906 132.722656 L 40.066406 128.160156 Z M 40.300781 127.566406 "/>
<path style=" stroke:none;fill-rule:nonzero;fill:rgb(0%,0%,0%);fill-opacity:1;" d="M 33.734375 132.0625 C 33.992188 131.699219 34.265625 131.4375 34.546875 131.28125 C 34.835938 131.125 35.1875 131.046875 35.59375 131.046875 C 36.257812 131.046875 36.804688 131.277344 37.234375 131.734375 C 37.671875 132.183594 37.890625 132.761719 37.890625 133.46875 C 37.890625 134.242188 37.644531 134.886719 37.15625 135.40625 C 36.664062 135.929688 36.066406 136.1875 35.359375 136.1875 C 34.492188 136.1875 33.820312 135.851562 33.34375 135.171875 C 32.875 134.496094 32.640625 133.527344 32.640625 132.265625 C 32.640625 130.933594 32.910156 129.90625 33.453125 129.1875 C 33.992188 128.460938 34.757812 128.09375 35.75 128.09375 C 36.394531 128.09375 36.960938 128.210938 37.453125 128.4375 L 37.453125 129.671875 L 36.9375 129.671875 L 36.921875 129.5625 L 36.890625 129.1875 C 36.878906 129.042969 36.851562 128.945312 36.8125 128.890625 C 36.78125 128.828125 36.695312 128.757812 36.5625 128.671875 C 36.269531 128.496094 35.96875 128.40625 35.65625 128.40625 C 35.039062 128.40625 34.566406 128.726562 34.234375 129.359375 C 33.898438 129.996094 33.734375 130.898438 33.734375 132.0625 Z M 33.765625 133.15625 C 33.765625 133.949219 33.925781 134.601562 34.25 135.109375 C 34.570312 135.609375 34.984375 135.859375 35.484375 135.859375 C 35.910156 135.859375 36.242188 135.664062 36.484375 135.265625 C 36.722656 134.871094 36.84375 134.320312 36.84375 133.609375 C 36.84375 132.902344 36.71875 132.359375 36.46875 131.984375 C 36.226562 131.601562 35.882812 131.40625 35.4375 131.40625 C 34.976562 131.40625 34.582031 131.558594 34.25 131.859375 C 33.925781 132.152344 33.765625 132.585938 33.765625 133.15625 Z M 41.695312 136.1875 C 40.902344 136.1875 40.261719 135.824219 39.773438 135.09375 C 39.28125 134.355469 39.039062 133.382812 39.039062 132.171875 C 39.039062 130.921875 39.28125 129.933594 39.773438 129.203125 C 40.261719 128.464844 40.917969 128.09375 41.742188 128.09375 C 42.554688 128.09375 43.203125 128.464844 43.695312 129.203125 C 44.195312 129.933594 44.445312 130.917969 44.445312 132.15625 C 44.445312 133.398438 44.195312 134.382812 43.695312 135.109375 C 43.203125 135.828125 42.539062 136.1875 41.695312 136.1875 Z M 41.710938 135.875 C 42.21875 135.898438 42.632812 135.589844 42.945312 134.953125 C 43.089844 134.640625 43.195312 134.277344 43.257812 133.859375 C 43.320312 133.433594 43.351562 132.84375 43.351562 132.09375 C 43.351562 130.804688 43.214844 129.886719 42.945312 129.34375 C 42.640625 128.71875 42.242188 128.40625 41.742188 128.40625 C 41.230469 128.40625 40.824219 128.71875 40.523438 129.34375 C 40.375 129.648438 40.273438 130.007812 40.210938 130.421875 C 40.15625 130.839844 40.132812 131.414062 40.132812 132.140625 C 40.132812 132.882812 40.15625 133.460938 40.210938 133.875 C 40.273438 134.292969 40.375 134.648438 40.523438 134.9375 C 40.8125 135.542969 41.210938 135.855469 41.710938 135.875 Z M 48.75 128.21875 L 48.75 134.65625 L 48.78125 135.171875 C 48.789062 135.328125 48.8125 135.4375 48.84375 135.5 C 48.875 135.554688 48.929688 135.589844 49.015625 135.609375 C 49.222656 135.652344 49.421875 135.671875 49.609375 135.671875 L 50.21875 135.671875 L 50.21875 136 L 46.234375 136 L 46.234375 135.671875 L 46.84375 135.671875 C 47.039062 135.671875 47.238281 135.652344 47.4375 135.609375 C 47.53125 135.589844 47.59375 135.554688 47.625 135.5 C 47.65625 135.4375 47.675781 135.328125 47.6875 135.171875 L 47.71875 134.65625 L 47.71875 129.859375 L 47.6875 129.34375 C 47.6875 129.1875 47.671875 129.089844 47.640625 129.046875 C 47.609375 128.996094 47.550781 128.96875 47.46875 128.96875 C 47.363281 128.96875 47.125 129.007812 46.75 129.078125 L 46.234375 129.171875 L 46.234375 128.84375 Z M 48.75 128.21875 "/>
<path style=" stroke:none;fill-rule:nonzero;fill:rgb(100%,0%,0%);fill-opacity:1;" d="M 101.15625 59.773438 C 101.15625 63.773438 95.15625 63.773438 95.15625 59.773438 C 95.15625 55.773438 101.15625 55.773438 101.15625 59.773438 "/>
<path style=" stroke:none;fill-rule:nonzero;fill:rgb(0%,0%,0%);fill-opacity:1;" d="M 75.46875 73.109375 L 70.671875 66.640625 L 70.671875 71.65625 C 70.671875 71.9375 70.695312 72.1875 70.75 72.40625 C 70.769531 72.492188 70.804688 72.546875 70.859375 72.578125 C 70.910156 72.609375 71.019531 72.632812 71.1875 72.640625 L 71.546875 72.671875 L 71.640625 72.671875 L 71.640625 73 L 69.234375 73 L 69.234375 72.671875 L 69.328125 72.671875 L 69.671875 72.640625 C 69.835938 72.632812 69.945312 72.609375 70 72.578125 C 70.0625 72.546875 70.101562 72.492188 70.125 72.40625 C 70.164062 72.1875 70.1875 71.9375 70.1875 71.65625 L 70.1875 66.640625 C 70.1875 66.351562 70.164062 66.09375 70.125 65.875 C 70.101562 65.792969 70.0625 65.734375 70 65.703125 C 69.945312 65.671875 69.835938 65.652344 69.671875 65.640625 L 69.328125 65.609375 L 69.21875 65.609375 L 69.21875 65.28125 L 70.953125 65.28125 L 75.359375 71.28125 L 75.359375 66.640625 L 75.328125 66.125 C 75.316406 65.929688 75.28125 65.804688 75.21875 65.75 C 75.164062 65.6875 75.039062 65.652344 74.84375 65.640625 L 74.484375 65.609375 L 74.390625 65.609375 L 74.390625 65.28125 L 76.796875 65.28125 L 76.796875 65.609375 L 76.703125 65.609375 L 76.34375 65.640625 C 76.144531 65.652344 76.015625 65.6875 75.953125 65.75 C 75.898438 65.804688 75.867188 65.929688 75.859375 66.125 L 75.828125 66.640625 L 75.828125 73.109375 Z M 80.191406 73.125 C 79.378906 73.125 78.730469 72.859375 78.253906 72.328125 C 77.773438 71.796875 77.535156 71.078125 77.535156 70.171875 C 77.535156 69.257812 77.773438 68.539062 78.253906 68.015625 C 78.742188 67.484375 79.402344 67.21875 80.238281 67.21875 C 81.070312 67.21875 81.726562 67.484375 82.207031 68.015625 C 82.695312 68.539062 82.941406 69.25 82.941406 70.15625 C 82.941406 71.085938 82.695312 71.8125 82.207031 72.34375 C 81.714844 72.867188 81.042969 73.125 80.191406 73.125 Z M 80.207031 72.8125 C 80.683594 72.8125 81.074219 72.5625 81.378906 72.0625 C 81.691406 71.5625 81.847656 70.929688 81.847656 70.15625 C 81.847656 69.417969 81.691406 68.796875 81.378906 68.296875 C 81.074219 67.789062 80.695312 67.53125 80.238281 67.53125 C 79.777344 67.53125 79.394531 67.789062 79.082031 68.296875 C 78.777344 68.796875 78.628906 69.421875 78.628906 70.171875 C 78.628906 70.921875 78.777344 71.554688 79.082031 72.0625 C 79.382812 72.5625 79.757812 72.8125 80.207031 72.8125 Z M 86.121094 73.0625 L 84.292969 68.734375 C 84.105469 68.277344 83.964844 67.992188 83.871094 67.875 C 83.785156 67.75 83.675781 67.683594 83.542969 67.671875 L 83.449219 67.65625 L 83.449219 67.34375 L 85.902344 67.34375 L 85.902344 67.65625 L 85.808594 67.65625 L 85.527344 67.671875 C 85.253906 67.671875 85.121094 67.746094 85.121094 67.890625 C 85.121094 67.964844 85.222656 68.246094 85.433594 68.734375 L 86.714844 71.75 L 88.027344 68.75 C 88.222656 68.273438 88.324219 67.984375 88.324219 67.890625 C 88.324219 67.746094 88.203125 67.671875 87.964844 67.671875 L 87.699219 67.65625 L 87.589844 67.65625 L 87.589844 67.34375 L 89.277344 67.34375 L 89.277344 67.65625 L 89.167969 67.671875 C 89.042969 67.683594 88.941406 67.726562 88.871094 67.796875 C 88.796875 67.859375 88.722656 67.980469 88.652344 68.15625 L 88.402344 68.75 L 86.449219 73.0625 Z M 93.285156 72.21875 C 92.941406 72.5625 92.632812 72.804688 92.363281 72.9375 C 92.101562 73.0625 91.804688 73.125 91.472656 73.125 C 90.992188 73.125 90.589844 72.976562 90.269531 72.671875 C 89.945312 72.371094 89.785156 71.992188 89.785156 71.53125 C 89.785156 71 89.992188 70.570312 90.410156 70.234375 C 90.679688 70.015625 90.992188 69.867188 91.347656 69.78125 C 91.710938 69.699219 92.207031 69.65625 92.832031 69.65625 L 93.050781 69.65625 L 93.050781 68.953125 C 93.050781 68.058594 92.710938 67.609375 92.035156 67.609375 C 91.710938 67.609375 91.429688 67.710938 91.191406 67.90625 C 91.042969 68.023438 90.957031 68.261719 90.925781 68.625 L 90.910156 68.734375 L 90.222656 68.734375 L 90.222656 67.6875 C 90.941406 67.375 91.605469 67.21875 92.222656 67.21875 C 92.753906 67.21875 93.191406 67.34375 93.535156 67.59375 C 93.742188 67.75 93.882812 67.921875 93.957031 68.109375 C 94.027344 68.296875 94.066406 68.5625 94.066406 68.90625 L 94.066406 71.4375 C 94.066406 71.886719 94.101562 72.203125 94.175781 72.390625 C 94.257812 72.570312 94.398438 72.65625 94.597656 72.65625 C 94.667969 72.65625 94.761719 72.640625 94.878906 72.609375 L 94.910156 73 C 94.660156 73.082031 94.433594 73.125 94.238281 73.125 C 93.738281 73.125 93.417969 72.824219 93.285156 72.21875 Z M 93.050781 72.109375 L 93.050781 69.984375 L 92.800781 69.984375 C 92.195312 69.984375 91.722656 70.109375 91.378906 70.359375 C 91.042969 70.601562 90.878906 70.945312 90.878906 71.390625 C 90.878906 71.714844 90.980469 71.984375 91.191406 72.203125 C 91.398438 72.414062 91.664062 72.515625 91.988281 72.515625 C 92.289062 72.515625 92.644531 72.382812 93.050781 72.109375 Z M 98.9375 72.84375 L 98.9375 71.359375 L 99.484375 71.359375 L 99.484375 71.453125 C 99.492188 71.632812 99.5 71.761719 99.5 71.84375 C 99.5 72.011719 99.519531 72.136719 99.5625 72.21875 C 99.601562 72.292969 99.695312 72.375 99.84375 72.46875 C 100.207031 72.699219 100.613281 72.8125 101.0625 72.8125 C 101.519531 72.8125 101.878906 72.683594 102.140625 72.421875 C 102.398438 72.152344 102.53125 71.789062 102.53125 71.328125 C 102.53125 70.945312 102.445312 70.636719 102.28125 70.40625 C 102.113281 70.179688 101.789062 69.929688 101.3125 69.65625 L 100.765625 69.34375 C 100.117188 68.980469 99.660156 68.632812 99.390625 68.296875 C 99.117188 67.964844 98.984375 67.585938 98.984375 67.15625 C 98.984375 66.5625 99.195312 66.074219 99.625 65.6875 C 100.050781 65.292969 100.585938 65.09375 101.234375 65.09375 C 101.785156 65.09375 102.429688 65.203125 103.171875 65.421875 L 103.171875 66.796875 L 102.59375 66.796875 L 102.59375 66.703125 C 102.582031 66.515625 102.578125 66.382812 102.578125 66.296875 C 102.578125 65.984375 102.484375 65.777344 102.296875 65.671875 C 102.035156 65.515625 101.695312 65.4375 101.28125 65.4375 C 100.90625 65.4375 100.601562 65.5625 100.375 65.8125 C 100.144531 66.054688 100.03125 66.375 100.03125 66.78125 C 100.03125 67.117188 100.109375 67.398438 100.265625 67.625 C 100.429688 67.84375 100.722656 68.074219 101.140625 68.3125 L 101.6875 68.625 C 102.4375 69.054688 102.941406 69.429688 103.203125 69.75 C 103.472656 70.074219 103.609375 70.476562 103.609375 70.953125 C 103.609375 71.601562 103.367188 72.136719 102.890625 72.5625 C 102.421875 72.980469 101.828125 73.1875 101.109375 73.1875 C 100.753906 73.1875 100.363281 73.148438 99.9375 73.078125 C 99.519531 73.015625 99.1875 72.9375 98.9375 72.84375 Z M 108.984375 72.8125 C 108.441406 73.019531 107.910156 73.125 107.390625 73.125 C 106.566406 73.125 105.894531 72.851562 105.375 72.296875 C 104.863281 71.746094 104.609375 71.027344 104.609375 70.140625 C 104.609375 69.265625 104.851562 68.5625 105.34375 68.03125 C 105.84375 67.492188 106.5 67.21875 107.3125 67.21875 C 107.738281 67.21875 108.296875 67.304688 108.984375 67.46875 L 108.984375 68.828125 L 108.34375 68.828125 L 108.328125 68.734375 C 108.328125 68.320312 108.265625 68.039062 108.140625 67.890625 C 107.953125 67.671875 107.675781 67.5625 107.3125 67.5625 C 106.8125 67.5625 106.414062 67.792969 106.125 68.25 C 105.832031 68.699219 105.6875 69.308594 105.6875 70.078125 C 105.6875 70.859375 105.859375 71.480469 106.203125 71.9375 C 106.546875 72.398438 107.019531 72.625 107.625 72.625 C 108.132812 72.625 108.585938 72.539062 108.984375 72.359375 Z M 112.695312 73.125 C 111.882812 73.125 111.234375 72.859375 110.757812 72.328125 C 110.277344 71.796875 110.039062 71.078125 110.039062 70.171875 C 110.039062 69.257812 110.277344 68.539062 110.757812 68.015625 C 111.246094 67.484375 111.90625 67.21875 112.742188 67.21875 C 113.574219 67.21875 114.230469 67.484375 114.710938 68.015625 C 115.199219 68.539062 115.445312 69.25 115.445312 70.15625 C 115.445312 71.085938 115.199219 71.8125 114.710938 72.34375 C 114.21875 72.867188 113.546875 73.125 112.695312 73.125 Z M 112.710938 72.8125 C 113.1875 72.8125 113.578125 72.5625 113.882812 72.0625 C 114.195312 71.5625 114.351562 70.929688 114.351562 70.15625 C 114.351562 69.417969 114.195312 68.796875 113.882812 68.296875 C 113.578125 67.789062 113.199219 67.53125 112.742188 67.53125 C 112.28125 67.53125 111.898438 67.789062 111.585938 68.296875 C 111.28125 68.796875 111.132812 69.421875 111.132812 70.171875 C 111.132812 70.921875 111.28125 71.554688 111.585938 72.0625 C 111.886719 72.5625 112.261719 72.8125 112.710938 72.8125 Z M 119.707031 72.96875 C 119.445312 73.070312 119.199219 73.125 118.972656 73.125 C 118.441406 73.125 118.019531 72.992188 117.707031 72.71875 C 117.527344 72.554688 117.402344 72.367188 117.332031 72.15625 C 117.269531 71.949219 117.238281 71.640625 117.238281 71.234375 L 117.238281 67.765625 L 116.410156 67.765625 L 116.410156 67.34375 L 117.238281 67.34375 L 117.238281 66.3125 L 118.269531 66.0625 L 118.269531 67.34375 L 119.847656 67.34375 L 119.847656 67.765625 L 118.269531 67.765625 L 118.269531 71.375 C 118.269531 71.867188 118.316406 72.1875 118.410156 72.34375 C 118.542969 72.59375 118.777344 72.71875 119.113281 72.71875 C 119.277344 72.71875 119.476562 72.664062 119.707031 72.546875 Z M 122.320312 67.34375 L 122.320312 71.65625 C 122.320312 71.9375 122.339844 72.1875 122.382812 72.40625 C 122.402344 72.492188 122.4375 72.546875 122.492188 72.578125 C 122.554688 72.609375 122.667969 72.632812 122.835938 72.640625 L 123.179688 72.671875 L 123.289062 72.671875 L 123.289062 73 L 120.320312 73 L 120.320312 72.671875 L 120.429688 72.671875 L 120.773438 72.640625 C 120.96875 72.632812 121.09375 72.601562 121.148438 72.546875 C 121.210938 72.496094 121.246094 72.371094 121.257812 72.171875 L 121.289062 71.65625 L 121.289062 68.6875 L 121.257812 68.1875 C 121.246094 67.992188 121.210938 67.867188 121.148438 67.8125 C 121.09375 67.75 120.96875 67.714844 120.773438 67.703125 L 120.429688 67.671875 L 120.320312 67.65625 L 120.320312 67.34375 Z M 121.289062 66.3125 L 121.289062 65.28125 L 122.320312 65.28125 L 122.320312 66.3125 Z M 127.425781 72.21875 C 127.082031 72.5625 126.773438 72.804688 126.503906 72.9375 C 126.242188 73.0625 125.945312 73.125 125.613281 73.125 C 125.132812 73.125 124.730469 72.976562 124.410156 72.671875 C 124.085938 72.371094 123.925781 71.992188 123.925781 71.53125 C 123.925781 71 124.132812 70.570312 124.550781 70.234375 C 124.820312 70.015625 125.132812 69.867188 125.488281 69.78125 C 125.851562 69.699219 126.347656 69.65625 126.972656 69.65625 L 127.191406 69.65625 L 127.191406 68.953125 C 127.191406 68.058594 126.851562 67.609375 126.175781 67.609375 C 125.851562 67.609375 125.570312 67.710938 125.332031 67.90625 C 125.183594 68.023438 125.097656 68.261719 125.066406 68.625 L 125.050781 68.734375 L 124.363281 68.734375 L 124.363281 67.6875 C 125.082031 67.375 125.746094 67.21875 126.363281 67.21875 C 126.894531 67.21875 127.332031 67.34375 127.675781 67.59375 C 127.882812 67.75 128.023438 67.921875 128.097656 68.109375 C 128.167969 68.296875 128.207031 68.5625 128.207031 68.90625 L 128.207031 71.4375 C 128.207031 71.886719 128.242188 72.203125 128.316406 72.390625 C 128.398438 72.570312 128.539062 72.65625 128.738281 72.65625 C 128.808594 72.65625 128.902344 72.640625 129.019531 72.609375 L 129.050781 73 C 128.800781 73.082031 128.574219 73.125 128.378906 73.125 C 127.878906 73.125 127.558594 72.824219 127.425781 72.21875 Z M 127.191406 72.109375 L 127.191406 69.984375 L 126.941406 69.984375 C 126.335938 69.984375 125.863281 70.109375 125.519531 70.359375 C 125.183594 70.601562 125.019531 70.945312 125.019531 71.390625 C 125.019531 71.714844 125.121094 71.984375 125.332031 72.203125 C 125.539062 72.414062 125.804688 72.515625 126.128906 72.515625 C 126.429688 72.515625 126.785156 72.382812 127.191406 72.109375 Z M 127.191406 72.109375 "/>
<path style=" stroke:none;fill-rule:nonzero;fill:rgb(0%,0%,0%);fill-opacity:1;" d="M 110.09375 61.765625 L 98 60.0625 L 98.09375 59.4375 L 110.1875 61.140625 Z M 110.09375 61.765625 "/>
<path style=" stroke:none;fill-rule:nonzero;fill:rgb(0%,0%,0%);fill-opacity:1;" d="M 76.765625 56.21875 L 76.765625 62.65625 L 76.796875 63.171875 C 76.804688 63.328125 76.828125 63.4375 76.859375 63.5 C 76.890625 63.554688 76.945312 63.589844 77.03125 63.609375 C 77.238281 63.652344 77.4375 63.671875 77.625 63.671875 L 78.234375 63.671875 L 78.234375 64 L 74.25 64 L 74.25 63.671875 L 74.859375 63.671875 C 75.054688 63.671875 75.253906 63.652344 75.453125 63.609375 C 75.546875 63.589844 75.609375 63.554688 75.640625 63.5 C 75.671875 63.4375 75.691406 63.328125 75.703125 63.171875 L 75.734375 62.65625 L 75.734375 57.859375 L 75.703125 57.34375 C 75.703125 57.1875 75.6875 57.089844 75.65625 57.046875 C 75.625 56.996094 75.566406 56.96875 75.484375 56.96875 C 75.378906 56.96875 75.140625 57.007812 74.765625 57.078125 L 74.25 57.171875 L 74.25 56.84375 Z M 80.460938 63.953125 L 80.460938 62.59375 L 80.976562 62.59375 L 80.976562 62.703125 L 80.992188 63.0625 C 80.992188 63.273438 81.070312 63.429688 81.226562 63.53125 C 81.558594 63.761719 81.933594 63.875 82.351562 63.875 C 82.796875 63.875 83.164062 63.699219 83.445312 63.34375 C 83.726562 62.980469 83.867188 62.507812 83.867188 61.921875 C 83.867188 61.328125 83.683594 60.871094 83.320312 60.546875 C 82.953125 60.214844 82.449219 60.046875 81.804688 60.046875 L 81.164062 60.046875 L 81.164062 59.734375 L 81.507812 59.734375 C 82.277344 59.734375 82.835938 59.601562 83.179688 59.328125 C 83.523438 59.046875 83.695312 58.59375 83.695312 57.96875 C 83.695312 57.480469 83.570312 57.101562 83.320312 56.828125 C 83.078125 56.546875 82.742188 56.40625 82.304688 56.40625 C 81.90625 56.40625 81.558594 56.496094 81.257812 56.671875 C 81.171875 56.714844 81.121094 56.765625 81.101562 56.828125 C 81.089844 56.890625 81.070312 57.109375 81.039062 57.484375 L 81.023438 57.5625 L 80.507812 57.5625 L 80.507812 56.390625 C 81.070312 56.195312 81.699219 56.09375 82.398438 56.09375 C 83.117188 56.09375 83.679688 56.257812 84.085938 56.578125 C 84.5 56.890625 84.710938 57.320312 84.710938 57.859375 C 84.710938 58.789062 84.167969 59.445312 83.085938 59.828125 C 83.75 60.007812 84.226562 60.25 84.507812 60.5625 C 84.796875 60.875 84.945312 61.3125 84.945312 61.875 C 84.945312 62.59375 84.710938 63.164062 84.242188 63.578125 C 83.78125 63.984375 83.15625 64.1875 82.367188 64.1875 C 81.636719 64.1875 81 64.109375 80.460938 63.953125 Z M 89.1875 64.1875 C 88.394531 64.1875 87.753906 63.824219 87.265625 63.09375 C 86.773438 62.355469 86.53125 61.382812 86.53125 60.171875 C 86.53125 58.921875 86.773438 57.933594 87.265625 57.203125 C 87.753906 56.464844 88.410156 56.09375 89.234375 56.09375 C 90.046875 56.09375 90.695312 56.464844 91.1875 57.203125 C 91.6875 57.933594 91.9375 58.917969 91.9375 60.15625 C 91.9375 61.398438 91.6875 62.382812 91.1875 63.109375 C 90.695312 63.828125 90.03125 64.1875 89.1875 64.1875 Z M 89.203125 63.875 C 89.710938 63.898438 90.125 63.589844 90.4375 62.953125 C 90.582031 62.640625 90.6875 62.277344 90.75 61.859375 C 90.8125 61.433594 90.84375 60.84375 90.84375 60.09375 C 90.84375 58.804688 90.707031 57.886719 90.4375 57.34375 C 90.132812 56.71875 89.734375 56.40625 89.234375 56.40625 C 88.722656 56.40625 88.316406 56.71875 88.015625 57.34375 C 87.867188 57.648438 87.765625 58.007812 87.703125 58.421875 C 87.648438 58.839844 87.625 59.414062 87.625 60.140625 C 87.625 60.882812 87.648438 61.460938 87.703125 61.875 C 87.765625 62.292969 87.867188 62.648438 88.015625 62.9375 C 88.304688 63.542969 88.703125 63.855469 89.203125 63.875 Z M 93.695312 64.015625 L 93.695312 62.71875 L 94.210938 62.71875 L 94.210938 62.84375 L 94.226562 63.234375 C 94.246094 63.664062 94.578125 63.875 95.226562 63.875 C 95.714844 63.875 96.09375 63.6875 96.367188 63.3125 C 96.648438 62.9375 96.789062 62.429688 96.789062 61.78125 C 96.789062 61.054688 96.570312 60.53125 96.132812 60.21875 C 95.703125 59.898438 94.996094 59.734375 94.007812 59.734375 L 93.820312 59.734375 L 93.820312 56.28125 L 97.710938 56.28125 L 97.710938 57.1875 L 94.148438 57.1875 L 94.148438 59.34375 L 94.617188 59.34375 C 95.679688 59.34375 96.484375 59.558594 97.039062 59.984375 C 97.601562 60.402344 97.882812 61.011719 97.882812 61.8125 C 97.882812 62.5625 97.625 63.148438 97.117188 63.5625 C 96.617188 63.980469 95.929688 64.1875 95.054688 64.1875 C 94.617188 64.1875 94.164062 64.128906 93.695312 64.015625 Z M 93.695312 64.015625 "/>
</g>
</svg>
