<?xml version="1.0" encoding="UTF-8"?>
<svg xmlns="http://www.w3.org/2000/svg" xmlns:xlink="http://www.w3.org/1999/xlink" width="200" height="150" viewBox="0 0 200 150">
<defs>
<filter id="filter-remove-color-and-invert-alpha" x="0%" y="0%" width="100%" height="100%">
<feColorMatrix color-interpolation-filters="sRGB" values="0 0 0 0 1 0 0 0 0 1 0 0 0 0 1 0 0 0 -1 1"/>
</filter>
<filter id="filter-0" x="0%" y="0%" width="100%" height="100%">
<feImage xlink:href="#compositing-group-1" result="source" x="0" y="0" width="240" height="180"/>
<feImage xlink:href="#compositing-group-2" result="destination" x="0" y="0" width="240" height="180"/>
<feComposite in="source" in2="destination" operator="arithmetic" k1="0" k2="1" k3="1" k4="0" color-interpolation-filters="sRGB"/>
</filter>
<g id="compositing-group-0" transform="translate(20, 15)">
<rect x="-20" y="-15" width="240" height="180" fill="rgb(0%, 0%, 0%)" fill-opacity="0"/>
<rect x="-20" y="-15" width="240" height="180" fill="rgb(100%, 100%, 100%)" fill-opacity="1"/>
</g>
<mask id="mask-0">
<use xlink:href="#compositing-group-0"/>
</mask>
<mask id="mask-1">
<use xlink:href="#compositing-group-0" filter="url(#filter-remove-color-and-invert-alpha)"/>
</mask>
<g id="compositing-group-1" mask="url(#mask-0)">
<g transform="translate(20, 15)">
<rect x="-20" y="-15" width="240" height="180" fill="rgb(100%, 100%, 100%)" fill-opacity="1"/>
</g>
</g>
<g id="compositing-group-2" mask="url(#mask-1)">
<g transform="translate(20, 15)">
</g>
</g>
</defs>
<g filter="url(#filter-0)" transform="translate(-20, -15)">
<rect x="0" y="0" width="240" height="180" fill="rgb(0%, 0%, 0%)" fill-opacity="1"/>
</g>
<path fill-rule="nonzero" fill="rgb(100%, 0%, 0%)" fill-opacity="1" d="M 29 124.167969 C 29 129.5 21 129.5 21 124.167969 C 21 118.832031 29 118.832031 29 124.167969 "/>
<path fill-rule="nonzero" fill="rgb(100%, 0%, 0%)" fill-opacity="1" d="M 103.5 49.667969 C 103.5 55 95.5 55 95.5 49.667969 C 95.5 44.332031 103.5 44.332031 103.5 49.667969 "/>
<path fill="none" stroke-width="1" stroke-linecap="round" stroke-linejoin="round" stroke="rgb(0%, 0%, 0%)" stroke-opacity="1" stroke-miterlimit="10" d="M 21.25 124.167969 L 28.75 124.167969 M 26.25 121.667969 L 28.75 124.167969 L 26.25 126.667969 "/>
<path fill="none" stroke-width="1" stroke-linecap="round" stroke-linejoin="round" stroke="rgb(0%, 0%, 0%)" stroke-opacity="1" stroke-miterlimit="10" d="M 96.847656 52.316406 L 102.152344 47.015625 M 98.617188 47.015625 L 102.152344 47.015625 L 102.152344 50.550781 "/>
</svg>
