<?xml version="1.0" encoding="UTF-8"?>
<svg xmlns="http://www.w3.org/2000/svg" xmlns:xlink="http://www.w3.org/1999/xlink" width="200" height="150" viewBox="0 0 200 150">
<defs>
<filter id="filter-remove-color-and-invert-alpha" x="0%" y="0%" width="100%" height="100%">
<feColorMatrix color-interpolation-filters="sRGB" values="0 0 0 0 1 0 0 0 0 1 0 0 0 0 1 0 0 0 -1 1"/>
</filter>
<filter id="filter-0" x="0%" y="0%" width="100%" height="100%">
<feImage xlink:href="#compositing-group-1" result="source" x="0" y="0" width="240" height="180"/>
<feImage xlink:href="#compositing-group-2" result="destination" x="0" y="0" width="240" height="180"/>
<feComposite in="source" in2="destination" operator="arithmetic" k1="0" k2="1" k3="1" k4="0" color-interpolation-filters="sRGB"/>
</filter>
<g id="compositing-group-0" transform="translate(20, 15)">
<rect x="-20" y="-15" width="240" height="180" fill="rgb(0%, 0%, 0%)" fill-opacity="0"/>
<rect x="-20" y="-15" width="240" height="180" fill="rgb(100%, 100%, 100%)" fill-opacity="1"/>
</g>
<mask id="mask-0">
<use xlink:href="#compositing-group-0"/>
</mask>
<mask id="mask-1">
<use xlink:href="#compositing-group-0" filter="url(#filter-remove-color-and-invert-alpha)"/>
</mask>
<g id="compositing-group-1" mask="url(#mask-0)">
<g transform="translate(20, 15)">
<rect x="-20" y="-15" width="240" height="180" fill="rgb(100%, 100%, 100%)" fill-opacity="1"/>
</g>
</g>
<g id="compositing-group-2" mask="url(#mask-1)">
<g transform="translate(20, 15)">
</g>
</g>
</defs>
<g filter="url(#filter-0)" transform="translate(-20, -15)">
<rect x="0" y="0" width="240" height="180" fill="rgb(0%, 0%, 0%)" fill-opacity="1"/>
</g>
<path fill-rule="nonzero" fill="rgb(100%, 0%, 0%)" fill-opacity="1" d="M 29 124.167969 C 29 129.5 21 129.5 21 124.167969 C 21 118.832031 29 118.832031 29 124.167969 "/>
<path fill-rule="nonzero" fill="rgb(100%, 0%, 0%)" fill-opacity="1" d="M 103.5 49.667969 C 103.5 55 95.5 55 95.5 49.667969 C 95.5 44.332031 103.5 44.332031 103.5 49.667969 "/>
<path fill-rule="nonzero" fill="rgb(0%, 0%, 0%)" fill-opacity="1" d="M 21.210938 127.035156 L 20.382812 128.957031 C 20.257812 129.21875 20.183594 129.394531 20.164062 129.488281 L 19.945312 130.175781 C 19.902344 130.300781 19.882812 130.40625 19.882812 130.488281 C 19.882812 130.75 20.136719 130.878906 20.648438 130.878906 L 21.304688 130.878906 L 21.304688 131.488281 L 17.554688 131.488281 L 17.554688 130.878906 L 17.757812 130.878906 L 18.226562 130.847656 C 18.445312 130.839844 18.617188 130.777344 18.742188 130.660156 C 18.867188 130.535156 18.996094 130.3125 19.132812 129.988281 L 19.570312 128.957031 L 24.664062 116.847656 L 25.351562 116.847656 L 30.414062 129.019531 L 30.914062 130.035156 C 31.089844 130.410156 31.242188 130.640625 31.367188 130.722656 C 31.492188 130.796875 31.773438 130.847656 32.210938 130.878906 L 32.445312 130.878906 L 32.445312 131.488281 L 27.070312 131.488281 L 27.070312 130.878906 L 27.851562 130.878906 C 28.359375 130.878906 28.617188 130.75 28.617188 130.488281 C 28.617188 130.105469 28.480469 129.59375 28.210938 128.957031 L 27.398438 127.035156 Z M 21.523438 126.238281 L 27.054688 126.238281 L 24.304688 119.660156 Z M 21.523438 126.238281 "/>
<path fill-rule="nonzero" fill="rgb(0%, 0%, 0%)" fill-opacity="1" d="M 98.832031 54.375 L 99.613281 56.3125 C 99.707031 56.59375 99.777344 56.773438 99.832031 56.84375 L 100.175781 57.5 C 100.226562 57.617188 100.285156 57.703125 100.347656 57.765625 C 100.523438 57.945312 100.792969 57.851562 101.160156 57.484375 L 101.628906 57.015625 L 102.066406 57.453125 L 99.410156 60.109375 L 98.972656 59.671875 L 99.113281 59.53125 L 99.425781 59.1875 C 99.570312 59.023438 99.644531 58.855469 99.644531 58.6875 C 99.652344 58.511719 99.589844 58.261719 99.457031 57.9375 L 99.035156 56.890625 L 94.082031 44.71875 L 94.566406 44.234375 L 106.753906 49.265625 L 107.832031 49.625 C 108.226562 49.773438 108.492188 49.828125 108.628906 49.796875 C 108.773438 49.757812 109.007812 49.59375 109.332031 49.3125 L 109.503906 49.140625 L 109.941406 49.578125 L 106.144531 53.375 L 105.707031 52.9375 L 106.253906 52.390625 C 106.617188 52.027344 106.710938 51.757812 106.535156 51.578125 C 106.261719 51.308594 105.800781 51.042969 105.144531 50.78125 L 103.207031 50 Z M 98.503906 53.578125 L 102.410156 49.671875 L 95.816406 46.984375 Z M 98.503906 53.578125 "/>
</svg>
