<?xml version="1.0" encoding="UTF-8"?>
<svg xmlns="http://www.w3.org/2000/svg" xmlns:xlink="http://www.w3.org/1999/xlink" width="200" height="150" viewBox="0 0 200 150">
<defs>
<filter id="filter-remove-color-and-invert-alpha" x="0%" y="0%" width="100%" height="100%">
<feColorMatrix color-interpolation-filters="sRGB" values="0 0 0 0 1 0 0 0 0 1 0 0 0 0 1 0 0 0 -1 1"/>
</filter>
<filter id="filter-0" x="0%" y="0%" width="100%" height="100%">
<feImage xlink:href="#compositing-group-1" result="source" x="0" y="0" width="240" height="180"/>
<feImage xlink:href="#compositing-group-2" result="destination" x="0" y="0" width="240" height="180"/>
<feComposite in="source" in2="destination" operator="arithmetic" k1="0" k2="1" k3="1" k4="0" color-interpolation-filters="sRGB"/>
</filter>
<g id="compositing-group-0" transform="translate(20, 15)">
<rect x="-20" y="-15" width="240" height="180" fill="rgb(0%, 0%, 0%)" fill-opacity="0"/>
<rect x="-20" y="-15" width="240" height="180" fill="rgb(100%, 100%, 100%)" fill-opacity="1"/>
</g>
<mask id="mask-0">
<use xlink:href="#compositing-group-0"/>
</mask>
<mask id="mask-1">
<use xlink:href="#compositing-group-0" filter="url(#filter-remove-color-and-invert-alpha)"/>
</mask>
<g id="compositing-group-1" mask="url(#mask-0)">
<g transform="translate(20, 15)">
<rect x="-20" y="-15" width="240" height="180" fill="rgb(100%, 100%, 100%)" fill-opacity="1"/>
</g>
</g>
<g id="compositing-group-2" mask="url(#mask-1)">
<g transform="translate(20, 15)">
</g>
</g>
</defs>
<g filter="url(#filter-0)" transform="translate(-20, -15)">
<rect x="0" y="0" width="240" height="180" fill="rgb(0%, 0%, 0%)" fill-opacity="1"/>
</g>
<path fill-rule="evenodd" fill="rgb(100%, 100%, 100%)" fill-opacity="1" stroke-width="1" stroke-linecap="butt" stroke-linejoin="miter" stroke="rgb(0%, 0%, 0%)" stroke-opacity="1" stroke-miterlimit="4" d="M 404.611 20.517083 L 732.718625 587.577833 C 761.285375 633.226208 750.246125 660.096583 688.356625 655.396958 L 51.155125 654.925458 C 6.782875 655.996583 -12.722875 631.627208 10.114125 595.234583 C 10.98025 593.814958 343.08025 20.506833 343.08025 20.506833 C 357.496875 -6.189292 390.727375 -5.912542 404.611 20.517083 Z M 404.611 20.517083 " transform="matrix(0.762195, 0, 0, 0.762195, -259.29878, -125.833333)"/>
<path fill-rule="nonzero" fill="rgb(79.607843%, 0%, 0%)" fill-opacity="1" d="M -234.257812 362.613281 C -242.324219 361.671875 -248.351562 349.59375 -245.410156 339.695312 C -244.5625 336.847656 12.234375 -104.078125 14.496094 -107.476562 C 22.585938 -119.628906 36.195312 -113.570312 39.753906 -106.867188 C 40.976562 -104.558594 290.6875 332.046875 291.484375 333.480469 C 299.175781 347.296875 296.769531 362.496094 282.96875 362.363281 C 281.144531 362.34375 -233 362.921875 -234.257812 362.613281 Z M 26.253906 -31.125 C 25.816406 -31.117188 -171.847656 311.953125 -171.824219 311.976562 C -171.800781 312 224.460938 313.128906 224.472656 313.105469 C 224.492188 313.082031 26.648438 -31.132812 26.253906 -31.125 Z M 26.253906 -31.125 "/>
<path fill-rule="nonzero" fill="rgb(0.392157%, 0.392157%, 0.392157%)" fill-opacity="1" d="M -85.097656 272.75 C -85.453125 271.957031 -38.378906 185.210938 -37.800781 184.839844 C -36.589844 184.058594 -9.761719 197.847656 -7.078125 200.628906 L 12.078125 229.855469 L 14.734375 296.417969 C 4.804688 296.417969 1.195312 292.351562 -2.621094 286.398438 L -6.15625 238.109375 C -6.15625 238.109375 -27.570312 206.878906 -27.917969 207.441406 C -32.089844 214.121094 -70.054688 283.058594 -77.179688 294.019531 C -77.402344 294.363281 -85.097656 292.953125 -85.097656 272.75 Z M 27.972656 290.636719 C 29.566406 287.996094 58.4375 253.710938 61.679688 252.578125 C 70.449219 249.511719 76.738281 240.65625 93.207031 220.628906 C 102.425781 209.421875 119.269531 210.660156 124.414062 216.570312 C 131.96875 225.253906 186.90625 296.242188 182.578125 296.246094 C 182.578125 296.246094 33.957031 296.417969 29.847656 296.417969 C 25.683594 296.417969 26.105469 293.726562 27.972656 290.636719 Z M 26.792969 215.445312 C 25.621094 215.433594 25.222656 222.3125 21.585938 222.496094 C 18.636719 222.640625 12.917969 215.464844 11.792969 212.792969 C 11.222656 211.441406 10.367188 207.660156 11.101562 203.605469 C 11.226562 202.902344 -2.714844 196.972656 0.800781 189.824219 C 4.21875 182.875 9.980469 189.59375 11.8125 191.007812 C 13.464844 192.285156 12.378906 164.148438 11.265625 165.34375 C 11.082031 165.539062 -4.933594 195.046875 -5.285156 195.046875 C -6.507812 195.046875 -34.5625 179.898438 -34.828125 179.09375 C -34.976562 178.648438 -9.035156 129.21875 -9.890625 128.675781 C -11.109375 127.902344 -25.046875 127.71875 -26.953125 128.453125 C -28.355469 128.988281 -38.023438 147.75 -38.023438 149.929688 C -38.023438 150.734375 -28.113281 159.613281 -28.113281 160.039062 C -28.113281 161.054688 -31.078125 166.84375 -31.601562 166.84375 C -31.824219 166.84375 -42.792969 157.699219 -42.984375 157.699219 C -43.179688 157.699219 -48.21875 166.84375 -48.542969 166.84375 L -56.628906 159.234375 L -56.515625 145.882812 L -35.796875 111.964844 C -35.796875 111.964844 18.539062 112.035156 21.808594 113.570312 C 26.261719 115.664062 29.101562 118.988281 30.859375 124.164062 C 32.269531 128.316406 27.757812 203.90625 28.003906 204.554688 C 28.253906 205.199219 72.496094 242.855469 72.496094 243.375 C 72.496094 244.824219 69.152344 247.640625 67.492188 247.59375 C 66.679688 247.570312 27.300781 215.449219 26.792969 215.445312 Z M 26.792969 215.445312 "/>
<path fill-rule="evenodd" fill="rgb(0%, 0%, 0%)" fill-opacity="1" stroke-width="1.187826" stroke-linecap="round" stroke-linejoin="round" stroke="rgb(0%, 0%, 0%)" stroke-opacity="1" stroke-miterlimit="6.5" d="M 422.953375 290.117708 C 428.473 302.089708 423.266 315.993833 411.4375 321.369958 C 399.609 326.751208 385.61775 321.580083 380.200625 309.828458 C 374.788625 298.081958 379.9905 284.177833 391.819 278.801708 C 403.570625 273.456333 417.45425 278.504458 422.953375 290.117708 Z M 422.953375 290.117708 " transform="matrix(0.762195, 0, 0, 0.762195, -259.29878, -125.833333)"/>
<path fill-rule="evenodd" fill="rgb(100%, 100%, 100%)" fill-opacity="1" stroke-width="1" stroke-linecap="butt" stroke-linejoin="miter" stroke="rgb(0%, 0%, 0%)" stroke-opacity="1" stroke-miterlimit="4" d="M 404.615976 20.504706 L 732.712719 587.582649 C 761.275816 633.211125 750.27227 660.094039 688.369089 655.38294 L 51.151778 654.921714 C 6.775202 656.00889 -12.728088 631.629777 10.102622 595.225831 C 10.99213 593.809207 343.075187 20.504706 343.075187 20.504706 C 357.504987 -6.18054 390.713293 -5.916982 404.615976 20.504706 Z M 404.615976 20.504706 " transform="matrix(0.0592849, -0.0592849, 0.0592849, 0.0592849, 57.941308, 52.334486)"/>
<path fill-rule="nonzero" fill="rgb(79.607843%, 0%, 0%)" fill-opacity="1" d="M 97.882812 88.378906 C 97.179688 88.933594 95.773438 88.460938 95.230469 87.464844 C 95.074219 87.175781 80.753906 32.90625 80.664062 32.464844 C 80.347656 30.890625 81.878906 30.304688 82.675781 30.550781 C 82.953125 30.632812 136.335938 45.171875 136.507812 45.21875 C 138.179688 45.695312 139.175781 47.066406 138.09375 48.128906 C 137.949219 48.269531 98.003906 88.304688 97.882812 88.378906 Z M 87.519531 37.492188 C 87.484375 37.523438 98.796875 79.585938 98.800781 79.585938 C 98.800781 79.585938 129.710938 48.851562 129.710938 48.847656 C 129.710938 48.84375 87.550781 37.457031 87.519531 37.492188 Z M 87.519531 37.492188 "/>
<path fill-rule="nonzero" fill="rgb(0.392157%, 0.392157%, 0.392157%)" fill-opacity="1" d="M 102.492188 69.789062 C 102.402344 69.753906 99.320312 59.34375 99.335938 59.269531 C 99.367188 59.117188 102.527344 58.101562 102.953125 58.109375 L 106.714844 58.890625 L 112.097656 63.863281 C 111.328125 64.636719 110.730469 64.601562 109.96875 64.433594 L 105.9375 60.953125 C 105.9375 60.953125 101.84375 60.1875 101.859375 60.261719 C 102.054688 61.105469 104.464844 69.417969 104.765625 70.824219 C 104.773438 70.871094 104.066406 71.359375 102.492188 69.789062 Z M 112.679688 62.382812 C 112.597656 62.054688 112.175781 57.140625 112.339844 56.800781 C 112.785156 55.882812 112.585938 54.703125 112.308594 51.863281 C 112.152344 50.277344 113.558594 49.0625 114.417969 49.121094 C 115.683594 49.210938 125.476562 50.457031 125.140625 50.792969 C 125.140625 50.792969 113.59375 62.367188 113.273438 62.6875 C 112.949219 63.011719 112.773438 62.769531 112.679688 62.382812 Z M 106.738281 56.625 C 106.648438 56.71875 107.152344 57.285156 106.882812 57.582031 C 106.664062 57.820312 105.660156 57.707031 105.367188 57.585938 C 105.21875 57.527344 104.855469 57.300781 104.597656 56.925781 C 104.554688 56.863281 103.007812 57.484375 102.726562 56.65625 C 102.449219 55.851562 103.421875 55.925781 103.671875 55.890625 C 103.902344 55.863281 101.628906 53.757812 101.632812 53.9375 C 101.636719 53.96875 102.683594 57.507812 102.65625 57.535156 C 102.5625 57.628906 99.203125 58.632812 99.117188 58.59375 C 99.074219 58.570312 97.246094 52.707031 97.136719 52.730469 C 96.980469 52.765625 95.882812 53.835938 95.792969 54.039062 C 95.726562 54.191406 96.433594 56.402344 96.601562 56.574219 C 96.664062 56.636719 98.125 56.554688 98.160156 56.589844 C 98.238281 56.667969 98.457031 57.347656 98.417969 57.390625 C 98.398438 57.40625 96.835938 57.546875 96.820312 57.5625 C 96.804688 57.578125 97.125 58.679688 97.097656 58.707031 L 95.878906 58.742188 L 94.847656 57.695312 L 93.820312 53.445312 C 93.820312 53.445312 98.054688 49.226562 98.425781 49.089844 C 98.9375 48.90625 99.417969 48.945312 99.957031 49.210938 C 100.386719 49.425781 105.917969 55.65625 105.988281 55.6875 C 106.054688 55.714844 112.425781 55.203125 112.464844 55.246094 C 112.578125 55.355469 112.539062 55.835938 112.40625 55.960938 C 112.339844 56.023438 106.777344 56.585938 106.738281 56.625 Z M 106.738281 56.625 "/>
<path fill-rule="evenodd" fill="rgb(0%, 0%, 0%)" fill-opacity="1" stroke-width="1.187826" stroke-linecap="round" stroke-linejoin="round" stroke="rgb(0%, 0%, 0%)" stroke-opacity="1" stroke-miterlimit="6.5" d="M 422.933256 290.124522 C 428.467974 302.11641 423.262703 316.019093 411.435539 321.389087 C 399.608375 326.759081 385.606857 321.586756 380.203918 309.858426 C 374.80098 298.064206 380.00625 284.161522 391.833414 278.791528 C 403.561744 273.454479 417.431483 278.495026 422.933256 290.124522 Z M 422.933256 290.124522 " transform="matrix(0.0592849, -0.0592849, 0.0592849, 0.0592849, 57.941308, 52.334486)"/>
<path fill-rule="evenodd" fill="rgb(100%, 100%, 100%)" fill-opacity="1" stroke-width="1" stroke-linecap="butt" stroke-linejoin="miter" stroke="rgb(0%, 0%, 0%)" stroke-opacity="1" stroke-miterlimit="4" d="M 398.625 29.041667 L 731.75 592.791667 C 757.375 644.041667 757.375 669.666667 680.5 644.041667 L 39.875 644.041667 C 14.25 644.041667 -11.375 644.041667 14.25 592.791667 C 14.25 592.791667 347.375 29.041667 347.375 29.041667 C 347.375 3.416667 398.625 3.416667 398.625 29.041667 Z M 398.625 29.041667 " transform="matrix(0.000152439, 0, 0, 0.000152439, 99.44314, 49.616667)"/>
<path fill-rule="nonzero" fill="rgb(79.607843%, 0%, 0%)" fill-opacity="1" d="M 99.449219 49.714844 C 99.445312 49.714844 99.445312 49.710938 99.445312 49.710938 C 99.445312 49.710938 99.496094 49.621094 99.496094 49.621094 C 99.5 49.617188 99.503906 49.617188 99.503906 49.621094 C 99.503906 49.621094 99.554688 49.707031 99.554688 49.707031 C 99.554688 49.710938 99.554688 49.714844 99.550781 49.714844 C 99.550781 49.714844 99.449219 49.714844 99.449219 49.714844 Z M 99.5 49.636719 C 99.5 49.636719 99.460938 49.703125 99.460938 49.703125 C 99.460938 49.703125 99.539062 49.703125 99.539062 49.703125 C 99.539062 49.703125 99.5 49.636719 99.5 49.636719 Z M 99.5 49.636719 "/>
<path fill-rule="nonzero" fill="rgb(0.392157%, 0.392157%, 0.392157%)" fill-opacity="1" d="M 99.476562 49.695312 C 99.476562 49.695312 99.488281 49.679688 99.488281 49.679688 C 99.488281 49.679688 99.492188 49.679688 99.492188 49.683594 L 99.496094 49.6875 L 99.496094 49.699219 L 99.492188 49.691406 C 99.492188 49.691406 99.488281 49.683594 99.488281 49.683594 C 99.488281 49.683594 99.480469 49.699219 99.480469 49.699219 C 99.480469 49.699219 99.476562 49.699219 99.476562 49.695312 Z M 99.5 49.699219 C 99.5 49.699219 99.507812 49.691406 99.507812 49.691406 C 99.507812 49.691406 99.511719 49.691406 99.511719 49.6875 C 99.515625 49.683594 99.519531 49.683594 99.519531 49.683594 C 99.519531 49.6875 99.53125 49.699219 99.53125 49.699219 C 99.53125 49.699219 99.5 49.699219 99.5 49.699219 Z M 99.5 49.683594 C 99.5 49.683594 99.5 49.6875 99.5 49.6875 C 99.5 49.6875 99.496094 49.683594 99.496094 49.683594 C 99.496094 49.683594 99.496094 49.679688 99.496094 49.679688 C 99.496094 49.679688 99.496094 49.675781 99.496094 49.675781 C 99.496094 49.675781 99.492188 49.679688 99.492188 49.679688 C 99.492188 49.679688 99.488281 49.679688 99.488281 49.675781 C 99.488281 49.675781 99.492188 49.667969 99.492188 49.667969 C 99.492188 49.667969 99.488281 49.667969 99.488281 49.667969 C 99.488281 49.667969 99.488281 49.671875 99.488281 49.671875 C 99.488281 49.671875 99.488281 49.671875 99.488281 49.675781 C 99.488281 49.675781 99.488281 49.671875 99.488281 49.671875 C 99.488281 49.671875 99.484375 49.675781 99.484375 49.675781 L 99.484375 49.671875 L 99.488281 49.664062 C 99.488281 49.664062 99.5 49.664062 99.5 49.664062 C 99.5 49.664062 99.5 49.664062 99.5 49.667969 C 99.5 49.667969 99.5 49.683594 99.5 49.683594 C 99.5 49.683594 99.507812 49.691406 99.507812 49.691406 C 99.507812 49.691406 99.5 49.683594 99.5 49.683594 Z M 99.5 49.683594 "/>
<path fill-rule="evenodd" fill="rgb(0%, 0%, 0%)" fill-opacity="1" stroke-width="1.187826" stroke-linecap="round" stroke-linejoin="round" stroke="rgb(0%, 0%, 0%)" stroke-opacity="1" stroke-miterlimit="6.5" d="M 424.25 285.291667 C 424.25 310.916667 424.25 310.916667 424.25 310.916667 C 398.625 336.541667 373 310.916667 373 310.916667 C 373 285.291667 373 285.291667 398.625 285.291667 C 398.625 285.291667 424.25 285.291667 424.25 285.291667 Z M 424.25 285.291667 " transform="matrix(0.000152439, 0, 0, 0.000152439, 99.44314, 49.616667)"/>
<path fill-rule="nonzero" fill="rgb(100%, 0%, 0%)" fill-opacity="1" d="M 29 124.167969 C 29 129.5 21 129.5 21 124.167969 C 21 118.832031 29 118.832031 29 124.167969 "/>
<path fill-rule="nonzero" fill="rgb(100%, 0%, 0%)" fill-opacity="1" d="M 103.5 49.667969 C 103.5 55 95.5 55 95.5 49.667969 C 95.5 44.332031 103.5 44.332031 103.5 49.667969 "/>
</svg>
