<?xml version="1.0" encoding="UTF-8"?>
<svg xmlns="http://www.w3.org/2000/svg" xmlns:xlink="http://www.w3.org/1999/xlink" width="200" height="150" viewBox="0 0 200 150">
<defs>
<filter id="filter-remove-color-and-invert-alpha" x="0%" y="0%" width="100%" height="100%">
<feColorMatrix color-interpolation-filters="sRGB" values="0 0 0 0 1 0 0 0 0 1 0 0 0 0 1 0 0 0 -1 1"/>
</filter>
<filter id="filter-0" x="0%" y="0%" width="100%" height="100%">
<feImage xlink:href="#compositing-group-1" result="source" x="0" y="0" width="240" height="180"/>
<feImage xlink:href="#compositing-group-2" result="destination" x="0" y="0" width="240" height="180"/>
<feComposite in="source" in2="destination" operator="arithmetic" k1="0" k2="1" k3="1" k4="0" color-interpolation-filters="sRGB"/>
</filter>
<g id="compositing-group-0" transform="translate(20, 15)">
<rect x="-20" y="-15" width="240" height="180" fill="rgb(0%, 0%, 0%)" fill-opacity="0"/>
<rect x="-20" y="-15" width="240" height="180" fill="rgb(100%, 100%, 100%)" fill-opacity="1"/>
</g>
<mask id="mask-0">
<use xlink:href="#compositing-group-0"/>
</mask>
<mask id="mask-1">
<use xlink:href="#compositing-group-0" filter="url(#filter-remove-color-and-invert-alpha)"/>
</mask>
<g id="compositing-group-1" mask="url(#mask-0)">
<g transform="translate(20, 15)">
<rect x="-20" y="-15" width="240" height="180" fill="rgb(100%, 100%, 0%)" fill-opacity="1"/>
</g>
</g>
<g id="compositing-group-2" mask="url(#mask-1)">
<g transform="translate(20, 15)">
</g>
</g>
</defs>
<g filter="url(#filter-0)" transform="translate(-20, -15)">
<rect x="0" y="0" width="240" height="180" fill="rgb(0%, 0%, 0%)" fill-opacity="1"/>
</g>
<path fill="none" stroke-width="1" stroke-linecap="round" stroke-linejoin="round" stroke="rgb(70.588235%, 0%, 0%)" stroke-opacity="1" stroke-miterlimit="10" d="M 101.796875 53.503906 L 101.746094 53.488281 L 101.695312 53.476562 L 101.640625 53.464844 L 101.589844 53.457031 L 101.535156 53.453125 L 101.429688 53.453125 L 101.378906 53.457031 L 101.324219 53.464844 L 101.273438 53.472656 L 101.222656 53.484375 L 101.171875 53.5 L 101.070312 53.539062 L 100.976562 53.585938 L 100.929688 53.617188 L 100.886719 53.644531 L 100.847656 53.679688 L 100.804688 53.714844 L 100.765625 53.75 L 100.695312 53.828125 L 100.664062 53.871094 L 100.636719 53.914062 L 100.582031 54.007812 L 100.5625 54.054688 L 100.542969 54.105469 L 97.078125 63.511719 L 97.058594 63.5625 L 97.035156 63.664062 L 97.023438 63.71875 L 97.019531 63.769531 L 97.015625 63.824219 L 97.015625 63.929688 L 97.023438 63.984375 L 97.03125 64.035156 L 97.054688 64.136719 L 97.070312 64.1875 L 97.089844 64.238281 L 97.113281 64.289062 L 97.136719 64.335938 L 97.164062 64.382812 L 97.191406 64.425781 L 97.222656 64.46875 L 97.257812 64.507812 L 97.292969 64.550781 L 97.371094 64.621094 L 97.414062 64.65625 L 97.457031 64.6875 L 97.5 64.714844 L 104.925781 69.167969 L 104.972656 69.195312 L 105.019531 69.21875 L 105.070312 69.242188 L 105.117188 69.257812 L 105.167969 69.273438 L 105.222656 69.289062 L 105.324219 69.304688 L 105.433594 69.3125 L 105.484375 69.3125 L 105.539062 69.308594 L 105.589844 69.300781 L 105.644531 69.292969 L 105.695312 69.277344 L 105.746094 69.265625 L 105.796875 69.246094 L 105.84375 69.226562 L 105.894531 69.203125 L 105.941406 69.179688 L 105.984375 69.148438 L 106.03125 69.121094 L 106.070312 69.085938 L 106.113281 69.054688 L 106.152344 69.015625 L 106.222656 68.9375 L 114.140625 59.035156 L 114.171875 58.996094 L 114.203125 58.953125 L 114.230469 58.90625 L 114.253906 58.863281 L 114.277344 58.816406 L 114.296875 58.765625 L 114.3125 58.71875 L 114.328125 58.667969 L 114.339844 58.617188 L 114.355469 58.515625 L 114.359375 58.460938 L 114.359375 58.359375 L 114.355469 58.308594 L 114.347656 58.253906 L 114.339844 58.203125 L 114.328125 58.152344 L 114.3125 58.105469 L 114.292969 58.054688 L 114.253906 57.960938 L 114.226562 57.914062 L 114.171875 57.828125 L 114.140625 57.785156 L 114.070312 57.707031 L 114.035156 57.671875 L 113.992188 57.636719 L 113.953125 57.605469 L 113.910156 57.578125 L 113.867188 57.546875 L 113.773438 57.5 L 113.726562 57.480469 L 113.675781 57.464844 L 101.796875 53.503906 "/>
<path fill="none" stroke-width="1" stroke-linecap="round" stroke-linejoin="round" stroke="rgb(70.588235%, 0%, 0%)" stroke-opacity="1" stroke-miterlimit="10" d="M 102.082031 55.707031 L 99.238281 63.425781 L 105.207031 67.003906 L 111.683594 58.90625 L 102.082031 55.707031 "/>
<path fill="none" stroke-width="1" stroke-linecap="round" stroke-linejoin="round" stroke="rgb(70.588235%, 0%, 70.588235%)" stroke-opacity="1" stroke-miterlimit="10" d="M 111.480469 64.453125 L 108.015625 73.855469 L 115.441406 78.3125 L 123.359375 68.410156 L 111.480469 64.453125 "/>
<path fill="none" stroke-width="1" stroke-linecap="round" stroke-linejoin="round" stroke="rgb(70.588235%, 0%, 70.588235%)" stroke-opacity="1" stroke-miterlimit="10" d="M 91.480469 44.453125 L 88.015625 53.855469 L 95.441406 58.3125 L 103.359375 48.410156 L 91.480469 44.453125 "/>
<path fill="none" stroke-width="1" stroke-linecap="round" stroke-linejoin="round" stroke="rgb(70.588235%, 0%, 0%)" stroke-opacity="1" stroke-miterlimit="10" d="M 167.550781 36.152344 L 167.5 36.144531 L 167.449219 36.132812 L 167.347656 36.125 L 167.296875 36.125 L 167.242188 36.128906 L 167.191406 36.132812 L 167.140625 36.140625 L 167.039062 36.164062 L 166.992188 36.179688 L 166.941406 36.199219 L 166.894531 36.21875 L 166.847656 36.242188 L 166.804688 36.269531 L 166.757812 36.296875 L 166.71875 36.328125 L 166.675781 36.359375 L 166.636719 36.394531 L 138.917969 62.132812 L 138.878906 62.171875 L 138.808594 62.25 L 138.777344 62.292969 L 138.722656 62.378906 L 138.675781 62.472656 L 138.65625 62.523438 L 138.640625 62.574219 L 138.605469 62.726562 L 138.601562 62.777344 L 138.597656 62.832031 L 138.597656 62.933594 L 138.605469 62.988281 L 138.621094 63.089844 L 138.652344 63.191406 L 138.667969 63.238281 L 138.691406 63.289062 L 138.714844 63.335938 L 138.738281 63.378906 L 138.765625 63.425781 L 138.796875 63.46875 L 138.832031 63.507812 L 138.863281 63.546875 L 138.902344 63.585938 L 138.941406 63.621094 L 138.980469 63.652344 L 139.066406 63.714844 L 139.109375 63.742188 L 139.15625 63.765625 L 139.207031 63.785156 L 139.253906 63.804688 L 139.304688 63.824219 L 139.40625 63.847656 L 139.507812 63.863281 L 139.5625 63.867188 L 139.613281 63.867188 L 199.015625 62.875 L 199.070312 62.875 L 199.121094 62.871094 L 199.171875 62.863281 L 199.226562 62.851562 L 199.277344 62.839844 L 199.328125 62.820312 L 199.375 62.804688 L 199.425781 62.78125 L 199.472656 62.757812 L 199.515625 62.734375 L 199.5625 62.703125 L 199.605469 62.675781 L 199.722656 62.570312 L 199.757812 62.53125 L 199.851562 62.402344 L 199.878906 62.355469 L 199.902344 62.308594 L 199.941406 62.214844 L 199.972656 62.113281 L 199.984375 62.0625 L 199.992188 62.007812 L 199.996094 61.957031 L 200 61.902344 L 200 61.851562 L 199.996094 61.800781 L 199.992188 61.746094 L 199.984375 61.695312 L 199.972656 61.644531 L 199.941406 61.542969 L 199.921875 61.492188 L 199.902344 61.445312 L 199.878906 61.398438 L 199.851562 61.351562 L 199.824219 61.308594 L 199.792969 61.265625 L 199.6875 61.148438 L 199.648438 61.113281 L 199.5625 61.050781 L 199.519531 61.023438 L 199.472656 60.996094 L 199.378906 60.949219 L 199.226562 60.902344 L 199.175781 60.890625 L 161.746094 54.207031 L 194.335938 44.519531 L 194.382812 44.503906 L 194.433594 44.484375 L 194.480469 44.464844 L 194.527344 44.4375 L 194.574219 44.414062 L 194.617188 44.382812 L 194.660156 44.355469 L 194.777344 44.25 L 194.8125 44.210938 L 194.875 44.125 L 194.929688 44.039062 L 194.953125 43.992188 L 194.972656 43.941406 L 194.992188 43.894531 L 195.023438 43.792969 L 195.03125 43.742188 L 195.042969 43.691406 L 195.046875 43.640625 L 195.050781 43.585938 L 195.050781 43.535156 L 195.046875 43.480469 L 195.042969 43.429688 L 195.03125 43.378906 L 195.023438 43.328125 L 194.992188 43.226562 L 194.972656 43.179688 L 194.953125 43.128906 L 194.929688 43.082031 L 194.875 42.996094 L 194.84375 42.953125 L 194.808594 42.910156 L 194.773438 42.871094 L 194.738281 42.835938 L 194.699219 42.800781 L 194.660156 42.769531 L 194.574219 42.707031 L 194.433594 42.636719 L 194.382812 42.617188 L 194.335938 42.601562 L 194.285156 42.589844 L 167.550781 36.152344 "/>
<path fill="none" stroke-width="1" stroke-linecap="round" stroke-linejoin="round" stroke="rgb(70.588235%, 0%, 0%)" stroke-opacity="1" stroke-miterlimit="10" d="M 167.605469 38.222656 L 142.191406 61.824219 L 188.675781 61.046875 L 157.242188 55.4375 L 157.191406 55.425781 L 157.039062 55.378906 L 156.898438 55.308594 L 156.855469 55.277344 L 156.8125 55.25 L 156.695312 55.144531 L 156.660156 55.105469 L 156.628906 55.0625 L 156.597656 55.023438 L 156.566406 54.976562 L 156.542969 54.933594 L 156.515625 54.886719 L 156.496094 54.839844 L 156.476562 54.789062 L 156.445312 54.6875 L 156.433594 54.636719 L 156.425781 54.585938 L 156.421875 54.535156 L 156.417969 54.480469 L 156.417969 54.429688 L 156.421875 54.375 L 156.425781 54.324219 L 156.433594 54.273438 L 156.457031 54.171875 L 156.472656 54.121094 L 156.492188 54.070312 L 156.5625 53.929688 L 156.625 53.84375 L 156.65625 53.804688 L 156.726562 53.726562 L 156.765625 53.691406 L 156.851562 53.628906 L 156.894531 53.601562 L 156.941406 53.574219 L 156.984375 53.550781 L 157.035156 53.527344 L 157.082031 53.507812 L 157.132812 53.492188 L 190.199219 43.664062 L 167.605469 38.222656 "/>
<path fill="none" stroke-width="1" stroke-linecap="round" stroke-linejoin="round" stroke="rgb(70.588235%, 0%, 70.588235%)" stroke-opacity="1" stroke-miterlimit="10" d="M 177.320312 47.125 L 149.597656 72.867188 L 209 71.875 L 167.417969 64.453125 L 204.050781 53.5625 L 177.320312 47.125 "/>
<path fill="none" stroke-width="1" stroke-linecap="round" stroke-linejoin="round" stroke="rgb(70.588235%, 0%, 70.588235%)" stroke-opacity="1" stroke-miterlimit="10" d="M 157.320312 27.125 L 129.597656 52.867188 L 189 51.875 L 147.417969 44.453125 L 184.050781 33.5625 L 157.320312 27.125 "/>
<path fill="none" stroke-width="1" stroke-linecap="round" stroke-linejoin="round" stroke="rgb(70.588235%, 0%, 0%)" stroke-opacity="1" stroke-miterlimit="10" d="M 16.183594 60.394531 L 16.128906 60.402344 L 16.078125 60.414062 L 16.027344 60.429688 L 15.976562 60.449219 L 15.929688 60.46875 L 15.835938 60.515625 L 15.789062 60.542969 L 15.703125 60.605469 L 15.625 60.675781 L 15.589844 60.714844 L 15.554688 60.757812 L 15.523438 60.796875 L 15.492188 60.84375 L 15.464844 60.886719 L 15.417969 60.980469 L 15.398438 61.03125 L 15.367188 61.132812 L 15.355469 61.183594 L 15.347656 61.234375 L 15.339844 61.289062 L 15.335938 61.339844 L 15.335938 61.394531 L 15.339844 61.445312 L 15.34375 61.5 L 15.359375 61.601562 L 15.375 61.65625 L 15.390625 61.703125 L 15.40625 61.753906 L 15.429688 61.804688 L 15.453125 61.851562 L 15.476562 61.894531 L 28.84375 84.171875 L 28.871094 84.21875 L 28.902344 84.261719 L 28.9375 84.300781 L 28.972656 84.34375 L 29.007812 84.378906 L 29.046875 84.414062 L 29.089844 84.449219 L 29.132812 84.480469 L 29.175781 84.507812 L 29.222656 84.535156 L 29.269531 84.558594 L 29.320312 84.582031 L 29.367188 84.601562 L 29.417969 84.617188 L 29.472656 84.632812 L 29.574219 84.648438 L 29.628906 84.65625 L 29.734375 84.65625 L 29.789062 84.652344 L 29.839844 84.648438 L 29.894531 84.640625 L 29.945312 84.628906 L 30.046875 84.597656 L 30.097656 84.578125 L 30.191406 84.53125 L 90.089844 50.867188 L 90.132812 50.839844 L 90.179688 50.8125 L 90.21875 50.78125 L 90.261719 50.746094 L 90.300781 50.710938 L 90.371094 50.632812 L 90.402344 50.59375 L 90.433594 50.550781 L 90.460938 50.503906 L 90.53125 50.363281 L 90.546875 50.3125 L 90.5625 50.265625 L 90.574219 50.214844 L 90.585938 50.160156 L 90.59375 50.109375 L 90.597656 50.058594 L 90.597656 49.953125 L 90.59375 49.898438 L 90.589844 49.847656 L 90.554688 49.695312 L 90.535156 49.644531 L 90.515625 49.597656 L 90.492188 49.546875 L 90.46875 49.503906 L 90.441406 49.457031 L 90.414062 49.414062 L 90.378906 49.371094 L 90.347656 49.332031 L 90.3125 49.292969 L 90.234375 49.222656 L 90.148438 49.160156 L 90.105469 49.132812 L 90.011719 49.085938 L 89.960938 49.0625 L 89.914062 49.046875 L 89.863281 49.03125 L 89.761719 49.007812 L 89.707031 49.003906 L 89.65625 48.996094 L 89.550781 48.996094 L 89.496094 49 L 89.445312 49.007812 L 16.183594 60.394531 "/>
<path fill="none" stroke-width="1" stroke-linecap="round" stroke-linejoin="round" stroke="rgb(70.588235%, 0%, 0%)" stroke-opacity="1" stroke-miterlimit="10" d="M 17.957031 62.140625 L 30.058594 82.308594 L 84.289062 51.832031 L 17.957031 62.140625 "/>
<path fill="none" stroke-width="1" stroke-linecap="round" stroke-linejoin="round" stroke="rgb(70.588235%, 0%, 70.588235%)" stroke-opacity="1" stroke-miterlimit="10" d="M 26.335938 71.382812 L 39.703125 93.65625 L 99.597656 59.996094 L 26.335938 71.382812 "/>
<path fill="none" stroke-width="1" stroke-linecap="round" stroke-linejoin="round" stroke="rgb(70.588235%, 0%, 70.588235%)" stroke-opacity="1" stroke-miterlimit="10" d="M 6.335938 51.382812 L 19.703125 73.65625 L 79.597656 39.996094 L 6.335938 51.382812 "/>
<path fill="none" stroke-width="1" stroke-linecap="round" stroke-linejoin="round" stroke="rgb(70.588235%, 0%, 0%)" stroke-opacity="1" stroke-miterlimit="10" d="M 76.527344 80.226562 L 76.480469 80.214844 L 76.429688 80.203125 L 76.328125 80.1875 L 76.277344 80.183594 L 76.175781 80.183594 L 76.125 80.1875 L 76.023438 80.203125 L -0.210938 96.539062 L -0.261719 96.554688 L -0.3125 96.566406 L -0.359375 96.585938 L -0.410156 96.605469 L -0.457031 96.628906 L -0.5 96.652344 L -0.546875 96.679688 L -0.589844 96.710938 L -0.628906 96.742188 L -0.671875 96.777344 L -0.746094 96.851562 L -0.777344 96.890625 L -0.839844 96.976562 L -0.867188 97.019531 L -0.914062 97.113281 L -0.933594 97.160156 L -0.953125 97.210938 L -0.964844 97.261719 L -0.980469 97.3125 L -0.996094 97.414062 L -1 97.46875 L -1 97.574219 L -0.996094 97.625 L -0.988281 97.675781 L -0.964844 97.777344 L -0.933594 97.878906 L -0.914062 97.925781 L -0.890625 97.972656 L -0.835938 98.066406 L -0.808594 98.109375 L -0.777344 98.148438 L -0.707031 98.226562 L -0.628906 98.296875 L -0.542969 98.359375 L -0.5 98.386719 L -0.40625 98.433594 L -0.355469 98.453125 L 37.265625 112.808594 L 37.359375 112.839844 L 37.410156 112.851562 L 37.460938 112.859375 L 37.507812 112.867188 L 37.609375 112.875 L 37.660156 112.875 L 37.710938 112.871094 L 37.761719 112.863281 L 37.808594 112.855469 L 37.859375 112.847656 L 115.082031 94.035156 L 115.183594 94.003906 L 115.230469 93.988281 L 115.324219 93.941406 L 115.371094 93.914062 L 115.414062 93.886719 L 115.457031 93.855469 L 115.496094 93.824219 L 115.535156 93.789062 L 115.640625 93.671875 L 115.667969 93.628906 L 115.699219 93.585938 L 115.722656 93.542969 L 115.769531 93.449219 L 115.789062 93.398438 L 115.804688 93.347656 L 115.816406 93.300781 L 115.828125 93.25 L 115.835938 93.195312 L 115.84375 93.144531 L 115.84375 92.988281 L 115.820312 92.835938 L 115.789062 92.734375 L 115.773438 92.6875 L 115.75 92.636719 L 115.726562 92.59375 L 115.703125 92.546875 L 115.671875 92.503906 L 115.644531 92.460938 L 115.609375 92.417969 L 115.578125 92.378906 L 115.460938 92.273438 L 115.417969 92.246094 L 115.375 92.214844 L 115.332031 92.1875 L 115.285156 92.164062 L 115.238281 92.144531 L 115.1875 92.125 L 115.140625 92.109375 L 76.527344 80.226562 M 66.859375 91.222656 L 70.015625 96.128906 L 35.308594 98.230469 L 66.859375 91.222656 "/>
<path fill="none" stroke-width="1" stroke-linecap="round" stroke-linejoin="round" stroke="rgb(70.588235%, 0%, 0%)" stroke-opacity="1" stroke-miterlimit="10" d="M 76.1875 82.214844 L 3.511719 97.789062 L 37.6875 110.828125 L 111.082031 92.953125 L 76.1875 82.214844 M 67.105469 89.117188 L 67.160156 89.105469 L 67.210938 89.101562 L 67.261719 89.09375 L 67.371094 89.09375 L 67.421875 89.097656 L 67.476562 89.105469 L 67.527344 89.113281 L 67.578125 89.125 L 67.628906 89.140625 L 67.679688 89.160156 L 67.726562 89.179688 L 67.777344 89.203125 L 67.824219 89.226562 L 67.867188 89.253906 L 67.953125 89.316406 L 68.03125 89.386719 L 68.070312 89.425781 L 68.101562 89.464844 L 68.164062 89.550781 L 72.621094 96.484375 L 72.648438 96.527344 L 72.695312 96.621094 L 72.714844 96.667969 L 72.730469 96.71875 L 72.746094 96.765625 L 72.757812 96.816406 L 72.765625 96.871094 L 72.773438 96.921875 L 72.777344 96.972656 L 72.777344 97.078125 L 72.773438 97.128906 L 72.757812 97.230469 L 72.746094 97.28125 L 72.730469 97.332031 L 72.710938 97.382812 L 72.671875 97.476562 L 72.644531 97.523438 L 72.589844 97.609375 L 72.558594 97.652344 L 72.523438 97.691406 L 72.449219 97.765625 L 72.371094 97.828125 L 72.328125 97.859375 L 72.28125 97.886719 L 72.238281 97.910156 L 72.191406 97.933594 L 72.144531 97.953125 L 72.09375 97.972656 L 72.042969 97.988281 L 71.941406 98.011719 L 71.890625 98.015625 L 71.839844 98.023438 L 22.832031 100.992188 L 22.726562 100.992188 L 22.675781 100.988281 L 22.621094 100.984375 L 22.46875 100.949219 L 22.421875 100.929688 L 22.371094 100.910156 L 22.277344 100.863281 L 22.191406 100.808594 L 22.148438 100.777344 L 22.070312 100.707031 L 22 100.628906 L 21.96875 100.589844 L 21.9375 100.546875 L 21.910156 100.5 L 21.882812 100.457031 L 21.859375 100.410156 L 21.839844 100.359375 L 21.824219 100.3125 L 21.792969 100.210938 L 21.785156 100.160156 L 21.777344 100.105469 L 21.769531 100.003906 L 21.773438 99.949219 L 21.78125 99.847656 L 21.792969 99.792969 L 21.816406 99.691406 L 21.835938 99.644531 L 21.855469 99.59375 L 21.875 99.546875 L 21.902344 99.5 L 21.925781 99.457031 L 21.988281 99.371094 L 22.058594 99.292969 L 22.09375 99.257812 L 22.136719 99.222656 L 22.175781 99.191406 L 22.21875 99.160156 L 22.261719 99.132812 L 22.308594 99.105469 L 22.355469 99.085938 L 22.402344 99.0625 L 22.503906 99.03125 L 22.554688 99.019531 L 67.105469 89.117188 "/>
<path fill="none" stroke-width="1" stroke-linecap="round" stroke-linejoin="round" stroke="rgb(70.588235%, 0%, 70.588235%)" stroke-opacity="1" stroke-miterlimit="10" d="M 86.234375 91.183594 L 10 107.519531 L 47.621094 121.875 L 124.847656 103.0625 L 86.234375 91.183594 M 77.324219 100.09375 L 81.777344 107.023438 L 32.769531 109.992188 L 77.324219 100.09375 "/>
<path fill="none" stroke-width="1" stroke-linecap="round" stroke-linejoin="round" stroke="rgb(70.588235%, 0%, 70.588235%)" stroke-opacity="1" stroke-miterlimit="10" d="M 66.234375 71.183594 L -10 87.519531 L 27.621094 101.875 L 104.847656 83.0625 L 66.234375 71.183594 M 57.324219 80.09375 L 61.777344 87.023438 L 12.769531 89.992188 L 57.324219 80.09375 "/>
</svg>
