<?xml version="1.0" encoding="UTF-8"?>
<svg xmlns="http://www.w3.org/2000/svg" xmlns:xlink="http://www.w3.org/1999/xlink" width="200" height="150" viewBox="0 0 200 150">
<defs>
<filter id="filter-remove-color-and-invert-alpha" x="0%" y="0%" width="100%" height="100%">
<feColorMatrix color-interpolation-filters="sRGB" values="0 0 0 0 1 0 0 0 0 1 0 0 0 0 1 0 0 0 -1 1"/>
</filter>
<filter id="filter-0" x="0%" y="0%" width="100%" height="100%">
<feImage xlink:href="#compositing-group-1" result="source" x="0" y="0" width="240" height="180"/>
<feImage xlink:href="#compositing-group-2" result="destination" x="0" y="0" width="240" height="180"/>
<feComposite in="source" in2="destination" operator="arithmetic" k1="0" k2="1" k3="1" k4="0" color-interpolation-filters="sRGB"/>
</filter>
<g id="compositing-group-0" transform="translate(20, 15)">
<rect x="-20" y="-15" width="240" height="180" fill="rgb(0%, 0%, 0%)" fill-opacity="0"/>
<rect x="-20" y="-15" width="240" height="180" fill="rgb(100%, 100%, 100%)" fill-opacity="1"/>
</g>
<mask id="mask-0">
<use xlink:href="#compositing-group-0"/>
</mask>
<mask id="mask-1">
<use xlink:href="#compositing-group-0" filter="url(#filter-remove-color-and-invert-alpha)"/>
</mask>
<g id="compositing-group-1" mask="url(#mask-0)">
<g transform="translate(20, 15)">
<rect x="-20" y="-15" width="240" height="180" fill="rgb(100%, 100%, 100%)" fill-opacity="1"/>
</g>
</g>
<g id="compositing-group-2" mask="url(#mask-1)">
<g transform="translate(20, 15)">
</g>
</g>
</defs>
<g filter="url(#filter-0)" transform="translate(-20, -15)">
<rect x="0" y="0" width="240" height="180" fill="rgb(0%, 0%, 0%)" fill-opacity="1"/>
</g>
<path fill-rule="evenodd" fill="rgb(70.588235%, 0%, 0%)" fill-opacity="1" d="M 101.480469 54.453125 L 98.015625 63.855469 L 105.441406 68.3125 L 113.359375 58.410156 Z M 101.480469 54.453125 "/>
<path fill-rule="evenodd" fill="rgb(70.588235%, 70.588235%, 70.588235%)" fill-opacity="1" d="M 98.761719 64.308594 L 98.011719 63.859375 L 99.019531 61.121094 L 100.488281 62.589844 Z M 98.761719 64.308594 "/>
<path fill-rule="evenodd" fill="rgb(70.588235%, 70.588235%, 70.588235%)" fill-opacity="1" d="M 101.898438 61.171875 L 99.78125 59.050781 L 101.199219 57.640625 L 103.320312 59.761719 Z M 101.898438 61.171875 "/>
<path fill-rule="evenodd" fill="rgb(70.588235%, 70.588235%, 70.588235%)" fill-opacity="1" d="M 104.730469 58.339844 L 102.609375 56.21875 L 103.660156 55.179688 L 106.839844 56.238281 Z M 104.730469 58.339844 "/>
<path fill-rule="evenodd" fill="rgb(70.588235%, 0%, 0%)" fill-opacity="1" d="M 167.320312 37.125 L 139.597656 62.867188 L 199 61.875 L 157.417969 54.453125 L 194.050781 43.5625 Z M 167.320312 37.125 "/>
<path fill-rule="evenodd" fill="rgb(70.588235%, 70.588235%, 70.588235%)" fill-opacity="1" d="M 152.75 62.648438 L 153.171875 62.230469 L 153.578125 62.640625 Z M 152.75 62.648438 "/>
<path fill-rule="evenodd" fill="rgb(70.588235%, 70.588235%, 70.588235%)" fill-opacity="1" d="M 156.371094 62.589844 L 154.589844 60.808594 L 158.121094 57.28125 L 160.25 59.398438 L 157.058594 62.578125 Z M 156.371094 62.589844 "/>
<path fill-rule="evenodd" fill="rgb(70.588235%, 70.588235%, 70.588235%)" fill-opacity="1" d="M 181.511719 62.171875 L 184.410156 59.269531 L 185.5 59.46875 L 186.980469 60.949219 L 185.828125 62.101562 Z M 181.511719 62.171875 "/>
<path fill-rule="evenodd" fill="rgb(70.588235%, 70.588235%, 70.588235%)" fill-opacity="1" d="M 161.660156 57.980469 L 159.539062 55.859375 L 160.410156 54.988281 L 161.71875 55.21875 L 163.070312 56.570312 Z M 161.660156 57.980469 "/>
<path fill-rule="evenodd" fill="rgb(70.588235%, 70.588235%, 70.588235%)" fill-opacity="1" d="M 162.460938 52.949219 L 165.898438 49.5 L 167.769531 51.371094 Z M 162.460938 52.949219 "/>
<path fill-rule="evenodd" fill="rgb(70.588235%, 70.588235%, 70.588235%)" fill-opacity="1" d="M 169.441406 50.210938 L 167.320312 48.089844 L 168.730469 46.671875 L 170.851562 48.789062 Z M 169.441406 50.210938 "/>
<path fill-rule="evenodd" fill="rgb(70.588235%, 70.588235%, 70.588235%)" fill-opacity="1" d="M 172.269531 47.378906 L 170.148438 45.261719 L 173.679688 41.71875 L 175.800781 43.839844 Z M 172.269531 47.378906 "/>
<path fill-rule="evenodd" fill="rgb(70.588235%, 70.588235%, 70.588235%)" fill-opacity="1" d="M 177.21875 42.429688 L 175.089844 40.308594 L 176.148438 39.25 L 177.101562 39.480469 L 178.628906 41.011719 Z M 177.21875 42.429688 "/>
<path fill-rule="evenodd" fill="rgb(70.588235%, 0%, 0%)" fill-opacity="1" d="M 16.335938 61.382812 L 29.703125 83.65625 L 89.597656 49.996094 Z M 16.335938 61.382812 "/>
<path fill-rule="evenodd" fill="rgb(70.588235%, 70.588235%, 70.588235%)" fill-opacity="1" d="M 27.871094 78.628906 L 25.75 76.511719 L 27.171875 75.101562 L 29.289062 77.21875 Z M 27.871094 78.628906 "/>
<path fill-rule="evenodd" fill="rgb(70.588235%, 70.588235%, 70.588235%)" fill-opacity="1" d="M 30.699219 75.808594 L 28.578125 73.679688 L 32.121094 70.148438 L 34.238281 72.269531 Z M 30.699219 75.808594 "/>
<path fill-rule="evenodd" fill="rgb(70.588235%, 70.588235%, 70.588235%)" fill-opacity="1" d="M 35.648438 70.859375 L 33.53125 68.730469 L 34.949219 67.320312 L 37.070312 69.441406 Z M 35.648438 70.859375 "/>
<path fill-rule="evenodd" fill="rgb(70.588235%, 70.588235%, 70.588235%)" fill-opacity="1" d="M 38.480469 68.03125 L 36.359375 65.910156 L 39.890625 62.371094 L 42.019531 64.488281 Z M 38.480469 68.03125 "/>
<path fill-rule="evenodd" fill="rgb(70.588235%, 70.588235%, 70.588235%)" fill-opacity="1" d="M 43.429688 63.078125 L 41.308594 60.960938 L 42.71875 59.539062 L 44.839844 61.660156 Z M 43.429688 63.078125 "/>
<path fill-rule="evenodd" fill="rgb(70.588235%, 70.588235%, 70.588235%)" fill-opacity="1" d="M 16.53125 61.691406 L 16.339844 61.378906 L 16.929688 61.289062 Z M 16.53125 61.691406 "/>
<path fill-rule="evenodd" fill="rgb(70.588235%, 70.588235%, 70.588235%)" fill-opacity="1" d="M 69.769531 61.140625 L 69.589844 60.960938 L 71.011719 59.539062 L 71.589844 60.121094 Z M 69.769531 61.140625 "/>
<path fill-rule="evenodd" fill="rgb(70.588235%, 70.588235%, 70.588235%)" fill-opacity="1" d="M 46.261719 60.25 L 44.140625 58.128906 L 45.398438 56.871094 L 49.328125 56.25 L 49.789062 56.710938 Z M 46.261719 60.25 "/>
<path fill-rule="evenodd" fill="rgb(70.588235%, 70.588235%, 70.588235%)" fill-opacity="1" d="M 73.398438 59.109375 L 72.421875 58.128906 L 75.960938 54.589844 L 77.929688 56.558594 Z M 73.398438 59.109375 "/>
<path fill-rule="evenodd" fill="rgb(70.588235%, 70.588235%, 70.588235%)" fill-opacity="1" d="M 79.488281 55.300781 L 77.371094 53.179688 L 78.789062 51.761719 L 80.910156 53.890625 Z M 79.488281 55.300781 "/>
<path fill-rule="evenodd" fill="rgb(70.588235%, 70.588235%, 70.588235%)" fill-opacity="1" d="M 82.320312 52.46875 L 81.160156 51.308594 L 83.910156 50.878906 Z M 82.320312 52.46875 "/>
<path fill-rule="evenodd" fill="rgb(70.588235%, 0%, 0%)" fill-opacity="1" d="M 76.234375 81.183594 L 0 97.519531 L 37.621094 111.875 L 114.847656 93.0625 Z M 67.324219 90.09375 L 71.777344 97.023438 L 22.769531 99.992188 Z M 67.324219 90.09375 "/>
<path fill-rule="evenodd" fill="rgb(70.588235%, 70.588235%, 70.588235%)" fill-opacity="1" d="M 51.839844 108.410156 L 51.128906 107.699219 L 52.550781 106.28125 L 54.121094 107.851562 Z M 51.839844 108.410156 "/>
<path fill-rule="evenodd" fill="rgb(70.588235%, 70.588235%, 70.588235%)" fill-opacity="1" d="M 25.058594 107.078125 L 23.898438 106.640625 L 24.261719 106.28125 Z M 25.058594 107.078125 "/>
<path fill-rule="evenodd" fill="rgb(70.588235%, 70.588235%, 70.588235%)" fill-opacity="1" d="M 56.078125 106.988281 L 53.960938 104.871094 L 57.5 101.339844 L 59.621094 103.460938 Z M 56.078125 106.988281 "/>
<path fill-rule="evenodd" fill="rgb(70.588235%, 70.588235%, 70.588235%)" fill-opacity="1" d="M 27.800781 106.988281 L 25.679688 104.871094 L 29.210938 101.339844 L 31.339844 103.460938 Z M 27.800781 106.988281 "/>
<path fill-rule="evenodd" fill="rgb(70.588235%, 70.588235%, 70.588235%)" fill-opacity="1" d="M 61.03125 102.039062 L 58.910156 99.921875 L 60.328125 98.511719 L 62.449219 100.628906 Z M 61.03125 102.039062 "/>
<path fill-rule="evenodd" fill="rgb(70.588235%, 70.588235%, 70.588235%)" fill-opacity="1" d="M 32.75 102.039062 L 30.628906 99.921875 L 31.058594 99.488281 L 32.910156 99.378906 L 34.160156 100.628906 Z M 32.75 102.039062 "/>
<path fill-rule="evenodd" fill="rgb(70.588235%, 70.588235%, 70.588235%)" fill-opacity="1" d="M 6.71875 99.789062 L 4.601562 97.671875 L 6.039062 96.230469 L 9.480469 95.488281 L 10.25 96.261719 Z M 6.71875 99.789062 "/>
<path fill-rule="evenodd" fill="rgb(70.588235%, 70.588235%, 70.588235%)" fill-opacity="1" d="M 87.371094 99.75 L 88.609375 98.511719 L 89.371094 99.269531 Z M 87.371094 99.75 "/>
<path fill-rule="evenodd" fill="rgb(70.588235%, 70.588235%, 70.588235%)" fill-opacity="1" d="M 63.859375 99.210938 L 62.25 97.601562 L 65.691406 97.390625 Z M 63.859375 99.210938 "/>
<path fill-rule="evenodd" fill="rgb(70.588235%, 70.588235%, 70.588235%)" fill-opacity="1" d="M 91.648438 98.710938 L 90.03125 97.089844 L 93.558594 93.558594 L 95.679688 95.679688 L 92.96875 98.390625 Z M 91.648438 98.710938 "/>
<path fill-rule="evenodd" fill="rgb(70.588235%, 70.588235%, 70.588235%)" fill-opacity="1" d="M 33.890625 97.519531 L 33.460938 97.089844 L 36.988281 93.558594 L 39.109375 95.679688 L 38.238281 96.550781 Z M 33.890625 97.519531 "/>
<path fill-rule="evenodd" fill="rgb(70.588235%, 70.588235%, 70.588235%)" fill-opacity="1" d="M 97.101562 94.261719 L 94.980469 92.140625 L 96.390625 90.730469 L 98.511719 92.851562 Z M 97.101562 94.261719 "/>
<path fill-rule="evenodd" fill="rgb(70.588235%, 70.588235%, 70.588235%)" fill-opacity="1" d="M 40.53125 94.261719 L 38.410156 92.140625 L 39.820312 90.730469 L 41.941406 92.851562 Z M 40.53125 94.261719 "/>
<path fill-rule="evenodd" fill="rgb(70.588235%, 70.588235%, 70.588235%)" fill-opacity="1" d="M 69.539062 93.539062 L 67.878906 90.960938 L 68.109375 90.730469 L 70.230469 92.851562 Z M 69.539062 93.539062 "/>
<path fill-rule="evenodd" fill="rgb(70.588235%, 70.588235%, 70.588235%)" fill-opacity="1" d="M 99.929688 91.441406 L 97.800781 89.308594 L 98.949219 88.171875 L 102.199219 89.171875 Z M 99.929688 91.441406 "/>
<path fill-rule="evenodd" fill="rgb(70.588235%, 70.588235%, 70.588235%)" fill-opacity="1" d="M 71.640625 91.441406 L 69.519531 89.308594 L 73.050781 85.78125 L 75.179688 87.898438 Z M 71.640625 91.441406 "/>
<path fill-rule="evenodd" fill="rgb(70.588235%, 70.588235%, 70.588235%)" fill-opacity="1" d="M 43.359375 91.441406 L 41.238281 89.308594 L 42.039062 88.511719 L 46.539062 87.550781 L 46.890625 87.898438 Z M 43.359375 91.441406 "/>
<path fill-rule="evenodd" fill="rgb(70.588235%, 70.588235%, 70.588235%)" fill-opacity="1" d="M 76.589844 86.488281 L 74.46875 84.359375 L 75.878906 82.949219 L 78 85.070312 Z M 76.589844 86.488281 "/>
<path fill-rule="evenodd" fill="rgb(70.588235%, 70.588235%, 70.588235%)" fill-opacity="1" d="M 79.421875 83.660156 L 77.300781 81.539062 L 77.320312 81.519531 L 80.558594 82.511719 Z M 79.421875 83.660156 "/>
</svg>
