<?xml version="1.0" encoding="UTF-8"?>
<svg xmlns="http://www.w3.org/2000/svg" xmlns:xlink="http://www.w3.org/1999/xlink" width="200pt" height="150pt" viewBox="0 0 200 150" version="1.1">
<g id="surface2">
<rect x="0" y="0" width="200" height="150" style="fill:rgb(100%,100%,100%);fill-opacity:1;stroke:none;"/>
<path style=" stroke:none;fill-rule:evenodd;fill:rgb(70.588235%,70.588235%,70.588235%);fill-opacity:1;" d="M 101.480469 54.453125 L 98.015625 63.855469 L 105.441406 68.3125 L 113.359375 58.410156 Z M 101.480469 54.453125 "/>
<path style=" stroke:none;fill-rule:evenodd;fill:rgb(70.588235%,70.588235%,70.588235%);fill-opacity:1;" d="M 167.320312 37.125 L 139.597656 62.867188 L 199 61.875 L 157.417969 54.453125 L 194.050781 43.5625 Z M 167.320312 37.125 "/>
<path style=" stroke:none;fill-rule:evenodd;fill:rgb(70.588235%,70.588235%,70.588235%);fill-opacity:1;" d="M 16.335938 61.382812 L 29.703125 83.65625 L 89.597656 49.996094 Z M 16.335938 61.382812 "/>
<path style=" stroke:none;fill-rule:evenodd;fill:rgb(70.588235%,70.588235%,70.588235%);fill-opacity:1;" d="M 76.234375 81.183594 L 0 97.519531 L 37.621094 111.875 L 114.847656 93.0625 Z M 67.324219 90.09375 L 71.777344 97.023438 L 22.769531 99.992188 Z M 67.324219 90.09375 "/>
<path style=" stroke:none;fill-rule:evenodd;fill:rgb(0%,0%,0%);fill-opacity:1;" d="M 56.71875 106.121094 C 56.164062 106.347656 55.625 106.464844 55.09375 106.464844 C 54.238281 106.464844 53.546875 106.179688 53.015625 105.605469 C 52.484375 105.035156 52.21875 104.292969 52.21875 103.386719 C 52.21875 102.472656 52.472656 101.738281 52.984375 101.183594 C 53.492188 100.632812 54.164062 100.355469 55 100.355469 C 55.445312 100.355469 56.019531 100.445312 56.71875 100.621094 L 56.71875 102.011719 L 56.0625 102.011719 L 56.0625 101.917969 C 56.0625 101.492188 55.992188 101.207031 55.859375 101.058594 C 55.660156 100.832031 55.378906 100.714844 55.015625 100.714844 C 54.492188 100.714844 54.082031 100.949219 53.78125 101.417969 C 53.476562 101.878906 53.328125 102.507812 53.328125 103.308594 C 53.328125 104.121094 53.503906 104.761719 53.859375 105.230469 C 54.222656 105.699219 54.710938 105.933594 55.328125 105.933594 C 55.859375 105.933594 56.320312 105.847656 56.71875 105.667969 Z M 60.5625 106.464844 C 59.71875 106.464844 59.046875 106.191406 58.546875 105.636719 C 58.054688 105.085938 57.8125 104.339844 57.8125 103.402344 C 57.8125 102.464844 58.0625 101.726562 58.5625 101.183594 C 59.0625 100.632812 59.738281 100.355469 60.59375 100.355469 C 61.457031 100.355469 62.132812 100.632812 62.625 101.183594 C 63.125 101.726562 63.375 102.464844 63.375 103.402344 C 63.375 104.351562 63.125 105.101562 62.625 105.652344 C 62.125 106.195312 61.4375 106.464844 60.5625 106.464844 Z M 60.578125 106.121094 C 61.066406 106.121094 61.46875 105.867188 61.78125 105.355469 C 62.09375 104.847656 62.25 104.195312 62.25 103.402344 C 62.25 102.632812 62.085938 101.988281 61.765625 101.464844 C 61.453125 100.945312 61.0625 100.683594 60.59375 100.683594 C 60.125 100.683594 59.726562 100.945312 59.40625 101.464844 C 59.09375 101.988281 58.9375 102.632812 58.9375 103.402344 C 58.9375 104.183594 59.09375 104.835938 59.40625 105.355469 C 59.71875 105.867188 60.109375 106.121094 60.578125 106.121094 Z M 68.609375 106.324219 L 68.609375 105.230469 C 68.359375 105.617188 68.046875 105.917969 67.671875 106.136719 C 67.296875 106.355469 66.910156 106.464844 66.515625 106.464844 C 66.015625 106.464844 65.617188 106.300781 65.328125 105.964844 C 65.046875 105.632812 64.90625 105.179688 64.90625 104.605469 L 64.90625 101.886719 L 64.875 101.355469 C 64.851562 101.148438 64.816406 101.019531 64.765625 100.964844 C 64.710938 100.902344 64.582031 100.867188 64.375 100.855469 L 64.015625 100.824219 L 63.90625 100.824219 L 63.90625 100.496094 L 65.953125 100.496094 L 65.953125 104.433594 C 65.953125 104.925781 66.023438 105.273438 66.171875 105.480469 C 66.316406 105.679688 66.566406 105.777344 66.921875 105.777344 C 67.160156 105.777344 67.441406 105.695312 67.765625 105.527344 C 68.097656 105.351562 68.378906 105.132812 68.609375 104.871094 L 68.609375 101.886719 L 68.578125 101.355469 C 68.566406 101.148438 68.53125 101.019531 68.46875 100.964844 C 68.414062 100.902344 68.285156 100.867188 68.078125 100.855469 L 67.71875 100.824219 L 67.625 100.824219 L 67.625 100.496094 L 69.671875 100.496094 L 69.671875 104.933594 L 69.703125 105.464844 C 69.710938 105.675781 69.742188 105.804688 69.796875 105.855469 C 69.859375 105.910156 69.992188 105.945312 70.203125 105.964844 L 70.5625 105.980469 L 70.671875 105.996094 L 70.671875 106.324219 Z M 73.109375 101.589844 C 73.359375 101.207031 73.671875 100.902344 74.046875 100.683594 C 74.421875 100.464844 74.8125 100.355469 75.21875 100.355469 C 75.71875 100.355469 76.109375 100.523438 76.390625 100.855469 C 76.679688 101.191406 76.828125 101.644531 76.828125 102.214844 L 76.828125 104.933594 L 76.859375 105.464844 C 76.867188 105.675781 76.898438 105.804688 76.953125 105.855469 C 77.015625 105.910156 77.148438 105.945312 77.359375 105.964844 L 77.71875 105.980469 L 77.8125 105.996094 L 77.8125 106.324219 L 74.765625 106.324219 L 74.765625 105.996094 L 74.859375 105.980469 L 75.234375 105.964844 C 75.429688 105.945312 75.554688 105.910156 75.609375 105.855469 C 75.671875 105.804688 75.710938 105.675781 75.734375 105.464844 L 75.765625 104.933594 L 75.765625 102.386719 C 75.765625 101.886719 75.695312 101.539062 75.5625 101.339844 C 75.4375 101.144531 75.207031 101.042969 74.875 101.042969 C 74.394531 101.042969 73.804688 101.339844 73.109375 101.933594 L 73.109375 104.933594 C 73.109375 105.226562 73.132812 105.480469 73.1875 105.699219 C 73.207031 105.792969 73.242188 105.863281 73.296875 105.902344 C 73.359375 105.933594 73.472656 105.957031 73.640625 105.964844 L 74 105.980469 L 74.109375 105.996094 L 74.109375 106.324219 L 71.0625 106.324219 L 71.0625 105.996094 L 71.15625 105.980469 L 71.515625 105.964844 C 71.722656 105.945312 71.851562 105.910156 71.90625 105.855469 C 71.96875 105.804688 72.003906 105.675781 72.015625 105.464844 L 72.046875 104.933594 L 72.046875 101.886719 L 72.015625 101.355469 C 72.003906 101.148438 71.96875 101.019531 71.90625 100.964844 C 71.851562 100.902344 71.722656 100.867188 71.515625 100.855469 L 71.15625 100.824219 L 71.0625 100.824219 L 71.0625 100.496094 L 73.109375 100.496094 Z M 81.6875 106.292969 C 81.414062 106.40625 81.160156 106.464844 80.921875 106.464844 C 80.367188 106.464844 79.9375 106.320312 79.625 106.027344 C 79.4375 105.863281 79.304688 105.675781 79.234375 105.464844 C 79.171875 105.246094 79.140625 104.925781 79.140625 104.496094 L 79.140625 100.933594 L 78.28125 100.933594 L 78.28125 100.496094 L 79.140625 100.496094 L 79.140625 99.433594 L 80.203125 99.167969 L 80.203125 100.496094 L 81.8125 100.496094 L 81.8125 100.933594 L 80.203125 100.933594 L 80.203125 104.636719 C 80.203125 105.148438 80.25 105.488281 80.34375 105.652344 C 80.488281 105.902344 80.734375 106.027344 81.078125 106.027344 C 81.242188 106.027344 81.445312 105.972656 81.6875 105.855469 Z M 84.375 102.074219 L 84.375 104.933594 C 84.375 105.226562 84.398438 105.480469 84.453125 105.699219 C 84.472656 105.792969 84.507812 105.863281 84.5625 105.902344 C 84.625 105.933594 84.738281 105.957031 84.90625 105.964844 L 85.265625 105.980469 L 85.5 105.996094 L 85.5 106.324219 L 82.328125 106.324219 L 82.328125 105.996094 L 82.421875 105.980469 L 82.78125 105.964844 C 82.988281 105.945312 83.117188 105.910156 83.171875 105.855469 C 83.234375 105.804688 83.269531 105.675781 83.28125 105.464844 L 83.3125 104.933594 L 83.3125 101.886719 L 83.28125 101.355469 C 83.269531 101.148438 83.234375 101.019531 83.171875 100.964844 C 83.117188 100.902344 82.988281 100.867188 82.78125 100.855469 L 82.421875 100.824219 L 82.328125 100.824219 L 82.328125 100.496094 L 84.375 100.496094 L 84.375 101.589844 C 84.851562 100.769531 85.484375 100.355469 86.265625 100.355469 C 86.378906 100.355469 86.5 100.378906 86.625 100.417969 L 86.625 102.011719 L 86.03125 102.011719 L 86.03125 101.917969 L 85.96875 101.511719 C 85.957031 101.398438 85.929688 101.324219 85.890625 101.292969 C 85.859375 101.253906 85.789062 101.230469 85.6875 101.230469 C 85.425781 101.230469 85.179688 101.304688 84.953125 101.449219 C 84.734375 101.597656 84.539062 101.804688 84.375 102.074219 Z M 87.859375 108.449219 L 89.765625 106.324219 L 87.9375 101.902344 C 87.738281 101.433594 87.59375 101.144531 87.5 101.027344 C 87.40625 100.902344 87.265625 100.835938 87.078125 100.824219 L 86.96875 100.824219 L 86.96875 100.496094 L 89.640625 100.496094 L 89.640625 100.824219 L 89.171875 100.824219 C 88.921875 100.824219 88.796875 100.886719 88.796875 101.011719 C 88.796875 101.054688 88.804688 101.113281 88.828125 101.183594 C 88.847656 101.214844 88.894531 101.335938 88.96875 101.542969 C 89 101.660156 89.039062 101.777344 89.09375 101.902344 L 90.40625 105.027344 L 91.796875 101.886719 L 91.921875 101.558594 L 92.078125 101.183594 C 92.085938 101.132812 92.09375 101.082031 92.09375 101.027344 C 92.09375 100.894531 91.960938 100.824219 91.703125 100.824219 L 91.296875 100.824219 L 91.296875 100.496094 L 93.03125 100.496094 L 93.03125 100.824219 L 92.9375 100.824219 C 92.800781 100.835938 92.691406 100.886719 92.609375 100.980469 C 92.535156 101.066406 92.453125 101.214844 92.359375 101.433594 C 92.328125 101.507812 92.257812 101.664062 92.15625 101.902344 L 89.203125 108.449219 Z M 98.625 101.589844 C 98.875 101.207031 99.1875 100.902344 99.5625 100.683594 C 99.9375 100.464844 100.328125 100.355469 100.734375 100.355469 C 101.234375 100.355469 101.625 100.523438 101.90625 100.855469 C 102.195312 101.191406 102.34375 101.644531 102.34375 102.214844 L 102.34375 104.933594 L 102.375 105.464844 C 102.382812 105.675781 102.414062 105.804688 102.46875 105.855469 C 102.53125 105.910156 102.664062 105.945312 102.875 105.964844 L 103.234375 105.980469 L 103.328125 105.996094 L 103.328125 106.324219 L 100.28125 106.324219 L 100.28125 105.996094 L 100.375 105.980469 L 100.75 105.964844 C 100.945312 105.945312 101.070312 105.910156 101.125 105.855469 C 101.1875 105.804688 101.226562 105.675781 101.25 105.464844 L 101.28125 104.933594 L 101.28125 102.386719 C 101.28125 101.886719 101.210938 101.539062 101.078125 101.339844 C 100.953125 101.144531 100.722656 101.042969 100.390625 101.042969 C 99.910156 101.042969 99.320312 101.339844 98.625 101.933594 L 98.625 104.933594 C 98.625 105.226562 98.648438 105.480469 98.703125 105.699219 C 98.722656 105.792969 98.757812 105.863281 98.8125 105.902344 C 98.875 105.933594 98.988281 105.957031 99.15625 105.964844 L 99.515625 105.980469 L 99.625 105.996094 L 99.625 106.324219 L 96.578125 106.324219 L 96.578125 105.996094 L 96.671875 105.980469 L 97.03125 105.964844 C 97.238281 105.945312 97.367188 105.910156 97.421875 105.855469 C 97.484375 105.804688 97.519531 105.675781 97.53125 105.464844 L 97.5625 104.933594 L 97.5625 101.886719 L 97.53125 101.355469 C 97.519531 101.148438 97.484375 101.019531 97.421875 100.964844 C 97.367188 100.902344 97.238281 100.867188 97.03125 100.855469 L 96.671875 100.824219 L 96.578125 100.824219 L 96.578125 100.496094 L 98.625 100.496094 Z M 107.46875 105.527344 C 107.113281 105.871094 106.796875 106.117188 106.515625 106.261719 C 106.242188 106.394531 105.9375 106.464844 105.59375 106.464844 C 105.101562 106.464844 104.691406 106.308594 104.359375 105.996094 C 104.023438 105.675781 103.859375 105.277344 103.859375 104.808594 C 103.859375 104.257812 104.078125 103.808594 104.515625 103.464844 C 104.785156 103.246094 105.101562 103.097656 105.46875 103.011719 C 105.84375 102.917969 106.351562 102.871094 107 102.871094 L 107.21875 102.871094 L 107.21875 102.152344 C 107.21875 101.238281 106.867188 100.777344 106.171875 100.777344 C 105.847656 100.777344 105.5625 100.878906 105.3125 101.074219 C 105.164062 101.191406 105.070312 101.441406 105.03125 101.824219 L 105.03125 101.917969 L 104.3125 101.917969 L 104.3125 100.855469 C 105.050781 100.523438 105.738281 100.355469 106.375 100.355469 C 106.925781 100.355469 107.375 100.488281 107.71875 100.746094 C 107.9375 100.914062 108.082031 101.097656 108.15625 101.292969 C 108.238281 101.480469 108.28125 101.753906 108.28125 102.105469 L 108.28125 104.714844 C 108.28125 105.175781 108.316406 105.503906 108.390625 105.699219 C 108.472656 105.886719 108.617188 105.980469 108.828125 105.980469 C 108.890625 105.980469 108.984375 105.964844 109.109375 105.933594 L 109.140625 106.324219 C 108.890625 106.417969 108.660156 106.464844 108.453125 106.464844 C 107.929688 106.464844 107.601562 106.152344 107.46875 105.527344 Z M 107.21875 105.402344 L 107.21875 103.214844 L 106.96875 103.214844 C 106.351562 103.214844 105.867188 103.347656 105.515625 103.605469 C 105.160156 103.855469 104.984375 104.207031 104.984375 104.652344 C 104.984375 104.996094 105.09375 105.277344 105.3125 105.496094 C 105.53125 105.714844 105.800781 105.824219 106.125 105.824219 C 106.4375 105.824219 106.800781 105.683594 107.21875 105.402344 Z M 111.546875 101.589844 C 112.160156 100.769531 112.832031 100.355469 113.5625 100.355469 C 113.96875 100.355469 114.300781 100.464844 114.5625 100.683594 C 114.820312 100.894531 114.988281 101.195312 115.0625 101.589844 C 115.4375 101.132812 115.773438 100.816406 116.078125 100.636719 C 116.390625 100.449219 116.742188 100.355469 117.140625 100.355469 C 117.628906 100.355469 118.007812 100.511719 118.28125 100.824219 C 118.5625 101.128906 118.703125 101.542969 118.703125 102.074219 L 118.703125 104.933594 C 118.703125 105.226562 118.726562 105.480469 118.78125 105.699219 C 118.800781 105.792969 118.835938 105.863281 118.890625 105.902344 C 118.953125 105.933594 119.066406 105.957031 119.234375 105.964844 L 119.59375 105.980469 L 119.703125 105.996094 L 119.703125 106.324219 L 116.65625 106.324219 L 116.65625 105.996094 L 116.75 105.980469 L 117.125 105.964844 C 117.289062 105.957031 117.398438 105.933594 117.453125 105.902344 C 117.515625 105.863281 117.554688 105.792969 117.578125 105.699219 C 117.617188 105.480469 117.640625 105.226562 117.640625 104.933594 L 117.640625 102.277344 C 117.640625 101.820312 117.582031 101.503906 117.46875 101.324219 C 117.351562 101.136719 117.140625 101.042969 116.828125 101.042969 C 116.304688 101.042969 115.738281 101.347656 115.125 101.949219 L 115.125 104.933594 L 115.15625 105.464844 C 115.164062 105.675781 115.195312 105.804688 115.25 105.855469 C 115.3125 105.910156 115.445312 105.945312 115.65625 105.964844 L 116.015625 105.980469 L 116.125 105.996094 L 116.125 106.324219 L 113.078125 106.324219 L 113.078125 105.996094 L 113.171875 105.980469 L 113.546875 105.964844 C 113.710938 105.957031 113.820312 105.933594 113.875 105.902344 C 113.9375 105.863281 113.976562 105.792969 114 105.699219 C 114.039062 105.480469 114.0625 105.226562 114.0625 104.933594 L 114.0625 102.277344 C 114.0625 101.820312 114.003906 101.503906 113.890625 101.324219 C 113.773438 101.136719 113.566406 101.042969 113.265625 101.042969 C 112.703125 101.042969 112.128906 101.347656 111.546875 101.949219 L 111.546875 104.933594 C 111.546875 105.226562 111.570312 105.480469 111.625 105.699219 C 111.644531 105.792969 111.679688 105.863281 111.734375 105.902344 C 111.796875 105.933594 111.910156 105.957031 112.078125 105.964844 L 112.4375 105.980469 L 112.546875 105.996094 L 112.546875 106.324219 L 109.5 106.324219 L 109.5 105.996094 L 109.59375 105.980469 L 109.953125 105.964844 C 110.160156 105.945312 110.289062 105.910156 110.34375 105.855469 C 110.40625 105.804688 110.441406 105.675781 110.453125 105.464844 L 110.484375 104.933594 L 110.484375 101.886719 L 110.453125 101.355469 C 110.441406 101.148438 110.40625 101.019531 110.34375 100.964844 C 110.289062 100.902344 110.160156 100.867188 109.953125 100.855469 L 109.59375 100.824219 L 109.5 100.824219 L 109.5 100.496094 L 111.546875 100.496094 Z M 124.96875 106.058594 C 124.289062 106.328125 123.675781 106.464844 123.125 106.464844 C 122.269531 106.464844 121.570312 106.179688 121.03125 105.605469 C 120.5 105.023438 120.234375 104.273438 120.234375 103.355469 C 120.234375 102.472656 120.472656 101.753906 120.953125 101.199219 C 121.429688 100.636719 122.046875 100.355469 122.796875 100.355469 C 123.492188 100.355469 124.03125 100.589844 124.40625 101.058594 C 124.78125 101.527344 124.96875 102.199219 124.96875 103.074219 L 124.96875 103.183594 L 121.40625 103.183594 C 121.40625 103.988281 121.515625 104.585938 121.734375 104.980469 C 122.078125 105.605469 122.597656 105.917969 123.296875 105.917969 C 123.953125 105.917969 124.507812 105.785156 124.96875 105.511719 Z M 121.421875 102.839844 L 123.84375 102.839844 L 123.84375 102.605469 C 123.84375 102.179688 123.820312 101.867188 123.78125 101.667969 C 123.75 101.472656 123.679688 101.292969 123.578125 101.136719 C 123.367188 100.835938 123.085938 100.683594 122.734375 100.683594 C 122.328125 100.683594 122.003906 100.882812 121.765625 101.277344 C 121.535156 101.664062 121.421875 102.183594 121.421875 102.839844 Z M 121.421875 102.839844 "/>
<path style=" stroke:none;fill-rule:evenodd;fill:rgb(0%,0%,0%);fill-opacity:1;" d="M 13.320312 76.089844 C 12.765625 76.316406 12.226562 76.433594 11.695312 76.433594 C 10.839844 76.433594 10.148438 76.148438 9.617188 75.574219 C 9.085938 75.003906 8.820312 74.261719 8.820312 73.355469 C 8.820312 72.441406 9.074219 71.707031 9.585938 71.152344 C 10.09375 70.601562 10.765625 70.324219 11.601562 70.324219 C 12.046875 70.324219 12.621094 70.414062 13.320312 70.589844 L 13.320312 71.980469 L 12.664062 71.980469 L 12.664062 71.886719 C 12.664062 71.460938 12.59375 71.175781 12.460938 71.027344 C 12.261719 70.800781 11.980469 70.683594 11.617188 70.683594 C 11.09375 70.683594 10.683594 70.917969 10.382812 71.386719 C 10.078125 71.847656 9.929688 72.476562 9.929688 73.277344 C 9.929688 74.089844 10.105469 74.730469 10.460938 75.199219 C 10.824219 75.667969 11.3125 75.902344 11.929688 75.902344 C 12.460938 75.902344 12.921875 75.816406 13.320312 75.636719 Z M 17.164062 76.433594 C 16.320312 76.433594 15.648438 76.160156 15.148438 75.605469 C 14.65625 75.054688 14.414062 74.308594 14.414062 73.371094 C 14.414062 72.433594 14.664062 71.695312 15.164062 71.152344 C 15.664062 70.601562 16.339844 70.324219 17.195312 70.324219 C 18.058594 70.324219 18.734375 70.601562 19.226562 71.152344 C 19.726562 71.695312 19.976562 72.433594 19.976562 73.371094 C 19.976562 74.320312 19.726562 75.070312 19.226562 75.621094 C 18.726562 76.164062 18.039062 76.433594 17.164062 76.433594 Z M 17.179688 76.089844 C 17.667969 76.089844 18.070312 75.835938 18.382812 75.324219 C 18.695312 74.816406 18.851562 74.164062 18.851562 73.371094 C 18.851562 72.601562 18.6875 71.957031 18.367188 71.433594 C 18.054688 70.914062 17.664062 70.652344 17.195312 70.652344 C 16.726562 70.652344 16.328125 70.914062 16.007812 71.433594 C 15.695312 71.957031 15.539062 72.601562 15.539062 73.371094 C 15.539062 74.152344 15.695312 74.804688 16.007812 75.324219 C 16.320312 75.835938 16.710938 76.089844 17.179688 76.089844 Z M 25.210938 76.292969 L 25.210938 75.199219 C 24.960938 75.585938 24.648438 75.886719 24.273438 76.105469 C 23.898438 76.324219 23.511719 76.433594 23.117188 76.433594 C 22.617188 76.433594 22.21875 76.269531 21.929688 75.933594 C 21.648438 75.601562 21.507812 75.148438 21.507812 74.574219 L 21.507812 71.855469 L 21.476562 71.324219 C 21.453125 71.117188 21.417969 70.988281 21.367188 70.933594 C 21.3125 70.871094 21.183594 70.835938 20.976562 70.824219 L 20.617188 70.792969 L 20.507812 70.792969 L 20.507812 70.464844 L 22.554688 70.464844 L 22.554688 74.402344 C 22.554688 74.894531 22.625 75.242188 22.773438 75.449219 C 22.917969 75.648438 23.167969 75.746094 23.523438 75.746094 C 23.761719 75.746094 24.042969 75.664062 24.367188 75.496094 C 24.699219 75.320312 24.980469 75.101562 25.210938 74.839844 L 25.210938 71.855469 L 25.179688 71.324219 C 25.167969 71.117188 25.132812 70.988281 25.070312 70.933594 C 25.015625 70.871094 24.886719 70.835938 24.679688 70.824219 L 24.320312 70.792969 L 24.226562 70.792969 L 24.226562 70.464844 L 26.273438 70.464844 L 26.273438 74.902344 L 26.304688 75.433594 C 26.3125 75.644531 26.34375 75.773438 26.398438 75.824219 C 26.460938 75.878906 26.59375 75.914062 26.804688 75.933594 L 27.164062 75.949219 L 27.273438 75.964844 L 27.273438 76.292969 Z M 29.710938 71.558594 C 29.960938 71.175781 30.273438 70.871094 30.648438 70.652344 C 31.023438 70.433594 31.414062 70.324219 31.820312 70.324219 C 32.320312 70.324219 32.710938 70.492188 32.992188 70.824219 C 33.28125 71.160156 33.429688 71.613281 33.429688 72.183594 L 33.429688 74.902344 L 33.460938 75.433594 C 33.46875 75.644531 33.5 75.773438 33.554688 75.824219 C 33.617188 75.878906 33.75 75.914062 33.960938 75.933594 L 34.320312 75.949219 L 34.414062 75.964844 L 34.414062 76.292969 L 31.367188 76.292969 L 31.367188 75.964844 L 31.460938 75.949219 L 31.835938 75.933594 C 32.03125 75.914062 32.15625 75.878906 32.210938 75.824219 C 32.273438 75.773438 32.3125 75.644531 32.335938 75.433594 L 32.367188 74.902344 L 32.367188 72.355469 C 32.367188 71.855469 32.296875 71.507812 32.164062 71.308594 C 32.039062 71.113281 31.808594 71.011719 31.476562 71.011719 C 30.996094 71.011719 30.40625 71.308594 29.710938 71.902344 L 29.710938 74.902344 C 29.710938 75.195312 29.734375 75.449219 29.789062 75.667969 C 29.808594 75.761719 29.84375 75.832031 29.898438 75.871094 C 29.960938 75.902344 30.074219 75.925781 30.242188 75.933594 L 30.601562 75.949219 L 30.710938 75.964844 L 30.710938 76.292969 L 27.664062 76.292969 L 27.664062 75.964844 L 27.757812 75.949219 L 28.117188 75.933594 C 28.324219 75.914062 28.453125 75.878906 28.507812 75.824219 C 28.570312 75.773438 28.605469 75.644531 28.617188 75.433594 L 28.648438 74.902344 L 28.648438 71.855469 L 28.617188 71.324219 C 28.605469 71.117188 28.570312 70.988281 28.507812 70.933594 C 28.453125 70.871094 28.324219 70.835938 28.117188 70.824219 L 27.757812 70.792969 L 27.664062 70.792969 L 27.664062 70.464844 L 29.710938 70.464844 Z M 38.289062 76.261719 C 38.015625 76.375 37.761719 76.433594 37.523438 76.433594 C 36.96875 76.433594 36.539062 76.289062 36.226562 75.996094 C 36.039062 75.832031 35.90625 75.644531 35.835938 75.433594 C 35.773438 75.214844 35.742188 74.894531 35.742188 74.464844 L 35.742188 70.902344 L 34.882812 70.902344 L 34.882812 70.464844 L 35.742188 70.464844 L 35.742188 69.402344 L 36.804688 69.136719 L 36.804688 70.464844 L 38.414062 70.464844 L 38.414062 70.902344 L 36.804688 70.902344 L 36.804688 74.605469 C 36.804688 75.117188 36.851562 75.457031 36.945312 75.621094 C 37.089844 75.871094 37.335938 75.996094 37.679688 75.996094 C 37.84375 75.996094 38.046875 75.941406 38.289062 75.824219 Z M 40.976562 72.042969 L 40.976562 74.902344 C 40.976562 75.195312 41 75.449219 41.054688 75.667969 C 41.074219 75.761719 41.109375 75.832031 41.164062 75.871094 C 41.226562 75.902344 41.339844 75.925781 41.507812 75.933594 L 41.867188 75.949219 L 42.101562 75.964844 L 42.101562 76.292969 L 38.929688 76.292969 L 38.929688 75.964844 L 39.023438 75.949219 L 39.382812 75.933594 C 39.589844 75.914062 39.71875 75.878906 39.773438 75.824219 C 39.835938 75.773438 39.871094 75.644531 39.882812 75.433594 L 39.914062 74.902344 L 39.914062 71.855469 L 39.882812 71.324219 C 39.871094 71.117188 39.835938 70.988281 39.773438 70.933594 C 39.71875 70.871094 39.589844 70.835938 39.382812 70.824219 L 39.023438 70.792969 L 38.929688 70.792969 L 38.929688 70.464844 L 40.976562 70.464844 L 40.976562 71.558594 C 41.453125 70.738281 42.085938 70.324219 42.867188 70.324219 C 42.980469 70.324219 43.101562 70.347656 43.226562 70.386719 L 43.226562 71.980469 L 42.632812 71.980469 L 42.632812 71.886719 L 42.570312 71.480469 C 42.558594 71.367188 42.53125 71.292969 42.492188 71.261719 C 42.460938 71.222656 42.390625 71.199219 42.289062 71.199219 C 42.027344 71.199219 41.78125 71.273438 41.554688 71.417969 C 41.335938 71.566406 41.140625 71.773438 40.976562 72.042969 Z M 44.460938 78.417969 L 46.367188 76.292969 L 44.539062 71.871094 C 44.339844 71.402344 44.195312 71.113281 44.101562 70.996094 C 44.007812 70.871094 43.867188 70.804688 43.679688 70.792969 L 43.570312 70.792969 L 43.570312 70.464844 L 46.242188 70.464844 L 46.242188 70.792969 L 45.773438 70.792969 C 45.523438 70.792969 45.398438 70.855469 45.398438 70.980469 C 45.398438 71.023438 45.40625 71.082031 45.429688 71.152344 C 45.449219 71.183594 45.496094 71.304688 45.570312 71.511719 C 45.601562 71.628906 45.640625 71.746094 45.695312 71.871094 L 47.007812 74.996094 L 48.398438 71.855469 L 48.523438 71.527344 L 48.679688 71.152344 C 48.6875 71.101562 48.695312 71.050781 48.695312 70.996094 C 48.695312 70.863281 48.5625 70.792969 48.304688 70.792969 L 47.898438 70.792969 L 47.898438 70.464844 L 49.632812 70.464844 L 49.632812 70.792969 L 49.539062 70.792969 C 49.402344 70.804688 49.292969 70.855469 49.210938 70.949219 C 49.136719 71.035156 49.054688 71.183594 48.960938 71.402344 C 48.929688 71.476562 48.859375 71.632812 48.757812 71.871094 L 45.804688 78.417969 Z M 55.226562 71.558594 C 55.476562 71.175781 55.789062 70.871094 56.164062 70.652344 C 56.539062 70.433594 56.929688 70.324219 57.335938 70.324219 C 57.835938 70.324219 58.226562 70.492188 58.507812 70.824219 C 58.796875 71.160156 58.945312 71.613281 58.945312 72.183594 L 58.945312 74.902344 L 58.976562 75.433594 C 58.984375 75.644531 59.015625 75.773438 59.070312 75.824219 C 59.132812 75.878906 59.265625 75.914062 59.476562 75.933594 L 59.835938 75.949219 L 59.929688 75.964844 L 59.929688 76.292969 L 56.882812 76.292969 L 56.882812 75.964844 L 56.976562 75.949219 L 57.351562 75.933594 C 57.546875 75.914062 57.671875 75.878906 57.726562 75.824219 C 57.789062 75.773438 57.828125 75.644531 57.851562 75.433594 L 57.882812 74.902344 L 57.882812 72.355469 C 57.882812 71.855469 57.8125 71.507812 57.679688 71.308594 C 57.554688 71.113281 57.324219 71.011719 56.992188 71.011719 C 56.511719 71.011719 55.921875 71.308594 55.226562 71.902344 L 55.226562 74.902344 C 55.226562 75.195312 55.25 75.449219 55.304688 75.667969 C 55.324219 75.761719 55.359375 75.832031 55.414062 75.871094 C 55.476562 75.902344 55.589844 75.925781 55.757812 75.933594 L 56.117188 75.949219 L 56.226562 75.964844 L 56.226562 76.292969 L 53.179688 76.292969 L 53.179688 75.964844 L 53.273438 75.949219 L 53.632812 75.933594 C 53.839844 75.914062 53.96875 75.878906 54.023438 75.824219 C 54.085938 75.773438 54.121094 75.644531 54.132812 75.433594 L 54.164062 74.902344 L 54.164062 71.855469 L 54.132812 71.324219 C 54.121094 71.117188 54.085938 70.988281 54.023438 70.933594 C 53.96875 70.871094 53.839844 70.835938 53.632812 70.824219 L 53.273438 70.792969 L 53.179688 70.792969 L 53.179688 70.464844 L 55.226562 70.464844 Z M 64.070312 75.496094 C 63.714844 75.839844 63.398438 76.085938 63.117188 76.230469 C 62.84375 76.363281 62.539062 76.433594 62.195312 76.433594 C 61.703125 76.433594 61.292969 76.277344 60.960938 75.964844 C 60.625 75.644531 60.460938 75.246094 60.460938 74.777344 C 60.460938 74.226562 60.679688 73.777344 61.117188 73.433594 C 61.386719 73.214844 61.703125 73.066406 62.070312 72.980469 C 62.445312 72.886719 62.953125 72.839844 63.601562 72.839844 L 63.820312 72.839844 L 63.820312 72.121094 C 63.820312 71.207031 63.46875 70.746094 62.773438 70.746094 C 62.449219 70.746094 62.164062 70.847656 61.914062 71.042969 C 61.765625 71.160156 61.671875 71.410156 61.632812 71.792969 L 61.632812 71.886719 L 60.914062 71.886719 L 60.914062 70.824219 C 61.652344 70.492188 62.339844 70.324219 62.976562 70.324219 C 63.527344 70.324219 63.976562 70.457031 64.320312 70.714844 C 64.539062 70.882812 64.683594 71.066406 64.757812 71.261719 C 64.839844 71.449219 64.882812 71.722656 64.882812 72.074219 L 64.882812 74.683594 C 64.882812 75.144531 64.917969 75.472656 64.992188 75.667969 C 65.074219 75.855469 65.21875 75.949219 65.429688 75.949219 C 65.492188 75.949219 65.585938 75.933594 65.710938 75.902344 L 65.742188 76.292969 C 65.492188 76.386719 65.261719 76.433594 65.054688 76.433594 C 64.53125 76.433594 64.203125 76.121094 64.070312 75.496094 Z M 63.820312 75.371094 L 63.820312 73.183594 L 63.570312 73.183594 C 62.953125 73.183594 62.46875 73.316406 62.117188 73.574219 C 61.761719 73.824219 61.585938 74.175781 61.585938 74.621094 C 61.585938 74.964844 61.695312 75.246094 61.914062 75.464844 C 62.132812 75.683594 62.402344 75.792969 62.726562 75.792969 C 63.039062 75.792969 63.402344 75.652344 63.820312 75.371094 Z M 68.148438 71.558594 C 68.761719 70.738281 69.433594 70.324219 70.164062 70.324219 C 70.570312 70.324219 70.902344 70.433594 71.164062 70.652344 C 71.421875 70.863281 71.589844 71.164062 71.664062 71.558594 C 72.039062 71.101562 72.375 70.785156 72.679688 70.605469 C 72.992188 70.417969 73.34375 70.324219 73.742188 70.324219 C 74.230469 70.324219 74.609375 70.480469 74.882812 70.792969 C 75.164062 71.097656 75.304688 71.511719 75.304688 72.042969 L 75.304688 74.902344 C 75.304688 75.195312 75.328125 75.449219 75.382812 75.667969 C 75.402344 75.761719 75.4375 75.832031 75.492188 75.871094 C 75.554688 75.902344 75.667969 75.925781 75.835938 75.933594 L 76.195312 75.949219 L 76.304688 75.964844 L 76.304688 76.292969 L 73.257812 76.292969 L 73.257812 75.964844 L 73.351562 75.949219 L 73.726562 75.933594 C 73.890625 75.925781 74 75.902344 74.054688 75.871094 C 74.117188 75.832031 74.15625 75.761719 74.179688 75.667969 C 74.21875 75.449219 74.242188 75.195312 74.242188 74.902344 L 74.242188 72.246094 C 74.242188 71.789062 74.183594 71.472656 74.070312 71.292969 C 73.953125 71.105469 73.742188 71.011719 73.429688 71.011719 C 72.90625 71.011719 72.339844 71.316406 71.726562 71.917969 L 71.726562 74.902344 L 71.757812 75.433594 C 71.765625 75.644531 71.796875 75.773438 71.851562 75.824219 C 71.914062 75.878906 72.046875 75.914062 72.257812 75.933594 L 72.617188 75.949219 L 72.726562 75.964844 L 72.726562 76.292969 L 69.679688 76.292969 L 69.679688 75.964844 L 69.773438 75.949219 L 70.148438 75.933594 C 70.3125 75.925781 70.421875 75.902344 70.476562 75.871094 C 70.539062 75.832031 70.578125 75.761719 70.601562 75.667969 C 70.640625 75.449219 70.664062 75.195312 70.664062 74.902344 L 70.664062 72.246094 C 70.664062 71.789062 70.605469 71.472656 70.492188 71.292969 C 70.375 71.105469 70.167969 71.011719 69.867188 71.011719 C 69.304688 71.011719 68.730469 71.316406 68.148438 71.917969 L 68.148438 74.902344 C 68.148438 75.195312 68.171875 75.449219 68.226562 75.667969 C 68.246094 75.761719 68.28125 75.832031 68.335938 75.871094 C 68.398438 75.902344 68.511719 75.925781 68.679688 75.933594 L 69.039062 75.949219 L 69.148438 75.964844 L 69.148438 76.292969 L 66.101562 76.292969 L 66.101562 75.964844 L 66.195312 75.949219 L 66.554688 75.933594 C 66.761719 75.914062 66.890625 75.878906 66.945312 75.824219 C 67.007812 75.773438 67.042969 75.644531 67.054688 75.433594 L 67.085938 74.902344 L 67.085938 71.855469 L 67.054688 71.324219 C 67.042969 71.117188 67.007812 70.988281 66.945312 70.933594 C 66.890625 70.871094 66.761719 70.835938 66.554688 70.824219 L 66.195312 70.792969 L 66.101562 70.792969 L 66.101562 70.464844 L 68.148438 70.464844 Z M 81.570312 76.027344 C 80.890625 76.296875 80.277344 76.433594 79.726562 76.433594 C 78.871094 76.433594 78.171875 76.148438 77.632812 75.574219 C 77.101562 74.992188 76.835938 74.242188 76.835938 73.324219 C 76.835938 72.441406 77.074219 71.722656 77.554688 71.167969 C 78.03125 70.605469 78.648438 70.324219 79.398438 70.324219 C 80.09375 70.324219 80.632812 70.558594 81.007812 71.027344 C 81.382812 71.496094 81.570312 72.167969 81.570312 73.042969 L 81.570312 73.152344 L 78.007812 73.152344 C 78.007812 73.957031 78.117188 74.554688 78.335938 74.949219 C 78.679688 75.574219 79.199219 75.886719 79.898438 75.886719 C 80.554688 75.886719 81.109375 75.753906 81.570312 75.480469 Z M 78.023438 72.808594 L 80.445312 72.808594 L 80.445312 72.574219 C 80.445312 72.148438 80.421875 71.835938 80.382812 71.636719 C 80.351562 71.441406 80.28125 71.261719 80.179688 71.105469 C 79.96875 70.804688 79.6875 70.652344 79.335938 70.652344 C 78.929688 70.652344 78.605469 70.851562 78.367188 71.246094 C 78.136719 71.632812 78.023438 72.152344 78.023438 72.808594 Z M 78.023438 72.808594 "/>
</g>
</svg>
