<?xml version="1.0" encoding="UTF-8"?>
<svg xmlns="http://www.w3.org/2000/svg" xmlns:xlink="http://www.w3.org/1999/xlink" width="150" height="150" viewBox="0 0 150 150">
<defs>
<filter id="filter-remove-color-and-invert-alpha" x="0%" y="0%" width="100%" height="100%">
<feColorMatrix color-interpolation-filters="sRGB" values="0 0 0 0 1 0 0 0 0 1 0 0 0 0 1 0 0 0 -1 1"/>
</filter>
<filter id="filter-0" x="0%" y="0%" width="100%" height="100%">
<feImage xlink:href="#compositing-group-1" result="source" x="0" y="0" width="180" height="180"/>
<feImage xlink:href="#compositing-group-2" result="destination" x="0" y="0" width="180" height="180"/>
<feComposite in="source" in2="destination" operator="arithmetic" k1="0" k2="1" k3="1" k4="0" color-interpolation-filters="sRGB"/>
</filter>
<g id="compositing-group-0" transform="translate(15, 15)">
<rect x="-15" y="-15" width="180" height="180" fill="rgb(0%, 0%, 0%)" fill-opacity="0"/>
<rect x="-15" y="-15" width="180" height="180" fill="rgb(100%, 100%, 100%)" fill-opacity="1"/>
</g>
<mask id="mask-0">
<use xlink:href="#compositing-group-0"/>
</mask>
<mask id="mask-1">
<use xlink:href="#compositing-group-0" filter="url(#filter-remove-color-and-invert-alpha)"/>
</mask>
<g id="compositing-group-1" mask="url(#mask-0)">
<g transform="translate(15, 15)">
<rect x="-15" y="-15" width="180" height="180" fill="rgb(64.705882%, 74.901961%, 86.666667%)" fill-opacity="1"/>
</g>
</g>
<g id="compositing-group-2" mask="url(#mask-1)">
<g transform="translate(15, 15)">
</g>
</g>
</defs>
<g filter="url(#filter-0)" transform="translate(-15, -15)">
<rect x="0" y="0" width="180" height="180" fill="rgb(0%, 0%, 0%)" fill-opacity="1"/>
</g>
<path fill-rule="evenodd" fill="rgb(53.333333%, 53.333333%, 53.333333%)" fill-opacity="1" d="M 0 149 L 49.667969 149 L 49.667969 99.332031 L 0 99.332031 Z M 0 149 "/>
<path fill="none" stroke-width="1" stroke-linecap="round" stroke-linejoin="round" stroke="rgb(0%, 0%, 0%)" stroke-opacity="1" stroke-miterlimit="10" d="M 0 149 L 49.667969 149 L 49.667969 99.332031 L 0 99.332031 L 0 149 "/>
<path fill-rule="evenodd" fill="rgb(53.333333%, 53.333333%, 53.333333%)" fill-opacity="1" d="M 49.667969 149 L 99.332031 149 L 99.332031 99.332031 L 49.667969 99.332031 Z M 49.667969 149 "/>
<path fill="none" stroke-width="1" stroke-linecap="round" stroke-linejoin="round" stroke="rgb(0%, 0%, 0%)" stroke-opacity="1" stroke-miterlimit="10" d="M 49.667969 149 L 99.332031 149 L 99.332031 99.332031 L 49.667969 99.332031 L 49.667969 149 "/>
<path fill-rule="evenodd" fill="rgb(53.333333%, 53.333333%, 53.333333%)" fill-opacity="1" d="M 99.332031 149 L 149 149 L 149 99.332031 L 99.332031 99.332031 Z M 99.332031 149 "/>
<path fill="none" stroke-width="1" stroke-linecap="round" stroke-linejoin="round" stroke="rgb(0%, 0%, 0%)" stroke-opacity="1" stroke-miterlimit="10" d="M 99.332031 149 L 149 149 L 149 99.332031 L 99.332031 99.332031 L 99.332031 149 "/>
<path fill-rule="evenodd" fill="rgb(53.333333%, 53.333333%, 53.333333%)" fill-opacity="1" d="M 0 99.332031 L 49.667969 99.332031 L 49.667969 49.667969 L 0 49.667969 Z M 0 99.332031 "/>
<path fill="none" stroke-width="1" stroke-linecap="round" stroke-linejoin="round" stroke="rgb(0%, 0%, 0%)" stroke-opacity="1" stroke-miterlimit="10" d="M 0 99.332031 L 49.667969 99.332031 L 49.667969 49.667969 L 0 49.667969 L 0 99.332031 "/>
<path fill-rule="evenodd" fill="rgb(53.333333%, 53.333333%, 53.333333%)" fill-opacity="1" d="M 49.667969 99.332031 L 99.332031 99.332031 L 99.332031 49.667969 L 49.667969 49.667969 Z M 49.667969 99.332031 "/>
<path fill="none" stroke-width="1" stroke-linecap="round" stroke-linejoin="round" stroke="rgb(0%, 0%, 0%)" stroke-opacity="1" stroke-miterlimit="10" d="M 49.667969 99.332031 L 99.332031 99.332031 L 99.332031 49.667969 L 49.667969 49.667969 L 49.667969 99.332031 "/>
<path fill-rule="evenodd" fill="rgb(53.333333%, 53.333333%, 53.333333%)" fill-opacity="1" d="M 99.332031 99.332031 L 149 99.332031 L 149 49.667969 L 99.332031 49.667969 Z M 99.332031 99.332031 "/>
<path fill="none" stroke-width="1" stroke-linecap="round" stroke-linejoin="round" stroke="rgb(0%, 0%, 0%)" stroke-opacity="1" stroke-miterlimit="10" d="M 99.332031 99.332031 L 149 99.332031 L 149 49.667969 L 99.332031 49.667969 L 99.332031 99.332031 "/>
<path fill-rule="evenodd" fill="rgb(53.333333%, 53.333333%, 53.333333%)" fill-opacity="1" d="M 0 49.667969 L 49.667969 49.667969 L 49.667969 0 L 0 0 Z M 0 49.667969 "/>
<path fill="none" stroke-width="1" stroke-linecap="round" stroke-linejoin="round" stroke="rgb(0%, 0%, 0%)" stroke-opacity="1" stroke-miterlimit="10" d="M 0 49.667969 L 49.667969 49.667969 L 49.667969 0 L 0 0 L 0 49.667969 "/>
<path fill-rule="evenodd" fill="rgb(53.333333%, 53.333333%, 53.333333%)" fill-opacity="1" d="M 49.667969 49.667969 L 99.332031 49.667969 L 99.332031 0 L 49.667969 0 Z M 49.667969 49.667969 "/>
<path fill="none" stroke-width="1" stroke-linecap="round" stroke-linejoin="round" stroke="rgb(0%, 0%, 0%)" stroke-opacity="1" stroke-miterlimit="10" d="M 49.667969 49.667969 L 99.332031 49.667969 L 99.332031 0 L 49.667969 0 L 49.667969 49.667969 "/>
<path fill-rule="evenodd" fill="rgb(53.333333%, 53.333333%, 53.333333%)" fill-opacity="1" d="M 99.332031 49.667969 L 149 49.667969 L 149 0 L 99.332031 0 Z M 99.332031 49.667969 "/>
<path fill="none" stroke-width="1" stroke-linecap="round" stroke-linejoin="round" stroke="rgb(0%, 0%, 0%)" stroke-opacity="1" stroke-miterlimit="10" d="M 99.332031 49.667969 L 149 49.667969 L 149 0 L 99.332031 0 L 99.332031 49.667969 "/>
<path fill-rule="evenodd" fill="rgb(100%, 0%, 0%)" fill-opacity="1" d="M 129.167969 24.832031 C 129.167969 31.5 119.167969 31.5 119.167969 24.832031 C 119.167969 18.167969 129.167969 18.167969 129.167969 24.832031 "/>
<path fill-rule="evenodd" fill="rgb(0%, 0%, 0%)" fill-opacity="1" d="M 129.261719 12.003906 L 129.261719 11.675781 L 132.386719 11.675781 L 132.386719 12.003906 L 132.292969 12.019531 L 131.917969 12.035156 C 131.75 12.058594 131.636719 12.082031 131.574219 12.113281 C 131.519531 12.136719 131.484375 12.191406 131.464844 12.285156 C 131.410156 12.515625 131.386719 12.777344 131.386719 13.066406 L 131.386719 16.472656 C 131.386719 17.296875 131.40625 17.832031 131.449219 18.082031 C 131.5 18.332031 131.609375 18.574219 131.777344 18.800781 C 132.121094 19.25 132.640625 19.472656 133.339844 19.472656 C 133.984375 19.472656 134.5 19.277344 134.886719 18.878906 C 135.105469 18.660156 135.246094 18.417969 135.308594 18.144531 C 135.378906 17.875 135.417969 17.394531 135.417969 16.707031 L 135.417969 13.066406 L 135.386719 12.535156 C 135.375 12.339844 135.339844 12.214844 135.277344 12.160156 C 135.222656 12.097656 135.09375 12.058594 134.886719 12.035156 L 134.527344 12.019531 L 134.433594 12.003906 L 134.433594 11.675781 L 136.964844 11.675781 L 136.964844 12.003906 L 136.871094 12.019531 L 136.511719 12.035156 C 136.332031 12.058594 136.214844 12.082031 136.152344 12.113281 C 136.097656 12.136719 136.0625 12.191406 136.042969 12.285156 C 136 12.515625 135.980469 12.777344 135.980469 13.066406 L 135.980469 16.394531 C 135.980469 17.136719 135.9375 17.675781 135.855469 18.019531 C 135.769531 18.363281 135.605469 18.6875 135.355469 18.988281 C 134.894531 19.550781 134.171875 19.832031 133.183594 19.832031 C 132.328125 19.832031 131.652344 19.625 131.152344 19.207031 C 130.828125 18.949219 130.59375 18.621094 130.449219 18.222656 C 130.3125 17.816406 130.246094 17.296875 130.246094 16.660156 L 130.246094 13.066406 L 130.214844 12.535156 C 130.203125 12.339844 130.167969 12.214844 130.105469 12.160156 C 130.050781 12.097656 129.921875 12.058594 129.714844 12.035156 L 129.355469 12.019531 Z M 139.417969 16.128906 L 139.417969 18.238281 L 139.449219 18.769531 C 139.449219 18.988281 139.484375 19.125 139.558594 19.175781 C 139.628906 19.230469 139.839844 19.265625 140.183594 19.285156 L 140.277344 19.300781 L 140.277344 19.628906 L 137.308594 19.628906 L 137.308594 19.300781 L 137.402344 19.285156 L 137.761719 19.269531 C 137.96875 19.25 138.097656 19.214844 138.152344 19.160156 C 138.214844 19.109375 138.25 18.980469 138.261719 18.769531 L 138.292969 18.238281 L 138.292969 13.066406 L 138.261719 12.535156 C 138.25 12.339844 138.214844 12.214844 138.152344 12.160156 C 138.097656 12.097656 137.96875 12.058594 137.761719 12.035156 L 137.402344 12.019531 L 137.308594 12.003906 L 137.308594 11.675781 L 139.746094 11.675781 L 140.621094 11.644531 C 141.421875 11.644531 142.03125 11.816406 142.449219 12.160156 C 142.863281 12.496094 143.074219 12.988281 143.074219 13.644531 C 143.074219 14.1875 142.933594 14.652344 142.652344 15.035156 C 142.371094 15.421875 141.964844 15.703125 141.433594 15.878906 L 142.996094 18.222656 L 143.496094 18.925781 C 143.597656 19.074219 143.6875 19.167969 143.761719 19.207031 C 143.832031 19.25 143.9375 19.269531 144.074219 19.269531 C 144.125 19.269531 144.246094 19.277344 144.433594 19.285156 L 144.542969 19.300781 L 144.542969 19.628906 L 142.511719 19.628906 L 140.339844 16.128906 Z M 139.433594 15.769531 L 139.824219 15.769531 C 140.292969 15.769531 140.660156 15.71875 140.933594 15.613281 C 141.203125 15.5 141.425781 15.308594 141.605469 15.035156 C 141.824219 14.714844 141.933594 14.292969 141.933594 13.769531 C 141.933594 13.238281 141.828125 12.828125 141.621094 12.535156 C 141.484375 12.347656 141.3125 12.21875 141.105469 12.144531 C 140.894531 12.074219 140.589844 12.035156 140.183594 12.035156 L 139.433594 12.035156 Z M 139.433594 15.769531 "/>
<path fill-rule="evenodd" fill="rgb(100%, 0%, 0%)" fill-opacity="1" d="M 79.5 24.832031 C 79.5 31.5 69.5 31.5 69.5 24.832031 C 69.5 18.167969 79.5 18.167969 79.5 24.832031 "/>
<path fill-rule="evenodd" fill="rgb(0%, 0%, 0%)" fill-opacity="1" d="M 66.8125 10.003906 L 66.8125 9.675781 L 69.9375 9.675781 L 69.9375 10.003906 L 69.84375 10.019531 L 69.46875 10.035156 C 69.300781 10.058594 69.1875 10.082031 69.125 10.113281 C 69.070312 10.136719 69.035156 10.191406 69.015625 10.285156 C 68.960938 10.515625 68.9375 10.777344 68.9375 11.066406 L 68.9375 14.472656 C 68.9375 15.296875 68.957031 15.832031 69 16.082031 C 69.050781 16.332031 69.160156 16.574219 69.328125 16.800781 C 69.671875 17.25 70.191406 17.472656 70.890625 17.472656 C 71.535156 17.472656 72.050781 17.277344 72.4375 16.878906 C 72.65625 16.660156 72.796875 16.417969 72.859375 16.144531 C 72.929688 15.875 72.96875 15.394531 72.96875 14.707031 L 72.96875 11.066406 L 72.9375 10.535156 C 72.925781 10.339844 72.890625 10.214844 72.828125 10.160156 C 72.773438 10.097656 72.644531 10.058594 72.4375 10.035156 L 72.078125 10.019531 L 71.984375 10.003906 L 71.984375 9.675781 L 74.515625 9.675781 L 74.515625 10.003906 L 74.421875 10.019531 L 74.0625 10.035156 C 73.882812 10.058594 73.765625 10.082031 73.703125 10.113281 C 73.648438 10.136719 73.613281 10.191406 73.59375 10.285156 C 73.550781 10.515625 73.53125 10.777344 73.53125 11.066406 L 73.53125 14.394531 C 73.53125 15.136719 73.488281 15.675781 73.40625 16.019531 C 73.320312 16.363281 73.15625 16.6875 72.90625 16.988281 C 72.445312 17.550781 71.722656 17.832031 70.734375 17.832031 C 69.878906 17.832031 69.203125 17.625 68.703125 17.207031 C 68.378906 16.949219 68.144531 16.621094 68 16.222656 C 67.863281 15.816406 67.796875 15.296875 67.796875 14.660156 L 67.796875 11.066406 L 67.765625 10.535156 C 67.753906 10.339844 67.71875 10.214844 67.65625 10.160156 C 67.601562 10.097656 67.472656 10.058594 67.265625 10.035156 L 66.90625 10.019531 Z M 81.640625 17.207031 C 80.921875 17.625 80.082031 17.832031 79.125 17.832031 C 77.90625 17.832031 76.941406 17.457031 76.234375 16.707031 C 75.535156 15.957031 75.1875 14.9375 75.1875 13.644531 C 75.1875 12.175781 75.613281 11.0625 76.46875 10.300781 C 77.09375 9.761719 77.953125 9.488281 79.046875 9.488281 C 79.671875 9.488281 80.421875 9.605469 81.296875 9.832031 L 81.5 9.878906 L 81.5 11.394531 L 80.84375 11.394531 L 80.84375 11.285156 C 80.832031 11.183594 80.828125 11.078125 80.828125 10.972656 C 80.828125 10.671875 80.75 10.457031 80.59375 10.332031 C 80.425781 10.1875 80.191406 10.074219 79.890625 9.988281 C 79.585938 9.894531 79.296875 9.847656 79.015625 9.847656 C 78.203125 9.847656 77.554688 10.191406 77.078125 10.878906 C 76.597656 11.566406 76.359375 12.484375 76.359375 13.628906 C 76.359375 14.785156 76.640625 15.6875 77.203125 16.332031 C 77.765625 16.980469 78.546875 17.300781 79.546875 17.300781 C 80.203125 17.300781 80.898438 17.097656 81.640625 16.691406 Z M 81.640625 17.207031 "/>
<path fill-rule="evenodd" fill="rgb(100%, 0%, 0%)" fill-opacity="1" d="M 29.832031 24.832031 C 29.832031 31.5 19.832031 31.5 19.832031 24.832031 C 19.832031 18.167969 29.832031 18.167969 29.832031 24.832031 "/>
<path fill-rule="evenodd" fill="rgb(0%, 0%, 0%)" fill-opacity="1" d="M 5.894531 12.003906 L 5.894531 11.675781 L 9.019531 11.675781 L 9.019531 12.003906 L 8.925781 12.019531 L 8.550781 12.035156 C 8.382812 12.058594 8.269531 12.082031 8.207031 12.113281 C 8.152344 12.136719 8.117188 12.191406 8.097656 12.285156 C 8.042969 12.515625 8.019531 12.777344 8.019531 13.066406 L 8.019531 16.472656 C 8.019531 17.296875 8.039062 17.832031 8.082031 18.082031 C 8.132812 18.332031 8.242188 18.574219 8.410156 18.800781 C 8.753906 19.25 9.273438 19.472656 9.972656 19.472656 C 10.617188 19.472656 11.132812 19.277344 11.519531 18.878906 C 11.738281 18.660156 11.878906 18.417969 11.941406 18.144531 C 12.011719 17.875 12.050781 17.394531 12.050781 16.707031 L 12.050781 13.066406 L 12.019531 12.535156 C 12.007812 12.339844 11.972656 12.214844 11.910156 12.160156 C 11.855469 12.097656 11.726562 12.058594 11.519531 12.035156 L 11.160156 12.019531 L 11.066406 12.003906 L 11.066406 11.675781 L 13.597656 11.675781 L 13.597656 12.003906 L 13.503906 12.019531 L 13.144531 12.035156 C 12.964844 12.058594 12.847656 12.082031 12.785156 12.113281 C 12.730469 12.136719 12.695312 12.191406 12.675781 12.285156 C 12.632812 12.515625 12.613281 12.777344 12.613281 13.066406 L 12.613281 16.394531 C 12.613281 17.136719 12.570312 17.675781 12.488281 18.019531 C 12.402344 18.363281 12.238281 18.6875 11.988281 18.988281 C 11.527344 19.550781 10.804688 19.832031 9.816406 19.832031 C 8.960938 19.832031 8.285156 19.625 7.785156 19.207031 C 7.460938 18.949219 7.226562 18.621094 7.082031 18.222656 C 6.945312 17.816406 6.878906 17.296875 6.878906 16.660156 L 6.878906 13.066406 L 6.847656 12.535156 C 6.835938 12.339844 6.800781 12.214844 6.738281 12.160156 C 6.683594 12.097656 6.554688 12.058594 6.347656 12.035156 L 5.988281 12.019531 Z M 19.644531 19.628906 L 13.941406 19.628906 L 13.941406 19.300781 L 14.035156 19.285156 L 14.394531 19.269531 C 14.601562 19.25 14.730469 19.214844 14.785156 19.160156 C 14.847656 19.109375 14.882812 18.980469 14.894531 18.769531 L 14.925781 18.238281 L 14.925781 13.066406 L 14.894531 12.535156 C 14.882812 12.339844 14.847656 12.214844 14.785156 12.160156 C 14.730469 12.097656 14.601562 12.058594 14.394531 12.035156 L 14.035156 12.019531 L 13.941406 12.003906 L 13.941406 11.675781 L 17.050781 11.675781 L 17.050781 12.003906 L 16.957031 12.019531 L 16.582031 12.035156 C 16.382812 12.058594 16.253906 12.097656 16.191406 12.160156 C 16.136719 12.214844 16.105469 12.339844 16.097656 12.535156 L 16.066406 13.066406 L 16.066406 18.238281 C 16.066406 18.71875 16.097656 18.996094 16.160156 19.066406 C 16.230469 19.128906 16.507812 19.160156 16.988281 19.160156 L 17.800781 19.160156 C 18.277344 19.160156 18.621094 19.128906 18.832031 19.066406 C 18.964844 19.027344 19.039062 18.902344 19.050781 18.691406 L 19.066406 18.144531 L 19.066406 18.035156 L 19.644531 18.035156 Z M 19.644531 19.628906 "/>
<path fill-rule="evenodd" fill="rgb(100%, 0%, 0%)" fill-opacity="1" d="M 129.167969 74.5 C 129.167969 81.167969 119.167969 81.167969 119.167969 74.5 C 119.167969 67.832031 129.167969 67.832031 129.167969 74.5 "/>
<path fill-rule="evenodd" fill="rgb(0%, 0%, 0%)" fill-opacity="1" d="M 138.183594 78.875 C 137.464844 79.292969 136.625 79.5 135.667969 79.5 C 134.449219 79.5 133.484375 79.125 132.777344 78.375 C 132.078125 77.625 131.730469 76.605469 131.730469 75.3125 C 131.730469 73.84375 132.15625 72.730469 133.011719 71.96875 C 133.636719 71.429688 134.496094 71.15625 135.589844 71.15625 C 136.214844 71.15625 136.964844 71.273438 137.839844 71.5 L 138.042969 71.546875 L 138.042969 73.0625 L 137.386719 73.0625 L 137.386719 72.953125 C 137.375 72.851562 137.371094 72.746094 137.371094 72.640625 C 137.371094 72.339844 137.292969 72.125 137.136719 72 C 136.96875 71.855469 136.734375 71.742188 136.433594 71.65625 C 136.128906 71.5625 135.839844 71.515625 135.558594 71.515625 C 134.746094 71.515625 134.097656 71.859375 133.621094 72.546875 C 133.140625 73.234375 132.902344 74.152344 132.902344 75.296875 C 132.902344 76.453125 133.183594 77.355469 133.746094 78 C 134.308594 78.648438 135.089844 78.96875 136.089844 78.96875 C 136.746094 78.96875 137.441406 78.765625 138.183594 78.359375 Z M 141.167969 75.796875 L 141.167969 77.90625 L 141.199219 78.4375 C 141.199219 78.65625 141.234375 78.792969 141.308594 78.84375 C 141.378906 78.898438 141.589844 78.933594 141.933594 78.953125 L 142.027344 78.96875 L 142.027344 79.296875 L 139.058594 79.296875 L 139.058594 78.96875 L 139.152344 78.953125 L 139.511719 78.9375 C 139.71875 78.917969 139.847656 78.882812 139.902344 78.828125 C 139.964844 78.777344 140 78.648438 140.011719 78.4375 L 140.042969 77.90625 L 140.042969 72.734375 L 140.011719 72.203125 C 140 72.007812 139.964844 71.882812 139.902344 71.828125 C 139.847656 71.765625 139.71875 71.726562 139.511719 71.703125 L 139.152344 71.6875 L 139.058594 71.671875 L 139.058594 71.34375 L 141.496094 71.34375 L 142.371094 71.3125 C 143.171875 71.3125 143.78125 71.484375 144.199219 71.828125 C 144.613281 72.164062 144.824219 72.65625 144.824219 73.3125 C 144.824219 73.855469 144.683594 74.320312 144.402344 74.703125 C 144.121094 75.089844 143.714844 75.371094 143.183594 75.546875 L 144.746094 77.890625 L 145.246094 78.59375 C 145.347656 78.742188 145.4375 78.835938 145.511719 78.875 C 145.582031 78.917969 145.6875 78.9375 145.824219 78.9375 C 145.875 78.9375 145.996094 78.945312 146.183594 78.953125 L 146.292969 78.96875 L 146.292969 79.296875 L 144.261719 79.296875 L 142.089844 75.796875 Z M 141.183594 75.4375 L 141.574219 75.4375 C 142.042969 75.4375 142.410156 75.386719 142.683594 75.28125 C 142.953125 75.167969 143.175781 74.976562 143.355469 74.703125 C 143.574219 74.382812 143.683594 73.960938 143.683594 73.4375 C 143.683594 72.90625 143.578125 72.496094 143.371094 72.203125 C 143.234375 72.015625 143.0625 71.886719 142.855469 71.8125 C 142.644531 71.742188 142.339844 71.703125 141.933594 71.703125 L 141.183594 71.703125 Z M 141.183594 75.4375 "/>
<path fill-rule="evenodd" fill="rgb(100%, 0%, 0%)" fill-opacity="1" d="M 79.5 74.5 C 79.5 81.167969 69.5 81.167969 69.5 74.5 C 69.5 67.832031 79.5 67.832031 79.5 74.5 "/>
<path fill-rule="evenodd" fill="rgb(0%, 0%, 0%)" fill-opacity="1" d="M 39.59375 66.84375 L 39.125 67.90625 C 39.0625 68.054688 39.023438 68.152344 39.015625 68.203125 L 38.890625 68.578125 C 38.867188 68.640625 38.859375 68.699219 38.859375 68.75 C 38.859375 68.886719 39 68.953125 39.28125 68.953125 L 39.5625 68.96875 L 39.640625 68.96875 L 39.640625 69.296875 L 37.578125 69.296875 L 37.578125 68.96875 L 37.6875 68.953125 L 37.953125 68.953125 C 38.066406 68.945312 38.15625 68.90625 38.21875 68.84375 C 38.289062 68.773438 38.363281 68.648438 38.4375 68.46875 L 38.6875 67.90625 L 41.484375 61.25 L 41.859375 61.25 L 44.65625 67.9375 L 44.921875 68.5 C 45.023438 68.710938 45.109375 68.835938 45.171875 68.875 C 45.242188 68.917969 45.398438 68.945312 45.640625 68.953125 L 45.765625 68.96875 L 45.765625 69.296875 L 42.8125 69.296875 L 42.8125 68.96875 L 42.90625 68.96875 L 43.234375 68.953125 C 43.515625 68.953125 43.65625 68.886719 43.65625 68.75 C 43.65625 68.542969 43.582031 68.261719 43.4375 67.90625 L 43 66.84375 Z M 39.765625 66.40625 L 42.796875 66.40625 L 41.296875 62.796875 Z M 45.859375 61.671875 L 45.859375 61.34375 L 48.984375 61.34375 L 48.984375 61.671875 L 48.890625 61.6875 L 48.515625 61.703125 C 48.347656 61.726562 48.234375 61.75 48.171875 61.78125 C 48.117188 61.804688 48.082031 61.859375 48.0625 61.953125 C 48.007812 62.183594 47.984375 62.445312 47.984375 62.734375 L 47.984375 66.140625 C 47.984375 66.964844 48.003906 67.5 48.046875 67.75 C 48.097656 68 48.207031 68.242188 48.375 68.46875 C 48.71875 68.917969 49.238281 69.140625 49.9375 69.140625 C 50.582031 69.140625 51.097656 68.945312 51.484375 68.546875 C 51.703125 68.328125 51.84375 68.085938 51.90625 67.8125 C 51.976562 67.542969 52.015625 67.0625 52.015625 66.375 L 52.015625 62.734375 L 51.984375 62.203125 C 51.972656 62.007812 51.9375 61.882812 51.875 61.828125 C 51.820312 61.765625 51.691406 61.726562 51.484375 61.703125 L 51.125 61.6875 L 51.03125 61.671875 L 51.03125 61.34375 L 53.5625 61.34375 L 53.5625 61.671875 L 53.46875 61.6875 L 53.109375 61.703125 C 52.929688 61.726562 52.8125 61.75 52.75 61.78125 C 52.695312 61.804688 52.660156 61.859375 52.640625 61.953125 C 52.597656 62.183594 52.578125 62.445312 52.578125 62.734375 L 52.578125 66.0625 C 52.578125 66.804688 52.535156 67.34375 52.453125 67.6875 C 52.367188 68.03125 52.203125 68.355469 51.953125 68.65625 C 51.492188 69.21875 50.769531 69.5 49.78125 69.5 C 48.925781 69.5 48.25 69.292969 47.75 68.875 C 47.425781 68.617188 47.191406 68.289062 47.046875 67.890625 C 46.910156 67.484375 46.84375 66.964844 46.84375 66.328125 L 46.84375 62.734375 L 46.8125 62.203125 C 46.800781 62.007812 46.765625 61.882812 46.703125 61.828125 C 46.648438 61.765625 46.519531 61.726562 46.3125 61.703125 L 45.953125 61.6875 Z M 56.75 61.78125 L 55.484375 61.78125 L 54.921875 61.796875 C 54.734375 61.796875 54.613281 61.824219 54.5625 61.875 C 54.507812 61.929688 54.484375 62.042969 54.484375 62.21875 C 54.484375 62.40625 54.476562 62.570312 54.46875 62.703125 L 54.46875 62.796875 L 53.90625 62.796875 L 53.90625 61.34375 L 60.734375 61.34375 L 60.734375 62.796875 L 60.171875 62.796875 L 60.15625 62.703125 C 60.144531 62.570312 60.140625 62.40625 60.140625 62.21875 C 60.140625 62.042969 60.113281 61.929688 60.0625 61.875 C 60.007812 61.824219 59.890625 61.796875 59.703125 61.796875 L 59.15625 61.78125 L 57.875 61.78125 L 57.875 67.90625 L 57.90625 68.4375 C 57.925781 68.648438 57.960938 68.777344 58.015625 68.828125 C 58.066406 68.882812 58.195312 68.917969 58.40625 68.9375 L 58.78125 68.953125 L 59 68.96875 L 59 69.296875 L 55.625 69.296875 L 55.625 68.96875 L 55.859375 68.953125 L 56.21875 68.9375 C 56.425781 68.917969 56.554688 68.882812 56.609375 68.828125 C 56.671875 68.777344 56.707031 68.648438 56.71875 68.4375 L 56.75 67.90625 Z M 65.171875 69.5 C 64.179688 69.5 63.351562 69.183594 62.6875 68.546875 C 61.90625 67.808594 61.515625 66.734375 61.515625 65.328125 C 61.515625 64.039062 61.84375 63.023438 62.5 62.28125 C 63.164062 61.53125 64.078125 61.15625 65.234375 61.15625 C 66.378906 61.15625 67.28125 61.527344 67.9375 62.265625 C 68.601562 63.007812 68.9375 64.023438 68.9375 65.3125 C 68.9375 66.617188 68.601562 67.640625 67.9375 68.390625 C 67.269531 69.132812 66.347656 69.5 65.171875 69.5 Z M 65.1875 69.125 C 66 69.125 66.628906 68.792969 67.078125 68.125 C 67.523438 67.460938 67.75 66.515625 67.75 65.296875 C 67.75 64.121094 67.523438 63.199219 67.078125 62.53125 C 66.628906 61.855469 66.015625 61.515625 65.234375 61.515625 C 64.441406 61.515625 63.820312 61.855469 63.375 62.53125 C 62.925781 63.199219 62.703125 64.125 62.703125 65.3125 C 62.703125 66.5 62.921875 67.433594 63.359375 68.109375 C 63.804688 68.789062 64.414062 69.125 65.1875 69.125 Z M 65.1875 69.125 "/>
<path fill-rule="evenodd" fill="rgb(100%, 0%, 0%)" fill-opacity="1" d="M 29.832031 74.5 C 29.832031 81.167969 19.832031 81.167969 19.832031 74.5 C 19.832031 67.832031 29.832031 67.832031 29.832031 74.5 "/>
<path fill-rule="evenodd" fill="rgb(0%, 0%, 0%)" fill-opacity="1" d="M 11.066406 78.875 C 10.347656 79.292969 9.507812 79.5 8.550781 79.5 C 7.332031 79.5 6.367188 79.125 5.660156 78.375 C 4.960938 77.625 4.613281 76.605469 4.613281 75.3125 C 4.613281 73.84375 5.039062 72.730469 5.894531 71.96875 C 6.519531 71.429688 7.378906 71.15625 8.472656 71.15625 C 9.097656 71.15625 9.847656 71.273438 10.722656 71.5 L 10.925781 71.546875 L 10.925781 73.0625 L 10.269531 73.0625 L 10.269531 72.953125 C 10.257812 72.851562 10.253906 72.746094 10.253906 72.640625 C 10.253906 72.339844 10.175781 72.125 10.019531 72 C 9.851562 71.855469 9.617188 71.742188 9.316406 71.65625 C 9.011719 71.5625 8.722656 71.515625 8.441406 71.515625 C 7.628906 71.515625 6.980469 71.859375 6.503906 72.546875 C 6.023438 73.234375 5.785156 74.152344 5.785156 75.296875 C 5.785156 76.453125 6.066406 77.355469 6.628906 78 C 7.191406 78.648438 7.972656 78.96875 8.972656 78.96875 C 9.628906 78.96875 10.324219 78.765625 11.066406 78.359375 Z M 17.644531 79.296875 L 11.941406 79.296875 L 11.941406 78.96875 L 12.035156 78.953125 L 12.394531 78.9375 C 12.601562 78.917969 12.730469 78.882812 12.785156 78.828125 C 12.847656 78.777344 12.882812 78.648438 12.894531 78.4375 L 12.925781 77.90625 L 12.925781 72.734375 L 12.894531 72.203125 C 12.882812 72.007812 12.847656 71.882812 12.785156 71.828125 C 12.730469 71.765625 12.601562 71.726562 12.394531 71.703125 L 12.035156 71.6875 L 11.941406 71.671875 L 11.941406 71.34375 L 15.050781 71.34375 L 15.050781 71.671875 L 14.957031 71.6875 L 14.582031 71.703125 C 14.382812 71.726562 14.253906 71.765625 14.191406 71.828125 C 14.136719 71.882812 14.105469 72.007812 14.097656 72.203125 L 14.066406 72.734375 L 14.066406 77.90625 C 14.066406 78.386719 14.097656 78.664062 14.160156 78.734375 C 14.230469 78.796875 14.507812 78.828125 14.988281 78.828125 L 15.800781 78.828125 C 16.277344 78.828125 16.621094 78.796875 16.832031 78.734375 C 16.964844 78.695312 17.039062 78.570312 17.050781 78.359375 L 17.066406 77.8125 L 17.066406 77.703125 L 17.644531 77.703125 Z M 17.644531 79.296875 "/>
<path fill-rule="evenodd" fill="rgb(100%, 0%, 0%)" fill-opacity="1" d="M 129.167969 124.167969 C 129.167969 130.832031 119.167969 130.832031 119.167969 124.167969 C 119.167969 117.5 129.167969 117.5 129.167969 124.167969 "/>
<path fill-rule="evenodd" fill="rgb(0%, 0%, 0%)" fill-opacity="1" d="M 135.105469 137.152344 L 129.402344 137.152344 L 129.402344 136.824219 L 129.496094 136.808594 L 129.855469 136.792969 C 130.0625 136.773438 130.191406 136.738281 130.246094 136.683594 C 130.308594 136.632812 130.34375 136.503906 130.355469 136.292969 L 130.386719 135.761719 L 130.386719 130.589844 L 130.355469 130.058594 C 130.34375 129.863281 130.308594 129.738281 130.246094 129.683594 C 130.191406 129.621094 130.0625 129.582031 129.855469 129.558594 L 129.496094 129.542969 L 129.402344 129.527344 L 129.402344 129.199219 L 132.511719 129.199219 L 132.511719 129.527344 L 132.417969 129.542969 L 132.042969 129.558594 C 131.84375 129.582031 131.714844 129.621094 131.652344 129.683594 C 131.597656 129.738281 131.566406 129.863281 131.558594 130.058594 L 131.527344 130.589844 L 131.527344 135.761719 C 131.527344 136.242188 131.558594 136.519531 131.621094 136.589844 C 131.691406 136.652344 131.96875 136.683594 132.449219 136.683594 L 133.261719 136.683594 C 133.738281 136.683594 134.082031 136.652344 134.292969 136.589844 C 134.425781 136.550781 134.5 136.425781 134.511719 136.214844 L 134.527344 135.667969 L 134.527344 135.558594 L 135.105469 135.558594 Z M 137.636719 133.652344 L 137.636719 135.761719 L 137.667969 136.292969 C 137.667969 136.511719 137.703125 136.648438 137.777344 136.699219 C 137.847656 136.753906 138.058594 136.789062 138.402344 136.808594 L 138.496094 136.824219 L 138.496094 137.152344 L 135.527344 137.152344 L 135.527344 136.824219 L 135.621094 136.808594 L 135.980469 136.792969 C 136.1875 136.773438 136.316406 136.738281 136.371094 136.683594 C 136.433594 136.632812 136.46875 136.503906 136.480469 136.292969 L 136.511719 135.761719 L 136.511719 130.589844 L 136.480469 130.058594 C 136.46875 129.863281 136.433594 129.738281 136.371094 129.683594 C 136.316406 129.621094 136.1875 129.582031 135.980469 129.558594 L 135.621094 129.542969 L 135.527344 129.527344 L 135.527344 129.199219 L 137.964844 129.199219 L 138.839844 129.167969 C 139.640625 129.167969 140.25 129.339844 140.667969 129.683594 C 141.082031 130.019531 141.292969 130.511719 141.292969 131.167969 C 141.292969 131.710938 141.152344 132.175781 140.871094 132.558594 C 140.589844 132.945312 140.183594 133.226562 139.652344 133.402344 L 141.214844 135.746094 L 141.714844 136.449219 C 141.816406 136.597656 141.90625 136.691406 141.980469 136.730469 C 142.050781 136.773438 142.15625 136.792969 142.292969 136.792969 C 142.34375 136.792969 142.464844 136.800781 142.652344 136.808594 L 142.761719 136.824219 L 142.761719 137.152344 L 140.730469 137.152344 L 138.558594 133.652344 Z M 137.652344 133.292969 L 138.042969 133.292969 C 138.511719 133.292969 138.878906 133.242188 139.152344 133.136719 C 139.421875 133.023438 139.644531 132.832031 139.824219 132.558594 C 140.042969 132.238281 140.152344 131.816406 140.152344 131.292969 C 140.152344 130.761719 140.046875 130.351562 139.839844 130.058594 C 139.703125 129.871094 139.53125 129.742188 139.324219 129.667969 C 139.113281 129.597656 138.808594 129.558594 138.402344 129.558594 L 137.652344 129.558594 Z M 137.652344 133.292969 "/>
<path fill-rule="evenodd" fill="rgb(100%, 0%, 0%)" fill-opacity="1" d="M 79.5 124.167969 C 79.5 130.832031 69.5 130.832031 69.5 124.167969 C 69.5 117.5 79.5 117.5 79.5 124.167969 "/>
<path fill-rule="evenodd" fill="rgb(0%, 0%, 0%)" fill-opacity="1" d="M 73.546875 139.308594 L 67.84375 139.308594 L 67.84375 138.980469 L 67.9375 138.964844 L 68.296875 138.949219 C 68.503906 138.929688 68.632812 138.894531 68.6875 138.839844 C 68.75 138.789062 68.785156 138.660156 68.796875 138.449219 L 68.828125 137.917969 L 68.828125 132.746094 L 68.796875 132.214844 C 68.785156 132.019531 68.75 131.894531 68.6875 131.839844 C 68.632812 131.777344 68.503906 131.738281 68.296875 131.714844 L 67.9375 131.699219 L 67.84375 131.683594 L 67.84375 131.355469 L 70.953125 131.355469 L 70.953125 131.683594 L 70.859375 131.699219 L 70.484375 131.714844 C 70.285156 131.738281 70.15625 131.777344 70.09375 131.839844 C 70.039062 131.894531 70.007812 132.019531 70 132.214844 L 69.96875 132.746094 L 69.96875 137.917969 C 69.96875 138.398438 70 138.675781 70.0625 138.746094 C 70.132812 138.808594 70.410156 138.839844 70.890625 138.839844 L 71.703125 138.839844 C 72.179688 138.839844 72.523438 138.808594 72.734375 138.746094 C 72.867188 138.707031 72.941406 138.582031 72.953125 138.371094 L 72.96875 137.824219 L 72.96875 137.714844 L 73.546875 137.714844 Z M 80.75 138.886719 C 80.03125 139.304688 79.191406 139.511719 78.234375 139.511719 C 77.015625 139.511719 76.050781 139.136719 75.34375 138.386719 C 74.644531 137.636719 74.296875 136.617188 74.296875 135.324219 C 74.296875 133.855469 74.722656 132.742188 75.578125 131.980469 C 76.203125 131.441406 77.0625 131.167969 78.15625 131.167969 C 78.78125 131.167969 79.53125 131.285156 80.40625 131.511719 L 80.609375 131.558594 L 80.609375 133.074219 L 79.953125 133.074219 L 79.953125 132.964844 C 79.941406 132.863281 79.9375 132.757812 79.9375 132.652344 C 79.9375 132.351562 79.859375 132.136719 79.703125 132.011719 C 79.535156 131.867188 79.300781 131.753906 79 131.667969 C 78.695312 131.574219 78.40625 131.527344 78.125 131.527344 C 77.3125 131.527344 76.664062 131.871094 76.1875 132.558594 C 75.707031 133.246094 75.46875 134.164062 75.46875 135.308594 C 75.46875 136.464844 75.75 137.367188 76.3125 138.011719 C 76.875 138.660156 77.65625 138.980469 78.65625 138.980469 C 79.3125 138.980469 80.007812 138.777344 80.75 138.371094 Z M 80.75 138.886719 "/>
<path fill-rule="evenodd" fill="rgb(100%, 0%, 0%)" fill-opacity="1" d="M 29.832031 124.167969 C 29.832031 130.832031 19.832031 130.832031 19.832031 124.167969 C 19.832031 117.5 29.832031 117.5 29.832031 124.167969 "/>
<path fill-rule="evenodd" fill="rgb(0%, 0%, 0%)" fill-opacity="1" d="M 13.519531 136.121094 L 7.816406 136.121094 L 7.816406 135.792969 L 7.910156 135.777344 L 8.269531 135.761719 C 8.476562 135.742188 8.605469 135.707031 8.660156 135.652344 C 8.722656 135.601562 8.757812 135.472656 8.769531 135.261719 L 8.800781 134.730469 L 8.800781 129.558594 L 8.769531 129.027344 C 8.757812 128.832031 8.722656 128.707031 8.660156 128.652344 C 8.605469 128.589844 8.476562 128.550781 8.269531 128.527344 L 7.910156 128.511719 L 7.816406 128.496094 L 7.816406 128.167969 L 10.925781 128.167969 L 10.925781 128.496094 L 10.832031 128.511719 L 10.457031 128.527344 C 10.257812 128.550781 10.128906 128.589844 10.066406 128.652344 C 10.011719 128.707031 9.980469 128.832031 9.972656 129.027344 L 9.941406 129.558594 L 9.941406 134.730469 C 9.941406 135.210938 9.972656 135.488281 10.035156 135.558594 C 10.105469 135.621094 10.382812 135.652344 10.863281 135.652344 L 11.675781 135.652344 C 12.152344 135.652344 12.496094 135.621094 12.707031 135.558594 C 12.839844 135.519531 12.914062 135.394531 12.925781 135.183594 L 12.941406 134.636719 L 12.941406 134.527344 L 13.519531 134.527344 Z M 19.644531 136.121094 L 13.941406 136.121094 L 13.941406 135.792969 L 14.035156 135.777344 L 14.394531 135.761719 C 14.601562 135.742188 14.730469 135.707031 14.785156 135.652344 C 14.847656 135.601562 14.882812 135.472656 14.894531 135.261719 L 14.925781 134.730469 L 14.925781 129.558594 L 14.894531 129.027344 C 14.882812 128.832031 14.847656 128.707031 14.785156 128.652344 C 14.730469 128.589844 14.601562 128.550781 14.394531 128.527344 L 14.035156 128.511719 L 13.941406 128.496094 L 13.941406 128.167969 L 17.050781 128.167969 L 17.050781 128.496094 L 16.957031 128.511719 L 16.582031 128.527344 C 16.382812 128.550781 16.253906 128.589844 16.191406 128.652344 C 16.136719 128.707031 16.105469 128.832031 16.097656 129.027344 L 16.066406 129.558594 L 16.066406 134.730469 C 16.066406 135.210938 16.097656 135.488281 16.160156 135.558594 C 16.230469 135.621094 16.507812 135.652344 16.988281 135.652344 L 17.800781 135.652344 C 18.277344 135.652344 18.621094 135.621094 18.832031 135.558594 C 18.964844 135.519531 19.039062 135.394531 19.050781 135.183594 L 19.066406 134.636719 L 19.066406 134.527344 L 19.644531 134.527344 Z M 19.644531 136.121094 "/>
</svg>
