<?xml version="1.0" encoding="UTF-8"?>
<svg xmlns="http://www.w3.org/2000/svg" xmlns:xlink="http://www.w3.org/1999/xlink" width="200pt" height="150pt" viewBox="0 0 200 150" version="1.1">
<defs>
<clipPath id="clip1">
  <rect width="5" height="5"/>
</clipPath>
<g id="surface8" clip-path="url(#clip1)">
<path style=" stroke:none;fill-rule:nonzero;fill:rgb(0%,0%,0%);fill-opacity:1;" d="M 2.269531 4.136719 L 2.550781 4.824219 C 2.582031 4.917969 2.601562 4.980469 2.613281 5.011719 L 2.738281 5.230469 C 2.757812 5.273438 2.777344 5.304688 2.800781 5.324219 C 2.863281 5.386719 2.957031 5.355469 3.082031 5.230469 L 3.238281 5.074219 L 3.394531 5.230469 L 2.472656 6.152344 L 2.316406 5.996094 L 2.488281 5.824219 C 2.527344 5.761719 2.550781 5.707031 2.550781 5.652344 C 2.558594 5.589844 2.539062 5.503906 2.488281 5.386719 L 2.347656 5.027344 L 0.597656 0.777344 L 0.785156 0.589844 L 5.050781 2.355469 L 5.410156 2.496094 C 5.554688 2.539062 5.648438 2.554688 5.691406 2.542969 C 5.730469 2.535156 5.816406 2.476562 5.941406 2.371094 L 5.988281 2.324219 L 6.144531 2.480469 L 4.832031 3.792969 L 4.675781 3.636719 L 4.863281 3.449219 C 4.988281 3.324219 5.019531 3.230469 4.957031 3.167969 C 4.863281 3.074219 4.707031 2.980469 4.488281 2.886719 L 3.800781 2.605469 Z M 2.160156 3.871094 L 3.535156 2.496094 L 1.222656 1.558594 Z M 2.160156 3.871094 "/>
</g>
<pattern id="pattern0" patternUnits="userSpaceOnUse" width="5" height="5">
<use xlink:href="#surface8"/>
</pattern>
<clipPath id="clip2">
  <rect width="8" height="8"/>
</clipPath>
<g id="surface12" clip-path="url(#clip2)">
<path style=" stroke:none;fill-rule:nonzero;fill:rgb(0%,0%,0%);fill-opacity:1;" d="M 1.921875 5.570312 L 1.453125 6.632812 C 1.390625 6.78125 1.351562 6.878906 1.34375 6.929688 L 1.21875 7.304688 C 1.195312 7.367188 1.1875 7.425781 1.1875 7.476562 C 1.1875 7.613281 1.328125 7.679688 1.609375 7.679688 L 1.890625 7.695312 L 1.96875 7.695312 L 1.96875 8.023438 L -0.09375 8.023438 L -0.09375 7.695312 L 0.015625 7.679688 L 0.28125 7.679688 C 0.394531 7.671875 0.484375 7.632812 0.546875 7.570312 C 0.617188 7.5 0.691406 7.375 0.765625 7.195312 L 1.015625 6.632812 L 3.8125 -0.0234375 L 4.1875 -0.0234375 L 6.984375 6.664062 L 7.25 7.226562 C 7.351562 7.4375 7.4375 7.5625 7.5 7.601562 C 7.570312 7.644531 7.726562 7.671875 7.96875 7.679688 L 8.09375 7.695312 L 8.09375 8.023438 L 5.140625 8.023438 L 5.140625 7.695312 L 5.234375 7.695312 L 5.5625 7.679688 C 5.84375 7.679688 5.984375 7.613281 5.984375 7.476562 C 5.984375 7.269531 5.910156 6.988281 5.765625 6.632812 L 5.328125 5.570312 Z M 2.09375 5.132812 L 5.125 5.132812 L 3.625 1.523438 Z M 2.09375 5.132812 "/>
</g>
<pattern id="pattern1" patternUnits="userSpaceOnUse" width="8" height="8">
<use xlink:href="#surface12"/>
</pattern>
<clipPath id="clip3">
  <rect width="5" height="5"/>
</clipPath>
<g id="surface13" clip-path="url(#clip3)">
<path style=" stroke:none;fill-rule:nonzero;fill:rgb(0%,0%,0%);fill-opacity:1;" d="M 2.269531 4.136719 L 2.550781 4.824219 C 2.582031 4.917969 2.601562 4.980469 2.613281 5.011719 L 2.738281 5.230469 C 2.757812 5.273438 2.777344 5.304688 2.800781 5.324219 C 2.863281 5.386719 2.957031 5.355469 3.082031 5.230469 L 3.238281 5.074219 L 3.394531 5.230469 L 2.472656 6.152344 L 2.316406 5.996094 L 2.488281 5.824219 C 2.527344 5.761719 2.550781 5.707031 2.550781 5.652344 C 2.558594 5.589844 2.539062 5.503906 2.488281 5.386719 L 2.347656 5.027344 L 0.597656 0.777344 L 0.785156 0.589844 L 5.050781 2.355469 L 5.410156 2.496094 C 5.554688 2.539062 5.648438 2.554688 5.691406 2.542969 C 5.730469 2.535156 5.816406 2.476562 5.941406 2.371094 L 5.988281 2.324219 L 6.144531 2.480469 L 4.832031 3.792969 L 4.675781 3.636719 L 4.863281 3.449219 C 4.988281 3.324219 5.019531 3.230469 4.957031 3.167969 C 4.863281 3.074219 4.707031 2.980469 4.488281 2.886719 L 3.800781 2.605469 Z M 2.160156 3.871094 L 3.535156 2.496094 L 1.222656 1.558594 Z M 2.160156 3.871094 "/>
</g>
<pattern id="pattern2" patternUnits="userSpaceOnUse" width="5" height="5">
<use xlink:href="#surface13"/>
</pattern>
<clipPath id="clip4">
  <rect width="5" height="5"/>
</clipPath>
<g id="surface14" clip-path="url(#clip4)">
<path style=" stroke:none;fill-rule:nonzero;fill:rgb(0%,0%,0%);fill-opacity:1;" d="M 2.269531 4.136719 L 2.550781 4.824219 C 2.582031 4.917969 2.601562 4.980469 2.613281 5.011719 L 2.738281 5.230469 C 2.757812 5.273438 2.777344 5.304688 2.800781 5.324219 C 2.863281 5.386719 2.957031 5.355469 3.082031 5.230469 L 3.238281 5.074219 L 3.394531 5.230469 L 2.472656 6.152344 L 2.316406 5.996094 L 2.488281 5.824219 C 2.527344 5.761719 2.550781 5.707031 2.550781 5.652344 C 2.558594 5.589844 2.539062 5.503906 2.488281 5.386719 L 2.347656 5.027344 L 0.597656 0.777344 L 0.785156 0.589844 L 5.050781 2.355469 L 5.410156 2.496094 C 5.554688 2.539062 5.648438 2.554688 5.691406 2.542969 C 5.730469 2.535156 5.816406 2.476562 5.941406 2.371094 L 5.988281 2.324219 L 6.144531 2.480469 L 4.832031 3.792969 L 4.675781 3.636719 L 4.863281 3.449219 C 4.988281 3.324219 5.019531 3.230469 4.957031 3.167969 C 4.863281 3.074219 4.707031 2.980469 4.488281 2.886719 L 3.800781 2.605469 Z M 2.160156 3.871094 L 3.535156 2.496094 L 1.222656 1.558594 Z M 2.160156 3.871094 "/>
</g>
<pattern id="pattern3" patternUnits="userSpaceOnUse" width="5" height="5">
<use xlink:href="#surface14"/>
</pattern>
</defs>
<g id="surface2">
<rect x="0" y="0" width="200" height="150" style="fill:rgb(100%,100%,100%);fill-opacity:1;stroke:none;"/>
<path style=" stroke:none;fill-rule:evenodd;fill:rgb(70.588235%,70.588235%,39.215686%);fill-opacity:1;" d="M 101.480469 54.453125 L 98.015625 63.855469 L 105.441406 68.3125 L 113.359375 58.410156 Z M 101.480469 54.453125 "/>
<path style=" stroke:none;fill-rule:evenodd;fill:url(#pattern0);" d="M 101.480469 54.453125 L 98.015625 63.855469 L 105.441406 68.3125 L 113.359375 58.410156 L 101.480469 54.453125 "/>
<path style=" stroke:none;fill-rule:evenodd;fill:rgb(70.588235%,70.588235%,70.588235%);fill-opacity:1;" d="M 167.320312 37.125 L 139.597656 62.867188 L 199 61.875 L 157.417969 54.453125 L 194.050781 43.5625 Z M 167.320312 37.125 "/>
<path style=" stroke:none;fill-rule:evenodd;fill:url(#pattern1);" d="M 167.320312 37.125 L 139.597656 62.867188 L 199 61.875 L 157.417969 54.453125 L 194.050781 43.5625 L 167.320312 37.125 "/>
<path style=" stroke:none;fill-rule:evenodd;fill:rgb(70.588235%,70.588235%,39.215686%);fill-opacity:1;" d="M 16.335938 61.382812 L 29.703125 83.65625 L 89.597656 49.996094 Z M 16.335938 61.382812 "/>
<path style=" stroke:none;fill-rule:evenodd;fill:url(#pattern2);" d="M 16.335938 61.382812 L 29.703125 83.65625 L 89.597656 49.996094 L 16.335938 61.382812 "/>
<path style=" stroke:none;fill-rule:evenodd;fill:rgb(70.588235%,70.588235%,39.215686%);fill-opacity:1;" d="M 76.234375 81.183594 L 0 97.519531 L 37.621094 111.875 L 114.847656 93.0625 Z M 67.324219 90.09375 L 71.777344 97.023438 L 22.769531 99.992188 Z M 67.324219 90.09375 "/>
<path style=" stroke:none;fill-rule:evenodd;fill:url(#pattern3);" d="M 76.234375 81.183594 L 0 97.519531 L 37.621094 111.875 L 114.847656 93.0625 L 76.234375 81.183594 M 67.324219 90.09375 L 71.777344 97.023438 L 22.769531 99.992188 L 67.324219 90.09375 "/>
</g>
</svg>
