<?xml version="1.0" encoding="UTF-8"?>
<svg xmlns="http://www.w3.org/2000/svg" xmlns:xlink="http://www.w3.org/1999/xlink" width="200" height="200" viewBox="0 0 200 200">
<defs>
<filter id="filter-remove-color-and-invert-alpha" x="0%" y="0%" width="100%" height="100%">
<feColorMatrix color-interpolation-filters="sRGB" values="0 0 0 0 1 0 0 0 0 1 0 0 0 0 1 0 0 0 -1 1"/>
</filter>
<filter id="filter-0" x="0%" y="0%" width="100%" height="100%">
<feImage xlink:href="#compositing-group-1" result="source" x="0" y="0" width="240" height="240"/>
<feImage xlink:href="#compositing-group-2" result="destination" x="0" y="0" width="240" height="240"/>
<feComposite in="source" in2="destination" operator="arithmetic" k1="0" k2="1" k3="1" k4="0" color-interpolation-filters="sRGB"/>
</filter>
<g id="compositing-group-0" transform="translate(20, 20)">
<rect x="-20" y="-20" width="240" height="240" fill="rgb(0%, 0%, 0%)" fill-opacity="0"/>
<rect x="-20" y="-20" width="240" height="240" fill="rgb(100%, 100%, 100%)" fill-opacity="1"/>
</g>
<mask id="mask-0">
<use xlink:href="#compositing-group-0"/>
</mask>
<mask id="mask-1">
<use xlink:href="#compositing-group-0" filter="url(#filter-remove-color-and-invert-alpha)"/>
</mask>
<g id="compositing-group-1" mask="url(#mask-0)">
<g transform="translate(20, 20)">
<rect x="-20" y="-20" width="240" height="240" fill="rgb(64.705882%, 74.901961%, 86.666667%)" fill-opacity="1"/>
</g>
</g>
<g id="compositing-group-2" mask="url(#mask-1)">
<g transform="translate(20, 20)">
</g>
</g>
</defs>
<g filter="url(#filter-0)" transform="translate(-20, -20)">
<rect x="0" y="0" width="240" height="240" fill="rgb(0%, 0%, 0%)" fill-opacity="1"/>
</g>
<path fill-rule="evenodd" fill="rgb(53.333333%, 53.333333%, 53.333333%)" fill-opacity="1" d="M 24.875 174.125 L 74.625 174.125 L 74.625 124.375 L 24.875 124.375 Z M 24.875 174.125 "/>
<path fill="none" stroke-width="1" stroke-linecap="round" stroke-linejoin="round" stroke="rgb(0%, 0%, 0%)" stroke-opacity="1" stroke-miterlimit="10" d="M 24.875 174.125 L 74.625 174.125 L 74.625 124.375 L 24.875 124.375 L 24.875 174.125 "/>
<path fill-rule="evenodd" fill="rgb(53.333333%, 53.333333%, 53.333333%)" fill-opacity="1" d="M 74.625 174.125 L 124.375 174.125 L 124.375 124.375 L 74.625 124.375 Z M 74.625 174.125 "/>
<path fill="none" stroke-width="1" stroke-linecap="round" stroke-linejoin="round" stroke="rgb(0%, 0%, 0%)" stroke-opacity="1" stroke-miterlimit="10" d="M 74.625 174.125 L 124.375 174.125 L 124.375 124.375 L 74.625 124.375 L 74.625 174.125 "/>
<path fill-rule="evenodd" fill="rgb(53.333333%, 53.333333%, 53.333333%)" fill-opacity="1" d="M 124.375 174.125 L 174.125 174.125 L 174.125 124.375 L 124.375 124.375 Z M 124.375 174.125 "/>
<path fill="none" stroke-width="1" stroke-linecap="round" stroke-linejoin="round" stroke="rgb(0%, 0%, 0%)" stroke-opacity="1" stroke-miterlimit="10" d="M 124.375 174.125 L 174.125 174.125 L 174.125 124.375 L 124.375 124.375 L 124.375 174.125 "/>
<path fill-rule="evenodd" fill="rgb(53.333333%, 53.333333%, 53.333333%)" fill-opacity="1" d="M 24.875 124.375 L 74.625 124.375 L 74.625 74.625 L 24.875 74.625 Z M 24.875 124.375 "/>
<path fill="none" stroke-width="1" stroke-linecap="round" stroke-linejoin="round" stroke="rgb(0%, 0%, 0%)" stroke-opacity="1" stroke-miterlimit="10" d="M 24.875 124.375 L 74.625 124.375 L 74.625 74.625 L 24.875 74.625 L 24.875 124.375 "/>
<path fill-rule="evenodd" fill="rgb(53.333333%, 53.333333%, 53.333333%)" fill-opacity="1" d="M 74.625 124.375 L 124.375 124.375 L 124.375 74.625 L 74.625 74.625 Z M 74.625 124.375 "/>
<path fill="none" stroke-width="1" stroke-linecap="round" stroke-linejoin="round" stroke="rgb(0%, 0%, 0%)" stroke-opacity="1" stroke-miterlimit="10" d="M 74.625 124.375 L 124.375 124.375 L 124.375 74.625 L 74.625 74.625 L 74.625 124.375 "/>
<path fill-rule="evenodd" fill="rgb(53.333333%, 53.333333%, 53.333333%)" fill-opacity="1" d="M 124.375 124.375 L 174.125 124.375 L 174.125 74.625 L 124.375 74.625 Z M 124.375 124.375 "/>
<path fill="none" stroke-width="1" stroke-linecap="round" stroke-linejoin="round" stroke="rgb(0%, 0%, 0%)" stroke-opacity="1" stroke-miterlimit="10" d="M 124.375 124.375 L 174.125 124.375 L 174.125 74.625 L 124.375 74.625 L 124.375 124.375 "/>
<path fill-rule="evenodd" fill="rgb(53.333333%, 53.333333%, 53.333333%)" fill-opacity="1" d="M 24.875 74.625 L 74.625 74.625 L 74.625 24.875 L 24.875 24.875 Z M 24.875 74.625 "/>
<path fill="none" stroke-width="1" stroke-linecap="round" stroke-linejoin="round" stroke="rgb(0%, 0%, 0%)" stroke-opacity="1" stroke-miterlimit="10" d="M 24.875 74.625 L 74.625 74.625 L 74.625 24.875 L 24.875 24.875 L 24.875 74.625 "/>
<path fill-rule="evenodd" fill="rgb(53.333333%, 53.333333%, 53.333333%)" fill-opacity="1" d="M 74.625 74.625 L 124.375 74.625 L 124.375 24.875 L 74.625 24.875 Z M 74.625 74.625 "/>
<path fill="none" stroke-width="1" stroke-linecap="round" stroke-linejoin="round" stroke="rgb(0%, 0%, 0%)" stroke-opacity="1" stroke-miterlimit="10" d="M 74.625 74.625 L 124.375 74.625 L 124.375 24.875 L 74.625 24.875 L 74.625 74.625 "/>
<path fill-rule="evenodd" fill="rgb(53.333333%, 53.333333%, 53.333333%)" fill-opacity="1" d="M 124.375 74.625 L 174.125 74.625 L 174.125 24.875 L 124.375 24.875 Z M 124.375 74.625 "/>
<path fill="none" stroke-width="1" stroke-linecap="round" stroke-linejoin="round" stroke="rgb(0%, 0%, 0%)" stroke-opacity="1" stroke-miterlimit="10" d="M 124.375 74.625 L 174.125 74.625 L 174.125 24.875 L 124.375 24.875 L 124.375 74.625 "/>
<path fill-rule="evenodd" fill="rgb(100%, 0%, 0%)" fill-opacity="1" d="M 154.25 49.75 C 154.25 56.417969 144.25 56.417969 144.25 49.75 C 144.25 43.082031 154.25 43.082031 154.25 49.75 "/>
<path fill-rule="evenodd" fill="rgb(0%, 0%, 0%)" fill-opacity="1" d="M 160.1875 33.546875 L 154.484375 33.546875 L 154.484375 33.21875 L 154.578125 33.203125 L 154.9375 33.1875 C 155.144531 33.167969 155.273438 33.132812 155.328125 33.078125 C 155.390625 33.027344 155.425781 32.898438 155.4375 32.6875 L 155.46875 32.15625 L 155.46875 26.984375 L 155.4375 26.453125 C 155.425781 26.257812 155.390625 26.132812 155.328125 26.078125 C 155.273438 26.015625 155.144531 25.976562 154.9375 25.953125 L 154.578125 25.9375 L 154.484375 25.921875 L 154.484375 25.59375 L 157.59375 25.59375 L 157.59375 25.921875 L 157.5 25.9375 L 157.125 25.953125 C 156.925781 25.976562 156.796875 26.015625 156.734375 26.078125 C 156.679688 26.132812 156.648438 26.257812 156.640625 26.453125 L 156.609375 26.984375 L 156.609375 32.15625 C 156.609375 32.636719 156.640625 32.914062 156.703125 32.984375 C 156.773438 33.046875 157.050781 33.078125 157.53125 33.078125 L 158.34375 33.078125 C 158.820312 33.078125 159.164062 33.046875 159.375 32.984375 C 159.507812 32.945312 159.582031 32.820312 159.59375 32.609375 L 159.609375 32.0625 L 159.609375 31.953125 L 160.1875 31.953125 Z M 162.390625 31.09375 L 161.921875 32.15625 C 161.859375 32.304688 161.820312 32.402344 161.8125 32.453125 L 161.6875 32.828125 C 161.664062 32.890625 161.65625 32.949219 161.65625 33 C 161.65625 33.136719 161.796875 33.203125 162.078125 33.203125 L 162.359375 33.21875 L 162.4375 33.21875 L 162.4375 33.546875 L 160.375 33.546875 L 160.375 33.21875 L 160.484375 33.203125 L 160.75 33.203125 C 160.863281 33.195312 160.953125 33.15625 161.015625 33.09375 C 161.085938 33.023438 161.160156 32.898438 161.234375 32.71875 L 161.484375 32.15625 L 164.28125 25.5 L 164.65625 25.5 L 167.453125 32.1875 L 167.71875 32.75 C 167.820312 32.960938 167.90625 33.085938 167.96875 33.125 C 168.039062 33.167969 168.195312 33.195312 168.4375 33.203125 L 168.5625 33.21875 L 168.5625 33.546875 L 165.609375 33.546875 L 165.609375 33.21875 L 165.703125 33.21875 L 166.03125 33.203125 C 166.3125 33.203125 166.453125 33.136719 166.453125 33 C 166.453125 32.792969 166.378906 32.511719 166.234375 32.15625 L 165.796875 31.09375 Z M 162.5625 30.65625 L 165.59375 30.65625 L 164.09375 27.046875 Z M 172.515625 29.421875 C 173.171875 29.539062 173.6875 29.78125 174.0625 30.15625 C 174.4375 30.53125 174.625 30.996094 174.625 31.546875 C 174.625 32.121094 174.421875 32.605469 174.015625 33 C 173.773438 33.210938 173.507812 33.355469 173.21875 33.4375 C 172.925781 33.511719 172.488281 33.546875 171.90625 33.546875 L 168.796875 33.546875 L 168.796875 33.21875 L 168.890625 33.203125 L 169.25 33.1875 C 169.457031 33.167969 169.585938 33.132812 169.640625 33.078125 C 169.703125 33.027344 169.738281 32.898438 169.75 32.6875 L 169.78125 32.15625 L 169.78125 26.984375 L 169.75 26.453125 C 169.738281 26.257812 169.703125 26.132812 169.640625 26.078125 C 169.585938 26.015625 169.457031 25.976562 169.25 25.953125 L 168.890625 25.9375 L 168.796875 25.921875 L 168.796875 25.59375 L 172.0625 25.59375 C 172.84375 25.59375 173.40625 25.75 173.75 26.0625 C 174.113281 26.40625 174.296875 26.839844 174.296875 27.359375 C 174.296875 27.851562 174.125 28.292969 173.78125 28.6875 C 173.53125 28.960938 173.109375 29.203125 172.515625 29.421875 Z M 170.90625 29.609375 L 170.90625 32.15625 L 170.921875 32.625 C 170.921875 32.886719 170.984375 33.039062 171.109375 33.078125 C 171.316406 33.152344 171.550781 33.1875 171.8125 33.1875 C 172.300781 33.1875 172.695312 33.042969 173 32.75 C 173.3125 32.449219 173.46875 32.0625 173.46875 31.59375 C 173.46875 30.960938 173.242188 30.46875 172.796875 30.125 C 172.359375 29.78125 171.726562 29.609375 170.90625 29.609375 Z M 170.90625 29.234375 L 171.234375 29.234375 C 172.515625 29.234375 173.15625 28.652344 173.15625 27.484375 C 173.15625 27.007812 173.039062 26.640625 172.8125 26.390625 C 172.65625 26.234375 172.457031 26.125 172.21875 26.0625 C 171.976562 25.992188 171.628906 25.953125 171.171875 25.953125 L 170.90625 25.953125 Z M 181.234375 33.546875 L 175.5 33.546875 L 175.5 33.21875 L 175.59375 33.203125 L 175.953125 33.1875 C 176.160156 33.167969 176.289062 33.132812 176.34375 33.078125 C 176.40625 33.027344 176.441406 32.898438 176.453125 32.6875 L 176.484375 32.15625 L 176.484375 26.984375 L 176.453125 26.453125 C 176.441406 26.257812 176.40625 26.132812 176.34375 26.078125 C 176.289062 26.015625 176.160156 25.976562 175.953125 25.953125 L 175.59375 25.9375 L 175.5 25.921875 L 175.5 25.59375 L 180.9375 25.59375 L 180.9375 26.984375 L 180.34375 26.984375 L 180.328125 26.890625 L 180.296875 26.4375 C 180.296875 26.261719 180.273438 26.152344 180.234375 26.109375 C 180.191406 26.058594 180.082031 26.03125 179.90625 26.03125 L 177.625 26.03125 L 177.625 29.203125 L 179.078125 29.203125 L 179.40625 29.1875 C 179.570312 29.1875 179.671875 29.171875 179.703125 29.140625 C 179.742188 29.109375 179.769531 29.027344 179.78125 28.890625 C 179.78125 28.839844 179.785156 28.757812 179.796875 28.640625 L 179.796875 28.546875 L 180.234375 28.546875 L 180.234375 30.296875 L 179.796875 30.296875 L 179.796875 30.203125 C 179.773438 29.890625 179.734375 29.726562 179.671875 29.703125 C 179.546875 29.664062 179.347656 29.640625 179.078125 29.640625 L 177.625 29.640625 L 177.625 32.15625 C 177.625 32.480469 177.648438 32.726562 177.703125 32.890625 C 177.753906 33.015625 178.03125 33.078125 178.53125 33.078125 L 179.375 33.078125 L 180.140625 33.046875 C 180.304688 33.046875 180.421875 33.023438 180.484375 32.96875 C 180.554688 32.917969 180.597656 32.820312 180.609375 32.671875 L 180.625 32.1875 L 180.625 32.09375 L 181.234375 32.09375 Z M 187.4375 33.546875 L 181.734375 33.546875 L 181.734375 33.21875 L 181.828125 33.203125 L 182.1875 33.1875 C 182.394531 33.167969 182.523438 33.132812 182.578125 33.078125 C 182.640625 33.027344 182.675781 32.898438 182.6875 32.6875 L 182.71875 32.15625 L 182.71875 26.984375 L 182.6875 26.453125 C 182.675781 26.257812 182.640625 26.132812 182.578125 26.078125 C 182.523438 26.015625 182.394531 25.976562 182.1875 25.953125 L 181.828125 25.9375 L 181.734375 25.921875 L 181.734375 25.59375 L 184.84375 25.59375 L 184.84375 25.921875 L 184.75 25.9375 L 184.375 25.953125 C 184.175781 25.976562 184.046875 26.015625 183.984375 26.078125 C 183.929688 26.132812 183.898438 26.257812 183.890625 26.453125 L 183.859375 26.984375 L 183.859375 32.15625 C 183.859375 32.636719 183.890625 32.914062 183.953125 32.984375 C 184.023438 33.046875 184.300781 33.078125 184.78125 33.078125 L 185.59375 33.078125 C 186.070312 33.078125 186.414062 33.046875 186.625 32.984375 C 186.757812 32.945312 186.832031 32.820312 186.84375 32.609375 L 186.859375 32.0625 L 186.859375 31.953125 L 187.4375 31.953125 Z M 154.34375 36.921875 L 154.34375 36.59375 L 157.46875 36.59375 L 157.46875 36.921875 L 157.375 36.9375 L 157 36.953125 C 156.832031 36.976562 156.71875 37 156.65625 37.03125 C 156.601562 37.054688 156.566406 37.109375 156.546875 37.203125 C 156.492188 37.433594 156.46875 37.695312 156.46875 37.984375 L 156.46875 41.390625 C 156.46875 42.214844 156.488281 42.75 156.53125 43 C 156.582031 43.25 156.691406 43.492188 156.859375 43.71875 C 157.203125 44.167969 157.722656 44.390625 158.421875 44.390625 C 159.066406 44.390625 159.582031 44.195312 159.96875 43.796875 C 160.1875 43.578125 160.328125 43.335938 160.390625 43.0625 C 160.460938 42.792969 160.5 42.3125 160.5 41.625 L 160.5 37.984375 L 160.46875 37.453125 C 160.457031 37.257812 160.421875 37.132812 160.359375 37.078125 C 160.304688 37.015625 160.175781 36.976562 159.96875 36.953125 L 159.609375 36.9375 L 159.515625 36.921875 L 159.515625 36.59375 L 162.046875 36.59375 L 162.046875 36.921875 L 161.953125 36.9375 L 161.59375 36.953125 C 161.414062 36.976562 161.296875 37 161.234375 37.03125 C 161.179688 37.054688 161.144531 37.109375 161.125 37.203125 C 161.082031 37.433594 161.0625 37.695312 161.0625 37.984375 L 161.0625 41.3125 C 161.0625 42.054688 161.019531 42.59375 160.9375 42.9375 C 160.851562 43.28125 160.6875 43.605469 160.4375 43.90625 C 159.976562 44.46875 159.253906 44.75 158.265625 44.75 C 157.410156 44.75 156.734375 44.542969 156.234375 44.125 C 155.910156 43.867188 155.675781 43.539062 155.53125 43.140625 C 155.394531 42.734375 155.328125 42.214844 155.328125 41.578125 L 155.328125 37.984375 L 155.296875 37.453125 C 155.285156 37.257812 155.25 37.132812 155.1875 37.078125 C 155.132812 37.015625 155.003906 36.976562 154.796875 36.953125 L 154.4375 36.9375 Z M 164.5 41.046875 L 164.5 43.15625 L 164.53125 43.6875 C 164.53125 43.90625 164.566406 44.042969 164.640625 44.09375 C 164.710938 44.148438 164.921875 44.183594 165.265625 44.203125 L 165.359375 44.21875 L 165.359375 44.546875 L 162.390625 44.546875 L 162.390625 44.21875 L 162.484375 44.203125 L 162.84375 44.1875 C 163.050781 44.167969 163.179688 44.132812 163.234375 44.078125 C 163.296875 44.027344 163.332031 43.898438 163.34375 43.6875 L 163.375 43.15625 L 163.375 37.984375 L 163.34375 37.453125 C 163.332031 37.257812 163.296875 37.132812 163.234375 37.078125 C 163.179688 37.015625 163.050781 36.976562 162.84375 36.953125 L 162.484375 36.9375 L 162.390625 36.921875 L 162.390625 36.59375 L 164.828125 36.59375 L 165.703125 36.5625 C 166.503906 36.5625 167.113281 36.734375 167.53125 37.078125 C 167.945312 37.414062 168.15625 37.90625 168.15625 38.5625 C 168.15625 39.105469 168.015625 39.570312 167.734375 39.953125 C 167.453125 40.339844 167.046875 40.621094 166.515625 40.796875 L 168.078125 43.140625 L 168.578125 43.84375 C 168.679688 43.992188 168.769531 44.085938 168.84375 44.125 C 168.914062 44.167969 169.019531 44.1875 169.15625 44.1875 C 169.207031 44.1875 169.328125 44.195312 169.515625 44.203125 L 169.625 44.21875 L 169.625 44.546875 L 167.59375 44.546875 L 165.421875 41.046875 Z M 164.515625 40.6875 L 164.90625 40.6875 C 165.375 40.6875 165.742188 40.636719 166.015625 40.53125 C 166.285156 40.417969 166.507812 40.226562 166.6875 39.953125 C 166.90625 39.632812 167.015625 39.210938 167.015625 38.6875 C 167.015625 38.15625 166.910156 37.746094 166.703125 37.453125 C 166.566406 37.265625 166.394531 37.136719 166.1875 37.0625 C 165.976562 36.992188 165.671875 36.953125 165.265625 36.953125 L 164.515625 36.953125 Z M 164.515625 40.6875 "/>
<path fill-rule="evenodd" fill="rgb(100%, 0%, 0%)" fill-opacity="1" d="M 104.5 49.75 C 104.5 56.417969 94.5 56.417969 94.5 49.75 C 94.5 43.082031 104.5 43.082031 104.5 49.75 "/>
<path fill-rule="evenodd" fill="rgb(0%, 0%, 0%)" fill-opacity="1" d="M 88.75 31.546875 L 83.046875 31.546875 L 83.046875 31.21875 L 83.140625 31.203125 L 83.5 31.1875 C 83.707031 31.167969 83.835938 31.132812 83.890625 31.078125 C 83.953125 31.027344 83.988281 30.898438 84 30.6875 L 84.03125 30.15625 L 84.03125 24.984375 L 84 24.453125 C 83.988281 24.257812 83.953125 24.132812 83.890625 24.078125 C 83.835938 24.015625 83.707031 23.976562 83.5 23.953125 L 83.140625 23.9375 L 83.046875 23.921875 L 83.046875 23.59375 L 86.15625 23.59375 L 86.15625 23.921875 L 86.0625 23.9375 L 85.6875 23.953125 C 85.488281 23.976562 85.359375 24.015625 85.296875 24.078125 C 85.242188 24.132812 85.210938 24.257812 85.203125 24.453125 L 85.171875 24.984375 L 85.171875 30.15625 C 85.171875 30.636719 85.203125 30.914062 85.265625 30.984375 C 85.335938 31.046875 85.613281 31.078125 86.09375 31.078125 L 86.90625 31.078125 C 87.382812 31.078125 87.726562 31.046875 87.9375 30.984375 C 88.070312 30.945312 88.144531 30.820312 88.15625 30.609375 L 88.171875 30.0625 L 88.171875 29.953125 L 88.75 29.953125 Z M 90.953125 29.09375 L 90.484375 30.15625 C 90.421875 30.304688 90.382812 30.402344 90.375 30.453125 L 90.25 30.828125 C 90.226562 30.890625 90.21875 30.949219 90.21875 31 C 90.21875 31.136719 90.359375 31.203125 90.640625 31.203125 L 90.921875 31.21875 L 91 31.21875 L 91 31.546875 L 88.9375 31.546875 L 88.9375 31.21875 L 89.046875 31.203125 L 89.3125 31.203125 C 89.425781 31.195312 89.515625 31.15625 89.578125 31.09375 C 89.648438 31.023438 89.722656 30.898438 89.796875 30.71875 L 90.046875 30.15625 L 92.84375 23.5 L 93.21875 23.5 L 96.015625 30.1875 L 96.28125 30.75 C 96.382812 30.960938 96.46875 31.085938 96.53125 31.125 C 96.601562 31.167969 96.757812 31.195312 97 31.203125 L 97.125 31.21875 L 97.125 31.546875 L 94.171875 31.546875 L 94.171875 31.21875 L 94.265625 31.21875 L 94.59375 31.203125 C 94.875 31.203125 95.015625 31.136719 95.015625 31 C 95.015625 30.792969 94.941406 30.511719 94.796875 30.15625 L 94.359375 29.09375 Z M 91.125 28.65625 L 94.15625 28.65625 L 92.65625 25.046875 Z M 101.078125 27.421875 C 101.734375 27.539062 102.25 27.78125 102.625 28.15625 C 103 28.53125 103.1875 28.996094 103.1875 29.546875 C 103.1875 30.121094 102.984375 30.605469 102.578125 31 C 102.335938 31.210938 102.070312 31.355469 101.78125 31.4375 C 101.488281 31.511719 101.050781 31.546875 100.46875 31.546875 L 97.359375 31.546875 L 97.359375 31.21875 L 97.453125 31.203125 L 97.8125 31.1875 C 98.019531 31.167969 98.148438 31.132812 98.203125 31.078125 C 98.265625 31.027344 98.300781 30.898438 98.3125 30.6875 L 98.34375 30.15625 L 98.34375 24.984375 L 98.3125 24.453125 C 98.300781 24.257812 98.265625 24.132812 98.203125 24.078125 C 98.148438 24.015625 98.019531 23.976562 97.8125 23.953125 L 97.453125 23.9375 L 97.359375 23.921875 L 97.359375 23.59375 L 100.625 23.59375 C 101.40625 23.59375 101.96875 23.75 102.3125 24.0625 C 102.675781 24.40625 102.859375 24.839844 102.859375 25.359375 C 102.859375 25.851562 102.6875 26.292969 102.34375 26.6875 C 102.09375 26.960938 101.671875 27.203125 101.078125 27.421875 Z M 99.46875 27.609375 L 99.46875 30.15625 L 99.484375 30.625 C 99.484375 30.886719 99.546875 31.039062 99.671875 31.078125 C 99.878906 31.152344 100.113281 31.1875 100.375 31.1875 C 100.863281 31.1875 101.257812 31.042969 101.5625 30.75 C 101.875 30.449219 102.03125 30.0625 102.03125 29.59375 C 102.03125 28.960938 101.804688 28.46875 101.359375 28.125 C 100.921875 27.78125 100.289062 27.609375 99.46875 27.609375 Z M 99.46875 27.234375 L 99.796875 27.234375 C 101.078125 27.234375 101.71875 26.652344 101.71875 25.484375 C 101.71875 25.007812 101.601562 24.640625 101.375 24.390625 C 101.21875 24.234375 101.019531 24.125 100.78125 24.0625 C 100.539062 23.992188 100.191406 23.953125 99.734375 23.953125 L 99.46875 23.953125 Z M 109.796875 31.546875 L 104.0625 31.546875 L 104.0625 31.21875 L 104.15625 31.203125 L 104.515625 31.1875 C 104.722656 31.167969 104.851562 31.132812 104.90625 31.078125 C 104.96875 31.027344 105.003906 30.898438 105.015625 30.6875 L 105.046875 30.15625 L 105.046875 24.984375 L 105.015625 24.453125 C 105.003906 24.257812 104.96875 24.132812 104.90625 24.078125 C 104.851562 24.015625 104.722656 23.976562 104.515625 23.953125 L 104.15625 23.9375 L 104.0625 23.921875 L 104.0625 23.59375 L 109.5 23.59375 L 109.5 24.984375 L 108.90625 24.984375 L 108.890625 24.890625 L 108.859375 24.4375 C 108.859375 24.261719 108.835938 24.152344 108.796875 24.109375 C 108.753906 24.058594 108.644531 24.03125 108.46875 24.03125 L 106.1875 24.03125 L 106.1875 27.203125 L 107.640625 27.203125 L 107.96875 27.1875 C 108.132812 27.1875 108.234375 27.171875 108.265625 27.140625 C 108.304688 27.109375 108.332031 27.027344 108.34375 26.890625 C 108.34375 26.839844 108.347656 26.757812 108.359375 26.640625 L 108.359375 26.546875 L 108.796875 26.546875 L 108.796875 28.296875 L 108.359375 28.296875 L 108.359375 28.203125 C 108.335938 27.890625 108.296875 27.726562 108.234375 27.703125 C 108.109375 27.664062 107.910156 27.640625 107.640625 27.640625 L 106.1875 27.640625 L 106.1875 30.15625 C 106.1875 30.480469 106.210938 30.726562 106.265625 30.890625 C 106.316406 31.015625 106.59375 31.078125 107.09375 31.078125 L 107.9375 31.078125 L 108.703125 31.046875 C 108.867188 31.046875 108.984375 31.023438 109.046875 30.96875 C 109.117188 30.917969 109.160156 30.820312 109.171875 30.671875 L 109.1875 30.1875 L 109.1875 30.09375 L 109.796875 30.09375 Z M 116 31.546875 L 110.296875 31.546875 L 110.296875 31.21875 L 110.390625 31.203125 L 110.75 31.1875 C 110.957031 31.167969 111.085938 31.132812 111.140625 31.078125 C 111.203125 31.027344 111.238281 30.898438 111.25 30.6875 L 111.28125 30.15625 L 111.28125 24.984375 L 111.25 24.453125 C 111.238281 24.257812 111.203125 24.132812 111.140625 24.078125 C 111.085938 24.015625 110.957031 23.976562 110.75 23.953125 L 110.390625 23.9375 L 110.296875 23.921875 L 110.296875 23.59375 L 113.40625 23.59375 L 113.40625 23.921875 L 113.3125 23.9375 L 112.9375 23.953125 C 112.738281 23.976562 112.609375 24.015625 112.546875 24.078125 C 112.492188 24.132812 112.460938 24.257812 112.453125 24.453125 L 112.421875 24.984375 L 112.421875 30.15625 C 112.421875 30.636719 112.453125 30.914062 112.515625 30.984375 C 112.585938 31.046875 112.863281 31.078125 113.34375 31.078125 L 114.15625 31.078125 C 114.632812 31.078125 114.976562 31.046875 115.1875 30.984375 C 115.320312 30.945312 115.394531 30.820312 115.40625 30.609375 L 115.421875 30.0625 L 115.421875 29.953125 L 116 29.953125 Z M 82.90625 34.921875 L 82.90625 34.59375 L 86.03125 34.59375 L 86.03125 34.921875 L 85.9375 34.9375 L 85.5625 34.953125 C 85.394531 34.976562 85.28125 35 85.21875 35.03125 C 85.164062 35.054688 85.128906 35.109375 85.109375 35.203125 C 85.054688 35.433594 85.03125 35.695312 85.03125 35.984375 L 85.03125 39.390625 C 85.03125 40.214844 85.050781 40.75 85.09375 41 C 85.144531 41.25 85.253906 41.492188 85.421875 41.71875 C 85.765625 42.167969 86.285156 42.390625 86.984375 42.390625 C 87.628906 42.390625 88.144531 42.195312 88.53125 41.796875 C 88.75 41.578125 88.890625 41.335938 88.953125 41.0625 C 89.023438 40.792969 89.0625 40.3125 89.0625 39.625 L 89.0625 35.984375 L 89.03125 35.453125 C 89.019531 35.257812 88.984375 35.132812 88.921875 35.078125 C 88.867188 35.015625 88.738281 34.976562 88.53125 34.953125 L 88.171875 34.9375 L 88.078125 34.921875 L 88.078125 34.59375 L 90.609375 34.59375 L 90.609375 34.921875 L 90.515625 34.9375 L 90.15625 34.953125 C 89.976562 34.976562 89.859375 35 89.796875 35.03125 C 89.742188 35.054688 89.707031 35.109375 89.6875 35.203125 C 89.644531 35.433594 89.625 35.695312 89.625 35.984375 L 89.625 39.3125 C 89.625 40.054688 89.582031 40.59375 89.5 40.9375 C 89.414062 41.28125 89.25 41.605469 89 41.90625 C 88.539062 42.46875 87.816406 42.75 86.828125 42.75 C 85.972656 42.75 85.296875 42.542969 84.796875 42.125 C 84.472656 41.867188 84.238281 41.539062 84.09375 41.140625 C 83.957031 40.734375 83.890625 40.214844 83.890625 39.578125 L 83.890625 35.984375 L 83.859375 35.453125 C 83.847656 35.257812 83.8125 35.132812 83.75 35.078125 C 83.695312 35.015625 83.566406 34.976562 83.359375 34.953125 L 83 34.9375 Z M 97.734375 42.125 C 97.015625 42.542969 96.175781 42.75 95.21875 42.75 C 94 42.75 93.035156 42.375 92.328125 41.625 C 91.628906 40.875 91.28125 39.855469 91.28125 38.5625 C 91.28125 37.09375 91.707031 35.980469 92.5625 35.21875 C 93.1875 34.679688 94.046875 34.40625 95.140625 34.40625 C 95.765625 34.40625 96.515625 34.523438 97.390625 34.75 L 97.59375 34.796875 L 97.59375 36.3125 L 96.9375 36.3125 L 96.9375 36.203125 C 96.925781 36.101562 96.921875 35.996094 96.921875 35.890625 C 96.921875 35.589844 96.84375 35.375 96.6875 35.25 C 96.519531 35.105469 96.285156 34.992188 95.984375 34.90625 C 95.679688 34.8125 95.390625 34.765625 95.109375 34.765625 C 94.296875 34.765625 93.648438 35.109375 93.171875 35.796875 C 92.691406 36.484375 92.453125 37.402344 92.453125 38.546875 C 92.453125 39.703125 92.734375 40.605469 93.296875 41.25 C 93.859375 41.898438 94.640625 42.21875 95.640625 42.21875 C 96.296875 42.21875 96.992188 42.015625 97.734375 41.609375 Z M 97.734375 42.125 "/>
<path fill-rule="evenodd" fill="rgb(100%, 0%, 0%)" fill-opacity="1" d="M 54.75 49.75 C 54.75 56.417969 44.75 56.417969 44.75 49.75 C 44.75 43.082031 54.75 43.082031 54.75 49.75 "/>
<path fill-rule="evenodd" fill="rgb(0%, 0%, 0%)" fill-opacity="1" d="M 17.3125 33.546875 L 11.609375 33.546875 L 11.609375 33.21875 L 11.703125 33.203125 L 12.0625 33.1875 C 12.269531 33.167969 12.398438 33.132812 12.453125 33.078125 C 12.515625 33.027344 12.550781 32.898438 12.5625 32.6875 L 12.59375 32.15625 L 12.59375 26.984375 L 12.5625 26.453125 C 12.550781 26.257812 12.515625 26.132812 12.453125 26.078125 C 12.398438 26.015625 12.269531 25.976562 12.0625 25.953125 L 11.703125 25.9375 L 11.609375 25.921875 L 11.609375 25.59375 L 14.71875 25.59375 L 14.71875 25.921875 L 14.625 25.9375 L 14.25 25.953125 C 14.050781 25.976562 13.921875 26.015625 13.859375 26.078125 C 13.804688 26.132812 13.773438 26.257812 13.765625 26.453125 L 13.734375 26.984375 L 13.734375 32.15625 C 13.734375 32.636719 13.765625 32.914062 13.828125 32.984375 C 13.898438 33.046875 14.175781 33.078125 14.65625 33.078125 L 15.46875 33.078125 C 15.945312 33.078125 16.289062 33.046875 16.5 32.984375 C 16.632812 32.945312 16.707031 32.820312 16.71875 32.609375 L 16.734375 32.0625 L 16.734375 31.953125 L 17.3125 31.953125 Z M 19.515625 31.09375 L 19.046875 32.15625 C 18.984375 32.304688 18.945312 32.402344 18.9375 32.453125 L 18.8125 32.828125 C 18.789062 32.890625 18.78125 32.949219 18.78125 33 C 18.78125 33.136719 18.921875 33.203125 19.203125 33.203125 L 19.484375 33.21875 L 19.5625 33.21875 L 19.5625 33.546875 L 17.5 33.546875 L 17.5 33.21875 L 17.609375 33.203125 L 17.875 33.203125 C 17.988281 33.195312 18.078125 33.15625 18.140625 33.09375 C 18.210938 33.023438 18.285156 32.898438 18.359375 32.71875 L 18.609375 32.15625 L 21.40625 25.5 L 21.78125 25.5 L 24.578125 32.1875 L 24.84375 32.75 C 24.945312 32.960938 25.03125 33.085938 25.09375 33.125 C 25.164062 33.167969 25.320312 33.195312 25.5625 33.203125 L 25.6875 33.21875 L 25.6875 33.546875 L 22.734375 33.546875 L 22.734375 33.21875 L 22.828125 33.21875 L 23.15625 33.203125 C 23.4375 33.203125 23.578125 33.136719 23.578125 33 C 23.578125 32.792969 23.503906 32.511719 23.359375 32.15625 L 22.921875 31.09375 Z M 19.6875 30.65625 L 22.71875 30.65625 L 21.21875 27.046875 Z M 29.640625 29.421875 C 30.296875 29.539062 30.8125 29.78125 31.1875 30.15625 C 31.5625 30.53125 31.75 30.996094 31.75 31.546875 C 31.75 32.121094 31.546875 32.605469 31.140625 33 C 30.898438 33.210938 30.632812 33.355469 30.34375 33.4375 C 30.050781 33.511719 29.613281 33.546875 29.03125 33.546875 L 25.921875 33.546875 L 25.921875 33.21875 L 26.015625 33.203125 L 26.375 33.1875 C 26.582031 33.167969 26.710938 33.132812 26.765625 33.078125 C 26.828125 33.027344 26.863281 32.898438 26.875 32.6875 L 26.90625 32.15625 L 26.90625 26.984375 L 26.875 26.453125 C 26.863281 26.257812 26.828125 26.132812 26.765625 26.078125 C 26.710938 26.015625 26.582031 25.976562 26.375 25.953125 L 26.015625 25.9375 L 25.921875 25.921875 L 25.921875 25.59375 L 29.1875 25.59375 C 29.96875 25.59375 30.53125 25.75 30.875 26.0625 C 31.238281 26.40625 31.421875 26.839844 31.421875 27.359375 C 31.421875 27.851562 31.25 28.292969 30.90625 28.6875 C 30.65625 28.960938 30.234375 29.203125 29.640625 29.421875 Z M 28.03125 29.609375 L 28.03125 32.15625 L 28.046875 32.625 C 28.046875 32.886719 28.109375 33.039062 28.234375 33.078125 C 28.441406 33.152344 28.675781 33.1875 28.9375 33.1875 C 29.425781 33.1875 29.820312 33.042969 30.125 32.75 C 30.4375 32.449219 30.59375 32.0625 30.59375 31.59375 C 30.59375 30.960938 30.367188 30.46875 29.921875 30.125 C 29.484375 29.78125 28.851562 29.609375 28.03125 29.609375 Z M 28.03125 29.234375 L 28.359375 29.234375 C 29.640625 29.234375 30.28125 28.652344 30.28125 27.484375 C 30.28125 27.007812 30.164062 26.640625 29.9375 26.390625 C 29.78125 26.234375 29.582031 26.125 29.34375 26.0625 C 29.101562 25.992188 28.753906 25.953125 28.296875 25.953125 L 28.03125 25.953125 Z M 38.359375 33.546875 L 32.625 33.546875 L 32.625 33.21875 L 32.71875 33.203125 L 33.078125 33.1875 C 33.285156 33.167969 33.414062 33.132812 33.46875 33.078125 C 33.53125 33.027344 33.566406 32.898438 33.578125 32.6875 L 33.609375 32.15625 L 33.609375 26.984375 L 33.578125 26.453125 C 33.566406 26.257812 33.53125 26.132812 33.46875 26.078125 C 33.414062 26.015625 33.285156 25.976562 33.078125 25.953125 L 32.71875 25.9375 L 32.625 25.921875 L 32.625 25.59375 L 38.0625 25.59375 L 38.0625 26.984375 L 37.46875 26.984375 L 37.453125 26.890625 L 37.421875 26.4375 C 37.421875 26.261719 37.398438 26.152344 37.359375 26.109375 C 37.316406 26.058594 37.207031 26.03125 37.03125 26.03125 L 34.75 26.03125 L 34.75 29.203125 L 36.203125 29.203125 L 36.53125 29.1875 C 36.695312 29.1875 36.796875 29.171875 36.828125 29.140625 C 36.867188 29.109375 36.894531 29.027344 36.90625 28.890625 C 36.90625 28.839844 36.910156 28.757812 36.921875 28.640625 L 36.921875 28.546875 L 37.359375 28.546875 L 37.359375 30.296875 L 36.921875 30.296875 L 36.921875 30.203125 C 36.898438 29.890625 36.859375 29.726562 36.796875 29.703125 C 36.671875 29.664062 36.472656 29.640625 36.203125 29.640625 L 34.75 29.640625 L 34.75 32.15625 C 34.75 32.480469 34.773438 32.726562 34.828125 32.890625 C 34.878906 33.015625 35.15625 33.078125 35.65625 33.078125 L 36.5 33.078125 L 37.265625 33.046875 C 37.429688 33.046875 37.546875 33.023438 37.609375 32.96875 C 37.679688 32.917969 37.722656 32.820312 37.734375 32.671875 L 37.75 32.1875 L 37.75 32.09375 L 38.359375 32.09375 Z M 44.5625 33.546875 L 38.859375 33.546875 L 38.859375 33.21875 L 38.953125 33.203125 L 39.3125 33.1875 C 39.519531 33.167969 39.648438 33.132812 39.703125 33.078125 C 39.765625 33.027344 39.800781 32.898438 39.8125 32.6875 L 39.84375 32.15625 L 39.84375 26.984375 L 39.8125 26.453125 C 39.800781 26.257812 39.765625 26.132812 39.703125 26.078125 C 39.648438 26.015625 39.519531 25.976562 39.3125 25.953125 L 38.953125 25.9375 L 38.859375 25.921875 L 38.859375 25.59375 L 41.96875 25.59375 L 41.96875 25.921875 L 41.875 25.9375 L 41.5 25.953125 C 41.300781 25.976562 41.171875 26.015625 41.109375 26.078125 C 41.054688 26.132812 41.023438 26.257812 41.015625 26.453125 L 40.984375 26.984375 L 40.984375 32.15625 C 40.984375 32.636719 41.015625 32.914062 41.078125 32.984375 C 41.148438 33.046875 41.425781 33.078125 41.90625 33.078125 L 42.71875 33.078125 C 43.195312 33.078125 43.539062 33.046875 43.75 32.984375 C 43.882812 32.945312 43.957031 32.820312 43.96875 32.609375 L 43.984375 32.0625 L 43.984375 31.953125 L 44.5625 31.953125 Z M 11.46875 36.921875 L 11.46875 36.59375 L 14.59375 36.59375 L 14.59375 36.921875 L 14.5 36.9375 L 14.125 36.953125 C 13.957031 36.976562 13.84375 37 13.78125 37.03125 C 13.726562 37.054688 13.691406 37.109375 13.671875 37.203125 C 13.617188 37.433594 13.59375 37.695312 13.59375 37.984375 L 13.59375 41.390625 C 13.59375 42.214844 13.613281 42.75 13.65625 43 C 13.707031 43.25 13.816406 43.492188 13.984375 43.71875 C 14.328125 44.167969 14.847656 44.390625 15.546875 44.390625 C 16.191406 44.390625 16.707031 44.195312 17.09375 43.796875 C 17.3125 43.578125 17.453125 43.335938 17.515625 43.0625 C 17.585938 42.792969 17.625 42.3125 17.625 41.625 L 17.625 37.984375 L 17.59375 37.453125 C 17.582031 37.257812 17.546875 37.132812 17.484375 37.078125 C 17.429688 37.015625 17.300781 36.976562 17.09375 36.953125 L 16.734375 36.9375 L 16.640625 36.921875 L 16.640625 36.59375 L 19.171875 36.59375 L 19.171875 36.921875 L 19.078125 36.9375 L 18.71875 36.953125 C 18.539062 36.976562 18.421875 37 18.359375 37.03125 C 18.304688 37.054688 18.269531 37.109375 18.25 37.203125 C 18.207031 37.433594 18.1875 37.695312 18.1875 37.984375 L 18.1875 41.3125 C 18.1875 42.054688 18.144531 42.59375 18.0625 42.9375 C 17.976562 43.28125 17.8125 43.605469 17.5625 43.90625 C 17.101562 44.46875 16.378906 44.75 15.390625 44.75 C 14.535156 44.75 13.859375 44.542969 13.359375 44.125 C 13.035156 43.867188 12.800781 43.539062 12.65625 43.140625 C 12.519531 42.734375 12.453125 42.214844 12.453125 41.578125 L 12.453125 37.984375 L 12.421875 37.453125 C 12.410156 37.257812 12.375 37.132812 12.3125 37.078125 C 12.257812 37.015625 12.128906 36.976562 11.921875 36.953125 L 11.5625 36.9375 Z M 25.21875 44.546875 L 19.515625 44.546875 L 19.515625 44.21875 L 19.609375 44.203125 L 19.96875 44.1875 C 20.175781 44.167969 20.304688 44.132812 20.359375 44.078125 C 20.421875 44.027344 20.457031 43.898438 20.46875 43.6875 L 20.5 43.15625 L 20.5 37.984375 L 20.46875 37.453125 C 20.457031 37.257812 20.421875 37.132812 20.359375 37.078125 C 20.304688 37.015625 20.175781 36.976562 19.96875 36.953125 L 19.609375 36.9375 L 19.515625 36.921875 L 19.515625 36.59375 L 22.625 36.59375 L 22.625 36.921875 L 22.53125 36.9375 L 22.15625 36.953125 C 21.957031 36.976562 21.828125 37.015625 21.765625 37.078125 C 21.710938 37.132812 21.679688 37.257812 21.671875 37.453125 L 21.640625 37.984375 L 21.640625 43.15625 C 21.640625 43.636719 21.671875 43.914062 21.734375 43.984375 C 21.804688 44.046875 22.082031 44.078125 22.5625 44.078125 L 23.375 44.078125 C 23.851562 44.078125 24.195312 44.046875 24.40625 43.984375 C 24.539062 43.945312 24.613281 43.820312 24.625 43.609375 L 24.640625 43.0625 L 24.640625 42.953125 L 25.21875 42.953125 Z M 25.21875 44.546875 "/>
<path fill-rule="evenodd" fill="rgb(100%, 0%, 0%)" fill-opacity="1" d="M 154.25 99.5 C 154.25 106.167969 144.25 106.167969 144.25 99.5 C 144.25 92.832031 154.25 92.832031 154.25 99.5 "/>
<path fill-rule="evenodd" fill="rgb(0%, 0%, 0%)" fill-opacity="1" d="M 162.1875 97.921875 L 156.484375 97.921875 L 156.484375 97.59375 L 156.578125 97.578125 L 156.9375 97.5625 C 157.144531 97.542969 157.273438 97.507812 157.328125 97.453125 C 157.390625 97.402344 157.425781 97.273438 157.4375 97.0625 L 157.46875 96.53125 L 157.46875 91.359375 L 157.4375 90.828125 C 157.425781 90.632812 157.390625 90.507812 157.328125 90.453125 C 157.273438 90.390625 157.144531 90.351562 156.9375 90.328125 L 156.578125 90.3125 L 156.484375 90.296875 L 156.484375 89.96875 L 159.59375 89.96875 L 159.59375 90.296875 L 159.5 90.3125 L 159.125 90.328125 C 158.925781 90.351562 158.796875 90.390625 158.734375 90.453125 C 158.679688 90.507812 158.648438 90.632812 158.640625 90.828125 L 158.609375 91.359375 L 158.609375 96.53125 C 158.609375 97.011719 158.640625 97.289062 158.703125 97.359375 C 158.773438 97.421875 159.050781 97.453125 159.53125 97.453125 L 160.34375 97.453125 C 160.820312 97.453125 161.164062 97.421875 161.375 97.359375 C 161.507812 97.320312 161.582031 97.195312 161.59375 96.984375 L 161.609375 96.4375 L 161.609375 96.328125 L 162.1875 96.328125 Z M 164.390625 95.46875 L 163.921875 96.53125 C 163.859375 96.679688 163.820312 96.777344 163.8125 96.828125 L 163.6875 97.203125 C 163.664062 97.265625 163.65625 97.324219 163.65625 97.375 C 163.65625 97.511719 163.796875 97.578125 164.078125 97.578125 L 164.359375 97.59375 L 164.4375 97.59375 L 164.4375 97.921875 L 162.375 97.921875 L 162.375 97.59375 L 162.484375 97.578125 L 162.75 97.578125 C 162.863281 97.570312 162.953125 97.53125 163.015625 97.46875 C 163.085938 97.398438 163.160156 97.273438 163.234375 97.09375 L 163.484375 96.53125 L 166.28125 89.875 L 166.65625 89.875 L 169.453125 96.5625 L 169.71875 97.125 C 169.820312 97.335938 169.90625 97.460938 169.96875 97.5 C 170.039062 97.542969 170.195312 97.570312 170.4375 97.578125 L 170.5625 97.59375 L 170.5625 97.921875 L 167.609375 97.921875 L 167.609375 97.59375 L 167.703125 97.59375 L 168.03125 97.578125 C 168.3125 97.578125 168.453125 97.511719 168.453125 97.375 C 168.453125 97.167969 168.378906 96.886719 168.234375 96.53125 L 167.796875 95.46875 Z M 164.5625 95.03125 L 167.59375 95.03125 L 166.09375 91.421875 Z M 174.515625 93.796875 C 175.171875 93.914062 175.6875 94.15625 176.0625 94.53125 C 176.4375 94.90625 176.625 95.371094 176.625 95.921875 C 176.625 96.496094 176.421875 96.980469 176.015625 97.375 C 175.773438 97.585938 175.507812 97.730469 175.21875 97.8125 C 174.925781 97.886719 174.488281 97.921875 173.90625 97.921875 L 170.796875 97.921875 L 170.796875 97.59375 L 170.890625 97.578125 L 171.25 97.5625 C 171.457031 97.542969 171.585938 97.507812 171.640625 97.453125 C 171.703125 97.402344 171.738281 97.273438 171.75 97.0625 L 171.78125 96.53125 L 171.78125 91.359375 L 171.75 90.828125 C 171.738281 90.632812 171.703125 90.507812 171.640625 90.453125 C 171.585938 90.390625 171.457031 90.351562 171.25 90.328125 L 170.890625 90.3125 L 170.796875 90.296875 L 170.796875 89.96875 L 174.0625 89.96875 C 174.84375 89.96875 175.40625 90.125 175.75 90.4375 C 176.113281 90.78125 176.296875 91.214844 176.296875 91.734375 C 176.296875 92.226562 176.125 92.667969 175.78125 93.0625 C 175.53125 93.335938 175.109375 93.578125 174.515625 93.796875 Z M 172.90625 93.984375 L 172.90625 96.53125 L 172.921875 97 C 172.921875 97.261719 172.984375 97.414062 173.109375 97.453125 C 173.316406 97.527344 173.550781 97.5625 173.8125 97.5625 C 174.300781 97.5625 174.695312 97.417969 175 97.125 C 175.3125 96.824219 175.46875 96.4375 175.46875 95.96875 C 175.46875 95.335938 175.242188 94.84375 174.796875 94.5 C 174.359375 94.15625 173.726562 93.984375 172.90625 93.984375 Z M 172.90625 93.609375 L 173.234375 93.609375 C 174.515625 93.609375 175.15625 93.027344 175.15625 91.859375 C 175.15625 91.382812 175.039062 91.015625 174.8125 90.765625 C 174.65625 90.609375 174.457031 90.5 174.21875 90.4375 C 173.976562 90.367188 173.628906 90.328125 173.171875 90.328125 L 172.90625 90.328125 Z M 183.234375 97.921875 L 177.5 97.921875 L 177.5 97.59375 L 177.59375 97.578125 L 177.953125 97.5625 C 178.160156 97.542969 178.289062 97.507812 178.34375 97.453125 C 178.40625 97.402344 178.441406 97.273438 178.453125 97.0625 L 178.484375 96.53125 L 178.484375 91.359375 L 178.453125 90.828125 C 178.441406 90.632812 178.40625 90.507812 178.34375 90.453125 C 178.289062 90.390625 178.160156 90.351562 177.953125 90.328125 L 177.59375 90.3125 L 177.5 90.296875 L 177.5 89.96875 L 182.9375 89.96875 L 182.9375 91.359375 L 182.34375 91.359375 L 182.328125 91.265625 L 182.296875 90.8125 C 182.296875 90.636719 182.273438 90.527344 182.234375 90.484375 C 182.191406 90.433594 182.082031 90.40625 181.90625 90.40625 L 179.625 90.40625 L 179.625 93.578125 L 181.078125 93.578125 L 181.40625 93.5625 C 181.570312 93.5625 181.671875 93.546875 181.703125 93.515625 C 181.742188 93.484375 181.769531 93.402344 181.78125 93.265625 C 181.78125 93.214844 181.785156 93.132812 181.796875 93.015625 L 181.796875 92.921875 L 182.234375 92.921875 L 182.234375 94.671875 L 181.796875 94.671875 L 181.796875 94.578125 C 181.773438 94.265625 181.734375 94.101562 181.671875 94.078125 C 181.546875 94.039062 181.347656 94.015625 181.078125 94.015625 L 179.625 94.015625 L 179.625 96.53125 C 179.625 96.855469 179.648438 97.101562 179.703125 97.265625 C 179.753906 97.390625 180.03125 97.453125 180.53125 97.453125 L 181.375 97.453125 L 182.140625 97.421875 C 182.304688 97.421875 182.421875 97.398438 182.484375 97.34375 C 182.554688 97.292969 182.597656 97.195312 182.609375 97.046875 L 182.625 96.5625 L 182.625 96.46875 L 183.234375 96.46875 Z M 189.4375 97.921875 L 183.734375 97.921875 L 183.734375 97.59375 L 183.828125 97.578125 L 184.1875 97.5625 C 184.394531 97.542969 184.523438 97.507812 184.578125 97.453125 C 184.640625 97.402344 184.675781 97.273438 184.6875 97.0625 L 184.71875 96.53125 L 184.71875 91.359375 L 184.6875 90.828125 C 184.675781 90.632812 184.640625 90.507812 184.578125 90.453125 C 184.523438 90.390625 184.394531 90.351562 184.1875 90.328125 L 183.828125 90.3125 L 183.734375 90.296875 L 183.734375 89.96875 L 186.84375 89.96875 L 186.84375 90.296875 L 186.75 90.3125 L 186.375 90.328125 C 186.175781 90.351562 186.046875 90.390625 185.984375 90.453125 C 185.929688 90.507812 185.898438 90.632812 185.890625 90.828125 L 185.859375 91.359375 L 185.859375 96.53125 C 185.859375 97.011719 185.890625 97.289062 185.953125 97.359375 C 186.023438 97.421875 186.300781 97.453125 186.78125 97.453125 L 187.59375 97.453125 C 188.070312 97.453125 188.414062 97.421875 188.625 97.359375 C 188.757812 97.320312 188.832031 97.195312 188.84375 96.984375 L 188.859375 96.4375 L 188.859375 96.328125 L 189.4375 96.328125 Z M 163.265625 108.5 C 162.546875 108.917969 161.707031 109.125 160.75 109.125 C 159.53125 109.125 158.566406 108.75 157.859375 108 C 157.160156 107.25 156.8125 106.230469 156.8125 104.9375 C 156.8125 103.46875 157.238281 102.355469 158.09375 101.59375 C 158.71875 101.054688 159.578125 100.78125 160.671875 100.78125 C 161.296875 100.78125 162.046875 100.898438 162.921875 101.125 L 163.125 101.171875 L 163.125 102.6875 L 162.46875 102.6875 L 162.46875 102.578125 C 162.457031 102.476562 162.453125 102.371094 162.453125 102.265625 C 162.453125 101.964844 162.375 101.75 162.21875 101.625 C 162.050781 101.480469 161.816406 101.367188 161.515625 101.28125 C 161.210938 101.1875 160.921875 101.140625 160.640625 101.140625 C 159.828125 101.140625 159.179688 101.484375 158.703125 102.171875 C 158.222656 102.859375 157.984375 103.777344 157.984375 104.921875 C 157.984375 106.078125 158.265625 106.980469 158.828125 107.625 C 159.390625 108.273438 160.171875 108.59375 161.171875 108.59375 C 161.828125 108.59375 162.523438 108.390625 163.265625 107.984375 Z M 166.25 105.421875 L 166.25 107.53125 L 166.28125 108.0625 C 166.28125 108.28125 166.316406 108.417969 166.390625 108.46875 C 166.460938 108.523438 166.671875 108.558594 167.015625 108.578125 L 167.109375 108.59375 L 167.109375 108.921875 L 164.140625 108.921875 L 164.140625 108.59375 L 164.234375 108.578125 L 164.59375 108.5625 C 164.800781 108.542969 164.929688 108.507812 164.984375 108.453125 C 165.046875 108.402344 165.082031 108.273438 165.09375 108.0625 L 165.125 107.53125 L 165.125 102.359375 L 165.09375 101.828125 C 165.082031 101.632812 165.046875 101.507812 164.984375 101.453125 C 164.929688 101.390625 164.800781 101.351562 164.59375 101.328125 L 164.234375 101.3125 L 164.140625 101.296875 L 164.140625 100.96875 L 166.578125 100.96875 L 167.453125 100.9375 C 168.253906 100.9375 168.863281 101.109375 169.28125 101.453125 C 169.695312 101.789062 169.90625 102.28125 169.90625 102.9375 C 169.90625 103.480469 169.765625 103.945312 169.484375 104.328125 C 169.203125 104.714844 168.796875 104.996094 168.265625 105.171875 L 169.828125 107.515625 L 170.328125 108.21875 C 170.429688 108.367188 170.519531 108.460938 170.59375 108.5 C 170.664062 108.542969 170.769531 108.5625 170.90625 108.5625 C 170.957031 108.5625 171.078125 108.570312 171.265625 108.578125 L 171.375 108.59375 L 171.375 108.921875 L 169.34375 108.921875 L 167.171875 105.421875 Z M 166.265625 105.0625 L 166.65625 105.0625 C 167.125 105.0625 167.492188 105.011719 167.765625 104.90625 C 168.035156 104.792969 168.257812 104.601562 168.4375 104.328125 C 168.65625 104.007812 168.765625 103.585938 168.765625 103.0625 C 168.765625 102.53125 168.660156 102.121094 168.453125 101.828125 C 168.316406 101.640625 168.144531 101.511719 167.9375 101.4375 C 167.726562 101.367188 167.421875 101.328125 167.015625 101.328125 L 166.265625 101.328125 Z M 166.265625 105.0625 "/>
<path fill-rule="evenodd" fill="rgb(100%, 0%, 0%)" fill-opacity="1" d="M 104.5 99.5 C 104.5 106.167969 94.5 106.167969 94.5 99.5 C 94.5 92.832031 104.5 92.832031 104.5 99.5 "/>
<path fill-rule="evenodd" fill="rgb(0%, 0%, 0%)" fill-opacity="1" d="M 67.0625 83.296875 L 61.359375 83.296875 L 61.359375 82.96875 L 61.453125 82.953125 L 61.8125 82.9375 C 62.019531 82.917969 62.148438 82.882812 62.203125 82.828125 C 62.265625 82.777344 62.300781 82.648438 62.3125 82.4375 L 62.34375 81.90625 L 62.34375 76.734375 L 62.3125 76.203125 C 62.300781 76.007812 62.265625 75.882812 62.203125 75.828125 C 62.148438 75.765625 62.019531 75.726562 61.8125 75.703125 L 61.453125 75.6875 L 61.359375 75.671875 L 61.359375 75.34375 L 64.46875 75.34375 L 64.46875 75.671875 L 64.375 75.6875 L 64 75.703125 C 63.800781 75.726562 63.671875 75.765625 63.609375 75.828125 C 63.554688 75.882812 63.523438 76.007812 63.515625 76.203125 L 63.484375 76.734375 L 63.484375 81.90625 C 63.484375 82.386719 63.515625 82.664062 63.578125 82.734375 C 63.648438 82.796875 63.925781 82.828125 64.40625 82.828125 L 65.21875 82.828125 C 65.695312 82.828125 66.039062 82.796875 66.25 82.734375 C 66.382812 82.695312 66.457031 82.570312 66.46875 82.359375 L 66.484375 81.8125 L 66.484375 81.703125 L 67.0625 81.703125 Z M 69.265625 80.84375 L 68.796875 81.90625 C 68.734375 82.054688 68.695312 82.152344 68.6875 82.203125 L 68.5625 82.578125 C 68.539062 82.640625 68.53125 82.699219 68.53125 82.75 C 68.53125 82.886719 68.671875 82.953125 68.953125 82.953125 L 69.234375 82.96875 L 69.3125 82.96875 L 69.3125 83.296875 L 67.25 83.296875 L 67.25 82.96875 L 67.359375 82.953125 L 67.625 82.953125 C 67.738281 82.945312 67.828125 82.90625 67.890625 82.84375 C 67.960938 82.773438 68.035156 82.648438 68.109375 82.46875 L 68.359375 81.90625 L 71.15625 75.25 L 71.53125 75.25 L 74.328125 81.9375 L 74.59375 82.5 C 74.695312 82.710938 74.78125 82.835938 74.84375 82.875 C 74.914062 82.917969 75.070312 82.945312 75.3125 82.953125 L 75.4375 82.96875 L 75.4375 83.296875 L 72.484375 83.296875 L 72.484375 82.96875 L 72.578125 82.96875 L 72.90625 82.953125 C 73.1875 82.953125 73.328125 82.886719 73.328125 82.75 C 73.328125 82.542969 73.253906 82.261719 73.109375 81.90625 L 72.671875 80.84375 Z M 69.4375 80.40625 L 72.46875 80.40625 L 70.96875 76.796875 Z M 79.390625 79.171875 C 80.046875 79.289062 80.5625 79.53125 80.9375 79.90625 C 81.3125 80.28125 81.5 80.746094 81.5 81.296875 C 81.5 81.871094 81.296875 82.355469 80.890625 82.75 C 80.648438 82.960938 80.382812 83.105469 80.09375 83.1875 C 79.800781 83.261719 79.363281 83.296875 78.78125 83.296875 L 75.671875 83.296875 L 75.671875 82.96875 L 75.765625 82.953125 L 76.125 82.9375 C 76.332031 82.917969 76.460938 82.882812 76.515625 82.828125 C 76.578125 82.777344 76.613281 82.648438 76.625 82.4375 L 76.65625 81.90625 L 76.65625 76.734375 L 76.625 76.203125 C 76.613281 76.007812 76.578125 75.882812 76.515625 75.828125 C 76.460938 75.765625 76.332031 75.726562 76.125 75.703125 L 75.765625 75.6875 L 75.671875 75.671875 L 75.671875 75.34375 L 78.9375 75.34375 C 79.71875 75.34375 80.28125 75.5 80.625 75.8125 C 80.988281 76.15625 81.171875 76.589844 81.171875 77.109375 C 81.171875 77.601562 81 78.042969 80.65625 78.4375 C 80.40625 78.710938 79.984375 78.953125 79.390625 79.171875 Z M 77.78125 79.359375 L 77.78125 81.90625 L 77.796875 82.375 C 77.796875 82.636719 77.859375 82.789062 77.984375 82.828125 C 78.191406 82.902344 78.425781 82.9375 78.6875 82.9375 C 79.175781 82.9375 79.570312 82.792969 79.875 82.5 C 80.1875 82.199219 80.34375 81.8125 80.34375 81.34375 C 80.34375 80.710938 80.117188 80.21875 79.671875 79.875 C 79.234375 79.53125 78.601562 79.359375 77.78125 79.359375 Z M 77.78125 78.984375 L 78.109375 78.984375 C 79.390625 78.984375 80.03125 78.402344 80.03125 77.234375 C 80.03125 76.757812 79.914062 76.390625 79.6875 76.140625 C 79.53125 75.984375 79.332031 75.875 79.09375 75.8125 C 78.851562 75.742188 78.503906 75.703125 78.046875 75.703125 L 77.78125 75.703125 Z M 88.109375 83.296875 L 82.375 83.296875 L 82.375 82.96875 L 82.46875 82.953125 L 82.828125 82.9375 C 83.035156 82.917969 83.164062 82.882812 83.21875 82.828125 C 83.28125 82.777344 83.316406 82.648438 83.328125 82.4375 L 83.359375 81.90625 L 83.359375 76.734375 L 83.328125 76.203125 C 83.316406 76.007812 83.28125 75.882812 83.21875 75.828125 C 83.164062 75.765625 83.035156 75.726562 82.828125 75.703125 L 82.46875 75.6875 L 82.375 75.671875 L 82.375 75.34375 L 87.8125 75.34375 L 87.8125 76.734375 L 87.21875 76.734375 L 87.203125 76.640625 L 87.171875 76.1875 C 87.171875 76.011719 87.148438 75.902344 87.109375 75.859375 C 87.066406 75.808594 86.957031 75.78125 86.78125 75.78125 L 84.5 75.78125 L 84.5 78.953125 L 85.953125 78.953125 L 86.28125 78.9375 C 86.445312 78.9375 86.546875 78.921875 86.578125 78.890625 C 86.617188 78.859375 86.644531 78.777344 86.65625 78.640625 C 86.65625 78.589844 86.660156 78.507812 86.671875 78.390625 L 86.671875 78.296875 L 87.109375 78.296875 L 87.109375 80.046875 L 86.671875 80.046875 L 86.671875 79.953125 C 86.648438 79.640625 86.609375 79.476562 86.546875 79.453125 C 86.421875 79.414062 86.222656 79.390625 85.953125 79.390625 L 84.5 79.390625 L 84.5 81.90625 C 84.5 82.230469 84.523438 82.476562 84.578125 82.640625 C 84.628906 82.765625 84.90625 82.828125 85.40625 82.828125 L 86.25 82.828125 L 87.015625 82.796875 C 87.179688 82.796875 87.296875 82.773438 87.359375 82.71875 C 87.429688 82.667969 87.472656 82.570312 87.484375 82.421875 L 87.5 81.9375 L 87.5 81.84375 L 88.109375 81.84375 Z M 94.3125 83.296875 L 88.609375 83.296875 L 88.609375 82.96875 L 88.703125 82.953125 L 89.0625 82.9375 C 89.269531 82.917969 89.398438 82.882812 89.453125 82.828125 C 89.515625 82.777344 89.550781 82.648438 89.5625 82.4375 L 89.59375 81.90625 L 89.59375 76.734375 L 89.5625 76.203125 C 89.550781 76.007812 89.515625 75.882812 89.453125 75.828125 C 89.398438 75.765625 89.269531 75.726562 89.0625 75.703125 L 88.703125 75.6875 L 88.609375 75.671875 L 88.609375 75.34375 L 91.71875 75.34375 L 91.71875 75.671875 L 91.625 75.6875 L 91.25 75.703125 C 91.050781 75.726562 90.921875 75.765625 90.859375 75.828125 C 90.804688 75.882812 90.773438 76.007812 90.765625 76.203125 L 90.734375 76.734375 L 90.734375 81.90625 C 90.734375 82.386719 90.765625 82.664062 90.828125 82.734375 C 90.898438 82.796875 91.175781 82.828125 91.65625 82.828125 L 92.46875 82.828125 C 92.945312 82.828125 93.289062 82.796875 93.5 82.734375 C 93.632812 82.695312 93.707031 82.570312 93.71875 82.359375 L 93.734375 81.8125 L 93.734375 81.703125 L 94.3125 81.703125 Z M 63.140625 91.84375 L 62.671875 92.90625 C 62.609375 93.054688 62.570312 93.152344 62.5625 93.203125 L 62.4375 93.578125 C 62.414062 93.640625 62.40625 93.699219 62.40625 93.75 C 62.40625 93.886719 62.546875 93.953125 62.828125 93.953125 L 63.109375 93.96875 L 63.1875 93.96875 L 63.1875 94.296875 L 61.125 94.296875 L 61.125 93.96875 L 61.234375 93.953125 L 61.5 93.953125 C 61.613281 93.945312 61.703125 93.90625 61.765625 93.84375 C 61.835938 93.773438 61.910156 93.648438 61.984375 93.46875 L 62.234375 92.90625 L 65.03125 86.25 L 65.40625 86.25 L 68.203125 92.9375 L 68.46875 93.5 C 68.570312 93.710938 68.65625 93.835938 68.71875 93.875 C 68.789062 93.917969 68.945312 93.945312 69.1875 93.953125 L 69.3125 93.96875 L 69.3125 94.296875 L 66.359375 94.296875 L 66.359375 93.96875 L 66.453125 93.96875 L 66.78125 93.953125 C 67.0625 93.953125 67.203125 93.886719 67.203125 93.75 C 67.203125 93.542969 67.128906 93.261719 66.984375 92.90625 L 66.546875 91.84375 Z M 63.3125 91.40625 L 66.34375 91.40625 L 64.84375 87.796875 Z M 69.40625 86.671875 L 69.40625 86.34375 L 72.53125 86.34375 L 72.53125 86.671875 L 72.4375 86.6875 L 72.0625 86.703125 C 71.894531 86.726562 71.78125 86.75 71.71875 86.78125 C 71.664062 86.804688 71.628906 86.859375 71.609375 86.953125 C 71.554688 87.183594 71.53125 87.445312 71.53125 87.734375 L 71.53125 91.140625 C 71.53125 91.964844 71.550781 92.5 71.59375 92.75 C 71.644531 93 71.753906 93.242188 71.921875 93.46875 C 72.265625 93.917969 72.785156 94.140625 73.484375 94.140625 C 74.128906 94.140625 74.644531 93.945312 75.03125 93.546875 C 75.25 93.328125 75.390625 93.085938 75.453125 92.8125 C 75.523438 92.542969 75.5625 92.0625 75.5625 91.375 L 75.5625 87.734375 L 75.53125 87.203125 C 75.519531 87.007812 75.484375 86.882812 75.421875 86.828125 C 75.367188 86.765625 75.238281 86.726562 75.03125 86.703125 L 74.671875 86.6875 L 74.578125 86.671875 L 74.578125 86.34375 L 77.109375 86.34375 L 77.109375 86.671875 L 77.015625 86.6875 L 76.65625 86.703125 C 76.476562 86.726562 76.359375 86.75 76.296875 86.78125 C 76.242188 86.804688 76.207031 86.859375 76.1875 86.953125 C 76.144531 87.183594 76.125 87.445312 76.125 87.734375 L 76.125 91.0625 C 76.125 91.804688 76.082031 92.34375 76 92.6875 C 75.914062 93.03125 75.75 93.355469 75.5 93.65625 C 75.039062 94.21875 74.316406 94.5 73.328125 94.5 C 72.472656 94.5 71.796875 94.292969 71.296875 93.875 C 70.972656 93.617188 70.738281 93.289062 70.59375 92.890625 C 70.457031 92.484375 70.390625 91.964844 70.390625 91.328125 L 70.390625 87.734375 L 70.359375 87.203125 C 70.347656 87.007812 70.3125 86.882812 70.25 86.828125 C 70.195312 86.765625 70.066406 86.726562 69.859375 86.703125 L 69.5 86.6875 Z M 80.296875 86.78125 L 79.03125 86.78125 L 78.46875 86.796875 C 78.28125 86.796875 78.160156 86.824219 78.109375 86.875 C 78.054688 86.929688 78.03125 87.042969 78.03125 87.21875 C 78.03125 87.40625 78.023438 87.570312 78.015625 87.703125 L 78.015625 87.796875 L 77.453125 87.796875 L 77.453125 86.34375 L 84.28125 86.34375 L 84.28125 87.796875 L 83.71875 87.796875 L 83.703125 87.703125 C 83.691406 87.570312 83.6875 87.40625 83.6875 87.21875 C 83.6875 87.042969 83.660156 86.929688 83.609375 86.875 C 83.554688 86.824219 83.4375 86.796875 83.25 86.796875 L 82.703125 86.78125 L 81.421875 86.78125 L 81.421875 92.90625 L 81.453125 93.4375 C 81.472656 93.648438 81.507812 93.777344 81.5625 93.828125 C 81.613281 93.882812 81.742188 93.917969 81.953125 93.9375 L 82.328125 93.953125 L 82.546875 93.96875 L 82.546875 94.296875 L 79.171875 94.296875 L 79.171875 93.96875 L 79.40625 93.953125 L 79.765625 93.9375 C 79.972656 93.917969 80.101562 93.882812 80.15625 93.828125 C 80.21875 93.777344 80.253906 93.648438 80.265625 93.4375 L 80.296875 92.90625 Z M 88.71875 94.5 C 87.726562 94.5 86.898438 94.183594 86.234375 93.546875 C 85.453125 92.808594 85.0625 91.734375 85.0625 90.328125 C 85.0625 89.039062 85.390625 88.023438 86.046875 87.28125 C 86.710938 86.53125 87.625 86.15625 88.78125 86.15625 C 89.925781 86.15625 90.828125 86.527344 91.484375 87.265625 C 92.148438 88.007812 92.484375 89.023438 92.484375 90.3125 C 92.484375 91.617188 92.148438 92.640625 91.484375 93.390625 C 90.816406 94.132812 89.894531 94.5 88.71875 94.5 Z M 88.734375 94.125 C 89.546875 94.125 90.175781 93.792969 90.625 93.125 C 91.070312 92.460938 91.296875 91.515625 91.296875 90.296875 C 91.296875 89.121094 91.070312 88.199219 90.625 87.53125 C 90.175781 86.855469 89.5625 86.515625 88.78125 86.515625 C 87.988281 86.515625 87.367188 86.855469 86.921875 87.53125 C 86.472656 88.199219 86.25 89.125 86.25 90.3125 C 86.25 91.5 86.46875 92.433594 86.90625 93.109375 C 87.351562 93.789062 87.960938 94.125 88.734375 94.125 Z M 88.734375 94.125 "/>
<path fill-rule="evenodd" fill="rgb(100%, 0%, 0%)" fill-opacity="1" d="M 54.75 99.5 C 54.75 106.167969 44.75 106.167969 44.75 99.5 C 44.75 92.832031 54.75 92.832031 54.75 99.5 "/>
<path fill-rule="evenodd" fill="rgb(0%, 0%, 0%)" fill-opacity="1" d="M 15.3125 97.921875 L 9.609375 97.921875 L 9.609375 97.59375 L 9.703125 97.578125 L 10.0625 97.5625 C 10.269531 97.542969 10.398438 97.507812 10.453125 97.453125 C 10.515625 97.402344 10.550781 97.273438 10.5625 97.0625 L 10.59375 96.53125 L 10.59375 91.359375 L 10.5625 90.828125 C 10.550781 90.632812 10.515625 90.507812 10.453125 90.453125 C 10.398438 90.390625 10.269531 90.351562 10.0625 90.328125 L 9.703125 90.3125 L 9.609375 90.296875 L 9.609375 89.96875 L 12.71875 89.96875 L 12.71875 90.296875 L 12.625 90.3125 L 12.25 90.328125 C 12.050781 90.351562 11.921875 90.390625 11.859375 90.453125 C 11.804688 90.507812 11.773438 90.632812 11.765625 90.828125 L 11.734375 91.359375 L 11.734375 96.53125 C 11.734375 97.011719 11.765625 97.289062 11.828125 97.359375 C 11.898438 97.421875 12.175781 97.453125 12.65625 97.453125 L 13.46875 97.453125 C 13.945312 97.453125 14.289062 97.421875 14.5 97.359375 C 14.632812 97.320312 14.707031 97.195312 14.71875 96.984375 L 14.734375 96.4375 L 14.734375 96.328125 L 15.3125 96.328125 Z M 17.515625 95.46875 L 17.046875 96.53125 C 16.984375 96.679688 16.945312 96.777344 16.9375 96.828125 L 16.8125 97.203125 C 16.789062 97.265625 16.78125 97.324219 16.78125 97.375 C 16.78125 97.511719 16.921875 97.578125 17.203125 97.578125 L 17.484375 97.59375 L 17.5625 97.59375 L 17.5625 97.921875 L 15.5 97.921875 L 15.5 97.59375 L 15.609375 97.578125 L 15.875 97.578125 C 15.988281 97.570312 16.078125 97.53125 16.140625 97.46875 C 16.210938 97.398438 16.285156 97.273438 16.359375 97.09375 L 16.609375 96.53125 L 19.40625 89.875 L 19.78125 89.875 L 22.578125 96.5625 L 22.84375 97.125 C 22.945312 97.335938 23.03125 97.460938 23.09375 97.5 C 23.164062 97.542969 23.320312 97.570312 23.5625 97.578125 L 23.6875 97.59375 L 23.6875 97.921875 L 20.734375 97.921875 L 20.734375 97.59375 L 20.828125 97.59375 L 21.15625 97.578125 C 21.4375 97.578125 21.578125 97.511719 21.578125 97.375 C 21.578125 97.167969 21.503906 96.886719 21.359375 96.53125 L 20.921875 95.46875 Z M 17.6875 95.03125 L 20.71875 95.03125 L 19.21875 91.421875 Z M 27.640625 93.796875 C 28.296875 93.914062 28.8125 94.15625 29.1875 94.53125 C 29.5625 94.90625 29.75 95.371094 29.75 95.921875 C 29.75 96.496094 29.546875 96.980469 29.140625 97.375 C 28.898438 97.585938 28.632812 97.730469 28.34375 97.8125 C 28.050781 97.886719 27.613281 97.921875 27.03125 97.921875 L 23.921875 97.921875 L 23.921875 97.59375 L 24.015625 97.578125 L 24.375 97.5625 C 24.582031 97.542969 24.710938 97.507812 24.765625 97.453125 C 24.828125 97.402344 24.863281 97.273438 24.875 97.0625 L 24.90625 96.53125 L 24.90625 91.359375 L 24.875 90.828125 C 24.863281 90.632812 24.828125 90.507812 24.765625 90.453125 C 24.710938 90.390625 24.582031 90.351562 24.375 90.328125 L 24.015625 90.3125 L 23.921875 90.296875 L 23.921875 89.96875 L 27.1875 89.96875 C 27.96875 89.96875 28.53125 90.125 28.875 90.4375 C 29.238281 90.78125 29.421875 91.214844 29.421875 91.734375 C 29.421875 92.226562 29.25 92.667969 28.90625 93.0625 C 28.65625 93.335938 28.234375 93.578125 27.640625 93.796875 Z M 26.03125 93.984375 L 26.03125 96.53125 L 26.046875 97 C 26.046875 97.261719 26.109375 97.414062 26.234375 97.453125 C 26.441406 97.527344 26.675781 97.5625 26.9375 97.5625 C 27.425781 97.5625 27.820312 97.417969 28.125 97.125 C 28.4375 96.824219 28.59375 96.4375 28.59375 95.96875 C 28.59375 95.335938 28.367188 94.84375 27.921875 94.5 C 27.484375 94.15625 26.851562 93.984375 26.03125 93.984375 Z M 26.03125 93.609375 L 26.359375 93.609375 C 27.640625 93.609375 28.28125 93.027344 28.28125 91.859375 C 28.28125 91.382812 28.164062 91.015625 27.9375 90.765625 C 27.78125 90.609375 27.582031 90.5 27.34375 90.4375 C 27.101562 90.367188 26.753906 90.328125 26.296875 90.328125 L 26.03125 90.328125 Z M 36.359375 97.921875 L 30.625 97.921875 L 30.625 97.59375 L 30.71875 97.578125 L 31.078125 97.5625 C 31.285156 97.542969 31.414062 97.507812 31.46875 97.453125 C 31.53125 97.402344 31.566406 97.273438 31.578125 97.0625 L 31.609375 96.53125 L 31.609375 91.359375 L 31.578125 90.828125 C 31.566406 90.632812 31.53125 90.507812 31.46875 90.453125 C 31.414062 90.390625 31.285156 90.351562 31.078125 90.328125 L 30.71875 90.3125 L 30.625 90.296875 L 30.625 89.96875 L 36.0625 89.96875 L 36.0625 91.359375 L 35.46875 91.359375 L 35.453125 91.265625 L 35.421875 90.8125 C 35.421875 90.636719 35.398438 90.527344 35.359375 90.484375 C 35.316406 90.433594 35.207031 90.40625 35.03125 90.40625 L 32.75 90.40625 L 32.75 93.578125 L 34.203125 93.578125 L 34.53125 93.5625 C 34.695312 93.5625 34.796875 93.546875 34.828125 93.515625 C 34.867188 93.484375 34.894531 93.402344 34.90625 93.265625 C 34.90625 93.214844 34.910156 93.132812 34.921875 93.015625 L 34.921875 92.921875 L 35.359375 92.921875 L 35.359375 94.671875 L 34.921875 94.671875 L 34.921875 94.578125 C 34.898438 94.265625 34.859375 94.101562 34.796875 94.078125 C 34.671875 94.039062 34.472656 94.015625 34.203125 94.015625 L 32.75 94.015625 L 32.75 96.53125 C 32.75 96.855469 32.773438 97.101562 32.828125 97.265625 C 32.878906 97.390625 33.15625 97.453125 33.65625 97.453125 L 34.5 97.453125 L 35.265625 97.421875 C 35.429688 97.421875 35.546875 97.398438 35.609375 97.34375 C 35.679688 97.292969 35.722656 97.195312 35.734375 97.046875 L 35.75 96.5625 L 35.75 96.46875 L 36.359375 96.46875 Z M 42.5625 97.921875 L 36.859375 97.921875 L 36.859375 97.59375 L 36.953125 97.578125 L 37.3125 97.5625 C 37.519531 97.542969 37.648438 97.507812 37.703125 97.453125 C 37.765625 97.402344 37.800781 97.273438 37.8125 97.0625 L 37.84375 96.53125 L 37.84375 91.359375 L 37.8125 90.828125 C 37.800781 90.632812 37.765625 90.507812 37.703125 90.453125 C 37.648438 90.390625 37.519531 90.351562 37.3125 90.328125 L 36.953125 90.3125 L 36.859375 90.296875 L 36.859375 89.96875 L 39.96875 89.96875 L 39.96875 90.296875 L 39.875 90.3125 L 39.5 90.328125 C 39.300781 90.351562 39.171875 90.390625 39.109375 90.453125 C 39.054688 90.507812 39.023438 90.632812 39.015625 90.828125 L 38.984375 91.359375 L 38.984375 96.53125 C 38.984375 97.011719 39.015625 97.289062 39.078125 97.359375 C 39.148438 97.421875 39.425781 97.453125 39.90625 97.453125 L 40.71875 97.453125 C 41.195312 97.453125 41.539062 97.421875 41.75 97.359375 C 41.882812 97.320312 41.957031 97.195312 41.96875 96.984375 L 41.984375 96.4375 L 41.984375 96.328125 L 42.5625 96.328125 Z M 16.390625 108.5 C 15.671875 108.917969 14.832031 109.125 13.875 109.125 C 12.65625 109.125 11.691406 108.75 10.984375 108 C 10.285156 107.25 9.9375 106.230469 9.9375 104.9375 C 9.9375 103.46875 10.363281 102.355469 11.21875 101.59375 C 11.84375 101.054688 12.703125 100.78125 13.796875 100.78125 C 14.421875 100.78125 15.171875 100.898438 16.046875 101.125 L 16.25 101.171875 L 16.25 102.6875 L 15.59375 102.6875 L 15.59375 102.578125 C 15.582031 102.476562 15.578125 102.371094 15.578125 102.265625 C 15.578125 101.964844 15.5 101.75 15.34375 101.625 C 15.175781 101.480469 14.941406 101.367188 14.640625 101.28125 C 14.335938 101.1875 14.046875 101.140625 13.765625 101.140625 C 12.953125 101.140625 12.304688 101.484375 11.828125 102.171875 C 11.347656 102.859375 11.109375 103.777344 11.109375 104.921875 C 11.109375 106.078125 11.390625 106.980469 11.953125 107.625 C 12.515625 108.273438 13.296875 108.59375 14.296875 108.59375 C 14.953125 108.59375 15.648438 108.390625 16.390625 107.984375 Z M 22.96875 108.921875 L 17.265625 108.921875 L 17.265625 108.59375 L 17.359375 108.578125 L 17.71875 108.5625 C 17.925781 108.542969 18.054688 108.507812 18.109375 108.453125 C 18.171875 108.402344 18.207031 108.273438 18.21875 108.0625 L 18.25 107.53125 L 18.25 102.359375 L 18.21875 101.828125 C 18.207031 101.632812 18.171875 101.507812 18.109375 101.453125 C 18.054688 101.390625 17.925781 101.351562 17.71875 101.328125 L 17.359375 101.3125 L 17.265625 101.296875 L 17.265625 100.96875 L 20.375 100.96875 L 20.375 101.296875 L 20.28125 101.3125 L 19.90625 101.328125 C 19.707031 101.351562 19.578125 101.390625 19.515625 101.453125 C 19.460938 101.507812 19.429688 101.632812 19.421875 101.828125 L 19.390625 102.359375 L 19.390625 107.53125 C 19.390625 108.011719 19.421875 108.289062 19.484375 108.359375 C 19.554688 108.421875 19.832031 108.453125 20.3125 108.453125 L 21.125 108.453125 C 21.601562 108.453125 21.945312 108.421875 22.15625 108.359375 C 22.289062 108.320312 22.363281 108.195312 22.375 107.984375 L 22.390625 107.4375 L 22.390625 107.328125 L 22.96875 107.328125 Z M 22.96875 108.921875 "/>
<path fill-rule="evenodd" fill="rgb(100%, 0%, 0%)" fill-opacity="1" d="M 154.25 149.25 C 154.25 155.917969 144.25 155.917969 144.25 149.25 C 144.25 142.582031 154.25 142.582031 154.25 149.25 "/>
<path fill-rule="evenodd" fill="rgb(0%, 0%, 0%)" fill-opacity="1" d="M 160.1875 162.296875 L 154.484375 162.296875 L 154.484375 161.96875 L 154.578125 161.953125 L 154.9375 161.9375 C 155.144531 161.917969 155.273438 161.882812 155.328125 161.828125 C 155.390625 161.777344 155.425781 161.648438 155.4375 161.4375 L 155.46875 160.90625 L 155.46875 155.734375 L 155.4375 155.203125 C 155.425781 155.007812 155.390625 154.882812 155.328125 154.828125 C 155.273438 154.765625 155.144531 154.726562 154.9375 154.703125 L 154.578125 154.6875 L 154.484375 154.671875 L 154.484375 154.34375 L 157.59375 154.34375 L 157.59375 154.671875 L 157.5 154.6875 L 157.125 154.703125 C 156.925781 154.726562 156.796875 154.765625 156.734375 154.828125 C 156.679688 154.882812 156.648438 155.007812 156.640625 155.203125 L 156.609375 155.734375 L 156.609375 160.90625 C 156.609375 161.386719 156.640625 161.664062 156.703125 161.734375 C 156.773438 161.796875 157.050781 161.828125 157.53125 161.828125 L 158.34375 161.828125 C 158.820312 161.828125 159.164062 161.796875 159.375 161.734375 C 159.507812 161.695312 159.582031 161.570312 159.59375 161.359375 L 159.609375 160.8125 L 159.609375 160.703125 L 160.1875 160.703125 Z M 162.390625 159.84375 L 161.921875 160.90625 C 161.859375 161.054688 161.820312 161.152344 161.8125 161.203125 L 161.6875 161.578125 C 161.664062 161.640625 161.65625 161.699219 161.65625 161.75 C 161.65625 161.886719 161.796875 161.953125 162.078125 161.953125 L 162.359375 161.96875 L 162.4375 161.96875 L 162.4375 162.296875 L 160.375 162.296875 L 160.375 161.96875 L 160.484375 161.953125 L 160.75 161.953125 C 160.863281 161.945312 160.953125 161.90625 161.015625 161.84375 C 161.085938 161.773438 161.160156 161.648438 161.234375 161.46875 L 161.484375 160.90625 L 164.28125 154.25 L 164.65625 154.25 L 167.453125 160.9375 L 167.71875 161.5 C 167.820312 161.710938 167.90625 161.835938 167.96875 161.875 C 168.039062 161.917969 168.195312 161.945312 168.4375 161.953125 L 168.5625 161.96875 L 168.5625 162.296875 L 165.609375 162.296875 L 165.609375 161.96875 L 165.703125 161.96875 L 166.03125 161.953125 C 166.3125 161.953125 166.453125 161.886719 166.453125 161.75 C 166.453125 161.542969 166.378906 161.261719 166.234375 160.90625 L 165.796875 159.84375 Z M 162.5625 159.40625 L 165.59375 159.40625 L 164.09375 155.796875 Z M 172.515625 158.171875 C 173.171875 158.289062 173.6875 158.53125 174.0625 158.90625 C 174.4375 159.28125 174.625 159.746094 174.625 160.296875 C 174.625 160.871094 174.421875 161.355469 174.015625 161.75 C 173.773438 161.960938 173.507812 162.105469 173.21875 162.1875 C 172.925781 162.261719 172.488281 162.296875 171.90625 162.296875 L 168.796875 162.296875 L 168.796875 161.96875 L 168.890625 161.953125 L 169.25 161.9375 C 169.457031 161.917969 169.585938 161.882812 169.640625 161.828125 C 169.703125 161.777344 169.738281 161.648438 169.75 161.4375 L 169.78125 160.90625 L 169.78125 155.734375 L 169.75 155.203125 C 169.738281 155.007812 169.703125 154.882812 169.640625 154.828125 C 169.585938 154.765625 169.457031 154.726562 169.25 154.703125 L 168.890625 154.6875 L 168.796875 154.671875 L 168.796875 154.34375 L 172.0625 154.34375 C 172.84375 154.34375 173.40625 154.5 173.75 154.8125 C 174.113281 155.15625 174.296875 155.589844 174.296875 156.109375 C 174.296875 156.601562 174.125 157.042969 173.78125 157.4375 C 173.53125 157.710938 173.109375 157.953125 172.515625 158.171875 Z M 170.90625 158.359375 L 170.90625 160.90625 L 170.921875 161.375 C 170.921875 161.636719 170.984375 161.789062 171.109375 161.828125 C 171.316406 161.902344 171.550781 161.9375 171.8125 161.9375 C 172.300781 161.9375 172.695312 161.792969 173 161.5 C 173.3125 161.199219 173.46875 160.8125 173.46875 160.34375 C 173.46875 159.710938 173.242188 159.21875 172.796875 158.875 C 172.359375 158.53125 171.726562 158.359375 170.90625 158.359375 Z M 170.90625 157.984375 L 171.234375 157.984375 C 172.515625 157.984375 173.15625 157.402344 173.15625 156.234375 C 173.15625 155.757812 173.039062 155.390625 172.8125 155.140625 C 172.65625 154.984375 172.457031 154.875 172.21875 154.8125 C 171.976562 154.742188 171.628906 154.703125 171.171875 154.703125 L 170.90625 154.703125 Z M 181.234375 162.296875 L 175.5 162.296875 L 175.5 161.96875 L 175.59375 161.953125 L 175.953125 161.9375 C 176.160156 161.917969 176.289062 161.882812 176.34375 161.828125 C 176.40625 161.777344 176.441406 161.648438 176.453125 161.4375 L 176.484375 160.90625 L 176.484375 155.734375 L 176.453125 155.203125 C 176.441406 155.007812 176.40625 154.882812 176.34375 154.828125 C 176.289062 154.765625 176.160156 154.726562 175.953125 154.703125 L 175.59375 154.6875 L 175.5 154.671875 L 175.5 154.34375 L 180.9375 154.34375 L 180.9375 155.734375 L 180.34375 155.734375 L 180.328125 155.640625 L 180.296875 155.1875 C 180.296875 155.011719 180.273438 154.902344 180.234375 154.859375 C 180.191406 154.808594 180.082031 154.78125 179.90625 154.78125 L 177.625 154.78125 L 177.625 157.953125 L 179.078125 157.953125 L 179.40625 157.9375 C 179.570312 157.9375 179.671875 157.921875 179.703125 157.890625 C 179.742188 157.859375 179.769531 157.777344 179.78125 157.640625 C 179.78125 157.589844 179.785156 157.507812 179.796875 157.390625 L 179.796875 157.296875 L 180.234375 157.296875 L 180.234375 159.046875 L 179.796875 159.046875 L 179.796875 158.953125 C 179.773438 158.640625 179.734375 158.476562 179.671875 158.453125 C 179.546875 158.414062 179.347656 158.390625 179.078125 158.390625 L 177.625 158.390625 L 177.625 160.90625 C 177.625 161.230469 177.648438 161.476562 177.703125 161.640625 C 177.753906 161.765625 178.03125 161.828125 178.53125 161.828125 L 179.375 161.828125 L 180.140625 161.796875 C 180.304688 161.796875 180.421875 161.773438 180.484375 161.71875 C 180.554688 161.667969 180.597656 161.570312 180.609375 161.421875 L 180.625 160.9375 L 180.625 160.84375 L 181.234375 160.84375 Z M 187.4375 162.296875 L 181.734375 162.296875 L 181.734375 161.96875 L 181.828125 161.953125 L 182.1875 161.9375 C 182.394531 161.917969 182.523438 161.882812 182.578125 161.828125 C 182.640625 161.777344 182.675781 161.648438 182.6875 161.4375 L 182.71875 160.90625 L 182.71875 155.734375 L 182.6875 155.203125 C 182.675781 155.007812 182.640625 154.882812 182.578125 154.828125 C 182.523438 154.765625 182.394531 154.726562 182.1875 154.703125 L 181.828125 154.6875 L 181.734375 154.671875 L 181.734375 154.34375 L 184.84375 154.34375 L 184.84375 154.671875 L 184.75 154.6875 L 184.375 154.703125 C 184.175781 154.726562 184.046875 154.765625 183.984375 154.828125 C 183.929688 154.882812 183.898438 155.007812 183.890625 155.203125 L 183.859375 155.734375 L 183.859375 160.90625 C 183.859375 161.386719 183.890625 161.664062 183.953125 161.734375 C 184.023438 161.796875 184.300781 161.828125 184.78125 161.828125 L 185.59375 161.828125 C 186.070312 161.828125 186.414062 161.796875 186.625 161.734375 C 186.757812 161.695312 186.832031 161.570312 186.84375 161.359375 L 186.859375 160.8125 L 186.859375 160.703125 L 187.4375 160.703125 Z M 160.1875 173.296875 L 154.484375 173.296875 L 154.484375 172.96875 L 154.578125 172.953125 L 154.9375 172.9375 C 155.144531 172.917969 155.273438 172.882812 155.328125 172.828125 C 155.390625 172.777344 155.425781 172.648438 155.4375 172.4375 L 155.46875 171.90625 L 155.46875 166.734375 L 155.4375 166.203125 C 155.425781 166.007812 155.390625 165.882812 155.328125 165.828125 C 155.273438 165.765625 155.144531 165.726562 154.9375 165.703125 L 154.578125 165.6875 L 154.484375 165.671875 L 154.484375 165.34375 L 157.59375 165.34375 L 157.59375 165.671875 L 157.5 165.6875 L 157.125 165.703125 C 156.925781 165.726562 156.796875 165.765625 156.734375 165.828125 C 156.679688 165.882812 156.648438 166.007812 156.640625 166.203125 L 156.609375 166.734375 L 156.609375 171.90625 C 156.609375 172.386719 156.640625 172.664062 156.703125 172.734375 C 156.773438 172.796875 157.050781 172.828125 157.53125 172.828125 L 158.34375 172.828125 C 158.820312 172.828125 159.164062 172.796875 159.375 172.734375 C 159.507812 172.695312 159.582031 172.570312 159.59375 172.359375 L 159.609375 171.8125 L 159.609375 171.703125 L 160.1875 171.703125 Z M 162.71875 169.796875 L 162.71875 171.90625 L 162.75 172.4375 C 162.75 172.65625 162.785156 172.792969 162.859375 172.84375 C 162.929688 172.898438 163.140625 172.933594 163.484375 172.953125 L 163.578125 172.96875 L 163.578125 173.296875 L 160.609375 173.296875 L 160.609375 172.96875 L 160.703125 172.953125 L 161.0625 172.9375 C 161.269531 172.917969 161.398438 172.882812 161.453125 172.828125 C 161.515625 172.777344 161.550781 172.648438 161.5625 172.4375 L 161.59375 171.90625 L 161.59375 166.734375 L 161.5625 166.203125 C 161.550781 166.007812 161.515625 165.882812 161.453125 165.828125 C 161.398438 165.765625 161.269531 165.726562 161.0625 165.703125 L 160.703125 165.6875 L 160.609375 165.671875 L 160.609375 165.34375 L 163.046875 165.34375 L 163.921875 165.3125 C 164.722656 165.3125 165.332031 165.484375 165.75 165.828125 C 166.164062 166.164062 166.375 166.65625 166.375 167.3125 C 166.375 167.855469 166.234375 168.320312 165.953125 168.703125 C 165.671875 169.089844 165.265625 169.371094 164.734375 169.546875 L 166.296875 171.890625 L 166.796875 172.59375 C 166.898438 172.742188 166.988281 172.835938 167.0625 172.875 C 167.132812 172.917969 167.238281 172.9375 167.375 172.9375 C 167.425781 172.9375 167.546875 172.945312 167.734375 172.953125 L 167.84375 172.96875 L 167.84375 173.296875 L 165.8125 173.296875 L 163.640625 169.796875 Z M 162.734375 169.4375 L 163.125 169.4375 C 163.59375 169.4375 163.960938 169.386719 164.234375 169.28125 C 164.503906 169.167969 164.726562 168.976562 164.90625 168.703125 C 165.125 168.382812 165.234375 167.960938 165.234375 167.4375 C 165.234375 166.90625 165.128906 166.496094 164.921875 166.203125 C 164.785156 166.015625 164.613281 165.886719 164.40625 165.8125 C 164.195312 165.742188 163.890625 165.703125 163.484375 165.703125 L 162.734375 165.703125 Z M 162.734375 169.4375 "/>
<path fill-rule="evenodd" fill="rgb(100%, 0%, 0%)" fill-opacity="1" d="M 104.5 149.25 C 104.5 155.917969 94.5 155.917969 94.5 149.25 C 94.5 142.582031 104.5 142.582031 104.5 149.25 "/>
<path fill-rule="evenodd" fill="rgb(0%, 0%, 0%)" fill-opacity="1" d="M 88.75 164.296875 L 83.046875 164.296875 L 83.046875 163.96875 L 83.140625 163.953125 L 83.5 163.9375 C 83.707031 163.917969 83.835938 163.882812 83.890625 163.828125 C 83.953125 163.777344 83.988281 163.648438 84 163.4375 L 84.03125 162.90625 L 84.03125 157.734375 L 84 157.203125 C 83.988281 157.007812 83.953125 156.882812 83.890625 156.828125 C 83.835938 156.765625 83.707031 156.726562 83.5 156.703125 L 83.140625 156.6875 L 83.046875 156.671875 L 83.046875 156.34375 L 86.15625 156.34375 L 86.15625 156.671875 L 86.0625 156.6875 L 85.6875 156.703125 C 85.488281 156.726562 85.359375 156.765625 85.296875 156.828125 C 85.242188 156.882812 85.210938 157.007812 85.203125 157.203125 L 85.171875 157.734375 L 85.171875 162.90625 C 85.171875 163.386719 85.203125 163.664062 85.265625 163.734375 C 85.335938 163.796875 85.613281 163.828125 86.09375 163.828125 L 86.90625 163.828125 C 87.382812 163.828125 87.726562 163.796875 87.9375 163.734375 C 88.070312 163.695312 88.144531 163.570312 88.15625 163.359375 L 88.171875 162.8125 L 88.171875 162.703125 L 88.75 162.703125 Z M 90.953125 161.84375 L 90.484375 162.90625 C 90.421875 163.054688 90.382812 163.152344 90.375 163.203125 L 90.25 163.578125 C 90.226562 163.640625 90.21875 163.699219 90.21875 163.75 C 90.21875 163.886719 90.359375 163.953125 90.640625 163.953125 L 90.921875 163.96875 L 91 163.96875 L 91 164.296875 L 88.9375 164.296875 L 88.9375 163.96875 L 89.046875 163.953125 L 89.3125 163.953125 C 89.425781 163.945312 89.515625 163.90625 89.578125 163.84375 C 89.648438 163.773438 89.722656 163.648438 89.796875 163.46875 L 90.046875 162.90625 L 92.84375 156.25 L 93.21875 156.25 L 96.015625 162.9375 L 96.28125 163.5 C 96.382812 163.710938 96.46875 163.835938 96.53125 163.875 C 96.601562 163.917969 96.757812 163.945312 97 163.953125 L 97.125 163.96875 L 97.125 164.296875 L 94.171875 164.296875 L 94.171875 163.96875 L 94.265625 163.96875 L 94.59375 163.953125 C 94.875 163.953125 95.015625 163.886719 95.015625 163.75 C 95.015625 163.542969 94.941406 163.261719 94.796875 162.90625 L 94.359375 161.84375 Z M 91.125 161.40625 L 94.15625 161.40625 L 92.65625 157.796875 Z M 101.078125 160.171875 C 101.734375 160.289062 102.25 160.53125 102.625 160.90625 C 103 161.28125 103.1875 161.746094 103.1875 162.296875 C 103.1875 162.871094 102.984375 163.355469 102.578125 163.75 C 102.335938 163.960938 102.070312 164.105469 101.78125 164.1875 C 101.488281 164.261719 101.050781 164.296875 100.46875 164.296875 L 97.359375 164.296875 L 97.359375 163.96875 L 97.453125 163.953125 L 97.8125 163.9375 C 98.019531 163.917969 98.148438 163.882812 98.203125 163.828125 C 98.265625 163.777344 98.300781 163.648438 98.3125 163.4375 L 98.34375 162.90625 L 98.34375 157.734375 L 98.3125 157.203125 C 98.300781 157.007812 98.265625 156.882812 98.203125 156.828125 C 98.148438 156.765625 98.019531 156.726562 97.8125 156.703125 L 97.453125 156.6875 L 97.359375 156.671875 L 97.359375 156.34375 L 100.625 156.34375 C 101.40625 156.34375 101.96875 156.5 102.3125 156.8125 C 102.675781 157.15625 102.859375 157.589844 102.859375 158.109375 C 102.859375 158.601562 102.6875 159.042969 102.34375 159.4375 C 102.09375 159.710938 101.671875 159.953125 101.078125 160.171875 Z M 99.46875 160.359375 L 99.46875 162.90625 L 99.484375 163.375 C 99.484375 163.636719 99.546875 163.789062 99.671875 163.828125 C 99.878906 163.902344 100.113281 163.9375 100.375 163.9375 C 100.863281 163.9375 101.257812 163.792969 101.5625 163.5 C 101.875 163.199219 102.03125 162.8125 102.03125 162.34375 C 102.03125 161.710938 101.804688 161.21875 101.359375 160.875 C 100.921875 160.53125 100.289062 160.359375 99.46875 160.359375 Z M 99.46875 159.984375 L 99.796875 159.984375 C 101.078125 159.984375 101.71875 159.402344 101.71875 158.234375 C 101.71875 157.757812 101.601562 157.390625 101.375 157.140625 C 101.21875 156.984375 101.019531 156.875 100.78125 156.8125 C 100.539062 156.742188 100.191406 156.703125 99.734375 156.703125 L 99.46875 156.703125 Z M 109.796875 164.296875 L 104.0625 164.296875 L 104.0625 163.96875 L 104.15625 163.953125 L 104.515625 163.9375 C 104.722656 163.917969 104.851562 163.882812 104.90625 163.828125 C 104.96875 163.777344 105.003906 163.648438 105.015625 163.4375 L 105.046875 162.90625 L 105.046875 157.734375 L 105.015625 157.203125 C 105.003906 157.007812 104.96875 156.882812 104.90625 156.828125 C 104.851562 156.765625 104.722656 156.726562 104.515625 156.703125 L 104.15625 156.6875 L 104.0625 156.671875 L 104.0625 156.34375 L 109.5 156.34375 L 109.5 157.734375 L 108.90625 157.734375 L 108.890625 157.640625 L 108.859375 157.1875 C 108.859375 157.011719 108.835938 156.902344 108.796875 156.859375 C 108.753906 156.808594 108.644531 156.78125 108.46875 156.78125 L 106.1875 156.78125 L 106.1875 159.953125 L 107.640625 159.953125 L 107.96875 159.9375 C 108.132812 159.9375 108.234375 159.921875 108.265625 159.890625 C 108.304688 159.859375 108.332031 159.777344 108.34375 159.640625 C 108.34375 159.589844 108.347656 159.507812 108.359375 159.390625 L 108.359375 159.296875 L 108.796875 159.296875 L 108.796875 161.046875 L 108.359375 161.046875 L 108.359375 160.953125 C 108.335938 160.640625 108.296875 160.476562 108.234375 160.453125 C 108.109375 160.414062 107.910156 160.390625 107.640625 160.390625 L 106.1875 160.390625 L 106.1875 162.90625 C 106.1875 163.230469 106.210938 163.476562 106.265625 163.640625 C 106.316406 163.765625 106.59375 163.828125 107.09375 163.828125 L 107.9375 163.828125 L 108.703125 163.796875 C 108.867188 163.796875 108.984375 163.773438 109.046875 163.71875 C 109.117188 163.667969 109.160156 163.570312 109.171875 163.421875 L 109.1875 162.9375 L 109.1875 162.84375 L 109.796875 162.84375 Z M 116 164.296875 L 110.296875 164.296875 L 110.296875 163.96875 L 110.390625 163.953125 L 110.75 163.9375 C 110.957031 163.917969 111.085938 163.882812 111.140625 163.828125 C 111.203125 163.777344 111.238281 163.648438 111.25 163.4375 L 111.28125 162.90625 L 111.28125 157.734375 L 111.25 157.203125 C 111.238281 157.007812 111.203125 156.882812 111.140625 156.828125 C 111.085938 156.765625 110.957031 156.726562 110.75 156.703125 L 110.390625 156.6875 L 110.296875 156.671875 L 110.296875 156.34375 L 113.40625 156.34375 L 113.40625 156.671875 L 113.3125 156.6875 L 112.9375 156.703125 C 112.738281 156.726562 112.609375 156.765625 112.546875 156.828125 C 112.492188 156.882812 112.460938 157.007812 112.453125 157.203125 L 112.421875 157.734375 L 112.421875 162.90625 C 112.421875 163.386719 112.453125 163.664062 112.515625 163.734375 C 112.585938 163.796875 112.863281 163.828125 113.34375 163.828125 L 114.15625 163.828125 C 114.632812 163.828125 114.976562 163.796875 115.1875 163.734375 C 115.320312 163.695312 115.394531 163.570312 115.40625 163.359375 L 115.421875 162.8125 L 115.421875 162.703125 L 116 162.703125 Z M 88.75 175.296875 L 83.046875 175.296875 L 83.046875 174.96875 L 83.140625 174.953125 L 83.5 174.9375 C 83.707031 174.917969 83.835938 174.882812 83.890625 174.828125 C 83.953125 174.777344 83.988281 174.648438 84 174.4375 L 84.03125 173.90625 L 84.03125 168.734375 L 84 168.203125 C 83.988281 168.007812 83.953125 167.882812 83.890625 167.828125 C 83.835938 167.765625 83.707031 167.726562 83.5 167.703125 L 83.140625 167.6875 L 83.046875 167.671875 L 83.046875 167.34375 L 86.15625 167.34375 L 86.15625 167.671875 L 86.0625 167.6875 L 85.6875 167.703125 C 85.488281 167.726562 85.359375 167.765625 85.296875 167.828125 C 85.242188 167.882812 85.210938 168.007812 85.203125 168.203125 L 85.171875 168.734375 L 85.171875 173.90625 C 85.171875 174.386719 85.203125 174.664062 85.265625 174.734375 C 85.335938 174.796875 85.613281 174.828125 86.09375 174.828125 L 86.90625 174.828125 C 87.382812 174.828125 87.726562 174.796875 87.9375 174.734375 C 88.070312 174.695312 88.144531 174.570312 88.15625 174.359375 L 88.171875 173.8125 L 88.171875 173.703125 L 88.75 173.703125 Z M 95.953125 174.875 C 95.234375 175.292969 94.394531 175.5 93.4375 175.5 C 92.21875 175.5 91.253906 175.125 90.546875 174.375 C 89.847656 173.625 89.5 172.605469 89.5 171.3125 C 89.5 169.84375 89.925781 168.730469 90.78125 167.96875 C 91.40625 167.429688 92.265625 167.15625 93.359375 167.15625 C 93.984375 167.15625 94.734375 167.273438 95.609375 167.5 L 95.8125 167.546875 L 95.8125 169.0625 L 95.15625 169.0625 L 95.15625 168.953125 C 95.144531 168.851562 95.140625 168.746094 95.140625 168.640625 C 95.140625 168.339844 95.0625 168.125 94.90625 168 C 94.738281 167.855469 94.503906 167.742188 94.203125 167.65625 C 93.898438 167.5625 93.609375 167.515625 93.328125 167.515625 C 92.515625 167.515625 91.867188 167.859375 91.390625 168.546875 C 90.910156 169.234375 90.671875 170.152344 90.671875 171.296875 C 90.671875 172.453125 90.953125 173.355469 91.515625 174 C 92.078125 174.648438 92.859375 174.96875 93.859375 174.96875 C 94.515625 174.96875 95.210938 174.765625 95.953125 174.359375 Z M 95.953125 174.875 "/>
<path fill-rule="evenodd" fill="rgb(100%, 0%, 0%)" fill-opacity="1" d="M 54.75 149.25 C 54.75 155.917969 44.75 155.917969 44.75 149.25 C 44.75 142.582031 54.75 142.582031 54.75 149.25 "/>
<path fill-rule="evenodd" fill="rgb(0%, 0%, 0%)" fill-opacity="1" d="M 17.3125 162.296875 L 11.609375 162.296875 L 11.609375 161.96875 L 11.703125 161.953125 L 12.0625 161.9375 C 12.269531 161.917969 12.398438 161.882812 12.453125 161.828125 C 12.515625 161.777344 12.550781 161.648438 12.5625 161.4375 L 12.59375 160.90625 L 12.59375 155.734375 L 12.5625 155.203125 C 12.550781 155.007812 12.515625 154.882812 12.453125 154.828125 C 12.398438 154.765625 12.269531 154.726562 12.0625 154.703125 L 11.703125 154.6875 L 11.609375 154.671875 L 11.609375 154.34375 L 14.71875 154.34375 L 14.71875 154.671875 L 14.625 154.6875 L 14.25 154.703125 C 14.050781 154.726562 13.921875 154.765625 13.859375 154.828125 C 13.804688 154.882812 13.773438 155.007812 13.765625 155.203125 L 13.734375 155.734375 L 13.734375 160.90625 C 13.734375 161.386719 13.765625 161.664062 13.828125 161.734375 C 13.898438 161.796875 14.175781 161.828125 14.65625 161.828125 L 15.46875 161.828125 C 15.945312 161.828125 16.289062 161.796875 16.5 161.734375 C 16.632812 161.695312 16.707031 161.570312 16.71875 161.359375 L 16.734375 160.8125 L 16.734375 160.703125 L 17.3125 160.703125 Z M 19.515625 159.84375 L 19.046875 160.90625 C 18.984375 161.054688 18.945312 161.152344 18.9375 161.203125 L 18.8125 161.578125 C 18.789062 161.640625 18.78125 161.699219 18.78125 161.75 C 18.78125 161.886719 18.921875 161.953125 19.203125 161.953125 L 19.484375 161.96875 L 19.5625 161.96875 L 19.5625 162.296875 L 17.5 162.296875 L 17.5 161.96875 L 17.609375 161.953125 L 17.875 161.953125 C 17.988281 161.945312 18.078125 161.90625 18.140625 161.84375 C 18.210938 161.773438 18.285156 161.648438 18.359375 161.46875 L 18.609375 160.90625 L 21.40625 154.25 L 21.78125 154.25 L 24.578125 160.9375 L 24.84375 161.5 C 24.945312 161.710938 25.03125 161.835938 25.09375 161.875 C 25.164062 161.917969 25.320312 161.945312 25.5625 161.953125 L 25.6875 161.96875 L 25.6875 162.296875 L 22.734375 162.296875 L 22.734375 161.96875 L 22.828125 161.96875 L 23.15625 161.953125 C 23.4375 161.953125 23.578125 161.886719 23.578125 161.75 C 23.578125 161.542969 23.503906 161.261719 23.359375 160.90625 L 22.921875 159.84375 Z M 19.6875 159.40625 L 22.71875 159.40625 L 21.21875 155.796875 Z M 29.640625 158.171875 C 30.296875 158.289062 30.8125 158.53125 31.1875 158.90625 C 31.5625 159.28125 31.75 159.746094 31.75 160.296875 C 31.75 160.871094 31.546875 161.355469 31.140625 161.75 C 30.898438 161.960938 30.632812 162.105469 30.34375 162.1875 C 30.050781 162.261719 29.613281 162.296875 29.03125 162.296875 L 25.921875 162.296875 L 25.921875 161.96875 L 26.015625 161.953125 L 26.375 161.9375 C 26.582031 161.917969 26.710938 161.882812 26.765625 161.828125 C 26.828125 161.777344 26.863281 161.648438 26.875 161.4375 L 26.90625 160.90625 L 26.90625 155.734375 L 26.875 155.203125 C 26.863281 155.007812 26.828125 154.882812 26.765625 154.828125 C 26.710938 154.765625 26.582031 154.726562 26.375 154.703125 L 26.015625 154.6875 L 25.921875 154.671875 L 25.921875 154.34375 L 29.1875 154.34375 C 29.96875 154.34375 30.53125 154.5 30.875 154.8125 C 31.238281 155.15625 31.421875 155.589844 31.421875 156.109375 C 31.421875 156.601562 31.25 157.042969 30.90625 157.4375 C 30.65625 157.710938 30.234375 157.953125 29.640625 158.171875 Z M 28.03125 158.359375 L 28.03125 160.90625 L 28.046875 161.375 C 28.046875 161.636719 28.109375 161.789062 28.234375 161.828125 C 28.441406 161.902344 28.675781 161.9375 28.9375 161.9375 C 29.425781 161.9375 29.820312 161.792969 30.125 161.5 C 30.4375 161.199219 30.59375 160.8125 30.59375 160.34375 C 30.59375 159.710938 30.367188 159.21875 29.921875 158.875 C 29.484375 158.53125 28.851562 158.359375 28.03125 158.359375 Z M 28.03125 157.984375 L 28.359375 157.984375 C 29.640625 157.984375 30.28125 157.402344 30.28125 156.234375 C 30.28125 155.757812 30.164062 155.390625 29.9375 155.140625 C 29.78125 154.984375 29.582031 154.875 29.34375 154.8125 C 29.101562 154.742188 28.753906 154.703125 28.296875 154.703125 L 28.03125 154.703125 Z M 38.359375 162.296875 L 32.625 162.296875 L 32.625 161.96875 L 32.71875 161.953125 L 33.078125 161.9375 C 33.285156 161.917969 33.414062 161.882812 33.46875 161.828125 C 33.53125 161.777344 33.566406 161.648438 33.578125 161.4375 L 33.609375 160.90625 L 33.609375 155.734375 L 33.578125 155.203125 C 33.566406 155.007812 33.53125 154.882812 33.46875 154.828125 C 33.414062 154.765625 33.285156 154.726562 33.078125 154.703125 L 32.71875 154.6875 L 32.625 154.671875 L 32.625 154.34375 L 38.0625 154.34375 L 38.0625 155.734375 L 37.46875 155.734375 L 37.453125 155.640625 L 37.421875 155.1875 C 37.421875 155.011719 37.398438 154.902344 37.359375 154.859375 C 37.316406 154.808594 37.207031 154.78125 37.03125 154.78125 L 34.75 154.78125 L 34.75 157.953125 L 36.203125 157.953125 L 36.53125 157.9375 C 36.695312 157.9375 36.796875 157.921875 36.828125 157.890625 C 36.867188 157.859375 36.894531 157.777344 36.90625 157.640625 C 36.90625 157.589844 36.910156 157.507812 36.921875 157.390625 L 36.921875 157.296875 L 37.359375 157.296875 L 37.359375 159.046875 L 36.921875 159.046875 L 36.921875 158.953125 C 36.898438 158.640625 36.859375 158.476562 36.796875 158.453125 C 36.671875 158.414062 36.472656 158.390625 36.203125 158.390625 L 34.75 158.390625 L 34.75 160.90625 C 34.75 161.230469 34.773438 161.476562 34.828125 161.640625 C 34.878906 161.765625 35.15625 161.828125 35.65625 161.828125 L 36.5 161.828125 L 37.265625 161.796875 C 37.429688 161.796875 37.546875 161.773438 37.609375 161.71875 C 37.679688 161.667969 37.722656 161.570312 37.734375 161.421875 L 37.75 160.9375 L 37.75 160.84375 L 38.359375 160.84375 Z M 44.5625 162.296875 L 38.859375 162.296875 L 38.859375 161.96875 L 38.953125 161.953125 L 39.3125 161.9375 C 39.519531 161.917969 39.648438 161.882812 39.703125 161.828125 C 39.765625 161.777344 39.800781 161.648438 39.8125 161.4375 L 39.84375 160.90625 L 39.84375 155.734375 L 39.8125 155.203125 C 39.800781 155.007812 39.765625 154.882812 39.703125 154.828125 C 39.648438 154.765625 39.519531 154.726562 39.3125 154.703125 L 38.953125 154.6875 L 38.859375 154.671875 L 38.859375 154.34375 L 41.96875 154.34375 L 41.96875 154.671875 L 41.875 154.6875 L 41.5 154.703125 C 41.300781 154.726562 41.171875 154.765625 41.109375 154.828125 C 41.054688 154.882812 41.023438 155.007812 41.015625 155.203125 L 40.984375 155.734375 L 40.984375 160.90625 C 40.984375 161.386719 41.015625 161.664062 41.078125 161.734375 C 41.148438 161.796875 41.425781 161.828125 41.90625 161.828125 L 42.71875 161.828125 C 43.195312 161.828125 43.539062 161.796875 43.75 161.734375 C 43.882812 161.695312 43.957031 161.570312 43.96875 161.359375 L 43.984375 160.8125 L 43.984375 160.703125 L 44.5625 160.703125 Z M 17.3125 173.296875 L 11.609375 173.296875 L 11.609375 172.96875 L 11.703125 172.953125 L 12.0625 172.9375 C 12.269531 172.917969 12.398438 172.882812 12.453125 172.828125 C 12.515625 172.777344 12.550781 172.648438 12.5625 172.4375 L 12.59375 171.90625 L 12.59375 166.734375 L 12.5625 166.203125 C 12.550781 166.007812 12.515625 165.882812 12.453125 165.828125 C 12.398438 165.765625 12.269531 165.726562 12.0625 165.703125 L 11.703125 165.6875 L 11.609375 165.671875 L 11.609375 165.34375 L 14.71875 165.34375 L 14.71875 165.671875 L 14.625 165.6875 L 14.25 165.703125 C 14.050781 165.726562 13.921875 165.765625 13.859375 165.828125 C 13.804688 165.882812 13.773438 166.007812 13.765625 166.203125 L 13.734375 166.734375 L 13.734375 171.90625 C 13.734375 172.386719 13.765625 172.664062 13.828125 172.734375 C 13.898438 172.796875 14.175781 172.828125 14.65625 172.828125 L 15.46875 172.828125 C 15.945312 172.828125 16.289062 172.796875 16.5 172.734375 C 16.632812 172.695312 16.707031 172.570312 16.71875 172.359375 L 16.734375 171.8125 L 16.734375 171.703125 L 17.3125 171.703125 Z M 23.4375 173.296875 L 17.734375 173.296875 L 17.734375 172.96875 L 17.828125 172.953125 L 18.1875 172.9375 C 18.394531 172.917969 18.523438 172.882812 18.578125 172.828125 C 18.640625 172.777344 18.675781 172.648438 18.6875 172.4375 L 18.71875 171.90625 L 18.71875 166.734375 L 18.6875 166.203125 C 18.675781 166.007812 18.640625 165.882812 18.578125 165.828125 C 18.523438 165.765625 18.394531 165.726562 18.1875 165.703125 L 17.828125 165.6875 L 17.734375 165.671875 L 17.734375 165.34375 L 20.84375 165.34375 L 20.84375 165.671875 L 20.75 165.6875 L 20.375 165.703125 C 20.175781 165.726562 20.046875 165.765625 19.984375 165.828125 C 19.929688 165.882812 19.898438 166.007812 19.890625 166.203125 L 19.859375 166.734375 L 19.859375 171.90625 C 19.859375 172.386719 19.890625 172.664062 19.953125 172.734375 C 20.023438 172.796875 20.300781 172.828125 20.78125 172.828125 L 21.59375 172.828125 C 22.070312 172.828125 22.414062 172.796875 22.625 172.734375 C 22.757812 172.695312 22.832031 172.570312 22.84375 172.359375 L 22.859375 171.8125 L 22.859375 171.703125 L 23.4375 171.703125 Z M 23.4375 173.296875 "/>
</svg>
