<?xml version="1.0" encoding="UTF-8"?>
<svg xmlns="http://www.w3.org/2000/svg" xmlns:xlink="http://www.w3.org/1999/xlink" width="150pt" height="150pt" viewBox="0 0 150 150" version="1.1">
<g id="surface2">
<rect x="0" y="0" width="150" height="150" style="fill:rgb(64.705882%,74.901961%,86.666667%);fill-opacity:1;stroke:none;"/>
<path style=" stroke:none;fill-rule:evenodd;fill:rgb(53.333333%,53.333333%,53.333333%);fill-opacity:1;" d="M 0 149 L 49.667969 149 L 49.667969 99.332031 L 0 99.332031 Z M 0 149 "/>
<path style="fill:none;stroke-width:1;stroke-linecap:round;stroke-linejoin:round;stroke:rgb(0%,0%,0%);stroke-opacity:1;stroke-miterlimit:10;" d="M 0 149 L 49.667969 149 L 49.667969 99.332031 L 0 99.332031 L 0 149 "/>
<path style=" stroke:none;fill-rule:evenodd;fill:rgb(53.333333%,53.333333%,53.333333%);fill-opacity:1;" d="M 49.667969 149 L 99.332031 149 L 99.332031 99.332031 L 49.667969 99.332031 Z M 49.667969 149 "/>
<path style="fill:none;stroke-width:1;stroke-linecap:round;stroke-linejoin:round;stroke:rgb(0%,0%,0%);stroke-opacity:1;stroke-miterlimit:10;" d="M 49.667969 149 L 99.332031 149 L 99.332031 99.332031 L 49.667969 99.332031 L 49.667969 149 "/>
<path style=" stroke:none;fill-rule:evenodd;fill:rgb(53.333333%,53.333333%,53.333333%);fill-opacity:1;" d="M 99.332031 149 L 149 149 L 149 99.332031 L 99.332031 99.332031 Z M 99.332031 149 "/>
<path style="fill:none;stroke-width:1;stroke-linecap:round;stroke-linejoin:round;stroke:rgb(0%,0%,0%);stroke-opacity:1;stroke-miterlimit:10;" d="M 99.332031 149 L 149 149 L 149 99.332031 L 99.332031 99.332031 L 99.332031 149 "/>
<path style=" stroke:none;fill-rule:evenodd;fill:rgb(53.333333%,53.333333%,53.333333%);fill-opacity:1;" d="M 0 99.332031 L 49.667969 99.332031 L 49.667969 49.667969 L 0 49.667969 Z M 0 99.332031 "/>
<path style="fill:none;stroke-width:1;stroke-linecap:round;stroke-linejoin:round;stroke:rgb(0%,0%,0%);stroke-opacity:1;stroke-miterlimit:10;" d="M 0 99.332031 L 49.667969 99.332031 L 49.667969 49.667969 L 0 49.667969 L 0 99.332031 "/>
<path style=" stroke:none;fill-rule:evenodd;fill:rgb(53.333333%,53.333333%,53.333333%);fill-opacity:1;" d="M 49.667969 99.332031 L 99.332031 99.332031 L 99.332031 49.667969 L 49.667969 49.667969 Z M 49.667969 99.332031 "/>
<path style="fill:none;stroke-width:1;stroke-linecap:round;stroke-linejoin:round;stroke:rgb(0%,0%,0%);stroke-opacity:1;stroke-miterlimit:10;" d="M 49.667969 99.332031 L 99.332031 99.332031 L 99.332031 49.667969 L 49.667969 49.667969 L 49.667969 99.332031 "/>
<path style=" stroke:none;fill-rule:evenodd;fill:rgb(53.333333%,53.333333%,53.333333%);fill-opacity:1;" d="M 99.332031 99.332031 L 149 99.332031 L 149 49.667969 L 99.332031 49.667969 Z M 99.332031 99.332031 "/>
<path style="fill:none;stroke-width:1;stroke-linecap:round;stroke-linejoin:round;stroke:rgb(0%,0%,0%);stroke-opacity:1;stroke-miterlimit:10;" d="M 99.332031 99.332031 L 149 99.332031 L 149 49.667969 L 99.332031 49.667969 L 99.332031 99.332031 "/>
<path style=" stroke:none;fill-rule:evenodd;fill:rgb(53.333333%,53.333333%,53.333333%);fill-opacity:1;" d="M 0 49.667969 L 49.667969 49.667969 L 49.667969 0 L 0 0 Z M 0 49.667969 "/>
<path style="fill:none;stroke-width:1;stroke-linecap:round;stroke-linejoin:round;stroke:rgb(0%,0%,0%);stroke-opacity:1;stroke-miterlimit:10;" d="M 0 49.667969 L 49.667969 49.667969 L 49.667969 0 L 0 0 L 0 49.667969 "/>
<path style=" stroke:none;fill-rule:evenodd;fill:rgb(53.333333%,53.333333%,53.333333%);fill-opacity:1;" d="M 49.667969 49.667969 L 99.332031 49.667969 L 99.332031 0 L 49.667969 0 Z M 49.667969 49.667969 "/>
<path style="fill:none;stroke-width:1;stroke-linecap:round;stroke-linejoin:round;stroke:rgb(0%,0%,0%);stroke-opacity:1;stroke-miterlimit:10;" d="M 49.667969 49.667969 L 99.332031 49.667969 L 99.332031 0 L 49.667969 0 L 49.667969 49.667969 "/>
<path style=" stroke:none;fill-rule:evenodd;fill:rgb(53.333333%,53.333333%,53.333333%);fill-opacity:1;" d="M 99.332031 49.667969 L 149 49.667969 L 149 0 L 99.332031 0 Z M 99.332031 49.667969 "/>
<path style="fill:none;stroke-width:1;stroke-linecap:round;stroke-linejoin:round;stroke:rgb(0%,0%,0%);stroke-opacity:1;stroke-miterlimit:10;" d="M 99.332031 49.667969 L 149 49.667969 L 149 0 L 99.332031 0 L 99.332031 49.667969 "/>
<path style=" stroke:none;fill-rule:evenodd;fill:rgb(100%,0%,0%);fill-opacity:1;" d="M 129.167969 24.832031 C 129.167969 31.5 119.167969 31.5 119.167969 24.832031 C 119.167969 18.167969 129.167969 18.167969 129.167969 24.832031 "/>
<path style=" stroke:none;fill-rule:evenodd;fill:rgb(0%,0%,0%);fill-opacity:1;" d="M 129.261719 12.207031 L 129.261719 11.878906 L 132.386719 11.878906 L 132.386719 12.207031 L 132.292969 12.222656 L 131.917969 12.238281 C 131.75 12.261719 131.636719 12.285156 131.574219 12.316406 C 131.519531 12.339844 131.484375 12.394531 131.464844 12.488281 C 131.410156 12.71875 131.386719 12.980469 131.386719 13.269531 L 131.386719 16.675781 C 131.386719 17.5 131.40625 18.035156 131.449219 18.285156 C 131.5 18.535156 131.609375 18.777344 131.777344 19.003906 C 132.121094 19.453125 132.640625 19.675781 133.339844 19.675781 C 133.984375 19.675781 134.5 19.480469 134.886719 19.082031 C 135.105469 18.863281 135.246094 18.621094 135.308594 18.347656 C 135.378906 18.078125 135.417969 17.597656 135.417969 16.910156 L 135.417969 13.269531 L 135.386719 12.738281 C 135.375 12.542969 135.339844 12.417969 135.277344 12.363281 C 135.222656 12.300781 135.09375 12.261719 134.886719 12.238281 L 134.527344 12.222656 L 134.433594 12.207031 L 134.433594 11.878906 L 136.964844 11.878906 L 136.964844 12.207031 L 136.871094 12.222656 L 136.511719 12.238281 C 136.332031 12.261719 136.214844 12.285156 136.152344 12.316406 C 136.097656 12.339844 136.0625 12.394531 136.042969 12.488281 C 136 12.71875 135.980469 12.980469 135.980469 13.269531 L 135.980469 16.597656 C 135.980469 17.339844 135.9375 17.878906 135.855469 18.222656 C 135.769531 18.566406 135.605469 18.890625 135.355469 19.191406 C 134.894531 19.753906 134.171875 20.035156 133.183594 20.035156 C 132.328125 20.035156 131.652344 19.828125 131.152344 19.410156 C 130.828125 19.152344 130.59375 18.824219 130.449219 18.425781 C 130.3125 18.019531 130.246094 17.5 130.246094 16.863281 L 130.246094 13.269531 L 130.214844 12.738281 C 130.203125 12.542969 130.167969 12.417969 130.105469 12.363281 C 130.050781 12.300781 129.921875 12.261719 129.714844 12.238281 L 129.355469 12.222656 Z M 139.417969 16.332031 L 139.417969 18.441406 L 139.449219 18.972656 C 139.449219 19.191406 139.484375 19.328125 139.558594 19.378906 C 139.628906 19.433594 139.839844 19.46875 140.183594 19.488281 L 140.277344 19.503906 L 140.277344 19.832031 L 137.308594 19.832031 L 137.308594 19.503906 L 137.402344 19.488281 L 137.761719 19.472656 C 137.96875 19.453125 138.097656 19.417969 138.152344 19.363281 C 138.214844 19.3125 138.25 19.183594 138.261719 18.972656 L 138.292969 18.441406 L 138.292969 13.269531 L 138.261719 12.738281 C 138.25 12.542969 138.214844 12.417969 138.152344 12.363281 C 138.097656 12.300781 137.96875 12.261719 137.761719 12.238281 L 137.402344 12.222656 L 137.308594 12.207031 L 137.308594 11.878906 L 139.746094 11.878906 L 140.621094 11.847656 C 141.421875 11.847656 142.03125 12.019531 142.449219 12.363281 C 142.863281 12.699219 143.074219 13.191406 143.074219 13.847656 C 143.074219 14.390625 142.933594 14.855469 142.652344 15.238281 C 142.371094 15.625 141.964844 15.90625 141.433594 16.082031 L 142.996094 18.425781 L 143.496094 19.128906 C 143.597656 19.277344 143.6875 19.371094 143.761719 19.410156 C 143.832031 19.453125 143.9375 19.472656 144.074219 19.472656 C 144.125 19.472656 144.246094 19.480469 144.433594 19.488281 L 144.542969 19.503906 L 144.542969 19.832031 L 142.511719 19.832031 L 140.339844 16.332031 Z M 139.433594 15.972656 L 139.824219 15.972656 C 140.292969 15.972656 140.660156 15.921875 140.933594 15.816406 C 141.203125 15.703125 141.425781 15.511719 141.605469 15.238281 C 141.824219 14.917969 141.933594 14.496094 141.933594 13.972656 C 141.933594 13.441406 141.828125 13.03125 141.621094 12.738281 C 141.484375 12.550781 141.3125 12.421875 141.105469 12.347656 C 140.894531 12.277344 140.589844 12.238281 140.183594 12.238281 L 139.433594 12.238281 Z M 139.433594 15.972656 "/>
<path style=" stroke:none;fill-rule:evenodd;fill:rgb(100%,0%,0%);fill-opacity:1;" d="M 79.5 24.832031 C 79.5 31.5 69.5 31.5 69.5 24.832031 C 69.5 18.167969 79.5 18.167969 79.5 24.832031 "/>
<path style=" stroke:none;fill-rule:evenodd;fill:rgb(0%,0%,0%);fill-opacity:1;" d="M 66.8125 10.207031 L 66.8125 9.878906 L 69.9375 9.878906 L 69.9375 10.207031 L 69.84375 10.222656 L 69.46875 10.238281 C 69.300781 10.261719 69.1875 10.285156 69.125 10.316406 C 69.070312 10.339844 69.035156 10.394531 69.015625 10.488281 C 68.960938 10.71875 68.9375 10.980469 68.9375 11.269531 L 68.9375 14.675781 C 68.9375 15.5 68.957031 16.035156 69 16.285156 C 69.050781 16.535156 69.160156 16.777344 69.328125 17.003906 C 69.671875 17.453125 70.191406 17.675781 70.890625 17.675781 C 71.535156 17.675781 72.050781 17.480469 72.4375 17.082031 C 72.65625 16.863281 72.796875 16.621094 72.859375 16.347656 C 72.929688 16.078125 72.96875 15.597656 72.96875 14.910156 L 72.96875 11.269531 L 72.9375 10.738281 C 72.925781 10.542969 72.890625 10.417969 72.828125 10.363281 C 72.773438 10.300781 72.644531 10.261719 72.4375 10.238281 L 72.078125 10.222656 L 71.984375 10.207031 L 71.984375 9.878906 L 74.515625 9.878906 L 74.515625 10.207031 L 74.421875 10.222656 L 74.0625 10.238281 C 73.882812 10.261719 73.765625 10.285156 73.703125 10.316406 C 73.648438 10.339844 73.613281 10.394531 73.59375 10.488281 C 73.550781 10.71875 73.53125 10.980469 73.53125 11.269531 L 73.53125 14.597656 C 73.53125 15.339844 73.488281 15.878906 73.40625 16.222656 C 73.320312 16.566406 73.15625 16.890625 72.90625 17.191406 C 72.445312 17.753906 71.722656 18.035156 70.734375 18.035156 C 69.878906 18.035156 69.203125 17.828125 68.703125 17.410156 C 68.378906 17.152344 68.144531 16.824219 68 16.425781 C 67.863281 16.019531 67.796875 15.5 67.796875 14.863281 L 67.796875 11.269531 L 67.765625 10.738281 C 67.753906 10.542969 67.71875 10.417969 67.65625 10.363281 C 67.601562 10.300781 67.472656 10.261719 67.265625 10.238281 L 66.90625 10.222656 Z M 81.640625 17.410156 C 80.921875 17.828125 80.082031 18.035156 79.125 18.035156 C 77.90625 18.035156 76.941406 17.660156 76.234375 16.910156 C 75.535156 16.160156 75.1875 15.140625 75.1875 13.847656 C 75.1875 12.378906 75.613281 11.265625 76.46875 10.503906 C 77.09375 9.964844 77.953125 9.691406 79.046875 9.691406 C 79.671875 9.691406 80.421875 9.808594 81.296875 10.035156 L 81.5 10.082031 L 81.5 11.597656 L 80.84375 11.597656 L 80.84375 11.488281 C 80.832031 11.386719 80.828125 11.28125 80.828125 11.175781 C 80.828125 10.875 80.75 10.660156 80.59375 10.535156 C 80.425781 10.390625 80.191406 10.277344 79.890625 10.191406 C 79.585938 10.097656 79.296875 10.050781 79.015625 10.050781 C 78.203125 10.050781 77.554688 10.394531 77.078125 11.082031 C 76.597656 11.769531 76.359375 12.6875 76.359375 13.832031 C 76.359375 14.988281 76.640625 15.890625 77.203125 16.535156 C 77.765625 17.183594 78.546875 17.503906 79.546875 17.503906 C 80.203125 17.503906 80.898438 17.300781 81.640625 16.894531 Z M 81.640625 17.410156 "/>
<path style=" stroke:none;fill-rule:evenodd;fill:rgb(100%,0%,0%);fill-opacity:1;" d="M 29.832031 24.832031 C 29.832031 31.5 19.832031 31.5 19.832031 24.832031 C 19.832031 18.167969 29.832031 18.167969 29.832031 24.832031 "/>
<path style=" stroke:none;fill-rule:evenodd;fill:rgb(0%,0%,0%);fill-opacity:1;" d="M 5.894531 12.207031 L 5.894531 11.878906 L 9.019531 11.878906 L 9.019531 12.207031 L 8.925781 12.222656 L 8.550781 12.238281 C 8.382812 12.261719 8.269531 12.285156 8.207031 12.316406 C 8.152344 12.339844 8.117188 12.394531 8.097656 12.488281 C 8.042969 12.71875 8.019531 12.980469 8.019531 13.269531 L 8.019531 16.675781 C 8.019531 17.5 8.039062 18.035156 8.082031 18.285156 C 8.132812 18.535156 8.242188 18.777344 8.410156 19.003906 C 8.753906 19.453125 9.273438 19.675781 9.972656 19.675781 C 10.617188 19.675781 11.132812 19.480469 11.519531 19.082031 C 11.738281 18.863281 11.878906 18.621094 11.941406 18.347656 C 12.011719 18.078125 12.050781 17.597656 12.050781 16.910156 L 12.050781 13.269531 L 12.019531 12.738281 C 12.007812 12.542969 11.972656 12.417969 11.910156 12.363281 C 11.855469 12.300781 11.726562 12.261719 11.519531 12.238281 L 11.160156 12.222656 L 11.066406 12.207031 L 11.066406 11.878906 L 13.597656 11.878906 L 13.597656 12.207031 L 13.503906 12.222656 L 13.144531 12.238281 C 12.964844 12.261719 12.847656 12.285156 12.785156 12.316406 C 12.730469 12.339844 12.695312 12.394531 12.675781 12.488281 C 12.632812 12.71875 12.613281 12.980469 12.613281 13.269531 L 12.613281 16.597656 C 12.613281 17.339844 12.570312 17.878906 12.488281 18.222656 C 12.402344 18.566406 12.238281 18.890625 11.988281 19.191406 C 11.527344 19.753906 10.804688 20.035156 9.816406 20.035156 C 8.960938 20.035156 8.285156 19.828125 7.785156 19.410156 C 7.460938 19.152344 7.226562 18.824219 7.082031 18.425781 C 6.945312 18.019531 6.878906 17.5 6.878906 16.863281 L 6.878906 13.269531 L 6.847656 12.738281 C 6.835938 12.542969 6.800781 12.417969 6.738281 12.363281 C 6.683594 12.300781 6.554688 12.261719 6.347656 12.238281 L 5.988281 12.222656 Z M 19.644531 19.832031 L 13.941406 19.832031 L 13.941406 19.503906 L 14.035156 19.488281 L 14.394531 19.472656 C 14.601562 19.453125 14.730469 19.417969 14.785156 19.363281 C 14.847656 19.3125 14.882812 19.183594 14.894531 18.972656 L 14.925781 18.441406 L 14.925781 13.269531 L 14.894531 12.738281 C 14.882812 12.542969 14.847656 12.417969 14.785156 12.363281 C 14.730469 12.300781 14.601562 12.261719 14.394531 12.238281 L 14.035156 12.222656 L 13.941406 12.207031 L 13.941406 11.878906 L 17.050781 11.878906 L 17.050781 12.207031 L 16.957031 12.222656 L 16.582031 12.238281 C 16.382812 12.261719 16.253906 12.300781 16.191406 12.363281 C 16.136719 12.417969 16.105469 12.542969 16.097656 12.738281 L 16.066406 13.269531 L 16.066406 18.441406 C 16.066406 18.921875 16.097656 19.199219 16.160156 19.269531 C 16.230469 19.332031 16.507812 19.363281 16.988281 19.363281 L 17.800781 19.363281 C 18.277344 19.363281 18.621094 19.332031 18.832031 19.269531 C 18.964844 19.230469 19.039062 19.105469 19.050781 18.894531 L 19.066406 18.347656 L 19.066406 18.238281 L 19.644531 18.238281 Z M 19.644531 19.832031 "/>
<path style=" stroke:none;fill-rule:evenodd;fill:rgb(100%,0%,0%);fill-opacity:1;" d="M 129.167969 74.5 C 129.167969 81.167969 119.167969 81.167969 119.167969 74.5 C 119.167969 67.832031 129.167969 67.832031 129.167969 74.5 "/>
<path style=" stroke:none;fill-rule:evenodd;fill:rgb(0%,0%,0%);fill-opacity:1;" d="M 138.183594 79.078125 C 137.464844 79.496094 136.625 79.703125 135.667969 79.703125 C 134.449219 79.703125 133.484375 79.328125 132.777344 78.578125 C 132.078125 77.828125 131.730469 76.808594 131.730469 75.515625 C 131.730469 74.046875 132.15625 72.933594 133.011719 72.171875 C 133.636719 71.632812 134.496094 71.359375 135.589844 71.359375 C 136.214844 71.359375 136.964844 71.476562 137.839844 71.703125 L 138.042969 71.75 L 138.042969 73.265625 L 137.386719 73.265625 L 137.386719 73.15625 C 137.375 73.054688 137.371094 72.949219 137.371094 72.84375 C 137.371094 72.542969 137.292969 72.328125 137.136719 72.203125 C 136.96875 72.058594 136.734375 71.945312 136.433594 71.859375 C 136.128906 71.765625 135.839844 71.71875 135.558594 71.71875 C 134.746094 71.71875 134.097656 72.0625 133.621094 72.75 C 133.140625 73.4375 132.902344 74.355469 132.902344 75.5 C 132.902344 76.65625 133.183594 77.558594 133.746094 78.203125 C 134.308594 78.851562 135.089844 79.171875 136.089844 79.171875 C 136.746094 79.171875 137.441406 78.96875 138.183594 78.5625 Z M 141.167969 76 L 141.167969 78.109375 L 141.199219 78.640625 C 141.199219 78.859375 141.234375 78.996094 141.308594 79.046875 C 141.378906 79.101562 141.589844 79.136719 141.933594 79.15625 L 142.027344 79.171875 L 142.027344 79.5 L 139.058594 79.5 L 139.058594 79.171875 L 139.152344 79.15625 L 139.511719 79.140625 C 139.71875 79.121094 139.847656 79.085938 139.902344 79.03125 C 139.964844 78.980469 140 78.851562 140.011719 78.640625 L 140.042969 78.109375 L 140.042969 72.9375 L 140.011719 72.40625 C 140 72.210938 139.964844 72.085938 139.902344 72.03125 C 139.847656 71.96875 139.71875 71.929688 139.511719 71.90625 L 139.152344 71.890625 L 139.058594 71.875 L 139.058594 71.546875 L 141.496094 71.546875 L 142.371094 71.515625 C 143.171875 71.515625 143.78125 71.6875 144.199219 72.03125 C 144.613281 72.367188 144.824219 72.859375 144.824219 73.515625 C 144.824219 74.058594 144.683594 74.523438 144.402344 74.90625 C 144.121094 75.292969 143.714844 75.574219 143.183594 75.75 L 144.746094 78.09375 L 145.246094 78.796875 C 145.347656 78.945312 145.4375 79.039062 145.511719 79.078125 C 145.582031 79.121094 145.6875 79.140625 145.824219 79.140625 C 145.875 79.140625 145.996094 79.148438 146.183594 79.15625 L 146.292969 79.171875 L 146.292969 79.5 L 144.261719 79.5 L 142.089844 76 Z M 141.183594 75.640625 L 141.574219 75.640625 C 142.042969 75.640625 142.410156 75.589844 142.683594 75.484375 C 142.953125 75.371094 143.175781 75.179688 143.355469 74.90625 C 143.574219 74.585938 143.683594 74.164062 143.683594 73.640625 C 143.683594 73.109375 143.578125 72.699219 143.371094 72.40625 C 143.234375 72.21875 143.0625 72.089844 142.855469 72.015625 C 142.644531 71.945312 142.339844 71.90625 141.933594 71.90625 L 141.183594 71.90625 Z M 141.183594 75.640625 "/>
<path style=" stroke:none;fill-rule:evenodd;fill:rgb(100%,0%,0%);fill-opacity:1;" d="M 79.5 74.5 C 79.5 81.167969 69.5 81.167969 69.5 74.5 C 69.5 67.832031 79.5 67.832031 79.5 74.5 "/>
<path style=" stroke:none;fill-rule:evenodd;fill:rgb(0%,0%,0%);fill-opacity:1;" d="M 39.59375 67.046875 L 39.125 68.109375 C 39.0625 68.257812 39.023438 68.355469 39.015625 68.40625 L 38.890625 68.78125 C 38.867188 68.84375 38.859375 68.902344 38.859375 68.953125 C 38.859375 69.089844 39 69.15625 39.28125 69.15625 L 39.5625 69.171875 L 39.640625 69.171875 L 39.640625 69.5 L 37.578125 69.5 L 37.578125 69.171875 L 37.6875 69.15625 L 37.953125 69.15625 C 38.066406 69.148438 38.15625 69.109375 38.21875 69.046875 C 38.289062 68.976562 38.363281 68.851562 38.4375 68.671875 L 38.6875 68.109375 L 41.484375 61.453125 L 41.859375 61.453125 L 44.65625 68.140625 L 44.921875 68.703125 C 45.023438 68.914062 45.109375 69.039062 45.171875 69.078125 C 45.242188 69.121094 45.398438 69.148438 45.640625 69.15625 L 45.765625 69.171875 L 45.765625 69.5 L 42.8125 69.5 L 42.8125 69.171875 L 42.90625 69.171875 L 43.234375 69.15625 C 43.515625 69.15625 43.65625 69.089844 43.65625 68.953125 C 43.65625 68.746094 43.582031 68.464844 43.4375 68.109375 L 43 67.046875 Z M 39.765625 66.609375 L 42.796875 66.609375 L 41.296875 63 Z M 45.859375 61.875 L 45.859375 61.546875 L 48.984375 61.546875 L 48.984375 61.875 L 48.890625 61.890625 L 48.515625 61.90625 C 48.347656 61.929688 48.234375 61.953125 48.171875 61.984375 C 48.117188 62.007812 48.082031 62.0625 48.0625 62.15625 C 48.007812 62.386719 47.984375 62.648438 47.984375 62.9375 L 47.984375 66.34375 C 47.984375 67.167969 48.003906 67.703125 48.046875 67.953125 C 48.097656 68.203125 48.207031 68.445312 48.375 68.671875 C 48.71875 69.121094 49.238281 69.34375 49.9375 69.34375 C 50.582031 69.34375 51.097656 69.148438 51.484375 68.75 C 51.703125 68.53125 51.84375 68.289062 51.90625 68.015625 C 51.976562 67.746094 52.015625 67.265625 52.015625 66.578125 L 52.015625 62.9375 L 51.984375 62.40625 C 51.972656 62.210938 51.9375 62.085938 51.875 62.03125 C 51.820312 61.96875 51.691406 61.929688 51.484375 61.90625 L 51.125 61.890625 L 51.03125 61.875 L 51.03125 61.546875 L 53.5625 61.546875 L 53.5625 61.875 L 53.46875 61.890625 L 53.109375 61.90625 C 52.929688 61.929688 52.8125 61.953125 52.75 61.984375 C 52.695312 62.007812 52.660156 62.0625 52.640625 62.15625 C 52.597656 62.386719 52.578125 62.648438 52.578125 62.9375 L 52.578125 66.265625 C 52.578125 67.007812 52.535156 67.546875 52.453125 67.890625 C 52.367188 68.234375 52.203125 68.558594 51.953125 68.859375 C 51.492188 69.421875 50.769531 69.703125 49.78125 69.703125 C 48.925781 69.703125 48.25 69.496094 47.75 69.078125 C 47.425781 68.820312 47.191406 68.492188 47.046875 68.09375 C 46.910156 67.6875 46.84375 67.167969 46.84375 66.53125 L 46.84375 62.9375 L 46.8125 62.40625 C 46.800781 62.210938 46.765625 62.085938 46.703125 62.03125 C 46.648438 61.96875 46.519531 61.929688 46.3125 61.90625 L 45.953125 61.890625 Z M 56.75 61.984375 L 55.484375 61.984375 L 54.921875 62 C 54.734375 62 54.613281 62.027344 54.5625 62.078125 C 54.507812 62.132812 54.484375 62.246094 54.484375 62.421875 C 54.484375 62.609375 54.476562 62.773438 54.46875 62.90625 L 54.46875 63 L 53.90625 63 L 53.90625 61.546875 L 60.734375 61.546875 L 60.734375 63 L 60.171875 63 L 60.15625 62.90625 C 60.144531 62.773438 60.140625 62.609375 60.140625 62.421875 C 60.140625 62.246094 60.113281 62.132812 60.0625 62.078125 C 60.007812 62.027344 59.890625 62 59.703125 62 L 59.15625 61.984375 L 57.875 61.984375 L 57.875 68.109375 L 57.90625 68.640625 C 57.925781 68.851562 57.960938 68.980469 58.015625 69.03125 C 58.066406 69.085938 58.195312 69.121094 58.40625 69.140625 L 58.78125 69.15625 L 59 69.171875 L 59 69.5 L 55.625 69.5 L 55.625 69.171875 L 55.859375 69.15625 L 56.21875 69.140625 C 56.425781 69.121094 56.554688 69.085938 56.609375 69.03125 C 56.671875 68.980469 56.707031 68.851562 56.71875 68.640625 L 56.75 68.109375 Z M 65.171875 69.703125 C 64.179688 69.703125 63.351562 69.386719 62.6875 68.75 C 61.90625 68.011719 61.515625 66.9375 61.515625 65.53125 C 61.515625 64.242188 61.84375 63.226562 62.5 62.484375 C 63.164062 61.734375 64.078125 61.359375 65.234375 61.359375 C 66.378906 61.359375 67.28125 61.730469 67.9375 62.46875 C 68.601562 63.210938 68.9375 64.226562 68.9375 65.515625 C 68.9375 66.820312 68.601562 67.84375 67.9375 68.59375 C 67.269531 69.335938 66.347656 69.703125 65.171875 69.703125 Z M 65.1875 69.328125 C 66 69.328125 66.628906 68.996094 67.078125 68.328125 C 67.523438 67.664062 67.75 66.71875 67.75 65.5 C 67.75 64.324219 67.523438 63.402344 67.078125 62.734375 C 66.628906 62.058594 66.015625 61.71875 65.234375 61.71875 C 64.441406 61.71875 63.820312 62.058594 63.375 62.734375 C 62.925781 63.402344 62.703125 64.328125 62.703125 65.515625 C 62.703125 66.703125 62.921875 67.636719 63.359375 68.3125 C 63.804688 68.992188 64.414062 69.328125 65.1875 69.328125 Z M 65.1875 69.328125 "/>
<path style=" stroke:none;fill-rule:evenodd;fill:rgb(100%,0%,0%);fill-opacity:1;" d="M 29.832031 74.5 C 29.832031 81.167969 19.832031 81.167969 19.832031 74.5 C 19.832031 67.832031 29.832031 67.832031 29.832031 74.5 "/>
<path style=" stroke:none;fill-rule:evenodd;fill:rgb(0%,0%,0%);fill-opacity:1;" d="M 11.066406 79.078125 C 10.347656 79.496094 9.507812 79.703125 8.550781 79.703125 C 7.332031 79.703125 6.367188 79.328125 5.660156 78.578125 C 4.960938 77.828125 4.613281 76.808594 4.613281 75.515625 C 4.613281 74.046875 5.039062 72.933594 5.894531 72.171875 C 6.519531 71.632812 7.378906 71.359375 8.472656 71.359375 C 9.097656 71.359375 9.847656 71.476562 10.722656 71.703125 L 10.925781 71.75 L 10.925781 73.265625 L 10.269531 73.265625 L 10.269531 73.15625 C 10.257812 73.054688 10.253906 72.949219 10.253906 72.84375 C 10.253906 72.542969 10.175781 72.328125 10.019531 72.203125 C 9.851562 72.058594 9.617188 71.945312 9.316406 71.859375 C 9.011719 71.765625 8.722656 71.71875 8.441406 71.71875 C 7.628906 71.71875 6.980469 72.0625 6.503906 72.75 C 6.023438 73.4375 5.785156 74.355469 5.785156 75.5 C 5.785156 76.65625 6.066406 77.558594 6.628906 78.203125 C 7.191406 78.851562 7.972656 79.171875 8.972656 79.171875 C 9.628906 79.171875 10.324219 78.96875 11.066406 78.5625 Z M 17.644531 79.5 L 11.941406 79.5 L 11.941406 79.171875 L 12.035156 79.15625 L 12.394531 79.140625 C 12.601562 79.121094 12.730469 79.085938 12.785156 79.03125 C 12.847656 78.980469 12.882812 78.851562 12.894531 78.640625 L 12.925781 78.109375 L 12.925781 72.9375 L 12.894531 72.40625 C 12.882812 72.210938 12.847656 72.085938 12.785156 72.03125 C 12.730469 71.96875 12.601562 71.929688 12.394531 71.90625 L 12.035156 71.890625 L 11.941406 71.875 L 11.941406 71.546875 L 15.050781 71.546875 L 15.050781 71.875 L 14.957031 71.890625 L 14.582031 71.90625 C 14.382812 71.929688 14.253906 71.96875 14.191406 72.03125 C 14.136719 72.085938 14.105469 72.210938 14.097656 72.40625 L 14.066406 72.9375 L 14.066406 78.109375 C 14.066406 78.589844 14.097656 78.867188 14.160156 78.9375 C 14.230469 79 14.507812 79.03125 14.988281 79.03125 L 15.800781 79.03125 C 16.277344 79.03125 16.621094 79 16.832031 78.9375 C 16.964844 78.898438 17.039062 78.773438 17.050781 78.5625 L 17.066406 78.015625 L 17.066406 77.90625 L 17.644531 77.90625 Z M 17.644531 79.5 "/>
<path style=" stroke:none;fill-rule:evenodd;fill:rgb(100%,0%,0%);fill-opacity:1;" d="M 129.167969 124.167969 C 129.167969 130.832031 119.167969 130.832031 119.167969 124.167969 C 119.167969 117.5 129.167969 117.5 129.167969 124.167969 "/>
<path style=" stroke:none;fill-rule:evenodd;fill:rgb(0%,0%,0%);fill-opacity:1;" d="M 135.105469 137.152344 L 129.402344 137.152344 L 129.402344 136.824219 L 129.496094 136.808594 L 129.855469 136.792969 C 130.0625 136.773438 130.191406 136.738281 130.246094 136.683594 C 130.308594 136.632812 130.34375 136.503906 130.355469 136.292969 L 130.386719 135.761719 L 130.386719 130.589844 L 130.355469 130.058594 C 130.34375 129.863281 130.308594 129.738281 130.246094 129.683594 C 130.191406 129.621094 130.0625 129.582031 129.855469 129.558594 L 129.496094 129.542969 L 129.402344 129.527344 L 129.402344 129.199219 L 132.511719 129.199219 L 132.511719 129.527344 L 132.417969 129.542969 L 132.042969 129.558594 C 131.84375 129.582031 131.714844 129.621094 131.652344 129.683594 C 131.597656 129.738281 131.566406 129.863281 131.558594 130.058594 L 131.527344 130.589844 L 131.527344 135.761719 C 131.527344 136.242188 131.558594 136.519531 131.621094 136.589844 C 131.691406 136.652344 131.96875 136.683594 132.449219 136.683594 L 133.261719 136.683594 C 133.738281 136.683594 134.082031 136.652344 134.292969 136.589844 C 134.425781 136.550781 134.5 136.425781 134.511719 136.214844 L 134.527344 135.667969 L 134.527344 135.558594 L 135.105469 135.558594 Z M 137.636719 133.652344 L 137.636719 135.761719 L 137.667969 136.292969 C 137.667969 136.511719 137.703125 136.648438 137.777344 136.699219 C 137.847656 136.753906 138.058594 136.789062 138.402344 136.808594 L 138.496094 136.824219 L 138.496094 137.152344 L 135.527344 137.152344 L 135.527344 136.824219 L 135.621094 136.808594 L 135.980469 136.792969 C 136.1875 136.773438 136.316406 136.738281 136.371094 136.683594 C 136.433594 136.632812 136.46875 136.503906 136.480469 136.292969 L 136.511719 135.761719 L 136.511719 130.589844 L 136.480469 130.058594 C 136.46875 129.863281 136.433594 129.738281 136.371094 129.683594 C 136.316406 129.621094 136.1875 129.582031 135.980469 129.558594 L 135.621094 129.542969 L 135.527344 129.527344 L 135.527344 129.199219 L 137.964844 129.199219 L 138.839844 129.167969 C 139.640625 129.167969 140.25 129.339844 140.667969 129.683594 C 141.082031 130.019531 141.292969 130.511719 141.292969 131.167969 C 141.292969 131.710938 141.152344 132.175781 140.871094 132.558594 C 140.589844 132.945312 140.183594 133.226562 139.652344 133.402344 L 141.214844 135.746094 L 141.714844 136.449219 C 141.816406 136.597656 141.90625 136.691406 141.980469 136.730469 C 142.050781 136.773438 142.15625 136.792969 142.292969 136.792969 C 142.34375 136.792969 142.464844 136.800781 142.652344 136.808594 L 142.761719 136.824219 L 142.761719 137.152344 L 140.730469 137.152344 L 138.558594 133.652344 Z M 137.652344 133.292969 L 138.042969 133.292969 C 138.511719 133.292969 138.878906 133.242188 139.152344 133.136719 C 139.421875 133.023438 139.644531 132.832031 139.824219 132.558594 C 140.042969 132.238281 140.152344 131.816406 140.152344 131.292969 C 140.152344 130.761719 140.046875 130.351562 139.839844 130.058594 C 139.703125 129.871094 139.53125 129.742188 139.324219 129.667969 C 139.113281 129.597656 138.808594 129.558594 138.402344 129.558594 L 137.652344 129.558594 Z M 137.652344 133.292969 "/>
<path style=" stroke:none;fill-rule:evenodd;fill:rgb(100%,0%,0%);fill-opacity:1;" d="M 79.5 124.167969 C 79.5 130.832031 69.5 130.832031 69.5 124.167969 C 69.5 117.5 79.5 117.5 79.5 124.167969 "/>
<path style=" stroke:none;fill-rule:evenodd;fill:rgb(0%,0%,0%);fill-opacity:1;" d="M 73.546875 139.511719 L 67.84375 139.511719 L 67.84375 139.183594 L 67.9375 139.167969 L 68.296875 139.152344 C 68.503906 139.132812 68.632812 139.097656 68.6875 139.042969 C 68.75 138.992188 68.785156 138.863281 68.796875 138.652344 L 68.828125 138.121094 L 68.828125 132.949219 L 68.796875 132.417969 C 68.785156 132.222656 68.75 132.097656 68.6875 132.042969 C 68.632812 131.980469 68.503906 131.941406 68.296875 131.917969 L 67.9375 131.902344 L 67.84375 131.886719 L 67.84375 131.558594 L 70.953125 131.558594 L 70.953125 131.886719 L 70.859375 131.902344 L 70.484375 131.917969 C 70.285156 131.941406 70.15625 131.980469 70.09375 132.042969 C 70.039062 132.097656 70.007812 132.222656 70 132.417969 L 69.96875 132.949219 L 69.96875 138.121094 C 69.96875 138.601562 70 138.878906 70.0625 138.949219 C 70.132812 139.011719 70.410156 139.042969 70.890625 139.042969 L 71.703125 139.042969 C 72.179688 139.042969 72.523438 139.011719 72.734375 138.949219 C 72.867188 138.910156 72.941406 138.785156 72.953125 138.574219 L 72.96875 138.027344 L 72.96875 137.917969 L 73.546875 137.917969 Z M 80.75 139.089844 C 80.03125 139.507812 79.191406 139.714844 78.234375 139.714844 C 77.015625 139.714844 76.050781 139.339844 75.34375 138.589844 C 74.644531 137.839844 74.296875 136.820312 74.296875 135.527344 C 74.296875 134.058594 74.722656 132.945312 75.578125 132.183594 C 76.203125 131.644531 77.0625 131.371094 78.15625 131.371094 C 78.78125 131.371094 79.53125 131.488281 80.40625 131.714844 L 80.609375 131.761719 L 80.609375 133.277344 L 79.953125 133.277344 L 79.953125 133.167969 C 79.941406 133.066406 79.9375 132.960938 79.9375 132.855469 C 79.9375 132.554688 79.859375 132.339844 79.703125 132.214844 C 79.535156 132.070312 79.300781 131.957031 79 131.871094 C 78.695312 131.777344 78.40625 131.730469 78.125 131.730469 C 77.3125 131.730469 76.664062 132.074219 76.1875 132.761719 C 75.707031 133.449219 75.46875 134.367188 75.46875 135.511719 C 75.46875 136.667969 75.75 137.570312 76.3125 138.214844 C 76.875 138.863281 77.65625 139.183594 78.65625 139.183594 C 79.3125 139.183594 80.007812 138.980469 80.75 138.574219 Z M 80.75 139.089844 "/>
<path style=" stroke:none;fill-rule:evenodd;fill:rgb(100%,0%,0%);fill-opacity:1;" d="M 29.832031 124.167969 C 29.832031 130.832031 19.832031 130.832031 19.832031 124.167969 C 19.832031 117.5 29.832031 117.5 29.832031 124.167969 "/>
<path style=" stroke:none;fill-rule:evenodd;fill:rgb(0%,0%,0%);fill-opacity:1;" d="M 13.519531 136.121094 L 7.816406 136.121094 L 7.816406 135.792969 L 7.910156 135.777344 L 8.269531 135.761719 C 8.476562 135.742188 8.605469 135.707031 8.660156 135.652344 C 8.722656 135.601562 8.757812 135.472656 8.769531 135.261719 L 8.800781 134.730469 L 8.800781 129.558594 L 8.769531 129.027344 C 8.757812 128.832031 8.722656 128.707031 8.660156 128.652344 C 8.605469 128.589844 8.476562 128.550781 8.269531 128.527344 L 7.910156 128.511719 L 7.816406 128.496094 L 7.816406 128.167969 L 10.925781 128.167969 L 10.925781 128.496094 L 10.832031 128.511719 L 10.457031 128.527344 C 10.257812 128.550781 10.128906 128.589844 10.066406 128.652344 C 10.011719 128.707031 9.980469 128.832031 9.972656 129.027344 L 9.941406 129.558594 L 9.941406 134.730469 C 9.941406 135.210938 9.972656 135.488281 10.035156 135.558594 C 10.105469 135.621094 10.382812 135.652344 10.863281 135.652344 L 11.675781 135.652344 C 12.152344 135.652344 12.496094 135.621094 12.707031 135.558594 C 12.839844 135.519531 12.914062 135.394531 12.925781 135.183594 L 12.941406 134.636719 L 12.941406 134.527344 L 13.519531 134.527344 Z M 19.644531 136.121094 L 13.941406 136.121094 L 13.941406 135.792969 L 14.035156 135.777344 L 14.394531 135.761719 C 14.601562 135.742188 14.730469 135.707031 14.785156 135.652344 C 14.847656 135.601562 14.882812 135.472656 14.894531 135.261719 L 14.925781 134.730469 L 14.925781 129.558594 L 14.894531 129.027344 C 14.882812 128.832031 14.847656 128.707031 14.785156 128.652344 C 14.730469 128.589844 14.601562 128.550781 14.394531 128.527344 L 14.035156 128.511719 L 13.941406 128.496094 L 13.941406 128.167969 L 17.050781 128.167969 L 17.050781 128.496094 L 16.957031 128.511719 L 16.582031 128.527344 C 16.382812 128.550781 16.253906 128.589844 16.191406 128.652344 C 16.136719 128.707031 16.105469 128.832031 16.097656 129.027344 L 16.066406 129.558594 L 16.066406 134.730469 C 16.066406 135.210938 16.097656 135.488281 16.160156 135.558594 C 16.230469 135.621094 16.507812 135.652344 16.988281 135.652344 L 17.800781 135.652344 C 18.277344 135.652344 18.621094 135.621094 18.832031 135.558594 C 18.964844 135.519531 19.039062 135.394531 19.050781 135.183594 L 19.066406 134.636719 L 19.066406 134.527344 L 19.644531 134.527344 Z M 19.644531 136.121094 "/>
</g>
</svg>
