<?xml version="1.0" encoding="UTF-8"?>
<svg xmlns="http://www.w3.org/2000/svg" xmlns:xlink="http://www.w3.org/1999/xlink" width="200" height="150" viewBox="0 0 200 150">
<defs>
<filter id="filter-remove-color-and-invert-alpha" x="0%" y="0%" width="100%" height="100%">
<feColorMatrix color-interpolation-filters="sRGB" values="0 0 0 0 1 0 0 0 0 1 0 0 0 0 1 0 0 0 -1 1"/>
</filter>
<filter id="filter-0" x="0%" y="0%" width="100%" height="100%">
<feImage xlink:href="#compositing-group-1" result="source" x="0" y="0" width="240" height="180"/>
<feImage xlink:href="#compositing-group-2" result="destination" x="0" y="0" width="240" height="180"/>
<feComposite in="source" in2="destination" operator="arithmetic" k1="0" k2="1" k3="1" k4="0" color-interpolation-filters="sRGB"/>
</filter>
<g id="compositing-group-0" transform="translate(20, 15)">
<rect x="-20" y="-15" width="240" height="180" fill="rgb(0%, 0%, 0%)" fill-opacity="0"/>
<rect x="-20" y="-15" width="240" height="180" fill="rgb(100%, 100%, 100%)" fill-opacity="1"/>
</g>
<mask id="mask-0">
<use xlink:href="#compositing-group-0"/>
</mask>
<mask id="mask-1">
<use xlink:href="#compositing-group-0" filter="url(#filter-remove-color-and-invert-alpha)"/>
</mask>
<g id="compositing-group-1" mask="url(#mask-0)">
<g transform="translate(20, 15)">
<rect x="-20" y="-15" width="240" height="180" fill="rgb(100%, 100%, 100%)" fill-opacity="1"/>
</g>
</g>
<g id="compositing-group-2" mask="url(#mask-1)">
<g transform="translate(20, 15)">
</g>
</g>
</defs>
<g filter="url(#filter-0)" transform="translate(-20, -15)">
<rect x="0" y="0" width="240" height="180" fill="rgb(0%, 0%, 0%)" fill-opacity="1"/>
</g>
<path fill-rule="evenodd" fill="rgb(70.588235%, 70.588235%, 70.588235%)" fill-opacity="1" d="M 101.480469 54.453125 L 98.015625 63.855469 L 105.441406 68.3125 L 113.359375 58.410156 Z M 101.480469 54.453125 "/>
<path fill-rule="evenodd" fill="rgb(70.588235%, 70.588235%, 70.588235%)" fill-opacity="1" d="M 167.320312 37.125 L 139.597656 62.867188 L 199 61.875 L 157.417969 54.453125 L 194.050781 43.5625 Z M 167.320312 37.125 "/>
<path fill-rule="evenodd" fill="rgb(70.588235%, 70.588235%, 70.588235%)" fill-opacity="1" d="M 16.335938 61.382812 L 29.703125 83.65625 L 89.597656 49.996094 Z M 16.335938 61.382812 "/>
<path fill-rule="evenodd" fill="rgb(70.588235%, 70.588235%, 70.588235%)" fill-opacity="1" d="M 76.234375 81.183594 L 0 97.519531 L 37.621094 111.875 L 114.847656 93.0625 Z M 67.324219 90.09375 L 71.777344 97.023438 L 22.769531 99.992188 Z M 67.324219 90.09375 "/>
<path fill-rule="evenodd" fill="rgb(0%, 0%, 0%)" fill-opacity="1" d="M 56.71875 103.996094 C 56.164062 104.222656 55.625 104.339844 55.09375 104.339844 C 54.238281 104.339844 53.546875 104.054688 53.015625 103.480469 C 52.484375 102.910156 52.21875 102.167969 52.21875 101.261719 C 52.21875 100.347656 52.472656 99.613281 52.984375 99.058594 C 53.492188 98.507812 54.164062 98.230469 55 98.230469 C 55.445312 98.230469 56.019531 98.320312 56.71875 98.496094 L 56.71875 99.886719 L 56.0625 99.886719 L 56.0625 99.792969 C 56.0625 99.367188 55.992188 99.082031 55.859375 98.933594 C 55.660156 98.707031 55.378906 98.589844 55.015625 98.589844 C 54.492188 98.589844 54.082031 98.824219 53.78125 99.292969 C 53.476562 99.753906 53.328125 100.382812 53.328125 101.183594 C 53.328125 101.996094 53.503906 102.636719 53.859375 103.105469 C 54.222656 103.574219 54.710938 103.808594 55.328125 103.808594 C 55.859375 103.808594 56.320312 103.722656 56.71875 103.542969 Z M 60.5625 104.339844 C 59.71875 104.339844 59.046875 104.066406 58.546875 103.511719 C 58.054688 102.960938 57.8125 102.214844 57.8125 101.277344 C 57.8125 100.339844 58.0625 99.601562 58.5625 99.058594 C 59.0625 98.507812 59.738281 98.230469 60.59375 98.230469 C 61.457031 98.230469 62.132812 98.507812 62.625 99.058594 C 63.125 99.601562 63.375 100.339844 63.375 101.277344 C 63.375 102.226562 63.125 102.976562 62.625 103.527344 C 62.125 104.070312 61.4375 104.339844 60.5625 104.339844 Z M 60.578125 103.996094 C 61.066406 103.996094 61.46875 103.742188 61.78125 103.230469 C 62.09375 102.722656 62.25 102.070312 62.25 101.277344 C 62.25 100.507812 62.085938 99.863281 61.765625 99.339844 C 61.453125 98.820312 61.0625 98.558594 60.59375 98.558594 C 60.125 98.558594 59.726562 98.820312 59.40625 99.339844 C 59.09375 99.863281 58.9375 100.507812 58.9375 101.277344 C 58.9375 102.058594 59.09375 102.710938 59.40625 103.230469 C 59.71875 103.742188 60.109375 103.996094 60.578125 103.996094 Z M 68.609375 104.199219 L 68.609375 103.105469 C 68.359375 103.492188 68.046875 103.792969 67.671875 104.011719 C 67.296875 104.230469 66.910156 104.339844 66.515625 104.339844 C 66.015625 104.339844 65.617188 104.175781 65.328125 103.839844 C 65.046875 103.507812 64.90625 103.054688 64.90625 102.480469 L 64.90625 99.761719 L 64.875 99.230469 C 64.851562 99.023438 64.816406 98.894531 64.765625 98.839844 C 64.710938 98.777344 64.582031 98.742188 64.375 98.730469 L 64.015625 98.699219 L 63.90625 98.699219 L 63.90625 98.371094 L 65.953125 98.371094 L 65.953125 102.308594 C 65.953125 102.800781 66.023438 103.148438 66.171875 103.355469 C 66.316406 103.554688 66.566406 103.652344 66.921875 103.652344 C 67.160156 103.652344 67.441406 103.570312 67.765625 103.402344 C 68.097656 103.226562 68.378906 103.007812 68.609375 102.746094 L 68.609375 99.761719 L 68.578125 99.230469 C 68.566406 99.023438 68.53125 98.894531 68.46875 98.839844 C 68.414062 98.777344 68.285156 98.742188 68.078125 98.730469 L 67.71875 98.699219 L 67.625 98.699219 L 67.625 98.371094 L 69.671875 98.371094 L 69.671875 102.808594 L 69.703125 103.339844 C 69.710938 103.550781 69.742188 103.679688 69.796875 103.730469 C 69.859375 103.785156 69.992188 103.820312 70.203125 103.839844 L 70.5625 103.855469 L 70.671875 103.871094 L 70.671875 104.199219 Z M 73.109375 99.464844 C 73.359375 99.082031 73.671875 98.777344 74.046875 98.558594 C 74.421875 98.339844 74.8125 98.230469 75.21875 98.230469 C 75.71875 98.230469 76.109375 98.398438 76.390625 98.730469 C 76.679688 99.066406 76.828125 99.519531 76.828125 100.089844 L 76.828125 102.808594 L 76.859375 103.339844 C 76.867188 103.550781 76.898438 103.679688 76.953125 103.730469 C 77.015625 103.785156 77.148438 103.820312 77.359375 103.839844 L 77.71875 103.855469 L 77.8125 103.871094 L 77.8125 104.199219 L 74.765625 104.199219 L 74.765625 103.871094 L 74.859375 103.855469 L 75.234375 103.839844 C 75.429688 103.820312 75.554688 103.785156 75.609375 103.730469 C 75.671875 103.679688 75.710938 103.550781 75.734375 103.339844 L 75.765625 102.808594 L 75.765625 100.261719 C 75.765625 99.761719 75.695312 99.414062 75.5625 99.214844 C 75.4375 99.019531 75.207031 98.917969 74.875 98.917969 C 74.394531 98.917969 73.804688 99.214844 73.109375 99.808594 L 73.109375 102.808594 C 73.109375 103.101562 73.132812 103.355469 73.1875 103.574219 C 73.207031 103.667969 73.242188 103.738281 73.296875 103.777344 C 73.359375 103.808594 73.472656 103.832031 73.640625 103.839844 L 74 103.855469 L 74.109375 103.871094 L 74.109375 104.199219 L 71.0625 104.199219 L 71.0625 103.871094 L 71.15625 103.855469 L 71.515625 103.839844 C 71.722656 103.820312 71.851562 103.785156 71.90625 103.730469 C 71.96875 103.679688 72.003906 103.550781 72.015625 103.339844 L 72.046875 102.808594 L 72.046875 99.761719 L 72.015625 99.230469 C 72.003906 99.023438 71.96875 98.894531 71.90625 98.839844 C 71.851562 98.777344 71.722656 98.742188 71.515625 98.730469 L 71.15625 98.699219 L 71.0625 98.699219 L 71.0625 98.371094 L 73.109375 98.371094 Z M 81.6875 104.167969 C 81.414062 104.28125 81.160156 104.339844 80.921875 104.339844 C 80.367188 104.339844 79.9375 104.195312 79.625 103.902344 C 79.4375 103.738281 79.304688 103.550781 79.234375 103.339844 C 79.171875 103.121094 79.140625 102.800781 79.140625 102.371094 L 79.140625 98.808594 L 78.28125 98.808594 L 78.28125 98.371094 L 79.140625 98.371094 L 79.140625 97.308594 L 80.203125 97.042969 L 80.203125 98.371094 L 81.8125 98.371094 L 81.8125 98.808594 L 80.203125 98.808594 L 80.203125 102.511719 C 80.203125 103.023438 80.25 103.363281 80.34375 103.527344 C 80.488281 103.777344 80.734375 103.902344 81.078125 103.902344 C 81.242188 103.902344 81.445312 103.847656 81.6875 103.730469 Z M 84.375 99.949219 L 84.375 102.808594 C 84.375 103.101562 84.398438 103.355469 84.453125 103.574219 C 84.472656 103.667969 84.507812 103.738281 84.5625 103.777344 C 84.625 103.808594 84.738281 103.832031 84.90625 103.839844 L 85.265625 103.855469 L 85.5 103.871094 L 85.5 104.199219 L 82.328125 104.199219 L 82.328125 103.871094 L 82.421875 103.855469 L 82.78125 103.839844 C 82.988281 103.820312 83.117188 103.785156 83.171875 103.730469 C 83.234375 103.679688 83.269531 103.550781 83.28125 103.339844 L 83.3125 102.808594 L 83.3125 99.761719 L 83.28125 99.230469 C 83.269531 99.023438 83.234375 98.894531 83.171875 98.839844 C 83.117188 98.777344 82.988281 98.742188 82.78125 98.730469 L 82.421875 98.699219 L 82.328125 98.699219 L 82.328125 98.371094 L 84.375 98.371094 L 84.375 99.464844 C 84.851562 98.644531 85.484375 98.230469 86.265625 98.230469 C 86.378906 98.230469 86.5 98.253906 86.625 98.292969 L 86.625 99.886719 L 86.03125 99.886719 L 86.03125 99.792969 L 85.96875 99.386719 C 85.957031 99.273438 85.929688 99.199219 85.890625 99.167969 C 85.859375 99.128906 85.789062 99.105469 85.6875 99.105469 C 85.425781 99.105469 85.179688 99.179688 84.953125 99.324219 C 84.734375 99.472656 84.539062 99.679688 84.375 99.949219 Z M 87.859375 106.324219 L 89.765625 104.199219 L 87.9375 99.777344 C 87.738281 99.308594 87.59375 99.019531 87.5 98.902344 C 87.40625 98.777344 87.265625 98.710938 87.078125 98.699219 L 86.96875 98.699219 L 86.96875 98.371094 L 89.640625 98.371094 L 89.640625 98.699219 L 89.171875 98.699219 C 88.921875 98.699219 88.796875 98.761719 88.796875 98.886719 C 88.796875 98.929688 88.804688 98.988281 88.828125 99.058594 C 88.847656 99.089844 88.894531 99.210938 88.96875 99.417969 C 89 99.535156 89.039062 99.652344 89.09375 99.777344 L 90.40625 102.902344 L 91.796875 99.761719 L 91.921875 99.433594 L 92.078125 99.058594 C 92.085938 99.007812 92.09375 98.957031 92.09375 98.902344 C 92.09375 98.769531 91.960938 98.699219 91.703125 98.699219 L 91.296875 98.699219 L 91.296875 98.371094 L 93.03125 98.371094 L 93.03125 98.699219 L 92.9375 98.699219 C 92.800781 98.710938 92.691406 98.761719 92.609375 98.855469 C 92.535156 98.941406 92.453125 99.089844 92.359375 99.308594 C 92.328125 99.382812 92.257812 99.539062 92.15625 99.777344 L 89.203125 106.324219 Z M 98.625 99.464844 C 98.875 99.082031 99.1875 98.777344 99.5625 98.558594 C 99.9375 98.339844 100.328125 98.230469 100.734375 98.230469 C 101.234375 98.230469 101.625 98.398438 101.90625 98.730469 C 102.195312 99.066406 102.34375 99.519531 102.34375 100.089844 L 102.34375 102.808594 L 102.375 103.339844 C 102.382812 103.550781 102.414062 103.679688 102.46875 103.730469 C 102.53125 103.785156 102.664062 103.820312 102.875 103.839844 L 103.234375 103.855469 L 103.328125 103.871094 L 103.328125 104.199219 L 100.28125 104.199219 L 100.28125 103.871094 L 100.375 103.855469 L 100.75 103.839844 C 100.945312 103.820312 101.070312 103.785156 101.125 103.730469 C 101.1875 103.679688 101.226562 103.550781 101.25 103.339844 L 101.28125 102.808594 L 101.28125 100.261719 C 101.28125 99.761719 101.210938 99.414062 101.078125 99.214844 C 100.953125 99.019531 100.722656 98.917969 100.390625 98.917969 C 99.910156 98.917969 99.320312 99.214844 98.625 99.808594 L 98.625 102.808594 C 98.625 103.101562 98.648438 103.355469 98.703125 103.574219 C 98.722656 103.667969 98.757812 103.738281 98.8125 103.777344 C 98.875 103.808594 98.988281 103.832031 99.15625 103.839844 L 99.515625 103.855469 L 99.625 103.871094 L 99.625 104.199219 L 96.578125 104.199219 L 96.578125 103.871094 L 96.671875 103.855469 L 97.03125 103.839844 C 97.238281 103.820312 97.367188 103.785156 97.421875 103.730469 C 97.484375 103.679688 97.519531 103.550781 97.53125 103.339844 L 97.5625 102.808594 L 97.5625 99.761719 L 97.53125 99.230469 C 97.519531 99.023438 97.484375 98.894531 97.421875 98.839844 C 97.367188 98.777344 97.238281 98.742188 97.03125 98.730469 L 96.671875 98.699219 L 96.578125 98.699219 L 96.578125 98.371094 L 98.625 98.371094 Z M 107.46875 103.402344 C 107.113281 103.746094 106.796875 103.992188 106.515625 104.136719 C 106.242188 104.269531 105.9375 104.339844 105.59375 104.339844 C 105.101562 104.339844 104.691406 104.183594 104.359375 103.871094 C 104.023438 103.550781 103.859375 103.152344 103.859375 102.683594 C 103.859375 102.132812 104.078125 101.683594 104.515625 101.339844 C 104.785156 101.121094 105.101562 100.972656 105.46875 100.886719 C 105.84375 100.792969 106.351562 100.746094 107 100.746094 L 107.21875 100.746094 L 107.21875 100.027344 C 107.21875 99.113281 106.867188 98.652344 106.171875 98.652344 C 105.847656 98.652344 105.5625 98.753906 105.3125 98.949219 C 105.164062 99.066406 105.070312 99.316406 105.03125 99.699219 L 105.03125 99.792969 L 104.3125 99.792969 L 104.3125 98.730469 C 105.050781 98.398438 105.738281 98.230469 106.375 98.230469 C 106.925781 98.230469 107.375 98.363281 107.71875 98.621094 C 107.9375 98.789062 108.082031 98.972656 108.15625 99.167969 C 108.238281 99.355469 108.28125 99.628906 108.28125 99.980469 L 108.28125 102.589844 C 108.28125 103.050781 108.316406 103.378906 108.390625 103.574219 C 108.472656 103.761719 108.617188 103.855469 108.828125 103.855469 C 108.890625 103.855469 108.984375 103.839844 109.109375 103.808594 L 109.140625 104.199219 C 108.890625 104.292969 108.660156 104.339844 108.453125 104.339844 C 107.929688 104.339844 107.601562 104.027344 107.46875 103.402344 Z M 107.21875 103.277344 L 107.21875 101.089844 L 106.96875 101.089844 C 106.351562 101.089844 105.867188 101.222656 105.515625 101.480469 C 105.160156 101.730469 104.984375 102.082031 104.984375 102.527344 C 104.984375 102.871094 105.09375 103.152344 105.3125 103.371094 C 105.53125 103.589844 105.800781 103.699219 106.125 103.699219 C 106.4375 103.699219 106.800781 103.558594 107.21875 103.277344 Z M 111.546875 99.464844 C 112.160156 98.644531 112.832031 98.230469 113.5625 98.230469 C 113.96875 98.230469 114.300781 98.339844 114.5625 98.558594 C 114.820312 98.769531 114.988281 99.070312 115.0625 99.464844 C 115.4375 99.007812 115.773438 98.691406 116.078125 98.511719 C 116.390625 98.324219 116.742188 98.230469 117.140625 98.230469 C 117.628906 98.230469 118.007812 98.386719 118.28125 98.699219 C 118.5625 99.003906 118.703125 99.417969 118.703125 99.949219 L 118.703125 102.808594 C 118.703125 103.101562 118.726562 103.355469 118.78125 103.574219 C 118.800781 103.667969 118.835938 103.738281 118.890625 103.777344 C 118.953125 103.808594 119.066406 103.832031 119.234375 103.839844 L 119.59375 103.855469 L 119.703125 103.871094 L 119.703125 104.199219 L 116.65625 104.199219 L 116.65625 103.871094 L 116.75 103.855469 L 117.125 103.839844 C 117.289062 103.832031 117.398438 103.808594 117.453125 103.777344 C 117.515625 103.738281 117.554688 103.667969 117.578125 103.574219 C 117.617188 103.355469 117.640625 103.101562 117.640625 102.808594 L 117.640625 100.152344 C 117.640625 99.695312 117.582031 99.378906 117.46875 99.199219 C 117.351562 99.011719 117.140625 98.917969 116.828125 98.917969 C 116.304688 98.917969 115.738281 99.222656 115.125 99.824219 L 115.125 102.808594 L 115.15625 103.339844 C 115.164062 103.550781 115.195312 103.679688 115.25 103.730469 C 115.3125 103.785156 115.445312 103.820312 115.65625 103.839844 L 116.015625 103.855469 L 116.125 103.871094 L 116.125 104.199219 L 113.078125 104.199219 L 113.078125 103.871094 L 113.171875 103.855469 L 113.546875 103.839844 C 113.710938 103.832031 113.820312 103.808594 113.875 103.777344 C 113.9375 103.738281 113.976562 103.667969 114 103.574219 C 114.039062 103.355469 114.0625 103.101562 114.0625 102.808594 L 114.0625 100.152344 C 114.0625 99.695312 114.003906 99.378906 113.890625 99.199219 C 113.773438 99.011719 113.566406 98.917969 113.265625 98.917969 C 112.703125 98.917969 112.128906 99.222656 111.546875 99.824219 L 111.546875 102.808594 C 111.546875 103.101562 111.570312 103.355469 111.625 103.574219 C 111.644531 103.667969 111.679688 103.738281 111.734375 103.777344 C 111.796875 103.808594 111.910156 103.832031 112.078125 103.839844 L 112.4375 103.855469 L 112.546875 103.871094 L 112.546875 104.199219 L 109.5 104.199219 L 109.5 103.871094 L 109.59375 103.855469 L 109.953125 103.839844 C 110.160156 103.820312 110.289062 103.785156 110.34375 103.730469 C 110.40625 103.679688 110.441406 103.550781 110.453125 103.339844 L 110.484375 102.808594 L 110.484375 99.761719 L 110.453125 99.230469 C 110.441406 99.023438 110.40625 98.894531 110.34375 98.839844 C 110.289062 98.777344 110.160156 98.742188 109.953125 98.730469 L 109.59375 98.699219 L 109.5 98.699219 L 109.5 98.371094 L 111.546875 98.371094 Z M 124.96875 103.933594 C 124.289062 104.203125 123.675781 104.339844 123.125 104.339844 C 122.269531 104.339844 121.570312 104.054688 121.03125 103.480469 C 120.5 102.898438 120.234375 102.148438 120.234375 101.230469 C 120.234375 100.347656 120.472656 99.628906 120.953125 99.074219 C 121.429688 98.511719 122.046875 98.230469 122.796875 98.230469 C 123.492188 98.230469 124.03125 98.464844 124.40625 98.933594 C 124.78125 99.402344 124.96875 100.074219 124.96875 100.949219 L 124.96875 101.058594 L 121.40625 101.058594 C 121.40625 101.863281 121.515625 102.460938 121.734375 102.855469 C 122.078125 103.480469 122.597656 103.792969 123.296875 103.792969 C 123.953125 103.792969 124.507812 103.660156 124.96875 103.386719 Z M 121.421875 100.714844 L 123.84375 100.714844 L 123.84375 100.480469 C 123.84375 100.054688 123.820312 99.742188 123.78125 99.542969 C 123.75 99.347656 123.679688 99.167969 123.578125 99.011719 C 123.367188 98.710938 123.085938 98.558594 122.734375 98.558594 C 122.328125 98.558594 122.003906 98.757812 121.765625 99.152344 C 121.535156 99.539062 121.421875 100.058594 121.421875 100.714844 Z M 121.421875 100.714844 "/>
<path fill-rule="evenodd" fill="rgb(0%, 0%, 0%)" fill-opacity="1" d="M 13.320312 73.964844 C 12.765625 74.191406 12.226562 74.308594 11.695312 74.308594 C 10.839844 74.308594 10.148438 74.023438 9.617188 73.449219 C 9.085938 72.878906 8.820312 72.136719 8.820312 71.230469 C 8.820312 70.316406 9.074219 69.582031 9.585938 69.027344 C 10.09375 68.476562 10.765625 68.199219 11.601562 68.199219 C 12.046875 68.199219 12.621094 68.289062 13.320312 68.464844 L 13.320312 69.855469 L 12.664062 69.855469 L 12.664062 69.761719 C 12.664062 69.335938 12.59375 69.050781 12.460938 68.902344 C 12.261719 68.675781 11.980469 68.558594 11.617188 68.558594 C 11.09375 68.558594 10.683594 68.792969 10.382812 69.261719 C 10.078125 69.722656 9.929688 70.351562 9.929688 71.152344 C 9.929688 71.964844 10.105469 72.605469 10.460938 73.074219 C 10.824219 73.542969 11.3125 73.777344 11.929688 73.777344 C 12.460938 73.777344 12.921875 73.691406 13.320312 73.511719 Z M 17.164062 74.308594 C 16.320312 74.308594 15.648438 74.035156 15.148438 73.480469 C 14.65625 72.929688 14.414062 72.183594 14.414062 71.246094 C 14.414062 70.308594 14.664062 69.570312 15.164062 69.027344 C 15.664062 68.476562 16.339844 68.199219 17.195312 68.199219 C 18.058594 68.199219 18.734375 68.476562 19.226562 69.027344 C 19.726562 69.570312 19.976562 70.308594 19.976562 71.246094 C 19.976562 72.195312 19.726562 72.945312 19.226562 73.496094 C 18.726562 74.039062 18.039062 74.308594 17.164062 74.308594 Z M 17.179688 73.964844 C 17.667969 73.964844 18.070312 73.710938 18.382812 73.199219 C 18.695312 72.691406 18.851562 72.039062 18.851562 71.246094 C 18.851562 70.476562 18.6875 69.832031 18.367188 69.308594 C 18.054688 68.789062 17.664062 68.527344 17.195312 68.527344 C 16.726562 68.527344 16.328125 68.789062 16.007812 69.308594 C 15.695312 69.832031 15.539062 70.476562 15.539062 71.246094 C 15.539062 72.027344 15.695312 72.679688 16.007812 73.199219 C 16.320312 73.710938 16.710938 73.964844 17.179688 73.964844 Z M 25.210938 74.167969 L 25.210938 73.074219 C 24.960938 73.460938 24.648438 73.761719 24.273438 73.980469 C 23.898438 74.199219 23.511719 74.308594 23.117188 74.308594 C 22.617188 74.308594 22.21875 74.144531 21.929688 73.808594 C 21.648438 73.476562 21.507812 73.023438 21.507812 72.449219 L 21.507812 69.730469 L 21.476562 69.199219 C 21.453125 68.992188 21.417969 68.863281 21.367188 68.808594 C 21.3125 68.746094 21.183594 68.710938 20.976562 68.699219 L 20.617188 68.667969 L 20.507812 68.667969 L 20.507812 68.339844 L 22.554688 68.339844 L 22.554688 72.277344 C 22.554688 72.769531 22.625 73.117188 22.773438 73.324219 C 22.917969 73.523438 23.167969 73.621094 23.523438 73.621094 C 23.761719 73.621094 24.042969 73.539062 24.367188 73.371094 C 24.699219 73.195312 24.980469 72.976562 25.210938 72.714844 L 25.210938 69.730469 L 25.179688 69.199219 C 25.167969 68.992188 25.132812 68.863281 25.070312 68.808594 C 25.015625 68.746094 24.886719 68.710938 24.679688 68.699219 L 24.320312 68.667969 L 24.226562 68.667969 L 24.226562 68.339844 L 26.273438 68.339844 L 26.273438 72.777344 L 26.304688 73.308594 C 26.3125 73.519531 26.34375 73.648438 26.398438 73.699219 C 26.460938 73.753906 26.59375 73.789062 26.804688 73.808594 L 27.164062 73.824219 L 27.273438 73.839844 L 27.273438 74.167969 Z M 29.710938 69.433594 C 29.960938 69.050781 30.273438 68.746094 30.648438 68.527344 C 31.023438 68.308594 31.414062 68.199219 31.820312 68.199219 C 32.320312 68.199219 32.710938 68.367188 32.992188 68.699219 C 33.28125 69.035156 33.429688 69.488281 33.429688 70.058594 L 33.429688 72.777344 L 33.460938 73.308594 C 33.46875 73.519531 33.5 73.648438 33.554688 73.699219 C 33.617188 73.753906 33.75 73.789062 33.960938 73.808594 L 34.320312 73.824219 L 34.414062 73.839844 L 34.414062 74.167969 L 31.367188 74.167969 L 31.367188 73.839844 L 31.460938 73.824219 L 31.835938 73.808594 C 32.03125 73.789062 32.15625 73.753906 32.210938 73.699219 C 32.273438 73.648438 32.3125 73.519531 32.335938 73.308594 L 32.367188 72.777344 L 32.367188 70.230469 C 32.367188 69.730469 32.296875 69.382812 32.164062 69.183594 C 32.039062 68.988281 31.808594 68.886719 31.476562 68.886719 C 30.996094 68.886719 30.40625 69.183594 29.710938 69.777344 L 29.710938 72.777344 C 29.710938 73.070312 29.734375 73.324219 29.789062 73.542969 C 29.808594 73.636719 29.84375 73.707031 29.898438 73.746094 C 29.960938 73.777344 30.074219 73.800781 30.242188 73.808594 L 30.601562 73.824219 L 30.710938 73.839844 L 30.710938 74.167969 L 27.664062 74.167969 L 27.664062 73.839844 L 27.757812 73.824219 L 28.117188 73.808594 C 28.324219 73.789062 28.453125 73.753906 28.507812 73.699219 C 28.570312 73.648438 28.605469 73.519531 28.617188 73.308594 L 28.648438 72.777344 L 28.648438 69.730469 L 28.617188 69.199219 C 28.605469 68.992188 28.570312 68.863281 28.507812 68.808594 C 28.453125 68.746094 28.324219 68.710938 28.117188 68.699219 L 27.757812 68.667969 L 27.664062 68.667969 L 27.664062 68.339844 L 29.710938 68.339844 Z M 38.289062 74.136719 C 38.015625 74.25 37.761719 74.308594 37.523438 74.308594 C 36.96875 74.308594 36.539062 74.164062 36.226562 73.871094 C 36.039062 73.707031 35.90625 73.519531 35.835938 73.308594 C 35.773438 73.089844 35.742188 72.769531 35.742188 72.339844 L 35.742188 68.777344 L 34.882812 68.777344 L 34.882812 68.339844 L 35.742188 68.339844 L 35.742188 67.277344 L 36.804688 67.011719 L 36.804688 68.339844 L 38.414062 68.339844 L 38.414062 68.777344 L 36.804688 68.777344 L 36.804688 72.480469 C 36.804688 72.992188 36.851562 73.332031 36.945312 73.496094 C 37.089844 73.746094 37.335938 73.871094 37.679688 73.871094 C 37.84375 73.871094 38.046875 73.816406 38.289062 73.699219 Z M 40.976562 69.917969 L 40.976562 72.777344 C 40.976562 73.070312 41 73.324219 41.054688 73.542969 C 41.074219 73.636719 41.109375 73.707031 41.164062 73.746094 C 41.226562 73.777344 41.339844 73.800781 41.507812 73.808594 L 41.867188 73.824219 L 42.101562 73.839844 L 42.101562 74.167969 L 38.929688 74.167969 L 38.929688 73.839844 L 39.023438 73.824219 L 39.382812 73.808594 C 39.589844 73.789062 39.71875 73.753906 39.773438 73.699219 C 39.835938 73.648438 39.871094 73.519531 39.882812 73.308594 L 39.914062 72.777344 L 39.914062 69.730469 L 39.882812 69.199219 C 39.871094 68.992188 39.835938 68.863281 39.773438 68.808594 C 39.71875 68.746094 39.589844 68.710938 39.382812 68.699219 L 39.023438 68.667969 L 38.929688 68.667969 L 38.929688 68.339844 L 40.976562 68.339844 L 40.976562 69.433594 C 41.453125 68.613281 42.085938 68.199219 42.867188 68.199219 C 42.980469 68.199219 43.101562 68.222656 43.226562 68.261719 L 43.226562 69.855469 L 42.632812 69.855469 L 42.632812 69.761719 L 42.570312 69.355469 C 42.558594 69.242188 42.53125 69.167969 42.492188 69.136719 C 42.460938 69.097656 42.390625 69.074219 42.289062 69.074219 C 42.027344 69.074219 41.78125 69.148438 41.554688 69.292969 C 41.335938 69.441406 41.140625 69.648438 40.976562 69.917969 Z M 44.460938 76.292969 L 46.367188 74.167969 L 44.539062 69.746094 C 44.339844 69.277344 44.195312 68.988281 44.101562 68.871094 C 44.007812 68.746094 43.867188 68.679688 43.679688 68.667969 L 43.570312 68.667969 L 43.570312 68.339844 L 46.242188 68.339844 L 46.242188 68.667969 L 45.773438 68.667969 C 45.523438 68.667969 45.398438 68.730469 45.398438 68.855469 C 45.398438 68.898438 45.40625 68.957031 45.429688 69.027344 C 45.449219 69.058594 45.496094 69.179688 45.570312 69.386719 C 45.601562 69.503906 45.640625 69.621094 45.695312 69.746094 L 47.007812 72.871094 L 48.398438 69.730469 L 48.523438 69.402344 L 48.679688 69.027344 C 48.6875 68.976562 48.695312 68.925781 48.695312 68.871094 C 48.695312 68.738281 48.5625 68.667969 48.304688 68.667969 L 47.898438 68.667969 L 47.898438 68.339844 L 49.632812 68.339844 L 49.632812 68.667969 L 49.539062 68.667969 C 49.402344 68.679688 49.292969 68.730469 49.210938 68.824219 C 49.136719 68.910156 49.054688 69.058594 48.960938 69.277344 C 48.929688 69.351562 48.859375 69.507812 48.757812 69.746094 L 45.804688 76.292969 Z M 55.226562 69.433594 C 55.476562 69.050781 55.789062 68.746094 56.164062 68.527344 C 56.539062 68.308594 56.929688 68.199219 57.335938 68.199219 C 57.835938 68.199219 58.226562 68.367188 58.507812 68.699219 C 58.796875 69.035156 58.945312 69.488281 58.945312 70.058594 L 58.945312 72.777344 L 58.976562 73.308594 C 58.984375 73.519531 59.015625 73.648438 59.070312 73.699219 C 59.132812 73.753906 59.265625 73.789062 59.476562 73.808594 L 59.835938 73.824219 L 59.929688 73.839844 L 59.929688 74.167969 L 56.882812 74.167969 L 56.882812 73.839844 L 56.976562 73.824219 L 57.351562 73.808594 C 57.546875 73.789062 57.671875 73.753906 57.726562 73.699219 C 57.789062 73.648438 57.828125 73.519531 57.851562 73.308594 L 57.882812 72.777344 L 57.882812 70.230469 C 57.882812 69.730469 57.8125 69.382812 57.679688 69.183594 C 57.554688 68.988281 57.324219 68.886719 56.992188 68.886719 C 56.511719 68.886719 55.921875 69.183594 55.226562 69.777344 L 55.226562 72.777344 C 55.226562 73.070312 55.25 73.324219 55.304688 73.542969 C 55.324219 73.636719 55.359375 73.707031 55.414062 73.746094 C 55.476562 73.777344 55.589844 73.800781 55.757812 73.808594 L 56.117188 73.824219 L 56.226562 73.839844 L 56.226562 74.167969 L 53.179688 74.167969 L 53.179688 73.839844 L 53.273438 73.824219 L 53.632812 73.808594 C 53.839844 73.789062 53.96875 73.753906 54.023438 73.699219 C 54.085938 73.648438 54.121094 73.519531 54.132812 73.308594 L 54.164062 72.777344 L 54.164062 69.730469 L 54.132812 69.199219 C 54.121094 68.992188 54.085938 68.863281 54.023438 68.808594 C 53.96875 68.746094 53.839844 68.710938 53.632812 68.699219 L 53.273438 68.667969 L 53.179688 68.667969 L 53.179688 68.339844 L 55.226562 68.339844 Z M 64.070312 73.371094 C 63.714844 73.714844 63.398438 73.960938 63.117188 74.105469 C 62.84375 74.238281 62.539062 74.308594 62.195312 74.308594 C 61.703125 74.308594 61.292969 74.152344 60.960938 73.839844 C 60.625 73.519531 60.460938 73.121094 60.460938 72.652344 C 60.460938 72.101562 60.679688 71.652344 61.117188 71.308594 C 61.386719 71.089844 61.703125 70.941406 62.070312 70.855469 C 62.445312 70.761719 62.953125 70.714844 63.601562 70.714844 L 63.820312 70.714844 L 63.820312 69.996094 C 63.820312 69.082031 63.46875 68.621094 62.773438 68.621094 C 62.449219 68.621094 62.164062 68.722656 61.914062 68.917969 C 61.765625 69.035156 61.671875 69.285156 61.632812 69.667969 L 61.632812 69.761719 L 60.914062 69.761719 L 60.914062 68.699219 C 61.652344 68.367188 62.339844 68.199219 62.976562 68.199219 C 63.527344 68.199219 63.976562 68.332031 64.320312 68.589844 C 64.539062 68.757812 64.683594 68.941406 64.757812 69.136719 C 64.839844 69.324219 64.882812 69.597656 64.882812 69.949219 L 64.882812 72.558594 C 64.882812 73.019531 64.917969 73.347656 64.992188 73.542969 C 65.074219 73.730469 65.21875 73.824219 65.429688 73.824219 C 65.492188 73.824219 65.585938 73.808594 65.710938 73.777344 L 65.742188 74.167969 C 65.492188 74.261719 65.261719 74.308594 65.054688 74.308594 C 64.53125 74.308594 64.203125 73.996094 64.070312 73.371094 Z M 63.820312 73.246094 L 63.820312 71.058594 L 63.570312 71.058594 C 62.953125 71.058594 62.46875 71.191406 62.117188 71.449219 C 61.761719 71.699219 61.585938 72.050781 61.585938 72.496094 C 61.585938 72.839844 61.695312 73.121094 61.914062 73.339844 C 62.132812 73.558594 62.402344 73.667969 62.726562 73.667969 C 63.039062 73.667969 63.402344 73.527344 63.820312 73.246094 Z M 68.148438 69.433594 C 68.761719 68.613281 69.433594 68.199219 70.164062 68.199219 C 70.570312 68.199219 70.902344 68.308594 71.164062 68.527344 C 71.421875 68.738281 71.589844 69.039062 71.664062 69.433594 C 72.039062 68.976562 72.375 68.660156 72.679688 68.480469 C 72.992188 68.292969 73.34375 68.199219 73.742188 68.199219 C 74.230469 68.199219 74.609375 68.355469 74.882812 68.667969 C 75.164062 68.972656 75.304688 69.386719 75.304688 69.917969 L 75.304688 72.777344 C 75.304688 73.070312 75.328125 73.324219 75.382812 73.542969 C 75.402344 73.636719 75.4375 73.707031 75.492188 73.746094 C 75.554688 73.777344 75.667969 73.800781 75.835938 73.808594 L 76.195312 73.824219 L 76.304688 73.839844 L 76.304688 74.167969 L 73.257812 74.167969 L 73.257812 73.839844 L 73.351562 73.824219 L 73.726562 73.808594 C 73.890625 73.800781 74 73.777344 74.054688 73.746094 C 74.117188 73.707031 74.15625 73.636719 74.179688 73.542969 C 74.21875 73.324219 74.242188 73.070312 74.242188 72.777344 L 74.242188 70.121094 C 74.242188 69.664062 74.183594 69.347656 74.070312 69.167969 C 73.953125 68.980469 73.742188 68.886719 73.429688 68.886719 C 72.90625 68.886719 72.339844 69.191406 71.726562 69.792969 L 71.726562 72.777344 L 71.757812 73.308594 C 71.765625 73.519531 71.796875 73.648438 71.851562 73.699219 C 71.914062 73.753906 72.046875 73.789062 72.257812 73.808594 L 72.617188 73.824219 L 72.726562 73.839844 L 72.726562 74.167969 L 69.679688 74.167969 L 69.679688 73.839844 L 69.773438 73.824219 L 70.148438 73.808594 C 70.3125 73.800781 70.421875 73.777344 70.476562 73.746094 C 70.539062 73.707031 70.578125 73.636719 70.601562 73.542969 C 70.640625 73.324219 70.664062 73.070312 70.664062 72.777344 L 70.664062 70.121094 C 70.664062 69.664062 70.605469 69.347656 70.492188 69.167969 C 70.375 68.980469 70.167969 68.886719 69.867188 68.886719 C 69.304688 68.886719 68.730469 69.191406 68.148438 69.792969 L 68.148438 72.777344 C 68.148438 73.070312 68.171875 73.324219 68.226562 73.542969 C 68.246094 73.636719 68.28125 73.707031 68.335938 73.746094 C 68.398438 73.777344 68.511719 73.800781 68.679688 73.808594 L 69.039062 73.824219 L 69.148438 73.839844 L 69.148438 74.167969 L 66.101562 74.167969 L 66.101562 73.839844 L 66.195312 73.824219 L 66.554688 73.808594 C 66.761719 73.789062 66.890625 73.753906 66.945312 73.699219 C 67.007812 73.648438 67.042969 73.519531 67.054688 73.308594 L 67.085938 72.777344 L 67.085938 69.730469 L 67.054688 69.199219 C 67.042969 68.992188 67.007812 68.863281 66.945312 68.808594 C 66.890625 68.746094 66.761719 68.710938 66.554688 68.699219 L 66.195312 68.667969 L 66.101562 68.667969 L 66.101562 68.339844 L 68.148438 68.339844 Z M 81.570312 73.902344 C 80.890625 74.171875 80.277344 74.308594 79.726562 74.308594 C 78.871094 74.308594 78.171875 74.023438 77.632812 73.449219 C 77.101562 72.867188 76.835938 72.117188 76.835938 71.199219 C 76.835938 70.316406 77.074219 69.597656 77.554688 69.042969 C 78.03125 68.480469 78.648438 68.199219 79.398438 68.199219 C 80.09375 68.199219 80.632812 68.433594 81.007812 68.902344 C 81.382812 69.371094 81.570312 70.042969 81.570312 70.917969 L 81.570312 71.027344 L 78.007812 71.027344 C 78.007812 71.832031 78.117188 72.429688 78.335938 72.824219 C 78.679688 73.449219 79.199219 73.761719 79.898438 73.761719 C 80.554688 73.761719 81.109375 73.628906 81.570312 73.355469 Z M 78.023438 70.683594 L 80.445312 70.683594 L 80.445312 70.449219 C 80.445312 70.023438 80.421875 69.710938 80.382812 69.511719 C 80.351562 69.316406 80.28125 69.136719 80.179688 68.980469 C 79.96875 68.679688 79.6875 68.527344 79.335938 68.527344 C 78.929688 68.527344 78.605469 68.726562 78.367188 69.121094 C 78.136719 69.507812 78.023438 70.027344 78.023438 70.683594 Z M 78.023438 70.683594 "/>
</svg>
