<?xml version="1.0" encoding="UTF-8"?>
<svg xmlns="http://www.w3.org/2000/svg" xmlns:xlink="http://www.w3.org/1999/xlink" width="200pt" height="150pt" viewBox="0 0 200 150" version="1.1">
<g id="surface2">
<rect x="0" y="0" width="200" height="150" style="fill:rgb(100%,100%,100%);fill-opacity:1;stroke:none;"/>
<path style=" stroke:none;fill-rule:evenodd;fill:rgb(70.588235%,70.588235%,70.588235%);fill-opacity:1;" d="M 101.480469 54.453125 L 98.015625 63.855469 L 105.441406 68.3125 L 113.359375 58.410156 Z M 101.480469 54.453125 "/>
<path style=" stroke:none;fill-rule:evenodd;fill:rgb(70.588235%,70.588235%,70.588235%);fill-opacity:1;" d="M 167.320312 37.125 L 139.597656 62.867188 L 199 61.875 L 157.417969 54.453125 L 194.050781 43.5625 Z M 167.320312 37.125 "/>
<path style=" stroke:none;fill-rule:evenodd;fill:rgb(70.588235%,70.588235%,70.588235%);fill-opacity:1;" d="M 16.335938 61.382812 L 29.703125 83.65625 L 89.597656 49.996094 Z M 16.335938 61.382812 "/>
<path style=" stroke:none;fill-rule:evenodd;fill:rgb(70.588235%,70.588235%,70.588235%);fill-opacity:1;" d="M 76.234375 81.183594 L 0 97.519531 L 37.621094 111.875 L 114.847656 93.0625 Z M 67.324219 90.09375 L 71.777344 97.023438 L 22.769531 99.992188 Z M 67.324219 90.09375 "/>
<path style=" stroke:none;fill-rule:evenodd;fill:rgb(0%,0%,0%);fill-opacity:1;" d="M 57.890625 104.8125 C 57.347656 105.019531 56.816406 105.125 56.296875 105.125 C 55.472656 105.125 54.800781 104.851562 54.28125 104.296875 C 53.769531 103.746094 53.515625 103.027344 53.515625 102.140625 C 53.515625 101.265625 53.757812 100.5625 54.25 100.03125 C 54.75 99.492188 55.40625 99.21875 56.21875 99.21875 C 56.644531 99.21875 57.203125 99.304688 57.890625 99.46875 L 57.890625 100.828125 L 57.25 100.828125 L 57.234375 100.734375 C 57.234375 100.320312 57.171875 100.039062 57.046875 99.890625 C 56.859375 99.671875 56.582031 99.5625 56.21875 99.5625 C 55.71875 99.5625 55.320312 99.792969 55.03125 100.25 C 54.738281 100.699219 54.59375 101.308594 54.59375 102.078125 C 54.59375 102.859375 54.765625 103.480469 55.109375 103.9375 C 55.453125 104.398438 55.925781 104.625 56.53125 104.625 C 57.039062 104.625 57.492188 104.539062 57.890625 104.359375 Z M 61.601562 105.125 C 60.789062 105.125 60.140625 104.859375 59.664062 104.328125 C 59.183594 103.796875 58.945312 103.078125 58.945312 102.171875 C 58.945312 101.257812 59.183594 100.539062 59.664062 100.015625 C 60.152344 99.484375 60.8125 99.21875 61.648438 99.21875 C 62.480469 99.21875 63.136719 99.484375 63.617188 100.015625 C 64.105469 100.539062 64.351562 101.25 64.351562 102.15625 C 64.351562 103.085938 64.105469 103.8125 63.617188 104.34375 C 63.125 104.867188 62.453125 105.125 61.601562 105.125 Z M 61.617188 104.8125 C 62.09375 104.8125 62.484375 104.5625 62.789062 104.0625 C 63.101562 103.5625 63.257812 102.929688 63.257812 102.15625 C 63.257812 101.417969 63.101562 100.796875 62.789062 100.296875 C 62.484375 99.789062 62.105469 99.53125 61.648438 99.53125 C 61.1875 99.53125 60.804688 99.789062 60.492188 100.296875 C 60.1875 100.796875 60.039062 101.421875 60.039062 102.171875 C 60.039062 102.921875 60.1875 103.554688 60.492188 104.0625 C 60.792969 104.5625 61.167969 104.8125 61.617188 104.8125 Z M 69.421875 105 L 69.421875 103.9375 C 69.179688 104.3125 68.878906 104.605469 68.515625 104.8125 C 68.148438 105.019531 67.773438 105.125 67.390625 105.125 C 66.898438 105.125 66.515625 104.96875 66.234375 104.65625 C 65.960938 104.335938 65.828125 103.890625 65.828125 103.328125 L 65.828125 100.6875 L 65.796875 100.1875 C 65.773438 99.992188 65.738281 99.867188 65.6875 99.8125 C 65.632812 99.75 65.507812 99.714844 65.3125 99.703125 L 64.953125 99.671875 L 64.859375 99.65625 L 64.859375 99.34375 L 66.84375 99.34375 L 66.84375 103.171875 C 66.84375 103.640625 66.910156 103.976562 67.046875 104.171875 C 67.191406 104.371094 67.4375 104.46875 67.78125 104.46875 C 68.019531 104.46875 68.296875 104.386719 68.609375 104.21875 C 68.921875 104.054688 69.191406 103.84375 69.421875 103.59375 L 69.421875 100.6875 L 69.390625 100.1875 C 69.378906 99.980469 69.34375 99.851562 69.28125 99.796875 C 69.226562 99.746094 69.101562 99.714844 68.90625 99.703125 L 68.546875 99.671875 L 68.453125 99.65625 L 68.453125 99.34375 L 70.453125 99.34375 L 70.453125 103.65625 L 70.484375 104.171875 C 70.492188 104.371094 70.523438 104.496094 70.578125 104.546875 C 70.640625 104.601562 70.769531 104.632812 70.96875 104.640625 L 71.328125 104.671875 L 71.421875 104.671875 L 71.421875 105 Z M 73.796875 100.40625 C 74.035156 100.03125 74.335938 99.742188 74.703125 99.53125 C 75.066406 99.324219 75.441406 99.21875 75.828125 99.21875 C 76.316406 99.21875 76.695312 99.382812 76.96875 99.703125 C 77.25 100.015625 77.390625 100.453125 77.390625 101.015625 L 77.390625 103.65625 L 77.4375 104.171875 C 77.445312 104.371094 77.476562 104.496094 77.53125 104.546875 C 77.582031 104.601562 77.707031 104.632812 77.90625 104.640625 L 78.265625 104.671875 L 78.359375 104.671875 L 78.359375 105 L 75.40625 105 L 75.40625 104.671875 L 75.5 104.671875 L 75.84375 104.640625 C 76.039062 104.632812 76.164062 104.601562 76.21875 104.546875 C 76.28125 104.496094 76.316406 104.371094 76.328125 104.171875 L 76.359375 103.65625 L 76.359375 101.171875 C 76.359375 100.695312 76.296875 100.359375 76.171875 100.171875 C 76.046875 99.976562 75.820312 99.875 75.5 99.875 C 75.03125 99.875 74.460938 100.167969 73.796875 100.75 L 73.796875 103.65625 C 73.796875 103.9375 73.816406 104.1875 73.859375 104.40625 C 73.878906 104.492188 73.914062 104.546875 73.96875 104.578125 C 74.03125 104.609375 74.144531 104.632812 74.3125 104.640625 L 74.65625 104.671875 L 74.765625 104.671875 L 74.765625 105 L 71.796875 105 L 71.796875 104.671875 L 71.90625 104.671875 L 72.25 104.640625 C 72.445312 104.632812 72.570312 104.601562 72.625 104.546875 C 72.6875 104.496094 72.722656 104.371094 72.734375 104.171875 L 72.765625 103.65625 L 72.765625 100.6875 L 72.734375 100.1875 C 72.722656 99.992188 72.6875 99.867188 72.625 99.8125 C 72.570312 99.75 72.445312 99.714844 72.25 99.703125 L 71.90625 99.671875 L 71.796875 99.65625 L 71.796875 99.34375 L 73.796875 99.34375 Z M 82.105469 104.96875 C 81.84375 105.070312 81.597656 105.125 81.371094 105.125 C 80.839844 105.125 80.417969 104.992188 80.105469 104.71875 C 79.925781 104.554688 79.800781 104.367188 79.730469 104.15625 C 79.667969 103.949219 79.636719 103.640625 79.636719 103.234375 L 79.636719 99.765625 L 78.808594 99.765625 L 78.808594 99.34375 L 79.636719 99.34375 L 79.636719 98.3125 L 80.667969 98.0625 L 80.667969 99.34375 L 82.246094 99.34375 L 82.246094 99.765625 L 80.667969 99.765625 L 80.667969 103.375 C 80.667969 103.867188 80.714844 104.1875 80.808594 104.34375 C 80.941406 104.59375 81.175781 104.71875 81.511719 104.71875 C 81.675781 104.71875 81.875 104.664062 82.105469 104.546875 Z M 84.722656 100.890625 L 84.722656 103.65625 C 84.722656 103.9375 84.742188 104.1875 84.785156 104.40625 C 84.804688 104.492188 84.839844 104.546875 84.894531 104.578125 C 84.957031 104.609375 85.070312 104.632812 85.238281 104.640625 L 85.582031 104.671875 L 85.816406 104.671875 L 85.816406 105 L 82.722656 105 L 82.722656 104.671875 L 82.832031 104.671875 L 83.175781 104.640625 C 83.371094 104.632812 83.496094 104.601562 83.550781 104.546875 C 83.613281 104.496094 83.648438 104.371094 83.660156 104.171875 L 83.691406 103.65625 L 83.691406 100.6875 L 83.660156 100.1875 C 83.648438 99.992188 83.613281 99.867188 83.550781 99.8125 C 83.496094 99.75 83.371094 99.714844 83.175781 99.703125 L 82.832031 99.671875 L 82.722656 99.65625 L 82.722656 99.34375 L 84.722656 99.34375 L 84.722656 100.40625 C 85.191406 99.617188 85.800781 99.21875 86.550781 99.21875 C 86.652344 99.21875 86.773438 99.234375 86.910156 99.265625 L 86.910156 100.828125 L 86.332031 100.828125 L 86.316406 100.734375 L 86.269531 100.34375 C 86.257812 100.230469 86.230469 100.15625 86.191406 100.125 C 86.160156 100.085938 86.089844 100.0625 85.988281 100.0625 C 85.738281 100.0625 85.503906 100.136719 85.285156 100.28125 C 85.066406 100.417969 84.878906 100.621094 84.722656 100.890625 Z M 88.089844 107.0625 L 89.949219 105 L 88.167969 100.71875 C 87.980469 100.261719 87.839844 99.976562 87.746094 99.859375 C 87.660156 99.746094 87.527344 99.683594 87.339844 99.671875 L 87.230469 99.65625 L 87.230469 99.34375 L 89.808594 99.34375 L 89.808594 99.65625 L 89.699219 99.65625 L 89.371094 99.671875 C 89.121094 99.671875 88.996094 99.734375 88.996094 99.859375 C 88.996094 99.902344 89.011719 99.953125 89.042969 100.015625 C 89.050781 100.046875 89.09375 100.164062 89.167969 100.359375 C 89.199219 100.476562 89.238281 100.59375 89.292969 100.71875 L 90.558594 103.75 L 91.902344 100.703125 L 92.027344 100.375 L 92.183594 100.015625 C 92.191406 99.964844 92.199219 99.917969 92.199219 99.875 C 92.199219 99.742188 92.074219 99.671875 91.824219 99.671875 L 91.574219 99.65625 L 91.433594 99.65625 L 91.433594 99.34375 L 93.121094 99.34375 L 93.121094 99.65625 L 93.011719 99.671875 C 92.886719 99.683594 92.78125 99.730469 92.699219 99.8125 C 92.625 99.898438 92.546875 100.046875 92.464844 100.265625 C 92.433594 100.328125 92.363281 100.476562 92.261719 100.703125 L 89.386719 107.0625 Z M 98.546875 100.40625 C 98.785156 100.03125 99.085938 99.742188 99.453125 99.53125 C 99.816406 99.324219 100.191406 99.21875 100.578125 99.21875 C 101.066406 99.21875 101.445312 99.382812 101.71875 99.703125 C 102 100.015625 102.140625 100.453125 102.140625 101.015625 L 102.140625 103.65625 L 102.1875 104.171875 C 102.195312 104.371094 102.226562 104.496094 102.28125 104.546875 C 102.332031 104.601562 102.457031 104.632812 102.65625 104.640625 L 103.015625 104.671875 L 103.109375 104.671875 L 103.109375 105 L 100.15625 105 L 100.15625 104.671875 L 100.25 104.671875 L 100.59375 104.640625 C 100.789062 104.632812 100.914062 104.601562 100.96875 104.546875 C 101.03125 104.496094 101.066406 104.371094 101.078125 104.171875 L 101.109375 103.65625 L 101.109375 101.171875 C 101.109375 100.695312 101.046875 100.359375 100.921875 100.171875 C 100.796875 99.976562 100.570312 99.875 100.25 99.875 C 99.78125 99.875 99.210938 100.167969 98.546875 100.75 L 98.546875 103.65625 C 98.546875 103.9375 98.566406 104.1875 98.609375 104.40625 C 98.628906 104.492188 98.664062 104.546875 98.71875 104.578125 C 98.78125 104.609375 98.894531 104.632812 99.0625 104.640625 L 99.40625 104.671875 L 99.515625 104.671875 L 99.515625 105 L 96.546875 105 L 96.546875 104.671875 L 96.65625 104.671875 L 97 104.640625 C 97.195312 104.632812 97.320312 104.601562 97.375 104.546875 C 97.4375 104.496094 97.472656 104.371094 97.484375 104.171875 L 97.515625 103.65625 L 97.515625 100.6875 L 97.484375 100.1875 C 97.472656 99.992188 97.4375 99.867188 97.375 99.8125 C 97.320312 99.75 97.195312 99.714844 97 99.703125 L 96.65625 99.671875 L 96.546875 99.65625 L 96.546875 99.34375 L 98.546875 99.34375 Z M 107.125 104.21875 C 106.78125 104.5625 106.472656 104.804688 106.203125 104.9375 C 105.941406 105.0625 105.644531 105.125 105.3125 105.125 C 104.832031 105.125 104.429688 104.976562 104.109375 104.671875 C 103.785156 104.371094 103.625 103.992188 103.625 103.53125 C 103.625 103 103.832031 102.570312 104.25 102.234375 C 104.519531 102.015625 104.832031 101.867188 105.1875 101.78125 C 105.550781 101.699219 106.046875 101.65625 106.671875 101.65625 L 106.890625 101.65625 L 106.890625 100.953125 C 106.890625 100.058594 106.550781 99.609375 105.875 99.609375 C 105.550781 99.609375 105.269531 99.710938 105.03125 99.90625 C 104.882812 100.023438 104.796875 100.261719 104.765625 100.625 L 104.75 100.734375 L 104.0625 100.734375 L 104.0625 99.6875 C 104.78125 99.375 105.445312 99.21875 106.0625 99.21875 C 106.59375 99.21875 107.03125 99.34375 107.375 99.59375 C 107.582031 99.75 107.722656 99.921875 107.796875 100.109375 C 107.867188 100.296875 107.90625 100.5625 107.90625 100.90625 L 107.90625 103.4375 C 107.90625 103.886719 107.941406 104.203125 108.015625 104.390625 C 108.097656 104.570312 108.238281 104.65625 108.4375 104.65625 C 108.507812 104.65625 108.601562 104.640625 108.71875 104.609375 L 108.75 105 C 108.5 105.082031 108.273438 105.125 108.078125 105.125 C 107.578125 105.125 107.257812 104.824219 107.125 104.21875 Z M 106.890625 104.109375 L 106.890625 101.984375 L 106.640625 101.984375 C 106.035156 101.984375 105.5625 102.109375 105.21875 102.359375 C 104.882812 102.601562 104.71875 102.945312 104.71875 103.390625 C 104.71875 103.714844 104.820312 103.984375 105.03125 104.203125 C 105.238281 104.414062 105.503906 104.515625 105.828125 104.515625 C 106.128906 104.515625 106.484375 104.382812 106.890625 104.109375 Z M 111.089844 100.40625 C 111.683594 99.617188 112.332031 99.21875 113.042969 99.21875 C 113.4375 99.21875 113.761719 99.324219 114.011719 99.53125 C 114.261719 99.730469 114.421875 100.023438 114.496094 100.40625 C 114.859375 99.96875 115.191406 99.664062 115.496094 99.484375 C 115.796875 99.308594 116.136719 99.21875 116.511719 99.21875 C 116.980469 99.21875 117.347656 99.371094 117.621094 99.671875 C 117.890625 99.964844 118.027344 100.371094 118.027344 100.890625 L 118.027344 103.65625 C 118.027344 103.9375 118.050781 104.1875 118.105469 104.40625 C 118.125 104.492188 118.160156 104.546875 118.214844 104.578125 C 118.265625 104.609375 118.375 104.632812 118.542969 104.640625 L 118.902344 104.671875 L 118.996094 104.671875 L 118.996094 105 L 116.042969 105 L 116.042969 104.671875 L 116.136719 104.671875 L 116.496094 104.640625 C 116.652344 104.632812 116.753906 104.609375 116.808594 104.578125 C 116.871094 104.546875 116.910156 104.492188 116.933594 104.40625 C 116.972656 104.1875 116.996094 103.9375 116.996094 103.65625 L 116.996094 101.078125 C 116.996094 100.632812 116.9375 100.324219 116.824219 100.15625 C 116.707031 99.980469 116.503906 99.890625 116.214844 99.890625 C 115.703125 99.890625 115.152344 100.183594 114.558594 100.765625 L 114.558594 103.65625 L 114.589844 104.171875 C 114.597656 104.371094 114.628906 104.496094 114.683594 104.546875 C 114.746094 104.601562 114.875 104.632812 115.074219 104.640625 L 115.433594 104.671875 L 115.527344 104.671875 L 115.527344 105 L 112.558594 105 L 112.558594 104.671875 L 112.667969 104.671875 L 113.011719 104.640625 C 113.175781 104.632812 113.285156 104.609375 113.339844 104.578125 C 113.402344 104.546875 113.441406 104.492188 113.464844 104.40625 C 113.503906 104.1875 113.527344 103.9375 113.527344 103.65625 L 113.527344 101.078125 C 113.527344 100.632812 113.46875 100.324219 113.355469 100.15625 C 113.238281 99.980469 113.035156 99.890625 112.746094 99.890625 C 112.203125 99.890625 111.652344 100.183594 111.089844 100.765625 L 111.089844 103.65625 C 111.089844 103.9375 111.109375 104.1875 111.152344 104.40625 C 111.171875 104.492188 111.207031 104.546875 111.261719 104.578125 C 111.324219 104.609375 111.4375 104.632812 111.605469 104.640625 L 111.949219 104.671875 L 112.058594 104.671875 L 112.058594 105 L 109.089844 105 L 109.089844 104.671875 L 109.199219 104.671875 L 109.542969 104.640625 C 109.738281 104.632812 109.863281 104.601562 109.917969 104.546875 C 109.980469 104.496094 110.015625 104.371094 110.027344 104.171875 L 110.058594 103.65625 L 110.058594 100.6875 L 110.027344 100.1875 C 110.015625 99.992188 109.980469 99.867188 109.917969 99.8125 C 109.863281 99.75 109.738281 99.714844 109.542969 99.703125 L 109.199219 99.671875 L 109.089844 99.65625 L 109.089844 99.34375 L 111.089844 99.34375 Z M 124.105469 104.75 C 123.449219 105 122.847656 105.125 122.308594 105.125 C 121.484375 105.125 120.8125 104.851562 120.292969 104.296875 C 119.769531 103.734375 119.511719 103.007812 119.511719 102.109375 C 119.511719 101.265625 119.738281 100.574219 120.199219 100.03125 C 120.667969 99.492188 121.265625 99.21875 121.996094 99.21875 C 122.671875 99.21875 123.191406 99.449219 123.558594 99.90625 C 123.921875 100.355469 124.105469 101 124.105469 101.84375 L 124.105469 101.953125 L 120.652344 101.953125 C 120.652344 102.726562 120.753906 103.308594 120.964844 103.703125 C 121.296875 104.308594 121.800781 104.609375 122.480469 104.609375 C 123.113281 104.609375 123.65625 104.480469 124.105469 104.21875 Z M 120.667969 101.625 L 123.011719 101.625 L 123.011719 101.390625 C 123.011719 100.984375 122.988281 100.6875 122.949219 100.5 C 122.917969 100.304688 122.847656 100.125 122.746094 99.96875 C 122.546875 99.679688 122.277344 99.53125 121.933594 99.53125 C 121.546875 99.53125 121.238281 99.726562 121.011719 100.109375 C 120.78125 100.484375 120.667969 100.992188 120.667969 101.625 Z M 120.667969 101.625 "/>
<path style=" stroke:none;fill-rule:evenodd;fill:rgb(0%,0%,0%);fill-opacity:1;" d="M 13.890625 74.8125 C 13.347656 75.019531 12.816406 75.125 12.296875 75.125 C 11.472656 75.125 10.800781 74.851562 10.28125 74.296875 C 9.769531 73.746094 9.515625 73.027344 9.515625 72.140625 C 9.515625 71.265625 9.757812 70.5625 10.25 70.03125 C 10.75 69.492188 11.40625 69.21875 12.21875 69.21875 C 12.644531 69.21875 13.203125 69.304688 13.890625 69.46875 L 13.890625 70.828125 L 13.25 70.828125 L 13.234375 70.734375 C 13.234375 70.320312 13.171875 70.039062 13.046875 69.890625 C 12.859375 69.671875 12.582031 69.5625 12.21875 69.5625 C 11.71875 69.5625 11.320312 69.792969 11.03125 70.25 C 10.738281 70.699219 10.59375 71.308594 10.59375 72.078125 C 10.59375 72.859375 10.765625 73.480469 11.109375 73.9375 C 11.453125 74.398438 11.925781 74.625 12.53125 74.625 C 13.039062 74.625 13.492188 74.539062 13.890625 74.359375 Z M 17.601562 75.125 C 16.789062 75.125 16.140625 74.859375 15.664062 74.328125 C 15.183594 73.796875 14.945312 73.078125 14.945312 72.171875 C 14.945312 71.257812 15.183594 70.539062 15.664062 70.015625 C 16.152344 69.484375 16.8125 69.21875 17.648438 69.21875 C 18.480469 69.21875 19.136719 69.484375 19.617188 70.015625 C 20.105469 70.539062 20.351562 71.25 20.351562 72.15625 C 20.351562 73.085938 20.105469 73.8125 19.617188 74.34375 C 19.125 74.867188 18.453125 75.125 17.601562 75.125 Z M 17.617188 74.8125 C 18.09375 74.8125 18.484375 74.5625 18.789062 74.0625 C 19.101562 73.5625 19.257812 72.929688 19.257812 72.15625 C 19.257812 71.417969 19.101562 70.796875 18.789062 70.296875 C 18.484375 69.789062 18.105469 69.53125 17.648438 69.53125 C 17.1875 69.53125 16.804688 69.789062 16.492188 70.296875 C 16.1875 70.796875 16.039062 71.421875 16.039062 72.171875 C 16.039062 72.921875 16.1875 73.554688 16.492188 74.0625 C 16.792969 74.5625 17.167969 74.8125 17.617188 74.8125 Z M 25.421875 75 L 25.421875 73.9375 C 25.179688 74.3125 24.878906 74.605469 24.515625 74.8125 C 24.148438 75.019531 23.773438 75.125 23.390625 75.125 C 22.898438 75.125 22.515625 74.96875 22.234375 74.65625 C 21.960938 74.335938 21.828125 73.890625 21.828125 73.328125 L 21.828125 70.6875 L 21.796875 70.1875 C 21.773438 69.992188 21.738281 69.867188 21.6875 69.8125 C 21.632812 69.75 21.507812 69.714844 21.3125 69.703125 L 20.953125 69.671875 L 20.859375 69.65625 L 20.859375 69.34375 L 22.84375 69.34375 L 22.84375 73.171875 C 22.84375 73.640625 22.910156 73.976562 23.046875 74.171875 C 23.191406 74.371094 23.4375 74.46875 23.78125 74.46875 C 24.019531 74.46875 24.296875 74.386719 24.609375 74.21875 C 24.921875 74.054688 25.191406 73.84375 25.421875 73.59375 L 25.421875 70.6875 L 25.390625 70.1875 C 25.378906 69.980469 25.34375 69.851562 25.28125 69.796875 C 25.226562 69.746094 25.101562 69.714844 24.90625 69.703125 L 24.546875 69.671875 L 24.453125 69.65625 L 24.453125 69.34375 L 26.453125 69.34375 L 26.453125 73.65625 L 26.484375 74.171875 C 26.492188 74.371094 26.523438 74.496094 26.578125 74.546875 C 26.640625 74.601562 26.769531 74.632812 26.96875 74.640625 L 27.328125 74.671875 L 27.421875 74.671875 L 27.421875 75 Z M 29.796875 70.40625 C 30.035156 70.03125 30.335938 69.742188 30.703125 69.53125 C 31.066406 69.324219 31.441406 69.21875 31.828125 69.21875 C 32.316406 69.21875 32.695312 69.382812 32.96875 69.703125 C 33.25 70.015625 33.390625 70.453125 33.390625 71.015625 L 33.390625 73.65625 L 33.4375 74.171875 C 33.445312 74.371094 33.476562 74.496094 33.53125 74.546875 C 33.582031 74.601562 33.707031 74.632812 33.90625 74.640625 L 34.265625 74.671875 L 34.359375 74.671875 L 34.359375 75 L 31.40625 75 L 31.40625 74.671875 L 31.5 74.671875 L 31.84375 74.640625 C 32.039062 74.632812 32.164062 74.601562 32.21875 74.546875 C 32.28125 74.496094 32.316406 74.371094 32.328125 74.171875 L 32.359375 73.65625 L 32.359375 71.171875 C 32.359375 70.695312 32.296875 70.359375 32.171875 70.171875 C 32.046875 69.976562 31.820312 69.875 31.5 69.875 C 31.03125 69.875 30.460938 70.167969 29.796875 70.75 L 29.796875 73.65625 C 29.796875 73.9375 29.816406 74.1875 29.859375 74.40625 C 29.878906 74.492188 29.914062 74.546875 29.96875 74.578125 C 30.03125 74.609375 30.144531 74.632812 30.3125 74.640625 L 30.65625 74.671875 L 30.765625 74.671875 L 30.765625 75 L 27.796875 75 L 27.796875 74.671875 L 27.90625 74.671875 L 28.25 74.640625 C 28.445312 74.632812 28.570312 74.601562 28.625 74.546875 C 28.6875 74.496094 28.722656 74.371094 28.734375 74.171875 L 28.765625 73.65625 L 28.765625 70.6875 L 28.734375 70.1875 C 28.722656 69.992188 28.6875 69.867188 28.625 69.8125 C 28.570312 69.75 28.445312 69.714844 28.25 69.703125 L 27.90625 69.671875 L 27.796875 69.65625 L 27.796875 69.34375 L 29.796875 69.34375 Z M 38.105469 74.96875 C 37.84375 75.070312 37.597656 75.125 37.371094 75.125 C 36.839844 75.125 36.417969 74.992188 36.105469 74.71875 C 35.925781 74.554688 35.800781 74.367188 35.730469 74.15625 C 35.667969 73.949219 35.636719 73.640625 35.636719 73.234375 L 35.636719 69.765625 L 34.808594 69.765625 L 34.808594 69.34375 L 35.636719 69.34375 L 35.636719 68.3125 L 36.667969 68.0625 L 36.667969 69.34375 L 38.246094 69.34375 L 38.246094 69.765625 L 36.667969 69.765625 L 36.667969 73.375 C 36.667969 73.867188 36.714844 74.1875 36.808594 74.34375 C 36.941406 74.59375 37.175781 74.71875 37.511719 74.71875 C 37.675781 74.71875 37.875 74.664062 38.105469 74.546875 Z M 40.722656 70.890625 L 40.722656 73.65625 C 40.722656 73.9375 40.742188 74.1875 40.785156 74.40625 C 40.804688 74.492188 40.839844 74.546875 40.894531 74.578125 C 40.957031 74.609375 41.070312 74.632812 41.238281 74.640625 L 41.582031 74.671875 L 41.816406 74.671875 L 41.816406 75 L 38.722656 75 L 38.722656 74.671875 L 38.832031 74.671875 L 39.175781 74.640625 C 39.371094 74.632812 39.496094 74.601562 39.550781 74.546875 C 39.613281 74.496094 39.648438 74.371094 39.660156 74.171875 L 39.691406 73.65625 L 39.691406 70.6875 L 39.660156 70.1875 C 39.648438 69.992188 39.613281 69.867188 39.550781 69.8125 C 39.496094 69.75 39.371094 69.714844 39.175781 69.703125 L 38.832031 69.671875 L 38.722656 69.65625 L 38.722656 69.34375 L 40.722656 69.34375 L 40.722656 70.40625 C 41.191406 69.617188 41.800781 69.21875 42.550781 69.21875 C 42.652344 69.21875 42.773438 69.234375 42.910156 69.265625 L 42.910156 70.828125 L 42.332031 70.828125 L 42.316406 70.734375 L 42.269531 70.34375 C 42.257812 70.230469 42.230469 70.15625 42.191406 70.125 C 42.160156 70.085938 42.089844 70.0625 41.988281 70.0625 C 41.738281 70.0625 41.503906 70.136719 41.285156 70.28125 C 41.066406 70.417969 40.878906 70.621094 40.722656 70.890625 Z M 44.089844 77.0625 L 45.949219 75 L 44.167969 70.71875 C 43.980469 70.261719 43.839844 69.976562 43.746094 69.859375 C 43.660156 69.746094 43.527344 69.683594 43.339844 69.671875 L 43.230469 69.65625 L 43.230469 69.34375 L 45.808594 69.34375 L 45.808594 69.65625 L 45.699219 69.65625 L 45.371094 69.671875 C 45.121094 69.671875 44.996094 69.734375 44.996094 69.859375 C 44.996094 69.902344 45.011719 69.953125 45.042969 70.015625 C 45.050781 70.046875 45.09375 70.164062 45.167969 70.359375 C 45.199219 70.476562 45.238281 70.59375 45.292969 70.71875 L 46.558594 73.75 L 47.902344 70.703125 L 48.027344 70.375 L 48.183594 70.015625 C 48.191406 69.964844 48.199219 69.917969 48.199219 69.875 C 48.199219 69.742188 48.074219 69.671875 47.824219 69.671875 L 47.574219 69.65625 L 47.433594 69.65625 L 47.433594 69.34375 L 49.121094 69.34375 L 49.121094 69.65625 L 49.011719 69.671875 C 48.886719 69.683594 48.78125 69.730469 48.699219 69.8125 C 48.625 69.898438 48.546875 70.046875 48.464844 70.265625 C 48.433594 70.328125 48.363281 70.476562 48.261719 70.703125 L 45.386719 77.0625 Z M 54.546875 70.40625 C 54.785156 70.03125 55.085938 69.742188 55.453125 69.53125 C 55.816406 69.324219 56.191406 69.21875 56.578125 69.21875 C 57.066406 69.21875 57.445312 69.382812 57.71875 69.703125 C 58 70.015625 58.140625 70.453125 58.140625 71.015625 L 58.140625 73.65625 L 58.1875 74.171875 C 58.195312 74.371094 58.226562 74.496094 58.28125 74.546875 C 58.332031 74.601562 58.457031 74.632812 58.65625 74.640625 L 59.015625 74.671875 L 59.109375 74.671875 L 59.109375 75 L 56.15625 75 L 56.15625 74.671875 L 56.25 74.671875 L 56.59375 74.640625 C 56.789062 74.632812 56.914062 74.601562 56.96875 74.546875 C 57.03125 74.496094 57.066406 74.371094 57.078125 74.171875 L 57.109375 73.65625 L 57.109375 71.171875 C 57.109375 70.695312 57.046875 70.359375 56.921875 70.171875 C 56.796875 69.976562 56.570312 69.875 56.25 69.875 C 55.78125 69.875 55.210938 70.167969 54.546875 70.75 L 54.546875 73.65625 C 54.546875 73.9375 54.566406 74.1875 54.609375 74.40625 C 54.628906 74.492188 54.664062 74.546875 54.71875 74.578125 C 54.78125 74.609375 54.894531 74.632812 55.0625 74.640625 L 55.40625 74.671875 L 55.515625 74.671875 L 55.515625 75 L 52.546875 75 L 52.546875 74.671875 L 52.65625 74.671875 L 53 74.640625 C 53.195312 74.632812 53.320312 74.601562 53.375 74.546875 C 53.4375 74.496094 53.472656 74.371094 53.484375 74.171875 L 53.515625 73.65625 L 53.515625 70.6875 L 53.484375 70.1875 C 53.472656 69.992188 53.4375 69.867188 53.375 69.8125 C 53.320312 69.75 53.195312 69.714844 53 69.703125 L 52.65625 69.671875 L 52.546875 69.65625 L 52.546875 69.34375 L 54.546875 69.34375 Z M 63.125 74.21875 C 62.78125 74.5625 62.472656 74.804688 62.203125 74.9375 C 61.941406 75.0625 61.644531 75.125 61.3125 75.125 C 60.832031 75.125 60.429688 74.976562 60.109375 74.671875 C 59.785156 74.371094 59.625 73.992188 59.625 73.53125 C 59.625 73 59.832031 72.570312 60.25 72.234375 C 60.519531 72.015625 60.832031 71.867188 61.1875 71.78125 C 61.550781 71.699219 62.046875 71.65625 62.671875 71.65625 L 62.890625 71.65625 L 62.890625 70.953125 C 62.890625 70.058594 62.550781 69.609375 61.875 69.609375 C 61.550781 69.609375 61.269531 69.710938 61.03125 69.90625 C 60.882812 70.023438 60.796875 70.261719 60.765625 70.625 L 60.75 70.734375 L 60.0625 70.734375 L 60.0625 69.6875 C 60.78125 69.375 61.445312 69.21875 62.0625 69.21875 C 62.59375 69.21875 63.03125 69.34375 63.375 69.59375 C 63.582031 69.75 63.722656 69.921875 63.796875 70.109375 C 63.867188 70.296875 63.90625 70.5625 63.90625 70.90625 L 63.90625 73.4375 C 63.90625 73.886719 63.941406 74.203125 64.015625 74.390625 C 64.097656 74.570312 64.238281 74.65625 64.4375 74.65625 C 64.507812 74.65625 64.601562 74.640625 64.71875 74.609375 L 64.75 75 C 64.5 75.082031 64.273438 75.125 64.078125 75.125 C 63.578125 75.125 63.257812 74.824219 63.125 74.21875 Z M 62.890625 74.109375 L 62.890625 71.984375 L 62.640625 71.984375 C 62.035156 71.984375 61.5625 72.109375 61.21875 72.359375 C 60.882812 72.601562 60.71875 72.945312 60.71875 73.390625 C 60.71875 73.714844 60.820312 73.984375 61.03125 74.203125 C 61.238281 74.414062 61.503906 74.515625 61.828125 74.515625 C 62.128906 74.515625 62.484375 74.382812 62.890625 74.109375 Z M 67.089844 70.40625 C 67.683594 69.617188 68.332031 69.21875 69.042969 69.21875 C 69.4375 69.21875 69.761719 69.324219 70.011719 69.53125 C 70.261719 69.730469 70.421875 70.023438 70.496094 70.40625 C 70.859375 69.96875 71.191406 69.664062 71.496094 69.484375 C 71.796875 69.308594 72.136719 69.21875 72.511719 69.21875 C 72.980469 69.21875 73.347656 69.371094 73.621094 69.671875 C 73.890625 69.964844 74.027344 70.371094 74.027344 70.890625 L 74.027344 73.65625 C 74.027344 73.9375 74.050781 74.1875 74.105469 74.40625 C 74.125 74.492188 74.160156 74.546875 74.214844 74.578125 C 74.265625 74.609375 74.375 74.632812 74.542969 74.640625 L 74.902344 74.671875 L 74.996094 74.671875 L 74.996094 75 L 72.042969 75 L 72.042969 74.671875 L 72.136719 74.671875 L 72.496094 74.640625 C 72.652344 74.632812 72.753906 74.609375 72.808594 74.578125 C 72.871094 74.546875 72.910156 74.492188 72.933594 74.40625 C 72.972656 74.1875 72.996094 73.9375 72.996094 73.65625 L 72.996094 71.078125 C 72.996094 70.632812 72.9375 70.324219 72.824219 70.15625 C 72.707031 69.980469 72.503906 69.890625 72.214844 69.890625 C 71.703125 69.890625 71.152344 70.183594 70.558594 70.765625 L 70.558594 73.65625 L 70.589844 74.171875 C 70.597656 74.371094 70.628906 74.496094 70.683594 74.546875 C 70.746094 74.601562 70.875 74.632812 71.074219 74.640625 L 71.433594 74.671875 L 71.527344 74.671875 L 71.527344 75 L 68.558594 75 L 68.558594 74.671875 L 68.667969 74.671875 L 69.011719 74.640625 C 69.175781 74.632812 69.285156 74.609375 69.339844 74.578125 C 69.402344 74.546875 69.441406 74.492188 69.464844 74.40625 C 69.503906 74.1875 69.527344 73.9375 69.527344 73.65625 L 69.527344 71.078125 C 69.527344 70.632812 69.46875 70.324219 69.355469 70.15625 C 69.238281 69.980469 69.035156 69.890625 68.746094 69.890625 C 68.203125 69.890625 67.652344 70.183594 67.089844 70.765625 L 67.089844 73.65625 C 67.089844 73.9375 67.109375 74.1875 67.152344 74.40625 C 67.171875 74.492188 67.207031 74.546875 67.261719 74.578125 C 67.324219 74.609375 67.4375 74.632812 67.605469 74.640625 L 67.949219 74.671875 L 68.058594 74.671875 L 68.058594 75 L 65.089844 75 L 65.089844 74.671875 L 65.199219 74.671875 L 65.542969 74.640625 C 65.738281 74.632812 65.863281 74.601562 65.917969 74.546875 C 65.980469 74.496094 66.015625 74.371094 66.027344 74.171875 L 66.058594 73.65625 L 66.058594 70.6875 L 66.027344 70.1875 C 66.015625 69.992188 65.980469 69.867188 65.917969 69.8125 C 65.863281 69.75 65.738281 69.714844 65.542969 69.703125 L 65.199219 69.671875 L 65.089844 69.65625 L 65.089844 69.34375 L 67.089844 69.34375 Z M 80.105469 74.75 C 79.449219 75 78.847656 75.125 78.308594 75.125 C 77.484375 75.125 76.8125 74.851562 76.292969 74.296875 C 75.769531 73.734375 75.511719 73.007812 75.511719 72.109375 C 75.511719 71.265625 75.738281 70.574219 76.199219 70.03125 C 76.667969 69.492188 77.265625 69.21875 77.996094 69.21875 C 78.671875 69.21875 79.191406 69.449219 79.558594 69.90625 C 79.921875 70.355469 80.105469 71 80.105469 71.84375 L 80.105469 71.953125 L 76.652344 71.953125 C 76.652344 72.726562 76.753906 73.308594 76.964844 73.703125 C 77.296875 74.308594 77.800781 74.609375 78.480469 74.609375 C 79.113281 74.609375 79.65625 74.480469 80.105469 74.21875 Z M 76.667969 71.625 L 79.011719 71.625 L 79.011719 71.390625 C 79.011719 70.984375 78.988281 70.6875 78.949219 70.5 C 78.917969 70.304688 78.847656 70.125 78.746094 69.96875 C 78.546875 69.679688 78.277344 69.53125 77.933594 69.53125 C 77.546875 69.53125 77.238281 69.726562 77.011719 70.109375 C 76.78125 70.484375 76.667969 70.992188 76.667969 71.625 Z M 76.667969 71.625 "/>
<path style=" stroke:none;fill-rule:evenodd;fill:rgb(0%,0%,0%);fill-opacity:1;" d="M 133.890625 58.8125 C 133.347656 59.019531 132.816406 59.125 132.296875 59.125 C 131.472656 59.125 130.800781 58.851562 130.28125 58.296875 C 129.769531 57.746094 129.515625 57.027344 129.515625 56.140625 C 129.515625 55.265625 129.757812 54.5625 130.25 54.03125 C 130.75 53.492188 131.40625 53.21875 132.21875 53.21875 C 132.644531 53.21875 133.203125 53.304688 133.890625 53.46875 L 133.890625 54.828125 L 133.25 54.828125 L 133.234375 54.734375 C 133.234375 54.320312 133.171875 54.039062 133.046875 53.890625 C 132.859375 53.671875 132.582031 53.5625 132.21875 53.5625 C 131.71875 53.5625 131.320312 53.792969 131.03125 54.25 C 130.738281 54.699219 130.59375 55.308594 130.59375 56.078125 C 130.59375 56.859375 130.765625 57.480469 131.109375 57.9375 C 131.453125 58.398438 131.925781 58.625 132.53125 58.625 C 133.039062 58.625 133.492188 58.539062 133.890625 58.359375 Z M 137.601562 59.125 C 136.789062 59.125 136.140625 58.859375 135.664062 58.328125 C 135.183594 57.796875 134.945312 57.078125 134.945312 56.171875 C 134.945312 55.257812 135.183594 54.539062 135.664062 54.015625 C 136.152344 53.484375 136.8125 53.21875 137.648438 53.21875 C 138.480469 53.21875 139.136719 53.484375 139.617188 54.015625 C 140.105469 54.539062 140.351562 55.25 140.351562 56.15625 C 140.351562 57.085938 140.105469 57.8125 139.617188 58.34375 C 139.125 58.867188 138.453125 59.125 137.601562 59.125 Z M 137.617188 58.8125 C 138.09375 58.8125 138.484375 58.5625 138.789062 58.0625 C 139.101562 57.5625 139.257812 56.929688 139.257812 56.15625 C 139.257812 55.417969 139.101562 54.796875 138.789062 54.296875 C 138.484375 53.789062 138.105469 53.53125 137.648438 53.53125 C 137.1875 53.53125 136.804688 53.789062 136.492188 54.296875 C 136.1875 54.796875 136.039062 55.421875 136.039062 56.171875 C 136.039062 56.921875 136.1875 57.554688 136.492188 58.0625 C 136.792969 58.5625 137.167969 58.8125 137.617188 58.8125 Z M 145.421875 59 L 145.421875 57.9375 C 145.179688 58.3125 144.878906 58.605469 144.515625 58.8125 C 144.148438 59.019531 143.773438 59.125 143.390625 59.125 C 142.898438 59.125 142.515625 58.96875 142.234375 58.65625 C 141.960938 58.335938 141.828125 57.890625 141.828125 57.328125 L 141.828125 54.6875 L 141.796875 54.1875 C 141.773438 53.992188 141.738281 53.867188 141.6875 53.8125 C 141.632812 53.75 141.507812 53.714844 141.3125 53.703125 L 140.953125 53.671875 L 140.859375 53.65625 L 140.859375 53.34375 L 142.84375 53.34375 L 142.84375 57.171875 C 142.84375 57.640625 142.910156 57.976562 143.046875 58.171875 C 143.191406 58.371094 143.4375 58.46875 143.78125 58.46875 C 144.019531 58.46875 144.296875 58.386719 144.609375 58.21875 C 144.921875 58.054688 145.191406 57.84375 145.421875 57.59375 L 145.421875 54.6875 L 145.390625 54.1875 C 145.378906 53.980469 145.34375 53.851562 145.28125 53.796875 C 145.226562 53.746094 145.101562 53.714844 144.90625 53.703125 L 144.546875 53.671875 L 144.453125 53.65625 L 144.453125 53.34375 L 146.453125 53.34375 L 146.453125 57.65625 L 146.484375 58.171875 C 146.492188 58.371094 146.523438 58.496094 146.578125 58.546875 C 146.640625 58.601562 146.769531 58.632812 146.96875 58.640625 L 147.328125 58.671875 L 147.421875 58.671875 L 147.421875 59 Z M 149.796875 54.40625 C 150.035156 54.03125 150.335938 53.742188 150.703125 53.53125 C 151.066406 53.324219 151.441406 53.21875 151.828125 53.21875 C 152.316406 53.21875 152.695312 53.382812 152.96875 53.703125 C 153.25 54.015625 153.390625 54.453125 153.390625 55.015625 L 153.390625 57.65625 L 153.4375 58.171875 C 153.445312 58.371094 153.476562 58.496094 153.53125 58.546875 C 153.582031 58.601562 153.707031 58.632812 153.90625 58.640625 L 154.265625 58.671875 L 154.359375 58.671875 L 154.359375 59 L 151.40625 59 L 151.40625 58.671875 L 151.5 58.671875 L 151.84375 58.640625 C 152.039062 58.632812 152.164062 58.601562 152.21875 58.546875 C 152.28125 58.496094 152.316406 58.371094 152.328125 58.171875 L 152.359375 57.65625 L 152.359375 55.171875 C 152.359375 54.695312 152.296875 54.359375 152.171875 54.171875 C 152.046875 53.976562 151.820312 53.875 151.5 53.875 C 151.03125 53.875 150.460938 54.167969 149.796875 54.75 L 149.796875 57.65625 C 149.796875 57.9375 149.816406 58.1875 149.859375 58.40625 C 149.878906 58.492188 149.914062 58.546875 149.96875 58.578125 C 150.03125 58.609375 150.144531 58.632812 150.3125 58.640625 L 150.65625 58.671875 L 150.765625 58.671875 L 150.765625 59 L 147.796875 59 L 147.796875 58.671875 L 147.90625 58.671875 L 148.25 58.640625 C 148.445312 58.632812 148.570312 58.601562 148.625 58.546875 C 148.6875 58.496094 148.722656 58.371094 148.734375 58.171875 L 148.765625 57.65625 L 148.765625 54.6875 L 148.734375 54.1875 C 148.722656 53.992188 148.6875 53.867188 148.625 53.8125 C 148.570312 53.75 148.445312 53.714844 148.25 53.703125 L 147.90625 53.671875 L 147.796875 53.65625 L 147.796875 53.34375 L 149.796875 53.34375 Z M 158.105469 58.96875 C 157.84375 59.070312 157.597656 59.125 157.371094 59.125 C 156.839844 59.125 156.417969 58.992188 156.105469 58.71875 C 155.925781 58.554688 155.800781 58.367188 155.730469 58.15625 C 155.667969 57.949219 155.636719 57.640625 155.636719 57.234375 L 155.636719 53.765625 L 154.808594 53.765625 L 154.808594 53.34375 L 155.636719 53.34375 L 155.636719 52.3125 L 156.667969 52.0625 L 156.667969 53.34375 L 158.246094 53.34375 L 158.246094 53.765625 L 156.667969 53.765625 L 156.667969 57.375 C 156.667969 57.867188 156.714844 58.1875 156.808594 58.34375 C 156.941406 58.59375 157.175781 58.71875 157.511719 58.71875 C 157.675781 58.71875 157.875 58.664062 158.105469 58.546875 Z M 160.722656 54.890625 L 160.722656 57.65625 C 160.722656 57.9375 160.742188 58.1875 160.785156 58.40625 C 160.804688 58.492188 160.839844 58.546875 160.894531 58.578125 C 160.957031 58.609375 161.070312 58.632812 161.238281 58.640625 L 161.582031 58.671875 L 161.816406 58.671875 L 161.816406 59 L 158.722656 59 L 158.722656 58.671875 L 158.832031 58.671875 L 159.175781 58.640625 C 159.371094 58.632812 159.496094 58.601562 159.550781 58.546875 C 159.613281 58.496094 159.648438 58.371094 159.660156 58.171875 L 159.691406 57.65625 L 159.691406 54.6875 L 159.660156 54.1875 C 159.648438 53.992188 159.613281 53.867188 159.550781 53.8125 C 159.496094 53.75 159.371094 53.714844 159.175781 53.703125 L 158.832031 53.671875 L 158.722656 53.65625 L 158.722656 53.34375 L 160.722656 53.34375 L 160.722656 54.40625 C 161.191406 53.617188 161.800781 53.21875 162.550781 53.21875 C 162.652344 53.21875 162.773438 53.234375 162.910156 53.265625 L 162.910156 54.828125 L 162.332031 54.828125 L 162.316406 54.734375 L 162.269531 54.34375 C 162.257812 54.230469 162.230469 54.15625 162.191406 54.125 C 162.160156 54.085938 162.089844 54.0625 161.988281 54.0625 C 161.738281 54.0625 161.503906 54.136719 161.285156 54.28125 C 161.066406 54.417969 160.878906 54.621094 160.722656 54.890625 Z M 164.089844 61.0625 L 165.949219 59 L 164.167969 54.71875 C 163.980469 54.261719 163.839844 53.976562 163.746094 53.859375 C 163.660156 53.746094 163.527344 53.683594 163.339844 53.671875 L 163.230469 53.65625 L 163.230469 53.34375 L 165.808594 53.34375 L 165.808594 53.65625 L 165.699219 53.65625 L 165.371094 53.671875 C 165.121094 53.671875 164.996094 53.734375 164.996094 53.859375 C 164.996094 53.902344 165.011719 53.953125 165.042969 54.015625 C 165.050781 54.046875 165.09375 54.164062 165.167969 54.359375 C 165.199219 54.476562 165.238281 54.59375 165.292969 54.71875 L 166.558594 57.75 L 167.902344 54.703125 L 168.027344 54.375 L 168.183594 54.015625 C 168.191406 53.964844 168.199219 53.917969 168.199219 53.875 C 168.199219 53.742188 168.074219 53.671875 167.824219 53.671875 L 167.574219 53.65625 L 167.433594 53.65625 L 167.433594 53.34375 L 169.121094 53.34375 L 169.121094 53.65625 L 169.011719 53.671875 C 168.886719 53.683594 168.78125 53.730469 168.699219 53.8125 C 168.625 53.898438 168.546875 54.046875 168.464844 54.265625 C 168.433594 54.328125 168.363281 54.476562 168.261719 54.703125 L 165.386719 61.0625 Z M 174.546875 54.40625 C 174.785156 54.03125 175.085938 53.742188 175.453125 53.53125 C 175.816406 53.324219 176.191406 53.21875 176.578125 53.21875 C 177.066406 53.21875 177.445312 53.382812 177.71875 53.703125 C 178 54.015625 178.140625 54.453125 178.140625 55.015625 L 178.140625 57.65625 L 178.1875 58.171875 C 178.195312 58.371094 178.226562 58.496094 178.28125 58.546875 C 178.332031 58.601562 178.457031 58.632812 178.65625 58.640625 L 179.015625 58.671875 L 179.109375 58.671875 L 179.109375 59 L 176.15625 59 L 176.15625 58.671875 L 176.25 58.671875 L 176.59375 58.640625 C 176.789062 58.632812 176.914062 58.601562 176.96875 58.546875 C 177.03125 58.496094 177.066406 58.371094 177.078125 58.171875 L 177.109375 57.65625 L 177.109375 55.171875 C 177.109375 54.695312 177.046875 54.359375 176.921875 54.171875 C 176.796875 53.976562 176.570312 53.875 176.25 53.875 C 175.78125 53.875 175.210938 54.167969 174.546875 54.75 L 174.546875 57.65625 C 174.546875 57.9375 174.566406 58.1875 174.609375 58.40625 C 174.628906 58.492188 174.664062 58.546875 174.71875 58.578125 C 174.78125 58.609375 174.894531 58.632812 175.0625 58.640625 L 175.40625 58.671875 L 175.515625 58.671875 L 175.515625 59 L 172.546875 59 L 172.546875 58.671875 L 172.65625 58.671875 L 173 58.640625 C 173.195312 58.632812 173.320312 58.601562 173.375 58.546875 C 173.4375 58.496094 173.472656 58.371094 173.484375 58.171875 L 173.515625 57.65625 L 173.515625 54.6875 L 173.484375 54.1875 C 173.472656 53.992188 173.4375 53.867188 173.375 53.8125 C 173.320312 53.75 173.195312 53.714844 173 53.703125 L 172.65625 53.671875 L 172.546875 53.65625 L 172.546875 53.34375 L 174.546875 53.34375 Z M 183.125 58.21875 C 182.78125 58.5625 182.472656 58.804688 182.203125 58.9375 C 181.941406 59.0625 181.644531 59.125 181.3125 59.125 C 180.832031 59.125 180.429688 58.976562 180.109375 58.671875 C 179.785156 58.371094 179.625 57.992188 179.625 57.53125 C 179.625 57 179.832031 56.570312 180.25 56.234375 C 180.519531 56.015625 180.832031 55.867188 181.1875 55.78125 C 181.550781 55.699219 182.046875 55.65625 182.671875 55.65625 L 182.890625 55.65625 L 182.890625 54.953125 C 182.890625 54.058594 182.550781 53.609375 181.875 53.609375 C 181.550781 53.609375 181.269531 53.710938 181.03125 53.90625 C 180.882812 54.023438 180.796875 54.261719 180.765625 54.625 L 180.75 54.734375 L 180.0625 54.734375 L 180.0625 53.6875 C 180.78125 53.375 181.445312 53.21875 182.0625 53.21875 C 182.59375 53.21875 183.03125 53.34375 183.375 53.59375 C 183.582031 53.75 183.722656 53.921875 183.796875 54.109375 C 183.867188 54.296875 183.90625 54.5625 183.90625 54.90625 L 183.90625 57.4375 C 183.90625 57.886719 183.941406 58.203125 184.015625 58.390625 C 184.097656 58.570312 184.238281 58.65625 184.4375 58.65625 C 184.507812 58.65625 184.601562 58.640625 184.71875 58.609375 L 184.75 59 C 184.5 59.082031 184.273438 59.125 184.078125 59.125 C 183.578125 59.125 183.257812 58.824219 183.125 58.21875 Z M 182.890625 58.109375 L 182.890625 55.984375 L 182.640625 55.984375 C 182.035156 55.984375 181.5625 56.109375 181.21875 56.359375 C 180.882812 56.601562 180.71875 56.945312 180.71875 57.390625 C 180.71875 57.714844 180.820312 57.984375 181.03125 58.203125 C 181.238281 58.414062 181.503906 58.515625 181.828125 58.515625 C 182.128906 58.515625 182.484375 58.382812 182.890625 58.109375 Z M 187.089844 54.40625 C 187.683594 53.617188 188.332031 53.21875 189.042969 53.21875 C 189.4375 53.21875 189.761719 53.324219 190.011719 53.53125 C 190.261719 53.730469 190.421875 54.023438 190.496094 54.40625 C 190.859375 53.96875 191.191406 53.664062 191.496094 53.484375 C 191.796875 53.308594 192.136719 53.21875 192.511719 53.21875 C 192.980469 53.21875 193.347656 53.371094 193.621094 53.671875 C 193.890625 53.964844 194.027344 54.371094 194.027344 54.890625 L 194.027344 57.65625 C 194.027344 57.9375 194.050781 58.1875 194.105469 58.40625 C 194.125 58.492188 194.160156 58.546875 194.214844 58.578125 C 194.265625 58.609375 194.375 58.632812 194.542969 58.640625 L 194.902344 58.671875 L 194.996094 58.671875 L 194.996094 59 L 192.042969 59 L 192.042969 58.671875 L 192.136719 58.671875 L 192.496094 58.640625 C 192.652344 58.632812 192.753906 58.609375 192.808594 58.578125 C 192.871094 58.546875 192.910156 58.492188 192.933594 58.40625 C 192.972656 58.1875 192.996094 57.9375 192.996094 57.65625 L 192.996094 55.078125 C 192.996094 54.632812 192.9375 54.324219 192.824219 54.15625 C 192.707031 53.980469 192.503906 53.890625 192.214844 53.890625 C 191.703125 53.890625 191.152344 54.183594 190.558594 54.765625 L 190.558594 57.65625 L 190.589844 58.171875 C 190.597656 58.371094 190.628906 58.496094 190.683594 58.546875 C 190.746094 58.601562 190.875 58.632812 191.074219 58.640625 L 191.433594 58.671875 L 191.527344 58.671875 L 191.527344 59 L 188.558594 59 L 188.558594 58.671875 L 188.667969 58.671875 L 189.011719 58.640625 C 189.175781 58.632812 189.285156 58.609375 189.339844 58.578125 C 189.402344 58.546875 189.441406 58.492188 189.464844 58.40625 C 189.503906 58.1875 189.527344 57.9375 189.527344 57.65625 L 189.527344 55.078125 C 189.527344 54.632812 189.46875 54.324219 189.355469 54.15625 C 189.238281 53.980469 189.035156 53.890625 188.746094 53.890625 C 188.203125 53.890625 187.652344 54.183594 187.089844 54.765625 L 187.089844 57.65625 C 187.089844 57.9375 187.109375 58.1875 187.152344 58.40625 C 187.171875 58.492188 187.207031 58.546875 187.261719 58.578125 C 187.324219 58.609375 187.4375 58.632812 187.605469 58.640625 L 187.949219 58.671875 L 188.058594 58.671875 L 188.058594 59 L 185.089844 59 L 185.089844 58.671875 L 185.199219 58.671875 L 185.542969 58.640625 C 185.738281 58.632812 185.863281 58.601562 185.917969 58.546875 C 185.980469 58.496094 186.015625 58.371094 186.027344 58.171875 L 186.058594 57.65625 L 186.058594 54.6875 L 186.027344 54.1875 C 186.015625 53.992188 185.980469 53.867188 185.917969 53.8125 C 185.863281 53.75 185.738281 53.714844 185.542969 53.703125 L 185.199219 53.671875 L 185.089844 53.65625 L 185.089844 53.34375 L 187.089844 53.34375 Z M 200.105469 58.75 C 199.449219 59 198.847656 59.125 198.308594 59.125 C 197.484375 59.125 196.8125 58.851562 196.292969 58.296875 C 195.769531 57.734375 195.511719 57.007812 195.511719 56.109375 C 195.511719 55.265625 195.738281 54.574219 196.199219 54.03125 C 196.667969 53.492188 197.265625 53.21875 197.996094 53.21875 C 198.671875 53.21875 199.191406 53.449219 199.558594 53.90625 C 199.921875 54.355469 200.105469 55 200.105469 55.84375 L 200.105469 55.953125 L 196.652344 55.953125 C 196.652344 56.726562 196.753906 57.308594 196.964844 57.703125 C 197.296875 58.308594 197.800781 58.609375 198.480469 58.609375 C 199.113281 58.609375 199.65625 58.480469 200.105469 58.21875 Z M 196.667969 55.625 L 199.011719 55.625 L 199.011719 55.390625 C 199.011719 54.984375 198.988281 54.6875 198.949219 54.5 C 198.917969 54.304688 198.847656 54.125 198.746094 53.96875 C 198.546875 53.679688 198.277344 53.53125 197.933594 53.53125 C 197.546875 53.53125 197.238281 53.726562 197.011719 54.109375 C 196.78125 54.484375 196.667969 54.992188 196.667969 55.625 Z M 196.667969 55.625 "/>
</g>
</svg>
