<?xml version="1.0" encoding="UTF-8"?>
<svg xmlns="http://www.w3.org/2000/svg" xmlns:xlink="http://www.w3.org/1999/xlink" width="150pt" height="150pt" viewBox="0 0 150 150" version="1.1">
<g id="surface2">
<rect x="0" y="0" width="150" height="150" style="fill:rgb(64.705882%,74.901961%,86.666667%);fill-opacity:1;stroke:none;"/>
<path style=" stroke:none;fill-rule:evenodd;fill:rgb(53.333333%,53.333333%,53.333333%);fill-opacity:1;" d="M 0 149 L 49.667969 149 L 49.667969 99.332031 L 0 99.332031 Z M 0 149 "/>
<path style="fill:none;stroke-width:1;stroke-linecap:round;stroke-linejoin:round;stroke:rgb(0%,0%,0%);stroke-opacity:1;stroke-miterlimit:10;" d="M 0 149 L 49.667969 149 L 49.667969 99.332031 L 0 99.332031 L 0 149 "/>
<path style=" stroke:none;fill-rule:evenodd;fill:rgb(53.333333%,53.333333%,53.333333%);fill-opacity:1;" d="M 49.667969 149 L 99.332031 149 L 99.332031 99.332031 L 49.667969 99.332031 Z M 49.667969 149 "/>
<path style="fill:none;stroke-width:1;stroke-linecap:round;stroke-linejoin:round;stroke:rgb(0%,0%,0%);stroke-opacity:1;stroke-miterlimit:10;" d="M 49.667969 149 L 99.332031 149 L 99.332031 99.332031 L 49.667969 99.332031 L 49.667969 149 "/>
<path style=" stroke:none;fill-rule:evenodd;fill:rgb(53.333333%,53.333333%,53.333333%);fill-opacity:1;" d="M 99.332031 149 L 149 149 L 149 99.332031 L 99.332031 99.332031 Z M 99.332031 149 "/>
<path style="fill:none;stroke-width:1;stroke-linecap:round;stroke-linejoin:round;stroke:rgb(0%,0%,0%);stroke-opacity:1;stroke-miterlimit:10;" d="M 99.332031 149 L 149 149 L 149 99.332031 L 99.332031 99.332031 L 99.332031 149 "/>
<path style=" stroke:none;fill-rule:evenodd;fill:rgb(53.333333%,53.333333%,53.333333%);fill-opacity:1;" d="M 0 99.332031 L 49.667969 99.332031 L 49.667969 49.667969 L 0 49.667969 Z M 0 99.332031 "/>
<path style="fill:none;stroke-width:1;stroke-linecap:round;stroke-linejoin:round;stroke:rgb(0%,0%,0%);stroke-opacity:1;stroke-miterlimit:10;" d="M 0 99.332031 L 49.667969 99.332031 L 49.667969 49.667969 L 0 49.667969 L 0 99.332031 "/>
<path style=" stroke:none;fill-rule:evenodd;fill:rgb(53.333333%,53.333333%,53.333333%);fill-opacity:1;" d="M 49.667969 99.332031 L 99.332031 99.332031 L 99.332031 49.667969 L 49.667969 49.667969 Z M 49.667969 99.332031 "/>
<path style="fill:none;stroke-width:1;stroke-linecap:round;stroke-linejoin:round;stroke:rgb(0%,0%,0%);stroke-opacity:1;stroke-miterlimit:10;" d="M 49.667969 99.332031 L 99.332031 99.332031 L 99.332031 49.667969 L 49.667969 49.667969 L 49.667969 99.332031 "/>
<path style=" stroke:none;fill-rule:evenodd;fill:rgb(53.333333%,53.333333%,53.333333%);fill-opacity:1;" d="M 99.332031 99.332031 L 149 99.332031 L 149 49.667969 L 99.332031 49.667969 Z M 99.332031 99.332031 "/>
<path style="fill:none;stroke-width:1;stroke-linecap:round;stroke-linejoin:round;stroke:rgb(0%,0%,0%);stroke-opacity:1;stroke-miterlimit:10;" d="M 99.332031 99.332031 L 149 99.332031 L 149 49.667969 L 99.332031 49.667969 L 99.332031 99.332031 "/>
<path style=" stroke:none;fill-rule:evenodd;fill:rgb(53.333333%,53.333333%,53.333333%);fill-opacity:1;" d="M 0 49.667969 L 49.667969 49.667969 L 49.667969 0 L 0 0 Z M 0 49.667969 "/>
<path style="fill:none;stroke-width:1;stroke-linecap:round;stroke-linejoin:round;stroke:rgb(0%,0%,0%);stroke-opacity:1;stroke-miterlimit:10;" d="M 0 49.667969 L 49.667969 49.667969 L 49.667969 0 L 0 0 L 0 49.667969 "/>
<path style=" stroke:none;fill-rule:evenodd;fill:rgb(53.333333%,53.333333%,53.333333%);fill-opacity:1;" d="M 49.667969 49.667969 L 99.332031 49.667969 L 99.332031 0 L 49.667969 0 Z M 49.667969 49.667969 "/>
<path style="fill:none;stroke-width:1;stroke-linecap:round;stroke-linejoin:round;stroke:rgb(0%,0%,0%);stroke-opacity:1;stroke-miterlimit:10;" d="M 49.667969 49.667969 L 99.332031 49.667969 L 99.332031 0 L 49.667969 0 L 49.667969 49.667969 "/>
<path style=" stroke:none;fill-rule:evenodd;fill:rgb(53.333333%,53.333333%,53.333333%);fill-opacity:1;" d="M 99.332031 49.667969 L 149 49.667969 L 149 0 L 99.332031 0 Z M 99.332031 49.667969 "/>
<path style="fill:none;stroke-width:1;stroke-linecap:round;stroke-linejoin:round;stroke:rgb(0%,0%,0%);stroke-opacity:1;stroke-miterlimit:10;" d="M 99.332031 49.667969 L 149 49.667969 L 149 0 L 99.332031 0 L 99.332031 49.667969 "/>
<path style=" stroke:none;fill-rule:evenodd;fill:rgb(100%,0%,0%);fill-opacity:1;" d="M 129.167969 24.832031 C 129.167969 31.5 119.167969 31.5 119.167969 24.832031 C 119.167969 18.167969 129.167969 18.167969 129.167969 24.832031 "/>
<path style=" stroke:none;fill-rule:evenodd;fill:rgb(0%,0%,0%);fill-opacity:1;" d="M 130.078125 11.609375 L 130.078125 11.28125 L 133.125 11.28125 L 133.125 11.609375 L 133.03125 11.609375 L 132.671875 11.640625 C 132.503906 11.652344 132.390625 11.671875 132.328125 11.703125 C 132.273438 11.734375 132.242188 11.792969 132.234375 11.875 C 132.179688 12.105469 132.15625 12.359375 132.15625 12.640625 L 132.15625 15.9375 C 132.15625 16.742188 132.175781 17.261719 132.21875 17.5 C 132.257812 17.742188 132.363281 17.96875 132.53125 18.1875 C 132.863281 18.625 133.367188 18.84375 134.046875 18.84375 C 134.671875 18.84375 135.175781 18.65625 135.5625 18.28125 C 135.769531 18.0625 135.90625 17.824219 135.96875 17.5625 C 136.03125 17.304688 136.0625 16.839844 136.0625 16.171875 L 136.0625 12.640625 L 136.03125 12.125 C 136.019531 11.929688 135.984375 11.804688 135.921875 11.75 C 135.867188 11.6875 135.742188 11.652344 135.546875 11.640625 L 135.1875 11.609375 L 135.09375 11.609375 L 135.09375 11.28125 L 137.578125 11.28125 L 137.578125 11.609375 L 137.46875 11.609375 L 137.125 11.640625 C 136.957031 11.652344 136.84375 11.671875 136.78125 11.703125 C 136.726562 11.734375 136.691406 11.792969 136.671875 11.875 C 136.628906 12.09375 136.609375 12.351562 136.609375 12.640625 L 136.609375 15.875 C 136.609375 16.585938 136.566406 17.105469 136.484375 17.4375 C 136.410156 17.773438 136.253906 18.085938 136.015625 18.375 C 135.554688 18.917969 134.847656 19.1875 133.890625 19.1875 C 133.066406 19.1875 132.410156 18.992188 131.921875 18.59375 C 131.609375 18.335938 131.382812 18.011719 131.25 17.625 C 131.113281 17.242188 131.046875 16.734375 131.046875 16.109375 L 131.046875 12.640625 L 131.015625 12.125 C 131.003906 11.929688 130.96875 11.804688 130.90625 11.75 C 130.851562 11.6875 130.726562 11.652344 130.53125 11.640625 L 130.1875 11.609375 Z M 139.9375 15.609375 L 139.9375 17.65625 L 139.96875 18.171875 C 139.96875 18.382812 140.003906 18.511719 140.078125 18.5625 C 140.148438 18.617188 140.351562 18.652344 140.6875 18.671875 L 140.78125 18.671875 L 140.78125 19 L 137.890625 19 L 137.890625 18.671875 L 138 18.671875 L 138.34375 18.640625 C 138.539062 18.632812 138.664062 18.601562 138.71875 18.546875 C 138.78125 18.496094 138.816406 18.371094 138.828125 18.171875 L 138.859375 17.65625 L 138.859375 12.640625 L 138.828125 12.125 C 138.816406 11.929688 138.78125 11.804688 138.71875 11.75 C 138.664062 11.6875 138.539062 11.652344 138.34375 11.640625 L 138 11.609375 L 137.890625 11.609375 L 137.890625 11.28125 L 140.265625 11.28125 L 141.109375 11.25 C 141.890625 11.25 142.484375 11.417969 142.890625 11.75 C 143.296875 12.085938 143.5 12.570312 143.5 13.203125 C 143.5 13.726562 143.359375 14.171875 143.078125 14.546875 C 142.804688 14.921875 142.414062 15.199219 141.90625 15.375 L 143.421875 17.640625 L 143.90625 18.3125 C 144.007812 18.460938 144.09375 18.554688 144.15625 18.59375 C 144.226562 18.636719 144.332031 18.65625 144.46875 18.65625 C 144.507812 18.65625 144.625 18.664062 144.8125 18.671875 L 144.921875 18.671875 L 144.921875 19 L 142.953125 19 L 140.84375 15.609375 Z M 139.953125 15.25 L 140.34375 15.25 C 140.789062 15.25 141.144531 15.199219 141.40625 15.09375 C 141.675781 14.992188 141.894531 14.808594 142.0625 14.546875 C 142.269531 14.234375 142.375 13.824219 142.375 13.3125 C 142.375 12.804688 142.273438 12.40625 142.078125 12.125 C 141.953125 11.9375 141.785156 11.8125 141.578125 11.75 C 141.367188 11.679688 141.070312 11.640625 140.6875 11.640625 L 139.953125 11.640625 Z M 139.953125 15.25 "/>
<path style=" stroke:none;fill-rule:evenodd;fill:rgb(100%,0%,0%);fill-opacity:1;" d="M 79.5 24.832031 C 79.5 31.5 69.5 31.5 69.5 24.832031 C 69.5 18.167969 79.5 18.167969 79.5 24.832031 "/>
<path style=" stroke:none;fill-rule:evenodd;fill:rgb(0%,0%,0%);fill-opacity:1;" d="M 67.078125 9.609375 L 67.078125 9.28125 L 70.125 9.28125 L 70.125 9.609375 L 70.03125 9.609375 L 69.671875 9.640625 C 69.503906 9.652344 69.390625 9.671875 69.328125 9.703125 C 69.273438 9.734375 69.242188 9.792969 69.234375 9.875 C 69.179688 10.105469 69.15625 10.359375 69.15625 10.640625 L 69.15625 13.9375 C 69.15625 14.742188 69.175781 15.261719 69.21875 15.5 C 69.257812 15.742188 69.363281 15.96875 69.53125 16.1875 C 69.863281 16.625 70.367188 16.84375 71.046875 16.84375 C 71.671875 16.84375 72.175781 16.65625 72.5625 16.28125 C 72.769531 16.0625 72.90625 15.824219 72.96875 15.5625 C 73.03125 15.304688 73.0625 14.839844 73.0625 14.171875 L 73.0625 10.640625 L 73.03125 10.125 C 73.019531 9.929688 72.984375 9.804688 72.921875 9.75 C 72.867188 9.6875 72.742188 9.652344 72.546875 9.640625 L 72.1875 9.609375 L 72.09375 9.609375 L 72.09375 9.28125 L 74.578125 9.28125 L 74.578125 9.609375 L 74.46875 9.609375 L 74.125 9.640625 C 73.957031 9.652344 73.84375 9.671875 73.78125 9.703125 C 73.726562 9.734375 73.691406 9.792969 73.671875 9.875 C 73.628906 10.09375 73.609375 10.351562 73.609375 10.640625 L 73.609375 13.875 C 73.609375 14.585938 73.566406 15.105469 73.484375 15.4375 C 73.410156 15.773438 73.253906 16.085938 73.015625 16.375 C 72.554688 16.917969 71.847656 17.1875 70.890625 17.1875 C 70.066406 17.1875 69.410156 16.992188 68.921875 16.59375 C 68.609375 16.335938 68.382812 16.011719 68.25 15.625 C 68.113281 15.242188 68.046875 14.734375 68.046875 14.109375 L 68.046875 10.640625 L 68.015625 10.125 C 68.003906 9.929688 67.96875 9.804688 67.90625 9.75 C 67.851562 9.6875 67.726562 9.652344 67.53125 9.640625 L 67.1875 9.609375 Z M 81.484375 16.59375 C 80.785156 16.992188 79.96875 17.1875 79.03125 17.1875 C 77.851562 17.1875 76.921875 16.828125 76.234375 16.109375 C 75.554688 15.382812 75.21875 14.386719 75.21875 13.125 C 75.21875 11.710938 75.628906 10.632812 76.453125 9.890625 C 77.054688 9.359375 77.894531 9.09375 78.96875 9.09375 C 79.5625 9.09375 80.289062 9.203125 81.15625 9.421875 L 81.34375 9.484375 L 81.34375 10.953125 L 80.703125 10.953125 L 80.703125 10.84375 C 80.691406 10.742188 80.6875 10.640625 80.6875 10.546875 C 80.6875 10.257812 80.613281 10.046875 80.46875 9.921875 C 80.300781 9.789062 80.070312 9.671875 79.78125 9.578125 C 79.488281 9.484375 79.203125 9.4375 78.921875 9.4375 C 78.140625 9.4375 77.515625 9.773438 77.046875 10.4375 C 76.585938 11.105469 76.359375 12 76.359375 13.125 C 76.359375 14.242188 76.628906 15.109375 77.171875 15.734375 C 77.710938 16.359375 78.472656 16.671875 79.453125 16.671875 C 80.085938 16.671875 80.765625 16.480469 81.484375 16.09375 Z M 81.484375 16.59375 "/>
<path style=" stroke:none;fill-rule:evenodd;fill:rgb(100%,0%,0%);fill-opacity:1;" d="M 29.832031 24.832031 C 29.832031 31.5 19.832031 31.5 19.832031 24.832031 C 19.832031 18.167969 29.832031 18.167969 29.832031 24.832031 "/>
<path style=" stroke:none;fill-rule:evenodd;fill:rgb(0%,0%,0%);fill-opacity:1;" d="M 6.078125 11.609375 L 6.078125 11.28125 L 9.125 11.28125 L 9.125 11.609375 L 9.03125 11.609375 L 8.671875 11.640625 C 8.503906 11.652344 8.390625 11.671875 8.328125 11.703125 C 8.273438 11.734375 8.242188 11.792969 8.234375 11.875 C 8.179688 12.105469 8.15625 12.359375 8.15625 12.640625 L 8.15625 15.9375 C 8.15625 16.742188 8.175781 17.261719 8.21875 17.5 C 8.257812 17.742188 8.363281 17.96875 8.53125 18.1875 C 8.863281 18.625 9.367188 18.84375 10.046875 18.84375 C 10.671875 18.84375 11.175781 18.65625 11.5625 18.28125 C 11.769531 18.0625 11.90625 17.824219 11.96875 17.5625 C 12.03125 17.304688 12.0625 16.839844 12.0625 16.171875 L 12.0625 12.640625 L 12.03125 12.125 C 12.019531 11.929688 11.984375 11.804688 11.921875 11.75 C 11.867188 11.6875 11.742188 11.652344 11.546875 11.640625 L 11.1875 11.609375 L 11.09375 11.609375 L 11.09375 11.28125 L 13.578125 11.28125 L 13.578125 11.609375 L 13.46875 11.609375 L 13.125 11.640625 C 12.957031 11.652344 12.84375 11.671875 12.78125 11.703125 C 12.726562 11.734375 12.691406 11.792969 12.671875 11.875 C 12.628906 12.09375 12.609375 12.351562 12.609375 12.640625 L 12.609375 15.875 C 12.609375 16.585938 12.566406 17.105469 12.484375 17.4375 C 12.410156 17.773438 12.253906 18.085938 12.015625 18.375 C 11.554688 18.917969 10.847656 19.1875 9.890625 19.1875 C 9.066406 19.1875 8.410156 18.992188 7.921875 18.59375 C 7.609375 18.335938 7.382812 18.011719 7.25 17.625 C 7.113281 17.242188 7.046875 16.734375 7.046875 16.109375 L 7.046875 12.640625 L 7.015625 12.125 C 7.003906 11.929688 6.96875 11.804688 6.90625 11.75 C 6.851562 11.6875 6.726562 11.652344 6.53125 11.640625 L 6.1875 11.609375 Z M 19.421875 19 L 13.890625 19 L 13.890625 18.671875 L 14 18.671875 L 14.34375 18.640625 C 14.539062 18.632812 14.664062 18.601562 14.71875 18.546875 C 14.78125 18.496094 14.816406 18.371094 14.828125 18.171875 L 14.859375 17.65625 L 14.859375 12.640625 L 14.828125 12.125 C 14.816406 11.929688 14.78125 11.804688 14.71875 11.75 C 14.664062 11.6875 14.539062 11.652344 14.34375 11.640625 L 14 11.609375 L 13.890625 11.609375 L 13.890625 11.28125 L 16.921875 11.28125 L 16.921875 11.609375 L 16.8125 11.609375 L 16.46875 11.640625 C 16.269531 11.652344 16.140625 11.6875 16.078125 11.75 C 16.023438 11.804688 15.992188 11.929688 15.984375 12.125 L 15.953125 12.640625 L 15.953125 17.65625 C 15.953125 18.117188 15.984375 18.382812 16.046875 18.453125 C 16.117188 18.515625 16.382812 18.546875 16.84375 18.546875 L 17.640625 18.546875 C 18.097656 18.546875 18.429688 18.515625 18.640625 18.453125 C 18.773438 18.414062 18.847656 18.292969 18.859375 18.09375 L 18.875 17.5625 L 18.875 17.453125 L 19.421875 17.453125 Z M 19.421875 19 "/>
<path style=" stroke:none;fill-rule:evenodd;fill:rgb(100%,0%,0%);fill-opacity:1;" d="M 129.167969 74.5 C 129.167969 81.167969 119.167969 81.167969 119.167969 74.5 C 119.167969 67.832031 129.167969 67.832031 129.167969 74.5 "/>
<path style=" stroke:none;fill-rule:evenodd;fill:rgb(0%,0%,0%);fill-opacity:1;" d="M 137.8125 77.59375 C 137.113281 77.992188 136.296875 78.1875 135.359375 78.1875 C 134.179688 78.1875 133.25 77.828125 132.5625 77.109375 C 131.882812 76.382812 131.546875 75.386719 131.546875 74.125 C 131.546875 72.710938 131.957031 71.632812 132.78125 70.890625 C 133.382812 70.359375 134.222656 70.09375 135.296875 70.09375 C 135.890625 70.09375 136.617188 70.203125 137.484375 70.421875 L 137.671875 70.484375 L 137.671875 71.953125 L 137.03125 71.953125 L 137.03125 71.84375 C 137.019531 71.742188 137.015625 71.640625 137.015625 71.546875 C 137.015625 71.257812 136.941406 71.046875 136.796875 70.921875 C 136.628906 70.789062 136.398438 70.671875 136.109375 70.578125 C 135.816406 70.484375 135.53125 70.4375 135.25 70.4375 C 134.46875 70.4375 133.84375 70.773438 133.375 71.4375 C 132.914062 72.105469 132.6875 73 132.6875 74.125 C 132.6875 75.242188 132.957031 76.109375 133.5 76.734375 C 134.039062 77.359375 134.800781 77.671875 135.78125 77.671875 C 136.414062 77.671875 137.09375 77.480469 137.8125 77.09375 Z M 140.6875 74.609375 L 140.6875 76.65625 L 140.71875 77.171875 C 140.71875 77.382812 140.753906 77.511719 140.828125 77.5625 C 140.898438 77.617188 141.101562 77.652344 141.4375 77.671875 L 141.53125 77.671875 L 141.53125 78 L 138.640625 78 L 138.640625 77.671875 L 138.75 77.671875 L 139.09375 77.640625 C 139.289062 77.632812 139.414062 77.601562 139.46875 77.546875 C 139.53125 77.496094 139.566406 77.371094 139.578125 77.171875 L 139.609375 76.65625 L 139.609375 71.640625 L 139.578125 71.125 C 139.566406 70.929688 139.53125 70.804688 139.46875 70.75 C 139.414062 70.6875 139.289062 70.652344 139.09375 70.640625 L 138.75 70.609375 L 138.640625 70.609375 L 138.640625 70.28125 L 141.015625 70.28125 L 141.859375 70.25 C 142.640625 70.25 143.234375 70.417969 143.640625 70.75 C 144.046875 71.085938 144.25 71.570312 144.25 72.203125 C 144.25 72.726562 144.109375 73.171875 143.828125 73.546875 C 143.554688 73.921875 143.164062 74.199219 142.65625 74.375 L 144.171875 76.640625 L 144.65625 77.3125 C 144.757812 77.460938 144.84375 77.554688 144.90625 77.59375 C 144.976562 77.636719 145.082031 77.65625 145.21875 77.65625 C 145.257812 77.65625 145.375 77.664062 145.5625 77.671875 L 145.671875 77.671875 L 145.671875 78 L 143.703125 78 L 141.59375 74.609375 Z M 140.703125 74.25 L 141.09375 74.25 C 141.539062 74.25 141.894531 74.199219 142.15625 74.09375 C 142.425781 73.992188 142.644531 73.808594 142.8125 73.546875 C 143.019531 73.234375 143.125 72.824219 143.125 72.3125 C 143.125 71.804688 143.023438 71.40625 142.828125 71.125 C 142.703125 70.9375 142.535156 70.8125 142.328125 70.75 C 142.117188 70.679688 141.820312 70.640625 141.4375 70.640625 L 140.703125 70.640625 Z M 140.703125 74.25 "/>
<path style=" stroke:none;fill-rule:evenodd;fill:rgb(100%,0%,0%);fill-opacity:1;" d="M 79.5 74.5 C 79.5 81.167969 69.5 81.167969 69.5 74.5 C 69.5 67.832031 79.5 67.832031 79.5 74.5 "/>
<path style=" stroke:none;fill-rule:evenodd;fill:rgb(0%,0%,0%);fill-opacity:1;" d="M 39.953125 65.625 L 39.5 66.65625 C 39.4375 66.792969 39.398438 66.886719 39.390625 66.9375 L 39.28125 67.296875 C 39.257812 67.371094 39.25 67.429688 39.25 67.46875 C 39.25 67.605469 39.378906 67.671875 39.640625 67.671875 L 40 67.671875 L 40 68 L 38 68 L 38 67.671875 L 38.109375 67.671875 L 38.359375 67.65625 C 38.472656 67.65625 38.5625 67.625 38.625 67.5625 C 38.695312 67.492188 38.769531 67.371094 38.84375 67.203125 L 39.078125 66.65625 L 41.796875 60.1875 L 42.15625 60.1875 L 44.859375 66.6875 L 45.125 67.21875 C 45.21875 67.429688 45.296875 67.554688 45.359375 67.59375 C 45.429688 67.636719 45.585938 67.664062 45.828125 67.671875 L 45.9375 67.671875 L 45.9375 68 L 43.078125 68 L 43.078125 67.671875 L 43.5 67.671875 C 43.769531 67.671875 43.90625 67.605469 43.90625 67.46875 C 43.90625 67.261719 43.832031 66.992188 43.6875 66.65625 L 43.25 65.625 Z M 40.125 65.203125 L 43.0625 65.203125 L 41.59375 61.6875 Z M 46.019531 60.609375 L 46.019531 60.28125 L 49.066406 60.28125 L 49.066406 60.609375 L 48.972656 60.609375 L 48.613281 60.640625 C 48.445312 60.652344 48.332031 60.671875 48.269531 60.703125 C 48.214844 60.734375 48.183594 60.792969 48.175781 60.875 C 48.121094 61.105469 48.097656 61.359375 48.097656 61.640625 L 48.097656 64.9375 C 48.097656 65.742188 48.117188 66.261719 48.160156 66.5 C 48.199219 66.742188 48.304688 66.96875 48.472656 67.1875 C 48.804688 67.625 49.308594 67.84375 49.988281 67.84375 C 50.613281 67.84375 51.117188 67.65625 51.503906 67.28125 C 51.710938 67.0625 51.847656 66.824219 51.910156 66.5625 C 51.972656 66.304688 52.003906 65.839844 52.003906 65.171875 L 52.003906 61.640625 L 51.972656 61.125 C 51.960938 60.929688 51.925781 60.804688 51.863281 60.75 C 51.808594 60.6875 51.683594 60.652344 51.488281 60.640625 L 51.128906 60.609375 L 51.035156 60.609375 L 51.035156 60.28125 L 53.519531 60.28125 L 53.519531 60.609375 L 53.410156 60.609375 L 53.066406 60.640625 C 52.898438 60.652344 52.785156 60.671875 52.722656 60.703125 C 52.667969 60.734375 52.632812 60.792969 52.613281 60.875 C 52.570312 61.09375 52.550781 61.351562 52.550781 61.640625 L 52.550781 64.875 C 52.550781 65.585938 52.507812 66.105469 52.425781 66.4375 C 52.351562 66.773438 52.195312 67.085938 51.957031 67.375 C 51.496094 67.917969 50.789062 68.1875 49.832031 68.1875 C 49.007812 68.1875 48.351562 67.992188 47.863281 67.59375 C 47.550781 67.335938 47.324219 67.011719 47.191406 66.625 C 47.054688 66.242188 46.988281 65.734375 46.988281 65.109375 L 46.988281 61.640625 L 46.957031 61.125 C 46.945312 60.929688 46.910156 60.804688 46.847656 60.75 C 46.792969 60.6875 46.667969 60.652344 46.472656 60.640625 L 46.128906 60.609375 Z M 56.597656 60.703125 L 55.363281 60.703125 L 54.832031 60.734375 C 54.644531 60.734375 54.523438 60.761719 54.472656 60.8125 C 54.417969 60.855469 54.394531 60.964844 54.394531 61.140625 C 54.394531 61.320312 54.394531 61.46875 54.394531 61.59375 L 54.378906 61.703125 L 53.832031 61.703125 L 53.832031 60.28125 L 60.457031 60.28125 L 60.457031 61.703125 L 59.910156 61.703125 L 59.910156 61.59375 C 59.898438 61.46875 59.894531 61.320312 59.894531 61.140625 C 59.894531 60.964844 59.867188 60.855469 59.816406 60.8125 C 59.761719 60.761719 59.648438 60.734375 59.472656 60.734375 L 58.925781 60.703125 L 57.691406 60.703125 L 57.691406 66.65625 L 57.722656 67.171875 C 57.730469 67.371094 57.761719 67.496094 57.816406 67.546875 C 57.878906 67.601562 58.007812 67.632812 58.207031 67.640625 L 58.566406 67.671875 L 58.785156 67.671875 L 58.785156 68 L 55.503906 68 L 55.503906 67.671875 L 55.738281 67.671875 L 56.082031 67.640625 C 56.277344 67.632812 56.402344 67.601562 56.457031 67.546875 C 56.519531 67.496094 56.554688 67.371094 56.566406 67.171875 L 56.597656 66.65625 Z M 64.777344 68.1875 C 63.816406 68.1875 63.015625 67.882812 62.371094 67.265625 C 61.609375 66.546875 61.230469 65.507812 61.230469 64.140625 C 61.230469 62.890625 61.546875 61.90625 62.183594 61.1875 C 62.828125 60.460938 63.707031 60.09375 64.824219 60.09375 C 65.9375 60.09375 66.816406 60.453125 67.464844 61.171875 C 68.109375 61.890625 68.433594 62.875 68.433594 64.125 C 68.433594 65.398438 68.109375 66.390625 67.464844 67.109375 C 66.816406 67.828125 65.921875 68.1875 64.777344 68.1875 Z M 64.792969 67.84375 C 65.574219 67.84375 66.183594 67.523438 66.621094 66.875 C 67.058594 66.21875 67.277344 65.304688 67.277344 64.125 C 67.277344 62.980469 67.058594 62.078125 66.621094 61.421875 C 66.183594 60.765625 65.582031 60.4375 64.824219 60.4375 C 64.0625 60.4375 63.464844 60.765625 63.027344 61.421875 C 62.597656 62.078125 62.386719 62.984375 62.386719 64.140625 C 62.386719 65.289062 62.597656 66.195312 63.027344 66.859375 C 63.453125 67.515625 64.042969 67.84375 64.792969 67.84375 Z M 64.792969 67.84375 "/>
<path style=" stroke:none;fill-rule:evenodd;fill:rgb(100%,0%,0%);fill-opacity:1;" d="M 29.832031 74.5 C 29.832031 81.167969 19.832031 81.167969 19.832031 74.5 C 19.832031 67.832031 29.832031 67.832031 29.832031 74.5 "/>
<path style=" stroke:none;fill-rule:evenodd;fill:rgb(0%,0%,0%);fill-opacity:1;" d="M 10.8125 77.59375 C 10.113281 77.992188 9.296875 78.1875 8.359375 78.1875 C 7.179688 78.1875 6.25 77.828125 5.5625 77.109375 C 4.882812 76.382812 4.546875 75.386719 4.546875 74.125 C 4.546875 72.710938 4.957031 71.632812 5.78125 70.890625 C 6.382812 70.359375 7.222656 70.09375 8.296875 70.09375 C 8.890625 70.09375 9.617188 70.203125 10.484375 70.421875 L 10.671875 70.484375 L 10.671875 71.953125 L 10.03125 71.953125 L 10.03125 71.84375 C 10.019531 71.742188 10.015625 71.640625 10.015625 71.546875 C 10.015625 71.257812 9.941406 71.046875 9.796875 70.921875 C 9.628906 70.789062 9.398438 70.671875 9.109375 70.578125 C 8.816406 70.484375 8.53125 70.4375 8.25 70.4375 C 7.46875 70.4375 6.84375 70.773438 6.375 71.4375 C 5.914062 72.105469 5.6875 73 5.6875 74.125 C 5.6875 75.242188 5.957031 76.109375 6.5 76.734375 C 7.039062 77.359375 7.800781 77.671875 8.78125 77.671875 C 9.414062 77.671875 10.09375 77.480469 10.8125 77.09375 Z M 17.171875 78 L 11.640625 78 L 11.640625 77.671875 L 11.75 77.671875 L 12.09375 77.640625 C 12.289062 77.632812 12.414062 77.601562 12.46875 77.546875 C 12.53125 77.496094 12.566406 77.371094 12.578125 77.171875 L 12.609375 76.65625 L 12.609375 71.640625 L 12.578125 71.125 C 12.566406 70.929688 12.53125 70.804688 12.46875 70.75 C 12.414062 70.6875 12.289062 70.652344 12.09375 70.640625 L 11.75 70.609375 L 11.640625 70.609375 L 11.640625 70.28125 L 14.671875 70.28125 L 14.671875 70.609375 L 14.5625 70.609375 L 14.21875 70.640625 C 14.019531 70.652344 13.890625 70.6875 13.828125 70.75 C 13.773438 70.804688 13.742188 70.929688 13.734375 71.125 L 13.703125 71.640625 L 13.703125 76.65625 C 13.703125 77.117188 13.734375 77.382812 13.796875 77.453125 C 13.867188 77.515625 14.132812 77.546875 14.59375 77.546875 L 15.390625 77.546875 C 15.847656 77.546875 16.179688 77.515625 16.390625 77.453125 C 16.523438 77.414062 16.597656 77.292969 16.609375 77.09375 L 16.625 76.5625 L 16.625 76.453125 L 17.171875 76.453125 Z M 17.171875 78 "/>
<path style=" stroke:none;fill-rule:evenodd;fill:rgb(100%,0%,0%);fill-opacity:1;" d="M 129.167969 124.167969 C 129.167969 130.832031 119.167969 130.832031 119.167969 124.167969 C 119.167969 117.5 129.167969 117.5 129.167969 124.167969 "/>
<path style=" stroke:none;fill-rule:evenodd;fill:rgb(0%,0%,0%);fill-opacity:1;" d="M 135.75 137 L 130.21875 137 L 130.21875 136.671875 L 130.328125 136.671875 L 130.671875 136.640625 C 130.867188 136.632812 130.992188 136.601562 131.046875 136.546875 C 131.109375 136.496094 131.144531 136.371094 131.15625 136.171875 L 131.1875 135.65625 L 131.1875 130.640625 L 131.15625 130.125 C 131.144531 129.929688 131.109375 129.804688 131.046875 129.75 C 130.992188 129.6875 130.867188 129.652344 130.671875 129.640625 L 130.328125 129.609375 L 130.21875 129.609375 L 130.21875 129.28125 L 133.25 129.28125 L 133.25 129.609375 L 133.140625 129.609375 L 132.796875 129.640625 C 132.597656 129.652344 132.46875 129.6875 132.40625 129.75 C 132.351562 129.804688 132.320312 129.929688 132.3125 130.125 L 132.28125 130.640625 L 132.28125 135.65625 C 132.28125 136.117188 132.3125 136.382812 132.375 136.453125 C 132.445312 136.515625 132.710938 136.546875 133.171875 136.546875 L 133.96875 136.546875 C 134.425781 136.546875 134.757812 136.515625 134.96875 136.453125 C 135.101562 136.414062 135.175781 136.292969 135.1875 136.09375 L 135.203125 135.5625 L 135.203125 135.453125 L 135.75 135.453125 Z M 138.210938 133.609375 L 138.210938 135.65625 L 138.242188 136.171875 C 138.242188 136.382812 138.277344 136.511719 138.351562 136.5625 C 138.421875 136.617188 138.625 136.652344 138.960938 136.671875 L 139.054688 136.671875 L 139.054688 137 L 136.164062 137 L 136.164062 136.671875 L 136.273438 136.671875 L 136.617188 136.640625 C 136.8125 136.632812 136.9375 136.601562 136.992188 136.546875 C 137.054688 136.496094 137.089844 136.371094 137.101562 136.171875 L 137.132812 135.65625 L 137.132812 130.640625 L 137.101562 130.125 C 137.089844 129.929688 137.054688 129.804688 136.992188 129.75 C 136.9375 129.6875 136.8125 129.652344 136.617188 129.640625 L 136.273438 129.609375 L 136.164062 129.609375 L 136.164062 129.28125 L 138.539062 129.28125 L 139.382812 129.25 C 140.164062 129.25 140.757812 129.417969 141.164062 129.75 C 141.570312 130.085938 141.773438 130.570312 141.773438 131.203125 C 141.773438 131.726562 141.632812 132.171875 141.351562 132.546875 C 141.078125 132.921875 140.6875 133.199219 140.179688 133.375 L 141.695312 135.640625 L 142.179688 136.3125 C 142.28125 136.460938 142.367188 136.554688 142.429688 136.59375 C 142.5 136.636719 142.605469 136.65625 142.742188 136.65625 C 142.78125 136.65625 142.898438 136.664062 143.085938 136.671875 L 143.195312 136.671875 L 143.195312 137 L 141.226562 137 L 139.117188 133.609375 Z M 138.226562 133.25 L 138.617188 133.25 C 139.0625 133.25 139.417969 133.199219 139.679688 133.09375 C 139.949219 132.992188 140.167969 132.808594 140.335938 132.546875 C 140.542969 132.234375 140.648438 131.824219 140.648438 131.3125 C 140.648438 130.804688 140.546875 130.40625 140.351562 130.125 C 140.226562 129.9375 140.058594 129.8125 139.851562 129.75 C 139.640625 129.679688 139.34375 129.640625 138.960938 129.640625 L 138.226562 129.640625 Z M 138.226562 133.25 "/>
<path style=" stroke:none;fill-rule:evenodd;fill:rgb(100%,0%,0%);fill-opacity:1;" d="M 79.5 124.167969 C 79.5 130.832031 69.5 130.832031 69.5 124.167969 C 69.5 117.5 79.5 117.5 79.5 124.167969 "/>
<path style=" stroke:none;fill-rule:evenodd;fill:rgb(0%,0%,0%);fill-opacity:1;" d="M 73.75 139 L 68.21875 139 L 68.21875 138.671875 L 68.328125 138.671875 L 68.671875 138.640625 C 68.867188 138.632812 68.992188 138.601562 69.046875 138.546875 C 69.109375 138.496094 69.144531 138.371094 69.15625 138.171875 L 69.1875 137.65625 L 69.1875 132.640625 L 69.15625 132.125 C 69.144531 131.929688 69.109375 131.804688 69.046875 131.75 C 68.992188 131.6875 68.867188 131.652344 68.671875 131.640625 L 68.328125 131.609375 L 68.21875 131.609375 L 68.21875 131.28125 L 71.25 131.28125 L 71.25 131.609375 L 71.140625 131.609375 L 70.796875 131.640625 C 70.597656 131.652344 70.46875 131.6875 70.40625 131.75 C 70.351562 131.804688 70.320312 131.929688 70.3125 132.125 L 70.28125 132.640625 L 70.28125 137.65625 C 70.28125 138.117188 70.3125 138.382812 70.375 138.453125 C 70.445312 138.515625 70.710938 138.546875 71.171875 138.546875 L 71.96875 138.546875 C 72.425781 138.546875 72.757812 138.515625 72.96875 138.453125 C 73.101562 138.414062 73.175781 138.292969 73.1875 138.09375 L 73.203125 137.5625 L 73.203125 137.453125 L 73.75 137.453125 Z M 80.757812 138.59375 C 80.058594 138.992188 79.242188 139.1875 78.304688 139.1875 C 77.125 139.1875 76.195312 138.828125 75.507812 138.109375 C 74.828125 137.382812 74.492188 136.386719 74.492188 135.125 C 74.492188 133.710938 74.902344 132.632812 75.726562 131.890625 C 76.328125 131.359375 77.167969 131.09375 78.242188 131.09375 C 78.835938 131.09375 79.5625 131.203125 80.429688 131.421875 L 80.617188 131.484375 L 80.617188 132.953125 L 79.976562 132.953125 L 79.976562 132.84375 C 79.964844 132.742188 79.960938 132.640625 79.960938 132.546875 C 79.960938 132.257812 79.886719 132.046875 79.742188 131.921875 C 79.574219 131.789062 79.34375 131.671875 79.054688 131.578125 C 78.761719 131.484375 78.476562 131.4375 78.195312 131.4375 C 77.414062 131.4375 76.789062 131.773438 76.320312 132.4375 C 75.859375 133.105469 75.632812 134 75.632812 135.125 C 75.632812 136.242188 75.902344 137.109375 76.445312 137.734375 C 76.984375 138.359375 77.746094 138.671875 78.726562 138.671875 C 79.359375 138.671875 80.039062 138.480469 80.757812 138.09375 Z M 80.757812 138.59375 "/>
<path style=" stroke:none;fill-rule:evenodd;fill:rgb(100%,0%,0%);fill-opacity:1;" d="M 29.832031 124.167969 C 29.832031 130.832031 19.832031 130.832031 19.832031 124.167969 C 19.832031 117.5 29.832031 117.5 29.832031 124.167969 "/>
<path style=" stroke:none;fill-rule:evenodd;fill:rgb(0%,0%,0%);fill-opacity:1;" d="M 13.75 136 L 8.21875 136 L 8.21875 135.671875 L 8.328125 135.671875 L 8.671875 135.640625 C 8.867188 135.632812 8.992188 135.601562 9.046875 135.546875 C 9.109375 135.496094 9.144531 135.371094 9.15625 135.171875 L 9.1875 134.65625 L 9.1875 129.640625 L 9.15625 129.125 C 9.144531 128.929688 9.109375 128.804688 9.046875 128.75 C 8.992188 128.6875 8.867188 128.652344 8.671875 128.640625 L 8.328125 128.609375 L 8.21875 128.609375 L 8.21875 128.28125 L 11.25 128.28125 L 11.25 128.609375 L 11.140625 128.609375 L 10.796875 128.640625 C 10.597656 128.652344 10.46875 128.6875 10.40625 128.75 C 10.351562 128.804688 10.320312 128.929688 10.3125 129.125 L 10.28125 129.640625 L 10.28125 134.65625 C 10.28125 135.117188 10.3125 135.382812 10.375 135.453125 C 10.445312 135.515625 10.710938 135.546875 11.171875 135.546875 L 11.96875 135.546875 C 12.425781 135.546875 12.757812 135.515625 12.96875 135.453125 C 13.101562 135.414062 13.175781 135.292969 13.1875 135.09375 L 13.203125 134.5625 L 13.203125 134.453125 L 13.75 134.453125 Z M 19.695312 136 L 14.164062 136 L 14.164062 135.671875 L 14.273438 135.671875 L 14.617188 135.640625 C 14.8125 135.632812 14.9375 135.601562 14.992188 135.546875 C 15.054688 135.496094 15.089844 135.371094 15.101562 135.171875 L 15.132812 134.65625 L 15.132812 129.640625 L 15.101562 129.125 C 15.089844 128.929688 15.054688 128.804688 14.992188 128.75 C 14.9375 128.6875 14.8125 128.652344 14.617188 128.640625 L 14.273438 128.609375 L 14.164062 128.609375 L 14.164062 128.28125 L 17.195312 128.28125 L 17.195312 128.609375 L 17.085938 128.609375 L 16.742188 128.640625 C 16.542969 128.652344 16.414062 128.6875 16.351562 128.75 C 16.296875 128.804688 16.265625 128.929688 16.257812 129.125 L 16.226562 129.640625 L 16.226562 134.65625 C 16.226562 135.117188 16.257812 135.382812 16.320312 135.453125 C 16.390625 135.515625 16.65625 135.546875 17.117188 135.546875 L 17.914062 135.546875 C 18.371094 135.546875 18.703125 135.515625 18.914062 135.453125 C 19.046875 135.414062 19.121094 135.292969 19.132812 135.09375 L 19.148438 134.5625 L 19.148438 134.453125 L 19.695312 134.453125 Z M 19.695312 136 "/>
</g>
</svg>
