<?xml version="1.0" encoding="UTF-8"?>
<svg xmlns="http://www.w3.org/2000/svg" xmlns:xlink="http://www.w3.org/1999/xlink" width="200pt" height="200pt" viewBox="0 0 200 200" version="1.1">
<g id="surface2">
<rect x="0" y="0" width="200" height="200" style="fill:rgb(64.705882%,74.901961%,86.666667%);fill-opacity:1;stroke:none;"/>
<path style=" stroke:none;fill-rule:evenodd;fill:rgb(53.333333%,53.333333%,53.333333%);fill-opacity:1;" d="M 24.875 174.125 L 74.625 174.125 L 74.625 124.375 L 24.875 124.375 Z M 24.875 174.125 "/>
<path style="fill:none;stroke-width:1;stroke-linecap:round;stroke-linejoin:round;stroke:rgb(0%,0%,0%);stroke-opacity:1;stroke-miterlimit:10;" d="M 24.875 174.125 L 74.625 174.125 L 74.625 124.375 L 24.875 124.375 L 24.875 174.125 "/>
<path style=" stroke:none;fill-rule:evenodd;fill:rgb(53.333333%,53.333333%,53.333333%);fill-opacity:1;" d="M 74.625 174.125 L 124.375 174.125 L 124.375 124.375 L 74.625 124.375 Z M 74.625 174.125 "/>
<path style="fill:none;stroke-width:1;stroke-linecap:round;stroke-linejoin:round;stroke:rgb(0%,0%,0%);stroke-opacity:1;stroke-miterlimit:10;" d="M 74.625 174.125 L 124.375 174.125 L 124.375 124.375 L 74.625 124.375 L 74.625 174.125 "/>
<path style=" stroke:none;fill-rule:evenodd;fill:rgb(53.333333%,53.333333%,53.333333%);fill-opacity:1;" d="M 124.375 174.125 L 174.125 174.125 L 174.125 124.375 L 124.375 124.375 Z M 124.375 174.125 "/>
<path style="fill:none;stroke-width:1;stroke-linecap:round;stroke-linejoin:round;stroke:rgb(0%,0%,0%);stroke-opacity:1;stroke-miterlimit:10;" d="M 124.375 174.125 L 174.125 174.125 L 174.125 124.375 L 124.375 124.375 L 124.375 174.125 "/>
<path style=" stroke:none;fill-rule:evenodd;fill:rgb(53.333333%,53.333333%,53.333333%);fill-opacity:1;" d="M 24.875 124.375 L 74.625 124.375 L 74.625 74.625 L 24.875 74.625 Z M 24.875 124.375 "/>
<path style="fill:none;stroke-width:1;stroke-linecap:round;stroke-linejoin:round;stroke:rgb(0%,0%,0%);stroke-opacity:1;stroke-miterlimit:10;" d="M 24.875 124.375 L 74.625 124.375 L 74.625 74.625 L 24.875 74.625 L 24.875 124.375 "/>
<path style=" stroke:none;fill-rule:evenodd;fill:rgb(53.333333%,53.333333%,53.333333%);fill-opacity:1;" d="M 74.625 124.375 L 124.375 124.375 L 124.375 74.625 L 74.625 74.625 Z M 74.625 124.375 "/>
<path style="fill:none;stroke-width:1;stroke-linecap:round;stroke-linejoin:round;stroke:rgb(0%,0%,0%);stroke-opacity:1;stroke-miterlimit:10;" d="M 74.625 124.375 L 124.375 124.375 L 124.375 74.625 L 74.625 74.625 L 74.625 124.375 "/>
<path style=" stroke:none;fill-rule:evenodd;fill:rgb(53.333333%,53.333333%,53.333333%);fill-opacity:1;" d="M 124.375 124.375 L 174.125 124.375 L 174.125 74.625 L 124.375 74.625 Z M 124.375 124.375 "/>
<path style="fill:none;stroke-width:1;stroke-linecap:round;stroke-linejoin:round;stroke:rgb(0%,0%,0%);stroke-opacity:1;stroke-miterlimit:10;" d="M 124.375 124.375 L 174.125 124.375 L 174.125 74.625 L 124.375 74.625 L 124.375 124.375 "/>
<path style=" stroke:none;fill-rule:evenodd;fill:rgb(53.333333%,53.333333%,53.333333%);fill-opacity:1;" d="M 24.875 74.625 L 74.625 74.625 L 74.625 24.875 L 24.875 24.875 Z M 24.875 74.625 "/>
<path style="fill:none;stroke-width:1;stroke-linecap:round;stroke-linejoin:round;stroke:rgb(0%,0%,0%);stroke-opacity:1;stroke-miterlimit:10;" d="M 24.875 74.625 L 74.625 74.625 L 74.625 24.875 L 24.875 24.875 L 24.875 74.625 "/>
<path style=" stroke:none;fill-rule:evenodd;fill:rgb(53.333333%,53.333333%,53.333333%);fill-opacity:1;" d="M 74.625 74.625 L 124.375 74.625 L 124.375 24.875 L 74.625 24.875 Z M 74.625 74.625 "/>
<path style="fill:none;stroke-width:1;stroke-linecap:round;stroke-linejoin:round;stroke:rgb(0%,0%,0%);stroke-opacity:1;stroke-miterlimit:10;" d="M 74.625 74.625 L 124.375 74.625 L 124.375 24.875 L 74.625 24.875 L 74.625 74.625 "/>
<path style=" stroke:none;fill-rule:evenodd;fill:rgb(53.333333%,53.333333%,53.333333%);fill-opacity:1;" d="M 124.375 74.625 L 174.125 74.625 L 174.125 24.875 L 124.375 24.875 Z M 124.375 74.625 "/>
<path style="fill:none;stroke-width:1;stroke-linecap:round;stroke-linejoin:round;stroke:rgb(0%,0%,0%);stroke-opacity:1;stroke-miterlimit:10;" d="M 124.375 74.625 L 174.125 74.625 L 174.125 24.875 L 124.375 24.875 L 124.375 74.625 "/>
<path style=" stroke:none;fill-rule:evenodd;fill:rgb(100%,0%,0%);fill-opacity:1;" d="M 154.25 49.75 C 154.25 56.417969 144.25 56.417969 144.25 49.75 C 144.25 43.082031 154.25 43.082031 154.25 49.75 "/>
<path style=" stroke:none;fill-rule:evenodd;fill:rgb(0%,0%,0%);fill-opacity:1;" d="M 160.1875 33.75 L 154.484375 33.75 L 154.484375 33.421875 L 154.578125 33.40625 L 154.9375 33.390625 C 155.144531 33.371094 155.273438 33.335938 155.328125 33.28125 C 155.390625 33.230469 155.425781 33.101562 155.4375 32.890625 L 155.46875 32.359375 L 155.46875 27.1875 L 155.4375 26.65625 C 155.425781 26.460938 155.390625 26.335938 155.328125 26.28125 C 155.273438 26.21875 155.144531 26.179688 154.9375 26.15625 L 154.578125 26.140625 L 154.484375 26.125 L 154.484375 25.796875 L 157.59375 25.796875 L 157.59375 26.125 L 157.5 26.140625 L 157.125 26.15625 C 156.925781 26.179688 156.796875 26.21875 156.734375 26.28125 C 156.679688 26.335938 156.648438 26.460938 156.640625 26.65625 L 156.609375 27.1875 L 156.609375 32.359375 C 156.609375 32.839844 156.640625 33.117188 156.703125 33.1875 C 156.773438 33.25 157.050781 33.28125 157.53125 33.28125 L 158.34375 33.28125 C 158.820312 33.28125 159.164062 33.25 159.375 33.1875 C 159.507812 33.148438 159.582031 33.023438 159.59375 32.8125 L 159.609375 32.265625 L 159.609375 32.15625 L 160.1875 32.15625 Z M 162.390625 31.296875 L 161.921875 32.359375 C 161.859375 32.507812 161.820312 32.605469 161.8125 32.65625 L 161.6875 33.03125 C 161.664062 33.09375 161.65625 33.152344 161.65625 33.203125 C 161.65625 33.339844 161.796875 33.40625 162.078125 33.40625 L 162.359375 33.421875 L 162.4375 33.421875 L 162.4375 33.75 L 160.375 33.75 L 160.375 33.421875 L 160.484375 33.40625 L 160.75 33.40625 C 160.863281 33.398438 160.953125 33.359375 161.015625 33.296875 C 161.085938 33.226562 161.160156 33.101562 161.234375 32.921875 L 161.484375 32.359375 L 164.28125 25.703125 L 164.65625 25.703125 L 167.453125 32.390625 L 167.71875 32.953125 C 167.820312 33.164062 167.90625 33.289062 167.96875 33.328125 C 168.039062 33.371094 168.195312 33.398438 168.4375 33.40625 L 168.5625 33.421875 L 168.5625 33.75 L 165.609375 33.75 L 165.609375 33.421875 L 165.703125 33.421875 L 166.03125 33.40625 C 166.3125 33.40625 166.453125 33.339844 166.453125 33.203125 C 166.453125 32.996094 166.378906 32.714844 166.234375 32.359375 L 165.796875 31.296875 Z M 162.5625 30.859375 L 165.59375 30.859375 L 164.09375 27.25 Z M 172.515625 29.625 C 173.171875 29.742188 173.6875 29.984375 174.0625 30.359375 C 174.4375 30.734375 174.625 31.199219 174.625 31.75 C 174.625 32.324219 174.421875 32.808594 174.015625 33.203125 C 173.773438 33.414062 173.507812 33.558594 173.21875 33.640625 C 172.925781 33.714844 172.488281 33.75 171.90625 33.75 L 168.796875 33.75 L 168.796875 33.421875 L 168.890625 33.40625 L 169.25 33.390625 C 169.457031 33.371094 169.585938 33.335938 169.640625 33.28125 C 169.703125 33.230469 169.738281 33.101562 169.75 32.890625 L 169.78125 32.359375 L 169.78125 27.1875 L 169.75 26.65625 C 169.738281 26.460938 169.703125 26.335938 169.640625 26.28125 C 169.585938 26.21875 169.457031 26.179688 169.25 26.15625 L 168.890625 26.140625 L 168.796875 26.125 L 168.796875 25.796875 L 172.0625 25.796875 C 172.84375 25.796875 173.40625 25.953125 173.75 26.265625 C 174.113281 26.609375 174.296875 27.042969 174.296875 27.5625 C 174.296875 28.054688 174.125 28.496094 173.78125 28.890625 C 173.53125 29.164062 173.109375 29.40625 172.515625 29.625 Z M 170.90625 29.8125 L 170.90625 32.359375 L 170.921875 32.828125 C 170.921875 33.089844 170.984375 33.242188 171.109375 33.28125 C 171.316406 33.355469 171.550781 33.390625 171.8125 33.390625 C 172.300781 33.390625 172.695312 33.246094 173 32.953125 C 173.3125 32.652344 173.46875 32.265625 173.46875 31.796875 C 173.46875 31.164062 173.242188 30.671875 172.796875 30.328125 C 172.359375 29.984375 171.726562 29.8125 170.90625 29.8125 Z M 170.90625 29.4375 L 171.234375 29.4375 C 172.515625 29.4375 173.15625 28.855469 173.15625 27.6875 C 173.15625 27.210938 173.039062 26.84375 172.8125 26.59375 C 172.65625 26.4375 172.457031 26.328125 172.21875 26.265625 C 171.976562 26.195312 171.628906 26.15625 171.171875 26.15625 L 170.90625 26.15625 Z M 181.234375 33.75 L 175.5 33.75 L 175.5 33.421875 L 175.59375 33.40625 L 175.953125 33.390625 C 176.160156 33.371094 176.289062 33.335938 176.34375 33.28125 C 176.40625 33.230469 176.441406 33.101562 176.453125 32.890625 L 176.484375 32.359375 L 176.484375 27.1875 L 176.453125 26.65625 C 176.441406 26.460938 176.40625 26.335938 176.34375 26.28125 C 176.289062 26.21875 176.160156 26.179688 175.953125 26.15625 L 175.59375 26.140625 L 175.5 26.125 L 175.5 25.796875 L 180.9375 25.796875 L 180.9375 27.1875 L 180.34375 27.1875 L 180.328125 27.09375 L 180.296875 26.640625 C 180.296875 26.464844 180.273438 26.355469 180.234375 26.3125 C 180.191406 26.261719 180.082031 26.234375 179.90625 26.234375 L 177.625 26.234375 L 177.625 29.40625 L 179.078125 29.40625 L 179.40625 29.390625 C 179.570312 29.390625 179.671875 29.375 179.703125 29.34375 C 179.742188 29.3125 179.769531 29.230469 179.78125 29.09375 C 179.78125 29.042969 179.785156 28.960938 179.796875 28.84375 L 179.796875 28.75 L 180.234375 28.75 L 180.234375 30.5 L 179.796875 30.5 L 179.796875 30.40625 C 179.773438 30.09375 179.734375 29.929688 179.671875 29.90625 C 179.546875 29.867188 179.347656 29.84375 179.078125 29.84375 L 177.625 29.84375 L 177.625 32.359375 C 177.625 32.683594 177.648438 32.929688 177.703125 33.09375 C 177.753906 33.21875 178.03125 33.28125 178.53125 33.28125 L 179.375 33.28125 L 180.140625 33.25 C 180.304688 33.25 180.421875 33.226562 180.484375 33.171875 C 180.554688 33.121094 180.597656 33.023438 180.609375 32.875 L 180.625 32.390625 L 180.625 32.296875 L 181.234375 32.296875 Z M 187.4375 33.75 L 181.734375 33.75 L 181.734375 33.421875 L 181.828125 33.40625 L 182.1875 33.390625 C 182.394531 33.371094 182.523438 33.335938 182.578125 33.28125 C 182.640625 33.230469 182.675781 33.101562 182.6875 32.890625 L 182.71875 32.359375 L 182.71875 27.1875 L 182.6875 26.65625 C 182.675781 26.460938 182.640625 26.335938 182.578125 26.28125 C 182.523438 26.21875 182.394531 26.179688 182.1875 26.15625 L 181.828125 26.140625 L 181.734375 26.125 L 181.734375 25.796875 L 184.84375 25.796875 L 184.84375 26.125 L 184.75 26.140625 L 184.375 26.15625 C 184.175781 26.179688 184.046875 26.21875 183.984375 26.28125 C 183.929688 26.335938 183.898438 26.460938 183.890625 26.65625 L 183.859375 27.1875 L 183.859375 32.359375 C 183.859375 32.839844 183.890625 33.117188 183.953125 33.1875 C 184.023438 33.25 184.300781 33.28125 184.78125 33.28125 L 185.59375 33.28125 C 186.070312 33.28125 186.414062 33.25 186.625 33.1875 C 186.757812 33.148438 186.832031 33.023438 186.84375 32.8125 L 186.859375 32.265625 L 186.859375 32.15625 L 187.4375 32.15625 Z M 154.34375 37.125 L 154.34375 36.796875 L 157.46875 36.796875 L 157.46875 37.125 L 157.375 37.140625 L 157 37.15625 C 156.832031 37.179688 156.71875 37.203125 156.65625 37.234375 C 156.601562 37.257812 156.566406 37.3125 156.546875 37.40625 C 156.492188 37.636719 156.46875 37.898438 156.46875 38.1875 L 156.46875 41.59375 C 156.46875 42.417969 156.488281 42.953125 156.53125 43.203125 C 156.582031 43.453125 156.691406 43.695312 156.859375 43.921875 C 157.203125 44.371094 157.722656 44.59375 158.421875 44.59375 C 159.066406 44.59375 159.582031 44.398438 159.96875 44 C 160.1875 43.78125 160.328125 43.539062 160.390625 43.265625 C 160.460938 42.996094 160.5 42.515625 160.5 41.828125 L 160.5 38.1875 L 160.46875 37.65625 C 160.457031 37.460938 160.421875 37.335938 160.359375 37.28125 C 160.304688 37.21875 160.175781 37.179688 159.96875 37.15625 L 159.609375 37.140625 L 159.515625 37.125 L 159.515625 36.796875 L 162.046875 36.796875 L 162.046875 37.125 L 161.953125 37.140625 L 161.59375 37.15625 C 161.414062 37.179688 161.296875 37.203125 161.234375 37.234375 C 161.179688 37.257812 161.144531 37.3125 161.125 37.40625 C 161.082031 37.636719 161.0625 37.898438 161.0625 38.1875 L 161.0625 41.515625 C 161.0625 42.257812 161.019531 42.796875 160.9375 43.140625 C 160.851562 43.484375 160.6875 43.808594 160.4375 44.109375 C 159.976562 44.671875 159.253906 44.953125 158.265625 44.953125 C 157.410156 44.953125 156.734375 44.746094 156.234375 44.328125 C 155.910156 44.070312 155.675781 43.742188 155.53125 43.34375 C 155.394531 42.9375 155.328125 42.417969 155.328125 41.78125 L 155.328125 38.1875 L 155.296875 37.65625 C 155.285156 37.460938 155.25 37.335938 155.1875 37.28125 C 155.132812 37.21875 155.003906 37.179688 154.796875 37.15625 L 154.4375 37.140625 Z M 164.5 41.25 L 164.5 43.359375 L 164.53125 43.890625 C 164.53125 44.109375 164.566406 44.246094 164.640625 44.296875 C 164.710938 44.351562 164.921875 44.386719 165.265625 44.40625 L 165.359375 44.421875 L 165.359375 44.75 L 162.390625 44.75 L 162.390625 44.421875 L 162.484375 44.40625 L 162.84375 44.390625 C 163.050781 44.371094 163.179688 44.335938 163.234375 44.28125 C 163.296875 44.230469 163.332031 44.101562 163.34375 43.890625 L 163.375 43.359375 L 163.375 38.1875 L 163.34375 37.65625 C 163.332031 37.460938 163.296875 37.335938 163.234375 37.28125 C 163.179688 37.21875 163.050781 37.179688 162.84375 37.15625 L 162.484375 37.140625 L 162.390625 37.125 L 162.390625 36.796875 L 164.828125 36.796875 L 165.703125 36.765625 C 166.503906 36.765625 167.113281 36.9375 167.53125 37.28125 C 167.945312 37.617188 168.15625 38.109375 168.15625 38.765625 C 168.15625 39.308594 168.015625 39.773438 167.734375 40.15625 C 167.453125 40.542969 167.046875 40.824219 166.515625 41 L 168.078125 43.34375 L 168.578125 44.046875 C 168.679688 44.195312 168.769531 44.289062 168.84375 44.328125 C 168.914062 44.371094 169.019531 44.390625 169.15625 44.390625 C 169.207031 44.390625 169.328125 44.398438 169.515625 44.40625 L 169.625 44.421875 L 169.625 44.75 L 167.59375 44.75 L 165.421875 41.25 Z M 164.515625 40.890625 L 164.90625 40.890625 C 165.375 40.890625 165.742188 40.839844 166.015625 40.734375 C 166.285156 40.621094 166.507812 40.429688 166.6875 40.15625 C 166.90625 39.835938 167.015625 39.414062 167.015625 38.890625 C 167.015625 38.359375 166.910156 37.949219 166.703125 37.65625 C 166.566406 37.46875 166.394531 37.339844 166.1875 37.265625 C 165.976562 37.195312 165.671875 37.15625 165.265625 37.15625 L 164.515625 37.15625 Z M 164.515625 40.890625 "/>
<path style=" stroke:none;fill-rule:evenodd;fill:rgb(100%,0%,0%);fill-opacity:1;" d="M 104.5 49.75 C 104.5 56.417969 94.5 56.417969 94.5 49.75 C 94.5 43.082031 104.5 43.082031 104.5 49.75 "/>
<path style=" stroke:none;fill-rule:evenodd;fill:rgb(0%,0%,0%);fill-opacity:1;" d="M 88.75 31.75 L 83.046875 31.75 L 83.046875 31.421875 L 83.140625 31.40625 L 83.5 31.390625 C 83.707031 31.371094 83.835938 31.335938 83.890625 31.28125 C 83.953125 31.230469 83.988281 31.101562 84 30.890625 L 84.03125 30.359375 L 84.03125 25.1875 L 84 24.65625 C 83.988281 24.460938 83.953125 24.335938 83.890625 24.28125 C 83.835938 24.21875 83.707031 24.179688 83.5 24.15625 L 83.140625 24.140625 L 83.046875 24.125 L 83.046875 23.796875 L 86.15625 23.796875 L 86.15625 24.125 L 86.0625 24.140625 L 85.6875 24.15625 C 85.488281 24.179688 85.359375 24.21875 85.296875 24.28125 C 85.242188 24.335938 85.210938 24.460938 85.203125 24.65625 L 85.171875 25.1875 L 85.171875 30.359375 C 85.171875 30.839844 85.203125 31.117188 85.265625 31.1875 C 85.335938 31.25 85.613281 31.28125 86.09375 31.28125 L 86.90625 31.28125 C 87.382812 31.28125 87.726562 31.25 87.9375 31.1875 C 88.070312 31.148438 88.144531 31.023438 88.15625 30.8125 L 88.171875 30.265625 L 88.171875 30.15625 L 88.75 30.15625 Z M 90.953125 29.296875 L 90.484375 30.359375 C 90.421875 30.507812 90.382812 30.605469 90.375 30.65625 L 90.25 31.03125 C 90.226562 31.09375 90.21875 31.152344 90.21875 31.203125 C 90.21875 31.339844 90.359375 31.40625 90.640625 31.40625 L 90.921875 31.421875 L 91 31.421875 L 91 31.75 L 88.9375 31.75 L 88.9375 31.421875 L 89.046875 31.40625 L 89.3125 31.40625 C 89.425781 31.398438 89.515625 31.359375 89.578125 31.296875 C 89.648438 31.226562 89.722656 31.101562 89.796875 30.921875 L 90.046875 30.359375 L 92.84375 23.703125 L 93.21875 23.703125 L 96.015625 30.390625 L 96.28125 30.953125 C 96.382812 31.164062 96.46875 31.289062 96.53125 31.328125 C 96.601562 31.371094 96.757812 31.398438 97 31.40625 L 97.125 31.421875 L 97.125 31.75 L 94.171875 31.75 L 94.171875 31.421875 L 94.265625 31.421875 L 94.59375 31.40625 C 94.875 31.40625 95.015625 31.339844 95.015625 31.203125 C 95.015625 30.996094 94.941406 30.714844 94.796875 30.359375 L 94.359375 29.296875 Z M 91.125 28.859375 L 94.15625 28.859375 L 92.65625 25.25 Z M 101.078125 27.625 C 101.734375 27.742188 102.25 27.984375 102.625 28.359375 C 103 28.734375 103.1875 29.199219 103.1875 29.75 C 103.1875 30.324219 102.984375 30.808594 102.578125 31.203125 C 102.335938 31.414062 102.070312 31.558594 101.78125 31.640625 C 101.488281 31.714844 101.050781 31.75 100.46875 31.75 L 97.359375 31.75 L 97.359375 31.421875 L 97.453125 31.40625 L 97.8125 31.390625 C 98.019531 31.371094 98.148438 31.335938 98.203125 31.28125 C 98.265625 31.230469 98.300781 31.101562 98.3125 30.890625 L 98.34375 30.359375 L 98.34375 25.1875 L 98.3125 24.65625 C 98.300781 24.460938 98.265625 24.335938 98.203125 24.28125 C 98.148438 24.21875 98.019531 24.179688 97.8125 24.15625 L 97.453125 24.140625 L 97.359375 24.125 L 97.359375 23.796875 L 100.625 23.796875 C 101.40625 23.796875 101.96875 23.953125 102.3125 24.265625 C 102.675781 24.609375 102.859375 25.042969 102.859375 25.5625 C 102.859375 26.054688 102.6875 26.496094 102.34375 26.890625 C 102.09375 27.164062 101.671875 27.40625 101.078125 27.625 Z M 99.46875 27.8125 L 99.46875 30.359375 L 99.484375 30.828125 C 99.484375 31.089844 99.546875 31.242188 99.671875 31.28125 C 99.878906 31.355469 100.113281 31.390625 100.375 31.390625 C 100.863281 31.390625 101.257812 31.246094 101.5625 30.953125 C 101.875 30.652344 102.03125 30.265625 102.03125 29.796875 C 102.03125 29.164062 101.804688 28.671875 101.359375 28.328125 C 100.921875 27.984375 100.289062 27.8125 99.46875 27.8125 Z M 99.46875 27.4375 L 99.796875 27.4375 C 101.078125 27.4375 101.71875 26.855469 101.71875 25.6875 C 101.71875 25.210938 101.601562 24.84375 101.375 24.59375 C 101.21875 24.4375 101.019531 24.328125 100.78125 24.265625 C 100.539062 24.195312 100.191406 24.15625 99.734375 24.15625 L 99.46875 24.15625 Z M 109.796875 31.75 L 104.0625 31.75 L 104.0625 31.421875 L 104.15625 31.40625 L 104.515625 31.390625 C 104.722656 31.371094 104.851562 31.335938 104.90625 31.28125 C 104.96875 31.230469 105.003906 31.101562 105.015625 30.890625 L 105.046875 30.359375 L 105.046875 25.1875 L 105.015625 24.65625 C 105.003906 24.460938 104.96875 24.335938 104.90625 24.28125 C 104.851562 24.21875 104.722656 24.179688 104.515625 24.15625 L 104.15625 24.140625 L 104.0625 24.125 L 104.0625 23.796875 L 109.5 23.796875 L 109.5 25.1875 L 108.90625 25.1875 L 108.890625 25.09375 L 108.859375 24.640625 C 108.859375 24.464844 108.835938 24.355469 108.796875 24.3125 C 108.753906 24.261719 108.644531 24.234375 108.46875 24.234375 L 106.1875 24.234375 L 106.1875 27.40625 L 107.640625 27.40625 L 107.96875 27.390625 C 108.132812 27.390625 108.234375 27.375 108.265625 27.34375 C 108.304688 27.3125 108.332031 27.230469 108.34375 27.09375 C 108.34375 27.042969 108.347656 26.960938 108.359375 26.84375 L 108.359375 26.75 L 108.796875 26.75 L 108.796875 28.5 L 108.359375 28.5 L 108.359375 28.40625 C 108.335938 28.09375 108.296875 27.929688 108.234375 27.90625 C 108.109375 27.867188 107.910156 27.84375 107.640625 27.84375 L 106.1875 27.84375 L 106.1875 30.359375 C 106.1875 30.683594 106.210938 30.929688 106.265625 31.09375 C 106.316406 31.21875 106.59375 31.28125 107.09375 31.28125 L 107.9375 31.28125 L 108.703125 31.25 C 108.867188 31.25 108.984375 31.226562 109.046875 31.171875 C 109.117188 31.121094 109.160156 31.023438 109.171875 30.875 L 109.1875 30.390625 L 109.1875 30.296875 L 109.796875 30.296875 Z M 116 31.75 L 110.296875 31.75 L 110.296875 31.421875 L 110.390625 31.40625 L 110.75 31.390625 C 110.957031 31.371094 111.085938 31.335938 111.140625 31.28125 C 111.203125 31.230469 111.238281 31.101562 111.25 30.890625 L 111.28125 30.359375 L 111.28125 25.1875 L 111.25 24.65625 C 111.238281 24.460938 111.203125 24.335938 111.140625 24.28125 C 111.085938 24.21875 110.957031 24.179688 110.75 24.15625 L 110.390625 24.140625 L 110.296875 24.125 L 110.296875 23.796875 L 113.40625 23.796875 L 113.40625 24.125 L 113.3125 24.140625 L 112.9375 24.15625 C 112.738281 24.179688 112.609375 24.21875 112.546875 24.28125 C 112.492188 24.335938 112.460938 24.460938 112.453125 24.65625 L 112.421875 25.1875 L 112.421875 30.359375 C 112.421875 30.839844 112.453125 31.117188 112.515625 31.1875 C 112.585938 31.25 112.863281 31.28125 113.34375 31.28125 L 114.15625 31.28125 C 114.632812 31.28125 114.976562 31.25 115.1875 31.1875 C 115.320312 31.148438 115.394531 31.023438 115.40625 30.8125 L 115.421875 30.265625 L 115.421875 30.15625 L 116 30.15625 Z M 82.90625 35.125 L 82.90625 34.796875 L 86.03125 34.796875 L 86.03125 35.125 L 85.9375 35.140625 L 85.5625 35.15625 C 85.394531 35.179688 85.28125 35.203125 85.21875 35.234375 C 85.164062 35.257812 85.128906 35.3125 85.109375 35.40625 C 85.054688 35.636719 85.03125 35.898438 85.03125 36.1875 L 85.03125 39.59375 C 85.03125 40.417969 85.050781 40.953125 85.09375 41.203125 C 85.144531 41.453125 85.253906 41.695312 85.421875 41.921875 C 85.765625 42.371094 86.285156 42.59375 86.984375 42.59375 C 87.628906 42.59375 88.144531 42.398438 88.53125 42 C 88.75 41.78125 88.890625 41.539062 88.953125 41.265625 C 89.023438 40.996094 89.0625 40.515625 89.0625 39.828125 L 89.0625 36.1875 L 89.03125 35.65625 C 89.019531 35.460938 88.984375 35.335938 88.921875 35.28125 C 88.867188 35.21875 88.738281 35.179688 88.53125 35.15625 L 88.171875 35.140625 L 88.078125 35.125 L 88.078125 34.796875 L 90.609375 34.796875 L 90.609375 35.125 L 90.515625 35.140625 L 90.15625 35.15625 C 89.976562 35.179688 89.859375 35.203125 89.796875 35.234375 C 89.742188 35.257812 89.707031 35.3125 89.6875 35.40625 C 89.644531 35.636719 89.625 35.898438 89.625 36.1875 L 89.625 39.515625 C 89.625 40.257812 89.582031 40.796875 89.5 41.140625 C 89.414062 41.484375 89.25 41.808594 89 42.109375 C 88.539062 42.671875 87.816406 42.953125 86.828125 42.953125 C 85.972656 42.953125 85.296875 42.746094 84.796875 42.328125 C 84.472656 42.070312 84.238281 41.742188 84.09375 41.34375 C 83.957031 40.9375 83.890625 40.417969 83.890625 39.78125 L 83.890625 36.1875 L 83.859375 35.65625 C 83.847656 35.460938 83.8125 35.335938 83.75 35.28125 C 83.695312 35.21875 83.566406 35.179688 83.359375 35.15625 L 83 35.140625 Z M 97.734375 42.328125 C 97.015625 42.746094 96.175781 42.953125 95.21875 42.953125 C 94 42.953125 93.035156 42.578125 92.328125 41.828125 C 91.628906 41.078125 91.28125 40.058594 91.28125 38.765625 C 91.28125 37.296875 91.707031 36.183594 92.5625 35.421875 C 93.1875 34.882812 94.046875 34.609375 95.140625 34.609375 C 95.765625 34.609375 96.515625 34.726562 97.390625 34.953125 L 97.59375 35 L 97.59375 36.515625 L 96.9375 36.515625 L 96.9375 36.40625 C 96.925781 36.304688 96.921875 36.199219 96.921875 36.09375 C 96.921875 35.792969 96.84375 35.578125 96.6875 35.453125 C 96.519531 35.308594 96.285156 35.195312 95.984375 35.109375 C 95.679688 35.015625 95.390625 34.96875 95.109375 34.96875 C 94.296875 34.96875 93.648438 35.3125 93.171875 36 C 92.691406 36.6875 92.453125 37.605469 92.453125 38.75 C 92.453125 39.90625 92.734375 40.808594 93.296875 41.453125 C 93.859375 42.101562 94.640625 42.421875 95.640625 42.421875 C 96.296875 42.421875 96.992188 42.21875 97.734375 41.8125 Z M 97.734375 42.328125 "/>
<path style=" stroke:none;fill-rule:evenodd;fill:rgb(100%,0%,0%);fill-opacity:1;" d="M 54.75 49.75 C 54.75 56.417969 44.75 56.417969 44.75 49.75 C 44.75 43.082031 54.75 43.082031 54.75 49.75 "/>
<path style=" stroke:none;fill-rule:evenodd;fill:rgb(0%,0%,0%);fill-opacity:1;" d="M 17.3125 33.75 L 11.609375 33.75 L 11.609375 33.421875 L 11.703125 33.40625 L 12.0625 33.390625 C 12.269531 33.371094 12.398438 33.335938 12.453125 33.28125 C 12.515625 33.230469 12.550781 33.101562 12.5625 32.890625 L 12.59375 32.359375 L 12.59375 27.1875 L 12.5625 26.65625 C 12.550781 26.460938 12.515625 26.335938 12.453125 26.28125 C 12.398438 26.21875 12.269531 26.179688 12.0625 26.15625 L 11.703125 26.140625 L 11.609375 26.125 L 11.609375 25.796875 L 14.71875 25.796875 L 14.71875 26.125 L 14.625 26.140625 L 14.25 26.15625 C 14.050781 26.179688 13.921875 26.21875 13.859375 26.28125 C 13.804688 26.335938 13.773438 26.460938 13.765625 26.65625 L 13.734375 27.1875 L 13.734375 32.359375 C 13.734375 32.839844 13.765625 33.117188 13.828125 33.1875 C 13.898438 33.25 14.175781 33.28125 14.65625 33.28125 L 15.46875 33.28125 C 15.945312 33.28125 16.289062 33.25 16.5 33.1875 C 16.632812 33.148438 16.707031 33.023438 16.71875 32.8125 L 16.734375 32.265625 L 16.734375 32.15625 L 17.3125 32.15625 Z M 19.515625 31.296875 L 19.046875 32.359375 C 18.984375 32.507812 18.945312 32.605469 18.9375 32.65625 L 18.8125 33.03125 C 18.789062 33.09375 18.78125 33.152344 18.78125 33.203125 C 18.78125 33.339844 18.921875 33.40625 19.203125 33.40625 L 19.484375 33.421875 L 19.5625 33.421875 L 19.5625 33.75 L 17.5 33.75 L 17.5 33.421875 L 17.609375 33.40625 L 17.875 33.40625 C 17.988281 33.398438 18.078125 33.359375 18.140625 33.296875 C 18.210938 33.226562 18.285156 33.101562 18.359375 32.921875 L 18.609375 32.359375 L 21.40625 25.703125 L 21.78125 25.703125 L 24.578125 32.390625 L 24.84375 32.953125 C 24.945312 33.164062 25.03125 33.289062 25.09375 33.328125 C 25.164062 33.371094 25.320312 33.398438 25.5625 33.40625 L 25.6875 33.421875 L 25.6875 33.75 L 22.734375 33.75 L 22.734375 33.421875 L 22.828125 33.421875 L 23.15625 33.40625 C 23.4375 33.40625 23.578125 33.339844 23.578125 33.203125 C 23.578125 32.996094 23.503906 32.714844 23.359375 32.359375 L 22.921875 31.296875 Z M 19.6875 30.859375 L 22.71875 30.859375 L 21.21875 27.25 Z M 29.640625 29.625 C 30.296875 29.742188 30.8125 29.984375 31.1875 30.359375 C 31.5625 30.734375 31.75 31.199219 31.75 31.75 C 31.75 32.324219 31.546875 32.808594 31.140625 33.203125 C 30.898438 33.414062 30.632812 33.558594 30.34375 33.640625 C 30.050781 33.714844 29.613281 33.75 29.03125 33.75 L 25.921875 33.75 L 25.921875 33.421875 L 26.015625 33.40625 L 26.375 33.390625 C 26.582031 33.371094 26.710938 33.335938 26.765625 33.28125 C 26.828125 33.230469 26.863281 33.101562 26.875 32.890625 L 26.90625 32.359375 L 26.90625 27.1875 L 26.875 26.65625 C 26.863281 26.460938 26.828125 26.335938 26.765625 26.28125 C 26.710938 26.21875 26.582031 26.179688 26.375 26.15625 L 26.015625 26.140625 L 25.921875 26.125 L 25.921875 25.796875 L 29.1875 25.796875 C 29.96875 25.796875 30.53125 25.953125 30.875 26.265625 C 31.238281 26.609375 31.421875 27.042969 31.421875 27.5625 C 31.421875 28.054688 31.25 28.496094 30.90625 28.890625 C 30.65625 29.164062 30.234375 29.40625 29.640625 29.625 Z M 28.03125 29.8125 L 28.03125 32.359375 L 28.046875 32.828125 C 28.046875 33.089844 28.109375 33.242188 28.234375 33.28125 C 28.441406 33.355469 28.675781 33.390625 28.9375 33.390625 C 29.425781 33.390625 29.820312 33.246094 30.125 32.953125 C 30.4375 32.652344 30.59375 32.265625 30.59375 31.796875 C 30.59375 31.164062 30.367188 30.671875 29.921875 30.328125 C 29.484375 29.984375 28.851562 29.8125 28.03125 29.8125 Z M 28.03125 29.4375 L 28.359375 29.4375 C 29.640625 29.4375 30.28125 28.855469 30.28125 27.6875 C 30.28125 27.210938 30.164062 26.84375 29.9375 26.59375 C 29.78125 26.4375 29.582031 26.328125 29.34375 26.265625 C 29.101562 26.195312 28.753906 26.15625 28.296875 26.15625 L 28.03125 26.15625 Z M 38.359375 33.75 L 32.625 33.75 L 32.625 33.421875 L 32.71875 33.40625 L 33.078125 33.390625 C 33.285156 33.371094 33.414062 33.335938 33.46875 33.28125 C 33.53125 33.230469 33.566406 33.101562 33.578125 32.890625 L 33.609375 32.359375 L 33.609375 27.1875 L 33.578125 26.65625 C 33.566406 26.460938 33.53125 26.335938 33.46875 26.28125 C 33.414062 26.21875 33.285156 26.179688 33.078125 26.15625 L 32.71875 26.140625 L 32.625 26.125 L 32.625 25.796875 L 38.0625 25.796875 L 38.0625 27.1875 L 37.46875 27.1875 L 37.453125 27.09375 L 37.421875 26.640625 C 37.421875 26.464844 37.398438 26.355469 37.359375 26.3125 C 37.316406 26.261719 37.207031 26.234375 37.03125 26.234375 L 34.75 26.234375 L 34.75 29.40625 L 36.203125 29.40625 L 36.53125 29.390625 C 36.695312 29.390625 36.796875 29.375 36.828125 29.34375 C 36.867188 29.3125 36.894531 29.230469 36.90625 29.09375 C 36.90625 29.042969 36.910156 28.960938 36.921875 28.84375 L 36.921875 28.75 L 37.359375 28.75 L 37.359375 30.5 L 36.921875 30.5 L 36.921875 30.40625 C 36.898438 30.09375 36.859375 29.929688 36.796875 29.90625 C 36.671875 29.867188 36.472656 29.84375 36.203125 29.84375 L 34.75 29.84375 L 34.75 32.359375 C 34.75 32.683594 34.773438 32.929688 34.828125 33.09375 C 34.878906 33.21875 35.15625 33.28125 35.65625 33.28125 L 36.5 33.28125 L 37.265625 33.25 C 37.429688 33.25 37.546875 33.226562 37.609375 33.171875 C 37.679688 33.121094 37.722656 33.023438 37.734375 32.875 L 37.75 32.390625 L 37.75 32.296875 L 38.359375 32.296875 Z M 44.5625 33.75 L 38.859375 33.75 L 38.859375 33.421875 L 38.953125 33.40625 L 39.3125 33.390625 C 39.519531 33.371094 39.648438 33.335938 39.703125 33.28125 C 39.765625 33.230469 39.800781 33.101562 39.8125 32.890625 L 39.84375 32.359375 L 39.84375 27.1875 L 39.8125 26.65625 C 39.800781 26.460938 39.765625 26.335938 39.703125 26.28125 C 39.648438 26.21875 39.519531 26.179688 39.3125 26.15625 L 38.953125 26.140625 L 38.859375 26.125 L 38.859375 25.796875 L 41.96875 25.796875 L 41.96875 26.125 L 41.875 26.140625 L 41.5 26.15625 C 41.300781 26.179688 41.171875 26.21875 41.109375 26.28125 C 41.054688 26.335938 41.023438 26.460938 41.015625 26.65625 L 40.984375 27.1875 L 40.984375 32.359375 C 40.984375 32.839844 41.015625 33.117188 41.078125 33.1875 C 41.148438 33.25 41.425781 33.28125 41.90625 33.28125 L 42.71875 33.28125 C 43.195312 33.28125 43.539062 33.25 43.75 33.1875 C 43.882812 33.148438 43.957031 33.023438 43.96875 32.8125 L 43.984375 32.265625 L 43.984375 32.15625 L 44.5625 32.15625 Z M 11.46875 37.125 L 11.46875 36.796875 L 14.59375 36.796875 L 14.59375 37.125 L 14.5 37.140625 L 14.125 37.15625 C 13.957031 37.179688 13.84375 37.203125 13.78125 37.234375 C 13.726562 37.257812 13.691406 37.3125 13.671875 37.40625 C 13.617188 37.636719 13.59375 37.898438 13.59375 38.1875 L 13.59375 41.59375 C 13.59375 42.417969 13.613281 42.953125 13.65625 43.203125 C 13.707031 43.453125 13.816406 43.695312 13.984375 43.921875 C 14.328125 44.371094 14.847656 44.59375 15.546875 44.59375 C 16.191406 44.59375 16.707031 44.398438 17.09375 44 C 17.3125 43.78125 17.453125 43.539062 17.515625 43.265625 C 17.585938 42.996094 17.625 42.515625 17.625 41.828125 L 17.625 38.1875 L 17.59375 37.65625 C 17.582031 37.460938 17.546875 37.335938 17.484375 37.28125 C 17.429688 37.21875 17.300781 37.179688 17.09375 37.15625 L 16.734375 37.140625 L 16.640625 37.125 L 16.640625 36.796875 L 19.171875 36.796875 L 19.171875 37.125 L 19.078125 37.140625 L 18.71875 37.15625 C 18.539062 37.179688 18.421875 37.203125 18.359375 37.234375 C 18.304688 37.257812 18.269531 37.3125 18.25 37.40625 C 18.207031 37.636719 18.1875 37.898438 18.1875 38.1875 L 18.1875 41.515625 C 18.1875 42.257812 18.144531 42.796875 18.0625 43.140625 C 17.976562 43.484375 17.8125 43.808594 17.5625 44.109375 C 17.101562 44.671875 16.378906 44.953125 15.390625 44.953125 C 14.535156 44.953125 13.859375 44.746094 13.359375 44.328125 C 13.035156 44.070312 12.800781 43.742188 12.65625 43.34375 C 12.519531 42.9375 12.453125 42.417969 12.453125 41.78125 L 12.453125 38.1875 L 12.421875 37.65625 C 12.410156 37.460938 12.375 37.335938 12.3125 37.28125 C 12.257812 37.21875 12.128906 37.179688 11.921875 37.15625 L 11.5625 37.140625 Z M 25.21875 44.75 L 19.515625 44.75 L 19.515625 44.421875 L 19.609375 44.40625 L 19.96875 44.390625 C 20.175781 44.371094 20.304688 44.335938 20.359375 44.28125 C 20.421875 44.230469 20.457031 44.101562 20.46875 43.890625 L 20.5 43.359375 L 20.5 38.1875 L 20.46875 37.65625 C 20.457031 37.460938 20.421875 37.335938 20.359375 37.28125 C 20.304688 37.21875 20.175781 37.179688 19.96875 37.15625 L 19.609375 37.140625 L 19.515625 37.125 L 19.515625 36.796875 L 22.625 36.796875 L 22.625 37.125 L 22.53125 37.140625 L 22.15625 37.15625 C 21.957031 37.179688 21.828125 37.21875 21.765625 37.28125 C 21.710938 37.335938 21.679688 37.460938 21.671875 37.65625 L 21.640625 38.1875 L 21.640625 43.359375 C 21.640625 43.839844 21.671875 44.117188 21.734375 44.1875 C 21.804688 44.25 22.082031 44.28125 22.5625 44.28125 L 23.375 44.28125 C 23.851562 44.28125 24.195312 44.25 24.40625 44.1875 C 24.539062 44.148438 24.613281 44.023438 24.625 43.8125 L 24.640625 43.265625 L 24.640625 43.15625 L 25.21875 43.15625 Z M 25.21875 44.75 "/>
<path style=" stroke:none;fill-rule:evenodd;fill:rgb(100%,0%,0%);fill-opacity:1;" d="M 154.25 99.5 C 154.25 106.167969 144.25 106.167969 144.25 99.5 C 144.25 92.832031 154.25 92.832031 154.25 99.5 "/>
<path style=" stroke:none;fill-rule:evenodd;fill:rgb(0%,0%,0%);fill-opacity:1;" d="M 162.1875 98.125 L 156.484375 98.125 L 156.484375 97.796875 L 156.578125 97.78125 L 156.9375 97.765625 C 157.144531 97.746094 157.273438 97.710938 157.328125 97.65625 C 157.390625 97.605469 157.425781 97.476562 157.4375 97.265625 L 157.46875 96.734375 L 157.46875 91.5625 L 157.4375 91.03125 C 157.425781 90.835938 157.390625 90.710938 157.328125 90.65625 C 157.273438 90.59375 157.144531 90.554688 156.9375 90.53125 L 156.578125 90.515625 L 156.484375 90.5 L 156.484375 90.171875 L 159.59375 90.171875 L 159.59375 90.5 L 159.5 90.515625 L 159.125 90.53125 C 158.925781 90.554688 158.796875 90.59375 158.734375 90.65625 C 158.679688 90.710938 158.648438 90.835938 158.640625 91.03125 L 158.609375 91.5625 L 158.609375 96.734375 C 158.609375 97.214844 158.640625 97.492188 158.703125 97.5625 C 158.773438 97.625 159.050781 97.65625 159.53125 97.65625 L 160.34375 97.65625 C 160.820312 97.65625 161.164062 97.625 161.375 97.5625 C 161.507812 97.523438 161.582031 97.398438 161.59375 97.1875 L 161.609375 96.640625 L 161.609375 96.53125 L 162.1875 96.53125 Z M 164.390625 95.671875 L 163.921875 96.734375 C 163.859375 96.882812 163.820312 96.980469 163.8125 97.03125 L 163.6875 97.40625 C 163.664062 97.46875 163.65625 97.527344 163.65625 97.578125 C 163.65625 97.714844 163.796875 97.78125 164.078125 97.78125 L 164.359375 97.796875 L 164.4375 97.796875 L 164.4375 98.125 L 162.375 98.125 L 162.375 97.796875 L 162.484375 97.78125 L 162.75 97.78125 C 162.863281 97.773438 162.953125 97.734375 163.015625 97.671875 C 163.085938 97.601562 163.160156 97.476562 163.234375 97.296875 L 163.484375 96.734375 L 166.28125 90.078125 L 166.65625 90.078125 L 169.453125 96.765625 L 169.71875 97.328125 C 169.820312 97.539062 169.90625 97.664062 169.96875 97.703125 C 170.039062 97.746094 170.195312 97.773438 170.4375 97.78125 L 170.5625 97.796875 L 170.5625 98.125 L 167.609375 98.125 L 167.609375 97.796875 L 167.703125 97.796875 L 168.03125 97.78125 C 168.3125 97.78125 168.453125 97.714844 168.453125 97.578125 C 168.453125 97.371094 168.378906 97.089844 168.234375 96.734375 L 167.796875 95.671875 Z M 164.5625 95.234375 L 167.59375 95.234375 L 166.09375 91.625 Z M 174.515625 94 C 175.171875 94.117188 175.6875 94.359375 176.0625 94.734375 C 176.4375 95.109375 176.625 95.574219 176.625 96.125 C 176.625 96.699219 176.421875 97.183594 176.015625 97.578125 C 175.773438 97.789062 175.507812 97.933594 175.21875 98.015625 C 174.925781 98.089844 174.488281 98.125 173.90625 98.125 L 170.796875 98.125 L 170.796875 97.796875 L 170.890625 97.78125 L 171.25 97.765625 C 171.457031 97.746094 171.585938 97.710938 171.640625 97.65625 C 171.703125 97.605469 171.738281 97.476562 171.75 97.265625 L 171.78125 96.734375 L 171.78125 91.5625 L 171.75 91.03125 C 171.738281 90.835938 171.703125 90.710938 171.640625 90.65625 C 171.585938 90.59375 171.457031 90.554688 171.25 90.53125 L 170.890625 90.515625 L 170.796875 90.5 L 170.796875 90.171875 L 174.0625 90.171875 C 174.84375 90.171875 175.40625 90.328125 175.75 90.640625 C 176.113281 90.984375 176.296875 91.417969 176.296875 91.9375 C 176.296875 92.429688 176.125 92.871094 175.78125 93.265625 C 175.53125 93.539062 175.109375 93.78125 174.515625 94 Z M 172.90625 94.1875 L 172.90625 96.734375 L 172.921875 97.203125 C 172.921875 97.464844 172.984375 97.617188 173.109375 97.65625 C 173.316406 97.730469 173.550781 97.765625 173.8125 97.765625 C 174.300781 97.765625 174.695312 97.621094 175 97.328125 C 175.3125 97.027344 175.46875 96.640625 175.46875 96.171875 C 175.46875 95.539062 175.242188 95.046875 174.796875 94.703125 C 174.359375 94.359375 173.726562 94.1875 172.90625 94.1875 Z M 172.90625 93.8125 L 173.234375 93.8125 C 174.515625 93.8125 175.15625 93.230469 175.15625 92.0625 C 175.15625 91.585938 175.039062 91.21875 174.8125 90.96875 C 174.65625 90.8125 174.457031 90.703125 174.21875 90.640625 C 173.976562 90.570312 173.628906 90.53125 173.171875 90.53125 L 172.90625 90.53125 Z M 183.234375 98.125 L 177.5 98.125 L 177.5 97.796875 L 177.59375 97.78125 L 177.953125 97.765625 C 178.160156 97.746094 178.289062 97.710938 178.34375 97.65625 C 178.40625 97.605469 178.441406 97.476562 178.453125 97.265625 L 178.484375 96.734375 L 178.484375 91.5625 L 178.453125 91.03125 C 178.441406 90.835938 178.40625 90.710938 178.34375 90.65625 C 178.289062 90.59375 178.160156 90.554688 177.953125 90.53125 L 177.59375 90.515625 L 177.5 90.5 L 177.5 90.171875 L 182.9375 90.171875 L 182.9375 91.5625 L 182.34375 91.5625 L 182.328125 91.46875 L 182.296875 91.015625 C 182.296875 90.839844 182.273438 90.730469 182.234375 90.6875 C 182.191406 90.636719 182.082031 90.609375 181.90625 90.609375 L 179.625 90.609375 L 179.625 93.78125 L 181.078125 93.78125 L 181.40625 93.765625 C 181.570312 93.765625 181.671875 93.75 181.703125 93.71875 C 181.742188 93.6875 181.769531 93.605469 181.78125 93.46875 C 181.78125 93.417969 181.785156 93.335938 181.796875 93.21875 L 181.796875 93.125 L 182.234375 93.125 L 182.234375 94.875 L 181.796875 94.875 L 181.796875 94.78125 C 181.773438 94.46875 181.734375 94.304688 181.671875 94.28125 C 181.546875 94.242188 181.347656 94.21875 181.078125 94.21875 L 179.625 94.21875 L 179.625 96.734375 C 179.625 97.058594 179.648438 97.304688 179.703125 97.46875 C 179.753906 97.59375 180.03125 97.65625 180.53125 97.65625 L 181.375 97.65625 L 182.140625 97.625 C 182.304688 97.625 182.421875 97.601562 182.484375 97.546875 C 182.554688 97.496094 182.597656 97.398438 182.609375 97.25 L 182.625 96.765625 L 182.625 96.671875 L 183.234375 96.671875 Z M 189.4375 98.125 L 183.734375 98.125 L 183.734375 97.796875 L 183.828125 97.78125 L 184.1875 97.765625 C 184.394531 97.746094 184.523438 97.710938 184.578125 97.65625 C 184.640625 97.605469 184.675781 97.476562 184.6875 97.265625 L 184.71875 96.734375 L 184.71875 91.5625 L 184.6875 91.03125 C 184.675781 90.835938 184.640625 90.710938 184.578125 90.65625 C 184.523438 90.59375 184.394531 90.554688 184.1875 90.53125 L 183.828125 90.515625 L 183.734375 90.5 L 183.734375 90.171875 L 186.84375 90.171875 L 186.84375 90.5 L 186.75 90.515625 L 186.375 90.53125 C 186.175781 90.554688 186.046875 90.59375 185.984375 90.65625 C 185.929688 90.710938 185.898438 90.835938 185.890625 91.03125 L 185.859375 91.5625 L 185.859375 96.734375 C 185.859375 97.214844 185.890625 97.492188 185.953125 97.5625 C 186.023438 97.625 186.300781 97.65625 186.78125 97.65625 L 187.59375 97.65625 C 188.070312 97.65625 188.414062 97.625 188.625 97.5625 C 188.757812 97.523438 188.832031 97.398438 188.84375 97.1875 L 188.859375 96.640625 L 188.859375 96.53125 L 189.4375 96.53125 Z M 163.265625 108.703125 C 162.546875 109.121094 161.707031 109.328125 160.75 109.328125 C 159.53125 109.328125 158.566406 108.953125 157.859375 108.203125 C 157.160156 107.453125 156.8125 106.433594 156.8125 105.140625 C 156.8125 103.671875 157.238281 102.558594 158.09375 101.796875 C 158.71875 101.257812 159.578125 100.984375 160.671875 100.984375 C 161.296875 100.984375 162.046875 101.101562 162.921875 101.328125 L 163.125 101.375 L 163.125 102.890625 L 162.46875 102.890625 L 162.46875 102.78125 C 162.457031 102.679688 162.453125 102.574219 162.453125 102.46875 C 162.453125 102.167969 162.375 101.953125 162.21875 101.828125 C 162.050781 101.683594 161.816406 101.570312 161.515625 101.484375 C 161.210938 101.390625 160.921875 101.34375 160.640625 101.34375 C 159.828125 101.34375 159.179688 101.6875 158.703125 102.375 C 158.222656 103.0625 157.984375 103.980469 157.984375 105.125 C 157.984375 106.28125 158.265625 107.183594 158.828125 107.828125 C 159.390625 108.476562 160.171875 108.796875 161.171875 108.796875 C 161.828125 108.796875 162.523438 108.59375 163.265625 108.1875 Z M 166.25 105.625 L 166.25 107.734375 L 166.28125 108.265625 C 166.28125 108.484375 166.316406 108.621094 166.390625 108.671875 C 166.460938 108.726562 166.671875 108.761719 167.015625 108.78125 L 167.109375 108.796875 L 167.109375 109.125 L 164.140625 109.125 L 164.140625 108.796875 L 164.234375 108.78125 L 164.59375 108.765625 C 164.800781 108.746094 164.929688 108.710938 164.984375 108.65625 C 165.046875 108.605469 165.082031 108.476562 165.09375 108.265625 L 165.125 107.734375 L 165.125 102.5625 L 165.09375 102.03125 C 165.082031 101.835938 165.046875 101.710938 164.984375 101.65625 C 164.929688 101.59375 164.800781 101.554688 164.59375 101.53125 L 164.234375 101.515625 L 164.140625 101.5 L 164.140625 101.171875 L 166.578125 101.171875 L 167.453125 101.140625 C 168.253906 101.140625 168.863281 101.3125 169.28125 101.65625 C 169.695312 101.992188 169.90625 102.484375 169.90625 103.140625 C 169.90625 103.683594 169.765625 104.148438 169.484375 104.53125 C 169.203125 104.917969 168.796875 105.199219 168.265625 105.375 L 169.828125 107.71875 L 170.328125 108.421875 C 170.429688 108.570312 170.519531 108.664062 170.59375 108.703125 C 170.664062 108.746094 170.769531 108.765625 170.90625 108.765625 C 170.957031 108.765625 171.078125 108.773438 171.265625 108.78125 L 171.375 108.796875 L 171.375 109.125 L 169.34375 109.125 L 167.171875 105.625 Z M 166.265625 105.265625 L 166.65625 105.265625 C 167.125 105.265625 167.492188 105.214844 167.765625 105.109375 C 168.035156 104.996094 168.257812 104.804688 168.4375 104.53125 C 168.65625 104.210938 168.765625 103.789062 168.765625 103.265625 C 168.765625 102.734375 168.660156 102.324219 168.453125 102.03125 C 168.316406 101.84375 168.144531 101.714844 167.9375 101.640625 C 167.726562 101.570312 167.421875 101.53125 167.015625 101.53125 L 166.265625 101.53125 Z M 166.265625 105.265625 "/>
<path style=" stroke:none;fill-rule:evenodd;fill:rgb(100%,0%,0%);fill-opacity:1;" d="M 104.5 99.5 C 104.5 106.167969 94.5 106.167969 94.5 99.5 C 94.5 92.832031 104.5 92.832031 104.5 99.5 "/>
<path style=" stroke:none;fill-rule:evenodd;fill:rgb(0%,0%,0%);fill-opacity:1;" d="M 67.0625 83.5 L 61.359375 83.5 L 61.359375 83.171875 L 61.453125 83.15625 L 61.8125 83.140625 C 62.019531 83.121094 62.148438 83.085938 62.203125 83.03125 C 62.265625 82.980469 62.300781 82.851562 62.3125 82.640625 L 62.34375 82.109375 L 62.34375 76.9375 L 62.3125 76.40625 C 62.300781 76.210938 62.265625 76.085938 62.203125 76.03125 C 62.148438 75.96875 62.019531 75.929688 61.8125 75.90625 L 61.453125 75.890625 L 61.359375 75.875 L 61.359375 75.546875 L 64.46875 75.546875 L 64.46875 75.875 L 64.375 75.890625 L 64 75.90625 C 63.800781 75.929688 63.671875 75.96875 63.609375 76.03125 C 63.554688 76.085938 63.523438 76.210938 63.515625 76.40625 L 63.484375 76.9375 L 63.484375 82.109375 C 63.484375 82.589844 63.515625 82.867188 63.578125 82.9375 C 63.648438 83 63.925781 83.03125 64.40625 83.03125 L 65.21875 83.03125 C 65.695312 83.03125 66.039062 83 66.25 82.9375 C 66.382812 82.898438 66.457031 82.773438 66.46875 82.5625 L 66.484375 82.015625 L 66.484375 81.90625 L 67.0625 81.90625 Z M 69.265625 81.046875 L 68.796875 82.109375 C 68.734375 82.257812 68.695312 82.355469 68.6875 82.40625 L 68.5625 82.78125 C 68.539062 82.84375 68.53125 82.902344 68.53125 82.953125 C 68.53125 83.089844 68.671875 83.15625 68.953125 83.15625 L 69.234375 83.171875 L 69.3125 83.171875 L 69.3125 83.5 L 67.25 83.5 L 67.25 83.171875 L 67.359375 83.15625 L 67.625 83.15625 C 67.738281 83.148438 67.828125 83.109375 67.890625 83.046875 C 67.960938 82.976562 68.035156 82.851562 68.109375 82.671875 L 68.359375 82.109375 L 71.15625 75.453125 L 71.53125 75.453125 L 74.328125 82.140625 L 74.59375 82.703125 C 74.695312 82.914062 74.78125 83.039062 74.84375 83.078125 C 74.914062 83.121094 75.070312 83.148438 75.3125 83.15625 L 75.4375 83.171875 L 75.4375 83.5 L 72.484375 83.5 L 72.484375 83.171875 L 72.578125 83.171875 L 72.90625 83.15625 C 73.1875 83.15625 73.328125 83.089844 73.328125 82.953125 C 73.328125 82.746094 73.253906 82.464844 73.109375 82.109375 L 72.671875 81.046875 Z M 69.4375 80.609375 L 72.46875 80.609375 L 70.96875 77 Z M 79.390625 79.375 C 80.046875 79.492188 80.5625 79.734375 80.9375 80.109375 C 81.3125 80.484375 81.5 80.949219 81.5 81.5 C 81.5 82.074219 81.296875 82.558594 80.890625 82.953125 C 80.648438 83.164062 80.382812 83.308594 80.09375 83.390625 C 79.800781 83.464844 79.363281 83.5 78.78125 83.5 L 75.671875 83.5 L 75.671875 83.171875 L 75.765625 83.15625 L 76.125 83.140625 C 76.332031 83.121094 76.460938 83.085938 76.515625 83.03125 C 76.578125 82.980469 76.613281 82.851562 76.625 82.640625 L 76.65625 82.109375 L 76.65625 76.9375 L 76.625 76.40625 C 76.613281 76.210938 76.578125 76.085938 76.515625 76.03125 C 76.460938 75.96875 76.332031 75.929688 76.125 75.90625 L 75.765625 75.890625 L 75.671875 75.875 L 75.671875 75.546875 L 78.9375 75.546875 C 79.71875 75.546875 80.28125 75.703125 80.625 76.015625 C 80.988281 76.359375 81.171875 76.792969 81.171875 77.3125 C 81.171875 77.804688 81 78.246094 80.65625 78.640625 C 80.40625 78.914062 79.984375 79.15625 79.390625 79.375 Z M 77.78125 79.5625 L 77.78125 82.109375 L 77.796875 82.578125 C 77.796875 82.839844 77.859375 82.992188 77.984375 83.03125 C 78.191406 83.105469 78.425781 83.140625 78.6875 83.140625 C 79.175781 83.140625 79.570312 82.996094 79.875 82.703125 C 80.1875 82.402344 80.34375 82.015625 80.34375 81.546875 C 80.34375 80.914062 80.117188 80.421875 79.671875 80.078125 C 79.234375 79.734375 78.601562 79.5625 77.78125 79.5625 Z M 77.78125 79.1875 L 78.109375 79.1875 C 79.390625 79.1875 80.03125 78.605469 80.03125 77.4375 C 80.03125 76.960938 79.914062 76.59375 79.6875 76.34375 C 79.53125 76.1875 79.332031 76.078125 79.09375 76.015625 C 78.851562 75.945312 78.503906 75.90625 78.046875 75.90625 L 77.78125 75.90625 Z M 88.109375 83.5 L 82.375 83.5 L 82.375 83.171875 L 82.46875 83.15625 L 82.828125 83.140625 C 83.035156 83.121094 83.164062 83.085938 83.21875 83.03125 C 83.28125 82.980469 83.316406 82.851562 83.328125 82.640625 L 83.359375 82.109375 L 83.359375 76.9375 L 83.328125 76.40625 C 83.316406 76.210938 83.28125 76.085938 83.21875 76.03125 C 83.164062 75.96875 83.035156 75.929688 82.828125 75.90625 L 82.46875 75.890625 L 82.375 75.875 L 82.375 75.546875 L 87.8125 75.546875 L 87.8125 76.9375 L 87.21875 76.9375 L 87.203125 76.84375 L 87.171875 76.390625 C 87.171875 76.214844 87.148438 76.105469 87.109375 76.0625 C 87.066406 76.011719 86.957031 75.984375 86.78125 75.984375 L 84.5 75.984375 L 84.5 79.15625 L 85.953125 79.15625 L 86.28125 79.140625 C 86.445312 79.140625 86.546875 79.125 86.578125 79.09375 C 86.617188 79.0625 86.644531 78.980469 86.65625 78.84375 C 86.65625 78.792969 86.660156 78.710938 86.671875 78.59375 L 86.671875 78.5 L 87.109375 78.5 L 87.109375 80.25 L 86.671875 80.25 L 86.671875 80.15625 C 86.648438 79.84375 86.609375 79.679688 86.546875 79.65625 C 86.421875 79.617188 86.222656 79.59375 85.953125 79.59375 L 84.5 79.59375 L 84.5 82.109375 C 84.5 82.433594 84.523438 82.679688 84.578125 82.84375 C 84.628906 82.96875 84.90625 83.03125 85.40625 83.03125 L 86.25 83.03125 L 87.015625 83 C 87.179688 83 87.296875 82.976562 87.359375 82.921875 C 87.429688 82.871094 87.472656 82.773438 87.484375 82.625 L 87.5 82.140625 L 87.5 82.046875 L 88.109375 82.046875 Z M 94.3125 83.5 L 88.609375 83.5 L 88.609375 83.171875 L 88.703125 83.15625 L 89.0625 83.140625 C 89.269531 83.121094 89.398438 83.085938 89.453125 83.03125 C 89.515625 82.980469 89.550781 82.851562 89.5625 82.640625 L 89.59375 82.109375 L 89.59375 76.9375 L 89.5625 76.40625 C 89.550781 76.210938 89.515625 76.085938 89.453125 76.03125 C 89.398438 75.96875 89.269531 75.929688 89.0625 75.90625 L 88.703125 75.890625 L 88.609375 75.875 L 88.609375 75.546875 L 91.71875 75.546875 L 91.71875 75.875 L 91.625 75.890625 L 91.25 75.90625 C 91.050781 75.929688 90.921875 75.96875 90.859375 76.03125 C 90.804688 76.085938 90.773438 76.210938 90.765625 76.40625 L 90.734375 76.9375 L 90.734375 82.109375 C 90.734375 82.589844 90.765625 82.867188 90.828125 82.9375 C 90.898438 83 91.175781 83.03125 91.65625 83.03125 L 92.46875 83.03125 C 92.945312 83.03125 93.289062 83 93.5 82.9375 C 93.632812 82.898438 93.707031 82.773438 93.71875 82.5625 L 93.734375 82.015625 L 93.734375 81.90625 L 94.3125 81.90625 Z M 63.140625 92.046875 L 62.671875 93.109375 C 62.609375 93.257812 62.570312 93.355469 62.5625 93.40625 L 62.4375 93.78125 C 62.414062 93.84375 62.40625 93.902344 62.40625 93.953125 C 62.40625 94.089844 62.546875 94.15625 62.828125 94.15625 L 63.109375 94.171875 L 63.1875 94.171875 L 63.1875 94.5 L 61.125 94.5 L 61.125 94.171875 L 61.234375 94.15625 L 61.5 94.15625 C 61.613281 94.148438 61.703125 94.109375 61.765625 94.046875 C 61.835938 93.976562 61.910156 93.851562 61.984375 93.671875 L 62.234375 93.109375 L 65.03125 86.453125 L 65.40625 86.453125 L 68.203125 93.140625 L 68.46875 93.703125 C 68.570312 93.914062 68.65625 94.039062 68.71875 94.078125 C 68.789062 94.121094 68.945312 94.148438 69.1875 94.15625 L 69.3125 94.171875 L 69.3125 94.5 L 66.359375 94.5 L 66.359375 94.171875 L 66.453125 94.171875 L 66.78125 94.15625 C 67.0625 94.15625 67.203125 94.089844 67.203125 93.953125 C 67.203125 93.746094 67.128906 93.464844 66.984375 93.109375 L 66.546875 92.046875 Z M 63.3125 91.609375 L 66.34375 91.609375 L 64.84375 88 Z M 69.40625 86.875 L 69.40625 86.546875 L 72.53125 86.546875 L 72.53125 86.875 L 72.4375 86.890625 L 72.0625 86.90625 C 71.894531 86.929688 71.78125 86.953125 71.71875 86.984375 C 71.664062 87.007812 71.628906 87.0625 71.609375 87.15625 C 71.554688 87.386719 71.53125 87.648438 71.53125 87.9375 L 71.53125 91.34375 C 71.53125 92.167969 71.550781 92.703125 71.59375 92.953125 C 71.644531 93.203125 71.753906 93.445312 71.921875 93.671875 C 72.265625 94.121094 72.785156 94.34375 73.484375 94.34375 C 74.128906 94.34375 74.644531 94.148438 75.03125 93.75 C 75.25 93.53125 75.390625 93.289062 75.453125 93.015625 C 75.523438 92.746094 75.5625 92.265625 75.5625 91.578125 L 75.5625 87.9375 L 75.53125 87.40625 C 75.519531 87.210938 75.484375 87.085938 75.421875 87.03125 C 75.367188 86.96875 75.238281 86.929688 75.03125 86.90625 L 74.671875 86.890625 L 74.578125 86.875 L 74.578125 86.546875 L 77.109375 86.546875 L 77.109375 86.875 L 77.015625 86.890625 L 76.65625 86.90625 C 76.476562 86.929688 76.359375 86.953125 76.296875 86.984375 C 76.242188 87.007812 76.207031 87.0625 76.1875 87.15625 C 76.144531 87.386719 76.125 87.648438 76.125 87.9375 L 76.125 91.265625 C 76.125 92.007812 76.082031 92.546875 76 92.890625 C 75.914062 93.234375 75.75 93.558594 75.5 93.859375 C 75.039062 94.421875 74.316406 94.703125 73.328125 94.703125 C 72.472656 94.703125 71.796875 94.496094 71.296875 94.078125 C 70.972656 93.820312 70.738281 93.492188 70.59375 93.09375 C 70.457031 92.6875 70.390625 92.167969 70.390625 91.53125 L 70.390625 87.9375 L 70.359375 87.40625 C 70.347656 87.210938 70.3125 87.085938 70.25 87.03125 C 70.195312 86.96875 70.066406 86.929688 69.859375 86.90625 L 69.5 86.890625 Z M 80.296875 86.984375 L 79.03125 86.984375 L 78.46875 87 C 78.28125 87 78.160156 87.027344 78.109375 87.078125 C 78.054688 87.132812 78.03125 87.246094 78.03125 87.421875 C 78.03125 87.609375 78.023438 87.773438 78.015625 87.90625 L 78.015625 88 L 77.453125 88 L 77.453125 86.546875 L 84.28125 86.546875 L 84.28125 88 L 83.71875 88 L 83.703125 87.90625 C 83.691406 87.773438 83.6875 87.609375 83.6875 87.421875 C 83.6875 87.246094 83.660156 87.132812 83.609375 87.078125 C 83.554688 87.027344 83.4375 87 83.25 87 L 82.703125 86.984375 L 81.421875 86.984375 L 81.421875 93.109375 L 81.453125 93.640625 C 81.472656 93.851562 81.507812 93.980469 81.5625 94.03125 C 81.613281 94.085938 81.742188 94.121094 81.953125 94.140625 L 82.328125 94.15625 L 82.546875 94.171875 L 82.546875 94.5 L 79.171875 94.5 L 79.171875 94.171875 L 79.40625 94.15625 L 79.765625 94.140625 C 79.972656 94.121094 80.101562 94.085938 80.15625 94.03125 C 80.21875 93.980469 80.253906 93.851562 80.265625 93.640625 L 80.296875 93.109375 Z M 88.71875 94.703125 C 87.726562 94.703125 86.898438 94.386719 86.234375 93.75 C 85.453125 93.011719 85.0625 91.9375 85.0625 90.53125 C 85.0625 89.242188 85.390625 88.226562 86.046875 87.484375 C 86.710938 86.734375 87.625 86.359375 88.78125 86.359375 C 89.925781 86.359375 90.828125 86.730469 91.484375 87.46875 C 92.148438 88.210938 92.484375 89.226562 92.484375 90.515625 C 92.484375 91.820312 92.148438 92.84375 91.484375 93.59375 C 90.816406 94.335938 89.894531 94.703125 88.71875 94.703125 Z M 88.734375 94.328125 C 89.546875 94.328125 90.175781 93.996094 90.625 93.328125 C 91.070312 92.664062 91.296875 91.71875 91.296875 90.5 C 91.296875 89.324219 91.070312 88.402344 90.625 87.734375 C 90.175781 87.058594 89.5625 86.71875 88.78125 86.71875 C 87.988281 86.71875 87.367188 87.058594 86.921875 87.734375 C 86.472656 88.402344 86.25 89.328125 86.25 90.515625 C 86.25 91.703125 86.46875 92.636719 86.90625 93.3125 C 87.351562 93.992188 87.960938 94.328125 88.734375 94.328125 Z M 88.734375 94.328125 "/>
<path style=" stroke:none;fill-rule:evenodd;fill:rgb(100%,0%,0%);fill-opacity:1;" d="M 54.75 99.5 C 54.75 106.167969 44.75 106.167969 44.75 99.5 C 44.75 92.832031 54.75 92.832031 54.75 99.5 "/>
<path style=" stroke:none;fill-rule:evenodd;fill:rgb(0%,0%,0%);fill-opacity:1;" d="M 15.3125 98.125 L 9.609375 98.125 L 9.609375 97.796875 L 9.703125 97.78125 L 10.0625 97.765625 C 10.269531 97.746094 10.398438 97.710938 10.453125 97.65625 C 10.515625 97.605469 10.550781 97.476562 10.5625 97.265625 L 10.59375 96.734375 L 10.59375 91.5625 L 10.5625 91.03125 C 10.550781 90.835938 10.515625 90.710938 10.453125 90.65625 C 10.398438 90.59375 10.269531 90.554688 10.0625 90.53125 L 9.703125 90.515625 L 9.609375 90.5 L 9.609375 90.171875 L 12.71875 90.171875 L 12.71875 90.5 L 12.625 90.515625 L 12.25 90.53125 C 12.050781 90.554688 11.921875 90.59375 11.859375 90.65625 C 11.804688 90.710938 11.773438 90.835938 11.765625 91.03125 L 11.734375 91.5625 L 11.734375 96.734375 C 11.734375 97.214844 11.765625 97.492188 11.828125 97.5625 C 11.898438 97.625 12.175781 97.65625 12.65625 97.65625 L 13.46875 97.65625 C 13.945312 97.65625 14.289062 97.625 14.5 97.5625 C 14.632812 97.523438 14.707031 97.398438 14.71875 97.1875 L 14.734375 96.640625 L 14.734375 96.53125 L 15.3125 96.53125 Z M 17.515625 95.671875 L 17.046875 96.734375 C 16.984375 96.882812 16.945312 96.980469 16.9375 97.03125 L 16.8125 97.40625 C 16.789062 97.46875 16.78125 97.527344 16.78125 97.578125 C 16.78125 97.714844 16.921875 97.78125 17.203125 97.78125 L 17.484375 97.796875 L 17.5625 97.796875 L 17.5625 98.125 L 15.5 98.125 L 15.5 97.796875 L 15.609375 97.78125 L 15.875 97.78125 C 15.988281 97.773438 16.078125 97.734375 16.140625 97.671875 C 16.210938 97.601562 16.285156 97.476562 16.359375 97.296875 L 16.609375 96.734375 L 19.40625 90.078125 L 19.78125 90.078125 L 22.578125 96.765625 L 22.84375 97.328125 C 22.945312 97.539062 23.03125 97.664062 23.09375 97.703125 C 23.164062 97.746094 23.320312 97.773438 23.5625 97.78125 L 23.6875 97.796875 L 23.6875 98.125 L 20.734375 98.125 L 20.734375 97.796875 L 20.828125 97.796875 L 21.15625 97.78125 C 21.4375 97.78125 21.578125 97.714844 21.578125 97.578125 C 21.578125 97.371094 21.503906 97.089844 21.359375 96.734375 L 20.921875 95.671875 Z M 17.6875 95.234375 L 20.71875 95.234375 L 19.21875 91.625 Z M 27.640625 94 C 28.296875 94.117188 28.8125 94.359375 29.1875 94.734375 C 29.5625 95.109375 29.75 95.574219 29.75 96.125 C 29.75 96.699219 29.546875 97.183594 29.140625 97.578125 C 28.898438 97.789062 28.632812 97.933594 28.34375 98.015625 C 28.050781 98.089844 27.613281 98.125 27.03125 98.125 L 23.921875 98.125 L 23.921875 97.796875 L 24.015625 97.78125 L 24.375 97.765625 C 24.582031 97.746094 24.710938 97.710938 24.765625 97.65625 C 24.828125 97.605469 24.863281 97.476562 24.875 97.265625 L 24.90625 96.734375 L 24.90625 91.5625 L 24.875 91.03125 C 24.863281 90.835938 24.828125 90.710938 24.765625 90.65625 C 24.710938 90.59375 24.582031 90.554688 24.375 90.53125 L 24.015625 90.515625 L 23.921875 90.5 L 23.921875 90.171875 L 27.1875 90.171875 C 27.96875 90.171875 28.53125 90.328125 28.875 90.640625 C 29.238281 90.984375 29.421875 91.417969 29.421875 91.9375 C 29.421875 92.429688 29.25 92.871094 28.90625 93.265625 C 28.65625 93.539062 28.234375 93.78125 27.640625 94 Z M 26.03125 94.1875 L 26.03125 96.734375 L 26.046875 97.203125 C 26.046875 97.464844 26.109375 97.617188 26.234375 97.65625 C 26.441406 97.730469 26.675781 97.765625 26.9375 97.765625 C 27.425781 97.765625 27.820312 97.621094 28.125 97.328125 C 28.4375 97.027344 28.59375 96.640625 28.59375 96.171875 C 28.59375 95.539062 28.367188 95.046875 27.921875 94.703125 C 27.484375 94.359375 26.851562 94.1875 26.03125 94.1875 Z M 26.03125 93.8125 L 26.359375 93.8125 C 27.640625 93.8125 28.28125 93.230469 28.28125 92.0625 C 28.28125 91.585938 28.164062 91.21875 27.9375 90.96875 C 27.78125 90.8125 27.582031 90.703125 27.34375 90.640625 C 27.101562 90.570312 26.753906 90.53125 26.296875 90.53125 L 26.03125 90.53125 Z M 36.359375 98.125 L 30.625 98.125 L 30.625 97.796875 L 30.71875 97.78125 L 31.078125 97.765625 C 31.285156 97.746094 31.414062 97.710938 31.46875 97.65625 C 31.53125 97.605469 31.566406 97.476562 31.578125 97.265625 L 31.609375 96.734375 L 31.609375 91.5625 L 31.578125 91.03125 C 31.566406 90.835938 31.53125 90.710938 31.46875 90.65625 C 31.414062 90.59375 31.285156 90.554688 31.078125 90.53125 L 30.71875 90.515625 L 30.625 90.5 L 30.625 90.171875 L 36.0625 90.171875 L 36.0625 91.5625 L 35.46875 91.5625 L 35.453125 91.46875 L 35.421875 91.015625 C 35.421875 90.839844 35.398438 90.730469 35.359375 90.6875 C 35.316406 90.636719 35.207031 90.609375 35.03125 90.609375 L 32.75 90.609375 L 32.75 93.78125 L 34.203125 93.78125 L 34.53125 93.765625 C 34.695312 93.765625 34.796875 93.75 34.828125 93.71875 C 34.867188 93.6875 34.894531 93.605469 34.90625 93.46875 C 34.90625 93.417969 34.910156 93.335938 34.921875 93.21875 L 34.921875 93.125 L 35.359375 93.125 L 35.359375 94.875 L 34.921875 94.875 L 34.921875 94.78125 C 34.898438 94.46875 34.859375 94.304688 34.796875 94.28125 C 34.671875 94.242188 34.472656 94.21875 34.203125 94.21875 L 32.75 94.21875 L 32.75 96.734375 C 32.75 97.058594 32.773438 97.304688 32.828125 97.46875 C 32.878906 97.59375 33.15625 97.65625 33.65625 97.65625 L 34.5 97.65625 L 35.265625 97.625 C 35.429688 97.625 35.546875 97.601562 35.609375 97.546875 C 35.679688 97.496094 35.722656 97.398438 35.734375 97.25 L 35.75 96.765625 L 35.75 96.671875 L 36.359375 96.671875 Z M 42.5625 98.125 L 36.859375 98.125 L 36.859375 97.796875 L 36.953125 97.78125 L 37.3125 97.765625 C 37.519531 97.746094 37.648438 97.710938 37.703125 97.65625 C 37.765625 97.605469 37.800781 97.476562 37.8125 97.265625 L 37.84375 96.734375 L 37.84375 91.5625 L 37.8125 91.03125 C 37.800781 90.835938 37.765625 90.710938 37.703125 90.65625 C 37.648438 90.59375 37.519531 90.554688 37.3125 90.53125 L 36.953125 90.515625 L 36.859375 90.5 L 36.859375 90.171875 L 39.96875 90.171875 L 39.96875 90.5 L 39.875 90.515625 L 39.5 90.53125 C 39.300781 90.554688 39.171875 90.59375 39.109375 90.65625 C 39.054688 90.710938 39.023438 90.835938 39.015625 91.03125 L 38.984375 91.5625 L 38.984375 96.734375 C 38.984375 97.214844 39.015625 97.492188 39.078125 97.5625 C 39.148438 97.625 39.425781 97.65625 39.90625 97.65625 L 40.71875 97.65625 C 41.195312 97.65625 41.539062 97.625 41.75 97.5625 C 41.882812 97.523438 41.957031 97.398438 41.96875 97.1875 L 41.984375 96.640625 L 41.984375 96.53125 L 42.5625 96.53125 Z M 16.390625 108.703125 C 15.671875 109.121094 14.832031 109.328125 13.875 109.328125 C 12.65625 109.328125 11.691406 108.953125 10.984375 108.203125 C 10.285156 107.453125 9.9375 106.433594 9.9375 105.140625 C 9.9375 103.671875 10.363281 102.558594 11.21875 101.796875 C 11.84375 101.257812 12.703125 100.984375 13.796875 100.984375 C 14.421875 100.984375 15.171875 101.101562 16.046875 101.328125 L 16.25 101.375 L 16.25 102.890625 L 15.59375 102.890625 L 15.59375 102.78125 C 15.582031 102.679688 15.578125 102.574219 15.578125 102.46875 C 15.578125 102.167969 15.5 101.953125 15.34375 101.828125 C 15.175781 101.683594 14.941406 101.570312 14.640625 101.484375 C 14.335938 101.390625 14.046875 101.34375 13.765625 101.34375 C 12.953125 101.34375 12.304688 101.6875 11.828125 102.375 C 11.347656 103.0625 11.109375 103.980469 11.109375 105.125 C 11.109375 106.28125 11.390625 107.183594 11.953125 107.828125 C 12.515625 108.476562 13.296875 108.796875 14.296875 108.796875 C 14.953125 108.796875 15.648438 108.59375 16.390625 108.1875 Z M 22.96875 109.125 L 17.265625 109.125 L 17.265625 108.796875 L 17.359375 108.78125 L 17.71875 108.765625 C 17.925781 108.746094 18.054688 108.710938 18.109375 108.65625 C 18.171875 108.605469 18.207031 108.476562 18.21875 108.265625 L 18.25 107.734375 L 18.25 102.5625 L 18.21875 102.03125 C 18.207031 101.835938 18.171875 101.710938 18.109375 101.65625 C 18.054688 101.59375 17.925781 101.554688 17.71875 101.53125 L 17.359375 101.515625 L 17.265625 101.5 L 17.265625 101.171875 L 20.375 101.171875 L 20.375 101.5 L 20.28125 101.515625 L 19.90625 101.53125 C 19.707031 101.554688 19.578125 101.59375 19.515625 101.65625 C 19.460938 101.710938 19.429688 101.835938 19.421875 102.03125 L 19.390625 102.5625 L 19.390625 107.734375 C 19.390625 108.214844 19.421875 108.492188 19.484375 108.5625 C 19.554688 108.625 19.832031 108.65625 20.3125 108.65625 L 21.125 108.65625 C 21.601562 108.65625 21.945312 108.625 22.15625 108.5625 C 22.289062 108.523438 22.363281 108.398438 22.375 108.1875 L 22.390625 107.640625 L 22.390625 107.53125 L 22.96875 107.53125 Z M 22.96875 109.125 "/>
<path style=" stroke:none;fill-rule:evenodd;fill:rgb(100%,0%,0%);fill-opacity:1;" d="M 154.25 149.25 C 154.25 155.917969 144.25 155.917969 144.25 149.25 C 144.25 142.582031 154.25 142.582031 154.25 149.25 "/>
<path style=" stroke:none;fill-rule:evenodd;fill:rgb(0%,0%,0%);fill-opacity:1;" d="M 160.1875 162.296875 L 154.484375 162.296875 L 154.484375 161.96875 L 154.578125 161.953125 L 154.9375 161.9375 C 155.144531 161.917969 155.273438 161.882812 155.328125 161.828125 C 155.390625 161.777344 155.425781 161.648438 155.4375 161.4375 L 155.46875 160.90625 L 155.46875 155.734375 L 155.4375 155.203125 C 155.425781 155.007812 155.390625 154.882812 155.328125 154.828125 C 155.273438 154.765625 155.144531 154.726562 154.9375 154.703125 L 154.578125 154.6875 L 154.484375 154.671875 L 154.484375 154.34375 L 157.59375 154.34375 L 157.59375 154.671875 L 157.5 154.6875 L 157.125 154.703125 C 156.925781 154.726562 156.796875 154.765625 156.734375 154.828125 C 156.679688 154.882812 156.648438 155.007812 156.640625 155.203125 L 156.609375 155.734375 L 156.609375 160.90625 C 156.609375 161.386719 156.640625 161.664062 156.703125 161.734375 C 156.773438 161.796875 157.050781 161.828125 157.53125 161.828125 L 158.34375 161.828125 C 158.820312 161.828125 159.164062 161.796875 159.375 161.734375 C 159.507812 161.695312 159.582031 161.570312 159.59375 161.359375 L 159.609375 160.8125 L 159.609375 160.703125 L 160.1875 160.703125 Z M 162.390625 159.84375 L 161.921875 160.90625 C 161.859375 161.054688 161.820312 161.152344 161.8125 161.203125 L 161.6875 161.578125 C 161.664062 161.640625 161.65625 161.699219 161.65625 161.75 C 161.65625 161.886719 161.796875 161.953125 162.078125 161.953125 L 162.359375 161.96875 L 162.4375 161.96875 L 162.4375 162.296875 L 160.375 162.296875 L 160.375 161.96875 L 160.484375 161.953125 L 160.75 161.953125 C 160.863281 161.945312 160.953125 161.90625 161.015625 161.84375 C 161.085938 161.773438 161.160156 161.648438 161.234375 161.46875 L 161.484375 160.90625 L 164.28125 154.25 L 164.65625 154.25 L 167.453125 160.9375 L 167.71875 161.5 C 167.820312 161.710938 167.90625 161.835938 167.96875 161.875 C 168.039062 161.917969 168.195312 161.945312 168.4375 161.953125 L 168.5625 161.96875 L 168.5625 162.296875 L 165.609375 162.296875 L 165.609375 161.96875 L 165.703125 161.96875 L 166.03125 161.953125 C 166.3125 161.953125 166.453125 161.886719 166.453125 161.75 C 166.453125 161.542969 166.378906 161.261719 166.234375 160.90625 L 165.796875 159.84375 Z M 162.5625 159.40625 L 165.59375 159.40625 L 164.09375 155.796875 Z M 172.515625 158.171875 C 173.171875 158.289062 173.6875 158.53125 174.0625 158.90625 C 174.4375 159.28125 174.625 159.746094 174.625 160.296875 C 174.625 160.871094 174.421875 161.355469 174.015625 161.75 C 173.773438 161.960938 173.507812 162.105469 173.21875 162.1875 C 172.925781 162.261719 172.488281 162.296875 171.90625 162.296875 L 168.796875 162.296875 L 168.796875 161.96875 L 168.890625 161.953125 L 169.25 161.9375 C 169.457031 161.917969 169.585938 161.882812 169.640625 161.828125 C 169.703125 161.777344 169.738281 161.648438 169.75 161.4375 L 169.78125 160.90625 L 169.78125 155.734375 L 169.75 155.203125 C 169.738281 155.007812 169.703125 154.882812 169.640625 154.828125 C 169.585938 154.765625 169.457031 154.726562 169.25 154.703125 L 168.890625 154.6875 L 168.796875 154.671875 L 168.796875 154.34375 L 172.0625 154.34375 C 172.84375 154.34375 173.40625 154.5 173.75 154.8125 C 174.113281 155.15625 174.296875 155.589844 174.296875 156.109375 C 174.296875 156.601562 174.125 157.042969 173.78125 157.4375 C 173.53125 157.710938 173.109375 157.953125 172.515625 158.171875 Z M 170.90625 158.359375 L 170.90625 160.90625 L 170.921875 161.375 C 170.921875 161.636719 170.984375 161.789062 171.109375 161.828125 C 171.316406 161.902344 171.550781 161.9375 171.8125 161.9375 C 172.300781 161.9375 172.695312 161.792969 173 161.5 C 173.3125 161.199219 173.46875 160.8125 173.46875 160.34375 C 173.46875 159.710938 173.242188 159.21875 172.796875 158.875 C 172.359375 158.53125 171.726562 158.359375 170.90625 158.359375 Z M 170.90625 157.984375 L 171.234375 157.984375 C 172.515625 157.984375 173.15625 157.402344 173.15625 156.234375 C 173.15625 155.757812 173.039062 155.390625 172.8125 155.140625 C 172.65625 154.984375 172.457031 154.875 172.21875 154.8125 C 171.976562 154.742188 171.628906 154.703125 171.171875 154.703125 L 170.90625 154.703125 Z M 181.234375 162.296875 L 175.5 162.296875 L 175.5 161.96875 L 175.59375 161.953125 L 175.953125 161.9375 C 176.160156 161.917969 176.289062 161.882812 176.34375 161.828125 C 176.40625 161.777344 176.441406 161.648438 176.453125 161.4375 L 176.484375 160.90625 L 176.484375 155.734375 L 176.453125 155.203125 C 176.441406 155.007812 176.40625 154.882812 176.34375 154.828125 C 176.289062 154.765625 176.160156 154.726562 175.953125 154.703125 L 175.59375 154.6875 L 175.5 154.671875 L 175.5 154.34375 L 180.9375 154.34375 L 180.9375 155.734375 L 180.34375 155.734375 L 180.328125 155.640625 L 180.296875 155.1875 C 180.296875 155.011719 180.273438 154.902344 180.234375 154.859375 C 180.191406 154.808594 180.082031 154.78125 179.90625 154.78125 L 177.625 154.78125 L 177.625 157.953125 L 179.078125 157.953125 L 179.40625 157.9375 C 179.570312 157.9375 179.671875 157.921875 179.703125 157.890625 C 179.742188 157.859375 179.769531 157.777344 179.78125 157.640625 C 179.78125 157.589844 179.785156 157.507812 179.796875 157.390625 L 179.796875 157.296875 L 180.234375 157.296875 L 180.234375 159.046875 L 179.796875 159.046875 L 179.796875 158.953125 C 179.773438 158.640625 179.734375 158.476562 179.671875 158.453125 C 179.546875 158.414062 179.347656 158.390625 179.078125 158.390625 L 177.625 158.390625 L 177.625 160.90625 C 177.625 161.230469 177.648438 161.476562 177.703125 161.640625 C 177.753906 161.765625 178.03125 161.828125 178.53125 161.828125 L 179.375 161.828125 L 180.140625 161.796875 C 180.304688 161.796875 180.421875 161.773438 180.484375 161.71875 C 180.554688 161.667969 180.597656 161.570312 180.609375 161.421875 L 180.625 160.9375 L 180.625 160.84375 L 181.234375 160.84375 Z M 187.4375 162.296875 L 181.734375 162.296875 L 181.734375 161.96875 L 181.828125 161.953125 L 182.1875 161.9375 C 182.394531 161.917969 182.523438 161.882812 182.578125 161.828125 C 182.640625 161.777344 182.675781 161.648438 182.6875 161.4375 L 182.71875 160.90625 L 182.71875 155.734375 L 182.6875 155.203125 C 182.675781 155.007812 182.640625 154.882812 182.578125 154.828125 C 182.523438 154.765625 182.394531 154.726562 182.1875 154.703125 L 181.828125 154.6875 L 181.734375 154.671875 L 181.734375 154.34375 L 184.84375 154.34375 L 184.84375 154.671875 L 184.75 154.6875 L 184.375 154.703125 C 184.175781 154.726562 184.046875 154.765625 183.984375 154.828125 C 183.929688 154.882812 183.898438 155.007812 183.890625 155.203125 L 183.859375 155.734375 L 183.859375 160.90625 C 183.859375 161.386719 183.890625 161.664062 183.953125 161.734375 C 184.023438 161.796875 184.300781 161.828125 184.78125 161.828125 L 185.59375 161.828125 C 186.070312 161.828125 186.414062 161.796875 186.625 161.734375 C 186.757812 161.695312 186.832031 161.570312 186.84375 161.359375 L 186.859375 160.8125 L 186.859375 160.703125 L 187.4375 160.703125 Z M 160.1875 173.296875 L 154.484375 173.296875 L 154.484375 172.96875 L 154.578125 172.953125 L 154.9375 172.9375 C 155.144531 172.917969 155.273438 172.882812 155.328125 172.828125 C 155.390625 172.777344 155.425781 172.648438 155.4375 172.4375 L 155.46875 171.90625 L 155.46875 166.734375 L 155.4375 166.203125 C 155.425781 166.007812 155.390625 165.882812 155.328125 165.828125 C 155.273438 165.765625 155.144531 165.726562 154.9375 165.703125 L 154.578125 165.6875 L 154.484375 165.671875 L 154.484375 165.34375 L 157.59375 165.34375 L 157.59375 165.671875 L 157.5 165.6875 L 157.125 165.703125 C 156.925781 165.726562 156.796875 165.765625 156.734375 165.828125 C 156.679688 165.882812 156.648438 166.007812 156.640625 166.203125 L 156.609375 166.734375 L 156.609375 171.90625 C 156.609375 172.386719 156.640625 172.664062 156.703125 172.734375 C 156.773438 172.796875 157.050781 172.828125 157.53125 172.828125 L 158.34375 172.828125 C 158.820312 172.828125 159.164062 172.796875 159.375 172.734375 C 159.507812 172.695312 159.582031 172.570312 159.59375 172.359375 L 159.609375 171.8125 L 159.609375 171.703125 L 160.1875 171.703125 Z M 162.71875 169.796875 L 162.71875 171.90625 L 162.75 172.4375 C 162.75 172.65625 162.785156 172.792969 162.859375 172.84375 C 162.929688 172.898438 163.140625 172.933594 163.484375 172.953125 L 163.578125 172.96875 L 163.578125 173.296875 L 160.609375 173.296875 L 160.609375 172.96875 L 160.703125 172.953125 L 161.0625 172.9375 C 161.269531 172.917969 161.398438 172.882812 161.453125 172.828125 C 161.515625 172.777344 161.550781 172.648438 161.5625 172.4375 L 161.59375 171.90625 L 161.59375 166.734375 L 161.5625 166.203125 C 161.550781 166.007812 161.515625 165.882812 161.453125 165.828125 C 161.398438 165.765625 161.269531 165.726562 161.0625 165.703125 L 160.703125 165.6875 L 160.609375 165.671875 L 160.609375 165.34375 L 163.046875 165.34375 L 163.921875 165.3125 C 164.722656 165.3125 165.332031 165.484375 165.75 165.828125 C 166.164062 166.164062 166.375 166.65625 166.375 167.3125 C 166.375 167.855469 166.234375 168.320312 165.953125 168.703125 C 165.671875 169.089844 165.265625 169.371094 164.734375 169.546875 L 166.296875 171.890625 L 166.796875 172.59375 C 166.898438 172.742188 166.988281 172.835938 167.0625 172.875 C 167.132812 172.917969 167.238281 172.9375 167.375 172.9375 C 167.425781 172.9375 167.546875 172.945312 167.734375 172.953125 L 167.84375 172.96875 L 167.84375 173.296875 L 165.8125 173.296875 L 163.640625 169.796875 Z M 162.734375 169.4375 L 163.125 169.4375 C 163.59375 169.4375 163.960938 169.386719 164.234375 169.28125 C 164.503906 169.167969 164.726562 168.976562 164.90625 168.703125 C 165.125 168.382812 165.234375 167.960938 165.234375 167.4375 C 165.234375 166.90625 165.128906 166.496094 164.921875 166.203125 C 164.785156 166.015625 164.613281 165.886719 164.40625 165.8125 C 164.195312 165.742188 163.890625 165.703125 163.484375 165.703125 L 162.734375 165.703125 Z M 162.734375 169.4375 "/>
<path style=" stroke:none;fill-rule:evenodd;fill:rgb(100%,0%,0%);fill-opacity:1;" d="M 104.5 149.25 C 104.5 155.917969 94.5 155.917969 94.5 149.25 C 94.5 142.582031 104.5 142.582031 104.5 149.25 "/>
<path style=" stroke:none;fill-rule:evenodd;fill:rgb(0%,0%,0%);fill-opacity:1;" d="M 88.75 164.5 L 83.046875 164.5 L 83.046875 164.171875 L 83.140625 164.15625 L 83.5 164.140625 C 83.707031 164.121094 83.835938 164.085938 83.890625 164.03125 C 83.953125 163.980469 83.988281 163.851562 84 163.640625 L 84.03125 163.109375 L 84.03125 157.9375 L 84 157.40625 C 83.988281 157.210938 83.953125 157.085938 83.890625 157.03125 C 83.835938 156.96875 83.707031 156.929688 83.5 156.90625 L 83.140625 156.890625 L 83.046875 156.875 L 83.046875 156.546875 L 86.15625 156.546875 L 86.15625 156.875 L 86.0625 156.890625 L 85.6875 156.90625 C 85.488281 156.929688 85.359375 156.96875 85.296875 157.03125 C 85.242188 157.085938 85.210938 157.210938 85.203125 157.40625 L 85.171875 157.9375 L 85.171875 163.109375 C 85.171875 163.589844 85.203125 163.867188 85.265625 163.9375 C 85.335938 164 85.613281 164.03125 86.09375 164.03125 L 86.90625 164.03125 C 87.382812 164.03125 87.726562 164 87.9375 163.9375 C 88.070312 163.898438 88.144531 163.773438 88.15625 163.5625 L 88.171875 163.015625 L 88.171875 162.90625 L 88.75 162.90625 Z M 90.953125 162.046875 L 90.484375 163.109375 C 90.421875 163.257812 90.382812 163.355469 90.375 163.40625 L 90.25 163.78125 C 90.226562 163.84375 90.21875 163.902344 90.21875 163.953125 C 90.21875 164.089844 90.359375 164.15625 90.640625 164.15625 L 90.921875 164.171875 L 91 164.171875 L 91 164.5 L 88.9375 164.5 L 88.9375 164.171875 L 89.046875 164.15625 L 89.3125 164.15625 C 89.425781 164.148438 89.515625 164.109375 89.578125 164.046875 C 89.648438 163.976562 89.722656 163.851562 89.796875 163.671875 L 90.046875 163.109375 L 92.84375 156.453125 L 93.21875 156.453125 L 96.015625 163.140625 L 96.28125 163.703125 C 96.382812 163.914062 96.46875 164.039062 96.53125 164.078125 C 96.601562 164.121094 96.757812 164.148438 97 164.15625 L 97.125 164.171875 L 97.125 164.5 L 94.171875 164.5 L 94.171875 164.171875 L 94.265625 164.171875 L 94.59375 164.15625 C 94.875 164.15625 95.015625 164.089844 95.015625 163.953125 C 95.015625 163.746094 94.941406 163.464844 94.796875 163.109375 L 94.359375 162.046875 Z M 91.125 161.609375 L 94.15625 161.609375 L 92.65625 158 Z M 101.078125 160.375 C 101.734375 160.492188 102.25 160.734375 102.625 161.109375 C 103 161.484375 103.1875 161.949219 103.1875 162.5 C 103.1875 163.074219 102.984375 163.558594 102.578125 163.953125 C 102.335938 164.164062 102.070312 164.308594 101.78125 164.390625 C 101.488281 164.464844 101.050781 164.5 100.46875 164.5 L 97.359375 164.5 L 97.359375 164.171875 L 97.453125 164.15625 L 97.8125 164.140625 C 98.019531 164.121094 98.148438 164.085938 98.203125 164.03125 C 98.265625 163.980469 98.300781 163.851562 98.3125 163.640625 L 98.34375 163.109375 L 98.34375 157.9375 L 98.3125 157.40625 C 98.300781 157.210938 98.265625 157.085938 98.203125 157.03125 C 98.148438 156.96875 98.019531 156.929688 97.8125 156.90625 L 97.453125 156.890625 L 97.359375 156.875 L 97.359375 156.546875 L 100.625 156.546875 C 101.40625 156.546875 101.96875 156.703125 102.3125 157.015625 C 102.675781 157.359375 102.859375 157.792969 102.859375 158.3125 C 102.859375 158.804688 102.6875 159.246094 102.34375 159.640625 C 102.09375 159.914062 101.671875 160.15625 101.078125 160.375 Z M 99.46875 160.5625 L 99.46875 163.109375 L 99.484375 163.578125 C 99.484375 163.839844 99.546875 163.992188 99.671875 164.03125 C 99.878906 164.105469 100.113281 164.140625 100.375 164.140625 C 100.863281 164.140625 101.257812 163.996094 101.5625 163.703125 C 101.875 163.402344 102.03125 163.015625 102.03125 162.546875 C 102.03125 161.914062 101.804688 161.421875 101.359375 161.078125 C 100.921875 160.734375 100.289062 160.5625 99.46875 160.5625 Z M 99.46875 160.1875 L 99.796875 160.1875 C 101.078125 160.1875 101.71875 159.605469 101.71875 158.4375 C 101.71875 157.960938 101.601562 157.59375 101.375 157.34375 C 101.21875 157.1875 101.019531 157.078125 100.78125 157.015625 C 100.539062 156.945312 100.191406 156.90625 99.734375 156.90625 L 99.46875 156.90625 Z M 109.796875 164.5 L 104.0625 164.5 L 104.0625 164.171875 L 104.15625 164.15625 L 104.515625 164.140625 C 104.722656 164.121094 104.851562 164.085938 104.90625 164.03125 C 104.96875 163.980469 105.003906 163.851562 105.015625 163.640625 L 105.046875 163.109375 L 105.046875 157.9375 L 105.015625 157.40625 C 105.003906 157.210938 104.96875 157.085938 104.90625 157.03125 C 104.851562 156.96875 104.722656 156.929688 104.515625 156.90625 L 104.15625 156.890625 L 104.0625 156.875 L 104.0625 156.546875 L 109.5 156.546875 L 109.5 157.9375 L 108.90625 157.9375 L 108.890625 157.84375 L 108.859375 157.390625 C 108.859375 157.214844 108.835938 157.105469 108.796875 157.0625 C 108.753906 157.011719 108.644531 156.984375 108.46875 156.984375 L 106.1875 156.984375 L 106.1875 160.15625 L 107.640625 160.15625 L 107.96875 160.140625 C 108.132812 160.140625 108.234375 160.125 108.265625 160.09375 C 108.304688 160.0625 108.332031 159.980469 108.34375 159.84375 C 108.34375 159.792969 108.347656 159.710938 108.359375 159.59375 L 108.359375 159.5 L 108.796875 159.5 L 108.796875 161.25 L 108.359375 161.25 L 108.359375 161.15625 C 108.335938 160.84375 108.296875 160.679688 108.234375 160.65625 C 108.109375 160.617188 107.910156 160.59375 107.640625 160.59375 L 106.1875 160.59375 L 106.1875 163.109375 C 106.1875 163.433594 106.210938 163.679688 106.265625 163.84375 C 106.316406 163.96875 106.59375 164.03125 107.09375 164.03125 L 107.9375 164.03125 L 108.703125 164 C 108.867188 164 108.984375 163.976562 109.046875 163.921875 C 109.117188 163.871094 109.160156 163.773438 109.171875 163.625 L 109.1875 163.140625 L 109.1875 163.046875 L 109.796875 163.046875 Z M 116 164.5 L 110.296875 164.5 L 110.296875 164.171875 L 110.390625 164.15625 L 110.75 164.140625 C 110.957031 164.121094 111.085938 164.085938 111.140625 164.03125 C 111.203125 163.980469 111.238281 163.851562 111.25 163.640625 L 111.28125 163.109375 L 111.28125 157.9375 L 111.25 157.40625 C 111.238281 157.210938 111.203125 157.085938 111.140625 157.03125 C 111.085938 156.96875 110.957031 156.929688 110.75 156.90625 L 110.390625 156.890625 L 110.296875 156.875 L 110.296875 156.546875 L 113.40625 156.546875 L 113.40625 156.875 L 113.3125 156.890625 L 112.9375 156.90625 C 112.738281 156.929688 112.609375 156.96875 112.546875 157.03125 C 112.492188 157.085938 112.460938 157.210938 112.453125 157.40625 L 112.421875 157.9375 L 112.421875 163.109375 C 112.421875 163.589844 112.453125 163.867188 112.515625 163.9375 C 112.585938 164 112.863281 164.03125 113.34375 164.03125 L 114.15625 164.03125 C 114.632812 164.03125 114.976562 164 115.1875 163.9375 C 115.320312 163.898438 115.394531 163.773438 115.40625 163.5625 L 115.421875 163.015625 L 115.421875 162.90625 L 116 162.90625 Z M 88.75 175.5 L 83.046875 175.5 L 83.046875 175.171875 L 83.140625 175.15625 L 83.5 175.140625 C 83.707031 175.121094 83.835938 175.085938 83.890625 175.03125 C 83.953125 174.980469 83.988281 174.851562 84 174.640625 L 84.03125 174.109375 L 84.03125 168.9375 L 84 168.40625 C 83.988281 168.210938 83.953125 168.085938 83.890625 168.03125 C 83.835938 167.96875 83.707031 167.929688 83.5 167.90625 L 83.140625 167.890625 L 83.046875 167.875 L 83.046875 167.546875 L 86.15625 167.546875 L 86.15625 167.875 L 86.0625 167.890625 L 85.6875 167.90625 C 85.488281 167.929688 85.359375 167.96875 85.296875 168.03125 C 85.242188 168.085938 85.210938 168.210938 85.203125 168.40625 L 85.171875 168.9375 L 85.171875 174.109375 C 85.171875 174.589844 85.203125 174.867188 85.265625 174.9375 C 85.335938 175 85.613281 175.03125 86.09375 175.03125 L 86.90625 175.03125 C 87.382812 175.03125 87.726562 175 87.9375 174.9375 C 88.070312 174.898438 88.144531 174.773438 88.15625 174.5625 L 88.171875 174.015625 L 88.171875 173.90625 L 88.75 173.90625 Z M 95.953125 175.078125 C 95.234375 175.496094 94.394531 175.703125 93.4375 175.703125 C 92.21875 175.703125 91.253906 175.328125 90.546875 174.578125 C 89.847656 173.828125 89.5 172.808594 89.5 171.515625 C 89.5 170.046875 89.925781 168.933594 90.78125 168.171875 C 91.40625 167.632812 92.265625 167.359375 93.359375 167.359375 C 93.984375 167.359375 94.734375 167.476562 95.609375 167.703125 L 95.8125 167.75 L 95.8125 169.265625 L 95.15625 169.265625 L 95.15625 169.15625 C 95.144531 169.054688 95.140625 168.949219 95.140625 168.84375 C 95.140625 168.542969 95.0625 168.328125 94.90625 168.203125 C 94.738281 168.058594 94.503906 167.945312 94.203125 167.859375 C 93.898438 167.765625 93.609375 167.71875 93.328125 167.71875 C 92.515625 167.71875 91.867188 168.0625 91.390625 168.75 C 90.910156 169.4375 90.671875 170.355469 90.671875 171.5 C 90.671875 172.65625 90.953125 173.558594 91.515625 174.203125 C 92.078125 174.851562 92.859375 175.171875 93.859375 175.171875 C 94.515625 175.171875 95.210938 174.96875 95.953125 174.5625 Z M 95.953125 175.078125 "/>
<path style=" stroke:none;fill-rule:evenodd;fill:rgb(100%,0%,0%);fill-opacity:1;" d="M 54.75 149.25 C 54.75 155.917969 44.75 155.917969 44.75 149.25 C 44.75 142.582031 54.75 142.582031 54.75 149.25 "/>
<path style=" stroke:none;fill-rule:evenodd;fill:rgb(0%,0%,0%);fill-opacity:1;" d="M 17.3125 162.296875 L 11.609375 162.296875 L 11.609375 161.96875 L 11.703125 161.953125 L 12.0625 161.9375 C 12.269531 161.917969 12.398438 161.882812 12.453125 161.828125 C 12.515625 161.777344 12.550781 161.648438 12.5625 161.4375 L 12.59375 160.90625 L 12.59375 155.734375 L 12.5625 155.203125 C 12.550781 155.007812 12.515625 154.882812 12.453125 154.828125 C 12.398438 154.765625 12.269531 154.726562 12.0625 154.703125 L 11.703125 154.6875 L 11.609375 154.671875 L 11.609375 154.34375 L 14.71875 154.34375 L 14.71875 154.671875 L 14.625 154.6875 L 14.25 154.703125 C 14.050781 154.726562 13.921875 154.765625 13.859375 154.828125 C 13.804688 154.882812 13.773438 155.007812 13.765625 155.203125 L 13.734375 155.734375 L 13.734375 160.90625 C 13.734375 161.386719 13.765625 161.664062 13.828125 161.734375 C 13.898438 161.796875 14.175781 161.828125 14.65625 161.828125 L 15.46875 161.828125 C 15.945312 161.828125 16.289062 161.796875 16.5 161.734375 C 16.632812 161.695312 16.707031 161.570312 16.71875 161.359375 L 16.734375 160.8125 L 16.734375 160.703125 L 17.3125 160.703125 Z M 19.515625 159.84375 L 19.046875 160.90625 C 18.984375 161.054688 18.945312 161.152344 18.9375 161.203125 L 18.8125 161.578125 C 18.789062 161.640625 18.78125 161.699219 18.78125 161.75 C 18.78125 161.886719 18.921875 161.953125 19.203125 161.953125 L 19.484375 161.96875 L 19.5625 161.96875 L 19.5625 162.296875 L 17.5 162.296875 L 17.5 161.96875 L 17.609375 161.953125 L 17.875 161.953125 C 17.988281 161.945312 18.078125 161.90625 18.140625 161.84375 C 18.210938 161.773438 18.285156 161.648438 18.359375 161.46875 L 18.609375 160.90625 L 21.40625 154.25 L 21.78125 154.25 L 24.578125 160.9375 L 24.84375 161.5 C 24.945312 161.710938 25.03125 161.835938 25.09375 161.875 C 25.164062 161.917969 25.320312 161.945312 25.5625 161.953125 L 25.6875 161.96875 L 25.6875 162.296875 L 22.734375 162.296875 L 22.734375 161.96875 L 22.828125 161.96875 L 23.15625 161.953125 C 23.4375 161.953125 23.578125 161.886719 23.578125 161.75 C 23.578125 161.542969 23.503906 161.261719 23.359375 160.90625 L 22.921875 159.84375 Z M 19.6875 159.40625 L 22.71875 159.40625 L 21.21875 155.796875 Z M 29.640625 158.171875 C 30.296875 158.289062 30.8125 158.53125 31.1875 158.90625 C 31.5625 159.28125 31.75 159.746094 31.75 160.296875 C 31.75 160.871094 31.546875 161.355469 31.140625 161.75 C 30.898438 161.960938 30.632812 162.105469 30.34375 162.1875 C 30.050781 162.261719 29.613281 162.296875 29.03125 162.296875 L 25.921875 162.296875 L 25.921875 161.96875 L 26.015625 161.953125 L 26.375 161.9375 C 26.582031 161.917969 26.710938 161.882812 26.765625 161.828125 C 26.828125 161.777344 26.863281 161.648438 26.875 161.4375 L 26.90625 160.90625 L 26.90625 155.734375 L 26.875 155.203125 C 26.863281 155.007812 26.828125 154.882812 26.765625 154.828125 C 26.710938 154.765625 26.582031 154.726562 26.375 154.703125 L 26.015625 154.6875 L 25.921875 154.671875 L 25.921875 154.34375 L 29.1875 154.34375 C 29.96875 154.34375 30.53125 154.5 30.875 154.8125 C 31.238281 155.15625 31.421875 155.589844 31.421875 156.109375 C 31.421875 156.601562 31.25 157.042969 30.90625 157.4375 C 30.65625 157.710938 30.234375 157.953125 29.640625 158.171875 Z M 28.03125 158.359375 L 28.03125 160.90625 L 28.046875 161.375 C 28.046875 161.636719 28.109375 161.789062 28.234375 161.828125 C 28.441406 161.902344 28.675781 161.9375 28.9375 161.9375 C 29.425781 161.9375 29.820312 161.792969 30.125 161.5 C 30.4375 161.199219 30.59375 160.8125 30.59375 160.34375 C 30.59375 159.710938 30.367188 159.21875 29.921875 158.875 C 29.484375 158.53125 28.851562 158.359375 28.03125 158.359375 Z M 28.03125 157.984375 L 28.359375 157.984375 C 29.640625 157.984375 30.28125 157.402344 30.28125 156.234375 C 30.28125 155.757812 30.164062 155.390625 29.9375 155.140625 C 29.78125 154.984375 29.582031 154.875 29.34375 154.8125 C 29.101562 154.742188 28.753906 154.703125 28.296875 154.703125 L 28.03125 154.703125 Z M 38.359375 162.296875 L 32.625 162.296875 L 32.625 161.96875 L 32.71875 161.953125 L 33.078125 161.9375 C 33.285156 161.917969 33.414062 161.882812 33.46875 161.828125 C 33.53125 161.777344 33.566406 161.648438 33.578125 161.4375 L 33.609375 160.90625 L 33.609375 155.734375 L 33.578125 155.203125 C 33.566406 155.007812 33.53125 154.882812 33.46875 154.828125 C 33.414062 154.765625 33.285156 154.726562 33.078125 154.703125 L 32.71875 154.6875 L 32.625 154.671875 L 32.625 154.34375 L 38.0625 154.34375 L 38.0625 155.734375 L 37.46875 155.734375 L 37.453125 155.640625 L 37.421875 155.1875 C 37.421875 155.011719 37.398438 154.902344 37.359375 154.859375 C 37.316406 154.808594 37.207031 154.78125 37.03125 154.78125 L 34.75 154.78125 L 34.75 157.953125 L 36.203125 157.953125 L 36.53125 157.9375 C 36.695312 157.9375 36.796875 157.921875 36.828125 157.890625 C 36.867188 157.859375 36.894531 157.777344 36.90625 157.640625 C 36.90625 157.589844 36.910156 157.507812 36.921875 157.390625 L 36.921875 157.296875 L 37.359375 157.296875 L 37.359375 159.046875 L 36.921875 159.046875 L 36.921875 158.953125 C 36.898438 158.640625 36.859375 158.476562 36.796875 158.453125 C 36.671875 158.414062 36.472656 158.390625 36.203125 158.390625 L 34.75 158.390625 L 34.75 160.90625 C 34.75 161.230469 34.773438 161.476562 34.828125 161.640625 C 34.878906 161.765625 35.15625 161.828125 35.65625 161.828125 L 36.5 161.828125 L 37.265625 161.796875 C 37.429688 161.796875 37.546875 161.773438 37.609375 161.71875 C 37.679688 161.667969 37.722656 161.570312 37.734375 161.421875 L 37.75 160.9375 L 37.75 160.84375 L 38.359375 160.84375 Z M 44.5625 162.296875 L 38.859375 162.296875 L 38.859375 161.96875 L 38.953125 161.953125 L 39.3125 161.9375 C 39.519531 161.917969 39.648438 161.882812 39.703125 161.828125 C 39.765625 161.777344 39.800781 161.648438 39.8125 161.4375 L 39.84375 160.90625 L 39.84375 155.734375 L 39.8125 155.203125 C 39.800781 155.007812 39.765625 154.882812 39.703125 154.828125 C 39.648438 154.765625 39.519531 154.726562 39.3125 154.703125 L 38.953125 154.6875 L 38.859375 154.671875 L 38.859375 154.34375 L 41.96875 154.34375 L 41.96875 154.671875 L 41.875 154.6875 L 41.5 154.703125 C 41.300781 154.726562 41.171875 154.765625 41.109375 154.828125 C 41.054688 154.882812 41.023438 155.007812 41.015625 155.203125 L 40.984375 155.734375 L 40.984375 160.90625 C 40.984375 161.386719 41.015625 161.664062 41.078125 161.734375 C 41.148438 161.796875 41.425781 161.828125 41.90625 161.828125 L 42.71875 161.828125 C 43.195312 161.828125 43.539062 161.796875 43.75 161.734375 C 43.882812 161.695312 43.957031 161.570312 43.96875 161.359375 L 43.984375 160.8125 L 43.984375 160.703125 L 44.5625 160.703125 Z M 17.3125 173.296875 L 11.609375 173.296875 L 11.609375 172.96875 L 11.703125 172.953125 L 12.0625 172.9375 C 12.269531 172.917969 12.398438 172.882812 12.453125 172.828125 C 12.515625 172.777344 12.550781 172.648438 12.5625 172.4375 L 12.59375 171.90625 L 12.59375 166.734375 L 12.5625 166.203125 C 12.550781 166.007812 12.515625 165.882812 12.453125 165.828125 C 12.398438 165.765625 12.269531 165.726562 12.0625 165.703125 L 11.703125 165.6875 L 11.609375 165.671875 L 11.609375 165.34375 L 14.71875 165.34375 L 14.71875 165.671875 L 14.625 165.6875 L 14.25 165.703125 C 14.050781 165.726562 13.921875 165.765625 13.859375 165.828125 C 13.804688 165.882812 13.773438 166.007812 13.765625 166.203125 L 13.734375 166.734375 L 13.734375 171.90625 C 13.734375 172.386719 13.765625 172.664062 13.828125 172.734375 C 13.898438 172.796875 14.175781 172.828125 14.65625 172.828125 L 15.46875 172.828125 C 15.945312 172.828125 16.289062 172.796875 16.5 172.734375 C 16.632812 172.695312 16.707031 172.570312 16.71875 172.359375 L 16.734375 171.8125 L 16.734375 171.703125 L 17.3125 171.703125 Z M 23.4375 173.296875 L 17.734375 173.296875 L 17.734375 172.96875 L 17.828125 172.953125 L 18.1875 172.9375 C 18.394531 172.917969 18.523438 172.882812 18.578125 172.828125 C 18.640625 172.777344 18.675781 172.648438 18.6875 172.4375 L 18.71875 171.90625 L 18.71875 166.734375 L 18.6875 166.203125 C 18.675781 166.007812 18.640625 165.882812 18.578125 165.828125 C 18.523438 165.765625 18.394531 165.726562 18.1875 165.703125 L 17.828125 165.6875 L 17.734375 165.671875 L 17.734375 165.34375 L 20.84375 165.34375 L 20.84375 165.671875 L 20.75 165.6875 L 20.375 165.703125 C 20.175781 165.726562 20.046875 165.765625 19.984375 165.828125 C 19.929688 165.882812 19.898438 166.007812 19.890625 166.203125 L 19.859375 166.734375 L 19.859375 171.90625 C 19.859375 172.386719 19.890625 172.664062 19.953125 172.734375 C 20.023438 172.796875 20.300781 172.828125 20.78125 172.828125 L 21.59375 172.828125 C 22.070312 172.828125 22.414062 172.796875 22.625 172.734375 C 22.757812 172.695312 22.832031 172.570312 22.84375 172.359375 L 22.859375 171.8125 L 22.859375 171.703125 L 23.4375 171.703125 Z M 23.4375 173.296875 "/>
</g>
</svg>
