<?xml version="1.0" encoding="UTF-8"?>
<svg xmlns="http://www.w3.org/2000/svg" xmlns:xlink="http://www.w3.org/1999/xlink" width="150pt" height="100pt" viewBox="0 0 150 100" version="1.1">
<g id="surface2">
<rect x="0" y="0" width="150" height="100" style="fill:rgb(100%,100%,100%);fill-opacity:1;stroke:none;"/>
<path style=" stroke:none;fill-rule:nonzero;fill:rgb(0%,0%,0%);fill-opacity:1;" d="M 50.015625 19.273438 L 48.34375 19.273438 L 48.34375 28.085938 L 47.0625 28.085938 L 47.0625 23.929688 L 45.125 23.929688 C 43.976562 23.929688 43.109375 23.816406 42.515625 23.585938 C 42.273438 23.765625 42.007812 23.914062 41.71875 24.039062 C 42.15625 24.601562 42.664062 25.175781 43.25 25.757812 C 43.84375 26.34375 44.460938 26.894531 45.109375 27.414062 L 44.25 28.289062 C 43.65625 27.769531 43.066406 27.21875 42.484375 26.632812 C 41.910156 26.039062 41.398438 25.484375 40.953125 24.960938 C 40.515625 24.429688 40.191406 23.992188 39.984375 23.648438 C 39.859375 23.441406 39.773438 23.265625 39.734375 23.117188 C 39.691406 22.972656 39.671875 22.816406 39.671875 22.648438 C 39.671875 22.503906 39.703125 22.367188 39.765625 22.242188 C 39.835938 22.117188 39.953125 22.015625 40.109375 21.929688 C 40.265625 21.847656 40.457031 21.804688 40.6875 21.804688 C 40.957031 21.804688 41.191406 21.867188 41.390625 21.992188 C 41.585938 22.109375 41.769531 22.273438 41.9375 22.492188 C 42.125 22.328125 42.265625 22.097656 42.359375 21.804688 C 42.460938 21.503906 42.515625 21.15625 42.515625 20.757812 C 42.515625 20.4375 42.488281 20.148438 42.4375 19.898438 C 42.382812 19.640625 42.320312 19.429688 42.25 19.273438 L 39.03125 19.273438 L 39.03125 18.132812 L 50.015625 18.132812 Z M 43.234375 22.742188 C 43.523438 22.773438 43.976562 22.789062 44.59375 22.789062 L 47.0625 22.789062 L 47.0625 19.273438 L 43.53125 19.273438 C 43.707031 19.679688 43.796875 20.175781 43.796875 20.757812 C 43.796875 21.601562 43.609375 22.265625 43.234375 22.742188 Z M 47.0625 18.242188 C 46.835938 17.367188 46.617188 16.703125 46.40625 16.242188 C 46.1875 15.773438 45.949219 15.4375 45.6875 15.226562 C 45.429688 15.019531 45.109375 14.914062 44.734375 14.914062 C 44.546875 14.914062 44.371094 14.929688 44.203125 14.960938 C 44.039062 14.992188 43.84375 15.050781 43.625 15.132812 L 43.234375 13.976562 C 43.464844 13.894531 43.699219 13.835938 43.9375 13.804688 C 44.167969 13.765625 44.417969 13.742188 44.6875 13.742188 C 45.136719 13.742188 45.53125 13.820312 45.875 13.976562 C 46.210938 14.125 46.511719 14.367188 46.78125 14.710938 C 47.054688 15.046875 47.3125 15.503906 47.5625 16.085938 C 47.804688 16.660156 48.042969 17.378906 48.28125 18.242188 Z M 48.859375 14.023438 C 49.015625 14.023438 49.164062 14.066406 49.296875 14.148438 C 49.421875 14.222656 49.527344 14.332031 49.609375 14.476562 C 49.695312 14.625 49.734375 14.78125 49.734375 14.945312 C 49.734375 15.125 49.695312 15.285156 49.609375 15.429688 C 49.527344 15.578125 49.417969 15.691406 49.28125 15.773438 C 49.148438 15.847656 49.007812 15.882812 48.859375 15.882812 C 48.703125 15.882812 48.558594 15.84375 48.421875 15.757812 C 48.289062 15.675781 48.179688 15.566406 48.09375 15.429688 C 48.011719 15.285156 47.96875 15.125 47.96875 14.945312 C 47.96875 14.78125 48.011719 14.625 48.09375 14.476562 C 48.179688 14.332031 48.289062 14.222656 48.421875 14.148438 C 48.558594 14.066406 48.703125 14.023438 48.859375 14.023438 Z M 47.0625 18.132812 Z M 55.71875 22.492188 L 54.84375 22.492188 C 54.15625 22.492188 53.59375 22.582031 53.15625 22.757812 C 52.71875 22.925781 52.382812 23.171875 52.15625 23.492188 C 51.925781 23.816406 51.8125 24.203125 51.8125 24.648438 C 51.8125 25.035156 51.878906 25.375 52.015625 25.664062 C 52.148438 25.945312 52.332031 26.179688 52.5625 26.367188 C 52.789062 26.546875 53.054688 26.679688 53.359375 26.773438 C 53.660156 26.859375 53.976562 26.898438 54.3125 26.898438 C 54.632812 26.898438 54.929688 26.875 55.203125 26.820312 C 55.484375 26.769531 55.753906 26.695312 56.015625 26.601562 C 56.273438 26.507812 56.625 26.347656 57.0625 26.117188 L 57.5 27.320312 C 56.976562 27.570312 56.445312 27.765625 55.90625 27.898438 C 55.375 28.023438 54.859375 28.085938 54.359375 28.085938 C 53.640625 28.085938 52.984375 27.941406 52.390625 27.648438 C 51.796875 27.347656 51.335938 26.929688 51.015625 26.398438 C 50.691406 25.859375 50.53125 25.25 50.53125 24.570312 C 50.53125 23.925781 50.695312 23.363281 51.03125 22.882812 C 51.363281 22.394531 51.828125 22.019531 52.421875 21.757812 C 53.015625 21.5 53.660156 21.367188 54.359375 21.367188 L 54.421875 21.367188 L 54.421875 19.273438 L 49.78125 19.273438 L 49.78125 18.132812 L 58.078125 18.132812 L 58.078125 19.273438 L 55.71875 19.273438 Z M 54.421875 18.132812 Z M 54.421875 28.085938 Z M 62.21875 19.273438 L 60.5625 19.273438 L 60.5625 28.085938 L 59.265625 28.085938 L 59.265625 19.273438 L 57.84375 19.273438 L 57.84375 18.132812 L 62.21875 18.132812 Z M 59.265625 18.242188 C 59.035156 17.367188 58.8125 16.703125 58.59375 16.242188 C 58.382812 15.773438 58.148438 15.4375 57.890625 15.226562 C 57.632812 15.019531 57.3125 14.914062 56.9375 14.914062 C 56.75 14.914062 56.574219 14.929688 56.40625 14.960938 C 56.242188 14.992188 56.046875 15.050781 55.828125 15.132812 L 55.4375 13.976562 C 55.667969 13.894531 55.902344 13.835938 56.140625 13.804688 C 56.371094 13.765625 56.621094 13.742188 56.890625 13.742188 C 57.339844 13.742188 57.730469 13.820312 58.0625 13.976562 C 58.40625 14.125 58.710938 14.367188 58.984375 14.710938 C 59.253906 15.046875 59.507812 15.503906 59.75 16.085938 C 60 16.660156 60.242188 17.378906 60.484375 18.242188 Z M 59.265625 18.132812 Z M 71.140625 24.710938 C 70.484375 24.523438 69.96875 24.234375 69.59375 23.835938 C 69.226562 23.429688 69.046875 22.96875 69.046875 22.445312 C 69.046875 22.132812 69.101562 21.867188 69.21875 21.648438 C 69.332031 21.429688 69.5 21.25 69.71875 21.101562 C 69.9375 20.945312 70.191406 20.832031 70.484375 20.757812 C 70.785156 20.675781 71.160156 20.632812 71.609375 20.632812 L 73.3125 20.632812 L 73.3125 19.273438 L 66.140625 19.273438 L 66.140625 18.132812 L 76.421875 18.132812 L 76.421875 19.273438 L 74.59375 19.273438 L 74.59375 21.773438 L 71.578125 21.773438 C 71.242188 21.773438 70.992188 21.796875 70.828125 21.835938 C 70.660156 21.878906 70.523438 21.960938 70.421875 22.085938 C 70.328125 22.203125 70.28125 22.351562 70.28125 22.539062 C 70.28125 22.757812 70.363281 22.953125 70.53125 23.117188 C 70.695312 23.285156 70.921875 23.40625 71.203125 23.476562 C 71.585938 23.351562 72.046875 23.289062 72.578125 23.289062 C 73.140625 23.289062 73.640625 23.378906 74.078125 23.554688 C 74.515625 23.734375 74.859375 24 75.109375 24.351562 C 75.359375 24.707031 75.484375 25.128906 75.484375 25.617188 C 75.484375 26.085938 75.359375 26.507812 75.109375 26.882812 C 74.859375 27.257812 74.488281 27.554688 74 27.773438 C 73.507812 27.984375 72.921875 28.085938 72.234375 28.085938 C 71.460938 28.085938 70.75 27.957031 70.09375 27.695312 C 69.4375 27.425781 68.816406 26.992188 68.234375 26.398438 C 67.648438 25.796875 67.101562 25 66.59375 24.007812 L 67.6875 23.492188 C 68.113281 24.328125 68.554688 24.992188 69.015625 25.492188 C 69.484375 25.992188 69.972656 26.351562 70.484375 26.570312 C 71.003906 26.789062 71.570312 26.898438 72.1875 26.898438 C 72.851562 26.898438 73.351562 26.789062 73.6875 26.570312 C 74.019531 26.34375 74.1875 26.007812 74.1875 25.570312 C 74.1875 25.21875 74.039062 24.941406 73.75 24.742188 C 73.46875 24.535156 73.082031 24.429688 72.59375 24.429688 C 72.34375 24.429688 72.09375 24.457031 71.84375 24.507812 C 71.59375 24.550781 71.359375 24.617188 71.140625 24.710938 Z M 73.3125 18.132812 Z M 72.25 28.085938 Z M 80.5625 19.273438 L 78.90625 19.273438 L 78.90625 28.085938 L 77.609375 28.085938 L 77.609375 19.273438 L 76.1875 19.273438 L 76.1875 18.132812 L 80.5625 18.132812 Z M 77.609375 18.242188 C 77.378906 17.367188 77.15625 16.703125 76.9375 16.242188 C 76.726562 15.773438 76.492188 15.4375 76.234375 15.226562 C 75.976562 15.019531 75.65625 14.914062 75.28125 14.914062 C 75.09375 14.914062 74.917969 14.929688 74.75 14.960938 C 74.585938 14.992188 74.390625 15.050781 74.171875 15.132812 L 73.78125 13.976562 C 74.011719 13.894531 74.246094 13.835938 74.484375 13.804688 C 74.714844 13.765625 74.964844 13.742188 75.234375 13.742188 C 75.683594 13.742188 76.074219 13.820312 76.40625 13.976562 C 76.75 14.125 77.054688 14.367188 77.328125 14.710938 C 77.597656 15.046875 77.851562 15.503906 78.09375 16.085938 C 78.34375 16.660156 78.585938 17.378906 78.828125 18.242188 Z M 77.609375 18.132812 Z M 91.0625 18.242188 C 90.15625 17.128906 89.203125 16.296875 88.203125 15.742188 C 87.210938 15.179688 86.171875 14.898438 85.078125 14.898438 C 84.671875 14.898438 84.304688 14.941406 83.984375 15.023438 C 83.660156 15.097656 83.382812 15.210938 83.15625 15.367188 C 82.9375 15.523438 82.765625 15.710938 82.640625 15.929688 C 82.523438 16.148438 82.46875 16.398438 82.46875 16.679688 C 82.46875 16.992188 82.515625 17.269531 82.609375 17.507812 C 82.710938 17.738281 82.828125 17.945312 82.953125 18.132812 L 84.703125 18.132812 L 84.703125 19.273438 L 83.046875 19.273438 L 83.046875 28.085938 L 81.75 28.085938 L 81.75 19.273438 L 80.328125 19.273438 L 80.328125 18.132812 L 81.609375 18.132812 C 81.484375 17.894531 81.378906 17.644531 81.296875 17.382812 C 81.222656 17.125 81.1875 16.832031 81.1875 16.507812 C 81.1875 16.09375 81.269531 15.710938 81.4375 15.367188 C 81.601562 15.023438 81.84375 14.734375 82.15625 14.492188 C 82.46875 14.253906 82.84375 14.070312 83.28125 13.945312 C 83.726562 13.8125 84.222656 13.742188 84.765625 13.742188 C 85.597656 13.742188 86.378906 13.851562 87.109375 14.070312 C 87.847656 14.28125 88.535156 14.582031 89.171875 14.976562 C 89.804688 15.375 90.394531 15.847656 90.9375 16.398438 C 91.476562 16.953125 91.976562 17.566406 92.4375 18.242188 Z M 92.234375 14.101562 C 92.390625 14.101562 92.53125 14.144531 92.65625 14.226562 C 92.789062 14.300781 92.898438 14.410156 92.984375 14.554688 C 93.066406 14.703125 93.109375 14.859375 93.109375 15.023438 C 93.109375 15.203125 93.066406 15.363281 92.984375 15.507812 C 92.898438 15.65625 92.789062 15.769531 92.65625 15.851562 C 92.519531 15.925781 92.378906 15.960938 92.234375 15.960938 C 92.078125 15.960938 91.929688 15.921875 91.796875 15.835938 C 91.660156 15.753906 91.550781 15.644531 91.46875 15.507812 C 91.382812 15.363281 91.34375 15.203125 91.34375 15.023438 C 91.34375 14.859375 91.382812 14.703125 91.46875 14.554688 C 91.550781 14.410156 91.660156 14.300781 91.796875 14.226562 C 91.929688 14.144531 92.078125 14.101562 92.234375 14.101562 Z M 91.59375 17.429688 Z M 94.265625 19.273438 L 92.609375 19.273438 L 92.609375 28.085938 L 91.3125 28.085938 L 91.3125 24.085938 L 87.78125 24.085938 L 87.78125 24.664062 C 87.78125 24.976562 87.707031 25.222656 87.5625 25.398438 C 87.425781 25.578125 87.242188 25.664062 87.015625 25.664062 C 86.765625 25.664062 86.488281 25.5625 86.1875 25.351562 C 85.882812 25.132812 85.625 24.859375 85.40625 24.523438 C 85.195312 24.191406 85.09375 23.894531 85.09375 23.632812 C 85.09375 23.414062 85.175781 23.25 85.34375 23.132812 C 85.507812 23.007812 85.753906 22.945312 86.078125 22.945312 L 86.5 22.945312 L 86.5 19.273438 L 84.46875 19.273438 L 84.46875 18.132812 L 94.265625 18.132812 Z M 91.3125 22.945312 L 91.3125 19.273438 L 87.78125 19.273438 L 87.78125 22.945312 Z M 100.328125 19.273438 L 97.375 19.273438 L 97.375 24.335938 C 97.375 24.617188 97.300781 24.835938 97.15625 24.992188 C 97.019531 25.148438 96.832031 25.226562 96.59375 25.226562 C 96.320312 25.226562 96.03125 25.117188 95.71875 24.898438 C 95.414062 24.671875 95.164062 24.394531 94.96875 24.070312 C 94.78125 23.738281 94.6875 23.4375 94.6875 23.164062 C 94.6875 22.882812 94.765625 22.675781 94.921875 22.539062 C 95.085938 22.40625 95.332031 22.335938 95.65625 22.335938 L 96.09375 22.335938 L 96.09375 19.273438 L 94.03125 19.273438 L 94.03125 18.132812 L 103.28125 18.132812 L 103.28125 19.273438 L 101.609375 19.273438 L 101.609375 28.085938 L 100.328125 28.085938 Z M 107.421875 19.273438 L 105.765625 19.273438 L 105.765625 28.085938 L 104.46875 28.085938 L 104.46875 19.273438 L 103.046875 19.273438 L 103.046875 18.132812 L 107.421875 18.132812 Z M 104.46875 18.242188 C 104.238281 17.367188 104.015625 16.703125 103.796875 16.242188 C 103.585938 15.773438 103.351562 15.4375 103.09375 15.226562 C 102.835938 15.019531 102.515625 14.914062 102.140625 14.914062 C 101.953125 14.914062 101.777344 14.929688 101.609375 14.960938 C 101.445312 14.992188 101.25 15.050781 101.03125 15.132812 L 100.640625 13.976562 C 100.871094 13.894531 101.105469 13.835938 101.34375 13.804688 C 101.574219 13.765625 101.824219 13.742188 102.09375 13.742188 C 102.542969 13.742188 102.933594 13.820312 103.265625 13.976562 C 103.609375 14.125 103.914062 14.367188 104.1875 14.710938 C 104.457031 15.046875 104.710938 15.503906 104.953125 16.085938 C 105.203125 16.660156 105.445312 17.378906 105.6875 18.242188 Z M 104.46875 18.132812 Z M 14.46875 43.851562 L 14.46875 41.617188 L 15.28125 41.617188 L 15.296875 41.757812 C 15.304688 42.019531 15.3125 42.21875 15.3125 42.351562 C 15.3125 42.601562 15.34375 42.789062 15.40625 42.914062 C 15.476562 43.03125 15.617188 43.148438 15.828125 43.273438 C 16.378906 43.617188 16.992188 43.789062 17.671875 43.789062 C 18.347656 43.789062 18.878906 43.59375 19.265625 43.195312 C 19.660156 42.800781 19.859375 42.257812 19.859375 41.570312 C 19.859375 40.988281 19.734375 40.523438 19.484375 40.179688 C 19.234375 39.835938 18.75 39.460938 18.03125 39.054688 L 17.203125 38.585938 C 16.242188 38.046875 15.5625 37.523438 15.15625 37.023438 C 14.75 36.523438 14.546875 35.957031 14.546875 35.320312 C 14.546875 34.425781 14.863281 33.6875 15.5 33.101562 C 16.144531 32.519531 16.945312 32.226562 17.90625 32.226562 C 18.738281 32.226562 19.710938 32.394531 20.828125 32.726562 L 20.828125 34.773438 L 19.96875 34.773438 L 19.953125 34.648438 C 19.929688 34.367188 19.921875 34.160156 19.921875 34.023438 C 19.921875 33.566406 19.785156 33.257812 19.515625 33.101562 C 19.117188 32.875 18.609375 32.757812 17.984375 32.757812 C 17.421875 32.757812 16.96875 32.941406 16.625 33.304688 C 16.289062 33.671875 16.125 34.15625 16.125 34.757812 C 16.125 35.269531 16.238281 35.691406 16.46875 36.023438 C 16.707031 36.359375 17.140625 36.703125 17.765625 37.054688 L 18.59375 37.523438 C 19.726562 38.171875 20.492188 38.734375 20.890625 39.210938 C 21.285156 39.691406 21.484375 40.296875 21.484375 41.023438 C 21.484375 41.984375 21.125 42.785156 20.40625 43.429688 C 19.695312 44.066406 18.804688 44.382812 17.734375 44.382812 C 17.203125 44.382812 16.617188 44.328125 15.984375 44.226562 C 15.359375 44.121094 14.851562 44 14.46875 43.851562 Z M 28.21875 42.914062 C 27.707031 43.425781 27.25 43.785156 26.84375 43.992188 C 26.445312 44.1875 26 44.289062 25.5 44.289062 C 24.78125 44.289062 24.179688 44.0625 23.703125 43.601562 C 23.222656 43.144531 22.984375 42.570312 22.984375 41.882812 C 22.984375 41.082031 23.296875 40.429688 23.921875 39.929688 C 24.316406 39.609375 24.785156 39.382812 25.328125 39.257812 C 25.867188 39.132812 26.609375 39.070312 27.546875 39.070312 L 27.875 39.070312 L 27.875 38.007812 C 27.875 36.675781 27.363281 36.007812 26.34375 36.007812 C 25.875 36.007812 25.457031 36.15625 25.09375 36.445312 C 24.875 36.625 24.738281 36.984375 24.6875 37.523438 L 24.671875 37.679688 L 23.625 37.679688 L 23.625 36.117188 C 24.707031 35.648438 25.707031 35.414062 26.625 35.414062 C 27.4375 35.414062 28.09375 35.601562 28.59375 35.976562 C 28.90625 36.21875 29.117188 36.476562 29.234375 36.757812 C 29.347656 37.03125 29.40625 37.425781 29.40625 37.945312 L 29.40625 41.726562 C 29.40625 42.40625 29.460938 42.882812 29.578125 43.164062 C 29.703125 43.4375 29.910156 43.570312 30.203125 43.570312 C 30.296875 43.570312 30.429688 43.550781 30.609375 43.507812 L 30.65625 44.085938 C 30.289062 44.21875 29.957031 44.289062 29.65625 44.289062 C 28.90625 44.289062 28.425781 43.832031 28.21875 42.914062 Z M 27.875 42.742188 L 27.875 39.554688 L 27.515625 39.554688 C 26.609375 39.554688 25.898438 39.742188 25.390625 40.117188 C 24.878906 40.484375 24.625 41 24.625 41.664062 C 24.625 42.15625 24.78125 42.5625 25.09375 42.882812 C 25.40625 43.207031 25.800781 43.367188 26.28125 43.367188 C 26.726562 43.367188 27.257812 43.160156 27.875 42.742188 Z M 34.171875 37.195312 C 34.535156 36.632812 34.988281 36.195312 35.53125 35.882812 C 36.070312 35.570312 36.640625 35.414062 37.234375 35.414062 C 37.960938 35.414062 38.53125 35.65625 38.9375 36.132812 C 39.351562 36.613281 39.5625 37.269531 39.5625 38.101562 L 39.5625 42.054688 L 39.625 42.835938 C 39.632812 43.128906 39.679688 43.316406 39.765625 43.398438 C 39.847656 43.484375 40.039062 43.535156 40.34375 43.554688 L 40.875 43.585938 L 41.015625 43.601562 L 41.015625 44.085938 L 36.578125 44.085938 L 36.578125 43.601562 L 36.71875 43.585938 L 37.25 43.554688 C 37.550781 43.535156 37.742188 43.484375 37.828125 43.398438 C 37.910156 43.316406 37.960938 43.128906 37.984375 42.835938 L 38.03125 42.054688 L 38.03125 38.351562 C 38.03125 37.625 37.929688 37.117188 37.734375 36.835938 C 37.546875 36.546875 37.210938 36.398438 36.734375 36.398438 C 36.035156 36.398438 35.179688 36.835938 34.171875 37.710938 L 34.171875 42.054688 C 34.171875 42.484375 34.207031 42.859375 34.28125 43.179688 C 34.3125 43.316406 34.363281 43.410156 34.4375 43.460938 C 34.519531 43.503906 34.6875 43.535156 34.9375 43.554688 L 35.46875 43.585938 L 35.625 43.601562 L 35.625 44.085938 L 31.1875 44.085938 L 31.1875 43.601562 L 31.328125 43.585938 L 31.859375 43.554688 C 32.160156 43.535156 32.347656 43.484375 32.421875 43.398438 C 32.503906 43.316406 32.554688 43.128906 32.578125 42.835938 L 32.625 42.054688 L 32.625 37.617188 L 32.578125 36.851562 C 32.554688 36.5625 32.503906 36.375 32.421875 36.289062 C 32.347656 36.207031 32.160156 36.15625 31.859375 36.132812 L 31.328125 36.085938 L 31.1875 36.085938 L 31.1875 35.601562 L 34.171875 35.601562 Z M 46.65625 44.039062 C 46.257812 44.203125 45.882812 44.289062 45.53125 44.289062 C 44.738281 44.289062 44.113281 44.078125 43.65625 43.648438 C 43.375 43.410156 43.179688 43.132812 43.078125 42.820312 C 42.984375 42.507812 42.9375 42.046875 42.9375 41.429688 L 42.9375 36.226562 L 41.6875 36.226562 L 41.6875 35.601562 L 42.9375 35.601562 L 42.9375 34.054688 L 44.484375 33.679688 L 44.484375 35.601562 L 46.84375 35.601562 L 46.84375 36.226562 L 44.484375 36.226562 L 44.484375 41.632812 C 44.484375 42.375 44.550781 42.863281 44.6875 43.101562 C 44.90625 43.46875 45.265625 43.648438 45.765625 43.648438 C 46.003906 43.648438 46.300781 43.570312 46.65625 43.414062 Z M 52.046875 44.289062 C 50.828125 44.289062 49.859375 43.890625 49.140625 43.085938 C 48.421875 42.285156 48.0625 41.203125 48.0625 39.835938 C 48.0625 38.472656 48.421875 37.394531 49.140625 36.601562 C 49.867188 35.8125 50.859375 35.414062 52.109375 35.414062 C 53.359375 35.414062 54.34375 35.8125 55.0625 36.601562 C 55.789062 37.394531 56.15625 38.46875 56.15625 39.820312 C 56.15625 41.21875 55.789062 42.3125 55.0625 43.101562 C 54.332031 43.894531 53.328125 44.289062 52.046875 44.289062 Z M 52.078125 43.789062 C 52.785156 43.789062 53.367188 43.421875 53.828125 42.679688 C 54.285156 41.929688 54.515625 40.976562 54.515625 39.820312 C 54.515625 38.707031 54.285156 37.773438 53.828125 37.023438 C 53.367188 36.265625 52.796875 35.882812 52.109375 35.882812 C 51.421875 35.882812 50.847656 36.265625 50.390625 37.023438 C 49.929688 37.773438 49.703125 38.710938 49.703125 39.835938 C 49.703125 40.960938 49.925781 41.90625 50.375 42.664062 C 50.832031 43.414062 51.398438 43.789062 52.078125 43.789062 Z M 62.140625 44.085938 L 62.140625 43.601562 L 62.28125 43.585938 L 62.8125 43.554688 C 63.113281 43.535156 63.300781 43.484375 63.375 43.398438 C 63.457031 43.316406 63.507812 43.128906 63.53125 42.835938 L 63.578125 42.054688 L 63.578125 34.539062 L 63.53125 33.773438 C 63.507812 33.472656 63.457031 33.28125 63.375 33.195312 C 63.300781 33.113281 63.113281 33.0625 62.8125 33.039062 L 62.28125 33.007812 L 62.140625 32.992188 L 62.140625 32.523438 L 65.84375 32.523438 L 66.484375 32.507812 L 67.609375 32.476562 C 69.304688 32.476562 70.625 32.890625 71.5625 33.710938 C 72.675781 34.691406 73.234375 36.140625 73.234375 38.054688 C 73.234375 39.921875 72.734375 41.394531 71.734375 42.476562 C 70.742188 43.550781 69.390625 44.085938 67.671875 44.085938 Z M 65.21875 33.039062 L 65.21875 42.054688 L 65.25 42.664062 C 65.25 43.019531 65.34375 43.234375 65.53125 43.304688 C 65.90625 43.472656 66.421875 43.554688 67.078125 43.554688 C 68.523438 43.554688 69.625 43.113281 70.375 42.226562 C 71.125 41.34375 71.5 40.03125 71.5 38.289062 C 71.5 36.4375 71.101562 35.097656 70.3125 34.273438 C 69.519531 33.453125 68.234375 33.039062 66.453125 33.039062 Z M 78.859375 44.289062 C 77.640625 44.289062 76.671875 43.890625 75.953125 43.085938 C 75.234375 42.285156 74.875 41.203125 74.875 39.835938 C 74.875 38.472656 75.234375 37.394531 75.953125 36.601562 C 76.679688 35.8125 77.671875 35.414062 78.921875 35.414062 C 80.171875 35.414062 81.15625 35.8125 81.875 36.601562 C 82.601562 37.394531 82.96875 38.46875 82.96875 39.820312 C 82.96875 41.21875 82.601562 42.3125 81.875 43.101562 C 81.144531 43.894531 80.140625 44.289062 78.859375 44.289062 Z M 78.890625 43.789062 C 79.597656 43.789062 80.179688 43.421875 80.640625 42.679688 C 81.097656 41.929688 81.328125 40.976562 81.328125 39.820312 C 81.328125 38.707031 81.097656 37.773438 80.640625 37.023438 C 80.179688 36.265625 79.609375 35.882812 78.921875 35.882812 C 78.234375 35.882812 77.660156 36.265625 77.203125 37.023438 C 76.742188 37.773438 76.515625 38.710938 76.515625 39.835938 C 76.515625 40.960938 76.738281 41.90625 77.1875 42.664062 C 77.644531 43.414062 78.210938 43.789062 78.890625 43.789062 Z M 87.015625 37.195312 C 87.898438 36.007812 88.878906 35.414062 89.953125 35.414062 C 90.546875 35.414062 91.03125 35.570312 91.40625 35.882812 C 91.78125 36.1875 92.019531 36.625 92.125 37.195312 C 92.664062 36.53125 93.160156 36.066406 93.609375 35.804688 C 94.066406 35.546875 94.578125 35.414062 95.140625 35.414062 C 95.847656 35.414062 96.40625 35.640625 96.8125 36.085938 C 97.21875 36.523438 97.421875 37.132812 97.421875 37.914062 L 97.421875 42.054688 C 97.421875 42.484375 97.457031 42.859375 97.53125 43.179688 C 97.5625 43.316406 97.617188 43.410156 97.703125 43.460938 C 97.785156 43.503906 97.953125 43.535156 98.203125 43.554688 L 98.71875 43.585938 L 98.875 43.601562 L 98.875 44.085938 L 94.4375 44.085938 L 94.4375 43.601562 L 94.578125 43.585938 L 95.109375 43.554688 C 95.359375 43.535156 95.523438 43.503906 95.609375 43.460938 C 95.691406 43.410156 95.75 43.316406 95.78125 43.179688 C 95.84375 42.859375 95.875 42.484375 95.875 42.054688 L 95.875 38.195312 C 95.875 37.53125 95.785156 37.066406 95.609375 36.804688 C 95.441406 36.546875 95.132812 36.414062 94.6875 36.414062 C 93.9375 36.414062 93.113281 36.851562 92.21875 37.726562 L 92.21875 42.054688 L 92.265625 42.835938 C 92.285156 43.128906 92.335938 43.316406 92.421875 43.398438 C 92.503906 43.484375 92.691406 43.535156 92.984375 43.554688 L 93.515625 43.585938 L 93.671875 43.601562 L 93.671875 44.085938 L 89.234375 44.085938 L 89.234375 43.601562 L 89.375 43.585938 L 89.90625 43.554688 C 90.15625 43.535156 90.320312 43.503906 90.40625 43.460938 C 90.488281 43.410156 90.546875 43.316406 90.578125 43.179688 C 90.640625 42.859375 90.671875 42.484375 90.671875 42.054688 L 90.671875 38.195312 C 90.671875 37.53125 90.582031 37.066406 90.40625 36.804688 C 90.238281 36.546875 89.9375 36.414062 89.5 36.414062 C 88.6875 36.414062 87.859375 36.851562 87.015625 37.726562 L 87.015625 42.054688 C 87.015625 42.484375 87.050781 42.859375 87.125 43.179688 C 87.15625 43.316406 87.207031 43.410156 87.28125 43.460938 C 87.363281 43.503906 87.53125 43.535156 87.78125 43.554688 L 88.3125 43.585938 L 88.46875 43.601562 L 88.46875 44.085938 L 84.03125 44.085938 L 84.03125 43.601562 L 84.171875 43.585938 L 84.703125 43.554688 C 85.003906 43.535156 85.191406 43.484375 85.265625 43.398438 C 85.347656 43.316406 85.398438 43.128906 85.421875 42.835938 L 85.46875 42.054688 L 85.46875 37.617188 L 85.421875 36.851562 C 85.398438 36.5625 85.347656 36.375 85.265625 36.289062 C 85.191406 36.207031 85.003906 36.15625 84.703125 36.132812 L 84.171875 36.085938 L 84.03125 36.085938 L 84.03125 35.601562 L 87.015625 35.601562 Z M 102.15625 35.601562 L 102.15625 42.054688 C 102.15625 42.484375 102.191406 42.859375 102.265625 43.179688 C 102.296875 43.316406 102.347656 43.410156 102.421875 43.460938 C 102.503906 43.503906 102.671875 43.535156 102.921875 43.554688 L 103.453125 43.585938 L 103.609375 43.601562 L 103.609375 44.085938 L 99.171875 44.085938 L 99.171875 43.601562 L 99.3125 43.585938 L 99.84375 43.554688 C 100.144531 43.535156 100.332031 43.484375 100.40625 43.398438 C 100.488281 43.316406 100.539062 43.128906 100.5625 42.835938 L 100.609375 42.054688 L 100.609375 37.617188 L 100.5625 36.851562 C 100.539062 36.5625 100.488281 36.375 100.40625 36.289062 C 100.332031 36.207031 100.144531 36.15625 99.84375 36.132812 L 99.3125 36.085938 L 99.171875 36.085938 L 99.171875 35.601562 Z M 100.609375 34.054688 L 100.609375 32.523438 L 102.15625 32.523438 L 102.15625 34.054688 Z M 107.078125 37.195312 C 107.441406 36.632812 107.894531 36.195312 108.4375 35.882812 C 108.976562 35.570312 109.546875 35.414062 110.140625 35.414062 C 110.867188 35.414062 111.4375 35.65625 111.84375 36.132812 C 112.257812 36.613281 112.46875 37.269531 112.46875 38.101562 L 112.46875 42.054688 L 112.53125 42.835938 C 112.539062 43.128906 112.585938 43.316406 112.671875 43.398438 C 112.753906 43.484375 112.945312 43.535156 113.25 43.554688 L 113.78125 43.585938 L 113.921875 43.601562 L 113.921875 44.085938 L 109.484375 44.085938 L 109.484375 43.601562 L 109.625 43.585938 L 110.15625 43.554688 C 110.457031 43.535156 110.648438 43.484375 110.734375 43.398438 C 110.816406 43.316406 110.867188 43.128906 110.890625 42.835938 L 110.9375 42.054688 L 110.9375 38.351562 C 110.9375 37.625 110.835938 37.117188 110.640625 36.835938 C 110.453125 36.546875 110.117188 36.398438 109.640625 36.398438 C 108.941406 36.398438 108.085938 36.835938 107.078125 37.710938 L 107.078125 42.054688 C 107.078125 42.484375 107.113281 42.859375 107.1875 43.179688 C 107.21875 43.316406 107.269531 43.410156 107.34375 43.460938 C 107.425781 43.503906 107.59375 43.535156 107.84375 43.554688 L 108.375 43.585938 L 108.53125 43.601562 L 108.53125 44.085938 L 104.09375 44.085938 L 104.09375 43.601562 L 104.234375 43.585938 L 104.765625 43.554688 C 105.066406 43.535156 105.253906 43.484375 105.328125 43.398438 C 105.410156 43.316406 105.460938 43.128906 105.484375 42.835938 L 105.53125 42.054688 L 105.53125 37.617188 L 105.484375 36.851562 C 105.460938 36.5625 105.410156 36.375 105.328125 36.289062 C 105.253906 36.207031 105.066406 36.15625 104.765625 36.132812 L 104.234375 36.085938 L 104.09375 36.085938 L 104.09375 35.601562 L 107.078125 35.601562 Z M 116.140625 43.757812 C 115.546875 43.488281 115.25 43.117188 115.25 42.648438 C 115.25 42.347656 115.359375 42.085938 115.578125 41.867188 C 115.796875 41.640625 116.179688 41.382812 116.734375 41.101562 C 116.191406 40.863281 115.769531 40.507812 115.46875 40.039062 C 115.164062 39.5625 115.015625 39.015625 115.015625 38.398438 C 115.015625 37.492188 115.300781 36.769531 115.875 36.226562 C 116.457031 35.6875 117.238281 35.414062 118.21875 35.414062 C 118.800781 35.414062 119.335938 35.523438 119.828125 35.742188 L 122.796875 35.507812 L 122.40625 36.445312 L 120.375 36.117188 C 121.039062 36.753906 121.375 37.507812 121.375 38.382812 C 121.375 39.25 121.078125 39.96875 120.484375 40.539062 C 119.898438 41.101562 119.15625 41.382812 118.25 41.382812 C 117.90625 41.382812 117.539062 41.332031 117.15625 41.226562 C 116.789062 41.507812 116.609375 41.828125 116.609375 42.179688 C 116.609375 42.546875 116.929688 42.726562 117.578125 42.726562 L 118.9375 42.726562 C 120.269531 42.726562 121.160156 42.867188 121.609375 43.148438 C 122.097656 43.453125 122.34375 43.960938 122.34375 44.679688 C 122.34375 45.480469 121.972656 46.125 121.234375 46.617188 C 120.492188 47.117188 119.519531 47.367188 118.3125 47.367188 C 117.144531 47.367188 116.207031 47.199219 115.5 46.867188 C 114.789062 46.53125 114.4375 46.09375 114.4375 45.554688 C 114.4375 44.84375 115.003906 44.246094 116.140625 43.757812 Z M 116.546875 38.304688 C 116.546875 40.035156 117.097656 40.898438 118.203125 40.898438 C 118.734375 40.898438 119.132812 40.6875 119.40625 40.257812 C 119.6875 39.820312 119.828125 39.1875 119.828125 38.351562 C 119.828125 37.5625 119.6875 36.953125 119.40625 36.523438 C 119.132812 36.097656 118.734375 35.882812 118.203125 35.882812 C 117.671875 35.882812 117.257812 36.097656 116.96875 36.523438 C 116.6875 36.941406 116.546875 37.535156 116.546875 38.304688 Z M 116.546875 43.882812 C 116.160156 44.265625 115.96875 44.734375 115.96875 45.289062 C 115.96875 45.789062 116.179688 46.179688 116.609375 46.460938 C 117.035156 46.75 117.617188 46.898438 118.359375 46.898438 C 119.117188 46.898438 119.722656 46.730469 120.171875 46.398438 C 120.617188 46.0625 120.84375 45.617188 120.84375 45.054688 C 120.84375 44.625 120.722656 44.324219 120.484375 44.148438 C 120.242188 43.972656 119.820312 43.882812 119.21875 43.882812 Z M 127.828125 44.289062 C 126.609375 44.289062 125.640625 43.890625 124.921875 43.085938 C 124.203125 42.285156 123.84375 41.203125 123.84375 39.835938 C 123.84375 38.472656 124.203125 37.394531 124.921875 36.601562 C 125.648438 35.8125 126.640625 35.414062 127.890625 35.414062 C 129.140625 35.414062 130.125 35.8125 130.84375 36.601562 C 131.570312 37.394531 131.9375 38.46875 131.9375 39.820312 C 131.9375 41.21875 131.570312 42.3125 130.84375 43.101562 C 130.113281 43.894531 129.109375 44.289062 127.828125 44.289062 Z M 127.859375 43.789062 C 128.566406 43.789062 129.148438 43.421875 129.609375 42.679688 C 130.066406 41.929688 130.296875 40.976562 130.296875 39.820312 C 130.296875 38.707031 130.066406 37.773438 129.609375 37.023438 C 129.148438 36.265625 128.578125 35.882812 127.890625 35.882812 C 127.203125 35.882812 126.628906 36.265625 126.171875 37.023438 C 125.710938 37.773438 125.484375 38.710938 125.484375 39.835938 C 125.484375 40.960938 125.707031 41.90625 126.15625 42.664062 C 126.613281 43.414062 127.179688 43.789062 127.859375 43.789062 Z M 7.875 60.085938 L 7.875 59.601562 L 8.015625 59.585938 L 8.546875 59.554688 C 8.847656 59.535156 9.035156 59.484375 9.109375 59.398438 C 9.191406 59.316406 9.242188 59.128906 9.265625 58.835938 L 9.3125 58.054688 L 9.3125 50.539062 L 9.265625 49.773438 C 9.242188 49.472656 9.191406 49.28125 9.109375 49.195312 C 9.035156 49.113281 8.847656 49.0625 8.546875 49.039062 L 8.015625 49.007812 L 7.875 48.992188 L 7.875 48.523438 L 11.578125 48.523438 L 12.21875 48.507812 L 13.34375 48.476562 C 15.039062 48.476562 16.359375 48.890625 17.296875 49.710938 C 18.410156 50.691406 18.96875 52.140625 18.96875 54.054688 C 18.96875 55.921875 18.46875 57.394531 17.46875 58.476562 C 16.476562 59.550781 15.125 60.085938 13.40625 60.085938 Z M 10.953125 49.039062 L 10.953125 58.054688 L 10.984375 58.664062 C 10.984375 59.019531 11.078125 59.234375 11.265625 59.304688 C 11.640625 59.472656 12.15625 59.554688 12.8125 59.554688 C 14.257812 59.554688 15.359375 59.113281 16.109375 58.226562 C 16.859375 57.34375 17.234375 56.03125 17.234375 54.289062 C 17.234375 52.4375 16.835938 51.097656 16.046875 50.273438 C 15.253906 49.453125 13.96875 49.039062 12.1875 49.039062 Z M 23.109375 51.601562 L 23.109375 58.054688 C 23.109375 58.484375 23.144531 58.859375 23.21875 59.179688 C 23.25 59.316406 23.300781 59.410156 23.375 59.460938 C 23.457031 59.503906 23.625 59.535156 23.875 59.554688 L 24.40625 59.585938 L 24.5625 59.601562 L 24.5625 60.085938 L 20.125 60.085938 L 20.125 59.601562 L 20.265625 59.585938 L 20.796875 59.554688 C 21.097656 59.535156 21.285156 59.484375 21.359375 59.398438 C 21.441406 59.316406 21.492188 59.128906 21.515625 58.835938 L 21.5625 58.054688 L 21.5625 53.617188 L 21.515625 52.851562 C 21.492188 52.5625 21.441406 52.375 21.359375 52.289062 C 21.285156 52.207031 21.097656 52.15625 20.796875 52.132812 L 20.265625 52.085938 L 20.125 52.085938 L 20.125 51.601562 Z M 21.5625 50.054688 L 21.5625 48.523438 L 23.109375 48.523438 L 23.109375 50.054688 Z M 25.84375 59.648438 L 25.84375 57.492188 L 26.703125 57.492188 L 26.71875 57.632812 L 26.78125 58.445312 C 26.820312 58.863281 27.015625 59.175781 27.359375 59.382812 C 27.816406 59.65625 28.3125 59.789062 28.84375 59.789062 C 29.320312 59.789062 29.707031 59.648438 30 59.367188 C 30.300781 59.085938 30.453125 58.722656 30.453125 58.273438 C 30.453125 57.878906 30.347656 57.566406 30.140625 57.335938 C 29.941406 57.097656 29.59375 56.878906 29.09375 56.679688 L 28.296875 56.382812 C 27.453125 56.050781 26.835938 55.679688 26.453125 55.273438 C 26.078125 54.867188 25.890625 54.375 25.890625 53.789062 C 25.890625 53.101562 26.160156 52.535156 26.703125 52.085938 C 27.253906 51.640625 27.957031 51.414062 28.8125 51.414062 C 29.632812 51.414062 30.488281 51.570312 31.375 51.882812 L 31.375 53.914062 L 30.515625 53.914062 L 30.515625 53.773438 L 30.4375 53.054688 C 30.414062 52.765625 30.367188 52.5625 30.296875 52.445312 C 30.222656 52.332031 30.078125 52.21875 29.859375 52.101562 C 29.546875 51.957031 29.226562 51.882812 28.90625 51.882812 C 28.457031 51.882812 28.082031 52.03125 27.78125 52.320312 C 27.476562 52.613281 27.328125 52.976562 27.328125 53.414062 C 27.328125 53.78125 27.445312 54.078125 27.6875 54.304688 C 27.9375 54.523438 28.425781 54.78125 29.15625 55.070312 L 29.875 55.367188 C 30.65625 55.691406 31.203125 56.03125 31.515625 56.382812 C 31.828125 56.726562 31.984375 57.171875 31.984375 57.710938 C 31.984375 58.460938 31.679688 59.082031 31.078125 59.570312 C 30.484375 60.050781 29.710938 60.289062 28.765625 60.289062 C 27.722656 60.289062 26.75 60.078125 25.84375 59.648438 Z M 38.453125 60.039062 C 38.054688 60.203125 37.679688 60.289062 37.328125 60.289062 C 36.535156 60.289062 35.910156 60.078125 35.453125 59.648438 C 35.171875 59.410156 34.976562 59.132812 34.875 58.820312 C 34.78125 58.507812 34.734375 58.046875 34.734375 57.429688 L 34.734375 52.226562 L 33.484375 52.226562 L 33.484375 51.601562 L 34.734375 51.601562 L 34.734375 50.054688 L 36.28125 49.679688 L 36.28125 51.601562 L 38.640625 51.601562 L 38.640625 52.226562 L 36.28125 52.226562 L 36.28125 57.632812 C 36.28125 58.375 36.347656 58.863281 36.484375 59.101562 C 36.703125 59.46875 37.0625 59.648438 37.5625 59.648438 C 37.800781 59.648438 38.097656 59.570312 38.453125 59.414062 Z M 42.359375 53.914062 L 42.359375 58.054688 C 42.359375 58.484375 42.394531 58.859375 42.46875 59.179688 C 42.5 59.316406 42.550781 59.410156 42.625 59.460938 C 42.707031 59.503906 42.875 59.535156 43.125 59.554688 L 43.65625 59.585938 L 44 59.601562 L 44 60.085938 L 39.375 60.085938 L 39.375 59.601562 L 39.515625 59.585938 L 40.046875 59.554688 C 40.347656 59.535156 40.535156 59.484375 40.609375 59.398438 C 40.691406 59.316406 40.742188 59.128906 40.765625 58.835938 L 40.8125 58.054688 L 40.8125 53.617188 L 40.765625 52.851562 C 40.742188 52.5625 40.691406 52.375 40.609375 52.289062 C 40.535156 52.207031 40.347656 52.15625 40.046875 52.132812 L 39.515625 52.085938 L 39.375 52.085938 L 39.375 51.601562 L 42.359375 51.601562 L 42.359375 53.195312 C 43.054688 52.007812 43.972656 51.414062 45.109375 51.414062 C 45.265625 51.414062 45.441406 51.441406 45.640625 51.492188 L 45.640625 53.820312 L 44.765625 53.820312 L 44.75 53.679688 L 44.6875 53.085938 C 44.664062 52.921875 44.625 52.8125 44.5625 52.757812 C 44.507812 52.707031 44.410156 52.679688 44.265625 52.679688 C 43.878906 52.679688 43.523438 52.785156 43.203125 52.992188 C 42.878906 53.203125 42.597656 53.507812 42.359375 53.914062 Z M 49.40625 51.601562 L 49.40625 58.054688 C 49.40625 58.484375 49.441406 58.859375 49.515625 59.179688 C 49.546875 59.316406 49.597656 59.410156 49.671875 59.460938 C 49.753906 59.503906 49.921875 59.535156 50.171875 59.554688 L 50.703125 59.585938 L 50.859375 59.601562 L 50.859375 60.085938 L 46.421875 60.085938 L 46.421875 59.601562 L 46.5625 59.585938 L 47.09375 59.554688 C 47.394531 59.535156 47.582031 59.484375 47.65625 59.398438 C 47.738281 59.316406 47.789062 59.128906 47.8125 58.835938 L 47.859375 58.054688 L 47.859375 53.617188 L 47.8125 52.851562 C 47.789062 52.5625 47.738281 52.375 47.65625 52.289062 C 47.582031 52.207031 47.394531 52.15625 47.09375 52.132812 L 46.5625 52.085938 L 46.421875 52.085938 L 46.421875 51.601562 Z M 47.859375 50.054688 L 47.859375 48.523438 L 49.40625 48.523438 L 49.40625 50.054688 Z M 56.6875 60.039062 C 56.289062 60.203125 55.914062 60.289062 55.5625 60.289062 C 54.769531 60.289062 54.144531 60.078125 53.6875 59.648438 C 53.40625 59.410156 53.210938 59.132812 53.109375 58.820312 C 53.015625 58.507812 52.96875 58.046875 52.96875 57.429688 L 52.96875 52.226562 L 51.71875 52.226562 L 51.71875 51.601562 L 52.96875 51.601562 L 52.96875 50.054688 L 54.515625 49.679688 L 54.515625 51.601562 L 56.875 51.601562 L 56.875 52.226562 L 54.515625 52.226562 L 54.515625 57.632812 C 54.515625 58.375 54.582031 58.863281 54.71875 59.101562 C 54.9375 59.46875 55.296875 59.648438 55.796875 59.648438 C 56.035156 59.648438 56.332031 59.570312 56.6875 59.414062 Z M 62.078125 60.289062 C 60.859375 60.289062 59.890625 59.890625 59.171875 59.085938 C 58.453125 58.285156 58.09375 57.203125 58.09375 55.835938 C 58.09375 54.472656 58.453125 53.394531 59.171875 52.601562 C 59.898438 51.8125 60.890625 51.414062 62.140625 51.414062 C 63.390625 51.414062 64.375 51.8125 65.09375 52.601562 C 65.820312 53.394531 66.1875 54.46875 66.1875 55.820312 C 66.1875 57.21875 65.820312 58.3125 65.09375 59.101562 C 64.363281 59.894531 63.359375 60.289062 62.078125 60.289062 Z M 62.109375 59.789062 C 62.816406 59.789062 63.398438 59.421875 63.859375 58.679688 C 64.316406 57.929688 64.546875 56.976562 64.546875 55.820312 C 64.546875 54.707031 64.316406 53.773438 63.859375 53.023438 C 63.398438 52.265625 62.828125 51.882812 62.140625 51.882812 C 61.453125 51.882812 60.878906 52.265625 60.421875 53.023438 C 59.960938 53.773438 59.734375 54.710938 59.734375 55.835938 C 59.734375 56.960938 59.957031 57.90625 60.40625 58.664062 C 60.863281 59.414062 61.429688 59.789062 62.109375 59.789062 Z M 81.515625 60.242188 L 74.34375 50.554688 L 74.34375 58.054688 C 74.34375 58.484375 74.378906 58.859375 74.453125 59.179688 C 74.484375 59.316406 74.539062 59.410156 74.625 59.460938 C 74.707031 59.503906 74.875 59.535156 75.125 59.554688 L 75.65625 59.585938 L 75.796875 59.601562 L 75.796875 60.085938 L 72.171875 60.085938 L 72.171875 59.601562 L 72.3125 59.585938 L 72.84375 59.554688 C 73.09375 59.535156 73.257812 59.503906 73.34375 59.460938 C 73.425781 59.410156 73.484375 59.316406 73.515625 59.179688 C 73.585938 58.859375 73.625 58.484375 73.625 58.054688 L 73.625 50.539062 C 73.625 50.113281 73.585938 49.738281 73.515625 49.414062 C 73.484375 49.28125 73.425781 49.191406 73.34375 49.148438 C 73.257812 49.097656 73.09375 49.0625 72.84375 49.039062 L 72.3125 49.007812 L 72.171875 48.992188 L 72.171875 48.523438 L 74.765625 48.523438 L 81.359375 57.492188 L 81.359375 50.539062 L 81.3125 49.773438 C 81.289062 49.472656 81.238281 49.28125 81.15625 49.195312 C 81.070312 49.113281 80.882812 49.0625 80.59375 49.039062 L 80.0625 49.007812 L 79.921875 48.992188 L 79.921875 48.523438 L 83.515625 48.523438 L 83.515625 48.992188 L 83.375 49.007812 L 82.84375 49.039062 C 82.539062 49.0625 82.347656 49.113281 82.265625 49.195312 C 82.179688 49.28125 82.132812 49.472656 82.125 49.773438 L 82.078125 50.539062 L 82.078125 60.242188 Z M 89.875 58.914062 C 89.363281 59.425781 88.90625 59.785156 88.5 59.992188 C 88.101562 60.1875 87.65625 60.289062 87.15625 60.289062 C 86.4375 60.289062 85.835938 60.0625 85.359375 59.601562 C 84.878906 59.144531 84.640625 58.570312 84.640625 57.882812 C 84.640625 57.082031 84.953125 56.429688 85.578125 55.929688 C 85.972656 55.609375 86.441406 55.382812 86.984375 55.257812 C 87.523438 55.132812 88.265625 55.070312 89.203125 55.070312 L 89.53125 55.070312 L 89.53125 54.007812 C 89.53125 52.675781 89.019531 52.007812 88 52.007812 C 87.53125 52.007812 87.113281 52.15625 86.75 52.445312 C 86.53125 52.625 86.394531 52.984375 86.34375 53.523438 L 86.328125 53.679688 L 85.28125 53.679688 L 85.28125 52.117188 C 86.363281 51.648438 87.363281 51.414062 88.28125 51.414062 C 89.09375 51.414062 89.75 51.601562 90.25 51.976562 C 90.5625 52.21875 90.773438 52.476562 90.890625 52.757812 C 91.003906 53.03125 91.0625 53.425781 91.0625 53.945312 L 91.0625 57.726562 C 91.0625 58.40625 91.117188 58.882812 91.234375 59.164062 C 91.359375 59.4375 91.566406 59.570312 91.859375 59.570312 C 91.953125 59.570312 92.085938 59.550781 92.265625 59.507812 L 92.3125 60.085938 C 91.945312 60.21875 91.613281 60.289062 91.3125 60.289062 C 90.5625 60.289062 90.082031 59.832031 89.875 58.914062 Z M 89.53125 58.742188 L 89.53125 55.554688 L 89.171875 55.554688 C 88.265625 55.554688 87.554688 55.742188 87.046875 56.117188 C 86.535156 56.484375 86.28125 57 86.28125 57.664062 C 86.28125 58.15625 86.4375 58.5625 86.75 58.882812 C 87.0625 59.207031 87.457031 59.367188 87.9375 59.367188 C 88.382812 59.367188 88.914062 59.160156 89.53125 58.742188 Z M 99.875 59.789062 C 99.0625 60.121094 98.269531 60.289062 97.5 60.289062 C 96.257812 60.289062 95.253906 59.875 94.484375 59.039062 C 93.710938 58.207031 93.328125 57.128906 93.328125 55.804688 C 93.328125 54.484375 93.695312 53.421875 94.4375 52.617188 C 95.175781 51.816406 96.15625 51.414062 97.375 51.414062 C 98.019531 51.414062 98.851562 51.539062 99.875 51.789062 L 99.875 53.820312 L 98.921875 53.820312 L 98.90625 53.679688 C 98.90625 53.054688 98.8125 52.632812 98.625 52.414062 C 98.332031 52.09375 97.921875 51.929688 97.390625 51.929688 C 96.628906 51.929688 96.03125 52.269531 95.59375 52.945312 C 95.15625 53.625 94.9375 54.539062 94.9375 55.695312 C 94.9375 56.875 95.195312 57.804688 95.71875 58.492188 C 96.238281 59.171875 96.945312 59.507812 97.84375 59.507812 C 98.613281 59.507812 99.289062 59.378906 99.875 59.117188 Z M 103.96875 51.601562 L 103.96875 58.054688 C 103.96875 58.484375 104.003906 58.859375 104.078125 59.179688 C 104.109375 59.316406 104.160156 59.410156 104.234375 59.460938 C 104.316406 59.503906 104.484375 59.535156 104.734375 59.554688 L 105.265625 59.585938 L 105.421875 59.601562 L 105.421875 60.085938 L 100.984375 60.085938 L 100.984375 59.601562 L 101.125 59.585938 L 101.65625 59.554688 C 101.957031 59.535156 102.144531 59.484375 102.21875 59.398438 C 102.300781 59.316406 102.351562 59.128906 102.375 58.835938 L 102.421875 58.054688 L 102.421875 53.617188 L 102.375 52.851562 C 102.351562 52.5625 102.300781 52.375 102.21875 52.289062 C 102.144531 52.207031 101.957031 52.15625 101.65625 52.132812 L 101.125 52.085938 L 100.984375 52.085938 L 100.984375 51.601562 Z M 102.421875 50.054688 L 102.421875 48.523438 L 103.96875 48.523438 L 103.96875 50.054688 Z M 110.375 60.289062 C 109.15625 60.289062 108.1875 59.890625 107.46875 59.085938 C 106.75 58.285156 106.390625 57.203125 106.390625 55.835938 C 106.390625 54.472656 106.75 53.394531 107.46875 52.601562 C 108.195312 51.8125 109.1875 51.414062 110.4375 51.414062 C 111.6875 51.414062 112.671875 51.8125 113.390625 52.601562 C 114.117188 53.394531 114.484375 54.46875 114.484375 55.820312 C 114.484375 57.21875 114.117188 58.3125 113.390625 59.101562 C 112.660156 59.894531 111.65625 60.289062 110.375 60.289062 Z M 110.40625 59.789062 C 111.113281 59.789062 111.695312 59.421875 112.15625 58.679688 C 112.613281 57.929688 112.84375 56.976562 112.84375 55.820312 C 112.84375 54.707031 112.613281 53.773438 112.15625 53.023438 C 111.695312 52.265625 111.125 51.882812 110.4375 51.882812 C 109.75 51.882812 109.175781 52.265625 108.71875 53.023438 C 108.257812 53.773438 108.03125 54.710938 108.03125 55.835938 C 108.03125 56.960938 108.253906 57.90625 108.703125 58.664062 C 109.160156 59.414062 109.726562 59.789062 110.40625 59.789062 Z M 118.53125 53.195312 C 118.894531 52.632812 119.347656 52.195312 119.890625 51.882812 C 120.429688 51.570312 121 51.414062 121.59375 51.414062 C 122.320312 51.414062 122.890625 51.65625 123.296875 52.132812 C 123.710938 52.613281 123.921875 53.269531 123.921875 54.101562 L 123.921875 58.054688 L 123.984375 58.835938 C 123.992188 59.128906 124.039062 59.316406 124.125 59.398438 C 124.207031 59.484375 124.398438 59.535156 124.703125 59.554688 L 125.234375 59.585938 L 125.375 59.601562 L 125.375 60.085938 L 120.9375 60.085938 L 120.9375 59.601562 L 121.078125 59.585938 L 121.609375 59.554688 C 121.910156 59.535156 122.101562 59.484375 122.1875 59.398438 C 122.269531 59.316406 122.320312 59.128906 122.34375 58.835938 L 122.390625 58.054688 L 122.390625 54.351562 C 122.390625 53.625 122.289062 53.117188 122.09375 52.835938 C 121.90625 52.546875 121.570312 52.398438 121.09375 52.398438 C 120.394531 52.398438 119.539062 52.835938 118.53125 53.710938 L 118.53125 58.054688 C 118.53125 58.484375 118.566406 58.859375 118.640625 59.179688 C 118.671875 59.316406 118.722656 59.410156 118.796875 59.460938 C 118.878906 59.503906 119.046875 59.535156 119.296875 59.554688 L 119.828125 59.585938 L 119.984375 59.601562 L 119.984375 60.085938 L 115.546875 60.085938 L 115.546875 59.601562 L 115.6875 59.585938 L 116.21875 59.554688 C 116.519531 59.535156 116.707031 59.484375 116.78125 59.398438 C 116.863281 59.316406 116.914062 59.128906 116.9375 58.835938 L 116.984375 58.054688 L 116.984375 53.617188 L 116.9375 52.851562 C 116.914062 52.5625 116.863281 52.375 116.78125 52.289062 C 116.707031 52.207031 116.519531 52.15625 116.21875 52.132812 L 115.6875 52.085938 L 115.546875 52.085938 L 115.546875 51.601562 L 118.53125 51.601562 Z M 131.390625 58.914062 C 130.878906 59.425781 130.421875 59.785156 130.015625 59.992188 C 129.617188 60.1875 129.171875 60.289062 128.671875 60.289062 C 127.953125 60.289062 127.351562 60.0625 126.875 59.601562 C 126.394531 59.144531 126.15625 58.570312 126.15625 57.882812 C 126.15625 57.082031 126.46875 56.429688 127.09375 55.929688 C 127.488281 55.609375 127.957031 55.382812 128.5 55.257812 C 129.039062 55.132812 129.78125 55.070312 130.71875 55.070312 L 131.046875 55.070312 L 131.046875 54.007812 C 131.046875 52.675781 130.535156 52.007812 129.515625 52.007812 C 129.046875 52.007812 128.628906 52.15625 128.265625 52.445312 C 128.046875 52.625 127.910156 52.984375 127.859375 53.523438 L 127.84375 53.679688 L 126.796875 53.679688 L 126.796875 52.117188 C 127.878906 51.648438 128.878906 51.414062 129.796875 51.414062 C 130.609375 51.414062 131.265625 51.601562 131.765625 51.976562 C 132.078125 52.21875 132.289062 52.476562 132.40625 52.757812 C 132.519531 53.03125 132.578125 53.425781 132.578125 53.945312 L 132.578125 57.726562 C 132.578125 58.40625 132.632812 58.882812 132.75 59.164062 C 132.875 59.4375 133.082031 59.570312 133.375 59.570312 C 133.46875 59.570312 133.601562 59.550781 133.78125 59.507812 L 133.828125 60.085938 C 133.460938 60.21875 133.128906 60.289062 132.828125 60.289062 C 132.078125 60.289062 131.597656 59.832031 131.390625 58.914062 Z M 131.046875 58.742188 L 131.046875 55.554688 L 130.6875 55.554688 C 129.78125 55.554688 129.070312 55.742188 128.5625 56.117188 C 128.050781 56.484375 127.796875 57 127.796875 57.664062 C 127.796875 58.15625 127.953125 58.5625 128.265625 58.882812 C 128.578125 59.207031 128.972656 59.367188 129.453125 59.367188 C 129.898438 59.367188 130.429688 59.160156 131.046875 58.742188 Z M 137.34375 47.742188 L 137.34375 58.054688 C 137.34375 58.484375 137.378906 58.859375 137.453125 59.179688 C 137.484375 59.316406 137.535156 59.410156 137.609375 59.460938 C 137.691406 59.503906 137.859375 59.535156 138.109375 59.554688 L 138.640625 59.585938 L 138.796875 59.601562 L 138.796875 60.085938 L 134.359375 60.085938 L 134.359375 59.601562 L 134.5 59.585938 L 135.03125 59.554688 C 135.332031 59.535156 135.519531 59.484375 135.59375 59.398438 C 135.675781 59.316406 135.726562 59.128906 135.75 58.835938 L 135.796875 58.054688 L 135.796875 49.773438 L 135.75 48.992188 C 135.726562 48.703125 135.675781 48.515625 135.59375 48.429688 C 135.519531 48.347656 135.332031 48.296875 135.03125 48.273438 L 134.5 48.242188 L 134.359375 48.226562 L 134.359375 47.742188 Z M 137.34375 47.742188 "/>
</g>
</svg>
