<?xml version="1.0" encoding="UTF-8"?>
<svg xmlns="http://www.w3.org/2000/svg" xmlns:xlink="http://www.w3.org/1999/xlink" width="150pt" height="100pt" viewBox="0 0 150 100" version="1.1">
<g id="surface2">
<rect x="0" y="0" width="150" height="100" style="fill:rgb(100%,100%,100%);fill-opacity:1;stroke:none;"/>
<path style=" stroke:none;fill-rule:nonzero;fill:rgb(0%,0%,0%);fill-opacity:1;" d="M 50.015625 19.476562 L 48.34375 19.476562 L 48.34375 28.289062 L 47.0625 28.289062 L 47.0625 24.132812 L 45.125 24.132812 C 43.976562 24.132812 43.109375 24.019531 42.515625 23.789062 C 42.273438 23.96875 42.007812 24.117188 41.71875 24.242188 C 42.15625 24.804688 42.664062 25.378906 43.25 25.960938 C 43.84375 26.546875 44.460938 27.097656 45.109375 27.617188 L 44.25 28.492188 C 43.65625 27.972656 43.066406 27.421875 42.484375 26.835938 C 41.910156 26.242188 41.398438 25.6875 40.953125 25.164062 C 40.515625 24.632812 40.191406 24.195312 39.984375 23.851562 C 39.859375 23.644531 39.773438 23.46875 39.734375 23.320312 C 39.691406 23.175781 39.671875 23.019531 39.671875 22.851562 C 39.671875 22.707031 39.703125 22.570312 39.765625 22.445312 C 39.835938 22.320312 39.953125 22.21875 40.109375 22.132812 C 40.265625 22.050781 40.457031 22.007812 40.6875 22.007812 C 40.957031 22.007812 41.191406 22.070312 41.390625 22.195312 C 41.585938 22.3125 41.769531 22.476562 41.9375 22.695312 C 42.125 22.53125 42.265625 22.300781 42.359375 22.007812 C 42.460938 21.707031 42.515625 21.359375 42.515625 20.960938 C 42.515625 20.640625 42.488281 20.351562 42.4375 20.101562 C 42.382812 19.84375 42.320312 19.632812 42.25 19.476562 L 39.03125 19.476562 L 39.03125 18.335938 L 50.015625 18.335938 Z M 43.234375 22.945312 C 43.523438 22.976562 43.976562 22.992188 44.59375 22.992188 L 47.0625 22.992188 L 47.0625 19.476562 L 43.53125 19.476562 C 43.707031 19.882812 43.796875 20.378906 43.796875 20.960938 C 43.796875 21.804688 43.609375 22.46875 43.234375 22.945312 Z M 47.0625 18.445312 C 46.835938 17.570312 46.617188 16.90625 46.40625 16.445312 C 46.1875 15.976562 45.949219 15.640625 45.6875 15.429688 C 45.429688 15.222656 45.109375 15.117188 44.734375 15.117188 C 44.546875 15.117188 44.371094 15.132812 44.203125 15.164062 C 44.039062 15.195312 43.84375 15.253906 43.625 15.335938 L 43.234375 14.179688 C 43.464844 14.097656 43.699219 14.039062 43.9375 14.007812 C 44.167969 13.96875 44.417969 13.945312 44.6875 13.945312 C 45.136719 13.945312 45.53125 14.023438 45.875 14.179688 C 46.210938 14.328125 46.511719 14.570312 46.78125 14.914062 C 47.054688 15.25 47.3125 15.707031 47.5625 16.289062 C 47.804688 16.863281 48.042969 17.582031 48.28125 18.445312 Z M 48.859375 14.226562 C 49.015625 14.226562 49.164062 14.269531 49.296875 14.351562 C 49.421875 14.425781 49.527344 14.535156 49.609375 14.679688 C 49.695312 14.828125 49.734375 14.984375 49.734375 15.148438 C 49.734375 15.328125 49.695312 15.488281 49.609375 15.632812 C 49.527344 15.78125 49.417969 15.894531 49.28125 15.976562 C 49.148438 16.050781 49.007812 16.085938 48.859375 16.085938 C 48.703125 16.085938 48.558594 16.046875 48.421875 15.960938 C 48.289062 15.878906 48.179688 15.769531 48.09375 15.632812 C 48.011719 15.488281 47.96875 15.328125 47.96875 15.148438 C 47.96875 14.984375 48.011719 14.828125 48.09375 14.679688 C 48.179688 14.535156 48.289062 14.425781 48.421875 14.351562 C 48.558594 14.269531 48.703125 14.226562 48.859375 14.226562 Z M 47.0625 18.335938 Z M 55.71875 22.695312 L 54.84375 22.695312 C 54.15625 22.695312 53.59375 22.785156 53.15625 22.960938 C 52.71875 23.128906 52.382812 23.375 52.15625 23.695312 C 51.925781 24.019531 51.8125 24.40625 51.8125 24.851562 C 51.8125 25.238281 51.878906 25.578125 52.015625 25.867188 C 52.148438 26.148438 52.332031 26.382812 52.5625 26.570312 C 52.789062 26.75 53.054688 26.882812 53.359375 26.976562 C 53.660156 27.0625 53.976562 27.101562 54.3125 27.101562 C 54.632812 27.101562 54.929688 27.078125 55.203125 27.023438 C 55.484375 26.972656 55.753906 26.898438 56.015625 26.804688 C 56.273438 26.710938 56.625 26.550781 57.0625 26.320312 L 57.5 27.523438 C 56.976562 27.773438 56.445312 27.96875 55.90625 28.101562 C 55.375 28.226562 54.859375 28.289062 54.359375 28.289062 C 53.640625 28.289062 52.984375 28.144531 52.390625 27.851562 C 51.796875 27.550781 51.335938 27.132812 51.015625 26.601562 C 50.691406 26.0625 50.53125 25.453125 50.53125 24.773438 C 50.53125 24.128906 50.695312 23.566406 51.03125 23.085938 C 51.363281 22.597656 51.828125 22.222656 52.421875 21.960938 C 53.015625 21.703125 53.660156 21.570312 54.359375 21.570312 L 54.421875 21.570312 L 54.421875 19.476562 L 49.78125 19.476562 L 49.78125 18.335938 L 58.078125 18.335938 L 58.078125 19.476562 L 55.71875 19.476562 Z M 54.421875 18.335938 Z M 54.421875 28.289062 Z M 62.21875 19.476562 L 60.5625 19.476562 L 60.5625 28.289062 L 59.265625 28.289062 L 59.265625 19.476562 L 57.84375 19.476562 L 57.84375 18.335938 L 62.21875 18.335938 Z M 59.125 18.445312 C 58.894531 17.570312 58.671875 16.90625 58.453125 16.445312 C 58.242188 15.976562 58.007812 15.640625 57.75 15.429688 C 57.492188 15.222656 57.171875 15.117188 56.796875 15.117188 C 56.609375 15.117188 56.433594 15.132812 56.265625 15.164062 C 56.101562 15.195312 55.90625 15.253906 55.6875 15.335938 L 55.296875 14.179688 C 55.527344 14.097656 55.761719 14.039062 56 14.007812 C 56.230469 13.96875 56.480469 13.945312 56.75 13.945312 C 57.199219 13.945312 57.589844 14.023438 57.921875 14.179688 C 58.265625 14.328125 58.570312 14.570312 58.84375 14.914062 C 59.113281 15.25 59.367188 15.707031 59.609375 16.289062 C 59.859375 16.863281 60.101562 17.582031 60.34375 18.445312 Z M 59.125 18.335938 Z M 71.140625 24.914062 C 70.484375 24.726562 69.96875 24.4375 69.59375 24.039062 C 69.226562 23.632812 69.046875 23.171875 69.046875 22.648438 C 69.046875 22.335938 69.101562 22.070312 69.21875 21.851562 C 69.332031 21.632812 69.5 21.453125 69.71875 21.304688 C 69.9375 21.148438 70.191406 21.035156 70.484375 20.960938 C 70.785156 20.878906 71.160156 20.835938 71.609375 20.835938 L 73.3125 20.835938 L 73.3125 19.476562 L 66.140625 19.476562 L 66.140625 18.335938 L 76.421875 18.335938 L 76.421875 19.476562 L 74.59375 19.476562 L 74.59375 21.976562 L 71.578125 21.976562 C 71.242188 21.976562 70.992188 22 70.828125 22.039062 C 70.660156 22.082031 70.523438 22.164062 70.421875 22.289062 C 70.328125 22.40625 70.28125 22.554688 70.28125 22.742188 C 70.28125 22.960938 70.363281 23.15625 70.53125 23.320312 C 70.695312 23.488281 70.921875 23.609375 71.203125 23.679688 C 71.585938 23.554688 72.046875 23.492188 72.578125 23.492188 C 73.140625 23.492188 73.640625 23.582031 74.078125 23.757812 C 74.515625 23.9375 74.859375 24.203125 75.109375 24.554688 C 75.359375 24.910156 75.484375 25.332031 75.484375 25.820312 C 75.484375 26.289062 75.359375 26.710938 75.109375 27.085938 C 74.859375 27.460938 74.488281 27.757812 74 27.976562 C 73.507812 28.1875 72.921875 28.289062 72.234375 28.289062 C 71.460938 28.289062 70.75 28.160156 70.09375 27.898438 C 69.4375 27.628906 68.816406 27.195312 68.234375 26.601562 C 67.648438 26 67.101562 25.203125 66.59375 24.210938 L 67.6875 23.695312 C 68.113281 24.53125 68.554688 25.195312 69.015625 25.695312 C 69.484375 26.195312 69.972656 26.554688 70.484375 26.773438 C 71.003906 26.992188 71.570312 27.101562 72.1875 27.101562 C 72.851562 27.101562 73.351562 26.992188 73.6875 26.773438 C 74.019531 26.546875 74.1875 26.210938 74.1875 25.773438 C 74.1875 25.421875 74.039062 25.144531 73.75 24.945312 C 73.46875 24.738281 73.082031 24.632812 72.59375 24.632812 C 72.34375 24.632812 72.09375 24.660156 71.84375 24.710938 C 71.59375 24.753906 71.359375 24.820312 71.140625 24.914062 Z M 73.3125 18.335938 Z M 72.25 28.289062 Z M 80.5625 19.476562 L 78.90625 19.476562 L 78.90625 28.289062 L 77.609375 28.289062 L 77.609375 19.476562 L 76.1875 19.476562 L 76.1875 18.335938 L 80.5625 18.335938 Z M 77.46875 18.445312 C 77.238281 17.570312 77.015625 16.90625 76.796875 16.445312 C 76.585938 15.976562 76.351562 15.640625 76.09375 15.429688 C 75.835938 15.222656 75.515625 15.117188 75.140625 15.117188 C 74.953125 15.117188 74.777344 15.132812 74.609375 15.164062 C 74.445312 15.195312 74.25 15.253906 74.03125 15.335938 L 73.640625 14.179688 C 73.871094 14.097656 74.105469 14.039062 74.34375 14.007812 C 74.574219 13.96875 74.824219 13.945312 75.09375 13.945312 C 75.542969 13.945312 75.933594 14.023438 76.265625 14.179688 C 76.609375 14.328125 76.914062 14.570312 77.1875 14.914062 C 77.457031 15.25 77.710938 15.707031 77.953125 16.289062 C 78.203125 16.863281 78.445312 17.582031 78.6875 18.445312 Z M 77.46875 18.335938 Z M 91.0625 18.445312 C 90.15625 17.332031 89.203125 16.5 88.203125 15.945312 C 87.210938 15.382812 86.171875 15.101562 85.078125 15.101562 C 84.671875 15.101562 84.304688 15.144531 83.984375 15.226562 C 83.660156 15.300781 83.382812 15.414062 83.15625 15.570312 C 82.9375 15.726562 82.765625 15.914062 82.640625 16.132812 C 82.523438 16.351562 82.46875 16.601562 82.46875 16.882812 C 82.46875 17.195312 82.515625 17.472656 82.609375 17.710938 C 82.710938 17.941406 82.828125 18.148438 82.953125 18.335938 L 84.703125 18.335938 L 84.703125 19.476562 L 83.046875 19.476562 L 83.046875 28.289062 L 81.75 28.289062 L 81.75 19.476562 L 80.328125 19.476562 L 80.328125 18.335938 L 81.609375 18.335938 C 81.484375 18.097656 81.378906 17.847656 81.296875 17.585938 C 81.222656 17.328125 81.1875 17.035156 81.1875 16.710938 C 81.1875 16.296875 81.269531 15.914062 81.4375 15.570312 C 81.601562 15.226562 81.84375 14.9375 82.15625 14.695312 C 82.46875 14.457031 82.84375 14.273438 83.28125 14.148438 C 83.726562 14.015625 84.222656 13.945312 84.765625 13.945312 C 85.597656 13.945312 86.378906 14.054688 87.109375 14.273438 C 87.847656 14.484375 88.535156 14.785156 89.171875 15.179688 C 89.804688 15.578125 90.394531 16.050781 90.9375 16.601562 C 91.476562 17.15625 91.976562 17.769531 92.4375 18.445312 Z M 92.25 14.007812 C 92.40625 14.007812 92.546875 14.050781 92.671875 14.132812 C 92.804688 14.207031 92.914062 14.316406 93 14.460938 C 93.082031 14.609375 93.125 14.765625 93.125 14.929688 C 93.125 15.109375 93.082031 15.269531 93 15.414062 C 92.914062 15.5625 92.804688 15.675781 92.671875 15.757812 C 92.535156 15.832031 92.394531 15.867188 92.25 15.867188 C 92.09375 15.867188 91.945312 15.828125 91.8125 15.742188 C 91.675781 15.660156 91.566406 15.550781 91.484375 15.414062 C 91.398438 15.269531 91.359375 15.109375 91.359375 14.929688 C 91.359375 14.765625 91.398438 14.609375 91.484375 14.460938 C 91.566406 14.316406 91.675781 14.207031 91.8125 14.132812 C 91.945312 14.050781 92.09375 14.007812 92.25 14.007812 Z M 91.609375 17.335938 Z M 94.265625 19.476562 L 92.609375 19.476562 L 92.609375 28.289062 L 91.3125 28.289062 L 91.3125 24.289062 L 87.78125 24.289062 L 87.78125 24.867188 C 87.78125 25.179688 87.707031 25.425781 87.5625 25.601562 C 87.425781 25.78125 87.242188 25.867188 87.015625 25.867188 C 86.765625 25.867188 86.488281 25.765625 86.1875 25.554688 C 85.882812 25.335938 85.625 25.0625 85.40625 24.726562 C 85.195312 24.394531 85.09375 24.097656 85.09375 23.835938 C 85.09375 23.617188 85.175781 23.453125 85.34375 23.335938 C 85.507812 23.210938 85.753906 23.148438 86.078125 23.148438 L 86.5 23.148438 L 86.5 19.476562 L 84.46875 19.476562 L 84.46875 18.335938 L 94.265625 18.335938 Z M 91.3125 23.148438 L 91.3125 19.476562 L 87.78125 19.476562 L 87.78125 23.148438 Z M 100.328125 19.476562 L 97.375 19.476562 L 97.375 24.539062 C 97.375 24.820312 97.300781 25.039062 97.15625 25.195312 C 97.019531 25.351562 96.832031 25.429688 96.59375 25.429688 C 96.320312 25.429688 96.03125 25.320312 95.71875 25.101562 C 95.414062 24.875 95.164062 24.597656 94.96875 24.273438 C 94.78125 23.941406 94.6875 23.640625 94.6875 23.367188 C 94.6875 23.085938 94.765625 22.878906 94.921875 22.742188 C 95.085938 22.609375 95.332031 22.539062 95.65625 22.539062 L 96.09375 22.539062 L 96.09375 19.476562 L 94.03125 19.476562 L 94.03125 18.335938 L 103.28125 18.335938 L 103.28125 19.476562 L 101.609375 19.476562 L 101.609375 28.289062 L 100.328125 28.289062 Z M 107.421875 19.476562 L 105.765625 19.476562 L 105.765625 28.289062 L 104.46875 28.289062 L 104.46875 19.476562 L 103.046875 19.476562 L 103.046875 18.335938 L 107.421875 18.335938 Z M 104.328125 18.445312 C 104.097656 17.570312 103.875 16.90625 103.65625 16.445312 C 103.445312 15.976562 103.210938 15.640625 102.953125 15.429688 C 102.695312 15.222656 102.375 15.117188 102 15.117188 C 101.8125 15.117188 101.636719 15.132812 101.46875 15.164062 C 101.304688 15.195312 101.109375 15.253906 100.890625 15.335938 L 100.5 14.179688 C 100.730469 14.097656 100.964844 14.039062 101.203125 14.007812 C 101.433594 13.96875 101.683594 13.945312 101.953125 13.945312 C 102.402344 13.945312 102.792969 14.023438 103.125 14.179688 C 103.46875 14.328125 103.773438 14.570312 104.046875 14.914062 C 104.316406 15.25 104.570312 15.707031 104.8125 16.289062 C 105.0625 16.863281 105.304688 17.582031 105.546875 18.445312 Z M 104.328125 18.335938 Z M 14.46875 44.054688 L 14.46875 41.820312 L 15.28125 41.820312 L 15.296875 41.960938 C 15.304688 42.222656 15.3125 42.421875 15.3125 42.554688 C 15.3125 42.804688 15.34375 42.992188 15.40625 43.117188 C 15.476562 43.234375 15.617188 43.351562 15.828125 43.476562 C 16.378906 43.820312 16.992188 43.992188 17.671875 43.992188 C 18.347656 43.992188 18.878906 43.796875 19.265625 43.398438 C 19.660156 43.003906 19.859375 42.460938 19.859375 41.773438 C 19.859375 41.191406 19.734375 40.726562 19.484375 40.382812 C 19.234375 40.039062 18.75 39.664062 18.03125 39.257812 L 17.203125 38.789062 C 16.242188 38.25 15.5625 37.726562 15.15625 37.226562 C 14.75 36.726562 14.546875 36.160156 14.546875 35.523438 C 14.546875 34.628906 14.863281 33.890625 15.5 33.304688 C 16.144531 32.722656 16.945312 32.429688 17.90625 32.429688 C 18.738281 32.429688 19.710938 32.597656 20.828125 32.929688 L 20.828125 34.976562 L 19.96875 34.976562 L 19.953125 34.851562 C 19.929688 34.570312 19.921875 34.363281 19.921875 34.226562 C 19.921875 33.769531 19.785156 33.460938 19.515625 33.304688 C 19.117188 33.078125 18.609375 32.960938 17.984375 32.960938 C 17.421875 32.960938 16.96875 33.144531 16.625 33.507812 C 16.289062 33.875 16.125 34.359375 16.125 34.960938 C 16.125 35.472656 16.238281 35.894531 16.46875 36.226562 C 16.707031 36.5625 17.140625 36.90625 17.765625 37.257812 L 18.59375 37.726562 C 19.726562 38.375 20.492188 38.9375 20.890625 39.414062 C 21.285156 39.894531 21.484375 40.5 21.484375 41.226562 C 21.484375 42.1875 21.125 42.988281 20.40625 43.632812 C 19.695312 44.269531 18.804688 44.585938 17.734375 44.585938 C 17.203125 44.585938 16.617188 44.53125 15.984375 44.429688 C 15.359375 44.324219 14.851562 44.203125 14.46875 44.054688 Z M 28.21875 43.117188 C 27.707031 43.628906 27.25 43.988281 26.84375 44.195312 C 26.445312 44.390625 26 44.492188 25.5 44.492188 C 24.78125 44.492188 24.179688 44.265625 23.703125 43.804688 C 23.222656 43.347656 22.984375 42.773438 22.984375 42.085938 C 22.984375 41.285156 23.296875 40.632812 23.921875 40.132812 C 24.316406 39.8125 24.785156 39.585938 25.328125 39.460938 C 25.867188 39.335938 26.609375 39.273438 27.546875 39.273438 L 27.875 39.273438 L 27.875 38.210938 C 27.875 36.878906 27.363281 36.210938 26.34375 36.210938 C 25.875 36.210938 25.457031 36.359375 25.09375 36.648438 C 24.875 36.828125 24.738281 37.1875 24.6875 37.726562 L 24.671875 37.882812 L 23.625 37.882812 L 23.625 36.320312 C 24.707031 35.851562 25.707031 35.617188 26.625 35.617188 C 27.4375 35.617188 28.09375 35.804688 28.59375 36.179688 C 28.90625 36.421875 29.117188 36.679688 29.234375 36.960938 C 29.347656 37.234375 29.40625 37.628906 29.40625 38.148438 L 29.40625 41.929688 C 29.40625 42.609375 29.460938 43.085938 29.578125 43.367188 C 29.703125 43.640625 29.910156 43.773438 30.203125 43.773438 C 30.296875 43.773438 30.429688 43.753906 30.609375 43.710938 L 30.65625 44.289062 C 30.289062 44.421875 29.957031 44.492188 29.65625 44.492188 C 28.90625 44.492188 28.425781 44.035156 28.21875 43.117188 Z M 27.875 42.945312 L 27.875 39.757812 L 27.515625 39.757812 C 26.609375 39.757812 25.898438 39.945312 25.390625 40.320312 C 24.878906 40.6875 24.625 41.203125 24.625 41.867188 C 24.625 42.359375 24.78125 42.765625 25.09375 43.085938 C 25.40625 43.410156 25.800781 43.570312 26.28125 43.570312 C 26.726562 43.570312 27.257812 43.363281 27.875 42.945312 Z M 34.171875 37.398438 C 34.535156 36.835938 34.988281 36.398438 35.53125 36.085938 C 36.070312 35.773438 36.640625 35.617188 37.234375 35.617188 C 37.960938 35.617188 38.53125 35.859375 38.9375 36.335938 C 39.351562 36.816406 39.5625 37.472656 39.5625 38.304688 L 39.5625 42.257812 L 39.625 43.039062 C 39.632812 43.332031 39.679688 43.519531 39.765625 43.601562 C 39.847656 43.6875 40.039062 43.738281 40.34375 43.757812 L 40.875 43.789062 L 41.015625 43.804688 L 41.015625 44.289062 L 36.578125 44.289062 L 36.578125 43.804688 L 36.71875 43.789062 L 37.25 43.757812 C 37.550781 43.738281 37.742188 43.6875 37.828125 43.601562 C 37.910156 43.519531 37.960938 43.332031 37.984375 43.039062 L 38.03125 42.257812 L 38.03125 38.554688 C 38.03125 37.828125 37.929688 37.320312 37.734375 37.039062 C 37.546875 36.75 37.210938 36.601562 36.734375 36.601562 C 36.035156 36.601562 35.179688 37.039062 34.171875 37.914062 L 34.171875 42.257812 C 34.171875 42.6875 34.207031 43.0625 34.28125 43.382812 C 34.3125 43.519531 34.363281 43.613281 34.4375 43.664062 C 34.519531 43.707031 34.6875 43.738281 34.9375 43.757812 L 35.46875 43.789062 L 35.625 43.804688 L 35.625 44.289062 L 31.1875 44.289062 L 31.1875 43.804688 L 31.328125 43.789062 L 31.859375 43.757812 C 32.160156 43.738281 32.347656 43.6875 32.421875 43.601562 C 32.503906 43.519531 32.554688 43.332031 32.578125 43.039062 L 32.625 42.257812 L 32.625 37.820312 L 32.578125 37.054688 C 32.554688 36.765625 32.503906 36.578125 32.421875 36.492188 C 32.347656 36.410156 32.160156 36.359375 31.859375 36.335938 L 31.328125 36.289062 L 31.1875 36.289062 L 31.1875 35.804688 L 34.171875 35.804688 Z M 46.65625 44.242188 C 46.257812 44.40625 45.882812 44.492188 45.53125 44.492188 C 44.738281 44.492188 44.113281 44.28125 43.65625 43.851562 C 43.375 43.613281 43.179688 43.335938 43.078125 43.023438 C 42.984375 42.710938 42.9375 42.25 42.9375 41.632812 L 42.9375 36.429688 L 41.6875 36.429688 L 41.6875 35.804688 L 42.9375 35.804688 L 42.9375 34.257812 L 44.484375 33.882812 L 44.484375 35.804688 L 46.84375 35.804688 L 46.84375 36.429688 L 44.484375 36.429688 L 44.484375 41.835938 C 44.484375 42.578125 44.550781 43.066406 44.6875 43.304688 C 44.90625 43.671875 45.265625 43.851562 45.765625 43.851562 C 46.003906 43.851562 46.300781 43.773438 46.65625 43.617188 Z M 52.046875 44.492188 C 50.828125 44.492188 49.859375 44.09375 49.140625 43.289062 C 48.421875 42.488281 48.0625 41.40625 48.0625 40.039062 C 48.0625 38.675781 48.421875 37.597656 49.140625 36.804688 C 49.867188 36.015625 50.859375 35.617188 52.109375 35.617188 C 53.359375 35.617188 54.34375 36.015625 55.0625 36.804688 C 55.789062 37.597656 56.15625 38.671875 56.15625 40.023438 C 56.15625 41.421875 55.789062 42.515625 55.0625 43.304688 C 54.332031 44.097656 53.328125 44.492188 52.046875 44.492188 Z M 52.078125 43.992188 C 52.785156 43.992188 53.367188 43.625 53.828125 42.882812 C 54.285156 42.132812 54.515625 41.179688 54.515625 40.023438 C 54.515625 38.910156 54.285156 37.976562 53.828125 37.226562 C 53.367188 36.46875 52.796875 36.085938 52.109375 36.085938 C 51.421875 36.085938 50.847656 36.46875 50.390625 37.226562 C 49.929688 37.976562 49.703125 38.914062 49.703125 40.039062 C 49.703125 41.164062 49.925781 42.109375 50.375 42.867188 C 50.832031 43.617188 51.398438 43.992188 52.078125 43.992188 Z M 62.140625 44.289062 L 62.140625 43.804688 L 62.28125 43.789062 L 62.8125 43.757812 C 63.113281 43.738281 63.300781 43.6875 63.375 43.601562 C 63.457031 43.519531 63.507812 43.332031 63.53125 43.039062 L 63.578125 42.257812 L 63.578125 34.742188 L 63.53125 33.976562 C 63.507812 33.675781 63.457031 33.484375 63.375 33.398438 C 63.300781 33.316406 63.113281 33.265625 62.8125 33.242188 L 62.28125 33.210938 L 62.140625 33.195312 L 62.140625 32.726562 L 65.84375 32.726562 L 66.484375 32.710938 L 67.609375 32.679688 C 69.304688 32.679688 70.625 33.09375 71.5625 33.914062 C 72.675781 34.894531 73.234375 36.34375 73.234375 38.257812 C 73.234375 40.125 72.734375 41.597656 71.734375 42.679688 C 70.742188 43.753906 69.390625 44.289062 67.671875 44.289062 Z M 65.21875 33.242188 L 65.21875 42.257812 L 65.25 42.867188 C 65.25 43.222656 65.34375 43.4375 65.53125 43.507812 C 65.90625 43.675781 66.421875 43.757812 67.078125 43.757812 C 68.523438 43.757812 69.625 43.316406 70.375 42.429688 C 71.125 41.546875 71.5 40.234375 71.5 38.492188 C 71.5 36.640625 71.101562 35.300781 70.3125 34.476562 C 69.519531 33.65625 68.234375 33.242188 66.453125 33.242188 Z M 78.859375 44.492188 C 77.640625 44.492188 76.671875 44.09375 75.953125 43.289062 C 75.234375 42.488281 74.875 41.40625 74.875 40.039062 C 74.875 38.675781 75.234375 37.597656 75.953125 36.804688 C 76.679688 36.015625 77.671875 35.617188 78.921875 35.617188 C 80.171875 35.617188 81.15625 36.015625 81.875 36.804688 C 82.601562 37.597656 82.96875 38.671875 82.96875 40.023438 C 82.96875 41.421875 82.601562 42.515625 81.875 43.304688 C 81.144531 44.097656 80.140625 44.492188 78.859375 44.492188 Z M 78.890625 43.992188 C 79.597656 43.992188 80.179688 43.625 80.640625 42.882812 C 81.097656 42.132812 81.328125 41.179688 81.328125 40.023438 C 81.328125 38.910156 81.097656 37.976562 80.640625 37.226562 C 80.179688 36.46875 79.609375 36.085938 78.921875 36.085938 C 78.234375 36.085938 77.660156 36.46875 77.203125 37.226562 C 76.742188 37.976562 76.515625 38.914062 76.515625 40.039062 C 76.515625 41.164062 76.738281 42.109375 77.1875 42.867188 C 77.644531 43.617188 78.210938 43.992188 78.890625 43.992188 Z M 87.015625 37.398438 C 87.898438 36.210938 88.878906 35.617188 89.953125 35.617188 C 90.546875 35.617188 91.03125 35.773438 91.40625 36.085938 C 91.78125 36.390625 92.019531 36.828125 92.125 37.398438 C 92.664062 36.734375 93.160156 36.269531 93.609375 36.007812 C 94.066406 35.75 94.578125 35.617188 95.140625 35.617188 C 95.847656 35.617188 96.40625 35.84375 96.8125 36.289062 C 97.21875 36.726562 97.421875 37.335938 97.421875 38.117188 L 97.421875 42.257812 C 97.421875 42.6875 97.457031 43.0625 97.53125 43.382812 C 97.5625 43.519531 97.617188 43.613281 97.703125 43.664062 C 97.785156 43.707031 97.953125 43.738281 98.203125 43.757812 L 98.71875 43.789062 L 98.875 43.804688 L 98.875 44.289062 L 94.4375 44.289062 L 94.4375 43.804688 L 94.578125 43.789062 L 95.109375 43.757812 C 95.359375 43.738281 95.523438 43.707031 95.609375 43.664062 C 95.691406 43.613281 95.75 43.519531 95.78125 43.382812 C 95.84375 43.0625 95.875 42.6875 95.875 42.257812 L 95.875 38.398438 C 95.875 37.734375 95.785156 37.269531 95.609375 37.007812 C 95.441406 36.75 95.132812 36.617188 94.6875 36.617188 C 93.9375 36.617188 93.113281 37.054688 92.21875 37.929688 L 92.21875 42.257812 L 92.265625 43.039062 C 92.285156 43.332031 92.335938 43.519531 92.421875 43.601562 C 92.503906 43.6875 92.691406 43.738281 92.984375 43.757812 L 93.515625 43.789062 L 93.671875 43.804688 L 93.671875 44.289062 L 89.234375 44.289062 L 89.234375 43.804688 L 89.375 43.789062 L 89.90625 43.757812 C 90.15625 43.738281 90.320312 43.707031 90.40625 43.664062 C 90.488281 43.613281 90.546875 43.519531 90.578125 43.382812 C 90.640625 43.0625 90.671875 42.6875 90.671875 42.257812 L 90.671875 38.398438 C 90.671875 37.734375 90.582031 37.269531 90.40625 37.007812 C 90.238281 36.75 89.9375 36.617188 89.5 36.617188 C 88.6875 36.617188 87.859375 37.054688 87.015625 37.929688 L 87.015625 42.257812 C 87.015625 42.6875 87.050781 43.0625 87.125 43.382812 C 87.15625 43.519531 87.207031 43.613281 87.28125 43.664062 C 87.363281 43.707031 87.53125 43.738281 87.78125 43.757812 L 88.3125 43.789062 L 88.46875 43.804688 L 88.46875 44.289062 L 84.03125 44.289062 L 84.03125 43.804688 L 84.171875 43.789062 L 84.703125 43.757812 C 85.003906 43.738281 85.191406 43.6875 85.265625 43.601562 C 85.347656 43.519531 85.398438 43.332031 85.421875 43.039062 L 85.46875 42.257812 L 85.46875 37.820312 L 85.421875 37.054688 C 85.398438 36.765625 85.347656 36.578125 85.265625 36.492188 C 85.191406 36.410156 85.003906 36.359375 84.703125 36.335938 L 84.171875 36.289062 L 84.03125 36.289062 L 84.03125 35.804688 L 87.015625 35.804688 Z M 102.15625 35.804688 L 102.15625 42.257812 C 102.15625 42.6875 102.191406 43.0625 102.265625 43.382812 C 102.296875 43.519531 102.347656 43.613281 102.421875 43.664062 C 102.503906 43.707031 102.671875 43.738281 102.921875 43.757812 L 103.453125 43.789062 L 103.609375 43.804688 L 103.609375 44.289062 L 99.171875 44.289062 L 99.171875 43.804688 L 99.3125 43.789062 L 99.84375 43.757812 C 100.144531 43.738281 100.332031 43.6875 100.40625 43.601562 C 100.488281 43.519531 100.539062 43.332031 100.5625 43.039062 L 100.609375 42.257812 L 100.609375 37.820312 L 100.5625 37.054688 C 100.539062 36.765625 100.488281 36.578125 100.40625 36.492188 C 100.332031 36.410156 100.144531 36.359375 99.84375 36.335938 L 99.3125 36.289062 L 99.171875 36.289062 L 99.171875 35.804688 Z M 100.609375 34.257812 L 100.609375 32.726562 L 102.15625 32.726562 L 102.15625 34.257812 Z M 107.078125 37.398438 C 107.441406 36.835938 107.894531 36.398438 108.4375 36.085938 C 108.976562 35.773438 109.546875 35.617188 110.140625 35.617188 C 110.867188 35.617188 111.4375 35.859375 111.84375 36.335938 C 112.257812 36.816406 112.46875 37.472656 112.46875 38.304688 L 112.46875 42.257812 L 112.53125 43.039062 C 112.539062 43.332031 112.585938 43.519531 112.671875 43.601562 C 112.753906 43.6875 112.945312 43.738281 113.25 43.757812 L 113.78125 43.789062 L 113.921875 43.804688 L 113.921875 44.289062 L 109.484375 44.289062 L 109.484375 43.804688 L 109.625 43.789062 L 110.15625 43.757812 C 110.457031 43.738281 110.648438 43.6875 110.734375 43.601562 C 110.816406 43.519531 110.867188 43.332031 110.890625 43.039062 L 110.9375 42.257812 L 110.9375 38.554688 C 110.9375 37.828125 110.835938 37.320312 110.640625 37.039062 C 110.453125 36.75 110.117188 36.601562 109.640625 36.601562 C 108.941406 36.601562 108.085938 37.039062 107.078125 37.914062 L 107.078125 42.257812 C 107.078125 42.6875 107.113281 43.0625 107.1875 43.382812 C 107.21875 43.519531 107.269531 43.613281 107.34375 43.664062 C 107.425781 43.707031 107.59375 43.738281 107.84375 43.757812 L 108.375 43.789062 L 108.53125 43.804688 L 108.53125 44.289062 L 104.09375 44.289062 L 104.09375 43.804688 L 104.234375 43.789062 L 104.765625 43.757812 C 105.066406 43.738281 105.253906 43.6875 105.328125 43.601562 C 105.410156 43.519531 105.460938 43.332031 105.484375 43.039062 L 105.53125 42.257812 L 105.53125 37.820312 L 105.484375 37.054688 C 105.460938 36.765625 105.410156 36.578125 105.328125 36.492188 C 105.253906 36.410156 105.066406 36.359375 104.765625 36.335938 L 104.234375 36.289062 L 104.09375 36.289062 L 104.09375 35.804688 L 107.078125 35.804688 Z M 116.140625 43.960938 C 115.546875 43.691406 115.25 43.320312 115.25 42.851562 C 115.25 42.550781 115.359375 42.289062 115.578125 42.070312 C 115.796875 41.84375 116.179688 41.585938 116.734375 41.304688 C 116.191406 41.066406 115.769531 40.710938 115.46875 40.242188 C 115.164062 39.765625 115.015625 39.21875 115.015625 38.601562 C 115.015625 37.695312 115.300781 36.972656 115.875 36.429688 C 116.457031 35.890625 117.238281 35.617188 118.21875 35.617188 C 118.800781 35.617188 119.335938 35.726562 119.828125 35.945312 L 122.796875 35.710938 L 122.40625 36.648438 L 120.375 36.320312 C 121.039062 36.957031 121.375 37.710938 121.375 38.585938 C 121.375 39.453125 121.078125 40.171875 120.484375 40.742188 C 119.898438 41.304688 119.15625 41.585938 118.25 41.585938 C 117.90625 41.585938 117.539062 41.535156 117.15625 41.429688 C 116.789062 41.710938 116.609375 42.03125 116.609375 42.382812 C 116.609375 42.75 116.929688 42.929688 117.578125 42.929688 L 118.9375 42.929688 C 120.269531 42.929688 121.160156 43.070312 121.609375 43.351562 C 122.097656 43.65625 122.34375 44.164062 122.34375 44.882812 C 122.34375 45.683594 121.972656 46.328125 121.234375 46.820312 C 120.492188 47.320312 119.519531 47.570312 118.3125 47.570312 C 117.144531 47.570312 116.207031 47.402344 115.5 47.070312 C 114.789062 46.734375 114.4375 46.296875 114.4375 45.757812 C 114.4375 45.046875 115.003906 44.449219 116.140625 43.960938 Z M 116.546875 38.507812 C 116.546875 40.238281 117.097656 41.101562 118.203125 41.101562 C 118.734375 41.101562 119.132812 40.890625 119.40625 40.460938 C 119.6875 40.023438 119.828125 39.390625 119.828125 38.554688 C 119.828125 37.765625 119.6875 37.15625 119.40625 36.726562 C 119.132812 36.300781 118.734375 36.085938 118.203125 36.085938 C 117.671875 36.085938 117.257812 36.300781 116.96875 36.726562 C 116.6875 37.144531 116.546875 37.738281 116.546875 38.507812 Z M 116.546875 44.085938 C 116.160156 44.46875 115.96875 44.9375 115.96875 45.492188 C 115.96875 45.992188 116.179688 46.382812 116.609375 46.664062 C 117.035156 46.953125 117.617188 47.101562 118.359375 47.101562 C 119.117188 47.101562 119.722656 46.933594 120.171875 46.601562 C 120.617188 46.265625 120.84375 45.820312 120.84375 45.257812 C 120.84375 44.828125 120.722656 44.527344 120.484375 44.351562 C 120.242188 44.175781 119.820312 44.085938 119.21875 44.085938 Z M 127.828125 44.492188 C 126.609375 44.492188 125.640625 44.09375 124.921875 43.289062 C 124.203125 42.488281 123.84375 41.40625 123.84375 40.039062 C 123.84375 38.675781 124.203125 37.597656 124.921875 36.804688 C 125.648438 36.015625 126.640625 35.617188 127.890625 35.617188 C 129.140625 35.617188 130.125 36.015625 130.84375 36.804688 C 131.570312 37.597656 131.9375 38.671875 131.9375 40.023438 C 131.9375 41.421875 131.570312 42.515625 130.84375 43.304688 C 130.113281 44.097656 129.109375 44.492188 127.828125 44.492188 Z M 127.859375 43.992188 C 128.566406 43.992188 129.148438 43.625 129.609375 42.882812 C 130.066406 42.132812 130.296875 41.179688 130.296875 40.023438 C 130.296875 38.910156 130.066406 37.976562 129.609375 37.226562 C 129.148438 36.46875 128.578125 36.085938 127.890625 36.085938 C 127.203125 36.085938 126.628906 36.46875 126.171875 37.226562 C 125.710938 37.976562 125.484375 38.914062 125.484375 40.039062 C 125.484375 41.164062 125.707031 42.109375 126.15625 42.867188 C 126.613281 43.617188 127.179688 43.992188 127.859375 43.992188 Z M 7.875 60.289062 L 7.875 59.804688 L 8.015625 59.789062 L 8.546875 59.757812 C 8.847656 59.738281 9.035156 59.6875 9.109375 59.601562 C 9.191406 59.519531 9.242188 59.332031 9.265625 59.039062 L 9.3125 58.257812 L 9.3125 50.742188 L 9.265625 49.976562 C 9.242188 49.675781 9.191406 49.484375 9.109375 49.398438 C 9.035156 49.316406 8.847656 49.265625 8.546875 49.242188 L 8.015625 49.210938 L 7.875 49.195312 L 7.875 48.726562 L 11.578125 48.726562 L 12.21875 48.710938 L 13.34375 48.679688 C 15.039062 48.679688 16.359375 49.09375 17.296875 49.914062 C 18.410156 50.894531 18.96875 52.34375 18.96875 54.257812 C 18.96875 56.125 18.46875 57.597656 17.46875 58.679688 C 16.476562 59.753906 15.125 60.289062 13.40625 60.289062 Z M 10.953125 49.242188 L 10.953125 58.257812 L 10.984375 58.867188 C 10.984375 59.222656 11.078125 59.4375 11.265625 59.507812 C 11.640625 59.675781 12.15625 59.757812 12.8125 59.757812 C 14.257812 59.757812 15.359375 59.316406 16.109375 58.429688 C 16.859375 57.546875 17.234375 56.234375 17.234375 54.492188 C 17.234375 52.640625 16.835938 51.300781 16.046875 50.476562 C 15.253906 49.65625 13.96875 49.242188 12.1875 49.242188 Z M 23.109375 51.804688 L 23.109375 58.257812 C 23.109375 58.6875 23.144531 59.0625 23.21875 59.382812 C 23.25 59.519531 23.300781 59.613281 23.375 59.664062 C 23.457031 59.707031 23.625 59.738281 23.875 59.757812 L 24.40625 59.789062 L 24.5625 59.804688 L 24.5625 60.289062 L 20.125 60.289062 L 20.125 59.804688 L 20.265625 59.789062 L 20.796875 59.757812 C 21.097656 59.738281 21.285156 59.6875 21.359375 59.601562 C 21.441406 59.519531 21.492188 59.332031 21.515625 59.039062 L 21.5625 58.257812 L 21.5625 53.820312 L 21.515625 53.054688 C 21.492188 52.765625 21.441406 52.578125 21.359375 52.492188 C 21.285156 52.410156 21.097656 52.359375 20.796875 52.335938 L 20.265625 52.289062 L 20.125 52.289062 L 20.125 51.804688 Z M 21.5625 50.257812 L 21.5625 48.726562 L 23.109375 48.726562 L 23.109375 50.257812 Z M 25.84375 59.851562 L 25.84375 57.695312 L 26.703125 57.695312 L 26.71875 57.835938 L 26.78125 58.648438 C 26.820312 59.066406 27.015625 59.378906 27.359375 59.585938 C 27.816406 59.859375 28.3125 59.992188 28.84375 59.992188 C 29.320312 59.992188 29.707031 59.851562 30 59.570312 C 30.300781 59.289062 30.453125 58.925781 30.453125 58.476562 C 30.453125 58.082031 30.347656 57.769531 30.140625 57.539062 C 29.941406 57.300781 29.59375 57.082031 29.09375 56.882812 L 28.296875 56.585938 C 27.453125 56.253906 26.835938 55.882812 26.453125 55.476562 C 26.078125 55.070312 25.890625 54.578125 25.890625 53.992188 C 25.890625 53.304688 26.160156 52.738281 26.703125 52.289062 C 27.253906 51.84375 27.957031 51.617188 28.8125 51.617188 C 29.632812 51.617188 30.488281 51.773438 31.375 52.085938 L 31.375 54.117188 L 30.515625 54.117188 L 30.515625 53.976562 L 30.4375 53.257812 C 30.414062 52.96875 30.367188 52.765625 30.296875 52.648438 C 30.222656 52.535156 30.078125 52.421875 29.859375 52.304688 C 29.546875 52.160156 29.226562 52.085938 28.90625 52.085938 C 28.457031 52.085938 28.082031 52.234375 27.78125 52.523438 C 27.476562 52.816406 27.328125 53.179688 27.328125 53.617188 C 27.328125 53.984375 27.445312 54.28125 27.6875 54.507812 C 27.9375 54.726562 28.425781 54.984375 29.15625 55.273438 L 29.875 55.570312 C 30.65625 55.894531 31.203125 56.234375 31.515625 56.585938 C 31.828125 56.929688 31.984375 57.375 31.984375 57.914062 C 31.984375 58.664062 31.679688 59.285156 31.078125 59.773438 C 30.484375 60.253906 29.710938 60.492188 28.765625 60.492188 C 27.722656 60.492188 26.75 60.28125 25.84375 59.851562 Z M 38.453125 60.242188 C 38.054688 60.40625 37.679688 60.492188 37.328125 60.492188 C 36.535156 60.492188 35.910156 60.28125 35.453125 59.851562 C 35.171875 59.613281 34.976562 59.335938 34.875 59.023438 C 34.78125 58.710938 34.734375 58.25 34.734375 57.632812 L 34.734375 52.429688 L 33.484375 52.429688 L 33.484375 51.804688 L 34.734375 51.804688 L 34.734375 50.257812 L 36.28125 49.882812 L 36.28125 51.804688 L 38.640625 51.804688 L 38.640625 52.429688 L 36.28125 52.429688 L 36.28125 57.835938 C 36.28125 58.578125 36.347656 59.066406 36.484375 59.304688 C 36.703125 59.671875 37.0625 59.851562 37.5625 59.851562 C 37.800781 59.851562 38.097656 59.773438 38.453125 59.617188 Z M 42.359375 54.117188 L 42.359375 58.257812 C 42.359375 58.6875 42.394531 59.0625 42.46875 59.382812 C 42.5 59.519531 42.550781 59.613281 42.625 59.664062 C 42.707031 59.707031 42.875 59.738281 43.125 59.757812 L 43.65625 59.789062 L 44 59.804688 L 44 60.289062 L 39.375 60.289062 L 39.375 59.804688 L 39.515625 59.789062 L 40.046875 59.757812 C 40.347656 59.738281 40.535156 59.6875 40.609375 59.601562 C 40.691406 59.519531 40.742188 59.332031 40.765625 59.039062 L 40.8125 58.257812 L 40.8125 53.820312 L 40.765625 53.054688 C 40.742188 52.765625 40.691406 52.578125 40.609375 52.492188 C 40.535156 52.410156 40.347656 52.359375 40.046875 52.335938 L 39.515625 52.289062 L 39.375 52.289062 L 39.375 51.804688 L 42.359375 51.804688 L 42.359375 53.398438 C 43.054688 52.210938 43.972656 51.617188 45.109375 51.617188 C 45.265625 51.617188 45.441406 51.644531 45.640625 51.695312 L 45.640625 54.023438 L 44.765625 54.023438 L 44.75 53.882812 L 44.6875 53.289062 C 44.664062 53.125 44.625 53.015625 44.5625 52.960938 C 44.507812 52.910156 44.410156 52.882812 44.265625 52.882812 C 43.878906 52.882812 43.523438 52.988281 43.203125 53.195312 C 42.878906 53.40625 42.597656 53.710938 42.359375 54.117188 Z M 49.40625 51.804688 L 49.40625 58.257812 C 49.40625 58.6875 49.441406 59.0625 49.515625 59.382812 C 49.546875 59.519531 49.597656 59.613281 49.671875 59.664062 C 49.753906 59.707031 49.921875 59.738281 50.171875 59.757812 L 50.703125 59.789062 L 50.859375 59.804688 L 50.859375 60.289062 L 46.421875 60.289062 L 46.421875 59.804688 L 46.5625 59.789062 L 47.09375 59.757812 C 47.394531 59.738281 47.582031 59.6875 47.65625 59.601562 C 47.738281 59.519531 47.789062 59.332031 47.8125 59.039062 L 47.859375 58.257812 L 47.859375 53.820312 L 47.8125 53.054688 C 47.789062 52.765625 47.738281 52.578125 47.65625 52.492188 C 47.582031 52.410156 47.394531 52.359375 47.09375 52.335938 L 46.5625 52.289062 L 46.421875 52.289062 L 46.421875 51.804688 Z M 47.859375 50.257812 L 47.859375 48.726562 L 49.40625 48.726562 L 49.40625 50.257812 Z M 56.6875 60.242188 C 56.289062 60.40625 55.914062 60.492188 55.5625 60.492188 C 54.769531 60.492188 54.144531 60.28125 53.6875 59.851562 C 53.40625 59.613281 53.210938 59.335938 53.109375 59.023438 C 53.015625 58.710938 52.96875 58.25 52.96875 57.632812 L 52.96875 52.429688 L 51.71875 52.429688 L 51.71875 51.804688 L 52.96875 51.804688 L 52.96875 50.257812 L 54.515625 49.882812 L 54.515625 51.804688 L 56.875 51.804688 L 56.875 52.429688 L 54.515625 52.429688 L 54.515625 57.835938 C 54.515625 58.578125 54.582031 59.066406 54.71875 59.304688 C 54.9375 59.671875 55.296875 59.851562 55.796875 59.851562 C 56.035156 59.851562 56.332031 59.773438 56.6875 59.617188 Z M 62.078125 60.492188 C 60.859375 60.492188 59.890625 60.09375 59.171875 59.289062 C 58.453125 58.488281 58.09375 57.40625 58.09375 56.039062 C 58.09375 54.675781 58.453125 53.597656 59.171875 52.804688 C 59.898438 52.015625 60.890625 51.617188 62.140625 51.617188 C 63.390625 51.617188 64.375 52.015625 65.09375 52.804688 C 65.820312 53.597656 66.1875 54.671875 66.1875 56.023438 C 66.1875 57.421875 65.820312 58.515625 65.09375 59.304688 C 64.363281 60.097656 63.359375 60.492188 62.078125 60.492188 Z M 62.109375 59.992188 C 62.816406 59.992188 63.398438 59.625 63.859375 58.882812 C 64.316406 58.132812 64.546875 57.179688 64.546875 56.023438 C 64.546875 54.910156 64.316406 53.976562 63.859375 53.226562 C 63.398438 52.46875 62.828125 52.085938 62.140625 52.085938 C 61.453125 52.085938 60.878906 52.46875 60.421875 53.226562 C 59.960938 53.976562 59.734375 54.914062 59.734375 56.039062 C 59.734375 57.164062 59.957031 58.109375 60.40625 58.867188 C 60.863281 59.617188 61.429688 59.992188 62.109375 59.992188 Z M 81.515625 60.445312 L 74.34375 50.757812 L 74.34375 58.257812 C 74.34375 58.6875 74.378906 59.0625 74.453125 59.382812 C 74.484375 59.519531 74.539062 59.613281 74.625 59.664062 C 74.707031 59.707031 74.875 59.738281 75.125 59.757812 L 75.65625 59.789062 L 75.796875 59.804688 L 75.796875 60.289062 L 72.171875 60.289062 L 72.171875 59.804688 L 72.3125 59.789062 L 72.84375 59.757812 C 73.09375 59.738281 73.257812 59.707031 73.34375 59.664062 C 73.425781 59.613281 73.484375 59.519531 73.515625 59.382812 C 73.585938 59.0625 73.625 58.6875 73.625 58.257812 L 73.625 50.742188 C 73.625 50.316406 73.585938 49.941406 73.515625 49.617188 C 73.484375 49.484375 73.425781 49.394531 73.34375 49.351562 C 73.257812 49.300781 73.09375 49.265625 72.84375 49.242188 L 72.3125 49.210938 L 72.171875 49.195312 L 72.171875 48.726562 L 74.765625 48.726562 L 81.359375 57.695312 L 81.359375 50.742188 L 81.3125 49.976562 C 81.289062 49.675781 81.238281 49.484375 81.15625 49.398438 C 81.070312 49.316406 80.882812 49.265625 80.59375 49.242188 L 80.0625 49.210938 L 79.921875 49.195312 L 79.921875 48.726562 L 83.515625 48.726562 L 83.515625 49.195312 L 83.375 49.210938 L 82.84375 49.242188 C 82.539062 49.265625 82.347656 49.316406 82.265625 49.398438 C 82.179688 49.484375 82.132812 49.675781 82.125 49.976562 L 82.078125 50.742188 L 82.078125 60.445312 Z M 89.875 59.117188 C 89.363281 59.628906 88.90625 59.988281 88.5 60.195312 C 88.101562 60.390625 87.65625 60.492188 87.15625 60.492188 C 86.4375 60.492188 85.835938 60.265625 85.359375 59.804688 C 84.878906 59.347656 84.640625 58.773438 84.640625 58.085938 C 84.640625 57.285156 84.953125 56.632812 85.578125 56.132812 C 85.972656 55.8125 86.441406 55.585938 86.984375 55.460938 C 87.523438 55.335938 88.265625 55.273438 89.203125 55.273438 L 89.53125 55.273438 L 89.53125 54.210938 C 89.53125 52.878906 89.019531 52.210938 88 52.210938 C 87.53125 52.210938 87.113281 52.359375 86.75 52.648438 C 86.53125 52.828125 86.394531 53.1875 86.34375 53.726562 L 86.328125 53.882812 L 85.28125 53.882812 L 85.28125 52.320312 C 86.363281 51.851562 87.363281 51.617188 88.28125 51.617188 C 89.09375 51.617188 89.75 51.804688 90.25 52.179688 C 90.5625 52.421875 90.773438 52.679688 90.890625 52.960938 C 91.003906 53.234375 91.0625 53.628906 91.0625 54.148438 L 91.0625 57.929688 C 91.0625 58.609375 91.117188 59.085938 91.234375 59.367188 C 91.359375 59.640625 91.566406 59.773438 91.859375 59.773438 C 91.953125 59.773438 92.085938 59.753906 92.265625 59.710938 L 92.3125 60.289062 C 91.945312 60.421875 91.613281 60.492188 91.3125 60.492188 C 90.5625 60.492188 90.082031 60.035156 89.875 59.117188 Z M 89.53125 58.945312 L 89.53125 55.757812 L 89.171875 55.757812 C 88.265625 55.757812 87.554688 55.945312 87.046875 56.320312 C 86.535156 56.6875 86.28125 57.203125 86.28125 57.867188 C 86.28125 58.359375 86.4375 58.765625 86.75 59.085938 C 87.0625 59.410156 87.457031 59.570312 87.9375 59.570312 C 88.382812 59.570312 88.914062 59.363281 89.53125 58.945312 Z M 99.875 59.992188 C 99.0625 60.324219 98.269531 60.492188 97.5 60.492188 C 96.257812 60.492188 95.253906 60.078125 94.484375 59.242188 C 93.710938 58.410156 93.328125 57.332031 93.328125 56.007812 C 93.328125 54.6875 93.695312 53.625 94.4375 52.820312 C 95.175781 52.019531 96.15625 51.617188 97.375 51.617188 C 98.019531 51.617188 98.851562 51.742188 99.875 51.992188 L 99.875 54.023438 L 98.921875 54.023438 L 98.90625 53.882812 C 98.90625 53.257812 98.8125 52.835938 98.625 52.617188 C 98.332031 52.296875 97.921875 52.132812 97.390625 52.132812 C 96.628906 52.132812 96.03125 52.472656 95.59375 53.148438 C 95.15625 53.828125 94.9375 54.742188 94.9375 55.898438 C 94.9375 57.078125 95.195312 58.007812 95.71875 58.695312 C 96.238281 59.375 96.945312 59.710938 97.84375 59.710938 C 98.613281 59.710938 99.289062 59.582031 99.875 59.320312 Z M 103.96875 51.804688 L 103.96875 58.257812 C 103.96875 58.6875 104.003906 59.0625 104.078125 59.382812 C 104.109375 59.519531 104.160156 59.613281 104.234375 59.664062 C 104.316406 59.707031 104.484375 59.738281 104.734375 59.757812 L 105.265625 59.789062 L 105.421875 59.804688 L 105.421875 60.289062 L 100.984375 60.289062 L 100.984375 59.804688 L 101.125 59.789062 L 101.65625 59.757812 C 101.957031 59.738281 102.144531 59.6875 102.21875 59.601562 C 102.300781 59.519531 102.351562 59.332031 102.375 59.039062 L 102.421875 58.257812 L 102.421875 53.820312 L 102.375 53.054688 C 102.351562 52.765625 102.300781 52.578125 102.21875 52.492188 C 102.144531 52.410156 101.957031 52.359375 101.65625 52.335938 L 101.125 52.289062 L 100.984375 52.289062 L 100.984375 51.804688 Z M 102.421875 50.257812 L 102.421875 48.726562 L 103.96875 48.726562 L 103.96875 50.257812 Z M 110.375 60.492188 C 109.15625 60.492188 108.1875 60.09375 107.46875 59.289062 C 106.75 58.488281 106.390625 57.40625 106.390625 56.039062 C 106.390625 54.675781 106.75 53.597656 107.46875 52.804688 C 108.195312 52.015625 109.1875 51.617188 110.4375 51.617188 C 111.6875 51.617188 112.671875 52.015625 113.390625 52.804688 C 114.117188 53.597656 114.484375 54.671875 114.484375 56.023438 C 114.484375 57.421875 114.117188 58.515625 113.390625 59.304688 C 112.660156 60.097656 111.65625 60.492188 110.375 60.492188 Z M 110.40625 59.992188 C 111.113281 59.992188 111.695312 59.625 112.15625 58.882812 C 112.613281 58.132812 112.84375 57.179688 112.84375 56.023438 C 112.84375 54.910156 112.613281 53.976562 112.15625 53.226562 C 111.695312 52.46875 111.125 52.085938 110.4375 52.085938 C 109.75 52.085938 109.175781 52.46875 108.71875 53.226562 C 108.257812 53.976562 108.03125 54.914062 108.03125 56.039062 C 108.03125 57.164062 108.253906 58.109375 108.703125 58.867188 C 109.160156 59.617188 109.726562 59.992188 110.40625 59.992188 Z M 118.53125 53.398438 C 118.894531 52.835938 119.347656 52.398438 119.890625 52.085938 C 120.429688 51.773438 121 51.617188 121.59375 51.617188 C 122.320312 51.617188 122.890625 51.859375 123.296875 52.335938 C 123.710938 52.816406 123.921875 53.472656 123.921875 54.304688 L 123.921875 58.257812 L 123.984375 59.039062 C 123.992188 59.332031 124.039062 59.519531 124.125 59.601562 C 124.207031 59.6875 124.398438 59.738281 124.703125 59.757812 L 125.234375 59.789062 L 125.375 59.804688 L 125.375 60.289062 L 120.9375 60.289062 L 120.9375 59.804688 L 121.078125 59.789062 L 121.609375 59.757812 C 121.910156 59.738281 122.101562 59.6875 122.1875 59.601562 C 122.269531 59.519531 122.320312 59.332031 122.34375 59.039062 L 122.390625 58.257812 L 122.390625 54.554688 C 122.390625 53.828125 122.289062 53.320312 122.09375 53.039062 C 121.90625 52.75 121.570312 52.601562 121.09375 52.601562 C 120.394531 52.601562 119.539062 53.039062 118.53125 53.914062 L 118.53125 58.257812 C 118.53125 58.6875 118.566406 59.0625 118.640625 59.382812 C 118.671875 59.519531 118.722656 59.613281 118.796875 59.664062 C 118.878906 59.707031 119.046875 59.738281 119.296875 59.757812 L 119.828125 59.789062 L 119.984375 59.804688 L 119.984375 60.289062 L 115.546875 60.289062 L 115.546875 59.804688 L 115.6875 59.789062 L 116.21875 59.757812 C 116.519531 59.738281 116.707031 59.6875 116.78125 59.601562 C 116.863281 59.519531 116.914062 59.332031 116.9375 59.039062 L 116.984375 58.257812 L 116.984375 53.820312 L 116.9375 53.054688 C 116.914062 52.765625 116.863281 52.578125 116.78125 52.492188 C 116.707031 52.410156 116.519531 52.359375 116.21875 52.335938 L 115.6875 52.289062 L 115.546875 52.289062 L 115.546875 51.804688 L 118.53125 51.804688 Z M 131.390625 59.117188 C 130.878906 59.628906 130.421875 59.988281 130.015625 60.195312 C 129.617188 60.390625 129.171875 60.492188 128.671875 60.492188 C 127.953125 60.492188 127.351562 60.265625 126.875 59.804688 C 126.394531 59.347656 126.15625 58.773438 126.15625 58.085938 C 126.15625 57.285156 126.46875 56.632812 127.09375 56.132812 C 127.488281 55.8125 127.957031 55.585938 128.5 55.460938 C 129.039062 55.335938 129.78125 55.273438 130.71875 55.273438 L 131.046875 55.273438 L 131.046875 54.210938 C 131.046875 52.878906 130.535156 52.210938 129.515625 52.210938 C 129.046875 52.210938 128.628906 52.359375 128.265625 52.648438 C 128.046875 52.828125 127.910156 53.1875 127.859375 53.726562 L 127.84375 53.882812 L 126.796875 53.882812 L 126.796875 52.320312 C 127.878906 51.851562 128.878906 51.617188 129.796875 51.617188 C 130.609375 51.617188 131.265625 51.804688 131.765625 52.179688 C 132.078125 52.421875 132.289062 52.679688 132.40625 52.960938 C 132.519531 53.234375 132.578125 53.628906 132.578125 54.148438 L 132.578125 57.929688 C 132.578125 58.609375 132.632812 59.085938 132.75 59.367188 C 132.875 59.640625 133.082031 59.773438 133.375 59.773438 C 133.46875 59.773438 133.601562 59.753906 133.78125 59.710938 L 133.828125 60.289062 C 133.460938 60.421875 133.128906 60.492188 132.828125 60.492188 C 132.078125 60.492188 131.597656 60.035156 131.390625 59.117188 Z M 131.046875 58.945312 L 131.046875 55.757812 L 130.6875 55.757812 C 129.78125 55.757812 129.070312 55.945312 128.5625 56.320312 C 128.050781 56.6875 127.796875 57.203125 127.796875 57.867188 C 127.796875 58.359375 127.953125 58.765625 128.265625 59.085938 C 128.578125 59.410156 128.972656 59.570312 129.453125 59.570312 C 129.898438 59.570312 130.429688 59.363281 131.046875 58.945312 Z M 137.34375 47.945312 L 137.34375 58.257812 C 137.34375 58.6875 137.378906 59.0625 137.453125 59.382812 C 137.484375 59.519531 137.535156 59.613281 137.609375 59.664062 C 137.691406 59.707031 137.859375 59.738281 138.109375 59.757812 L 138.640625 59.789062 L 138.796875 59.804688 L 138.796875 60.289062 L 134.359375 60.289062 L 134.359375 59.804688 L 134.5 59.789062 L 135.03125 59.757812 C 135.332031 59.738281 135.519531 59.6875 135.59375 59.601562 C 135.675781 59.519531 135.726562 59.332031 135.75 59.039062 L 135.796875 58.257812 L 135.796875 49.976562 L 135.75 49.195312 C 135.726562 48.90625 135.675781 48.71875 135.59375 48.632812 C 135.519531 48.550781 135.332031 48.5 135.03125 48.476562 L 134.5 48.445312 L 134.359375 48.429688 L 134.359375 47.945312 Z M 137.34375 47.945312 "/>
</g>
</svg>
