<?xml version="1.0" encoding="UTF-8" standalone="no"?>
<!-- Created with Inkscape (http://www.inkscape.org/) -->

<svg
   id="svg1353"
   sodipodi:version="0.32"
   inkscape:version="1.3.2 (091e20e, 2023-11-25, custom)"
   width="747"
   height="656"
   sodipodi:docname="Road_Works.svg"
   version="1.0"
   xmlns:inkscape="http://www.inkscape.org/namespaces/inkscape"
   xmlns:sodipodi="http://sodipodi.sourceforge.net/DTD/sodipodi-0.dtd"
   xmlns="http://www.w3.org/2000/svg"
   xmlns:svg="http://www.w3.org/2000/svg"
   xmlns:rdf="http://www.w3.org/1999/02/22-rdf-syntax-ns#"
   xmlns:cc="http://creativecommons.org/ns#"
   xmlns:dc="http://purl.org/dc/elements/1.1/">
  <metadata
     id="metadata1358">
    <rdf:RDF>
      <cc:Work
         rdf:about="">
        <dc:format>image/svg+xml</dc:format>
        <dc:type
           rdf:resource="http://purl.org/dc/dcmitype/StillImage" />
      </cc:Work>
    </rdf:RDF>
  </metadata>
  <defs
     id="defs1356" />
  <sodipodi:namedview
     inkscape:window-height="1009"
     inkscape:window-width="1920"
     inkscape:pageshadow="2"
     inkscape:pageopacity="0.0"
     borderopacity="1.0"
     bordercolor="#666666"
     pagecolor="#ffffff"
     id="base"
     inkscape:zoom="1.4142136"
     inkscape:cx="355.32115"
     inkscape:cy="216.02112"
     inkscape:window-x="1272"
     inkscape:window-y="-8"
     inkscape:current-layer="svg1353"
     inkscape:showpageshadow="2"
     inkscape:pagecheckerboard="0"
     inkscape:deskcolor="#d1d1d1"
     showgrid="false"
     inkscape:window-maximized="1" />
  <path
     style="fill:#ffffff;fill-opacity:1;fill-rule:evenodd;stroke:#000000;stroke-width:1px;stroke-linecap:butt;stroke-linejoin:miter;stroke-opacity:1"
     d="M 404.60969,20.515451 L 732.72019,587.57645 C 761.28347,633.2243 750.24362,660.09579 688.35479,655.39873 L 51.153635,654.92678 C 6.782529,655.99457 -12.725281,631.62837 10.113145,595.23367 C 10.982015,593.81715 343.08069,20.505924 343.08069,20.505924 C 357.49579,-6.1887276 390.72849,-5.9122536 404.60969,20.515451 z "
     id="path1390"
     sodipodi:nodetypes="ccccccc" />
  <path
     id="path1366"
     d="M 32.855836,640.84251 C 22.271545,639.60439 14.361858,623.76172 18.223636,610.77392 C 19.333908,607.03989 356.25097,28.54174 359.21984,24.082885 C 369.83401,8.1418022 387.6906,16.090944 392.35584,24.883232 C 393.96357,27.913222 721.58199,600.73663 722.62858,602.61719 C 732.71689,620.74447 729.55967,640.68753 711.45347,640.51357 C 709.05987,640.49057 34.505836,641.24621 32.855836,640.84251 z M 374.64336,124.25701 C 374.07237,124.26787 114.73662,574.3743 114.76804,574.40572 C 114.79921,574.43689 634.69204,575.91925 634.71052,575.89003 C 634.73255,575.85518 375.16517,124.24708 374.64336,124.25701 z "
     style="fill:#cb0000"
     sodipodi:nodetypes="cssssscczzz" />
  <path
     id="path1364"
     d="M 228.55224,522.94252 C 228.08534,521.89986 289.84516,408.09161 290.60595,407.6007 C 292.19365,406.5762 327.39147,424.66725 330.91231,428.31745 L 356.04796,466.66624 L 359.53219,553.99327 C 346.50406,553.99327 341.76696,548.65944 336.75945,540.85008 L 332.12199,477.49327 C 332.12199,477.49327 304.02976,436.5206 303.57167,437.25428 C 298.09727,446.02215 248.28865,536.46687 238.94074,550.84855 C 238.64762,551.29951 228.55224,549.44802 228.55224,522.94252 z M 376.89781,546.40809 C 378.99138,542.94368 416.86783,497.96122 421.1223,496.47469 C 432.62756,492.45469 440.87907,480.83257 462.48877,454.55911 C 474.58255,439.85527 496.68218,441.48091 503.4288,449.23413 C 513.34313,460.62768 585.42032,553.76324 579.74217,553.76958 C 579.74217,553.76958 384.75066,553.99327 379.35971,553.99327 C 373.8944,553.99327 374.44916,550.4601 376.89781,546.40809 z M 375.35255,447.75664 C 373.81236,447.74447 373.2896,456.76948 368.52076,457.00692 C 364.64895,457.1997 357.1492,447.78294 355.67033,444.27539 C 354.92413,442.50555 353.79995,437.54597 354.76285,432.22365 C 354.92988,431.30041 336.63958,423.52035 341.25162,414.1429 C 345.73469,405.02768 353.29342,413.83984 355.69659,415.69519 C 357.86574,417.36987 356.44241,380.45852 354.9826,382.02223 C 354.74075,382.2813 333.72508,420.99327 333.26387,420.99327 C 331.65924,420.99327 294.85612,401.12084 294.50391,400.06421 C 294.30888,399.47912 328.3482,334.62839 327.22417,333.91684 C 325.62256,332.90296 307.33932,332.66243 304.83787,333.62233 C 303.00011,334.32755 290.3136,358.93948 290.3136,361.79955 C 290.3136,362.85691 303.3136,374.50666 303.3136,375.06244 C 303.3136,376.39892 299.42348,383.99327 298.73888,383.99327 C 298.44515,383.99327 284.05528,371.99327 283.80232,371.99327 C 283.54936,371.99327 276.93687,383.99327 276.51161,383.99327 L 265.9051,374.00984 L 266.05203,356.49327 L 293.23615,311.99327 C 293.23615,311.99327 364.52381,312.08183 368.81275,314.09787 C 374.65286,316.84305 378.38194,321.20757 380.68929,327.9982 C 382.53958,333.44367 376.61707,432.62052 376.94261,433.46887 C 377.26815,434.31721 435.3136,483.71851 435.3136,484.40198 C 435.3136,486.30212 430.92781,490.00031 428.74915,489.93725 C 427.6846,489.90645 376.0207,447.76192 375.35255,447.75664 z "
     style="fill:#010101"
     sodipodi:nodetypes="cssccscssccsssscscssszssssssssssscccssssss" />
  <path
     style="fill:#000000;fill-opacity:1;fill-rule:evenodd;stroke:#000000;stroke-width:1.1878264;stroke-linecap:round;stroke-linejoin:round;stroke-miterlimit:6.5;stroke-opacity:1"
     d="M 422.95379,290.11796 C 428.47319,302.09076 423.26825,315.99247 411.43982,321.37162 C 399.61139,326.75075 385.61653,321.58038 380.20135,309.83062 C 374.78629,298.08085 379.99123,284.17913 391.81966,278.79998 C 403.569,273.45683 417.45174,278.50352 422.95379,290.11796 z "
     id="path1387"
     sodipodi:nodetypes="csssc" />
</svg>
