<?xml version="1.0" encoding="UTF-8" standalone="no"?>
<!-- Created with Inkscape (http://www.inkscape.org/) -->

<svg
   xmlns:dc="http://purl.org/dc/elements/1.1/"
   xmlns:cc="http://creativecommons.org/ns#"
   xmlns:rdf="http://www.w3.org/1999/02/22-rdf-syntax-ns#"
   xmlns:svg="http://www.w3.org/2000/svg"
   xmlns="http://www.w3.org/2000/svg"
   xmlns:sodipodi="http://sodipodi.sourceforge.net/DTD/sodipodi-0.dtd"
   xmlns:inkscape="http://www.inkscape.org/namespaces/inkscape"
   id="svg1353"
   sodipodi:version="0.32"
   inkscape:version="0.92.5 (2060ec1f9f, 2020-04-08)"
   width="100"
   height="100"
   sodipodi:docname="Road_Works.svg"
   version="1.0"
   viewBox="0 0 100 100">
  <metadata
     id="metadata1358">
    <rdf:RDF>
      <cc:Work
         rdf:about="">
        <dc:format>image/svg+xml</dc:format>
        <dc:type
           rdf:resource="http://purl.org/dc/dcmitype/StillImage" />
        <dc:title />
      </cc:Work>
    </rdf:RDF>
  </metadata>
  <defs
     id="defs1356" />
  <sodipodi:namedview
     inkscape:window-height="1016"
     inkscape:window-width="1848"
     inkscape:pageshadow="2"
     inkscape:pageopacity="0.0"
     borderopacity="1.0"
     bordercolor="#666666"
     pagecolor="#ffffff"
     id="base"
     inkscape:zoom="5.6568544"
     inkscape:cx="1.5206278"
     inkscape:cy="28.834204"
     inkscape:window-x="72"
     inkscape:window-y="27"
     inkscape:current-layer="svg1353"
     inkscape:showpageshadow="2"
     inkscape:pagecheckerboard="0"
     inkscape:deskcolor="#d1d1d1"
     showgrid="false"
     inkscape:window-maximized="1"
     scale-x="1" />
  <path
     id="path1366"
     d="M 4.3902211,97.356814 C 2.9790914,97.168447 1.924548,94.758133 2.4394119,92.782163 2.5874368,92.214066 47.506239,4.2010523 47.902057,3.5226805 c 1.415114,-2.4252858 3.795808,-1.2158994 4.417792,0.1217642 0.214347,0.4609844 43.893426,87.6106393 44.03296,87.8967493 1.345008,2.757894 0.924075,5.792042 -1.489899,5.765575 -0.319122,-0.0036 -90.2527059,0.111465 -90.4726889,0.05005 z M 49.958368,18.763224 c -0.07613,0.0017 -34.651553,68.481082 -34.647364,68.485862 0.0042,0.0048 69.31784,0.23027 69.320303,0.225825 0.0029,-0.0053 -34.60337,-68.713198 -34.672939,-68.711687 z"
     style="fill:#cb0000;stroke-width:0.14242132"
     sodipodi:nodetypes="cssssscczzz"
     inkscape:connector-curvature="0" />
  <path
     id="path1364"
     d="m 30.481057,79.419448 c -0.06225,-0.158631 8.171758,-17.473479 8.273189,-17.548165 0.211677,-0.155868 4.904356,2.596514 5.373765,3.151856 l 3.351162,5.834406 0.464527,13.28598 c -1.736949,0 -2.368514,-0.811492 -3.036131,-1.999612 L 44.28929,72.504775 c 0,0 -3.745341,-6.233604 -3.806415,-6.121982 -0.729864,1.333949 -7.3705,15.094257 -8.616792,17.282293 -0.03907,0.06861 -1.385026,-0.213077 -1.385026,-4.245638 z m 19.777881,3.570063 c 0.279121,-0.527077 5.328923,-7.370731 5.896142,-7.596893 1.533917,-0.611604 2.634033,-2.3798 5.515103,-6.377058 1.612379,-2.237051 4.558769,-1.989725 5.458248,-0.810146 1.32181,1.733421 10.931358,15.903114 10.17433,15.904079 0,0 -25.996858,0.03403 -26.715596,0.03403 -0.728651,0 -0.654689,-0.537538 -0.328227,-1.154014 z M 50.052919,67.980629 c -0.205343,-0.0019 -0.275039,1.371218 -0.910835,1.407342 -0.516202,0.02933 -1.516091,-1.403342 -1.713258,-1.936982 -0.09949,-0.269264 -0.249365,-1.023818 -0.120989,-1.833558 0.02227,-0.140463 -2.416249,-1.324125 -1.801357,-2.750814 0.597697,-1.386795 1.605449,-0.04611 1.925847,0.236165 0.289197,0.254787 0.09943,-5.360926 -0.09519,-5.123022 -0.03225,0.03942 -2.834117,5.929075 -2.895608,5.929075 -0.213933,0 -5.120636,-3.023402 -5.167594,-3.184157 -0.026,-0.08902 4.512223,-9.955441 4.362363,-10.063696 -0.21353,-0.154253 -2.651107,-0.190847 -2.984609,-0.0448 -0.245015,0.107293 -1.936419,3.851765 -1.936419,4.286897 0,0.160867 1.733199,1.933265 1.733199,2.017822 0,0.203333 -0.518642,1.358742 -0.609915,1.358742 -0.03916,0 -1.957662,-1.825686 -1.991388,-1.825686 -0.03372,0 -0.915322,1.825686 -0.972019,1.825686 l -1.414092,-1.518885 0.01958,-2.66498 3.624269,-6.770253 c 0,0 9.504287,0.01348 10.076101,0.320195 0.778621,0.417653 1.275793,1.081672 1.583416,2.114803 0.246686,0.828477 -0.542921,15.917295 -0.499519,16.046363 0.0434,0.129068 7.782198,7.645007 7.782198,7.748992 0,0.289087 -0.584728,0.851732 -0.875193,0.842138 -0.141929,-0.0047 -7.029916,-6.416577 -7.118996,-6.41738 z"
     style="fill:#010101;stroke-width:0.14242132"
     sodipodi:nodetypes="cssccscssccsssscscssszssssssssssscccssssss"
     inkscape:connector-curvature="0" />
  <path
     style="fill:#000000;fill-opacity:1;fill-rule:evenodd;stroke:#000000;stroke-width:0.16917183;stroke-linecap:round;stroke-linejoin:round;stroke-miterlimit:6.5;stroke-opacity:1"
     d="m 56.39926,43.997396 c 0.735863,1.821549 0.04192,3.936563 -1.535077,4.754949 -1.577002,0.818384 -3.442839,0.03177 -4.164808,-1.755854 -0.721952,-1.787616 -0.02802,-3.902632 1.548989,-4.721018 1.566457,-0.81291 3.417346,-0.0451 4.150896,1.721923 z"
     id="path1387"
     sodipodi:nodetypes="csssc"
     inkscape:connector-curvature="0" />
</svg>
